<?xml version="1.0" encoding="utf-8"?>
<!-- Generator: Adobe Illustrator 24.1.1, SVG Export Plug-In . SVG Version: 6.00 Build 0)  -->
<svg version="1.1" id="Layer_1" xmlns="http://www.w3.org/2000/svg" xmlns:xlink="http://www.w3.org/1999/xlink" x="0px" y="0px"
	 viewBox="0 0 100 100" style="enable-background:new 0 0 100 100;" xml:space="preserve">
<style type="text/css">
	.st0{fill:#29211C;}
</style>
<g>
	<g>
		<path class="st0" d="M96.6,69V58.6h-3.8c0.2-1.2,0.3-2.2,0.3-3.4c0-7.1-4.3-14-11.2-17.9c-0.5-0.3-1.2-0.7-1.4-0.9
			c0,0,0-0.2,0-0.5c0.2-0.5,0.3-1,0.3-1.4c0-1.2-0.5-2.2-1.6-2.9c-1-0.7-2.1-0.9-3.4-0.5l-1.7-1c-1-0.5-2.2-0.5-3.3,0l-2.1,0.9
			c-1.4-0.5-2.9,0-4,1c-0.9,1-1.2,2.6-0.5,3.8c0,0.2,0,0.3,0.2,0.5c-0.2,0.2-0.9,0.5-1.4,1c-0.5,0.3-1.2,0.7-1.7,1
			c-0.5-0.3-1-0.7-1.7-1c-0.5-0.3-1.2-0.7-1.4-0.9c0,0,0-0.2,0-0.5c0.2-0.5,0.3-1,0.3-1.4c0-1.2-0.5-2.2-1.6-2.9
			c-1-0.7-2.1-0.9-3.4-0.5l-1.9-1c-1-0.5-2.2-0.5-3.3,0l-2.1,0.9c-1.4-0.5-2.9,0-4,1c-0.9,1-1.2,2.6-0.5,3.8c0,0.2,0,0.3,0.2,0.5
			c-0.2,0.2-0.9,0.5-1.4,1c-0.5,0.3-1.2,0.7-1.7,1c-0.5-0.3-1-0.7-1.7-1c-0.5-0.3-1.2-0.7-1.4-0.9c0,0,0-0.2,0-0.5
			c0.2-0.5,0.3-1,0.3-1.4c0-1.2-0.5-2.2-1.6-2.9c-1-0.7-2.1-0.9-3.4-0.5l-1.9-1c-1-0.5-2.2-0.5-3.3,0L24,30.9c-1.4-0.5-2.9,0-4,1
			c-0.9,1-1.2,2.6-0.5,3.8c0,0.2,0,0.3,0.2,0.5c-0.2,0.2-0.9,0.5-1.6,1c-6.9,4-11.2,10.9-11.2,17.9c0,1.2,0.2,2.2,0.3,3.4H3.4V69H0
			v31h100V69H96.6z M64.7,40.3L64.7,40.3c1.7-1,3.3-1.9,3.3-4c0-0.5-0.2-1-0.2-1.6l-0.3-0.3v-0.2c0.2-0.2,0.2,0,0.2,0
			c0.9,0.3,2.1,0.3,2.8-0.2l1.9-0.9h0.2l0,0l1.9,0.9c0.9,0.5,1.9,0.5,2.9,0.2c0,0,0.2,0.2,0,0.3L77.1,35c-0.9,3.3,1,4.5,2.9,5.5
			c5.9,3.3,9.5,9.1,9.5,14.8c0,1.2-0.2,2.2-0.3,3.4h-19v-0.2c0-0.3,0.2-0.7,0.2-1c0-0.2,0-0.3,0-0.5c0-0.5,0-1,0-1.6
			c0-0.7,0-1.4-0.2-2.1c0-0.2,0-0.5-0.2-0.7c0-0.5-0.2-0.9-0.3-1.4c0-0.3-0.2-0.5-0.2-0.9c-0.2-0.3-0.2-0.9-0.3-1.2
			s-0.2-0.5-0.3-0.9c-0.2-0.3-0.3-0.7-0.5-1.2c-0.2-0.3-0.3-0.5-0.5-0.9s-0.3-0.7-0.7-1c-0.2-0.3-0.3-0.5-0.5-0.9
			c-0.2-0.3-0.5-0.7-0.7-1c-0.2-0.3-0.3-0.5-0.7-0.9c-0.3-0.3-0.7-0.7-1-1c-0.2-0.2-0.3-0.3-0.7-0.7l0,0
			C64.1,40.5,64.3,40.3,64.7,40.3z M42.2,40.3L42.2,40.3c1.7-1,3.3-1.9,3.3-4c0-0.5-0.2-1-0.2-1.6L45,34.5v-0.2c0.2-0.2,0.2,0,0.2,0
			c0.9,0.3,2.1,0.3,2.8-0.2l1.9-0.9H50l0,0l1.9,0.9c0.9,0.5,1.9,0.5,2.9,0.2c0,0,0.2,0.2,0,0.3L54.7,35c-0.9,3.3,1,4.5,2.9,5.5
			c0.9,0.5,1.6,1,2.2,1.6c4.5,3.4,7.1,8.4,7.1,13.3c0,0.7,0,1.4-0.2,2.1c0,0.2,0,0.3-0.2,0.7c0,0.2-0.2,0.5-0.2,0.7H47.9v-0.2
			c0-0.3,0.2-0.7,0.2-1c0-0.2,0-0.3,0-0.5c0-0.5,0-1,0-1.6c0-0.7,0-1.4-0.2-2.1c0-0.2,0-0.5-0.2-0.7c0-0.5-0.2-0.9-0.3-1.4
			c0-0.3-0.2-0.5-0.2-0.9c-0.2-0.3-0.2-0.9-0.3-1.2c-0.2-0.3-0.2-0.5-0.3-0.9c-0.2-0.3-0.3-0.7-0.5-1.2c-0.2-0.3-0.3-0.5-0.5-0.9
			c-0.2-0.3-0.3-0.7-0.7-1c-0.2-0.3-0.3-0.5-0.5-0.9c-0.2-0.3-0.5-0.7-0.7-1s-0.3-0.5-0.7-0.9c-0.3-0.3-0.7-0.7-1-1
			c-0.2-0.2-0.3-0.3-0.7-0.7l0,0C41.7,40.5,41.9,40.3,42.2,40.3z M10.3,55.2c0-5.9,3.6-11.6,9.5-14.8l0.2-0.2c1.6-0.9,3.1-1.7,3.1-4
			c0-0.5-0.2-1-0.2-1.6l-0.3-0.2v-0.2c0.2-0.2,0.2,0,0.2,0c0.9,0.3,2.1,0.3,2.8-0.2l1.9-0.9h0.2l0,0l1.9,0.9
			c0.9,0.5,1.9,0.5,2.9,0.2c0,0,0.2,0.2,0,0.3L32.2,35c-0.9,3.3,1,4.5,2.9,5.5c0.9,0.5,1.6,1,2.2,1.6c4.5,3.4,7.1,8.4,7.1,13.3
			c0,0.7,0,1.4-0.2,2.1c0,0.2,0,0.3-0.2,0.7c0,0.2-0.2,0.5-0.2,0.7H10.7C10.5,57.4,10.3,56.4,10.3,55.2z M6.9,62.1h1.4h35h3.6h18.8
			h3.6h22.4h1.4V69H6.9V62.1z M96.6,96.6H3.4v-5.2h17.2c1,0,1.7-0.7,1.7-1.7c0-1-0.7-1.7-1.7-1.7H3.4V81h13.8c1,0,1.7-0.7,1.7-1.7
			c0-1-0.7-1.7-1.7-1.7H3.4v-5.2h93.1V96.6z"/>
		<path class="st0" d="M22.9,38.4l-1.7,1.7c-0.7,0.7-0.7,1.7,0,2.4c0.3,0.3,0.9,0.5,1.2,0.5c0.3,0,0.9-0.2,1.2-0.5l1.7-1.7
			c0.3-0.3,0.5-0.9,0.5-1.2s-0.2-0.9-0.5-1.2C24.7,37.8,23.6,37.8,22.9,38.4z"/>
		<path class="st0" d="M27.6,37.9c-1,0-1.7,0.7-1.7,1.7v3.4c0,1,0.7,1.7,1.7,1.7s1.7-0.7,1.7-1.7v-3.4
			C29.3,38.6,28.6,37.9,27.6,37.9z"/>
		<path class="st0" d="M32.2,38.4c-0.7-0.7-1.7-0.7-2.4,0c-0.3,0.3-0.5,0.7-0.5,1.2c0,0.5,0.2,0.9,0.5,1.2l1.7,1.7
			c0.3,0.3,0.9,0.5,1.2,0.5s0.9-0.2,1.2-0.5c0.7-0.7,0.7-1.7,0-2.4L32.2,38.4z"/>
		<path class="st0" d="M44.8,43.1c0.5,0,0.9-0.2,1.2-0.5l1.7-1.7c0.3-0.3,0.5-0.9,0.5-1.2s-0.2-0.9-0.5-1.2c-0.7-0.7-1.7-0.7-2.4,0
			l-1.7,1.7c-0.7,0.7-0.7,1.7,0,2.4C44,42.9,44.3,43.1,44.8,43.1z"/>
		<path class="st0" d="M50,44.8c1,0,1.7-0.7,1.7-1.7v-3.4c0-1-0.7-1.7-1.7-1.7s-1.7,0.7-1.7,1.7v3.4C48.3,44.1,49,44.8,50,44.8z"/>
		<path class="st0" d="M54,42.6c0.3,0.3,0.9,0.5,1.2,0.5c0.3,0,0.9-0.2,1.2-0.5c0.7-0.7,0.7-1.7,0-2.4l-1.7-1.7
			c-0.7-0.7-1.7-0.7-2.4,0c-0.3,0.3-0.5,0.7-0.5,1.2c0,0.5,0.2,0.9,0.5,1.2L54,42.6z"/>
		<path class="st0" d="M67.2,43.1c0.5,0,0.9-0.2,1.2-0.5l1.7-1.7c0.3-0.3,0.5-0.9,0.5-1.2s-0.2-0.9-0.5-1.2c-0.7-0.7-1.7-0.7-2.4,0
			L66,40.2c-0.7,0.7-0.7,1.7,0,2.4C66.4,42.9,66.7,43.1,67.2,43.1z"/>
		<path class="st0" d="M72.4,44.8c1,0,1.7-0.7,1.7-1.7v-3.4c0-1-0.7-1.7-1.7-1.7c-1,0-1.7,0.7-1.7,1.7v3.4
			C70.7,44.1,71.4,44.8,72.4,44.8z"/>
		<path class="st0" d="M76.4,42.6c0.3,0.3,0.9,0.5,1.2,0.5c0.3,0,0.9-0.2,1.2-0.5c0.7-0.7,0.7-1.7,0-2.4l-1.7-1.7
			c-0.7-0.7-1.7-0.7-2.4,0c-0.3,0.3-0.5,0.7-0.5,1.2c0,0.5,0.2,0.9,0.5,1.2L76.4,42.6z"/>
		<path class="st0" d="M48.8,17.8c-0.7,0.7-0.7,1.7,0,2.4c0.3,0.3,0.7,0.5,1.2,0.5s0.9-0.2,1.2-0.5c2.9-3.1,2.9-7.9,0-11
			c-1.7-1.7-1.7-4.5,0-6.2c0.7-0.7,0.7-1.7,0-2.4c-0.7-0.7-1.7-0.7-2.4,0c-2.9,3.1-2.9,7.9,0,11C50.3,13.3,50.3,16,48.8,17.8z"/>
		<path class="st0" d="M72.9,17.8c-0.7,0.7-0.7,1.7,0,2.4c0.3,0.3,0.7,0.5,1.2,0.5s0.9-0.2,1.2-0.5c2.9-3.1,2.9-7.9,0-11
			c-1.7-1.7-1.7-4.5,0-6.2c0.7-0.7,0.7-1.7,0-2.4c-0.7-0.7-1.7-0.7-2.4,0c-2.9,3.1-2.9,7.9,0,11C74.5,13.3,74.5,16,72.9,17.8z"/>
		<path class="st0" d="M24.7,17.8c-0.7,0.7-0.7,1.7,0,2.4c0.3,0.3,0.7,0.5,1.2,0.5c0.5,0,0.9-0.2,1.2-0.5c2.9-3.1,2.9-7.9,0-11
			c-1.7-1.7-1.7-4.5,0-6.2c0.7-0.7,0.7-1.7,0-2.4s-1.7-0.7-2.4,0c-2.9,3.1-2.9,7.9,0,11C26.2,13.3,26.2,16,24.7,17.8z"/>
	</g>
</g>
</svg>
