<?xml version="1.0" encoding="utf-8"?>
<!-- Generator: Adobe Illustrator 24.1.1, SVG Export Plug-In . SVG Version: 6.00 Build 0)  -->
<svg version="1.1"
	 id="Layer_1" xmlns:cc="http://creativecommons.org/ns#" xmlns:dc="http://purl.org/dc/elements/1.1/" xmlns:inkscape="http://www.inkscape.org/namespaces/inkscape" xmlns:rdf="http://www.w3.org/1999/02/22-rdf-syntax-ns#" xmlns:sodipodi="http://sodipodi.sourceforge.net/DTD/sodipodi-0.dtd" xmlns:svg="http://www.w3.org/2000/svg"
	 xmlns="http://www.w3.org/2000/svg" xmlns:xlink="http://www.w3.org/1999/xlink" x="0px" y="0px" viewBox="0 0 100 100"
	 style="enable-background:new 0 0 100 100;" xml:space="preserve">
<style type="text/css">
	.st0{fill-rule:evenodd;clip-rule:evenodd;fill:#FF2D21;}
</style>
<g transform="translate(0,-952.36218)">
	<path class="st0" d="M14.8,952.4c-1.2,0.1-2.3,1.2-2.3,2.5v95c0,1.3,1.2,2.5,2.5,2.5h67.4c2.7,0,5-2.3,5-5v-90c0-2.7-2.3-4.9-5-4.9
		C82.4,952.4,14.8,952.4,14.8,952.4z M17.5,957.4h6.7v89.9h-6.7V957.4L17.5,957.4z M53.2,970.6c0.1,0,0.2,0,0.2,0
		c0.9,0,1.7,0.4,2.1,1.1l3.9,5.7l7-1.8c1.3-0.4,2.7,0.4,3.1,1.8c0.2,0.8,0,1.6-0.5,2.3l-4.4,5.2l3.8,5.6c0.8,1.1,0.5,2.7-0.7,3.5
		c-0.7,0.5-1.5,0.6-2.3,0.3l-6.8-2.5l-4.5,5.3c-0.9,1.1-2.5,1.2-3.6,0.3c-0.6-0.5-0.9-1.3-0.9-2.1l0.4-6.6l-6.6-2.4
		c-1.3-0.4-2-1.9-1.6-3.2c0.3-0.8,0.9-1.4,1.8-1.6l6.9-1.7L51,973C51.1,971.8,52,970.8,53.2,970.6L53.2,970.6z M34.2,1003.2
		c0.1,0,0.2,0,0.2,0H77c1.4,0,2.5,1.1,2.5,2.5v24.6c0,1.4-1.1,2.5-2.5,2.5c0,0,0,0,0,0H34.5c-1.4,0-2.5-1.1-2.5-2.5c0,0,0,0,0,0
		v-24.6C31.9,1004.4,32.9,1003.3,34.2,1003.2L34.2,1003.2z"/>
	<path class="st0" d="M37,1008.2v19.6h37.5v-19.6H37z M42.1,1011.6c0,0,0.1,0,0.1,0c0.1,0,0.2,0,0.2,0h18.3c1.4,0,2.5,1.1,2.5,2.5
		c0,1.4-1.1,2.5-2.5,2.5H42.4c-1.4,0.1-2.6-0.9-2.7-2.3C39.6,1012.9,40.7,1011.7,42.1,1011.6z M42.2,1019.4c0.1,0,0.2,0,0.2,0h26.7
		c1.4,0,2.5,1.1,2.5,2.5s-1.1,2.5-2.5,2.5l0,0H42.4c-1.4,0.1-2.6-1-2.6-2.4C39.7,1020.7,40.8,1019.5,42.2,1019.4z"/>
	<path class="st0" d="M55.7,980.7l0.7,1c0.6,0.9,1.7,1.3,2.7,1l1-0.3l-0.6,0.7c-0.7,0.9-0.8,2.1-0.2,3l0.5,0.7l-1-0.4
		c-1-0.4-2.1-0.1-2.8,0.7l-0.8,0.9l0.1-1c0.1-1.1-0.6-2.1-1.7-2.5l-0.7-0.3l0.8-0.2c1.1-0.3,1.8-1.2,1.9-2.3
		C55.6,981.7,55.7,980.7,55.7,980.7z"/>
</g>
</svg>
