<?xml version="1.0" encoding="utf-8"?>
<!-- Generator: Adobe Illustrator 24.1.1, SVG Export Plug-In . SVG Version: 6.00 Build 0)  -->
<svg version="1.1" id="Layer_1" xmlns="http://www.w3.org/2000/svg" xmlns:xlink="http://www.w3.org/1999/xlink" x="0px" y="0px"
	 viewBox="0 0 100 100" style="enable-background:new 0 0 100 100;" xml:space="preserve">
<style type="text/css">
	.st0{fill:#FF2D21;}
</style>
<path class="st0" d="M97.8,87.6H2.6c-1.2,0-2.2-1-2.2-2.2c0-0.3,0.1-0.6,0.2-0.9l8.4-20.1C9.3,63.5,10.1,63,11,63h78.4
	c0.9,0,1.7,0.5,2.1,1.4l8.4,20.1c0.5,1.1-0.1,2.4-1.2,2.9C98.4,87.6,98.1,87.6,97.8,87.6z M6,83.1h88.4l-6.5-15.7H12.5L6,83.1z"/>
<path class="st0" d="M83.8,67.5H16.6c-1.2,0-2.2-1-2.2-2.2v-19c0-1.2,1-2.2,2.2-2.2h67.1c1.2,0,2.2,1,2.2,2.2v19
	C86,66.5,85,67.5,83.8,67.5z M18.9,63h62.6V48.5H18.9V63z"/>
<path class="st0" d="M27.8,67.5c-1.2,0-2.2-1-2.2-2.2v-19c0-1.2,1-2.2,2.2-2.2c1.2,0,2.2,1,2.2,2.2v19
	C30.1,66.5,29.1,67.5,27.8,67.5z"/>
<path class="st0" d="M39,67.5c-1.2,0-2.2-1-2.2-2.2v-19c0-1.2,1-2.2,2.2-2.2s2.2,1,2.2,2.2v19C41.3,66.5,40.3,67.5,39,67.5z"/>
<path class="st0" d="M50.2,67.5c-1.2,0-2.2-1-2.2-2.2v-19c0-1.2,1-2.2,2.2-2.2s2.2,1,2.2,2.2v19C52.4,66.5,51.4,67.5,50.2,67.5z"/>
<path class="st0" d="M61.4,67.5c-1.2,0-2.2-1-2.2-2.2v-19c0-1.2,1-2.2,2.2-2.2s2.2,1,2.2,2.2v19C63.6,66.5,62.6,67.5,61.4,67.5z"/>
<path class="st0" d="M72.6,67.5c-1.2,0-2.2-1-2.2-2.2v-19c0-1.2,1-2.2,2.2-2.2c1.2,0,2.2,1,2.2,2.2v19
	C74.8,66.5,73.8,67.5,72.6,67.5z"/>
<path class="st0" d="M88.2,48.5H12.2c-1.2,0-2.2-1-2.3-2.2c0-1,0.6-1.9,1.6-2.2c4.9-1.5,9.6-4.2,9.6-5.7c0-1.2,1-2.2,2.2-2.2H77
	c1.2,0,2.2,1,2.2,2.2c0,1.4,4.7,4.2,9.6,5.7c1.2,0.3,1.9,1.6,1.5,2.8C90.1,47.8,89.2,48.5,88.2,48.5z M22.1,44h56.2
	c-1.2-0.9-2.2-2-3-3.4H25.1C24.4,42,23.4,43.1,22.1,44z"/>
<path class="st0" d="M77,32.8H23.4H23c-2.5-0.4-8.4-3-9.6-3.5c-1.1-0.5-1.7-1.8-1.2-2.9c0.4-0.8,1.2-1.4,2.1-1.4
	c3.7,0,11.3-1.1,11.3-4.5c0-1.2,1-2.2,2.2-2.2h44.5c1.2,0,2.2,1,2.2,2.2c0,3.4,7.6,4.5,11.3,4.5c1.2,0,2.2,1,2.2,2.2
	c0,0.9-0.5,1.7-1.3,2c-1.1,0.5-7.1,3.2-9.6,3.5L77,32.8z M23.6,28.3h53.3l0.5-0.1c-3-0.9-5.9-2.6-6.9-5.5H29.8
	c-1,2.9-3.8,4.5-6.8,5.5L23.6,28.3z"/>
<path class="st0" d="M77,40.6H23.4c-1.2,0-2.2-1-2.2-2.2v-7.8c0-1.2,1-2.2,2.2-2.2H77c1.2,0,2.2,1,2.2,2.2v7.8
	C79.3,39.6,78.3,40.6,77,40.6z M25.6,36.2h49.2v-3.4H25.6V36.2z"/>
<path class="st0" d="M72.6,22.7c-1.2,0-2.2-1-2.2-2.2v-3.4c-1.2,0-2.2-1-2.2-2.2s1-2.2,2.2-2.2h2.2c1.2,0,2.2,1,2.2,2.2v5.6
	C74.8,21.7,73.8,22.7,72.6,22.7z"/>
<path class="st0" d="M27.8,22.7c-1.2,0-2.2-1-2.2-2.2v-5.6c0-1.2,1-2.2,2.2-2.2h2.2c1.2,0,2.2,1,2.2,2.2s-1,2.2-2.2,2.2v3.4
	C30.1,21.7,29.1,22.7,27.8,22.7z"/>
<path class="st0" d="M54.7,40.6h-7.8c-1.2,0-2.2-1-2.2-2.2v-7.8c0-1.2,1-2.2,2.2-2.2h7.8c1.2,0,2.2,1,2.2,2.2v7.8
	C56.9,39.6,55.9,40.6,54.7,40.6z M49.1,36.2h3.4v-3.4h-3.4V36.2z"/>
<path class="st0" d="M22.2,84.8c-1.2,0-2.2-1-2.2-2.2c0-0.2,0-0.4,0.1-0.6l4.5-17.9c0.3-1.2,1.5-1.9,2.7-1.6
	c1.2,0.3,1.9,1.5,1.6,2.7l0,0l-4.5,17.9C24.2,84.1,23.3,84.8,22.2,84.8z"/>
<path class="st0" d="M78.2,84.8c-1,0-1.9-0.7-2.2-1.7l-4.5-17.9c-0.3-1.2,0.4-2.4,1.6-2.7c1.2-0.3,2.4,0.4,2.7,1.6L80.3,82
	c0.3,1.2-0.4,2.4-1.6,2.7C78.5,84.8,78.4,84.8,78.2,84.8z"/>
<path class="st0" d="M40.1,84.8H40c-1.2-0.1-2.2-1.1-2.1-2.4L39,64.6c0.1-1.2,1.1-2.2,2.4-2.1s2.2,1.1,2.1,2.4l-1.1,17.9
	C42.3,83.9,41.3,84.8,40.1,84.8z"/>
<path class="st0" d="M60.3,84.8c-1.2,0-2.2-0.9-2.2-2.1l-1.1-17.9c-0.1-1.2,0.9-2.3,2.1-2.4s2.3,0.9,2.4,2.1l1.1,17.9
	c0.1,1.2-0.9,2.3-2.1,2.4H60.3z"/>
<path class="st0" d="M11.1,67.5c-1.2,0-2.2-1-2.2-2.2v-4.5c0-1.2,1-2.2,2.2-2.2s2.2,1,2.2,2.2v4.5C13.3,66.5,12.3,67.5,11.1,67.5z"
	/>
<path class="st0" d="M89.3,67.5c-1.2,0-2.2-1-2.2-2.2v-4.5c0-1.2,1-2.2,2.2-2.2c1.2,0,2.2,1,2.2,2.2v4.5
	C91.6,66.5,90.6,67.5,89.3,67.5z"/>
<path class="st0" d="M83.8,55.2H16.6c-1.2,0-2.2-1-2.2-2.2s1-2.2,2.2-2.2h67.1c1.2,0,2.2,1,2.2,2.2S85,55.2,83.8,55.2z"/>
<path class="st0" d="M94.9,80.9H33.4c-1.2,0-2.2-1-2.2-2.2c0-1.2,1-2.2,2.2-2.2h61.5c1.2,0,2.2,1,2.2,2.2
	C97.2,79.9,96.2,80.9,94.9,80.9z"/>
<path class="st0" d="M22.2,80.9H5.5c-1.2,0-2.2-1-2.2-2.2c0-1.2,1-2.2,2.2-2.2h16.8c1.2,0,2.2,1,2.2,2.2
	C24.5,79.9,23.5,80.9,22.2,80.9z"/>
<path class="st0" d="M50.2,74.2H16.6c-1.2,0-2.2-1-2.2-2.2c0-1.2,1-2.2,2.2-2.2h33.6c1.2,0,2.2,1,2.2,2.2
	C52.4,73.2,51.4,74.2,50.2,74.2z"/>
<path class="st0" d="M82.6,74.2H68.1c-1.2,0-2.2-1-2.2-2.2c0-1.2,1-2.2,2.2-2.2h14.5c1.2,0,2.2,1,2.2,2.2
	C84.9,73.2,83.9,74.2,82.6,74.2z"/>
</svg>
