<svg height='100px' width='100px'  fill="#29211c" xmlns="http://www.w3.org/2000/svg" xmlns:xlink="http://www.w3.org/1999/xlink" version="1.1" x="0px" y="0px" viewBox="0 0 64 64" style="enable-background:new 0 0 64 64;" xml:space="preserve"><g><g><path d="M59,43v-6h-2.2c0.1-0.7,0.2-1.3,0.2-2c0-4.1-2.5-8.1-6.5-10.4c-0.3-0.2-0.7-0.4-0.8-0.5c0,0,0-0.1,0-0.3    c0.1-0.3,0.2-0.6,0.2-0.8c0-0.7-0.3-1.3-0.9-1.7c-0.6-0.4-1.2-0.5-2-0.3L46,20.4c-0.6-0.3-1.3-0.3-1.9,0l-1.2,0.5    c-0.8-0.3-1.7,0-2.3,0.6c-0.5,0.6-0.7,1.5-0.3,2.2c0,0.1,0,0.2,0.1,0.3c-0.1,0.1-0.5,0.3-0.8,0.6c-0.3,0.2-0.7,0.4-1,0.6    c-0.3-0.2-0.6-0.4-1-0.6c-0.3-0.2-0.7-0.4-0.8-0.5c0,0,0-0.1,0-0.3c0.1-0.3,0.2-0.6,0.2-0.8c0-0.7-0.3-1.3-0.9-1.7    c-0.6-0.4-1.2-0.5-2-0.3L33,20.4c-0.6-0.3-1.3-0.3-1.9,0l-1.2,0.5c-0.8-0.3-1.7,0-2.3,0.6c-0.5,0.6-0.7,1.5-0.3,2.2    c0,0.1,0,0.2,0.1,0.3c-0.1,0.1-0.5,0.3-0.8,0.6c-0.3,0.2-0.7,0.4-1,0.6c-0.3-0.2-0.6-0.4-1-0.6c-0.3-0.2-0.7-0.4-0.8-0.5    c0,0,0-0.1,0-0.3c0.1-0.3,0.2-0.6,0.2-0.8c0-0.7-0.3-1.3-0.9-1.7c-0.6-0.4-1.2-0.5-2-0.3L20,20.4c-0.6-0.3-1.3-0.3-1.9,0l-1.2,0.5    c-0.8-0.3-1.7,0-2.3,0.6c-0.5,0.6-0.7,1.5-0.3,2.2c0,0.1,0,0.2,0.1,0.3c-0.1,0.1-0.5,0.3-0.9,0.6C9.5,26.9,7,30.9,7,35    c0,0.7,0.1,1.3,0.2,2H5v6H3v18h58V43H59z M40.5,26.4L40.5,26.4c1-0.6,1.9-1.1,1.9-2.3c0-0.3-0.1-0.6-0.1-0.9L42.1,23    c0,0,0-0.1,0-0.1c0.1-0.1,0.1,0,0.1,0c0.5,0.2,1.2,0.2,1.6-0.1l1.1-0.5l0.1,0l0,0l1.1,0.5c0.5,0.3,1.1,0.3,1.7,0.1    c0,0,0.1,0.1,0,0.2l-0.1,0.2c-0.5,1.9,0.6,2.6,1.7,3.2c3.4,1.9,5.5,5.3,5.5,8.6c0,0.7-0.1,1.3-0.2,2h-11c0,0,0-0.1,0-0.1    c0-0.2,0.1-0.4,0.1-0.6c0-0.1,0-0.2,0-0.3c0-0.3,0-0.6,0-0.9c0-0.4,0-0.8-0.1-1.2c0-0.1,0-0.3-0.1-0.4c0-0.3-0.1-0.5-0.2-0.8    c0-0.2-0.1-0.3-0.1-0.5c-0.1-0.2-0.1-0.5-0.2-0.7c-0.1-0.2-0.1-0.3-0.2-0.5c-0.1-0.2-0.2-0.4-0.3-0.7c-0.1-0.2-0.2-0.3-0.3-0.5    c-0.1-0.2-0.2-0.4-0.4-0.6c-0.1-0.2-0.2-0.3-0.3-0.5c-0.1-0.2-0.3-0.4-0.4-0.6c-0.1-0.2-0.2-0.3-0.4-0.5c-0.2-0.2-0.4-0.4-0.6-0.6    c-0.1-0.1-0.2-0.2-0.4-0.4c0,0,0,0,0,0C40.2,26.5,40.3,26.4,40.5,26.4z M27.5,26.4L27.5,26.4c1-0.6,1.9-1.1,1.9-2.3    c0-0.3-0.1-0.6-0.1-0.9L29.1,23c0,0,0-0.1,0-0.1c0.1-0.1,0.1,0,0.1,0c0.5,0.2,1.2,0.2,1.6-0.1l1.1-0.5l0.1,0l0,0l1.1,0.5    c0.5,0.3,1.1,0.3,1.7,0.1c0,0,0.1,0.1,0,0.2l-0.1,0.2c-0.5,1.9,0.6,2.6,1.7,3.2c0.5,0.3,0.9,0.6,1.3,0.9c2.6,2,4.1,4.9,4.1,7.7    c0,0.4,0,0.8-0.1,1.2c0,0.1,0,0.2-0.1,0.4c0,0.1-0.1,0.3-0.1,0.4H30.8c0,0,0-0.1,0-0.1c0-0.2,0.1-0.4,0.1-0.6c0-0.1,0-0.2,0-0.3    c0-0.3,0-0.6,0-0.9c0-0.4,0-0.8-0.1-1.2c0-0.1,0-0.3-0.1-0.4c0-0.3-0.1-0.5-0.2-0.8c0-0.2-0.1-0.3-0.1-0.5    c-0.1-0.2-0.1-0.5-0.2-0.7c-0.1-0.2-0.1-0.3-0.2-0.5c-0.1-0.2-0.2-0.4-0.3-0.7c-0.1-0.2-0.2-0.3-0.3-0.5c-0.1-0.2-0.2-0.4-0.4-0.6    c-0.1-0.2-0.2-0.3-0.3-0.5c-0.1-0.2-0.3-0.4-0.4-0.6c-0.1-0.2-0.2-0.3-0.4-0.5c-0.2-0.2-0.4-0.4-0.6-0.6c-0.1-0.1-0.2-0.2-0.4-0.4    c0,0,0,0,0,0C27.2,26.5,27.3,26.4,27.5,26.4z M9,35c0-3.4,2.1-6.7,5.5-8.6l0.1-0.1c0.9-0.5,1.8-1,1.8-2.3c0-0.3-0.1-0.6-0.1-0.9    L16.1,23c0,0,0-0.1,0-0.1c0.1-0.1,0.1,0,0.1,0c0.5,0.2,1.2,0.2,1.6-0.1l1.1-0.5l0.1,0l0,0l1.1,0.5c0.5,0.3,1.1,0.3,1.7,0.1    c0,0,0.1,0.1,0,0.2l-0.1,0.2c-0.5,1.9,0.6,2.6,1.7,3.2c0.5,0.3,0.9,0.6,1.3,0.9c2.6,2,4.1,4.9,4.1,7.7c0,0.4,0,0.8-0.1,1.2    c0,0.1,0,0.2-0.1,0.4c0,0.1-0.1,0.3-0.1,0.4H9.2C9.1,36.3,9,35.7,9,35z M7,39h0.8h20.3h2.1h10.9h2.1h13H57v4H7V39z M59,59H5v-3h10    c0.6,0,1-0.4,1-1s-0.4-1-1-1H5v-4h8c0.6,0,1-0.4,1-1s-0.4-1-1-1H5v-3h54V59z"></path><path d="M16.3,25.3l-1,1c-0.4,0.4-0.4,1,0,1.4c0.2,0.2,0.5,0.3,0.7,0.3s0.5-0.1,0.7-0.3l1-1c0.2-0.2,0.3-0.5,0.3-0.7    s-0.1-0.5-0.3-0.7C17.3,24.9,16.7,24.9,16.3,25.3z"></path><path d="M19,25c-0.6,0-1,0.4-1,1v2c0,0.6,0.4,1,1,1s1-0.4,1-1v-2C20,25.4,19.6,25,19,25z"></path><path d="M21.7,25.3c-0.4-0.4-1-0.4-1.4,0C20.1,25.5,20,25.7,20,26s0.1,0.5,0.3,0.7l1,1c0.2,0.2,0.5,0.3,0.7,0.3s0.5-0.1,0.7-0.3    c0.4-0.4,0.4-1,0-1.4L21.7,25.3z"></path><path d="M29,28c0.3,0,0.5-0.1,0.7-0.3l1-1c0.2-0.2,0.3-0.5,0.3-0.7s-0.1-0.5-0.3-0.7c-0.4-0.4-1-0.4-1.4,0l-1,1    c-0.4,0.4-0.4,1,0,1.4C28.5,27.9,28.7,28,29,28z"></path><path d="M32,29c0.6,0,1-0.4,1-1v-2c0-0.6-0.4-1-1-1s-1,0.4-1,1v2C31,28.6,31.4,29,32,29z"></path><path d="M34.3,27.7c0.2,0.2,0.5,0.3,0.7,0.3s0.5-0.1,0.7-0.3c0.4-0.4,0.4-1,0-1.4l-1-1c-0.4-0.4-1-0.4-1.4,0    C33.1,25.5,33,25.7,33,26s0.1,0.5,0.3,0.7L34.3,27.7z"></path><path d="M42,28c0.3,0,0.5-0.1,0.7-0.3l1-1c0.2-0.2,0.3-0.5,0.3-0.7s-0.1-0.5-0.3-0.7c-0.4-0.4-1-0.4-1.4,0l-1,1    c-0.4,0.4-0.4,1,0,1.4C41.5,27.9,41.7,28,42,28z"></path><path d="M45,29c0.6,0,1-0.4,1-1v-2c0-0.6-0.4-1-1-1s-1,0.4-1,1v2C44,28.6,44.4,29,45,29z"></path><path d="M47.3,27.7c0.2,0.2,0.5,0.3,0.7,0.3s0.5-0.1,0.7-0.3c0.4-0.4,0.4-1,0-1.4l-1-1c-0.4-0.4-1-0.4-1.4,0    C46.1,25.5,46,25.7,46,26s0.1,0.5,0.3,0.7L47.3,27.7z"></path><path d="M31.3,13.3c-0.4,0.4-0.4,1,0,1.4c0.2,0.2,0.4,0.3,0.7,0.3c0.3,0,0.5-0.1,0.7-0.3c1.7-1.8,1.7-4.6,0-6.4c-1-1-1-2.6,0-3.6    c0.4-0.4,0.4-1,0-1.4c-0.4-0.4-1-0.4-1.4,0c-1.7,1.8-1.7,4.6,0,6.4C32.2,10.7,32.2,12.3,31.3,13.3z"></path><path d="M45.3,13.3c-0.4,0.4-0.4,1,0,1.4c0.2,0.2,0.4,0.3,0.7,0.3c0.3,0,0.5-0.1,0.7-0.3c1.7-1.8,1.7-4.6,0-6.4c-1-1-1-2.6,0-3.6    c0.4-0.4,0.4-1,0-1.4c-0.4-0.4-1-0.4-1.4,0c-1.7,1.8-1.7,4.6,0,6.4C46.2,10.7,46.2,12.3,45.3,13.3z"></path><path d="M17.3,13.3c-0.4,0.4-0.4,1,0,1.4c0.2,0.2,0.4,0.3,0.7,0.3c0.3,0,0.5-0.1,0.7-0.3c1.7-1.8,1.7-4.6,0-6.4c-1-1-1-2.6,0-3.6    c0.4-0.4,0.4-1,0-1.4c-0.4-0.4-1-0.4-1.4,0c-1.7,1.8-1.7,4.6,0,6.4C18.2,10.7,18.2,12.3,17.3,13.3z"></path></g></g></svg>