<svg height='100px' width='100px'  fill="#29211c" xmlns="http://www.w3.org/2000/svg" data-name="Layer 1" viewBox="0 0 100 100" x="0px" y="0px"><title>dictators_</title><path d="M41.78,46.82h-3.9a1.58,1.58,0,1,0,0,3.15h3.9A1.58,1.58,0,0,0,41.78,46.82Z"></path><path d="M63.54,48.39A1.57,1.57,0,0,0,62,46.82h-3.9a1.58,1.58,0,0,0,0,3.15H62A1.57,1.57,0,0,0,63.54,48.39Z"></path><path d="M44.06,61.86a1.57,1.57,0,0,0,2.23,0,0.66,0.66,0,0,1,.94,0,3.81,3.81,0,0,0,5.39,0,0.67,0.67,0,0,1,.94,0,1.58,1.58,0,0,0,2.23-2.23,3.82,3.82,0,0,0-5.39,0,0.66,0.66,0,0,1-.94,0,3.82,3.82,0,0,0-5.39,0A1.57,1.57,0,0,0,44.06,61.86Z"></path><path d="M39.2,62.43a1.57,1.57,0,0,0-2,1L35,70.15a1.57,1.57,0,1,0,3,1l2.25-6.72A1.57,1.57,0,0,0,39.2,62.43Z"></path><path d="M62.64,63.43a1.57,1.57,0,0,0-3,1l2.25,6.72a1.57,1.57,0,1,0,3-1Z"></path><path d="M56.46,41.87h0.12L60,41.61a1.58,1.58,0,0,0-.24-3.14l-3.41.26A1.58,1.58,0,0,0,56.46,41.87Z"></path><path d="M39.85,41.61l3.41,0.26h0.12a1.58,1.58,0,0,0,.12-3.15l-3.41-.26A1.58,1.58,0,0,0,39.85,41.61Z"></path><path d="M55.09,67.72H44.75a1.57,1.57,0,1,0,0,3.15H55.09A1.58,1.58,0,1,0,55.09,67.72Z"></path><path d="M53.2,74a1.57,1.57,0,0,0-1.58,1.58,0.07,0.07,0,0,1-.07.07,1.57,1.57,0,1,0,0,3.15,3.23,3.23,0,0,0,3.22-3.22A1.57,1.57,0,0,0,53.2,74Z"></path><path d="M77.1,45.46a83.47,83.47,0,0,0,6-12.67,8.82,8.82,0,0,0-1.34-8.13c-5.33-7.43-20.26-9-31.84-9s-26.5,1.56-31.84,9a8.81,8.81,0,0,0-1.34,8.13,83.5,83.5,0,0,0,6,12.67,1.57,1.57,0,0,0,.38.43l-0.51,4.49c-2.82.11-4.82,2.16-5.11,5.31l-0.62,7.73v0.05a5.24,5.24,0,0,0,5,5.5,22.61,22.61,0,0,0,4.32,9,19.18,19.18,0,0,0,13.63,7.28,6.75,6.75,0,0,0,4.69,1.81H55.28A6.74,6.74,0,0,0,60,85.23a1.58,1.58,0,0,0,.35,0,19.23,19.23,0,0,0,13.42-7.48A22.67,22.67,0,0,0,77.91,69,5.24,5.24,0,0,0,83,63.48V63.43l-0.62-7.75c-0.29-3.13-2.28-5.18-5.11-5.29L76.72,45.9A1.57,1.57,0,0,0,77.1,45.46ZM20.61,65.2A2.11,2.11,0,0,1,20,63.65L20.64,56c0.12-1.35.67-2.13,1.6-2.36l-0.67,5.9a25.41,25.41,0,0,0-.18,6.21A2.07,2.07,0,0,1,20.61,65.2ZM71.29,75.82a16.18,16.18,0,0,1-9.76,6.07s0-.08,0-0.12a1.58,1.58,0,0,0-3.15,0c0,1.15-1.45,2.16-3.1,2.16H44.57c-1.65,0-3.1-1-3.1-2.16a1.58,1.58,0,1,0-3.15,0s0,0.08,0,.12A16.15,16.15,0,0,1,28.71,76a20.67,20.67,0,0,1-4-16.07V59.89l2-17.69v0c1-11.45,11.23-20.42,23.2-20.42s22.16,9,23.2,20.42v0l2,17.69v0.06A20.75,20.75,0,0,1,71.29,75.82ZM79.2,55.94l0.62,7.7a2.11,2.11,0,0,1-.58,1.55,2.07,2.07,0,0,1-.78.51,25.37,25.37,0,0,0-.18-6.21L77.6,53.6C78.54,53.83,79.08,54.61,79.2,55.94Z"></path></svg>