<?xml version="1.0" encoding="utf-8"?>
<!-- Generator: Adobe Illustrator 24.1.1, SVG Export Plug-In . SVG Version: 6.00 Build 0)  -->
<svg version="1.1" id="Layer_1" xmlns="http://www.w3.org/2000/svg" xmlns:xlink="http://www.w3.org/1999/xlink" x="0px" y="0px"
	 viewBox="0 0 100 100" style="enable-background:new 0 0 100 100;" xml:space="preserve">
<style type="text/css">
	.st0{fill:#29211C;}
</style>
<g>
	<path class="st0" d="M65,13.7V8.3h3.3V5H51.7V0h-3.3v5H31.7v3.3H35v5.4c-6.8,1.6-11.7,7.6-11.7,14.6v33.3c0,7,4.8,13.1,11.7,14.6
		v5.4h-3.3V85H35v15h3.3V85h3.3v15H45V85h3.3v15h3.3V85H55v15h3.3V85h3.3v15H65V85h3.3v-3.3H65v-5.4c6.8-1.6,11.7-7.6,11.7-14.6
		V28.3C76.7,21.3,71.8,15.3,65,13.7z M38.3,8.3h23.3v5H38.3V8.3z M38.3,16.7h23.3c4.5,0,8.6,2.6,10.5,6.7H27.8
		C29.7,19.3,33.8,16.7,38.3,16.7z M73.3,28.3v5H26.7v-5c0-0.6,0-1.1,0.1-1.7h46.4C73.3,27.2,73.3,27.8,73.3,28.3z M73.2,63.3H26.8
		c-0.1-0.6-0.1-1.1-0.1-1.7v-5h46.7v5C73.3,62.2,73.3,62.8,73.2,63.3z M26.7,53.3v-6.7h46.7v6.7H26.7z M26.7,43.3v-6.7h46.7v6.7
		H26.7z M61.7,81.7H38.3v-5h23.3V81.7z M61.7,73.3H38.3c-4.5,0-8.6-2.6-10.5-6.7h44.4C70.3,70.7,66.2,73.3,61.7,73.3z"/>
	<polygon class="st0" points="15,75 11.7,75 11.7,78.3 8.3,78.3 8.3,81.7 11.7,81.7 11.7,85 15,85 15,81.7 18.3,81.7 18.3,78.3 
		15,78.3 	"/>
	<polygon class="st0" points="88.3,26.7 91.7,26.7 91.7,23.3 95,23.3 95,20 91.7,20 91.7,16.7 88.3,16.7 88.3,20 85,20 85,23.3 
		88.3,23.3 	"/>
	<path class="st0" d="M18.3,16.7c-3.5,0.2-6.5-2.6-6.7-6.1c0-0.2,0-0.4,0-0.6c0-0.9-0.7-1.7-1.7-1.7S8.3,9.1,8.3,10
		c0.2,3.5-2.6,6.5-6.1,6.7c-0.2,0-0.4,0-0.6,0c-0.9,0-1.7,0.7-1.7,1.7C0,19.3,0.7,20,1.7,20c3.5-0.2,6.5,2.6,6.7,6.1
		c0,0.2,0,0.4,0,0.6c0,0.9,0.7,1.7,1.7,1.7s1.7-0.7,1.7-1.7c-0.2-3.5,2.6-6.5,6.1-6.7c0.2,0,0.4,0,0.6,0c0.9,0,1.7-0.7,1.7-1.7
		C20,17.4,19.3,16.7,18.3,16.7z M10,20.9c-0.7-1-1.6-1.9-2.6-2.6c1-0.7,1.9-1.6,2.6-2.6c0.7,1,1.6,1.9,2.6,2.6
		C11.6,19,10.7,19.9,10,20.9z"/>
	<path class="st0" d="M98.3,76.7c-3.5,0.2-6.5-2.6-6.7-6.1c0-0.2,0-0.4,0-0.6c0-0.9-0.7-1.7-1.7-1.7s-1.7,0.7-1.7,1.7
		c0.2,3.5-2.6,6.5-6.1,6.7c-0.2,0-0.4,0-0.6,0c-0.9,0-1.7,0.7-1.7,1.7c0,0.9,0.7,1.7,1.7,1.7c3.5-0.2,6.5,2.6,6.7,6.1
		c0,0.2,0,0.4,0,0.6c0,0.9,0.7,1.7,1.7,1.7s1.7-0.7,1.7-1.7c-0.2-3.5,2.6-6.5,6.1-6.7c0.2,0,0.4,0,0.6,0c0.9,0,1.7-0.7,1.7-1.7
		C100,77.4,99.3,76.7,98.3,76.7z M90,80.9c-0.7-1-1.6-1.9-2.6-2.6c1-0.7,1.9-1.6,2.6-2.6c0.7,1,1.6,1.9,2.6,2.6
		C91.6,79,90.7,79.9,90,80.9z"/>
</g>
</svg>
