<?xml version="1.0" encoding="utf-8"?>
<!-- Generator: Adobe Illustrator 24.1.1, SVG Export Plug-In . SVG Version: 6.00 Build 0)  -->
<svg version="1.1" id="Layer_1" xmlns="http://www.w3.org/2000/svg" xmlns:xlink="http://www.w3.org/1999/xlink" x="0px" y="0px"
	 viewBox="0 0 100 100" style="enable-background:new 0 0 100 100;" xml:space="preserve">
<style type="text/css">
	.st0{fill:#29211C;}
</style>
<path class="st0" d="M38.2,43.6h-5.5c-1.2-0.1-2.3,0.8-2.4,2c-0.1,1.2,0.8,2.3,2,2.4c0.1,0,0.2,0,0.4,0h5.5c1.2-0.1,2.1-1.2,2-2.4
	C40.2,44.6,39.3,43.7,38.2,43.6z"/>
<path class="st0" d="M68.7,45.8c0-1.2-1-2.2-2.2-2.2h-5.5c-1.2,0.1-2.1,1.2-2,2.4c0.1,1.1,0.9,1.9,2,2h5.5
	C67.8,48,68.7,47,68.7,45.8z"/>
<path class="st0" d="M41.4,64.7c0.9,0.9,2.2,0.9,3.1,0c0,0,0,0,0,0c0.4-0.4,0.9-0.4,1.3,0c0,0,0,0,0,0c2.1,2.1,5.5,2.1,7.5,0
	c0,0,0,0,0,0c0.4-0.4,1-0.4,1.3,0c0.9,0.8,2.3,0.7,3.1-0.2c0.7-0.8,0.7-2.1,0-2.9c-2.1-2.1-5.5-2.1-7.5,0c-0.4,0.4-0.9,0.4-1.3,0
	c0,0,0,0,0,0c-2.1-2.1-5.5-2.1-7.5,0C40.6,62.4,40.6,63.8,41.4,64.7C41.4,64.7,41.4,64.7,41.4,64.7z"/>
<path class="st0" d="M34.6,65.5c-1.1-0.4-2.4,0.2-2.8,1.4c0,0,0,0,0,0l-3.1,9.4c-0.4,1.2,0.2,2.4,1.4,2.8c1.2,0.4,2.4-0.2,2.8-1.4
	l3.2-9.4C36.5,67.2,35.9,65.9,34.6,65.5C34.7,65.5,34.6,65.5,34.6,65.5z"/>
<path class="st0" d="M67.5,66.9c-0.4-1.2-1.6-1.8-2.8-1.4c-1.2,0.4-1.8,1.6-1.4,2.8l0,0l3.2,9.4c0.4,1.2,1.6,1.8,2.8,1.4
	c1.2-0.4,1.8-1.6,1.4-2.8L67.5,66.9z"/>
<path class="st0" d="M58.8,36.7H59l4.8-0.4c1.2-0.2,2-1.3,1.8-2.5c-0.2-1.1-1.1-1.9-2.2-1.9l-4.8,0.4c-1.2,0.2-2.1,1.3-1.9,2.5
	C56.9,35.8,57.8,36.6,58.8,36.7z"/>
<path class="st0" d="M35.5,36.3l4.8,0.4h0.2c1.2,0,2.2-1.1,2.1-2.3c0-1.1-0.9-2-2-2.1l-4.8-0.4c-1.2-0.1-2.3,0.9-2.3,2.1
	C33.5,35.2,34.4,36.2,35.5,36.3z"/>
<path class="st0" d="M56.9,72.9H42.4c-1.2,0-2.2,1-2.2,2.2c0,1.2,1,2.2,2.2,2.2h14.5c1.2,0.1,2.3-0.8,2.4-2c0.1-1.2-0.8-2.3-2-2.4
	C57.1,72.9,57,72.9,56.9,72.9z"/>
<path class="st0" d="M54.2,81.7c-1.2,0-2.2,1-2.2,2.2c0,0,0,0,0,0c0,0.1,0,0.1-0.1,0.1c-1.2,0-2.2,1-2.2,2.2c0,1.2,1,2.2,2.2,2.2
	c2.5,0,4.5-2,4.5-4.5C56.4,82.7,55.5,81.7,54.2,81.7C54.2,81.7,54.2,81.7,54.2,81.7z"/>
<path class="st0" d="M87.7,41.7c3.3-5.7,6.1-11.6,8.4-17.7c1.3-3.9,0.6-8.1-1.9-11.4C86.8,2.2,65.9,0,49.6,0S12.5,2.2,5,12.6
	C2.6,15.9,1.9,20.1,3.2,24c2.3,6.1,5.1,12.1,8.4,17.7c0.1,0.2,0.3,0.4,0.5,0.6l-0.7,6.3c-3.9,0.2-6.8,3-7.2,7.4L3.4,66.9V67
	c-0.2,4,2.9,7.5,7,7.7c0,0,0,0,0,0c1.1,4.6,3.1,8.9,6.1,12.6c4.7,5.9,11.6,9.6,19.1,10.2c1.8,1.7,4.1,2.6,6.6,2.5h15.1
	c2.5,0,4.8-0.9,6.6-2.6c0.2,0,0.3,0,0.5,0C71.7,96.7,78.5,92.9,83,87c2.8-3.6,4.8-7.8,5.8-12.3c4.1-0.1,7.2-3.5,7.1-7.5
	c0-0.1,0-0.1,0-0.2v-0.1L95.1,56c-0.4-4.4-3.2-7.3-7.2-7.4l-0.8-6.3C87.4,42.2,87.6,42,87.7,41.7z M8.6,69.4C8,68.8,7.7,68,7.7,67.2
	l0.9-10.7c0.2-1.9,0.9-3,2.2-3.3l-0.9,8.3c-0.4,2.9-0.5,5.8-0.3,8.7C9.3,70,8.9,69.7,8.6,69.4z M79.6,84.3
	c-3.4,4.4-8.2,7.4-13.7,8.5c0,0,0-0.1,0-0.2c-0.1-1.2-1.2-2.1-2.4-2c-1.1,0.1-1.9,0.9-2,2c0,1.6-2,3-4.3,3h-15c-2.3,0-4.3-1.4-4.3-3
	c0.1-1.2-0.8-2.3-2-2.4c-1.2-0.1-2.3,0.8-2.4,2c0,0.1,0,0.2,0,0.4c0,0,0,0.1,0,0.2c-5.3-1-10.1-4-13.5-8.2C15,78.1,13,70,14.3,62
	v-0.1l2.8-24.8l0,0c1.4-16,15.7-28.6,32.5-28.6s31,12.6,32.5,28.6l0,0l2.8,24.8V62C86.2,69.9,84.3,77.9,79.6,84.3z M90.6,56.4
	l0.9,10.8c0,0.8-0.3,1.6-0.8,2.2c-0.3,0.3-0.7,0.6-1.1,0.7c0.3-2.9,0.2-5.8-0.3-8.7l-1-8.2C89.7,53.5,90.5,54.6,90.6,56.4z"/>
</svg>
