<svg height='100px' width='100px'  fill="#ff9100" xmlns="http://www.w3.org/2000/svg" xmlns:xlink="http://www.w3.org/1999/xlink" version="1.1" x="0px" y="0px" viewBox="0 0 100 100" style="enable-background:new 0 0 100 100;" xml:space="preserve"><g><path d="M88.4,50.7L76.5,6.1c-0.1-0.5-0.5-0.9-1-1c-0.5-0.2-1-0.1-1.4,0.2c-0.1,0.1-7.8,5.9-16.6,8.2c-4.2,1.1-8.7-0.1-13.5-1.5   c-4.9-1.4-10-2.8-15-1.5c-9.5,2.6-16.9,11.2-17.2,11.5c-0.3,0.4-0.4,0.9-0.3,1.4l18.9,70.4c0.2,0.8,1,1.3,1.8,1.1   c0.8-0.2,1.3-1,1.1-1.8L14.7,23.5c1.8-1.9,7.9-8,15.2-10c4.2-1.1,8.7,0.1,13.5,1.5c4.9,1.4,10,2.8,15,1.5   c6.8-1.8,12.9-5.5,15.8-7.5l11.1,41.5c-2.2,1.5-8.6,5.7-15.8,7.6c-4.2,1.1-8.7-0.1-13.5-1.5c-4.9-1.4-10-2.8-15-1.5   c-3.5,0.9-7.1,2.8-10.8,5.6c-0.7,0.5-0.8,1.4-0.3,2.1c0.5,0.7,1.4,0.8,2.1,0.3c3.3-2.5,6.6-4.2,9.7-5.1c4.2-1.1,8.7,0.1,13.5,1.5   c4.9,1.4,10,2.8,15,1.5c9.4-2.5,17.3-8.5,17.6-8.7C88.4,51.9,88.6,51.2,88.4,50.7z"></path><ellipse transform="matrix(0.866 -0.5 0.5 0.866 -6.1543 24.6266)" cx="42.9" cy="23.8" rx="2" ry="2"></ellipse><ellipse transform="matrix(0.5 -0.866 0.866 0.5 -11.3969 56.0899)" cx="42.9" cy="37.9" rx="2" ry="2"></ellipse><ellipse transform="matrix(0.5 -0.866 0.866 0.5 2.7206 41.9718)" cx="37.7" cy="18.6" rx="2" ry="2"></ellipse><circle cx="44.8" cy="30.9" r="2"></circle><path d="M27.6,40c0.2,0.1,0.5,0.1,0.7,0.1c0.6,0,1.2-0.3,1.6-0.8l2.3-2.8l3.4,1.3c0.4,0.2,0.8,0.2,1.3,0.1c0.4-0.1,0.8-0.4,1.1-0.7   c0.6-0.7,0.6-1.7,0.1-2.4l-2-3l2.3-2.8c0.6-0.7,0.6-1.7,0.1-2.4l0,0c-0.5-0.7-1.4-1.1-2.2-0.9l-3.5,0.9l-2-3   c-0.5-0.7-1.4-1.1-2.2-0.9c-0.9,0.2-1.5,1-1.5,1.9l-0.2,3.6l-3.5,0.9c-0.9,0.2-1.5,1-1.5,1.9c0,0.9,0.5,1.7,1.3,2l3.4,1.3L26.2,38   C26.2,38.9,26.7,39.7,27.6,40z M25.2,31.2l3.9-1.1l0.2-4l2.2,3.4l3.9-1l-2.6,3.2l2.2,3.4l-3.8-1.5l-2.6,3.2l0.2-4L25.2,31.2z"></path></g></svg>