<?xml version="1.0" encoding="utf-8"?>
<!-- Generator: Adobe Illustrator 24.1.1, SVG Export Plug-In . SVG Version: 6.00 Build 0)  -->
<svg version="1.1" id="Layer_1" xmlns="http://www.w3.org/2000/svg" xmlns:xlink="http://www.w3.org/1999/xlink" x="0px" y="0px"
	 viewBox="0 0 100 100" style="enable-background:new 0 0 100 100;" xml:space="preserve">
<style type="text/css">
	.st0{fill:#A7D0DB;}
</style>
<g>
	<path class="st0" d="M98.7,64.8c0-7.9-3.6-15.4-9.8-20.3V20.9c0-6.2-4-11.8-9.8-13.8C78.7,4.7,76.7,3,74.3,3h-26
		c-2.4,0-4.4,1.7-4.8,4.1c-5.9,2-9.8,7.6-9.8,13.8v23.6c-3.4,2.7-6.1,6.3-7.8,10.3c-4.8-3.8-10.4-6.5-16.3-7.9
		C9,46.8,8.4,47,8.1,47.4L1.5,54c-0.6,0.6-0.6,1.7,0,2.3c0.2,0.2,0.3,0.3,0.5,0.4C13,61,15.2,67,17.3,72.9c2.3,6.4,4.5,12.4,17.4,13
		c2.2,1.6,4.5,2.8,7.1,3.6v6.2c0,0.9,0.7,1.6,1.6,1.6h35.8c0.9,0,1.6-0.7,1.6-1.6v-6.2C91.5,86,98.7,76,98.7,64.8z M48.3,6.2h26
		c0.9,0,1.6,0.7,1.6,1.6s-0.7,1.6-1.6,1.6h-26c-0.9,0-1.6-0.7-1.6-1.6S47.4,6.2,48.3,6.2z M36.9,20.9c0-4.7,2.9-8.8,7.2-10.6
		c0.9,1.5,2.5,2.4,4.2,2.4h26c1.7,0,3.3-0.9,4.2-2.4c4.3,1.7,7.2,5.9,7.2,10.6v21.4c-2.1-1.2-4.3-2.1-6.6-2.7
		c-0.6-4.2-5.8-7.6-13-8.6c0-0.1,0-0.2,0-0.4c0-2.7-2.2-4.9-4.9-4.9c-2.7,0-4.9,2.2-4.9,4.9c0,0.1,0,0.2,0,0.4
		c-7.2,1.1-12.4,4.4-13,8.6c-2.3,0.6-4.5,1.5-6.6,2.7V20.9z M61.3,32.2c-0.9,0-1.6-0.7-1.6-1.6c0-0.9,0.7-1.6,1.6-1.6
		s1.6,0.7,1.6,1.6C62.9,31.5,62.2,32.2,61.3,32.2z M57.8,34.1c1.9,1.9,5,1.9,6.9,0c0,0,0,0,0,0c5.5,0.6,9.5,2.7,10.7,4.8
		c-0.9-0.1-1.9-0.2-2.8-0.2H49.9c-0.9,0-1.9,0.1-2.8,0.2C48.4,36.7,52.3,34.7,57.8,34.1z M20.3,71.8c-2-5.6-4.5-12.4-14.8-17.2
		l4.2-4.3c5.5,1.5,10.7,4.2,15,7.8c-2.3,8.5-0.1,17.5,5.8,24C23.6,80.8,22.2,76.8,20.3,71.8z M77.6,90.8v3.3H45v-3.3H77.6z
		 M72.7,87.6H49.9c-12.6,0-22.8-10.2-22.8-22.8S37.3,42,49.9,42h22.8c12.6,0,22.8,10.2,22.8,22.8S85.3,87.6,72.7,87.6z"/>
	<path class="st0" d="M81.5,47.4l-1.5,2.9c5.5,2.8,8.9,8.4,8.9,14.5h3.3C92.2,57.4,88.1,50.7,81.5,47.4z"/>
	<path class="st0" d="M72.7,48.5c1.5,0,3,0.2,4.4,0.6L78,46c-1.7-0.5-3.5-0.7-5.3-0.7V48.5z"/>
	<path class="st0" d="M69.4,58.3c0.3-3.6-2.4-6.7-6-6.9s-6.7,2.4-6.9,6c0,0.3,0,0.6,0,1c-3.6-0.3-6.7,2.4-6.9,6
		c-0.3,3.6,2.4,6.7,6,6.9c0.3,0,0.6,0,1,0c-0.3,3.6,2.4,6.7,6,6.9c3.6,0.3,6.7-2.4,6.9-6c0-0.3,0-0.6,0-1c0.1,0,0.3,0,0.4,0
		c3.6,0,6.5-2.9,6.5-6.5c0-3.6-2.9-6.5-6.5-6.5C69.7,58.3,69.5,58.3,69.4,58.3L69.4,58.3z M60.6,55.6c1.3-1.3,3.3-1.3,4.6,0
		c1.3,1.3,1.3,3.3,0,4.6l0,0l-2.3,2.3l-2.3-2.3C59.3,58.9,59.3,56.9,60.6,55.6C60.6,55.6,60.6,55.6,60.6,55.6z M53.7,67.1
		c-1.3-1.3-1.3-3.3,0-4.6c1.3-1.3,3.3-1.3,4.6,0l2.3,2.3l-2.3,2.3C57,68.4,55,68.4,53.7,67.1z M65.2,74c-1.3,1.3-3.3,1.3-4.6,0
		c-1.3-1.3-1.3-3.3,0-4.6l0,0l2.3-2.3l2.3,2.3C66.5,70.7,66.5,72.7,65.2,74C65.2,74,65.2,74,65.2,74z M72.1,67.1
		c-1.3,1.3-3.3,1.3-4.6,0c0,0,0,0,0,0l-2.3-2.3l2.3-2.3c1.3-1.3,3.3-1.3,4.6,0C73.4,63.8,73.4,65.8,72.1,67.1z"/>
</g>
</svg>
