<?xml version="1.0" encoding="utf-8"?>
<!-- Generator: Adobe Illustrator 24.1.1, SVG Export Plug-In . SVG Version: 6.00 Build 0)  -->
<svg version="1.1" id="Layer_1" xmlns="http://www.w3.org/2000/svg" xmlns:xlink="http://www.w3.org/1999/xlink" x="0px" y="0px"
	 viewBox="0 0 100 100" style="enable-background:new 0 0 100 100;" xml:space="preserve">
<style type="text/css">
	.st0{fill:#A7D0DB;}
</style>
<g>
	<g>
		<g>
			<path class="st0" d="M28.5,48.2H10.1c-2.7,0-4.9-2.2-4.9-4.9c0-2.7,2.2-4.9,4.9-4.9H14c0-0.1,0-0.1,0-0.2c0-2.7,2.2-4.9,4.9-4.9
				h18.4c2.7,0,4.9,2.2,4.9,4.9s-2.2,4.9-4.9,4.9h-3.9c0,0.1,0,0.1,0,0.2C33.4,46,31.2,48.2,28.5,48.2z M10.1,41.6
				c-0.9,0-1.7,0.8-1.7,1.7S9.2,45,10.1,45h18.4c0.9,0,1.7-0.8,1.7-1.7c0-0.3-0.1-0.6-0.3-0.9c-0.3-0.5-0.4-1.1-0.1-1.6
				c0.3-0.5,0.8-0.8,1.4-0.8h6.1c0.9,0,1.7-0.8,1.7-1.7c0-0.9-0.8-1.7-1.7-1.7H18.8c-0.9,0-1.7,0.8-1.7,1.7c0,0.3,0.1,0.6,0.3,0.9
				c0.3,0.5,0.4,1.1,0.1,1.6c-0.3,0.5-0.8,0.8-1.4,0.8L10.1,41.6L10.1,41.6z"/>
		</g>
	</g>
</g>
<g>
	<g>
		<g>
			<path class="st0" d="M39.6,33c-6.4,0-11.7-5.2-11.7-11.7c0-6.4,5.2-11.7,11.7-11.7c6.4,0,11.7,5.2,11.7,11.7
				c0,1.1-0.1,2.1-0.4,3.1c-0.2,0.8-1.1,1.3-2,1.1c-0.8-0.2-1.3-1.1-1.1-2c0.2-0.7,0.3-1.5,0.3-2.3c0-4.7-3.8-8.5-8.5-8.5
				c-4.7,0-8.5,3.8-8.5,8.5s3.8,8.5,8.5,8.5c0.6,0,1.2-0.1,1.8-0.2c0.8-0.2,1.7,0.4,1.9,1.2c0.2,0.9-0.4,1.7-1.2,1.9
				C41.3,32.9,40.5,33,39.6,33z"/>
		</g>
	</g>
</g>
<g>
	<g>
		<g>
			<path class="st0" d="M83,95.5H40.6c-0.9,0-1.6-0.7-1.6-1.6V76.8c0-0.9,0.7-1.6,1.6-1.6H83c0.9,0,1.6,0.7,1.6,1.6v17.1
				C84.6,94.8,83.8,95.5,83,95.5z M42.2,92.3h39.2V78.4H42.2V92.3z"/>
		</g>
	</g>
</g>
<g>
	<g>
		<g>
			<path class="st0" d="M89.7,100H33.8c-0.9,0-1.6-0.7-1.6-1.6v-4.5c0-0.9,0.7-1.6,1.6-1.6h55.9c0.9,0,1.6,0.7,1.6,1.6v4.5
				C91.3,99.3,90.6,100,89.7,100z M35.4,96.8h52.7v-1.3H35.4V96.8z"/>
		</g>
	</g>
</g>
<g>
	<g>
		<g>
			<g>
				<path class="st0" d="M39.9,48.8c-0.9,0-1.6-0.7-1.6-1.5c0-0.9,0.7-1.6,1.5-1.6c4.7-0.2,8.3-7.6,9.3-10.4
					c0.2-0.6,0.8-1.1,1.5-1.1h17.3c0.9,0,1.6,0.7,1.6,1.6s-0.7,1.6-1.6,1.6H51.7C50.4,40.3,46.5,48.6,39.9,48.8
					C39.9,48.8,39.9,48.8,39.9,48.8z"/>
			</g>
		</g>
	</g>
	<g>
		<g>
			<g>
				<path class="st0" d="M83.9,48.8c-6.7,0-10.8-8.5-12-11.5H55.7c-0.9,0-1.6-0.7-1.6-1.6c0-0.9,0.7-1.6,1.6-1.6H73
					c0.7,0,1.3,0.4,1.5,1.1c1,3,4.8,10.7,9.6,10.4c0,0,0,0,0,0c0.9,0,1.6,0.7,1.6,1.5c0,0.9-0.7,1.6-1.5,1.6
					C84,48.8,84,48.8,83.9,48.8z"/>
			</g>
		</g>
	</g>
</g>
<g>
	<g>
		<g>
			<g>
				<path class="st0" d="M42,28.6c-0.9,0-1.6-0.7-1.6-1.6c0-0.9,0.7-1.6,1.6-1.6c6.7,0,15.6-9.8,18.5-13.5c0.5-0.7,1.5-0.8,2.2-0.3
					c0.7,0.5,0.8,1.5,0.3,2.2C62.6,14.5,51.6,28.6,42,28.6L42,28.6z"/>
			</g>
		</g>
	</g>
	<g>
		<g>
			<g>
				<path class="st0" d="M81.2,28.6C81.2,28.6,81.1,28.6,81.2,28.6C71.7,28.2,61,14.5,60.5,13.9c-0.5-0.7-0.4-1.7,0.3-2.2
					c0.7-0.5,1.7-0.4,2.2,0.3c2.8,3.7,11.6,13.2,18.2,13.5c0.9,0,1.6,0.8,1.5,1.7C82.7,27.9,82,28.6,81.2,28.6z"/>
			</g>
		</g>
	</g>
</g>
<g>
	<g>
		<g>
			<path class="st0" d="M73.4,37.3H50.6c-0.9,0-1.6-0.7-1.6-1.6v-4.3c0-0.9,0.7-1.6,1.6-1.6h22.8c0.9,0,1.6,0.7,1.6,1.6v4.3
				C75,36.6,74.3,37.3,73.4,37.3z M52.2,34.1h19.7V33H52.2V34.1z"/>
		</g>
	</g>
</g>
<g>
	<g>
		<g>
			<path class="st0" d="M77.1,59H46.4c-0.9,0-1.6-0.7-1.6-1.6v-5.8c0-0.9,0.7-1.6,1.6-1.6h30.7c0.9,0,1.6,0.7,1.6,1.6v5.8
				C78.7,58.3,78,59,77.1,59z M48,55.8h27.5v-2.6H48V55.8z"/>
		</g>
	</g>
</g>
<g>
	<g>
		<g>
			<path class="st0" d="M61.8,15.3c-0.9,0-1.6-0.7-1.6-1.6v-11c0-0.9,0.7-1.6,1.6-1.6c0.9,0,1.6,0.7,1.6,1.6v11
				C63.4,14.6,62.6,15.3,61.8,15.3z"/>
		</g>
	</g>
</g>
<g>
	<g>
		<g>
			<path class="st0" d="M67.4,95.5H56.1c-0.9,0-1.6-0.7-1.6-1.6v-5c0-4,3.2-7.2,7.2-7.2c4,0,7.2,3.2,7.2,7.2v5
				C69,94.8,68.3,95.5,67.4,95.5z M57.7,92.3h8.1v-3.4c0-2.2-1.8-4-4-4c-2.2,0-4,1.8-4,4C57.7,88.9,57.7,92.3,57.7,92.3z"/>
		</g>
	</g>
</g>
<g>
	<g>
		<g>
			<g>
				<path class="st0" d="M33.2,74.1c-0.8,0-1.5-0.7-1.6-1.5c0-0.9,0.6-1.6,1.5-1.7c6.4-0.3,11.2-10.2,12.5-14
					c0.2-0.6,0.8-1.1,1.5-1.1h22.6c0.9,0,1.6,0.7,1.6,1.6c0,0.9-0.7,1.6-1.6,1.6H48.2C46.8,62.6,41.8,73.7,33.2,74.1
					C33.2,74.1,33.2,74.1,33.2,74.1z"/>
			</g>
		</g>
	</g>
	<g>
		<g>
			<g>
				<path class="st0" d="M90.4,74.1C90.4,74.1,90.4,74.1,90.4,74.1C81.8,73.7,76.7,62.6,75.3,59H53.8c-0.9,0-1.6-0.7-1.6-1.6
					c0-0.9,0.7-1.6,1.6-1.6h22.6c0.7,0,1.3,0.4,1.5,1.1c0.1,0.1,4.8,13.7,12.6,14c0.9,0,1.6,0.8,1.5,1.6
					C92,73.4,91.2,74.1,90.4,74.1z"/>
			</g>
		</g>
	</g>
</g>
<g>
	<g>
		<g>
			<path class="st0" d="M80.4,33H42.7c-2.1,0-3.8-1.7-3.8-3.8s1.7-3.8,3.8-3.8h37.7c2.1,0,3.8,1.7,3.8,3.8S82.5,33,80.4,33z
				 M42.7,28.6c-0.3,0-0.6,0.3-0.6,0.6c0,0.3,0.3,0.6,0.6,0.6h37.7c0.3,0,0.6-0.3,0.6-0.6c0-0.3-0.3-0.6-0.6-0.6H42.7z"/>
		</g>
	</g>
</g>
<g>
	<g>
		<g>
			<path class="st0" d="M85.6,53.2H38.4c-2.1,0-3.8-1.7-3.8-3.8c0-2.1,1.7-3.8,3.8-3.8h47.2c2.1,0,3.8,1.7,3.8,3.8
				S87.7,53.2,85.6,53.2z M38.4,48.8c-0.3,0-0.6,0.3-0.6,0.6c0,0.3,0.3,0.6,0.6,0.6h47.2c0.3,0,0.6-0.3,0.6-0.6
				c0-0.3-0.3-0.6-0.6-0.6H38.4z"/>
		</g>
	</g>
</g>
<g>
	<g>
		<g>
			<path class="st0" d="M92,78.4H32c-2.1,0-3.8-1.7-3.8-3.8c0-2.1,1.7-3.8,3.8-3.8H92c2.1,0,3.8,1.7,3.8,3.8
				C95.7,76.7,94,78.4,92,78.4z M32,74.1c-0.3,0-0.6,0.3-0.6,0.6c0,0.3,0.3,0.6,0.6,0.6H92c0.3,0,0.6-0.3,0.6-0.6
				c0-0.3-0.3-0.6-0.6-0.6H32z"/>
		</g>
	</g>
</g>
</svg>
