<?xml version="1.0" encoding="utf-8"?>
<!-- Generator: Adobe Illustrator 24.1.2, SVG Export Plug-In . SVG Version: 6.00 Build 0)  -->
<svg version="1.1" id="Layer_1" xmlns="http://www.w3.org/2000/svg" xmlns:xlink="http://www.w3.org/1999/xlink" x="0px" y="0px"
	 viewBox="0 0 612 792" style="enable-background:new 0 0 612 792;" xml:space="preserve">
<style type="text/css">
	.st0{fill:none;}
	.st1{fill:#FFFFFF;}
</style>
<path d="M288.4,359c11.6,0,23.1,0,34.7,0c0.8,0,1.4,0.6,1.4,1.4c0,23.6,0,47.1,0,70.7c0,0.8-0.6,1.4-1.4,1.4c-11.6,0-23.1,0-34.7,0
	c-0.8,0-1.4-0.6-1.4-1.4c0-23.6,0-47.1,0-70.7C287,359.6,287.6,359,288.4,359z M318.8,422.1c1,0,1,1.3-0.1,1.2c-3,0.1-6.1,0-9.1,0.3
	c-3,0.2-3.4,2.1-3.3,3c0.2,2.6,1.4,3.2,3.1,3.4c1.8,0.2,3.3,0.2,5,0.2c2.2,0,4.4,0.1,6.6,0.1c0.5,0,1.3,0.1,1.4-1.3
	c-0.1-1.4-0.7-1.5-1.2-1.6c-2-0.2-4.2,0-6.2,0c-1.7-0.1-3.5,0-5.2-0.1c-0.9-0.1-0.9-1.2,0.1-1.2c1.7,0.1,6.5,0.2,9,0.2
	c2.8,0,3.6-0.5,3.6-4.1c-0.2-2.9-0.6-2.9-3.3-3.2c-1.2-0.2-2.9,0.1-4.8-0.2c-0.7-0.1-0.6-1.2-0.5-1.2c7.3-0.1,8.2,1.3,8.7-3.2
	c0.1-1.1,0-3.8,0-6.2c0-4.1-1.3-4.7-3.3-4.8c-2.7-0.1-1.5-0.1-5.4-0.1c0-0.4-0.1-0.9-0.1-0.9c0.8,0,4.8,0.2,7,0
	c1.5-0.1,1.8-1.3,1.8-2c0-0.5,0-1.4,0-2.1c0-0.7-0.5-1.2-1.1-1.3c-1-0.2-2.2,0.1-2.2,1.3c0,1.9,1,1.3-3.6,1.3
	c-0.4,0-1.8,0.2-1.9-0.1c-0.1-1-0.2-1.3-0.1-1.7c0.1-0.9-2.8-1.6-3.3,0.2c0,0.1,0,0.2-0.1,0.3c-0.1,0.7-0.7,1.3-1.4,1.3
	c-4.6,0-4.4,0.4-4.4-1.5c0-1-2.7-1.3-2.9-0.1c-0.1,0.6,0,1.2,0.1,1.6c0.2,1.6,0.2,2.4,1.4,2.8c1.7,0.5,5.6,0.1,7.3,0.2
	c0,0.3,0,0.5,0,0.8c-0.5,0.1-4.1,0-4.7,0c-2.9,0-4.1,1.4-4,5.6c0.2,6.5-0.2,13-0.1,19.5c0,0.7,0,2.1,1.5,2.1c1.4,0,1.7-1.3,1.7-2
	c0.1-3,0-6.1,0-9.4c0-0.8,0.7-1.4,1.5-1.4c1.7,0,3.4,0,4.2,0c0.1,0,0.1,0,0.2,0.1c0,0.1,0,0.4,0,0.7
	C310.9,422.6,312.9,422.1,318.8,422.1z M319.1,377.6c0,0.8-0.6,1.4-1.4,1.4c-6.4,0-13.7,0-20.6,0c-0.3,0-0.3-1.1-0.3-1.6
	c0.1-1.4,0.2-2.9-1.5-2.9c-1.6,0-1.5,1.9-1.5,2.9c-0.2,3.7-0.2,7.5,0,11.2c0.2,4.2,1.9,6.1,5.9,6.3c5.6,0.2,11.2,0.2,16.8,0
	c3.9-0.1,5.6-2.1,5.7-6c0.1-3.2,0-6.5,0-9.7c0-4-0.4-4.6-1.9-4.6C319,374.6,319.1,375.9,319.1,377.6z M293.1,369.5
	c-0.8,0-1.5-0.7-1.4-1.5c0.2-3.3,1.4-3.4,4.5-3.4c7.6,0,15.2,0,22.9-0.1c1,0,2.8,0.2,3-1.3c0.1-0.8,0.2-1.7-2.7-1.7
	c-8.3-0.2-16-0.2-24,0c-4.6,0.1-6.3,2-6.3,6.6c-0.1,7,0,14,0,21c0,1.6-0.1,3.3,0.1,4.9c0.1,0.6,0.4,1.2,1.4,1.2c0.8,0,1-0.7,1.1-1.2
	c0.2-1,0.1-2,0.1-3c0-5.5,0-11,0-16.9c0-0.8,0.6-1.4,1.4-1.4c8.2,0,16.1,0.1,24-0.1c1.7,0,5.1,0.5,5-1.6c0-2.1-3.4-1.4-5.1-1.5
	C309.3,369.3,301,369.5,293.1,369.5z M288.8,421.8c0,2.1,0.1,4.2,0.2,6.3c0.1,0.9,0,2.5,1.4,2.5c1.2,0,1.1-1.6,1.2-2.4
	c0.1-3.6,0.1-7.2,0.1-10.9c0-2.9,0.8-5.4,3.5-7c3.4-2.1,4.9-5.3,4.5-9.2c-0.1-1.3,0.1-3.9-1.5-3.9c-2.3-0.1-1.2,3-1.2,4.4
	c-0.1,3.2-0.7,4.3-2,5.1C289.3,410.4,288.7,414.5,288.8,421.8z M296.8,420.3C296.8,420.3,296.8,420.3,296.8,420.3
	c0,2.7-0.1,5.5,0.1,8.2c0,0.7,0.6,1.9,1.6,1.9c1.1,0.1,1.2-1.3,1.2-1.9c0.1-5.3,0.1-10.7,0-16c0-0.7-0.5-2.1-1.4-2.1
	c-1.4,0-1.4,1.4-1.5,2.1C296.7,415.1,296.8,417.7,296.8,420.3z M291.9,402c-0.1-2.5,0.2-4.7-1.4-4.8c-1.9,0-1.5,3-1.5,4.6
	c0,4.9-0.1,6.4,1.4,6.4C291.7,408.2,291.9,407.9,291.9,402z"/>
<path d="M297,382.6c0,2.1-0.1,3.9,0,5.6c0.1,2.3,1.4,3.7,3.8,3.7c5,0,10,0.2,15-0.1c1.2-0.1,3.1-1.5,3.4-2.6c0.6-2,0.2-4.3,0.2-6.6
	C311.7,382.6,304.6,382.6,297,382.6z"/>
<path d="M310.6,406.4c0,2,0,5.6,0,8c-1.9,0-4.6,0-5.8,0c0-0.5,0.2-0.9,0.5-1c1.7-0.5,3.4-0.8,3.9-1.7c0.7-1,0.6-4.2,0.7-5.1
	C309.9,406.2,310.4,406.4,310.6,406.4z"/>
<path d="M318.9,414.5c-1,0-3.5-0.1-5.2-0.1c0-2.5,0-5.8,0-8.1c0.4,0,0.6,0,0.7,0.4c0.3,6.1,2.9,5.7,4.5,6.8
	C319,413.7,319.4,414.5,318.9,414.5z"/>
<path class="st0" d="M297,382.6c7.6,0,14.8,0,22.5,0c0,2.3,0.7,4.7-0.3,7.2c-0.7,1.8-1.3,1.9-3.3,2c-5,0.1-10,0.1-15,0.1
	c-2.4,0-3.7-1.3-3.8-3.7C296.9,386.4,297,384.7,297,382.6z"/>
<path class="st1" d="M309.2,426.8"/>
<path d="M304.7,410.7c0,0.3,1-0.3,2.1-0.9c0.6-0.3,0.5-3.2,0.6-3.5c0,0-2.2,0-2.7,0.1"/>
<path d="M316.7,406.4c0,0.1,0.3,2.7,1.1,3.6c0.7,0.8,1.5,0.7,1.6,0.4c0.2-0.9,0-3.4-0.1-4.1"/>
</svg>
