<?xml version="1.0" encoding="utf-8"?>
<!-- Generator: Adobe Illustrator 24.1.1, SVG Export Plug-In . SVG Version: 6.00 Build 0)  -->
<svg version="1.1" id="Layer_1" xmlns="http://www.w3.org/2000/svg" xmlns:xlink="http://www.w3.org/1999/xlink" x="0px" y="0px"
	 viewBox="0 0 612 792" style="enable-background:new 0 0 612 792;" xml:space="preserve">
<style type="text/css">
	.st0{fill:#FFFFFF;}
</style>
<path d="M287,359c12.5,0,25,0,37.5,0c0,24.5,0,49,0,73.5c-12.5,0-25,0-37.5,0C287,408,287,383.5,287,359z M318.8,422.1
	c1,0,1,1.3-0.1,1.2c-3,0.1-6.1,0-9.1,0.3c-3,0.2-3.4,2.1-3.3,3c0.2,2.6,1.4,3.2,3.1,3.4c1.8,0.2,3.3,0.2,5,0.2
	c2.2,0,4.4,0.1,6.6,0.1c0.5,0,1.3,0.1,1.4-1.3c-0.1-1.4-0.7-1.5-1.2-1.6c-2-0.2-4.2,0-6.2,0c-1.7-0.1-3.5,0-5.2-0.1
	c-0.9-0.1-0.9-1.2,0.1-1.2c1.7,0.1,6.5,0.2,9,0.2c2.8,0,3.6-0.5,3.6-4.1c-0.2-2.9-0.6-2.9-3.3-3.2c-1.2-0.2-2.9,0.1-4.8-0.2
	c-0.7-0.1-0.6-1.2-0.5-1.2c7.3-0.1,8.2,1.3,8.7-3.2c0.1-1.1,0-3.8,0-6.2c0-4.1-1.3-4.7-3.3-4.8c-2.7-0.1-1.5-0.1-5.4-0.1
	c0-0.4-0.1-0.9-0.1-0.9c0.8,0,4.8,0.2,7,0c1.5-0.1,1.8-1.3,1.8-2c0-0.6,0-2.2,0-2.8c-0.3-0.8-3.3-1.2-3.3,0.6c0,1.9,1,1.3-3.6,1.3
	c-0.4,0-1.8,0.2-1.9-0.1c-0.1-1-0.2-1.3-0.1-1.7c0.1-0.9-2.8-1.6-3.3,0.2c-0.1,0.5-0.1,0.8-0.1,1.5c-6,0-5.7,0.6-5.8-1.5
	c0-1-2.7-1.3-2.9-0.1c-0.1,0.6,0,1.2,0.1,1.6c0.2,1.6,0.2,2.4,1.4,2.8c1.7,0.5,5.6,0.1,7.3,0.2c0,0.3,0,0.5,0,0.8
	c-0.5,0.1-4.1,0-4.7,0c-2.9,0-4.1,1.4-4,5.6c0.2,6.5-0.2,13-0.1,19.5c0,0.7,0,2.1,1.5,2.1c1.4,0,1.7-1.3,1.7-2c0.1-3.4,0-7.1,0-10.9
	c2,0.2,4.7,0.1,5.7,0.1c0.1,0,0.1,0,0.2,0.1c0,0.1,0,0.4,0,0.7C310.9,422.6,312.9,422.1,318.8,422.1z M318.6,379
	c-6.8,0-14.1,0-21.5,0c-0.3,0-0.3-1.1-0.3-1.6c0.1-1.4,0.2-2.9-1.5-2.9c-1.6,0-1.5,1.9-1.5,2.9c-0.2,3.7-0.2,7.5,0,11.2
	c0.2,4.2,1.9,6.1,5.9,6.3c5.6,0.2,11.2,0.2,16.8,0c3.9-0.1,5.6-2.1,5.7-6c0.1-3.2,0.2-6.5,0-9.7c-0.1-1.5-0.9-2.9-1.4-4.4
	C320.5,376.2,323,378.8,318.6,379z M292.1,369.4c-0.8-3.9,1.2-4.9,4.1-4.9c7.6,0,15.2,0,22.9-0.1c1,0,2-0.9,3-1.3
	c-0.9-0.6-1.8-1.7-2.7-1.7c-8-0.1-16-0.2-24,0c-4.6,0.1-6.3,2-6.3,6.6c-0.1,7,0,14,0,21c0,1.6-0.1,3.3,0.1,4.9
	c0.1,0.5,0.9,1,1.4,1.2c0.2,0.1,1-0.7,1.1-1.2c0.2-1,0.1-2,0.1-3c0-6,0-11.9,0-18.3c8.8,0,17.1,0.1,25.4-0.1c1.7,0,3.4-1,5-1.6
	c-1.7-0.5-3.4-1.4-5.1-1.5C308.8,369.3,300.5,369.4,292.1,369.4z M289,421.7c0,2.1-0.1,4.3,0.1,6.4c0.1,0.9,0.9,1.6,1.4,2.5
	c0.4-0.8,1.1-1.6,1.2-2.4c0.1-3.6,0.1-7.2,0.1-10.9c0-2.9,0.8-5.4,3.5-7c3.4-2.1,4.9-5.3,4.5-9.2c-0.1-1.3-1-2.6-1.5-3.9
	c-2.3-0.1-1.2,3-1.2,4.4c-0.1,3.2-0.7,4.3-2,5.1C289.3,410.4,288.4,415.7,289,421.7z M296.8,420.3
	C296.8,420.3,296.8,420.3,296.8,420.3c0,2.7-0.1,5.5,0.1,8.2c0,0.7,1.1,1.3,1.6,1.9c0.4-0.6,1.2-1.3,1.2-1.9c0.1-5.3,0.1-10.7,0-16
	c0-0.7-0.9-1.4-1.4-2.1c-0.5,0.7-1.4,1.4-1.5,2.1C296.7,415.1,296.8,417.7,296.8,420.3z M291.9,402c-0.7-1.9-0.8-3.3-1.4-4.8
	c-0.5,1.5-1.4,3-1.5,4.6c0,1.6,0.7,3.3,1.1,5C291,405.2,291.1,403.6,291.9,402z"/>
<path class="st0" d="M292.1,369.4c8.3,0,16.7-0.1,25,0.1c1.7,0,5.1-0.2,5.1,1.5c0,1.7-3.3,1.5-5,1.6c-8.3,0.2-16.7,0.1-25.4,0.1
	c0,6.4,0,12.3,0,18.3c0,1,0.1,2-0.1,3c-0.1,0.5-0.2,1.1-1.1,1.2c-1.2,0-1.4-0.7-1.4-1.2c-0.2-1.6-0.1-3.2-0.1-4.9c0-7-0.1-14,0-21
	c0.1-4.6,1.7-6.5,6.3-6.6c8-0.2,16-0.2,24-0.1c0.9,0,2.7,0,2.7,1.8c0,1.5-2,1.3-3,1.3c-7.6,0.1-15.2,0.1-22.9,0.1
	C293.3,364.6,291.3,365.5,292.1,369.4z"/>
<path class="st0" d="M319.5,378.9c0.2-2.9-0.2-4.2,1.5-4.2c1.6,0,1.3,2.9,1.4,4.4c0.2,3.2,0.1,6.5,0,9.7c-0.1,3.9-1.8,5.9-5.7,6
	c-5.6,0.2-11.2,0.2-16.8,0c-4-0.1-5.7-2.1-5.9-6.3c-0.2-3.7-0.2-7.5,0-11.2c0-1,1-1.9,1.5-2.9c0.5,0.9,1.5,2.9,1.5,2.9
	s0,0.9,0.1,1.6C304.4,379,312.7,378.9,319.5,378.9z M297,382.6c0,2.1-0.1,3.9,0,5.6c0.1,2.3,1.4,3.7,3.8,3.7c5,0,10,0.2,15-0.1
	c1.2-0.1,3.1-1.5,3.4-2.6c0.6-2,0.2-4.3,0.2-6.6C311.7,382.6,304.6,382.6,297,382.6z"/>
<path class="st0" d="M289,421.7c-0.6-6,0.3-11.3,6-15.1c1.3-0.8,1.7-3.5,1.8-5.7c0.1-2-0.5-3.8,1.4-3.8c1.6,0,1.4,2.6,1.5,3.9
	c0.4,3.9-1.1,7.1-4.5,9.2c-2.7,1.6-3.5,4.1-3.5,7c0,3.6,0.1,7.3-0.1,10.9c0,0.8,0,2.4-1.2,2.4c-1.3,0-1.3-1.6-1.4-2.5
	C288.9,426,289,423.9,289,421.7z"/>
<path class="st0" d="M296.8,420.3c0-2.6,0-5.1,0.1-7.8c0-0.4,0-2.1,1.5-2.1c1.5,0,1.4,1.7,1.4,2.1c0.1,5.3,0.1,10.7,0,16
	c0,0.6,0,1.9-1.2,1.9c-1.2,0-1.6-1.3-1.6-1.9C296.7,425.8,296.8,423.1,296.8,420.3C296.8,420.3,296.8,420.3,296.8,420.3z"/>
<path class="st0" d="M291.9,402.4c0,3.2,0,5.2-1.3,5.2c-2,0-1.6-2.2-1.5-5.4c0-1.7-0.2-5,1.5-5C292.4,397.2,291.9,400.2,291.9,402.4
	z"/>
<path d="M310.6,406.4c0,2,0,5.6,0,8c-1.9,0-4.6,0-5.8,0c0-0.5,0.2-0.9,0.5-1c1.7-0.5,3.4-0.8,3.9-1.7c0.7-1,0.6-4.2,0.7-5.1
	C309.9,406.2,310.4,406.4,310.6,406.4z"/>
<path d="M318.9,414.5c-1,0-3.5-0.1-5.2-0.1c0-2.5,0-5.8,0-8.1c0.4,0,0.6,0,0.7,0.4c0.3,6.1,2.9,5.7,4.5,6.8
	C319,413.7,319.4,414.5,318.9,414.5z"/>
<path d="M297,382.6c7.6,0,14.8,0,22.5,0c0,2.3,0.7,4.7-0.3,7.2c-0.7,1.8-1.3,1.9-3.3,2c-5,0.1-10,0.1-15,0.1c-2.4,0-3.7-1.3-3.8-3.7
	C296.9,386.4,297,384.7,297,382.6z"/>
<path class="st0" d="M309.2,426.8"/>
<path d="M304.7,410.7c0,0.3,1-0.3,2.1-0.9c0.6-0.3,0.5-3.2,0.6-3.5c0,0-2.2,0-2.7,0.1"/>
<path d="M317.3,406.4c0,0.1,0.3,2.7,1.1,3.6c0.7,0.8,1.5,0.7,1.6,0.4c0.2-0.9,0-3.4-0.1-4.1"/>
</svg>
