<svg height='100px' width='100px'  fill="#ff2d21" xmlns="http://www.w3.org/2000/svg" xmlns:xlink="http://www.w3.org/1999/xlink" version="1.1" x="0px" y="0px" viewBox="0 0 48 48" style="enable-background:new 0 0 48 48;" xml:space="preserve"><g><path d="M24,18.8c-2,0-3.6,1.6-3.6,3.6S22,26,24,26s3.6-1.6,3.6-3.6S26,18.8,24,18.8z M24,24c-0.9,0-1.6-0.7-1.6-1.6   s0.7-1.6,1.6-1.6s1.6,0.7,1.6,1.6S24.9,24,24,24z"></path><path d="M38.4,17.3L37.6,4.6C37.4,2,35.2,0,32.7,0H15.3c-2.6,0-4.7,2-4.9,4.6L9.6,17.3c0,0.2,1.1,19.3,1.1,19.5v2.5   c0,1,0.8,1.8,1.8,1.8h2.1c1,0,1.8-0.8,1.8-1.8v-1.6h1.3v2.9c0,0.6,0.4,1,1,1h1.7v4.1c0,1.3,1,2.3,2.3,2.3h2.7c1.3,0,2.3-1,2.3-2.3   v-4.1h1.6c0.6,0,1-0.4,1-1v-2.9h1.3v1.6c0,1,0.8,1.8,1.8,1.8h2.1c1,0,1.8-0.8,1.8-1.8v-2.6C37.3,36.6,38.4,17.4,38.4,17.3z    M12.2,7.5h23.5l0.6,8.8H11.6L12.2,7.5z M15.3,2h17.4c1.5,0,2.8,1.2,2.9,2.7l0.1,0.8H12.4l0.1-0.8C12.5,3.2,13.8,2,15.3,2z    M14.5,39.1h-1.8v-1.4h1.8V39.1z M25.4,46h-2.7c-0.2,0-0.3-0.1-0.3-0.3V33.3c0-0.2,0.1-0.3,0.3-0.3h2.7c0.2,0,0.3,0.1,0.3,0.3v7.3   c0,0,0,0,0,0s0,0,0,0v5.1C25.7,45.9,25.6,46,25.4,46z M28.3,39.6h-0.6v-6.3c0-1.3-1-2.3-2.3-2.3h-2.7c-1.3,0-2.3,1-2.3,2.3v6.3   h-0.7v-6.4c0-2.4,1.9-4.3,4.3-4.3c2.4,0,4.3,1.9,4.3,4.3V39.6z M24,26.9c-3.5,0-6.3,2.8-6.3,6.3v2.5c-1.9,0-3.2,0-5.1,0l-1-17.3   h24.8l-1,17.4c-1.9,0-3.1,0-5.1,0v-2.5C30.3,29.7,27.5,26.9,24,26.9z M35.3,39.1h-1.8v-1.4h1.8V39.1z"></path></g></svg>