<svg height='100px' width='100px'  fill="#a7d0db" xmlns="http://www.w3.org/2000/svg" viewBox="0 0 64 64" x="0px" y="0px"><g><path d="M62,41a15.968,15.968,0,0,0-6-12.47V14a9.008,9.008,0,0,0-6.05-8.493A3,3,0,0,0,47,3H31a3,3,0,0,0-2.951,2.515A8.994,8.994,0,0,0,22,14V28.53a16.068,16.068,0,0,0-4.772,6.335A25.587,25.587,0,0,0,7.2,30.02a1.006,1.006,0,0,0-.91.28l-4,4.077a1,1,0,0,0,.347,1.63c6.671,2.635,8.02,6.365,9.326,9.973,1.416,3.912,2.769,7.611,10.7,7.983A15.921,15.921,0,0,0,27,56.189V60a1,1,0,0,0,1,1H50a1,1,0,0,0,1-1V56.189A16.021,16.021,0,0,0,62,41ZM31,5H47a1,1,0,0,1,0,2H31a1,1,0,0,1,0-2Zm-7,9a6.993,6.993,0,0,1,4.423-6.49A2.989,2.989,0,0,0,31,9H47a2.988,2.988,0,0,0,2.577-1.49A7,7,0,0,1,54,14V27.165a15.857,15.857,0,0,0-4.039-1.648c-.361-2.576-3.582-4.642-7.984-5.294.006-.075.023-.147.023-.223a3,3,0,0,0-6,0c0,.078.017.151.023.227-4.4.652-7.622,2.715-7.983,5.289A15.867,15.867,0,0,0,24,27.165Zm15,7a1,1,0,1,1,1-1A1,1,0,0,1,39,21Zm-2.119,1.121a2.995,2.995,0,0,0,4.239,0c3.378.382,5.814,1.639,6.6,2.975A15.977,15.977,0,0,0,46,25H32a16.187,16.187,0,0,0-1.715.095C31.068,23.76,33.5,22.5,36.881,22.121ZM13.84,45.3c-1.235-3.414-2.754-7.611-9.1-10.566l2.58-2.63a23.757,23.757,0,0,1,9.229,4.82,15.794,15.794,0,0,0,3.562,14.742C15.855,50.819,14.965,48.407,13.84,45.3ZM49,57v2H29V57H49Zm-3-2H32a14,14,0,0,1,0-28H46a14,14,0,0,1,0,28Z"></path><path d="M51.456,30.307l-.912,1.779A9.978,9.978,0,0,1,56,40.993h2A11.967,11.967,0,0,0,51.456,30.307Z"></path><path d="M46,30.993a9.958,9.958,0,0,1,2.727.378l.547-1.924A11.975,11.975,0,0,0,46,28.993Z"></path><path d="M43.972,37.027a3.983,3.983,0,1,0-7.944,0,3.984,3.984,0,1,0,0,7.946,3.983,3.983,0,1,0,7.944,0c.09.006.18.026.27.026a3.991,3.991,0,1,0-.27-7.971Zm-5.386-1.684a2,2,0,0,1,2.828,2.829L40,39.586l-1.414-1.414A2,2,0,0,1,38.586,35.343Zm-4.243,7.071a2,2,0,0,1,2.829-2.828L38.586,41l-1.414,1.414A2.005,2.005,0,0,1,34.343,42.414Zm7.071,4.243a2,2,0,0,1-2.828-2.829L40,42.414l1.414,1.414A2,2,0,0,1,41.414,46.657Zm4.243-4.243a2,2,0,0,1-2.829,0L41.414,41l1.414-1.414a2,2,0,0,1,2.829,2.828Z"></path></g></svg>