<svg height='100px' width='100px'  fill="#ff2d21" xmlns="http://www.w3.org/2000/svg" data-name="Layer 1" viewBox="0 0 100 100" x="0px" y="0px"><title>Building Icons</title><path d="M92.53,84H7.47a2,2,0,0,1-1.85-2.77l7.47-18A2,2,0,0,1,14.95,62H85.05a2,2,0,0,1,1.85,1.23l7.47,18A2,2,0,0,1,92.53,84ZM10.47,80H89.53L83.72,66H16.28Z"></path><path d="M80,66H20a2,2,0,0,1-2-2V47a2,2,0,0,1,2-2H80a2,2,0,0,1,2,2V64A2,2,0,0,1,80,66ZM22,62H78V49H22Z"></path><path d="M30,66a2,2,0,0,1-2-2V47a2,2,0,0,1,4,0V64A2,2,0,0,1,30,66Z"></path><path d="M40,66a2,2,0,0,1-2-2V47a2,2,0,0,1,4,0V64A2,2,0,0,1,40,66Z"></path><path d="M50,66a2,2,0,0,1-2-2V47a2,2,0,0,1,4,0V64A2,2,0,0,1,50,66Z"></path><path d="M60,66a2,2,0,0,1-2-2V47a2,2,0,0,1,4,0V64A2,2,0,0,1,60,66Z"></path><path d="M70,66a2,2,0,0,1-2-2V47a2,2,0,0,1,4,0V64A2,2,0,0,1,70,66Z"></path><path d="M84,49H16a2,2,0,0,1-.58-3.92C19.83,43.76,24,41.29,24,40a2,2,0,0,1,2-2H74a2,2,0,0,1,2,2c0,1.29,4.17,3.76,8.57,5.08A2,2,0,0,1,84,49ZM24.89,45H75.11a8.53,8.53,0,0,1-2.64-3H27.53A8.53,8.53,0,0,1,24.89,45Z"></path><path d="M74,35H26l-.28,0c-2.21-.32-7.5-2.69-8.54-3.16A2,2,0,0,1,18,28c3.3,0,10.12-1,10.12-4a2,2,0,0,1,2-2H69.88a2,2,0,0,1,2,2c0,3,6.82,4,10.12,4a2,2,0,0,1,.84,3.82c-1,.48-6.35,2.89-8.59,3.17ZM26.17,31H73.86l.47-.11c-2.69-.84-5.25-2.31-6.13-4.89H31.8c-.87,2.58-3.42,4-6.11,4.89Z"></path><path d="M74,42H26a2,2,0,0,1-2-2V33a2,2,0,0,1,2-2H74a2,2,0,0,1,2,2v7A2,2,0,0,1,74,42ZM28,38H72V35H28Z"></path><path d="M70,26a2,2,0,0,1-2-2V21a2,2,0,0,1,0-4h2a2,2,0,0,1,2,2v5A2,2,0,0,1,70,26Z"></path><path d="M30,26a2,2,0,0,1-2-2V19a2,2,0,0,1,2-2h2a2,2,0,0,1,0,4v3A2,2,0,0,1,30,26Z"></path><path d="M54,42H47a2,2,0,0,1-2-2V33a2,2,0,0,1,2-2h7a2,2,0,0,1,2,2v7A2,2,0,0,1,54,42Zm-5-4h3V35H49Z"></path><path d="M25,81.5A2,2,0,0,1,23.06,79l4-16a2,2,0,0,1,3.88,1l-4,16A2,2,0,0,1,25,81.5Z"></path><path d="M75,81.5A2,2,0,0,1,73.06,80l-4-16a2,2,0,1,1,3.88-1l4,16A2,2,0,0,1,75,81.5Z"></path><path d="M41,81.5h-.13A2,2,0,0,1,39,79.38l1-16a2,2,0,0,1,4,.25l-1,16A2,2,0,0,1,41,81.5Z"></path><path d="M59,81.5a2,2,0,0,1-2-1.87l-1-16a2,2,0,0,1,4-.25l1,16a2,2,0,0,1-1.87,2.12Z"></path><path d="M15,66a2,2,0,0,1-2-2V60a2,2,0,0,1,4,0v4A2,2,0,0,1,15,66Z"></path><path d="M85,66a2,2,0,0,1-2-2V60a2,2,0,0,1,4,0v4A2,2,0,0,1,85,66Z"></path><path d="M80,55H20a2,2,0,0,1,0-4H80a2,2,0,0,1,0,4Z"></path><path d="M90,78H35a2,2,0,0,1,0-4H90a2,2,0,0,1,0,4Z"></path><path d="M25,78H10a2,2,0,0,1,0-4H25a2,2,0,0,1,0,4Z"></path><path d="M50,72H20a2,2,0,0,1,0-4H50a2,2,0,0,1,0,4Z"></path><path d="M79,72H66a2,2,0,0,1,0-4H79a2,2,0,0,1,0,4Z"></path></svg>