<svg height='100px' width='100px'  fill="#29211c" xmlns="http://www.w3.org/2000/svg" viewBox="0 0 64 64" x="0px" y="0px"><g><path d="M41,10.232V7h2V5H33V2H31V5H21V7h2v3.232A9.01,9.01,0,0,0,16,19V39a9.01,9.01,0,0,0,7,8.768V51H21v2h2v9h2V53h2v9h2V53h2v9h2V53h2v9h2V53h2v9h2V53h2V51H41V47.768A9.01,9.01,0,0,0,48,39V19A9.01,9.01,0,0,0,41,10.232ZM25,7H39v3H25Zm0,5H39a7,7,0,0,1,6.315,4H18.685A7,7,0,0,1,25,12Zm21,7v3H18V19a7.026,7.026,0,0,1,.08-1H45.92A7.026,7.026,0,0,1,46,19Zm-.08,21H18.08A7.026,7.026,0,0,1,18,39V36H46v3A7.026,7.026,0,0,1,45.92,40ZM18,34V30H46v4Zm0-6V24H46v4ZM39,51H25V48H39Zm0-5H25a7,7,0,0,1-6.315-4h26.63A7,7,0,0,1,39,46Z"></path><polygon points="11 47 9 47 9 49 7 49 7 51 9 51 9 53 11 53 11 51 13 51 13 49 11 49 11 47"></polygon><polygon points="55 18 57 18 57 16 59 16 59 14 57 14 57 12 55 12 55 14 53 14 53 16 55 16 55 18"></polygon><path d="M13,12A3.827,3.827,0,0,1,9,8,1,1,0,0,0,7,8a3.827,3.827,0,0,1-4,4,1,1,0,0,0,0,2,3.827,3.827,0,0,1,4,4,1,1,0,0,0,2,0,3.827,3.827,0,0,1,4-4,1,1,0,0,0,0-2ZM8,14.546A5.551,5.551,0,0,0,6.454,13,5.551,5.551,0,0,0,8,11.454,5.551,5.551,0,0,0,9.546,13,5.551,5.551,0,0,0,8,14.546Z"></path><path d="M61,48a3.827,3.827,0,0,1-4-4,1,1,0,0,0-2,0,3.827,3.827,0,0,1-4,4,1,1,0,0,0,0,2,3.827,3.827,0,0,1,4,4,1,1,0,0,0,2,0,3.827,3.827,0,0,1,4-4,1,1,0,0,0,0-2Zm-5,2.546A5.551,5.551,0,0,0,54.454,49,5.551,5.551,0,0,0,56,47.454,5.551,5.551,0,0,0,57.546,49,5.551,5.551,0,0,0,56,50.546Z"></path></g></svg>