<svg height='100px' width='100px'  fill="#ff9100" xmlns="http://www.w3.org/2000/svg" xmlns:xlink="http://www.w3.org/1999/xlink" version="1.1" x="0px" y="0px" viewBox="0 0 100 100" enable-background="new 0 0 100 100" xml:space="preserve"><g><g><path d="M9.281,81.783h81.438c0.829,0,1.5-0.671,1.5-1.5V19.726c0-0.829-0.671-1.5-1.5-1.5H9.281c-0.829,0-1.5,0.671-1.5,1.5    v60.557C7.781,81.111,8.453,81.783,9.281,81.783z M10.781,21.226h78.438v57.557H10.781V21.226z"></path><path d="M36.498,35.551h-5.254l-1.624-4.997c-0.201-0.618-0.777-1.036-1.427-1.036s-1.226,0.418-1.427,1.037l-1.623,4.997h-5.255    c-0.65,0-1.226,0.418-1.427,1.037c-0.201,0.618,0.02,1.295,0.545,1.677l4.251,3.089l-1.625,4.998    c-0.201,0.618,0.02,1.295,0.545,1.677c0.526,0.382,1.237,0.382,1.764,0l4.251-3.089l4.251,3.089    c0.263,0.191,0.572,0.287,0.882,0.287s0.619-0.096,0.882-0.287c0.525-0.382,0.746-1.059,0.545-1.677l-1.624-4.998l4.25-3.089    c0.526-0.382,0.746-1.059,0.545-1.677C37.724,35.97,37.148,35.551,36.498,35.551z M30.484,39.567    c-0.525,0.382-0.746,1.059-0.545,1.677l0.534,1.644l-1.398-1.016c-0.263-0.191-0.572-0.287-0.882-0.287s-0.619,0.096-0.882,0.287    l-1.397,1.015l0.534-1.643c0.201-0.618-0.02-1.295-0.545-1.677l-1.398-1.016h1.729c0.65,0,1.226-0.418,1.427-1.037l0.534-1.643    l0.534,1.643c0.201,0.618,0.777,1.036,1.427,1.036h1.728L30.484,39.567z"></path><path d="M46.919,47.756l-0.337-0.077l-0.032-0.346c-0.06-0.647-0.529-1.182-1.163-1.325c-0.632-0.142-1.288,0.137-1.62,0.695    l-0.177,0.298l-0.338-0.076c-0.634-0.145-1.288,0.138-1.619,0.697s-0.267,1.267,0.162,1.755l0.227,0.259l-0.178,0.299    c-0.332,0.559-0.267,1.267,0.162,1.756c0.429,0.489,1.124,0.646,1.72,0.389l0.319-0.137l0.229,0.261    c0.292,0.332,0.705,0.51,1.128,0.51c0.005,0,0.01,0,0.015,0c0.798,0.015,1.504-0.67,1.504-1.5c0-0.131-0.017-0.259-0.049-0.381    l-0.009-0.101l0.317-0.136c0.597-0.256,0.961-0.868,0.902-1.515S47.553,47.9,46.919,47.756z"></path><path d="M52.736,43.257l-0.126-0.105l0.128-0.322c0.241-0.603,0.066-1.293-0.434-1.708c-0.5-0.415-1.209-0.462-1.759-0.116    l-0.293,0.185l-0.266-0.222c-0.5-0.414-1.209-0.461-1.759-0.116c-0.55,0.347-0.814,1.008-0.654,1.637l0.085,0.337l-0.293,0.185    c-0.549,0.347-0.812,1.008-0.652,1.638c0.16,0.63,0.708,1.084,1.355,1.127l0.344,0.023l0.085,0.336    c0.16,0.63,0.708,1.085,1.356,1.127c0.033,0.002,0.066,0.003,0.099,0.003c0.61,0,1.164-0.372,1.393-0.944l0.128-0.322l0.347,0.022    c0.033,0.002,0.065,0.003,0.098,0.003c0.006,0,0.013,0,0.02,0c0.829,0,1.5-0.671,1.5-1.5    C53.437,43.992,53.157,43.523,52.736,43.257z"></path><path d="M46.588,35.202c-0.144,0.634,0.137,1.288,0.695,1.621L47.581,37l-0.076,0.338c-0.144,0.634,0.138,1.288,0.696,1.62    c0.238,0.142,0.502,0.211,0.766,0.211c0.356,0,0.709-0.126,0.989-0.372l0.26-0.228l0.299,0.178    c0.56,0.332,1.269,0.267,1.756-0.162c0.489-0.429,0.646-1.123,0.389-1.72l-0.136-0.317l0.26-0.228    c0.489-0.428,0.646-1.123,0.39-1.72c-0.256-0.597-0.862-0.962-1.516-0.902l-0.346,0.032l-0.137-0.319    c-0.256-0.597-0.859-0.962-1.515-0.901c-0.647,0.06-1.182,0.528-1.326,1.162l-0.077,0.337l-0.345,0.032    C47.267,34.1,46.731,34.569,46.588,35.202z"></path><path d="M41.434,32.365c0.347,0.549,1.008,0.81,1.637,0.653l0.336-0.085l0.185,0.293c0.279,0.442,0.762,0.699,1.268,0.699    c0.123,0,0.247-0.015,0.37-0.046c0.63-0.16,1.085-0.708,1.127-1.355l0.023-0.344l0.335-0.085c0.63-0.16,1.085-0.707,1.128-1.355    c0.043-0.649-0.337-1.251-0.941-1.492l-0.322-0.128l0.022-0.347c0.042-0.648-0.337-1.25-0.941-1.491    c-0.604-0.24-1.294-0.064-1.709,0.435l-0.221,0.266l-0.322-0.128c-0.604-0.242-1.293-0.066-1.708,0.434    c-0.416,0.499-0.462,1.209-0.117,1.759l0.185,0.293l-0.222,0.267C41.133,31.106,41.087,31.816,41.434,32.365z"></path></g></g></svg>