<svg height='100px' width='100px'  fill="#a7d0db" xmlns="http://www.w3.org/2000/svg" xmlns:xlink="http://www.w3.org/1999/xlink" version="1.1" x="0px" y="0px" viewBox="0 0 100 100" enable-background="new 0 0 100 100" xml:space="preserve"><g><g><g><path fill="#a7d0db" d="M25.58,46.826H8.257c-2.524,0-4.583-2.057-4.583-4.585c0-2.53,2.059-4.586,4.583-4.586h3.627     c0-0.065-0.006-0.13-0.006-0.195c0-2.529,2.059-4.586,4.589-4.586h17.324c2.524,0,4.583,2.057,4.583,4.586     s-2.059,4.586-4.583,4.586h-3.628c0,0.065,0.006,0.13,0.006,0.196C30.169,44.77,28.112,46.826,25.58,46.826z M8.257,40.64     c-0.881,0-1.598,0.719-1.598,1.601c0,0.882,0.717,1.6,1.598,1.6H25.58c0.887,0,1.604-0.718,1.604-1.6     c0-0.263-0.104-0.535-0.32-0.859c-0.304-0.458-0.332-1.046-0.075-1.534c0.262-0.485,0.769-0.789,1.317-0.789h5.686     c0.88,0,1.597-0.719,1.597-1.601s-0.717-1.601-1.597-1.601H16.467c-0.887,0-1.604,0.719-1.604,1.601     c0,0.262,0.105,0.535,0.32,0.858c0.304,0.458,0.333,1.047,0.076,1.534c-0.263,0.485-0.77,0.789-1.318,0.789H8.257z"></path></g></g></g><g><g><g><path fill="#a7d0db" d="M35.995,32.549c-6.053,0-10.975-4.922-10.975-10.973c0-6.049,4.922-10.972,10.975-10.972     c6.046,0,10.967,4.923,10.967,10.972c0,0.999-0.134,1.988-0.396,2.942c-0.221,0.792-1.025,1.262-1.836,1.039     c-0.793-0.22-1.26-1.044-1.038-1.838c0.192-0.692,0.285-1.414,0.285-2.143c0-4.404-3.58-7.987-7.981-7.987     c-4.409,0-7.989,3.583-7.989,7.987c0,4.404,3.58,7.987,7.989,7.987c0.577,0,1.148-0.063,1.708-0.184     c0.781-0.172,1.604,0.333,1.778,1.138c0.176,0.807-0.332,1.601-1.143,1.777C37.574,32.465,36.782,32.549,35.995,32.549z"></path></g></g></g><g><g><g><path fill="#a7d0db" d="M76.724,91.296H36.88c-0.821,0-1.492-0.667-1.492-1.493V73.758c0-0.825,0.671-1.492,1.492-1.492h39.844     c0.822,0,1.492,0.667,1.492,1.492v16.045C78.216,90.629,77.546,91.296,76.724,91.296z M38.374,88.311H75.23v-13.06H38.374V88.311     z"></path></g></g></g><g><g><g><path fill="#a7d0db" d="M83.051,95.527H30.554c-0.821,0-1.492-0.669-1.492-1.493v-4.231c0-0.825,0.671-1.492,1.492-1.492h52.497     c0.821,0,1.492,0.667,1.492,1.492v4.231C84.543,94.858,83.872,95.527,83.051,95.527z M32.048,92.541h49.51v-1.245h-49.51V92.541z     "></path></g></g></g><g><g><g><g><path fill="#a7d0db" d="M36.24,47.455c-0.8,0-1.458-0.631-1.493-1.434c-0.029-0.825,0.611-1.518,1.435-1.55      c4.437-0.172,7.784-7.14,8.693-9.811c0.21-0.604,0.775-1.01,1.417-1.01h16.222c0.822,0,1.492,0.668,1.492,1.493      c0,0.825-0.67,1.493-1.492,1.493H47.318c-1.148,2.835-4.857,10.581-11.021,10.818C36.28,47.455,36.257,47.455,36.24,47.455z"></path></g></g></g><g><g><g><path fill="#a7d0db" d="M77.593,47.46c-6.339,0-10.135-7.944-11.307-10.825H51.091c-0.822,0-1.492-0.667-1.492-1.493      c0-0.825,0.67-1.493,1.492-1.493h16.228c0.636,0,1.207,0.407,1.411,1.01c0.95,2.774,4.502,10.015,8.991,9.812      c0.012,0,0.029,0,0.029,0c0.816,0,1.48,0.641,1.504,1.452c0.024,0.824-0.629,1.51-1.452,1.534      C77.732,47.459,77.663,47.46,77.593,47.46z"></path></g></g></g></g><g><g><g><g><path fill="#a7d0db" d="M38.223,28.455c-0.822,0-1.493-0.667-1.493-1.49c-0.006-0.824,0.665-1.495,1.486-1.496      c6.251-0.014,14.688-9.163,17.412-12.688c0.507-0.651,1.446-0.77,2.093-0.268c0.652,0.503,0.77,1.44,0.269,2.093      C57.552,15.17,47.207,28.435,38.223,28.455L38.223,28.455z"></path></g></g></g><g><g><g><path fill="#a7d0db" d="M75.039,28.446c0,0-0.041,0-0.064-0.001c-8.875-0.402-18.928-13.29-19.347-13.838      c-0.508-0.653-0.386-1.59,0.268-2.093c0.647-0.501,1.586-0.383,2.094,0.268c2.653,3.432,10.897,12.398,17.119,12.681      c0.822,0.038,1.458,0.734,1.423,1.558C76.496,27.822,75.831,28.446,75.039,28.446z"></path></g></g></g></g><g><g><g><path fill="#a7d0db" d="M67.75,36.635H46.292c-0.828,0-1.492-0.667-1.492-1.493v-4.086c0-0.825,0.664-1.493,1.492-1.493H67.75     c0.822,0,1.492,0.667,1.492,1.493v4.086C69.242,35.968,68.572,36.635,67.75,36.635z M47.784,33.65h18.473v-1.101H47.784V33.65z"></path></g></g></g><g><g><g><path fill="#a7d0db" d="M71.23,57H42.374c-0.822,0-1.493-0.668-1.493-1.492v-5.445c0-0.825,0.671-1.493,1.493-1.493H71.23     c0.828,0,1.493,0.667,1.493,1.493v5.445C72.724,56.332,72.059,57,71.23,57z M43.866,54.015h25.872v-2.46H43.866V54.015z"></path></g></g></g><g><g><g><path fill="#a7d0db" d="M56.806,15.975c-0.822,0-1.493-0.668-1.493-1.493V4.135c0-0.825,0.671-1.492,1.493-1.492     c0.828,0,1.492,0.667,1.492,1.492v10.347C58.298,15.307,57.634,15.975,56.806,15.975z"></path></g></g></g><g><g><g><path fill="#a7d0db" d="M62.094,91.296H51.511c-0.822,0-1.492-0.667-1.492-1.493v-4.664c0-3.74,3.043-6.785,6.78-6.785     c3.744,0,6.788,3.045,6.788,6.785v4.664C63.587,90.629,62.922,91.296,62.094,91.296z M53.003,88.311h7.599v-3.172     c0-2.095-1.703-3.8-3.803-3.8c-2.093,0-3.796,1.705-3.796,3.8V88.311z"></path></g></g></g><g><g><g><g><path fill="#a7d0db" d="M29.959,71.154c-0.793,0-1.452-0.624-1.486-1.422c-0.041-0.824,0.596-1.524,1.417-1.562      c6.059-0.283,10.531-9.585,11.743-13.146c0.204-0.604,0.776-1.011,1.411-1.011h21.23c0.822,0,1.493,0.667,1.493,1.493      c0,0.824-0.671,1.492-1.493,1.492H44.082C42.753,60.356,38,70.779,30.029,71.152C30.007,71.154,29.983,71.154,29.959,71.154z"></path></g></g></g><g><g><g><path fill="#a7d0db" d="M83.709,71.156c-0.017,0-0.041,0-0.041,0C75.634,70.846,70.853,60.368,69.522,57H49.33      c-0.822,0-1.492-0.668-1.492-1.492c0-0.826,0.67-1.493,1.492-1.493h21.23c0.635,0,1.207,0.407,1.411,1.01      c0.047,0.128,4.483,12.866,11.796,13.147c0.822,0.032,1.464,0.725,1.435,1.548C85.167,70.524,84.508,71.156,83.709,71.156z"></path></g></g></g></g><g><g><g><path fill="#a7d0db" d="M74.333,32.549H38.928c-1.947,0-3.54-1.589-3.54-3.541s1.593-3.54,3.54-3.54h35.405     c1.947,0,3.54,1.588,3.54,3.54S76.28,32.549,74.333,32.549z M38.928,28.455c-0.304,0-0.554,0.248-0.554,0.554     c0,0.307,0.25,0.556,0.554,0.556h35.405c0.303,0,0.555-0.249,0.555-0.556c0-0.306-0.252-0.554-0.555-0.554H38.928z"></path></g></g></g><g><g><g><path fill="#a7d0db" d="M79.196,51.555H34.84c-1.953,0-3.538-1.588-3.538-3.541c0-1.952,1.585-3.54,3.538-3.54h44.356     c1.953,0,3.539,1.588,3.539,3.54C82.735,49.966,81.149,51.555,79.196,51.555z M34.84,47.46c-0.309,0-0.553,0.248-0.553,0.554     c0,0.307,0.244,0.556,0.553,0.556h44.356c0.31,0,0.554-0.249,0.554-0.556c0-0.306-0.244-0.554-0.554-0.554H34.84z"></path></g></g></g><g><g><g><path fill="#a7d0db" d="M85.167,75.251H28.869c-1.953,0-3.539-1.589-3.539-3.542c0-1.951,1.586-3.538,3.539-3.538h56.298     c1.953,0,3.539,1.587,3.539,3.538C88.706,73.662,87.12,75.251,85.167,75.251z M28.869,71.156c-0.309,0-0.554,0.248-0.554,0.553     c0,0.307,0.245,0.557,0.554,0.557h56.298c0.31,0,0.555-0.25,0.555-0.557c0-0.305-0.245-0.553-0.555-0.553H28.869z"></path></g></g></g></svg>