<svg height='100px' width='100px'  fill="#ff9100" xmlns="http://www.w3.org/2000/svg" xmlns:xlink="http://www.w3.org/1999/xlink" version="1.1" x="0px" y="0px" viewBox="0 0 100 100" style="enable-background:new 0 0 100 100;" xml:space="preserve"><style type="text/css">
	.st0{stroke:#ff9100;stroke-linecap:round;stroke-linejoin:round;stroke-miterlimit:10;}
	.st1{fill:none;stroke:#ff9100;stroke-width:2;stroke-linecap:round;stroke-linejoin:round;stroke-miterlimit:10;}
	.st2{stroke:#ff9100;stroke-width:0.5;stroke-linecap:round;stroke-linejoin:round;stroke-miterlimit:10;}
	.st3{stroke:#ff9100;stroke-width:0.25;stroke-linecap:round;stroke-linejoin:round;stroke-miterlimit:10;}
</style><path d="M20.5,42.6L20,45.3c0,0.2,0,0.4,0.2,0.5c0.2,0.1,0.4,0.1,0.5,0l2.4-1.3l2.4,1.3c0.1,0,0.2,0.1,0.2,0.1c0.1,0,0.2,0,0.3-0.1  c0.2-0.1,0.2-0.3,0.2-0.5l-0.5-2.7l2-1.9c0.1-0.1,0.2-0.3,0.1-0.5c-0.1-0.2-0.2-0.3-0.4-0.3l-2.7-0.4l-1.2-2.5  c-0.2-0.3-0.7-0.3-0.9,0l-1.2,2.5l-2.7,0.4c-0.2,0-0.3,0.2-0.4,0.3c-0.1,0.2,0,0.4,0.1,0.5L20.5,42.6z"></path><path d="M29.6,33.6l-0.2,1.1c0,0.2,0,0.4,0.2,0.5c0.2,0.1,0.4,0.1,0.5,0l1-0.5l1,0.5c0.1,0,0.2,0.1,0.2,0.1c0.1,0,0.2,0,0.3-0.1  c0.2-0.1,0.2-0.3,0.2-0.5l-0.2-1.1l0.8-0.8c0.1-0.1,0.2-0.3,0.1-0.5c-0.1-0.2-0.2-0.3-0.4-0.3l-1.1-0.2l-0.5-1  c-0.2-0.3-0.7-0.3-0.9,0l-0.5,1L29.1,32c-0.2,0-0.3,0.2-0.4,0.3c-0.1,0.2,0,0.4,0.1,0.5L29.6,33.6z"></path><path d="M32.2,37.5c-0.1,0.2,0,0.4,0.1,0.5l0.8,0.8L33,39.9c0,0.2,0,0.4,0.2,0.5c0.1,0.1,0.2,0.1,0.3,0.1c0.1,0,0.2,0,0.2-0.1l1-0.5  l1,0.5c0.2,0.1,0.4,0.1,0.5,0c0.2-0.1,0.2-0.3,0.2-0.5l-0.2-1.1l0.8-0.8c0.1-0.1,0.2-0.3,0.1-0.5c-0.1-0.2-0.2-0.3-0.4-0.3L35.6,37  l-0.5-1c-0.1-0.2-0.3-0.3-0.4-0.3s-0.4,0.1-0.4,0.3l-0.5,1l-1.1,0.2C32.5,37.2,32.3,37.3,32.2,37.5z"></path><path d="M36.3,43.7l-1.1-0.2l-0.5-1c-0.1-0.2-0.3-0.3-0.4-0.3s-0.4,0.1-0.4,0.3l-0.5,1l-1.1,0.2c-0.2,0-0.3,0.2-0.4,0.3  c-0.1,0.2,0,0.4,0.1,0.5l0.8,0.8l-0.2,1.1c0,0.2,0,0.4,0.2,0.5c0.1,0.1,0.2,0.1,0.3,0.1c0.1,0,0.2,0,0.2-0.1l1-0.5l1,0.5  c0.2,0.1,0.4,0.1,0.5,0c0.2-0.1,0.2-0.3,0.2-0.5l-0.2-1.1l0.8-0.8c0.1-0.1,0.2-0.3,0.1-0.5C36.7,43.8,36.5,43.7,36.3,43.7z"></path><path d="M29.6,50.7l-0.2,1.1c0,0.2,0,0.4,0.2,0.5c0.2,0.1,0.4,0.1,0.5,0l1-0.5l1,0.5c0.1,0,0.2,0.1,0.2,0.1c0.1,0,0.2,0,0.3-0.1  c0.2-0.1,0.2-0.3,0.2-0.5l-0.2-1.1l0.8-0.8c0.1-0.1,0.2-0.3,0.1-0.5c-0.1-0.2-0.2-0.3-0.4-0.3l-1.1-0.2l-0.5-1  c-0.2-0.3-0.7-0.3-0.9,0l-0.5,1l-1.1,0.2c-0.2,0-0.3,0.2-0.4,0.3c-0.1,0.2,0,0.4,0.1,0.5L29.6,50.7z"></path><path d="M89.3,23.6H11.5c-0.6,0-1,0.4-1,1v50.8c0,0.6,0.4,1,1,1h77.9c0.6,0,1-0.4,1-1V24.6C90.3,24,89.9,23.6,89.3,23.6z M88.3,74.3  H12.5V25.6h75.9V74.3z"></path></svg>