<svg height='100px' width='100px'  fill="#ff2d21" xmlns:dc="http://purl.org/dc/elements/1.1/" xmlns:cc="http://creativecommons.org/ns#" xmlns:rdf="http://www.w3.org/1999/02/22-rdf-syntax-ns#" xmlns:svg="http://www.w3.org/2000/svg" xmlns="http://www.w3.org/2000/svg" xmlns:sodipodi="http://sodipodi.sourceforge.net/DTD/sodipodi-0.dtd" xmlns:inkscape="http://www.inkscape.org/namespaces/inkscape" version="1.1" x="0px" y="0px" viewBox="0 0 100 100"><g transform="translate(0,-952.36218)"><path style="text-indent:0;text-transform:none;direction:ltr;block-progression:tb;baseline-shift:baseline;color:#000000;enable-background:accumulate;" d="m 19.000009,958.36219 c -1.0917,0.10205 -2.0048,1.10038 -2,2.1875 l 0,83.62491 c 0,1.1528 1.0561,2.1874 2.2187,2.1876 l 59.375,0 c 2.4137,0 4.4063,-2.0308 4.4063,-4.375 l 0,-79.28126 c 0,-2.3456 -2.0403,-4.34375 -4.4063,-4.34375 l -59.5937,0 z m 2.4375,4.40625 5.875,0 0,79.18746 -5.875,0 0,-79.18746 z m 31.4375,11.65625 a 2.2210414,2.2019402 0 0 1 0.2187,0 2.2210414,2.2019402 0 0 1 1.875,0.96875 l 3.4376,5 6.1562,-1.5625 a 2.2210414,2.2019402 0 0 1 2.25,3.5625 l -3.9062,4.5625 3.375,4.90633 a 2.2210414,2.2019402 0 0 1 -2.5938,3.3124 l -5.9688,-2.1874 -3.9374,4.6562 a 2.2210414,2.2019402 0 0 1 -3.9063,-1.5625 l 0.3437,-5.84373 -5.8437,-2.0938 a 2.2210414,2.2019402 0 0 1 0.1875,-4.21875 l 6.0625,-1.53125 0.3125,-5.875 a 2.2210414,2.2019402 0 0 1 1.9375,-2.09375 z m -16.75,28.71881 a 2.2210414,2.2019402 0 0 1 0.2187,0 l 37.5,0 a 2.2210414,2.2019402 0 0 1 2.2188,2.1875 l 0,21.6874 a 2.2210414,2.2019402 0 0 1 -2.2188,2.2188 l -37.5,0 a 2.2210414,2.2019402 0 0 1 -2.2187,-2.2188 l 0,-21.6874 a 2.2210414,2.2019402 0 0 1 2,-2.1875 z" fill="#ff2d21" fill-opacity="1" fill-rule="evenodd" stroke="none" marker="none" visibility="visible" display="inline" overflow="visible"></path><path style="text-indent:0;text-transform:none;direction:ltr;block-progression:tb;baseline-shift:baseline;color:#000000;enable-background:accumulate;" d="m 38.562509,1007.5496 0,17.2813 33.0625,0 0,-17.2813 -33.0625,0 z m 4.4688,2.9688 a 2.2249002,2.2057657 0 0 1 0.094,0 2.2211561,2.2020538 0 0 1 0.2187,0 l 16.125,0 a 2.2222114,2.2031 0 0 1 0,4.4062 l -16.125,0 a 2.2277048,2.2085462 0 0 1 -0.3127,-4.4062 z m 0.094,6.9062 a 2.2211561,2.2020538 0 0 1 0.2187,0 l 23.5,0 a 2.2222618,2.20315 0 0 1 0,4.4063 l -23.5,0 a 2.2249506,2.2058156 0 1 1 -0.2187,-4.4063 z" fill="#ff2d21" fill-opacity="1" fill-rule="evenodd" stroke="none" marker="none" visibility="visible" display="inline" overflow="visible"></path><path style="text-indent:0;text-transform:none;direction:ltr;block-progression:tb;baseline-shift:baseline;color:#000000;enable-background:accumulate;" d="m 55.018408,983.30332 0.575398,0.84352 a 2.2210414,2.2019402 0 0 0 2.391449,0.89844 l 0.924626,-0.23531 -0.495496,0.58025 a 2.2210414,2.2019402 0 0 0 -0.138969,2.66467 l 0.41439,0.60095 -0.88526,-0.32181 a 2.2210414,2.2019402 0 0 0 -2.460331,0.64606 l -0.665185,0.77889 0.0529,-0.90932 a 2.2210414,2.2019402 0 0 0 -1.461933,-2.19661 l -0.635705,-0.2279 0.671351,-0.17192 a 2.2210414,2.2019402 0 0 0 1.663582,-2.01735 l 0.04918,-0.93256 z" fill="#ff2d21" fill-opacity="1" fill-rule="evenodd" stroke="none" marker="none" visibility="visible" display="inline" overflow="visible"></path></g></svg>