<?xml version="1.0" encoding="utf-8"?>
<!-- Generator: Adobe Illustrator 24.2.0, SVG Export Plug-In . SVG Version: 6.00 Build 0)  -->
<svg version="1.1" id="Layer_1" xmlns="http://www.w3.org/2000/svg" xmlns:xlink="http://www.w3.org/1999/xlink" x="0px" y="0px"
	 viewBox="0 0 1920 1080" style="enable-background:new 0 0 1920 1080;" xml:space="preserve">
<style type="text/css">
	.st0{fill:#0000FF;}
	.st1{fill:#FF0000;}
	.st2{fill:#0800FF;}
	.st3{fill:none;}
	.st4{font-family:'NotoSansSC-Medium-90ms-RKSJ-H';}
	.st5{font-size:15.3071px;}
	.st6{font-family:'NotoSansTC-Medium-90ms-RKSJ-H';}
	.st7{font-size:9.6378px;}
</style>
<g>
	<path class="st0" d="M183.6,271c-0.2,0.9-0.5,1.9-0.9,2.6c0.2,0.1,0.3,0.2,0.6,0.4c0.7,0.4,1.5,0.5,2.7,0.5c1.2,0,2.8-0.1,3.9-0.2
		c-0.1,0.3-0.3,0.7-0.3,0.9c-0.7,0-2.5,0.1-3.6,0.1c-1.3,0-2.1-0.1-2.8-0.5c-0.4-0.2-0.7-0.6-0.9-0.6c-0.2,0-0.5,0.6-0.8,1.2
		l-0.6-0.8c0.4-0.5,0.8-0.9,1.1-1.1c0.3-0.5,0.5-1.2,0.7-1.8h-1.3c0.2-0.6,0.5-1.3,0.8-2.1h-1.2v-0.8h2.2c-0.2,0.7-0.5,1.4-0.8,2.1
		h0.7l0.1,0L183.6,271z M182,268.4c-0.1-0.4-0.4-1.1-0.5-1.6l0.8-0.2c0.2,0.5,0.4,1.1,0.5,1.5L182,268.4z M186.8,272.4
		c0,0.2,0,0.6,0,0.8c-2.1,0.5-2.4,0.6-2.6,0.7c-0.1-0.2-0.2-0.5-0.3-0.7c0.2-0.1,0.3-0.3,0.3-0.6v-5.7h0.6v0h4v3.6l0,0l0.7,0.5
		c-0.5,0.3-1,0.7-1.5,1c0.5,0.5,1,0.9,1.3,1.3l-0.7,0.5c-0.6-0.7-1.8-1.8-2.8-2.6l0.6-0.5c0.3,0.2,0.6,0.5,1,0.7
		c0.4-0.3,0.9-0.6,1.3-0.9h-3.6v2.3L186.8,272.4z M187.9,267.6h-2.8v0.7h2.8V267.6z M187.9,269.8V269h-2.8v0.7H187.9z"/>
	<path class="st0" d="M198.7,271.3v4.1h-1v-0.5h-6.7v-3.5h1v2.6h2.3v-3.2h-2.9v-3.4h0.9v2.5h1.9v-3.3h1v3.3h2v-2.5h1v3.4h-3v3.2h2.4
		v-2.6H198.7z"/>
</g>
<g>
	<path d="M266.3,379.2h-6.1v3c0,0.9-0.3,1.3-0.9,1.5c-0.6,0.2-1.7,0.3-3.2,0.2c-0.1-0.4-0.4-1-0.6-1.4c1.2,0,2.4,0,2.8,0
		c0.3,0,0.5-0.1,0.5-0.4v-3h-6.2v-1.4h6.2v-2.2h-5.1v-1.4h5.1v-2.1c-1.6,0.1-3.3,0.2-4.9,0.3c0-0.4-0.2-0.9-0.3-1.2
		c3.6-0.2,7.9-0.6,10.3-1.3l1.1,1.2c-1.3,0.4-3,0.6-4.7,0.9v2.3h5.3v1.4h-5.3v2.2h6.1V379.2z"/>
</g>
<g>
	<path d="M319.8,371.3v12.9h-1.5v-0.9h-9.6v0.9h-1.4v-12.9H319.8z M308.8,372.6v3.8h4v-3.8H308.8z M308.8,381.8h4v-3.9h-4V381.8z
		 M318.4,372.6h-4.1v3.8h4.1V372.6z M318.4,381.8v-3.9h-4.1v3.9H318.4z"/>
</g>
<g>
	<path d="M366.2,374.3c-0.7,4-2.4,7-4.6,8.5c-0.2-0.3-0.8-0.9-1.1-1.1c1.9-1.2,3.3-3.4,4-6.3H361V374h4l0.3-0.1L366.2,374.3z
		 M373.6,373.9c-1.1,1.1-2.4,2.5-3.5,3.4c1.2,1.8,2.8,3.3,4.7,4.2c-0.3,0.3-0.8,0.9-1.1,1.3c-2.3-1.2-4.1-3.4-5.4-6v5.6
		c0,0.9-0.2,1.3-0.7,1.6c-0.5,0.3-1.3,0.3-2.5,0.3c-0.1-0.4-0.3-1.2-0.5-1.6c0.9,0,1.7,0,1.9,0c0.2,0,0.4-0.1,0.4-0.3v-12.2h1.5v3.7
		c0.3,0.8,0.6,1.5,1.1,2.3c1-0.9,2.1-2.2,2.8-3.2L373.6,373.9z"/>
</g>
<g>
	<path d="M425.4,371.8v12.1h-1.5v-1.2h-8.6v1.3h-1.5v-12.2H425.4z M423.9,381.2v-8h-8.6v8H423.9z"/>
</g>
<g>
	<path d="M480.5,375.4h-2.7v8.8h-1.6v-1.2h-5v1.3h-1.6v-8.9h-2.8v-1.5h2.8v-3.6h1.6v3.6h5v-3.6h1.6v3.6h2.7V375.4z M476.2,375.4h-5
		v6.1h5V375.4z"/>
</g>
<g>
	<path d="M532.9,379.5c-1.3-0.9-3.8-2.2-5.8-3.2v8h-1.7v-14h1.7v5.2l0.4-0.6c1.9,0.9,4.9,2.3,6.3,3.2L532.9,379.5z"/>
</g>
<g>
	<path d="M587.7,373.4v10.8h-1.5v-1.1h-10.6v-9.7h1.5v8.2h3.8v-11.3h1.5v11.3h3.9v-8.3H587.7z"/>
</g>
<g>
	<path d="M641.3,376c-1.1,1.8-2.6,3.3-4.3,4.5c0.8,1.3,1.9,2.1,3,2.1c0.6,0,0.9-0.6,1.1-2.7c0.4,0.3,0.9,0.7,1.4,0.8
		c-0.3,2.8-0.9,3.5-2.4,3.5c-1.8,0-3.2-1.1-4.3-2.8c-1.7,1.1-3.6,1.9-5.6,2.6c-0.2-0.3-0.7-1-1-1.3c2.1-0.6,4.1-1.5,5.8-2.6
		c-0.7-1.4-1.1-3-1.4-4.8l-4.6,0.4l-0.1-1.4l4.6-0.4c-0.2-1.2-0.2-2.4-0.2-3.6h1.6c0,1.2,0.1,2.4,0.2,3.5l7.3-0.6l0.1,1.4l-7.2,0.6
		c0.3,1.5,0.7,2.9,1.2,4c1.4-1.1,2.6-2.4,3.5-3.9L641.3,376z M639.5,373.3c-0.7-0.6-2.1-1.4-3.1-2l0.9-0.9c1,0.5,2.4,1.3,3.1,1.8
		L639.5,373.3z"/>
</g>
<g>
	<path d="M690.3,370.3c0,0.6,0,1.4-0.1,2.3c0.2,1.9,1.1,8,6.5,10.4c-0.4,0.3-0.8,0.8-1,1.2c-3.6-1.7-5.3-5.1-6.1-7.8
		c-0.8,2.9-2.4,6-5.8,7.9c-0.2-0.4-0.7-0.8-1.2-1.1c6.3-3.2,6.1-10.4,6.1-12.8H690.3z"/>
</g>
<g>
	<path d="M739.3,375.8c-0.2,1.9-0.7,4.5-1.3,6.1l-1.4-0.6c0.6-1.6,1.1-3.9,1.3-5.8L739.3,375.8z M742,374.5v7.3c0,0.7,0.2,0.8,1,0.8
		h2.6c0.9,0,1-0.5,1.1-3c0.3,0.3,1,0.5,1.3,0.6c-0.2,2.9-0.6,3.8-2.4,3.8h-2.8c-1.8,0-2.3-0.5-2.3-2.2v-7.3H742z M742.1,370.6
		c1.4,0.9,3.3,2.3,4.2,3.3l-1.1,1.1c-0.8-0.9-2.7-2.4-4.1-3.4L742.1,370.6z M748.7,375.1c0.9,1.8,1.7,4.1,2,5.7l-1.4,0.6
		c-0.3-1.6-1.1-4-1.9-5.8L748.7,375.1z"/>
</g>
<g>
	<path d="M276.7,425.2V438h-1.5v-0.9H268v1h-1.5v-12.9H276.7z M268,426.6v3.7h7.2v-3.7H268z M275.2,435.7v-3.9H268v3.9H275.2z"/>
</g>
<g>
	<path d="M331.5,430.4H322c-0.1,2.6-0.4,5.6-2.2,7.7c-0.3-0.3-0.9-0.7-1.2-0.9c1.7-2.1,1.9-5.4,1.9-7.7V425h10.9V430.4z M330,426.5
		h-8v2.5h8V426.5z"/>
</g>
<g>
	<path d="M380.9,429.3c1.3,2.5,3.6,4.9,5.9,6.2c-0.3,0.3-0.8,0.8-1.1,1.2c-2-1.3-4-3.5-5.4-5.8v7.4h-1.5v-7.4
		c-1.4,2.4-3.3,4.6-5.4,5.9c-0.2-0.4-0.7-0.9-1.1-1.2c2.3-1.3,4.5-3.7,5.8-6.2H373v-1.4h5.8v-3.6h1.5v3.6h5.9v1.4H380.9z"/>
</g>
<g>
	<path class="st1" d="M434.5,424.4c0,2,0,4-0.4,5.9c0.9,3.4,2.8,5.7,6.4,6.6c-0.3,0.3-0.7,0.9-0.9,1.3c-3.1-0.9-4.9-2.8-6.1-5.5
		c-0.9,2.4-2.5,4.4-5.8,5.7c-0.2-0.4-0.6-0.9-1-1.2c6.4-2.3,6.2-7.4,6.2-12.7H434.5z M429,432.2c-0.3-1.2-0.9-3.2-1.5-4.7l1.4-0.5
		c0.6,1.5,1.3,3.4,1.6,4.5L429,432.2z M440,427.8c-0.7,1.5-1.5,3.2-2.2,4.2l-1.2-0.5c0.7-1.1,1.5-3,1.9-4.3L440,427.8z"/>
</g>
<g>
	<path d="M494.5,436.2v1.4h-13.7v-1.4h6v-5.8h-5.1V429h5.1v-4.8h1.5v4.8h5.1v1.4h-5.1v5.8H494.5z"/>
</g>
<g>
	<path d="M548.6,428.6h-2.2v7.8c0,0.8-0.2,1.3-0.7,1.5c-0.5,0.2-1.4,0.3-2.6,0.3c-0.1-0.4-0.3-1.1-0.5-1.5c0.9,0,1.8,0,2,0
		c0.3,0,0.3-0.1,0.3-0.3v-7.8h-2c-0.4,1.1-1,2-1.5,2.8c-0.2-0.2-0.9-0.7-1.2-0.9c0.4-0.5,0.8-1.2,1.2-1.9h-2.4v9.6h-1.4v-9.6h-0.5
		c-0.5,1.1-1,2-1.5,2.8c-0.3-0.2-0.9-0.7-1.3-0.9c1.2-1.5,2.2-3.9,2.7-6.4l1.5,0.3c-0.2,0.9-0.5,1.8-0.8,2.7h3.8v1.1
		c0.6-1.2,1-2.7,1.3-4.2l1.4,0.3c-0.2,0.9-0.5,1.8-0.8,2.7h5.1V428.6z"/>
</g>
<g>
	<path d="M602.5,431.3h-6.1v7h-1.5v-7h-6v-1.5h6v-5.6h1.5v5.6h6.1V431.3z"/>
</g>
<g>
	<path d="M650.7,429.9c1,3.2,3,5.8,5.9,7c-0.4,0.3-0.8,0.9-1.1,1.3c-2.9-1.3-4.7-3.8-5.9-7.1c-0.8,2.8-2.4,5.4-5.9,7.1
		c-0.2-0.4-0.7-0.9-1.1-1.2c3.6-1.6,5.1-4.3,5.7-7.1h-5.4v-1.5h5.7c0.2-1.5,0.2-3,0.2-4.2h1.5c0,1.2,0,2.7-0.2,4.2h6.2v1.5H650.7z"
		/>
</g>
<g>
	<path d="M709.8,426.9v7.3h-1.5v-0.8h-4v4.9h-1.5v-4.9h-4v0.9h-1.4v-7.4h5.4v-2.7h1.5v2.7H709.8z M702.8,432v-3.7h-4v3.7H702.8z
		 M708.3,432v-3.7h-4v3.7H708.3z"/>
</g>
<g>
	<path d="M904.1,378.5l-1.3,1.1c-1-1.2-2.3-2.5-3.4-3.4l1.3-1.1C901.8,376,903.2,377.5,904.1,378.5z"/>
</g>
<g>
	<path class="st0" d="M1028.3,270.2c-0.4,1.1-0.8,2.2-1.4,3.1c0.2,0.6,0.5,1,0.9,1c0.2,0,0.3-0.4,0.4-1.5c0.2,0.2,0.5,0.4,0.7,0.5
		c-0.1,1.5-0.4,1.9-1.1,1.9c-0.6,0-1-0.4-1.4-1.1c-0.4,0.4-0.8,0.8-1.3,1.2c-0.1-0.2-0.4-0.5-0.6-0.6h-2.7v0.5h-0.8v-3.3
		c-0.1,0.1-0.2,0.3-0.3,0.4c-0.1-0.1-0.4-0.4-0.6-0.5c0.6-0.5,1.2-1.3,1.5-2.2l0.7,0.2c-0.1,0.3-0.2,0.5-0.4,0.7h1.1
		c-0.1-0.2-0.3-0.5-0.4-0.7l0.7-0.3c0.2,0.3,0.4,0.6,0.5,0.9h1.1v0.7h-1.3v0.5h1.1v0.6h-1.1v0.6h1.1v0.6h-1.1v0.6h1.3v0.3
		c0.4-0.3,0.7-0.7,1.1-1.1c-0.3-1-0.5-2.3-0.6-3.7h-5.2v-0.8h2.1V268h-1.7v-0.7h1.7v-0.8h0.9v0.8h1.6v0.7h-1.6v0.7h2.2
		c0-0.7-0.1-1.5-0.1-2.3h0.9c0,0.8,0,1.5,0,2.3h2.6v0.8h-2.5c0.1,1,0.2,2,0.4,2.7c0.4-0.7,0.7-1.4,0.9-2.2L1028.3,270.2z
		 M1022.8,271.2h-1.2v0.5h1.2V271.2z M1022.8,272.2h-1.2v0.6h1.2V272.2z M1021.6,273.9h1.2v-0.6h-1.2V273.9z M1027.8,268.5
		c-0.3-0.4-0.8-1-1.3-1.4l0.6-0.4c0.5,0.4,1.1,0.9,1.4,1.3L1027.8,268.5z"/>
	<path class="st0" d="M1031.4,270.2c0,1.6-0.1,3.7-1.1,5.1c-0.2-0.1-0.6-0.4-0.8-0.5c0.9-1.3,1-3.2,1-4.6v-3.3h7.4v2.4h-6.5V270.2z
		 M1031.4,267.7v0.8h5.5v-0.8H1031.4z M1038.3,273.1h-1.7v2.2h-0.9v-2.2h-1.8c-0.2,0.8-0.6,1.6-1.9,2.2c-0.1-0.2-0.4-0.5-0.6-0.7
		c1-0.4,1.4-1,1.6-1.5h-1.5v-0.8h1.6c0-0.1,0-0.2,0-0.3v-0.9h-1.4v-0.7h1.3c-0.1-0.2-0.3-0.6-0.5-0.9l0.8-0.3
		c0.2,0.3,0.4,0.6,0.5,0.9l-0.8,0.3h2.6c0.2-0.4,0.4-0.8,0.5-1.1l1,0.3c-0.2,0.3-0.4,0.6-0.6,0.9h1.5v0.7h-1.5v1.2h1.7V273.1z
		 M1035.7,272.4v-1.2h-1.7v0.9c0,0.1,0,0.2,0,0.3H1035.7z"/>
</g>
<g>
	<path class="st0" d="M1077.8,274.2c-1.2,0.3-2.5,0.6-3.4,0.8l-0.2-0.8c0.4-0.1,1-0.2,1.5-0.3v-2.6h-1.4v-0.8h1.4v-0.9h-0.9v-0.5
		c-0.2,0.2-0.4,0.3-0.6,0.5c-0.1-0.2-0.2-0.7-0.4-0.9c0.8-0.5,1.6-1.4,2.1-2.3l0.7,0.3c-0.1,0.1-0.1,0.3-0.2,0.4
		c0.6,0.4,1.3,0.8,1.6,1.2l-0.4,0.7c-0.4-0.4-1-0.9-1.6-1.3c-0.3,0.4-0.6,0.8-1,1.2h2.3v0.8h-1v0.9h1.3v0.8h-1.3v2.4
		c0.4-0.1,0.8-0.2,1.3-0.3L1077.8,274.2z M1074.9,271.7c0.2,0.5,0.3,1.3,0.4,1.7l-0.6,0.2c0-0.5-0.2-1.2-0.4-1.7L1074.9,271.7z
		 M1076.6,273.3c0.1-0.5,0.3-1.2,0.4-1.7l0.7,0.2c-0.2,0.6-0.4,1.2-0.5,1.7L1076.6,273.3z M1080,273.8c-0.5,0.6-1.3,1.2-2,1.6
		c-0.1-0.1-0.4-0.4-0.6-0.6c0.7-0.3,1.5-0.8,1.9-1.3L1080,273.8z M1078.6,268.7c-0.1-0.4-0.4-1.2-0.7-1.7l0.7-0.2
		c0.3,0.5,0.6,1.2,0.8,1.7L1078.6,268.7z M1079.7,268.8v-2.3h0.8v2.3h1c-0.2-0.1-0.5-0.3-0.7-0.4c0.3-0.4,0.6-1.1,0.8-1.6l0.8,0.2
		c-0.2,0.6-0.5,1.3-0.8,1.8h0.7v4.6h-4.2v-4.6H1079.7z M1081.4,269.5h-2.5v0.6h2.5V269.5z M1081.4,270.7h-2.5v0.6h2.5V270.7z
		 M1081.4,272h-2.5v0.6h2.5V272z M1081.1,273.5c0.7,0.4,1.4,1,1.8,1.4l-0.8,0.3c-0.4-0.4-1-1-1.6-1.4L1081.1,273.5z"/>
	<path class="st0" d="M1088.5,274.2c0.4,0.1,0.9,0.1,1.4,0.1c0.4,0,2,0,2.6,0c-0.1,0.2-0.3,0.6-0.3,0.9h-2.3c-1.9,0-3.3-0.3-4.2-1.9
		c-0.3,0.8-0.8,1.5-1.4,2c-0.1-0.2-0.5-0.5-0.7-0.6c1.1-0.8,1.5-2.1,1.7-3.8l0.9,0.1c-0.1,0.4-0.1,0.8-0.2,1.2
		c0.3,0.9,0.9,1.4,1.6,1.7v-3.7h-2.2v-0.8h5.4v0.8h-2.3v1.4h2.8v0.8h-2.8V274.2z M1084.9,269.7h-0.9v-2.2h3.6
		c-0.1-0.3-0.3-0.6-0.4-0.9l0.9-0.3c0.2,0.4,0.4,0.8,0.5,1.1h3.4v2.2h-0.9v-1.4h-6.3V269.7z"/>
</g>
<g>
	<path class="st0" d="M1131.9,270.4h-1.9v-0.5h1.9v-0.4h-1.5v-2.1h1.5v-0.3h-1.8v-0.6h1.8V266h0.8v0.6h1.8v0.6h-1.8v0.3h1.6v2.1
		h-1.6v0.4h1.7v0.5h-1.7v0.6h-0.8V270.4z M1131.1,268.3h0.8v-0.4h-0.8V268.3z M1131.9,269.1v-0.4h-0.8v0.4H1131.9z M1131.4,271.2h6
		v3.6h-0.9v-0.3h-4.2v0.3h-0.9V271.2z M1132.3,271.9v0.6h4.2v-0.6H1132.3z M1136.5,273.8v-0.7h-4.2v0.7H1136.5z M1132.7,267.9v0.4
		h0.8v-0.4H1132.7z M1133.6,268.7h-0.8v0.4h0.8V268.7z M1138.7,268.8h-1.1v2.2h-0.8v-2.2h-1.1c-0.1,0.8-0.3,1.6-0.8,2.3
		c-0.2-0.1-0.5-0.4-0.7-0.5c0.6-0.8,0.7-1.8,0.7-2.6v-1.4c1.1-0.1,2.3-0.3,3.1-0.5l0.4,0.6c-0.7,0.2-1.8,0.4-2.7,0.5v0.9v0.1h2.9
		V268.8z"/>
	<path class="st0" d="M1142.5,266.3c-0.3,0.7-0.6,1.5-1,2.2v6.4h-0.8v-5.1c-0.2,0.3-0.5,0.6-0.7,0.9c-0.1-0.2-0.3-0.7-0.5-0.9
		c0.9-0.9,1.7-2.3,2.1-3.7L1142.5,266.3z M1148.4,270.4v1.6h-0.8v-0.9h-4.6v0.9h-0.8v-1.6H1148.4z M1144.9,266.8
		c-0.1-0.2-0.2-0.4-0.3-0.6l0.8-0.2c0.2,0.3,0.3,0.6,0.5,0.9h2.5v0.7h-6v-0.7H1144.9z M1143,269.9V268h4.6v1.9H1143z M1143.1,271.8
		h4.4v0.7h-1.7v1.4c0,0.4-0.1,0.7-0.4,0.8c-0.3,0.1-0.8,0.1-1.6,0.1c0-0.2-0.2-0.6-0.3-0.8c0.5,0,1.1,0,1.2,0c0.2,0,0.2,0,0.2-0.2
		v-1.4h-1.8V271.8z M1143.8,269.3h2.9v-0.7h-2.9V269.3z"/>
</g>
<g>
	<path d="M254.5,321.8v1.6h-13.9v-1.6H254.5z"/>
</g>
<g>
	<path d="M308.4,327v1.6H295V327H308.4z M307.2,318.1v1.5h-10.9v-1.5H307.2z"/>
</g>
<g>
	<path d="M362.3,327.6v1.4h-13.2v-1.4H362.3z M361.4,317.5v1.5H350v-1.5H361.4z M360.2,322.4v1.5H351v-1.5H360.2z"/>
</g>
<g>
	<path d="M414,317.3v12.1h-1.5v-1h-9.7v1.1h-1.4v-12.3H414z M412.5,327.1v-2.2c-0.2,0.1-0.6,0.1-0.9,0.1H410c-1.2,0-1.5-0.6-1.5-1.9
		v-4.4h-1.9c-0.1,3.9-0.4,6.2-2.9,7.5c-0.2-0.3-0.5-0.9-0.9-1.1c2.1-1.1,2.4-2.9,2.4-6.3h-2.5v8.4H412.5z M412.5,318.7h-2.6v4.5
		c0,0.5,0,0.7,0.4,0.7h1.3c0.2,0,0.7,0,0.9-0.1c0,0.2,0,0.5,0.1,0.8V318.7z"/>
</g>
<g>
	<path d="M468.5,327.9v1.4H455v-1.4h3.6c0.3-1.3,0.6-3,0.9-4.6h-2.7v-1.4h3c0.2-1,0.3-2,0.4-3h-4.2v-1.4h11.5v1.4h-5.8
		c-0.1,1-0.3,2-0.4,3h3.4l0.3-0.1l1.1,0.1c-0.1,1.7-0.3,4-0.5,6H468.5z M461,323.2c-0.3,1.7-0.6,3.3-0.8,4.6h3.8
		c0.2-1.5,0.3-3.3,0.4-4.6H461z"/>
</g>
<g>
	<path d="M514.3,323.5c-1.1,2.3-2.7,4.9-4.1,6.5c-0.3-0.3-1-0.8-1.4-1c1.4-1.5,3-3.8,3.9-6L514.3,323.5z M522.5,319.9v1.5h-13.6
		v-1.5H522.5z M515.6,316c0.5,1,1.2,2.3,1.5,3.1l-1.6,0.6c-0.3-0.8-0.9-2.2-1.4-3.2L515.6,316z M518.4,322.8
		c1.4,1.9,3.2,4.6,4.1,6.2l-1.5,0.8c-0.8-1.6-2.6-4.3-4-6.4L518.4,322.8z"/>
</g>
<g>
	<path class="st1" d="M573.3,327.9c0.6,0,1.3,0,1.7-0.1c0,0.4,0.1,1,0.2,1.4c-0.4,0.1-1.1,0.1-1.9,0.1h-3.5c-2,0-2.7-0.8-2.7-2.8
		v-3.7l-4,0.6l-0.2-1.4l4.3-0.7v-4.9h1.5v4.7l7.5-1.2l0.2,1.5l-7.7,1.2v4c0,1,0.3,1.4,1.1,1.4H573.3z"/>
</g>
<g>
	<path class="st1" d="M622.2,317.2c-0.4,4.7-1.1,10-4.4,12.9c-0.2-0.3-0.8-0.8-1.2-1c3.1-2.7,3.7-7.7,4-12L622.2,317.2z
		 M626.1,316.8c0.6,5.1,1.8,9.9,4.6,12.3c-0.4,0.2-1.1,0.7-1.4,1c-2.7-2.5-3.9-7.1-4.5-11.9h-1.3v-1.4H626.1z"/>
</g>
<g>
	<path d="M682.8,328.4c0.4,0,0.5-0.5,0.6-2.5c0.3,0.3,0.9,0.5,1.3,0.6c-0.1,2.5-0.5,3.3-1.8,3.3h-1.6c-1.4,0-1.7-0.5-1.7-2.1v-6.9
		h-3c-0.3,3.7-1.3,7.2-4.7,9.4c-0.2-0.4-0.7-0.9-1.1-1.1c3.1-1.9,4-4.9,4.3-8.2h-3.8v-1.4h3.9c0-1.1,0-2.2,0-3.3h1.6
		c0,1.1,0,2.2-0.1,3.3h4.4v8.3c0,0.6,0.1,0.7,0.5,0.7H682.8z"/>
</g>
<g>
	<path class="st1" d="M732.9,322.1c-0.1,0.1-0.2,0.2-0.3,0.2c1.4,0.7,3.9,1.4,6.2,1.7c-0.3,0.3-0.7,0.8-0.9,1.2
		c-1-0.2-2.1-0.5-3.1-0.8v0.6h-6.3v-0.6c-0.9,0.4-1.9,0.7-2.8,0.9c-0.3-0.3-0.8-0.8-1.1-1c2.5-0.6,5.2-1.5,6.8-2.7H731v-2.4h-4.5
		v1.8h-1.3v-2.7h5.8v-0.7h-4.9v-1.1h11.1v1.1h-4.9v0.7h5.9v2.7h-1.3v-1.8h-4.5v2.4h-0.4L732.9,322.1z M726.4,321.6
		c0.9-0.2,2.1-0.4,3.4-0.7c-0.7-0.3-1.9-0.6-2.8-0.8l0.4-0.7c0.9,0.2,2.2,0.5,2.9,0.7l-0.4,0.8l0.4-0.1l0.1,0.8
		c-1.3,0.4-2.6,0.7-3.6,1L726.4,321.6z M735.4,325.5l0.9,0.6c-0.7,0.9-1.9,1.8-3,2.5c0.5,0.2,0.9,0.4,1.2,0.6l-0.6,1
		c-1.2-0.6-3.5-1.6-5.3-2.2l0.6-0.9c0.8,0.3,1.7,0.6,2.6,1c0.7-0.4,1.5-0.9,2.2-1.4h-7.5v-1.1h8.6L735.4,325.5z M734,324.1
		c-0.9-0.4-1.7-0.8-2.3-1.1c-0.7,0.4-1.5,0.8-2.3,1.1H734z M733.2,320.7l0.2,0l-0.4-0.6c0.9-0.2,2.1-0.6,2.9-0.8l0.6,0.8
		c-0.8,0.3-1.9,0.5-2.7,0.7c1.1,0.3,2.4,0.6,3.2,0.9l-0.4,0.9c-0.8-0.3-2.5-0.8-3.7-1.1L733.2,320.7z"/>
</g>
<g>
	<path d="M290.5,490.2v1.1h-13.7v-1.1h6v-1.1h-4.9V488h4.9v-0.9h-4.4v-4.8h4.4v-0.8h-6v-1.1h6v-0.9c-1.5,0.1-3.1,0.1-4.5,0.2
		c0-0.3-0.2-0.8-0.3-1.1c3.5-0.1,7.7-0.4,10.2-0.8l0.7,1.1c-1.3,0.2-3,0.4-4.7,0.5v1h6.1v1.1h-6.1v0.8h4.7v4.8h-4.7v0.9h5.2v1.1
		h-5.2v1.1H290.5z M279.8,484.3h3v-0.9h-3V484.3z M282.8,486.1v-0.9h-3v0.9H282.8z M284.2,483.4v0.9h3.2v-0.9H284.2z M287.5,485.2
		h-3.2v0.9h3.2V485.2z"/>
</g>
<g>
	<path d="M344.6,491.1h-5v0.7h-1.3v-8.4c-0.2,0.2-0.3,0.5-0.5,0.7c-0.1-0.2-0.4-0.4-0.6-0.6v1.3h-2.3v0.8h2.4v1h-2.4
		c0,0.2,0,0.5,0,0.8h2.9v1.1h-3.1l0,0.1c0.9,0.6,2.1,1.4,2.6,1.9l-0.8,0.9c-0.5-0.5-1.5-1.2-2.4-1.8c-0.5,0.8-1.3,1.5-2.6,2.2
		c-0.2-0.3-0.6-0.7-0.9-0.9c1.4-0.6,2.2-1.5,2.6-2.3h-2.5v-1.1h2.8c0-0.3,0.1-0.5,0.1-0.8h-2.3v-1h2.3v-0.8h-2.4v-3h2.4v-0.6H332
		v-1.5h-1.3v-1.1h1.3v-0.9h1.3v0.9h1.8v-0.9h1.3v0.9h1.1v1.1h-1.1v1.5h-1.7v0.6h2.4v0.8c0.9-1.3,1.7-3.1,2.1-4.8l1.3,0.3
		c-0.3,0.9-0.6,1.7-0.9,2.6h4.8v1.3h-1.9v1.8h1.8v1.2h-1.8v1.8h1.8v1.2h-1.8v1.8h2V491.1z M332.2,483.9h1.3v-1.1h-1.3V483.9z
		 M333.2,480.4h1.8v-0.6h-1.8V480.4z M336,482.8h-1.3v1.1h1.3V482.8z M341.3,481.9h-1.8v1.8h1.8V481.9z M341.3,484.9h-1.8v1.8h1.8
		V484.9z M339.5,489.8h1.8v-1.8h-1.8V489.8z M341.8,480.5c-0.1-0.6-0.6-1.5-0.9-2.1l1.2-0.4c0.4,0.6,0.8,1.5,1,2.1L341.8,480.5z"/>
</g>
<g>
	<path d="M392.3,483.6v1.9h5.1v1.3h-5.1v3.4h5.9v1.3h-13.1v-1.3h5.8v-3.4h-5.1v-1.3h5.1v-1.9h-3.2v-0.8c-0.7,0.4-1.5,0.7-2.2,1
		c-0.2-0.4-0.6-1-0.9-1.3c2.8-0.9,5.6-2.6,7.1-4.8l1.3,0.6c-0.1,0.2-0.3,0.4-0.4,0.6c1.5,1.5,4.1,3,6.4,3.6c-0.3,0.3-0.8,0.9-1,1.2
		c-0.8-0.3-1.5-0.6-2.3-1.1v0.9H392.3z M388.1,486.9c0.6,0.8,1.2,1.9,1.4,2.6l-1.2,0.5c-0.2-0.7-0.8-1.9-1.4-2.7L388.1,486.9z
		 M394.9,482.3c-1.2-0.7-2.3-1.6-3.2-2.5c-0.9,1-1.9,1.8-3.1,2.5H394.9z M393.5,489.6c0.5-0.7,1.2-1.9,1.5-2.7l1.4,0.5
		c-0.6,1-1.3,2-1.8,2.7L393.5,489.6z"/>
</g>
<g>
	<path class="st1" d="M449.8,482.8c-0.6,2.1-1.3,3.7-2.5,5.1c1.9,0.9,3.6,1.8,4.8,2.6l-1.1,1.3c-1.2-0.8-2.9-1.8-4.9-2.8
		c-1.6,1.3-3.7,2.2-6.5,2.7c-0.2-0.4-0.5-1-0.9-1.4c2.5-0.4,4.3-1.1,5.8-2.1c-1.3-0.6-2.6-1.2-4-1.7c0.6-1,1.2-2.3,1.8-3.7h-3.4
		v-1.5h4.1c0.5-1.2,0.9-2.5,1.2-3.6l1.5,0.2c-0.3,1.1-0.7,2.3-1.1,3.4h4c0.1-0.5,0.2-1,0.3-1.5l1.5,0.4c-0.1,0.4-0.1,0.7-0.2,1.1
		h2.2v1.5H449.8z M444,482.8c-0.4,1.1-0.9,2.1-1.3,3c1,0.4,2.1,0.9,3.1,1.3c1.1-1.1,1.8-2.5,2.4-4.4H444z"/>
</g>
<g>
	<path d="M504.6,489.9c0,0.9-0.2,1.4-0.9,1.6c-0.6,0.3-1.7,0.3-3.3,0.3c-0.1-0.4-0.4-1.1-0.6-1.5c1.2,0.1,2.4,0,2.8,0
		c0.3,0,0.5-0.1,0.5-0.4v-2.7h-6.9c-0.4,1.7-1.2,3.4-2.6,4.7c-0.2-0.3-0.8-0.8-1.1-1c2.4-2.1,2.6-5.1,2.6-7.5v-4.8h9.5V489.9z
		 M503.1,485.8v-2.3h-6.6c0,0.7,0,1.5-0.1,2.3H503.1z M496.5,479.9v2.3h6.6v-2.3H496.5z"/>
</g>
<g>
	<path d="M559.6,485.6c0,0,0,0.5-0.1,0.7c-0.4,2.9-0.8,4.3-1.5,4.9c-0.5,0.4-0.9,0.5-1.7,0.6c-0.6,0-1.7,0-2.9,0
		c0-0.4-0.3-1.1-0.6-1.5c1.2,0.1,2.6,0.1,3.1,0.1c0.4,0,0.6,0,0.9-0.2c0.4-0.3,0.8-1.3,1-3.2h-10c0.3-1.3,0.7-3.2,0.8-4.8h8.6v-2
		h-9.3v-1.4h10.7v4.8h-8.7c-0.1,0.7-0.2,1.4-0.4,2.1H559.6z"/>
</g>
<g>
	<path d="M614.6,483.9v1.6h-13.9v-1.6H614.6z"/>
</g>
<g>
	<path d="M658.9,475.6l-1,0.3l-3.2-7.2l3.2-7.2l1,0.3l-3.1,6.8L658.9,475.6z M661.4,475.6l-1,0.3l-3.2-7.2l3.2-7.2l1,0.3l-3.1,6.8
		L661.4,475.6z"/>
</g>
<g>
	<path d="M713.5,489.3c0,1.3-1.1,2.4-2.4,2.4c-1.3,0-2.4-1.1-2.4-2.4c0-1.3,1.1-2.4,2.4-2.4C712.4,486.9,713.5,487.9,713.5,489.3z
		 M712.6,489.3c0-0.8-0.7-1.5-1.5-1.5c-0.8,0-1.5,0.7-1.5,1.5c0,0.8,0.7,1.5,1.5,1.5C711.9,490.7,712.6,490.1,712.6,489.3z"/>
</g>
<g>
	<path d="M708,475.2l3.1-6.8l-3.1-6.8l1-0.3l3.2,7.2l-3.2,7.2L708,475.2z M710.5,475.2l3.1-6.8l-3.1-6.8l1-0.3l3.2,7.2l-3.2,7.2
		L710.5,475.2z"/>
</g>
<g>
	<path d="M183.7,382.2c-1.2,0.3-2.4,0.7-3.4,0.9l-0.2-0.8c0.2,0,0.3-0.1,0.5-0.1V379h0.6v3l0.5-0.1v-3.6h-1.2v-3h2.8v3h-0.9v1.1h1
		v0.8h-1v1.5l1.1-0.3L183.7,382.2z M181.3,377.5h1.3V376h-1.3V377.5z M184.9,374.8h0.8v4.1c0,1.7-0.2,3.8-1.9,4.8
		c-0.1-0.2-0.4-0.5-0.6-0.7c1.1-0.6,1.5-1.6,1.6-2.7c-0.4,0.3-0.8,0.6-1.2,0.9l-0.5-0.8c0.4-0.2,1.1-0.6,1.7-1c0-0.2,0-0.4,0-0.6
		v-0.7l-0.7,0.3c-0.1-0.6-0.4-1.4-0.8-2.1l0.7-0.3c0.3,0.5,0.6,1.1,0.8,1.6V374.8z M188.1,382.7c0.2,0,0.2-0.3,0.2-1.1
		c0.2,0.2,0.5,0.3,0.7,0.3c-0.1,1.1-0.3,1.5-0.9,1.5h-0.8c-0.7,0-0.9-0.3-0.9-1.3v-7.5h0.8v3.1c0.3-0.6,0.7-1.4,0.9-1.9l0.8,0.4
		c-0.4,0.7-0.8,1.5-1.2,2.1l-0.5-0.3v1l0.2-0.2c0.6,0.4,1.3,1.1,1.7,1.5l-0.6,0.6c-0.3-0.3-0.8-0.8-1.3-1.2v2.3c0,0.4,0,0.5,0.2,0.5
		H188.1z"/>
	<path d="M198.2,376c-0.4,0.9-1,1.7-1.7,2.3c0.7,0.4,1.4,0.7,2.3,0.9c-0.1,0.2-0.3,0.6-0.3,0.8c-1-0.3-1.9-0.7-2.6-1.2
		c-0.8,0.6-1.8,1-2.8,1.3c-0.1-0.2-0.2-0.4-0.3-0.6l-0.1,0.1c-0.1-0.3-0.4-0.7-0.6-1.1v5h-0.8v-4.4c-0.3,1-0.7,1.9-1,2.5
		c-0.1-0.3-0.3-0.7-0.4-0.9c0.6-0.8,1.1-2.2,1.4-3.4h-1.1v-0.8h1.3v-1.8h0.8v1.8h1v0.6c0.7-0.6,1.3-1.5,1.6-2.5l0.8,0.2
		c-0.1,0.3-0.2,0.5-0.3,0.8h2.5l0.1,0L198.2,376z M193,379.3c0.8-0.2,1.5-0.5,2.1-0.9c-0.4-0.3-0.7-0.7-1-1.1
		c-0.2,0.3-0.5,0.5-0.7,0.8c-0.1-0.2-0.3-0.5-0.5-0.7v0.1h-1v0.1c0.2,0.2,1,1.2,1.2,1.5L193,379.3z M193.5,380h4.4v3.5H197v-0.5
		h-2.6v0.5h-0.8V380z M194.4,380.8v1.5h2.6v-1.5H194.4z M194.6,376.5L194.6,376.5c0.3,0.5,0.7,1,1.1,1.4c0.5-0.4,0.9-0.8,1.2-1.4
		H194.6z"/>
</g>
<g>
	<path class="st0" d="M866.6,429.1v8.5h-1v-0.5h-6.2v0.5h-0.9v-8.5H866.6z M865.6,436.3v-6.2h-6.2v6.2H865.6z M864.4,431.4v3.5h-3.8
		v-3.5H864.4z M863.5,432.2h-2.1v2h2.1V432.2z"/>
	<path class="st0" d="M876.6,436.3h-3.9v1.4h-0.9v-1.4h-3.8v-0.8h3.8v-0.7h-2.8V431h2.8v-0.6h-3.5v-0.8h3.5v-0.8h0.9v0.8h3.6v0.8
		h-3.6v0.6h2.9v3.8h-2.9v0.7h3.9V436.3z M869.8,432.6h2v-0.8h-2V432.6z M871.7,434.1v-0.8h-2v0.8H871.7z M872.6,431.8v0.8h2v-0.8
		H872.6z M874.6,433.3h-2v0.8h2V433.3z"/>
</g>
<g>
	<path class="st0" d="M189.3,490.3v0.9h-8.6v-0.9h3.5v-7.3h1v2.9h3.5v0.9h-3.5v3.6H189.3z"/>
	<path class="st0" d="M192.3,486.3c0.3,0.4,0.9,1.4,1.1,1.7l-0.5,0.6c-0.1-0.3-0.4-0.8-0.6-1.3v4.3h-0.8v-4c-0.3,0.9-0.6,1.7-1,2.3
		c-0.1-0.2-0.3-0.6-0.4-0.8c0.5-0.8,1.1-2.2,1.4-3.4h-1.1v-0.8h1.2v-2h0.8v2h0.9v0.8h-0.9V486.3z M198.9,484.3v1.6h-0.8v1.7h-3.9v-2
		h3.8V485h-3.9v0.9h-0.8v-1.6h0.9c-0.1-0.3-0.3-0.8-0.5-1.2l0.7-0.2c0.3,0.4,0.5,0.9,0.6,1.2l-0.6,0.2h1.2v-1.5h0.8v1.5h1.1
		l-0.5-0.2c0.2-0.3,0.5-0.9,0.6-1.3l0.8,0.3c-0.2,0.4-0.5,0.9-0.7,1.2H198.9z M193.6,488h5.1v3.6h-0.9v-0.3h-3.4v0.3h-0.8V488z
		 M194.4,488.7v0.7h1.3v-0.7H194.4z M195.7,490.6V490h-1.3v0.6H195.7z M197.2,486.2H195v0.7h2.2V486.2z M197.8,488.7h-1.3v0.7h1.3
		V488.7z M197.8,490.6V490h-1.3v0.6H197.8z"/>
</g>
<g>
	<path class="st0" d="M182.1,542.2v2.3c0,0.4-0.1,0.7-0.3,0.8c-0.3,0.1-0.6,0.2-1.3,0.2c0-0.2-0.1-0.6-0.2-0.8c0.4,0,0.7,0,0.8,0
		c0.1,0,0.2,0,0.2-0.2v-2.1l-1,0.3l-0.2-0.9c0.3-0.1,0.8-0.2,1.2-0.3v-2.2h-1.1v-0.8h1.1v-1.9h0.8v1.9h0.9v0.8h-0.9v1.9l1-0.3
		l0.1,0.8L182.1,542.2z M189,544.4v0.8h-6.1v-0.8h2.6v-1.8h-2v-0.8h5v0.8h-2.1v1.8H189z M184,539.5h-0.8v-1.7h2.4
		c-0.1-0.3-0.3-0.6-0.4-0.9l0.8-0.3c0.2,0.4,0.4,0.8,0.5,1.1h2.4v1.7h-0.8v-0.9h-0.9v1.5c0,0.2,0,0.3,0.2,0.3h0.9c0.2,0,0.4,0,0.6,0
		c0,0.2,0,0.5,0.1,0.7c-0.1,0.1-0.4,0.1-0.6,0.1h-0.9c-0.8,0-1-0.3-1-1.1v-1.5h-0.7c-0.1,1.5-0.4,2.3-2.1,2.8
		c-0.1-0.2-0.3-0.5-0.4-0.6c1.4-0.3,1.6-0.9,1.7-2.1h-1V539.5z"/>
	<path class="st0" d="M193,539.7h2.2v0.8H193v0.9h1.9v2.5c0,0.4-0.1,0.6-0.3,0.7c-0.3,0.1-0.6,0.1-1.1,0.1c0-0.2-0.1-0.5-0.2-0.8
		c0.3,0,0.6,0,0.7,0c0.1,0,0.1,0,0.1-0.1v-1.7H193v3.3h-0.8v-3.3h-1.1v2.6h-0.8v-3.4h1.9v-0.9h-2.3v-0.8h0.7
		c-0.2-0.1-0.5-0.2-0.8-0.3c0.4-0.6,0.7-1.6,0.9-2.5l0.8,0.2c-0.1,0.3-0.2,0.6-0.3,1h0.8v-1.3h0.8v1.3h1.8v0.8H193V539.7z
		 M192.1,539.7v-0.9H191c-0.1,0.3-0.3,0.6-0.4,0.9H192.1z M196.6,542.8h-0.8v-5.3h0.8V542.8z M198.3,536.8v7.6
		c0,0.5-0.1,0.8-0.4,0.9c-0.3,0.2-0.8,0.2-1.6,0.2c0-0.2-0.2-0.7-0.3-0.9c0.5,0,1.1,0,1.2,0c0.2,0,0.2,0,0.2-0.2v-7.6H198.3z"/>
</g>
<g>
	<path class="st0" d="M236.9,544.1c0.6,0.2,1.3,0.3,2.1,0.3c0.6,0,3.4,0,4.1,0c-0.1,0.2-0.3,0.6-0.4,0.9H239c-1.9,0-3.1-0.3-3.8-1.5
		c-0.1,0.7-0.3,1.3-0.5,1.7c-0.1-0.1-0.5-0.3-0.7-0.4c0.5-1,0.6-2.5,0.6-4.1l0.8,0.1c0,0.5,0,0.9,0,1.3c0.2,0.5,0.4,1,0.7,1.3v-3.2
		h-1.8v-0.8h1.7v-1.1h-1.5v-0.8h1.5v-1.1h0.8v1.1h1.4v0.8h-1.4v1.1h1.6v0.3c0.8-0.5,1.2-1.1,1.3-2.1h-1.2v-0.8h4.2c0,0,0,0.2,0,0.3
		c-0.1,1.7-0.2,2.4-0.4,2.6c-0.2,0.2-0.3,0.3-0.6,0.3c-0.2,0-0.6,0-1,0c0-0.2-0.1-0.5-0.2-0.8c0.4,0,0.7,0,0.8,0
		c0.1,0,0.2,0,0.3-0.1c0.1-0.1,0.2-0.6,0.2-1.6h-1.3c-0.2,1.3-0.8,2.2-1.7,2.8c-0.1-0.1-0.3-0.3-0.4-0.4v0.2h-1.5v1.2h1.4v0.8h-1.4
		V544.1z M238.8,540.7h3.7v3h-3.7V540.7z M239.6,543h2v-1.5h-2V543z"/>
	<path class="st0" d="M247,542.5c0-0.2-0.1-0.3-0.1-0.5c-2.1,0.4-2.5,0.4-2.7,0.5c0-0.2-0.2-0.6-0.3-0.8c0.2,0,0.5-0.3,0.8-0.6
		c0.1-0.2,0.4-0.5,0.7-0.9c-0.9,0.1-1.1,0.2-1.3,0.2c0-0.2-0.2-0.6-0.3-0.8c0.2,0,0.3-0.2,0.5-0.5c0.2-0.3,0.8-1.3,1.2-2.4l0.8,0.3
		c-0.4,0.8-0.9,1.7-1.4,2.4l0.9-0.1c0.3-0.4,0.5-0.8,0.7-1.3l0.8,0.5c-0.6,1.1-1.3,2.1-2.1,3l1.4-0.2c-0.1-0.3-0.2-0.5-0.3-0.8
		l0.6-0.2c0.3,0.6,0.6,1.4,0.7,1.9L247,542.5z M245,543c-0.1,0.8-0.3,1.7-0.5,2.3c-0.2-0.1-0.5-0.2-0.7-0.3c0.2-0.6,0.3-1.4,0.4-2.2
		L245,543z M246,542.8c0.1,0.6,0.2,1.4,0.3,1.9l-0.7,0.2c0-0.5-0.1-1.3-0.2-1.9L246,542.8z M252.4,540c-0.2,1.4-0.7,2.6-1.3,3.5
		c0.4,0.5,1,0.9,1.6,1.2c-0.2,0.2-0.5,0.5-0.6,0.8c-0.6-0.3-1.1-0.7-1.5-1.2c-0.5,0.5-1,1-1.6,1.3c-0.1-0.2-0.4-0.5-0.6-0.7
		c0.6-0.3,1.1-0.8,1.6-1.4c-0.4-0.7-0.7-1.4-0.9-2.2c-0.2,1.7-0.5,3.1-1.3,4.2c-0.1-0.1-0.6-0.4-0.8-0.6c0.2-0.2,0.3-0.5,0.5-0.8
		l-0.6,0.2c-0.1-0.4-0.3-1.1-0.4-1.6l0.6-0.2c0.2,0.5,0.4,1.1,0.5,1.5c0.7-1.5,0.9-3.6,0.9-6.2h-0.9v-0.8h3.3l0.1,0l0.6,0.1
		c-0.1,0.8-0.3,1.8-0.4,2.7h0.5l0.2,0L252.4,540z M249.3,537.9c0,0.7,0,1.3-0.1,1.9h1.1c0.1-0.6,0.2-1.3,0.3-1.9H249.3z
		 M249.7,540.6c0.2,0.8,0.5,1.5,0.9,2.1c0.4-0.6,0.7-1.3,0.9-2.1H249.7z"/>
</g>
<g>
	<path class="st0" d="M291.9,542c0,0.3,0.1,0.6,0.1,0.8c-2.3,1-2.6,1.2-2.8,1.4c-0.1-0.2-0.3-0.6-0.4-0.8c0.2-0.1,0.5-0.3,0.5-0.7
		v-2.4l-1.1,0.2l-0.1-0.8l1.2-0.2v-2.3h0.9v2.2l1.7-0.3l0.1,0.8l-1.9,0.4v2.7L291.9,542z M296.8,537.5c0,0,0,0.3,0,0.5
		c-0.1,4.8-0.2,6.5-0.6,7c-0.2,0.3-0.5,0.4-0.8,0.5c-0.3,0-0.8,0-1.4,0c0-0.3-0.1-0.6-0.3-0.9c0.5,0,1,0,1.2,0c0.2,0,0.3,0,0.4-0.2
		c0.3-0.3,0.4-1.9,0.5-6h-1.7c-0.1,3-0.3,5.7-2.7,7.2c-0.1-0.2-0.4-0.5-0.6-0.7c2.3-1.3,2.4-3.8,2.5-6.5h-1.4v-0.8H296.8z"/>
	<path class="st0" d="M303.8,543.3c-0.4,1.1-1.2,1.8-3.1,2.2c-0.1-0.2-0.3-0.5-0.4-0.7c1.5-0.3,2.2-0.8,2.6-1.5h-2.3v-0.7h0.8v-2.8
		c-0.1,0-0.1,0.1-0.2,0.2c-0.1-0.2-0.3-0.5-0.5-0.6v0.1h-0.9v1.6l0.8-0.3l0.1,0.8l-1,0.3v2.6c0,0.5-0.1,0.7-0.3,0.9
		c-0.3,0.1-0.6,0.2-1.2,0.2c0-0.2-0.1-0.6-0.2-0.9c0.4,0,0.7,0,0.8,0c0.1,0,0.2,0,0.2-0.2v-2.3c-0.3,0.1-0.7,0.2-1,0.3l-0.2-0.9
		c0.3-0.1,0.7-0.2,1.2-0.3v-1.9h-1.1v-0.8h1.1v-1.9h0.9v1.9h0.9v0.7c0.9-0.8,1.5-1.8,1.8-2.6l0.8,0.1c-0.1,0.2-0.2,0.4-0.3,0.6h1.4
		l0.1,0l0.5,0.3c-0.2,0.4-0.5,0.9-0.7,1.3h1.7v3.6h0.6v0.7H303.8z M302.7,538.1c-0.2,0.3-0.4,0.6-0.6,0.8h1.4
		c0.2-0.3,0.4-0.5,0.5-0.8H302.7z M303.1,542.6c0.1-0.3,0.1-0.6,0.1-0.9h0.9c0,0.3-0.1,0.6-0.1,0.9h1.3v-1.3l-0.4,0.4
		c-0.3-0.3-0.8-0.7-1.3-1c-0.3,0.4-0.6,0.7-1,1c-0.1-0.1-0.4-0.3-0.6-0.4c0.6-0.4,1.1-1,1.4-1.6h-1.4v2.9H303.1z M305.3,539.7H304
		l0.2,0.1c-0.1,0.2-0.2,0.3-0.3,0.5c0.5,0.3,1,0.6,1.3,0.9V539.7z M304.5,543.3c0.7,0.5,1.7,1.3,2.2,1.7l-0.6,0.6
		c-0.5-0.5-1.4-1.2-2.2-1.8L304.5,543.3z"/>
</g>
<g>
	<path class="st0" d="M860.4,325.2c-0.2,0.9-0.5,1.9-0.9,2.6c0.2,0.1,0.3,0.2,0.6,0.4c0.7,0.4,1.5,0.5,2.7,0.5
		c1.2,0,2.8-0.1,3.9-0.2c-0.1,0.3-0.3,0.7-0.3,0.9c-0.7,0-2.5,0.1-3.6,0.1c-1.3,0-2.1-0.1-2.8-0.5c-0.4-0.2-0.7-0.6-0.9-0.6
		c-0.2,0-0.5,0.6-0.8,1.2l-0.6-0.8c0.4-0.5,0.8-0.9,1.1-1.1c0.3-0.5,0.5-1.2,0.7-1.8h-1.3c0.2-0.6,0.5-1.3,0.8-2.1h-1.2V323h2.2
		c-0.2,0.7-0.5,1.4-0.8,2.1h0.7l0.1,0L860.4,325.2z M858.8,322.6c-0.1-0.4-0.4-1.1-0.5-1.6l0.8-0.2c0.2,0.5,0.4,1.1,0.5,1.5
		L858.8,322.6z M863.6,326.6c0,0.2,0,0.6,0,0.8c-2.1,0.5-2.4,0.6-2.6,0.7c-0.1-0.2-0.2-0.5-0.3-0.7c0.2-0.1,0.3-0.3,0.3-0.6v-5.7
		h0.6v0h4v3.6l0,0l0.7,0.5c-0.5,0.3-1,0.7-1.5,1c0.5,0.5,1,0.9,1.3,1.3l-0.7,0.5c-0.6-0.7-1.8-1.8-2.8-2.6l0.6-0.5
		c0.3,0.2,0.6,0.5,1,0.7c0.4-0.3,0.9-0.6,1.3-0.9h-3.6v2.3L863.6,326.6z M864.7,321.8h-2.8v0.7h2.8V321.8z M864.7,324v-0.7h-2.8v0.7
		H864.7z"/>
	<path class="st0" d="M875.7,321.9c-0.4,0.9-1,1.7-1.7,2.3c0.7,0.4,1.4,0.7,2.3,0.9c-0.1,0.2-0.3,0.6-0.3,0.8
		c-1-0.3-1.9-0.7-2.6-1.2c-0.8,0.6-1.8,1-2.8,1.3c-0.1-0.2-0.2-0.4-0.3-0.6l-0.1,0.1c-0.1-0.3-0.4-0.7-0.6-1.1v5h-0.8v-4.4
		c-0.3,1-0.7,1.9-1,2.5c-0.1-0.3-0.3-0.7-0.4-0.9c0.6-0.8,1.1-2.2,1.4-3.4h-1.1v-0.8h1.3v-1.8h0.8v1.8h1v0.6
		c0.7-0.6,1.3-1.5,1.6-2.5l0.8,0.2c-0.1,0.3-0.2,0.5-0.3,0.8h2.5l0.1,0L875.7,321.9z M870.5,325.1c0.8-0.2,1.5-0.5,2.1-0.9
		c-0.4-0.3-0.7-0.7-1-1.1c-0.2,0.3-0.5,0.5-0.7,0.8c-0.1-0.2-0.3-0.5-0.5-0.7v0.1h-1v0.1c0.2,0.2,1,1.2,1.2,1.5L870.5,325.1z
		 M871,325.9h4.4v3.5h-0.9V329h-2.6v0.5H871V325.9z M871.9,326.7v1.5h2.6v-1.5H871.9z M872.1,322.4L872.1,322.4
		c0.3,0.5,0.7,1,1.1,1.4c0.5-0.4,0.9-0.8,1.2-1.4H872.1z"/>
</g>
<g>
	<path class="st0" d="M347.3,542.9c0.8,0.7,2.1,1.3,3.3,1.6c-0.2,0.2-0.5,0.5-0.6,0.8c-1.2-0.4-2.5-1.1-3.4-2.1v2.3h-0.9v-2.2
		c-0.9,0.9-2.2,1.7-3.4,2.1c-0.1-0.2-0.4-0.6-0.6-0.8c1.2-0.3,2.4-1,3.3-1.7h-3v-0.8h3.7v-0.7h0.2c-0.1-0.4-0.3-0.9-0.5-1.3l0.8-0.3
		c0.3,0.4,0.5,1,0.6,1.4l-0.7,0.2h0.7v0.7h3.8v0.8H347.3z M343.8,538.1h-1.9v-0.8h1.9v-0.6h0.9v0.6h1.2v0.8h-1.2v0.6h-0.9V538.1z
		 M349.7,539.3c-1.9,0.4-4.9,0.6-7.4,0.7c0-0.2-0.1-0.6-0.2-0.8c2.4-0.1,5.3-0.3,6.9-0.6L349.7,539.3z M343.4,541.8
		c-0.1-0.4-0.5-1-0.8-1.4l0.8-0.3c0.3,0.4,0.7,1,0.8,1.4L343.4,541.8z M347.6,538.1h-1.3v-0.8h1.3v-0.6h0.9v0.6h1.9v0.8h-1.9v0.6
		h-0.9V538.1z M349.8,540c-0.4,0.6-0.9,1.3-1.2,1.8l-0.7-0.3c0.4-0.5,0.8-1.3,1-1.8L349.8,540z"/>
	<path class="st0" d="M360,544.2h-3.8v1.3h-0.9v-1.3h-3.7v-0.8h3.7v-0.6h-2.8v-3.5h6.7v3.5h-3v0.6h3.8V544.2z M355.4,538.9h-3.3V537
		h3.3V538.9z M354.6,537.6h-1.6v0.7h1.6V537.6z M353.3,540.7h1.9v-0.7h-1.9V540.7z M355.2,542.1v-0.7h-1.9v0.7H355.2z M359.4,538.9
		h-3.3V537h3.3V538.9z M358.2,540.1h-2.1v0.7h2.1V540.1z M358.2,541.4h-2.1v0.7h2.1V541.4z M358.5,537.6h-1.6v0.7h1.6V537.6z"/>
</g>
<g>
	<path class="st0" d="M1022.8,325.4c-0.3,0.1-0.6,0.2-0.9,0.3v2.5c0,0.4-0.1,0.7-0.3,0.8c-0.3,0.1-0.6,0.2-1.2,0.2
		c0-0.2-0.1-0.6-0.2-0.8c0.4,0,0.7,0,0.8,0c0.1,0,0.2,0,0.2-0.2V326l-1,0.3l-0.2-0.9c0.3-0.1,0.7-0.2,1.2-0.3v-2h-1v-0.8h1v-1.9h0.8
		v1.9h0.8v0.8h-0.8v1.7l0.8-0.2L1022.8,325.4z M1027.8,328.1v-1.3h-1.1V326h1.1v-1.1h-1.1v-0.8h1.9v5.1h-0.8v-0.5h-3.6v0.5h-0.9
		v-4.9c0.5-0.1,1.1-0.4,1.5-0.6l0.7,0.6c-0.4,0.2-0.8,0.3-1.3,0.5v1.2h1v0.7h-1v1.3h1.4v-4.8h-2.5v-0.8h2.5v-0.9h-2v-0.8h4.9v0.8h-2
		v0.9h2.4v0.8h-2.4v4.8H1027.8z"/>
	<path class="st0" d="M1034.6,321c0,1.7,0.2,5.3,3.9,7.5c-0.2,0.2-0.6,0.5-0.7,0.8c-2.2-1.3-3.2-3.3-3.7-5.1c-0.7,2.3-1.9,4-3.7,5.1
		c-0.2-0.2-0.6-0.6-0.8-0.7c2.1-1.1,3.2-3,3.8-5.6l0.5,0.1c-0.1-0.4-0.1-0.8-0.1-1.1h-2.3V321H1034.6z"/>
</g>
<g>
	<path d="M1077.3,322.8c-0.3,0.5-0.7,1-1.1,1.5v5h-0.9v-4c-0.3,0.3-0.6,0.6-1,0.9c-0.1-0.2-0.4-0.6-0.6-0.8c1-0.7,2-1.8,2.7-2.9
		L1077.3,322.8z M1077,320.8c-0.7,0.9-1.7,1.8-2.5,2.4c-0.1-0.2-0.3-0.5-0.5-0.7c0.8-0.5,1.7-1.4,2.2-2.1L1077,320.8z M1082.8,324.5
		h-1.4v3.7c0,0.5-0.1,0.8-0.5,0.9c-0.4,0.1-0.9,0.1-1.8,0.1c0-0.3-0.2-0.6-0.3-0.9c0.6,0,1.3,0,1.4,0c0.2,0,0.2,0,0.2-0.2v-3.7h-3
		v-0.9h5.4V324.5z M1082.5,321.9h-4.7V321h4.7V321.9z"/>
	<path d="M1088.6,322.6c-0.1,0.3-0.2,0.5-0.3,0.8h3v6h-0.9v-0.5h-4.7v0.5h-0.9v-6h2.5c0.1-0.2,0.1-0.5,0.2-0.8h-3.8v-0.8h2.4
		c-0.2-0.3-0.5-0.7-0.8-1l0.8-0.3c0.3,0.3,0.7,0.8,0.9,1.1l-0.4,0.2h2.4c0.3-0.4,0.6-0.9,0.8-1.3l1,0.2c-0.3,0.4-0.5,0.8-0.8,1.1
		h2.3v0.8H1088.6z M1090.3,324.1h-4.7v0.8h4.7V324.1z M1090.3,325.6h-4.7v0.8h4.7V325.6z M1090.3,328v-0.9h-4.7v0.9H1090.3z"/>
</g>
<g>
	<path class="st0" d="M1138.7,327.5v0.9h-8.6v-0.9h3.5v-7.3h1v2.9h3.5v0.9h-3.5v3.6H1138.7z"/>
	<path class="st0" d="M1143.4,327.6c-0.8,0.5-2.1,1-3.2,1.3c-0.1-0.2-0.4-0.5-0.6-0.7c1-0.3,2.3-0.8,3-1.2L1143.4,327.6z
		 M1143.3,322c0.1-0.2,0.1-0.5,0.2-0.7h-3.5v-0.8h8v0.8h-3.5c-0.1,0.3-0.2,0.5-0.2,0.7h3v4.9h-6.4V322H1143.3z M1146.3,322.7h-4.5
		v0.7h4.5V322.7z M1146.3,324.1h-4.5v0.7h4.5V324.1z M1146.3,325.5h-4.5v0.7h4.5V325.5z M1145.3,327c1.1,0.4,2.3,0.9,3.1,1.2
		l-0.9,0.6c-0.7-0.4-1.8-0.9-2.9-1.3L1145.3,327z"/>
</g>
<g>
	<path class="st0" d="M1025.1,378.3h0.5v0.8h-0.5v3.3c0,0.3,0,0.6-0.3,0.7c-0.2,0.1-0.5,0.2-0.9,0.2c0-0.2-0.2-0.6-0.3-0.8h0.5
		c0.1,0,0.1,0,0.1-0.1v-3.3h-0.6v3.9h-0.6v-3.9h-0.6v4h-0.6v-4h-0.6v4.2h-0.8v-4.2h-0.6v-0.8h0.6v-3.4h4.6V378.3z M1021.9,378.3
		v-2.6h-0.6v2.6H1021.9z M1023.1,378.3v-2.6h-0.6v2.6H1023.1z M1024.3,378.3v-2.6h-0.6v2.6H1024.3z M1026.7,380.9h-0.8v-5.3h0.8
		V380.9z M1028.4,374.6v7.6c0,0.5-0.1,0.7-0.4,0.9s-0.8,0.2-1.5,0.2c0-0.2-0.2-0.6-0.3-0.9c0.5,0,1,0,1.2,0c0.1,0,0.2,0,0.2-0.2
		v-7.6H1028.4z"/>
	<path class="st0" d="M1032.8,375.1c-0.3,0.8-0.6,1.8-0.9,2.5c0.7,0.8,0.8,1.5,0.8,2c0,0.6-0.1,1-0.4,1.2c-0.1,0.1-0.3,0.2-0.5,0.2
		c-0.2,0-0.4,0-0.7,0c0-0.2-0.1-0.6-0.2-0.8c0.2,0,0.4,0,0.5,0c0.1,0,0.2,0,0.3-0.1c0.1-0.1,0.2-0.3,0.2-0.6c0-0.5-0.1-1.1-0.8-1.9
		c0.2-0.6,0.5-1.4,0.7-2.1h-1v7.6h-0.8v-8.4h2.1l0.1,0L1032.8,375.1z M1034.5,380.6c-0.4,0.8-0.9,1.6-1.4,2.1
		c-0.2-0.1-0.5-0.4-0.7-0.5c0.5-0.5,1-1.2,1.3-1.9L1034.5,380.6z M1036.1,380v2.4c0,0.4-0.1,0.7-0.4,0.8c-0.3,0.1-0.8,0.2-1.4,0.2
		c0-0.2-0.2-0.6-0.3-0.8c0.5,0,0.9,0,1.1,0c0.1,0,0.2,0,0.2-0.2V380h-2.4v-0.8h2.4v-1h-1.6v-0.7c-0.2,0.1-0.4,0.2-0.5,0.3
		c-0.1-0.2-0.4-0.5-0.6-0.7c1.2-0.6,2.4-1.7,3-2.8l0.8,0.3c-0.1,0.1-0.1,0.3-0.2,0.4c0.8,1,1.7,1.6,2.6,2c-0.2,0.2-0.5,0.5-0.6,0.7
		c-0.2-0.1-0.4-0.2-0.5-0.4v0.7h-1.4v1h2.3v0.8H1036.1z M1037.4,377.4c-0.6-0.4-1.2-1-1.8-1.7c-0.5,0.6-1.1,1.2-1.8,1.7H1037.4z
		 M1037.2,380.3c0.5,0.6,1.1,1.4,1.3,1.9l-0.7,0.4c-0.3-0.5-0.8-1.4-1.3-2L1037.2,380.3z"/>
</g>
<g>
	<path d="M1077.3,376.8c-0.3,0.5-0.7,1-1.1,1.5v5h-0.9v-4c-0.3,0.3-0.6,0.6-1,0.9c-0.1-0.2-0.4-0.6-0.6-0.8c1-0.7,2-1.8,2.7-2.9
		L1077.3,376.8z M1077,374.8c-0.7,0.9-1.7,1.8-2.5,2.4c-0.1-0.2-0.3-0.5-0.5-0.7c0.8-0.5,1.7-1.4,2.2-2.1L1077,374.8z M1082.8,378.5
		h-1.4v3.7c0,0.5-0.1,0.8-0.5,0.9c-0.4,0.1-0.9,0.1-1.8,0.1c0-0.3-0.2-0.6-0.3-0.9c0.6,0,1.3,0,1.4,0c0.2,0,0.2,0,0.2-0.2v-3.7h-3
		v-0.9h5.4V378.5z M1082.5,375.9h-4.7V375h4.7V375.9z"/>
	<path d="M1091,382.3c0.4,0,0.5-0.2,0.5-1c0.2,0.1,0.5,0.3,0.8,0.3c-0.1,1.1-0.4,1.4-1.3,1.4h-1.8c-1.1,0-1.4-0.3-1.4-1.2v-0.4
		l-2.3,0.4l-0.1-0.7l2.4-0.4V380l-2,0.3l-0.1-0.7l2.2-0.3v-0.7c-0.6,0.1-1.3,0.2-1.9,0.3c0-0.2-0.1-0.5-0.2-0.6
		c1.5-0.2,3.2-0.5,4.2-0.8h-4.6v0.4c0,1.6-0.1,4-1,5.6c-0.2-0.1-0.6-0.4-0.8-0.5c0.9-1.5,0.9-3.6,0.9-5.1v-2.8h7.3v2.4h-1.6l0.7,0.5
		c-0.6,0.2-1.3,0.4-2.1,0.5v0.7l2.6-0.4l0.1,0.7l-2.7,0.4v0.7l3.3-0.5l0.1,0.7l-3.4,0.5v0.6c0,0.4,0.1,0.4,0.6,0.4H1091z
		 M1085.4,376.5h5.5v-0.9h-5.5V376.5z"/>
</g>
<g>
	<path class="st0" d="M1134.7,375.6v1.6l0.2-0.2c1.1,0.5,2.6,1.4,3.4,2l-0.7,0.8c-0.6-0.5-1.8-1.3-2.9-1.9v4.9h-1v-7.2h-3.6v-0.9
		h8.5v0.9H1134.7z"/>
	<path class="st0" d="M1143.4,381.6c-0.8,0.5-2.1,1-3.2,1.3c-0.1-0.2-0.4-0.5-0.6-0.7c1-0.3,2.3-0.8,3-1.2L1143.4,381.6z
		 M1143.3,376c0.1-0.2,0.1-0.5,0.2-0.7h-3.5v-0.8h8v0.8h-3.5c-0.1,0.3-0.2,0.5-0.2,0.7h3v4.9h-6.4V376H1143.3z M1146.3,376.7h-4.5
		v0.7h4.5V376.7z M1146.3,378.1h-4.5v0.7h4.5V378.1z M1146.3,379.5h-4.5v0.7h4.5V379.5z M1145.3,381c1.1,0.4,2.3,0.9,3.1,1.2
		l-0.9,0.6c-0.7-0.4-1.8-0.9-2.9-1.3L1145.3,381z"/>
</g>
<g>
	<path class="st0" d="M1242.5,274.6c-0.3-0.2-0.7-0.4-1.2-0.6c-0.6,0.3-1.5,0.6-2.7,0.8c-0.1-0.2-0.2-0.4-0.3-0.6
		c1-0.2,1.7-0.3,2.2-0.5c-0.5-0.2-1-0.4-1.4-0.5c0.2-0.2,0.3-0.4,0.5-0.6l-1,0.1l-0.1-0.6c0.4,0,0.9,0,1.5-0.1
		c0.1-0.2,0.3-0.5,0.4-0.7h-1.5v-1.6h1.8v-0.3h-1.5v-1h-0.7v-0.7h0.7v-1h1.5v-0.6h0.7v0.6h1.6v1h0.7v0.7h-0.7v1h-1.6v0.3h1.8v1.6h-2
		c-0.1,0.2-0.2,0.4-0.4,0.7l1.3-0.1v0v-0.4h0.7v0.4l0.4,0l0,0.6l-0.5,0c-0.1,0.4-0.3,0.8-0.8,1.2c0.4,0.2,0.8,0.4,1.1,0.6
		L1242.5,274.6z M1239.6,270.6h1v-0.5h-1V270.6z M1239.9,267.1v0.4h0.8v-0.4H1239.9z M1240.6,268.6v-0.5h-0.8v0.5H1240.6z
		 M1240.4,272.4c-0.1,0.1-0.2,0.2-0.2,0.3c0.4,0.1,0.7,0.3,1.1,0.4c0.4-0.3,0.6-0.6,0.8-0.8L1240.4,272.4z M1241.3,267.1v0.4h0.8
		v-0.4H1241.3z M1242.1,268.6v-0.5h-0.8v0.5H1242.1z M1241.3,270.1v0.5h1v-0.5H1241.3z M1246.5,268.5c-0.2,1.4-0.4,2.6-0.8,3.7
		c0.4,0.8,0.9,1.5,1.6,1.9c-0.2,0.1-0.4,0.4-0.5,0.6c-0.6-0.4-1.1-1-1.5-1.7c-0.4,0.7-1,1.4-1.7,1.9c-0.1-0.2-0.3-0.5-0.5-0.7
		c0.8-0.5,1.4-1.2,1.8-2c-0.3-0.7-0.5-1.4-0.6-2.3c-0.1,0.3-0.3,0.6-0.5,0.9c-0.1-0.1-0.4-0.4-0.6-0.6c0.6-1,1-2.6,1.2-4.2l0.8,0.1
		c-0.1,0.6-0.2,1.1-0.3,1.6h2.3v0.8H1246.5z M1244.7,268.5c0.1,0.9,0.3,1.8,0.6,2.6c0.2-0.8,0.4-1.6,0.5-2.6H1244.7z"/>
	<path class="st0" d="M1256.6,271.9h-3.7v1.8c0,0.5-0.1,0.8-0.5,0.9c-0.4,0.1-0.9,0.2-1.7,0.2c-0.1-0.3-0.2-0.7-0.4-0.9
		c0.6,0,1.3,0,1.5,0c0.2,0,0.2,0,0.2-0.2v-1.8h-3.7V271h3.7v-0.6c0.5-0.2,1-0.6,1.5-1h-3.5v-0.8h4.4l0.2,0l0.6,0.5
		c-0.6,0.6-1.4,1.2-2.2,1.7v0.3h3.7V271.9z M1249.3,268.9h-0.9v-2.1h3.7c-0.1-0.3-0.3-0.5-0.4-0.8l0.9-0.3c0.2,0.3,0.5,0.7,0.6,1
		h3.3v2.1h-0.9v-1.2h-6.3V268.9z"/>
</g>
<g>
	<path class="st1" d="M1241.7,327c-0.7,0.8-1.9,1.5-3,1.9c-0.1-0.2-0.4-0.6-0.6-0.7c1.1-0.3,2.3-0.8,2.9-1.4L1241.7,327z
		 M1239.7,322.9c-0.3-0.2-1-0.5-1.5-0.7l0.4-0.6c0.5,0.2,1.2,0.5,1.5,0.7L1239.7,322.9z M1243,326.4v2.7h-0.9v-2.7h-3.8v-0.8h3.8
		v-0.9h0.9v0.9h3.8v0.8H1243z M1238.4,324.6c0.6-0.5,1.4-1.3,2-2.1l0.5,0.6c-0.6,0.7-1.3,1.5-1.9,2.1L1238.4,324.6z M1240.4,321.7
		c-0.3-0.2-1-0.5-1.5-0.7l0.4-0.6c0.5,0.2,1.2,0.5,1.6,0.7L1240.4,321.7z M1242.3,321.7v-1.4h0.9v1.2l3.3-0.4l0.1,0.8l-3.4,0.4v1
		c0,0.4,0.1,0.5,0.4,0.5h1.9c0.3,0,0.7,0,0.9-0.1c0,0.2,0.1,0.6,0.1,0.8c-0.2,0.1-0.6,0.1-1,0.1h-1.9c-1,0-1.3-0.3-1.3-1.3v-0.9
		l-1.4,0.2l-0.1-0.8L1242.3,321.7z M1244.1,326.7c0.9,0.4,2.2,1.1,2.8,1.5l-0.5,0.7c-0.6-0.4-1.9-1.1-2.8-1.6L1244.1,326.7z"/>
</g>
<g>
	<path d="M1294,325.4v2.7c0,0.4-0.1,0.7-0.3,0.8c-0.3,0.1-0.6,0.2-1.2,0.2c0-0.2-0.1-0.6-0.2-0.8c0.4,0,0.7,0,0.8,0
		c0.1,0,0.2,0,0.2-0.2v-2.5l-1,0.3l-0.2-0.9c0.3-0.1,0.8-0.2,1.2-0.3v-1.8h-1.1v-0.8h1.1v-1.9h0.8v1.9h0.8v0.8h-0.8v1.6
		c0.3-0.1,0.6-0.2,0.8-0.3l0.1,0.8L1294,325.4z M1297.8,324.9c0,0,0,0.2,0,0.3c-0.1,2.4-0.2,3.3-0.4,3.5c-0.2,0.2-0.3,0.3-0.5,0.3
		c-0.2,0-0.5,0-0.8,0c0-0.2-0.1-0.5-0.2-0.7c0.3,0,0.6,0,0.7,0c0.1,0,0.2,0,0.3-0.1c0.1-0.2,0.2-0.8,0.3-2.6h-0.8
		c-0.2,1.4-0.6,2.6-1.5,3.4c-0.1-0.2-0.4-0.5-0.5-0.6c1.2-1,1.4-2.7,1.5-4.6h-0.6v-3.4h2.8v3.4h-1.4c0,0.3,0,0.7-0.1,1H1297.8z
		 M1295.8,323.2h1.2v-1.9h-1.2V323.2z M1299,327h-0.7v-5.8h0.7V327z M1300.6,320.2v7.9c0,0.5-0.1,0.7-0.4,0.8
		c-0.3,0.1-0.7,0.1-1.4,0.1c0-0.2-0.1-0.5-0.2-0.8c0.5,0,0.9,0,1,0c0.1,0,0.2,0,0.2-0.2v-7.9H1300.6z"/>
</g>
<g>
	<path d="M1352.6,432.1c0.6,0.6,1.5,1.1,2.4,1.4c-0.2,0.2-0.5,0.5-0.6,0.7c-0.5-0.2-1.1-0.5-1.6-0.9v0.4h-4.6v-0.3
		c-0.5,0.4-1,0.7-1.5,0.9c-0.1-0.2-0.5-0.5-0.7-0.7c0.9-0.3,1.7-0.8,2.3-1.5h-2v-0.8h2.7c0.2-0.3,0.3-0.5,0.4-0.8
		c-1.4,0.1-1.7,0.1-1.9,0.2c0-0.2-0.2-0.6-0.3-0.8c0.2,0,0.4-0.1,0.7-0.3c0.3-0.2,1.2-0.8,1.9-1.4l0.8,0.5c-0.5,0.4-1.1,0.8-1.7,1.2
		l3.2-0.1c-0.3-0.2-0.7-0.5-1-0.7l0.7-0.5c0.8,0.5,1.9,1.4,2.5,1.9l-0.8,0.5c-0.2-0.2-0.3-0.4-0.6-0.6l-2.6,0.1l0,0
		c-0.1,0.3-0.3,0.6-0.4,0.8h4.9v0.8H1352.6z M1346.6,436h7.8v0.8h-7.8V436z M1353.3,434.4v0.8h-5.6v-0.8H1353.3z M1352.3,432.9
		c-0.3-0.3-0.6-0.5-0.8-0.8h-2.1c-0.2,0.3-0.5,0.6-0.8,0.8H1352.3z"/>
</g>
<g>
	<path d="M1246.8,436.1v0.7h-8.6v-0.7h2.5c-0.1-0.2-0.2-0.5-0.3-0.7l0.6-0.1h-1.5v-1.9h5.9v1.9h-1.4l0.7,0.1
		c-0.1,0.2-0.2,0.5-0.4,0.7H1246.8z M1242,429.6h-3.7v-0.7h3.7v-0.6h0.9v0.6h3.8v0.7h-3.8v0.5h3v0.6h-6.8v-0.6h2.9V429.6z
		 M1245.7,432.9v-1h-6.4v1h-0.8v-1.6h8.1v1.6H1245.7z M1239.8,432.9v-0.6h5.4v0.6H1239.8z M1240.4,434.7h4.2V434h-4.2V434.7z
		 M1241.2,435.3c0.2,0.3,0.3,0.6,0.4,0.8h1.8c0.1-0.3,0.2-0.6,0.3-0.8H1241.2z"/>
</g>
<g>
	<path d="M1295.3,434.8c0,0.9-0.6,1.8-2.7,2.2c-0.1-0.2-0.3-0.5-0.4-0.6c2-0.4,2.4-1,2.4-1.6v-0.6h0.8V434.8z M1298.6,430.2
		c0.1,3.1,0.5,5.9,1.4,5.9c0.2,0,0.3-0.4,0.3-1.2c0.2,0.2,0.4,0.5,0.6,0.6c-0.1,1.1-0.4,1.5-0.9,1.5c-1.6,0-2-3.1-2.2-6.8h-5.5v-0.8
		h5.5c0-0.4,0-0.8,0-1.2h0.9c0,0.4,0,0.8,0,1.2h0.9c-0.2-0.3-0.5-0.6-0.7-0.9l0.7-0.3c0.3,0.3,0.7,0.6,0.8,0.9l-0.5,0.3h0.8v0.8
		H1298.6z M1292.4,431.9h5.1v0.7h-5.1V431.9z M1297.1,430.7v0.7h-4.3v-0.7H1297.1z M1296.2,435.4v-1.6h-2.5v1.6h-0.8v-2.3h4.2v2.3
		H1296.2z M1295.7,435.5c0.7,0.3,1.6,0.8,2.1,1.1l-0.6,0.5c-0.5-0.4-1.4-0.9-2.1-1.2L1295.7,435.5z"/>
</g>
<g>
	<path d="M1349.5,327.1l-3.4,0.8l-0.2-0.9c0.4-0.1,0.8-0.2,1.4-0.3v-2.2h-1.1v-0.8h1.1v-1.9h-1.2V321h3.2v0.9h-1.2v1.9h0.9v0.8h-0.9
		v2c0.4-0.1,0.8-0.2,1.2-0.3L1349.5,327.1z M1353.7,321.7c-0.2,1-0.4,1.9-0.7,2.7c0.3,1.6,1,3,2,3.8c-0.2,0.2-0.5,0.5-0.7,0.8
		c-0.9-0.7-1.5-1.9-1.9-3.3c-0.8,1.5-1.8,2.6-3,3.4c-0.1-0.2-0.4-0.6-0.6-0.8c1.8-1,3.2-3.2,3.8-5.9h-1.4c-0.4,1-0.8,1.9-1.3,2.5
		c-0.2-0.1-0.6-0.4-0.8-0.5c0.8-1,1.4-2.6,1.7-4.3l0.9,0.2c-0.1,0.4-0.2,0.8-0.3,1.2h1.4l0.2,0L1353.7,321.7z"/>
</g>
<g>
	<path d="M1241.2,380.1c0.3,0.7,0.8,1.7,1,2.2l-0.8,0.3c-0.1-0.2-0.1-0.4-0.2-0.7c-2.1,0.4-2.5,0.5-2.7,0.7c0-0.2-0.2-0.6-0.3-0.8
		c0.2,0,0.3-0.2,0.5-0.5c0.1-0.2,0.5-0.9,0.7-1.7h-1.3V379h0.8v-4.3h3.1v0.7h-2.2v0.7h1.9v0.7h-1.9v0.7h1.9v0.7h-1.9v0.7h2.3v0.8
		h-1.7c-0.3,0.6-0.6,1.3-0.9,1.8l1.4-0.3c-0.1-0.3-0.3-0.6-0.4-0.9L1241.2,380.1z M1244.6,378.7v0.6h1.9v0.8h-1.9v0.7h2.2v0.8h-2.2
		v1.5h-0.8v-1.5h-1.8v-0.8h1.8v-0.7h-1.6v-0.8h1.6v-0.6h-1.6V378h1.6v-0.7h-1.9v-0.7h1.9v-0.7h-1.5v-0.7h1.5v-0.8h0.8v0.8h1.8v1.4
		h0.6v0.7h-0.6v1.4H1244.6z M1244.6,376.5h1v-0.7h-1V376.5z M1244.6,378h1v-0.7h-1V378z"/>
</g>
<g>
	<path class="st1" d="M1294.9,374.5c-0.2,0.6-0.5,1.2-0.8,1.8v6.8h-0.9v-5.3c-0.3,0.5-0.6,0.9-1,1.2c-0.1-0.2-0.3-0.7-0.5-0.9
		c0.9-0.9,1.8-2.3,2.3-3.8L1294.9,374.5z M1300.9,381.8v0.8h-6.3v-0.8h1.3c0.2-0.9,0.4-1.9,0.5-3.1h-1.4v-0.8h1.5
		c0.1-0.7,0.2-1.5,0.3-2.1h-1.8v-0.8h5.4v0.8h-2.7c-0.1,0.7-0.2,1.4-0.3,2.1h2.5v3.9H1300.9z M1297.3,378.7
		c-0.2,1.1-0.4,2.2-0.5,3.1h2.3v-3.1H1297.3z"/>
</g>
<g>
	<path d="M1349.3,374.9c-0.3,0.8-0.7,1.7-1,2.5c0.8,0.8,0.9,1.5,0.9,2c0,0.6-0.1,1-0.4,1.2c-0.2,0.1-0.3,0.2-0.6,0.2
		c-0.2,0-0.5,0-0.7,0c0-0.2-0.1-0.6-0.2-0.8c0.2,0,0.4,0,0.6,0c0.1,0,0.3,0,0.3-0.1c0.1-0.1,0.2-0.3,0.2-0.6c0-0.5-0.2-1.1-0.9-1.9
		c0.3-0.6,0.6-1.4,0.8-2.1h-1.1v7.6h-0.8v-8.4h2.2l0.1,0L1349.3,374.9z M1352.5,381.7h1.1v-2.2h0.8v3.5h-0.8v-0.5h-4v-3h0.9v2.2h1.1
		v-3h-2.3v-0.8h2.3v-1.5h-1.9v-0.8h1.9v-1.3h0.9v1.3h1.8v0.8h-1.8v1.5h2.3v0.8h-2.3V381.7z"/>
</g>
<g>
	<path class="st1" d="M1297.2,485.7c-0.1,0-0.1,0.1-0.2,0.2c0.9,0.4,2.5,0.9,3.9,1.1c-0.2,0.2-0.4,0.5-0.5,0.7
		c-0.6-0.1-1.3-0.3-2-0.5v0.3h-4v-0.4c-0.6,0.2-1.2,0.4-1.7,0.6c-0.2-0.2-0.5-0.5-0.7-0.6c1.6-0.4,3.3-1,4.3-1.7h-0.3v-1.5h-2.9v1.1
		h-0.8v-1.7h3.7v-0.4h-3.1v-0.7h7v0.7h-3.1v0.4h3.7v1.7h-0.8v-1.1h-2.9v1.5h-0.3L1297.2,485.7z M1293.1,485.4
		c0.6-0.1,1.3-0.3,2.1-0.4c-0.4-0.2-1.2-0.4-1.8-0.5l0.3-0.5c0.6,0.1,1.4,0.3,1.9,0.5l-0.2,0.5l0.3-0.1l0.1,0.5
		c-0.8,0.2-1.6,0.5-2.3,0.6L1293.1,485.4z M1298.8,487.9l0.6,0.4c-0.4,0.6-1.2,1.2-1.9,1.6c0.3,0.1,0.6,0.3,0.8,0.4l-0.4,0.6
		c-0.8-0.4-2.2-1-3.3-1.4l0.4-0.5c0.5,0.2,1.1,0.4,1.7,0.6c0.5-0.2,1-0.5,1.4-0.9h-4.8v-0.7h5.4L1298.8,487.9z M1297.9,487
		c-0.6-0.2-1.1-0.5-1.5-0.7c-0.5,0.3-1,0.5-1.5,0.7H1297.9z M1297.4,484.8L1297.4,484.8l-0.1-0.3c0.5-0.1,1.4-0.3,1.8-0.5l0.4,0.5
		c-0.5,0.2-1.2,0.3-1.7,0.4c0.7,0.2,1.5,0.4,2,0.6l-0.2,0.5c-0.5-0.2-1.6-0.5-2.4-0.7L1297.4,484.8z"/>
</g>
<g>
	<path class="st2" d="M1454.9,484.3c-0.1,0.2-0.3,0.3-0.4,0.5c-0.1-0.1-0.3-0.5-0.5-0.6c0.6-0.6,1.1-1.4,1.4-2.3l0.7,0.2
		c-0.1,0.3-0.2,0.6-0.4,0.8h1c-0.1-0.3-0.2-0.6-0.4-0.8l0.7-0.2c0.2,0.3,0.4,0.7,0.5,1h0.8v0.6h-1.1v0.5h0.9v0.1
		c0.5-0.6,1-1.4,1.3-2.2l0.7,0.2c-0.1,0.3-0.2,0.6-0.4,0.8h0.9c-0.1-0.3-0.2-0.5-0.3-0.8l0.7-0.2c0.2,0.3,0.4,0.7,0.5,1h1v0.6h-1.3
		v0.5h1v0.6h-1v0.5h1v0.6h-1v0.5h1.4v0.6h-3.8v-2.3c-0.1,0.2-0.3,0.4-0.4,0.5c-0.1-0.1-0.2-0.3-0.4-0.5l0,0.1h-0.9v0.5h0.9v0.6h-0.9
		v0.5h1.2v0.6h-3.6V484.3z M1461.8,487.5c-0.5,0.8-1.2,1.4-2,1.8c0.9,0.3,1.9,0.4,3,0.5c-0.2,0.2-0.4,0.6-0.6,0.8
		c-1.3-0.1-2.6-0.4-3.6-0.8c-1.2,0.5-2.7,0.7-4.1,0.9c-0.1-0.2-0.2-0.6-0.4-0.8c1.1-0.1,2.3-0.3,3.3-0.6c-0.7-0.4-1.3-0.8-1.7-1.3
		l0.3-0.1h-1.4v-0.7h6.4l0.2,0L1461.8,487.5z M1456.6,483.5h-0.9v0.5h0.9V483.5z M1456.6,484.6h-0.9v0.5h0.9V484.6z M1456.6,485.6
		h-0.9v0.5h0.9V485.6z M1456.8,487.9c0.5,0.4,1.1,0.8,1.8,1.1c0.7-0.3,1.2-0.6,1.7-1.1H1456.8z M1460.6,483.5h-0.9v0.5h0.9V483.5z
		 M1460.6,484.6h-0.9v0.5h0.9V484.6z M1460.6,485.6h-0.9v0.5h0.9V485.6z"/>
	<path class="st2" d="M1468.9,485.7c-0.1,0-0.1,0.1-0.2,0.2c0.9,0.4,2.5,0.9,3.9,1.1c-0.2,0.2-0.4,0.5-0.5,0.7
		c-0.6-0.1-1.3-0.3-2-0.5v0.3h-4v-0.4c-0.6,0.2-1.2,0.4-1.7,0.6c-0.2-0.2-0.5-0.5-0.7-0.6c1.6-0.4,3.3-1,4.3-1.7h-0.3v-1.5h-2.9v1.1
		h-0.8v-1.7h3.7v-0.4h-3.1v-0.7h7v0.7h-3.1v0.4h3.7v1.7h-0.8v-1.1h-2.9v1.5h-0.3L1468.9,485.7z M1464.8,485.4
		c0.6-0.1,1.3-0.3,2.1-0.4c-0.4-0.2-1.2-0.4-1.8-0.5l0.3-0.5c0.6,0.1,1.4,0.3,1.9,0.5l-0.2,0.5l0.3-0.1l0.1,0.5
		c-0.8,0.2-1.6,0.5-2.3,0.6L1464.8,485.4z M1470.4,487.9l0.6,0.4c-0.4,0.6-1.2,1.2-1.9,1.6c0.3,0.1,0.6,0.3,0.8,0.4l-0.4,0.6
		c-0.8-0.4-2.2-1-3.3-1.4l0.4-0.5c0.5,0.2,1.1,0.4,1.7,0.6c0.5-0.2,1-0.5,1.4-0.9h-4.8v-0.7h5.4L1470.4,487.9z M1469.5,487
		c-0.6-0.2-1.1-0.5-1.5-0.7c-0.5,0.3-1,0.5-1.5,0.7H1469.5z M1469.1,484.8L1469.1,484.8l-0.1-0.3c0.5-0.1,1.4-0.3,1.8-0.5l0.4,0.5
		c-0.5,0.2-1.2,0.3-1.7,0.4c0.7,0.2,1.5,0.4,2,0.6l-0.2,0.5c-0.5-0.2-1.6-0.5-2.4-0.7L1469.1,484.8z"/>
</g>
<g>
	<path class="st0" d="M1401.9,435.2v1.5h-0.8v-1.5h-1.5v-0.8h1.5v-0.7h-1.2v-3.5h1.2v-0.6h-1.4v-0.8h1.4v-1h0.8v1h1.4v0.8h-1.4v0.6
		h1.2v3.5h-1.2v0.7h1.4v0.8H1401.9z M1400.5,431.7h0.6v-0.8h-0.6V431.7z M1400.5,433.1h0.6v-0.8h-0.6V433.1z M1402.3,430.9h-0.6v0.8
		h0.6V430.9z M1402.3,432.3h-0.6v0.8h0.6V432.3z M1405.9,435.9c0,0.3-0.1,0.5-0.3,0.6c-0.2,0.1-0.5,0.1-0.9,0.1
		c0-0.2-0.1-0.5-0.2-0.7c0.3,0,0.6,0,0.7,0c0.1,0,0.1,0,0.1-0.1v-1h-1.1c-0.1,0.7-0.2,1.3-0.6,1.9c-0.1-0.1-0.4-0.3-0.6-0.4
		c0.5-0.8,0.5-1.9,0.5-2.8v-2h2.3V435.9z M1406.4,428.1c0,0.1-0.1,0.2-0.2,0.3c0.6,0.8,1.4,1.4,2.3,1.9c-0.2,0.2-0.4,0.4-0.5,0.6
		c-0.3-0.2-0.6-0.4-0.9-0.6v0.5h-2.5v-0.5c-0.3,0.2-0.6,0.5-0.9,0.6c-0.1-0.2-0.4-0.5-0.6-0.6c1-0.5,2-1.5,2.5-2.5L1406.4,428.1z
		 M1405.2,434.2v-0.7h-1v0c0,0.2,0,0.5,0,0.7H1405.2z M1404.2,432.1v0.7h1v-0.7H1404.2z M1406.9,430.2c-0.4-0.3-0.8-0.7-1.1-1.2
		c-0.3,0.4-0.7,0.8-1,1.2H1406.9z M1407,435.1h-0.6v-3.5h0.6V435.1z M1407.4,431.3h0.7v4.5c0,0.4-0.1,0.6-0.3,0.7
		c-0.2,0.1-0.6,0.1-1.2,0.1c0-0.2-0.1-0.5-0.2-0.7c0.4,0,0.8,0,0.9,0c0.1,0,0.1,0,0.1-0.1V431.3z"/>
	<path class="st0" d="M1414.2,428.4c0,1.7,0.2,5.3,3.9,7.5c-0.2,0.2-0.6,0.5-0.7,0.8c-2.2-1.3-3.2-3.3-3.7-5.1
		c-0.7,2.3-1.9,4-3.7,5.1c-0.2-0.2-0.6-0.6-0.8-0.7c2.1-1.1,3.2-3,3.8-5.6l0.5,0.1c-0.1-0.4-0.1-0.8-0.1-1.1h-2.3v-0.9H1414.2z"/>
</g>
<rect x="180.7" y="132.3" class="st3" width="510.3" height="36"/>
<text transform="matrix(1 0 0 1 180.6665 144.5332)" class="st4 st5">GMK Houhai/Shan Shui Chinese glyphs in Noto Sans TC 400 Medium</text>
<text transform="matrix(1 0 0 1 180.3073 192.9731)" class="st0 st6 st7">Blue denotes new modifier legends transcribed into traditional characters for inclusion in an alternate modifiers kit</text>
<text transform="matrix(1 0 0 1 180.7931 221.973)" class="st1 st6 st7">Red denotes existing legends that appear slightly differently in traditional characters and should be included as a supplement in their respective kits</text>
<g>
	<path class="st1" d="M817.9,521.8l0.2,1.3c-2.2,0.9-4.5,1.9-6.3,2.6l-0.6-1.4c1.1-0.4,2.6-0.9,4.2-1.5v-5.8h-3.7v-1.4h3.7V512h1.5
		v10.1L817.9,521.8z M822.9,523.9c0.6,0,0.7-0.7,0.8-3.6c0.4,0.3,1,0.6,1.4,0.7c-0.1,3.2-0.5,4.3-2.1,4.3h-1.9
		c-1.5,0-1.9-0.5-1.9-2.3V512h1.5v3.4h4.1v1.4h-4.1v6.1c0,0.8,0.1,0.9,0.6,0.9H822.9z"/>
</g>
<g>
	<path d="M766.6,567.6v2h3.8v9.7H769v-0.9h-9.2v0.9h-1.4v-9.7h3.6v-2h-4.4v-1.4H771v1.4H766.6z M769,577.1v-2.3h-0.2H767
		c-1.4,0-1.7-0.4-1.7-1.8v-2.1h-2c-0.1,1.6-0.6,3.3-2.9,4.4c-0.1-0.2-0.4-0.6-0.6-0.8v2.6H769z M759.8,570.9v3.3
		c1.8-0.9,2.2-2.1,2.2-3.3H759.8z M765.3,567.6h-1.9v2h1.9V567.6z M766.6,570.9v2.1c0,0.4,0.1,0.5,0.5,0.5h1.6c0.1,0,0.2,0,0.3,0
		v-2.5H766.6z"/>
</g>
<g>
	<path d="M818.9,568.1c-0.1,0.5-0.1,1-0.2,1.4h5.6v8.3c0,0.8-0.2,1.1-0.7,1.3c-0.5,0.2-1.4,0.2-2.6,0.2c-0.1-0.4-0.3-0.9-0.5-1.2
		c0.9,0,1.8,0,2.1,0c0.3,0,0.4-0.1,0.4-0.3v-7h-9.1v8.6h-1.4v-9.9h5c0-0.4,0.1-0.9,0.2-1.4h-5.9v-1.3h6c0-0.5,0.1-1,0.1-1.4l1.6,0.2
		c0,0.4-0.1,0.8-0.2,1.3h5.9v1.3H818.9z M819,576.5v2.5h-1.3v-2.5h-3.1v-1.1h3.1V574h-2.8v-1.1h1.4c-0.1-0.5-0.4-1.2-0.7-1.7
		l1.1-0.3c0.3,0.5,0.7,1.3,0.8,1.7l-0.8,0.2h2.5c0.3-0.6,0.6-1.5,0.7-2l1.3,0.3c-0.3,0.6-0.5,1.2-0.8,1.7h1.5v1.1H819v1.3h3.2v1.1
		H819z"/>
</g>
<g>
	<path d="M869.9,574.5c-0.7,1.6-1.9,3.2-3,4.3c-0.3-0.3-0.9-0.7-1.2-0.9c1.1-0.9,2.1-2.3,2.7-3.7L869.9,574.5z M873.8,573.1v4.5
		c0,0.8-0.2,1.2-0.7,1.4c-0.5,0.2-1.3,0.3-2.4,0.3c-0.1-0.4-0.3-1.1-0.5-1.5c0.8,0,1.7,0,1.9,0c0.2,0,0.3-0.1,0.3-0.3v-4.5h-3.3
		c-0.9,0-1.6,0.1-1.7,0.2c-0.1-0.3-0.4-1.1-0.5-1.5c0.4-0.1,0.7-0.5,1.2-1.2c0.2-0.3,0.7-1,1.3-2h-3.4v-1.4h4.2
		c0.4-0.7,0.7-1.4,1-2.1l1.5,0.6c-0.2,0.5-0.5,1-0.7,1.5h6.9v1.4h-7.7c-0.6,1.1-1.3,2.1-2,3h3.2v-2.1h1.4v2.1h4.3v1.4H873.8z
		 M876,574.2c1.1,1.1,2.5,2.7,3.1,3.8l-1.3,0.7c-0.6-1.1-1.9-2.7-3-3.9L876,574.2z"/>
</g>
<g>
	<path class="st0" d="M185,431c0.7,2,1.9,3.6,3.7,4.4c-0.2,0.2-0.5,0.6-0.7,0.8c-1.8-0.8-3-2.4-3.7-4.4c-0.5,1.7-1.5,3.4-3.7,4.4
		c-0.1-0.2-0.4-0.6-0.7-0.8c2.3-1,3.2-2.7,3.6-4.5h-3.4v-0.9h3.6c0.1-1,0.1-1.9,0.1-2.7h1c0,0.8,0,1.7-0.1,2.7h3.9v0.9H185z"/>
	<path class="st0" d="M197.8,433.1c0,0,0,0.2,0,0.3c-0.1,1.6-0.2,2.3-0.4,2.5c-0.2,0.2-0.4,0.3-0.7,0.3c-0.2,0-0.7,0-1.2,0
		c0-0.2-0.1-0.6-0.3-0.8c0.4,0,0.9,0,1,0c0.2,0,0.3,0,0.3-0.1c0.1-0.1,0.2-0.6,0.3-1.6h-5c-0.5,0.4-1.2,0.8-1.8,1.1
		c-0.1-0.2-0.4-0.5-0.5-0.7c0.9-0.4,1.9-0.9,2.5-1.6h-1v-2.8c0.8-0.2,1.7-0.4,2.2-0.6l0.5,0.6c-0.6,0.2-1.3,0.4-2,0.5v0.5h1.7v0.6
		h-1.7v0.5h4.3v-0.5h-1.7v-0.6h1.7v-0.5h-1.9v-0.6h2.7v2.9H193c-0.1,0.2-0.3,0.4-0.4,0.5H197.8z M198,428.2v1.8h-0.8v-1h-6.5v1h-0.8
		v-1.8h3.6c-0.1-0.2-0.2-0.4-0.3-0.5l0.9-0.3c0.1,0.2,0.3,0.5,0.4,0.8H198z M190.8,435.7c0.4-0.4,0.7-1.1,0.8-1.7l0.7,0.3
		c-0.2,0.6-0.5,1.3-0.8,1.7L190.8,435.7z M193.3,434.1c0.2,0.5,0.3,1.2,0.3,1.7l-0.7,0.1c0-0.4-0.1-1.1-0.3-1.7L193.3,434.1z
		 M194.4,434.1c0.3,0.4,0.5,1,0.6,1.4l-0.7,0.2c-0.1-0.4-0.3-1-0.5-1.4L194.4,434.1z M195.7,435.2c-0.1-0.3-0.5-0.7-0.7-1l0.6-0.3
		c0.3,0.3,0.6,0.7,0.8,1L195.7,435.2z"/>
	<path class="st0" d="M202.9,435.2c-1.2,0.3-2.5,0.6-3.4,0.8l-0.2-0.8c0.4-0.1,1-0.2,1.5-0.3v-2.6h-1.4v-0.8h1.4v-0.9H200v-0.5
		c-0.2,0.2-0.4,0.3-0.6,0.5c-0.1-0.2-0.2-0.7-0.4-0.9c0.8-0.5,1.6-1.4,2.1-2.3l0.7,0.3c-0.1,0.1-0.1,0.3-0.2,0.4
		c0.6,0.4,1.3,0.8,1.6,1.2l-0.4,0.7c-0.4-0.4-1-0.9-1.6-1.3c-0.3,0.4-0.6,0.8-1,1.2h2.3v0.8h-1v0.9h1.3v0.8h-1.3v2.4
		c0.4-0.1,0.8-0.2,1.3-0.3L202.9,435.2z M200.1,432.7c0.2,0.5,0.3,1.3,0.4,1.7l-0.6,0.2c0-0.5-0.2-1.2-0.4-1.7L200.1,432.7z
		 M201.8,434.3c0.1-0.5,0.3-1.2,0.4-1.7l0.7,0.2c-0.2,0.6-0.4,1.2-0.5,1.7L201.8,434.3z M205.2,434.8c-0.5,0.6-1.3,1.2-2,1.6
		c-0.1-0.1-0.4-0.4-0.6-0.6c0.7-0.3,1.5-0.8,1.9-1.3L205.2,434.8z M203.7,429.7c-0.1-0.4-0.4-1.2-0.7-1.7l0.7-0.2
		c0.3,0.5,0.6,1.2,0.8,1.7L203.7,429.7z M204.9,429.8v-2.3h0.8v2.3h1c-0.2-0.1-0.5-0.3-0.7-0.4c0.3-0.4,0.6-1.1,0.8-1.6l0.8,0.2
		c-0.2,0.6-0.5,1.3-0.8,1.8h0.7v4.6h-4.2v-4.6H204.9z M206.6,430.5h-2.5v0.6h2.5V430.5z M206.6,431.7h-2.5v0.6h2.5V431.7z
		 M206.6,433h-2.5v0.6h2.5V433z M206.3,434.5c0.7,0.4,1.4,1,1.8,1.4l-0.8,0.3c-0.4-0.4-1-1-1.6-1.4L206.3,434.5z"/>
	<path class="st0" d="M213.7,435.2c0.4,0.1,0.9,0.1,1.4,0.1c0.4,0,2,0,2.6,0c-0.1,0.2-0.3,0.6-0.3,0.9H215c-1.9,0-3.3-0.3-4.2-1.9
		c-0.3,0.8-0.8,1.5-1.4,2c-0.1-0.2-0.5-0.5-0.7-0.6c1.1-0.8,1.5-2.1,1.7-3.8l0.9,0.1c-0.1,0.4-0.1,0.8-0.2,1.2
		c0.3,0.9,0.9,1.4,1.6,1.7v-3.7h-2.2v-0.8h5.4v0.8h-2.3v1.4h2.8v0.8h-2.8V435.2z M210.1,430.7h-0.9v-2.2h3.6
		c-0.1-0.3-0.3-0.6-0.4-0.9l0.9-0.3c0.2,0.4,0.4,0.8,0.5,1.1h3.4v2.2h-0.9v-1.4h-6.3V430.7z"/>
</g>
</svg>
