<?xml version="1.0" encoding="utf-8"?>
<!-- Generator: Adobe Illustrator 24.1.1, SVG Export Plug-In . SVG Version: 6.00 Build 0)  -->
<svg version="1.1" id="Layer_1" xmlns="http://www.w3.org/2000/svg" xmlns:xlink="http://www.w3.org/1999/xlink" x="0px" y="0px"
	 viewBox="0 0 232 100" style="enable-background:new 0 0 232 100;" xml:space="preserve">
<style type="text/css">
	.st0{fill:#F12D38;}
</style>
<g>
	<ellipse class="st0" cx="72" cy="31.3" rx="2" ry="1.6"/>
	<path class="st0" d="M167.9,18.8c-3.2,0-6.1,1.2-8,3.2c-1.9-2-4.8-3.2-8-3.2c-1.1,0-2,0.7-2,1.6V25c0,2.4,1.4,4.6,3.8,6.1
		c-7.2,2.5-11.8,8.1-11.8,14.2v17.2c0,1.7-1.8,3.1-4,3.1c-2.2,0-4-1.4-4-3.1v-7.8c0-8.6-8.9-15.6-20-15.6s-20,7-20,15.6v7.8
		c0,1.7-1.8,3.1-4,3.1s-4-1.4-4-3.1V42.2c0-0.1,0-0.2-0.1-0.4c3.8-2,6.1-5.4,6.1-9V28c4.6-0.7,8-3.9,8-7.7c0-0.9-0.9-1.6-2-1.6h-6
		c-1.4,0-2.7,0.2-4,0.7v-3.8h-4v4.7c0,2.6-2.7,4.7-6,4.7h-8c-2.5,0-4.8,1.3-5.7,3.1h-6.3c-1.1,0-2-0.7-2-1.6V25h-4v1.6
		c0,1.4,0.8,2.7,2.2,3.6c-1.4,1.1-2.2,2.7-2.2,4.2v1.6c0,0.9,0.9,1.6,2,1.6h14c1.1,0,2,0.7,2,1.6s-0.9,1.6-2,1.6h-4.2
		c-2.8,0-5.5,0.5-8,1.5l-0.6,0.2c-1,0.4-1.4,1.3-0.9,2.1c0.5,0.8,1.7,1.1,2.7,0.7l0.6-0.2c1.9-0.8,4.1-1.2,6.3-1.2H70v18.8
		c0,4.2,2.2,8.2,6,11.1v4.5h-2c-3.3,0-6,2.1-6,4.7h4c0-0.9,0.9-1.6,2-1.6h4c1.1,0,2,0.7,2,1.6h4c0-2-1.6-3.7-4-4.4V76
		c4.2,1.9,9.2,2.6,14,1.8v1.9h-2c-3.3,0-6,2.1-6,4.7h4c0-0.9,0.9-1.6,2-1.6h4c1.1,0,2,0.7,2,1.6h4c0-2-1.6-3.7-4-4.4v-3.2
		c7.3-2.5,12-8.1,12-14.3v-7.8c0-1.7,1.8-3.1,4-3.1c2.2,0,4,1.4,4,3.1v7.8c0,6.2,4.7,11.8,12,14.3v2.9h-2c-3.3,0-6,2.1-6,4.7h4
		c0-0.9,0.9-1.6,2-1.6h4c1.1,0,2,0.7,2,1.6h4c0-2-1.6-3.7-4-4.4v-2.2c4.8,0.8,9.8,0.1,14-1.8v2.1h-2c-3.3,0-6,2.1-6,4.7h4
		c0-0.9,0.9-1.6,2-1.6h4c1.1,0,2,0.7,2,1.6h4c0-2-1.6-3.7-4-4.4v-4.8c3.8-2.9,6-6.9,6-11.1V35.9c0,4.3,4.5,7.8,10,7.8
		c1.1,0,2-0.7,2-1.6v-4.7c0-2.5-1.5-4.8-4.1-6.3c2.5-1.5,4-3.8,4.1-6.3v-4.7C169.9,19.4,169,18.8,167.9,18.8z M92,21.9h3.7
		C94.8,23.7,92.6,25,90,25h-3.7C87.2,23.1,89.5,21.9,92,21.9z M68,34.4h-12c0-1.7,1.8-3.1,4-3.1h6c1.1,0,2-0.7,2-1.6s0.9-1.6,2-1.6
		h18v4.7c0,4.3-4.5,7.8-10,7.8h-4.3c1.1-2.4-0.5-5.1-3.7-6C69.4,34.5,68.7,34.4,68,34.4z M154,35.9v6.3h-2v3.1h2v3.1h-4v3.1h4v3.1
		h-4v3.1h4v3.1h-4v3.1h3.9c-0.2,1.4-0.8,2.8-1.6,4.1l-3.6-0.9l-1.3,3l2.5,0.6c-1.6,1.4-3.6,2.5-5.8,3.2v-2.2h-4v3
		c-1.7,0.2-3.4,0.1-5.1-0.1l1-2.4l-3.8-1l-1,2.4c-1.9-0.7-3.6-1.7-4.9-2.9l3.3-2.6l-2.8-2.2l-2.8,2.2c-1.2-1.8-1.8-3.7-1.8-5.8h4
		v-3.1h-4v-3.1h4v-3.1h-4.3c-0.4-1.3-1.4-2.4-2.7-3.3l2.4-1.9l-2.8-2.2l-3.5,2.8c-0.7-0.1-1.4-0.1-2.1,0l-3.5-2.8l-2.8,2.2l2.4,1.9
		c-0.7,0.5-1.4,1.1-1.9,1.7H102v3.1h4v3.1h-4v3.1h4v1.6c0,0.8-0.1,1.6-0.3,2.4l-3.1-0.8l-1.3,3l3,0.8c-0.7,1.1-1.6,2.2-2.7,3.1
		l-2.3-1.8l-2.8,2.2l2,1.6c-2,1-4.3,1.6-6.6,1.9v-3h-4v3c-1.6-0.2-3.2-0.5-4.6-1l2.3-2.7l-3.3-1.7L80,72.2c-1.2-0.7-2.2-1.6-3.1-2.6
		l3.7-1l-1.3-3l-4.3,1.1c-0.7-1.4-1-2.9-1-4.3h4v-3.1h-4v-3.1h4v-3.1h-4V50h4v-3.1h-4v-3.1h8v18.8c0,3.5,3.6,6.3,8,6.3s8-2.8,8-6.3
		v-7.8c0-6.9,7.2-12.5,16-12.5s16,5.6,16,12.5v7.8c0,3.5,3.6,6.3,8,6.3c4.4,0,8-2.8,8-6.3V45.3c0-4.5,3.2-8.7,8.2-10.9
		C154,34.9,154,35.4,154,35.9z M158,29.4c-2.4-0.7-4-2.4-4-4.4v-2.9c2.4,0.7,4,2.4,4,4.4V29.4z M165.9,37.5v2.9
		c-2.4-0.7-4-2.4-4-4.4v-2.9C164.3,33.7,165.9,35.5,165.9,37.5z M165.9,25c0,2-1.6,3.8-4,4.4v-2.9c0-2,1.6-3.8,4-4.4V25z"/>
</g>
</svg>
