<?xml version="1.0" encoding="utf-8"?>
<!-- Generator: Adobe Illustrator 24.1.2, SVG Export Plug-In . SVG Version: 6.00 Build 0)  -->
<svg version="1.1" id="Layer_1" xmlns="http://www.w3.org/2000/svg" xmlns:xlink="http://www.w3.org/1999/xlink" x="0px" y="0px"
	 viewBox="0 0 612 792" style="enable-background:new 0 0 612 792;" xml:space="preserve">
<style type="text/css">
	.st0{fill-rule:evenodd;clip-rule:evenodd;fill:#59C394;}
</style>
<g>
	<path id="SVGID_1_" class="st0" d="M362.2,384.7c0.2,6.4,0.5,12.8,0.7,19.2c0,3.1-0.9,8.2,0.2,10.6c1.1,2.3,3.5,5.1,5.8,6.2
		c1.8,0.9,3.6,0.5,4.3,2.4c1.4,2-1.1,3.3-1.9,4.1c-3.2,0.1-6.2-1-7.7-2.6c-0.4,0.2-0.2,0-0.5,0.2c-1,1.6,0.4,8.9,0.5,11
		c0.1,4.4,0.2,8.8,0.2,13.2c-0.2,1.1-1,3.4-0.7,4.6c0.5,1.9,3,5.8,4.3,7c1.3,1.1,3.2,2.2,5,2.6c1.4,0.4,2.6-0.1,3.6,0.5
		c0.7,0.4,1.1,1.3,1.7,1.9c0,3.4-2.8,4.4-6.2,3.6c-4-1-6.9-2.6-9.4-5c-0.9-0.9-1.4-2.3-2.9-2.6c-2.1,4.2-5.9,6.4-11,7.7
		c-1.1,0.3-3.8,1-5,0.2c-1.8-0.4-2.5-1.4-2.4-3.8c0.4-0.5,0.8-1,1.2-1.4c1.6-1,4.2-0.3,6.2-1c1.8-0.6,4-2.7,5-4.1
		c1.1-1.5,2.4-3.6,2.9-5.5c0.2-0.7-0.2-1.6-0.2-1.9c0-3.2,0-6.4,0-9.6c1.2-5.6,0.3-11.2,0.2-17.8c-0.4-0.1-0.4-0.2-1-0.2
		c-1.6,2.3-7.4,4.5-11.3,4.6c-0.8-0.7-1.7-0.7-2.2-1.9c-0.7-0.9-0.3-1.6,0-2.6c2.5-1.5,5.7-2.1,8.2-3.6c6.1-3.8,6-9.4,6-19.2
		c-0.2-4.7-0.3-9.4-0.5-14.2c-0.5,0-1,0-1.4,0c-1.4,1.8-10.9,3.6-12,0.7c-0.8-1-0.4-2.9,0.5-3.6c3.2-2.5,8.6-0.5,11.3-4.6
		c1.4-2.1,1.9-9.5,1.2-13c-0.3-1.6-0.7-5-0.2-7c1.8-8.3,5.6-13.4,12.5-16.6c0.1-2.7-0.7-6.8-1.4-9.6c-0.6-2.2-0.4-4-1.2-6
		c-2.6-6.7-8.7-10.3-15.8-12.5c-10.9-3.3-23-0.1-28.1,6.7c-1.2,1.6-3.3,3.3-3.6,5.8c0.1,0.1,0.2,0.2,0.2,0.2
		c11.6-2.6,16.7,4.2,19.2,13c0.1,1,0.2,2.1,0.2,3.1c1.2,5,1.1,10.6,3.4,14.6c0.6,1,2.1,2.8,3.1,3.4c2.7,1.5,5.5,0.5,5.5,4.8
		c-0.5,0.5-1,1-1.4,1.4c-2.6,2-6.7-1.2-8.4-1.2c0,5.8,0,11.7,0,17.5c-0.7,1.1-0.3,5,0,6.2c0,1.3,0,2.6,0,3.8c0.9,3.9,0.8,9.2,5,9.6
		c2.2,1.2,4.5-0.7,5.5,2.2c0.4,0.5,0.4,0.9,0.5,1.7c-0.7,0.8-0.8,1.5-1.9,1.9c-2.7,2.1-7.7-0.7-9.8-1c0,1.9-0.4,3.5-0.7,5
		c0,1.8,0,3.5,0,5.3c0,6.4-0.1,12.3,1.7,16.8c0.5,1.4,1.9,3.5,3.1,4.3c2.7,1.7,5.5,0.5,5.5,5c-0.6,0.4-1.4,1.1-1.9,1.7
		c-2.3,0.2-4.3-0.1-6.2-1c-0.8-0.4-0.9-1-2.2-1.2c0,0.2,0,0.3,0,0.5c-0.7,1.4,0.3,5.1-0.2,7.2c-2.1,8.1-4.7,13.1-12.7,15.4
		c-2,0.6-4.3,0.8-6.5,0.2c-0.7-1-1.2-1.3-1.2-3.1c0.5-0.6,0.8-1.6,1.4-1.9c1.2-0.7,2.3-0.3,3.8-0.7c2.1-0.5,4.4-1.6,5.5-3.1
		c4-5.5,3.7-20.3,1.9-28.8c-0.7-3.1,1.2-3.9,1.2-6.5c-1.6,0.1-1.9,0.8-2.9,1.4c-2.2,1.3-4.7,2.3-7.9,2.4c-0.8-0.7-1.5-0.8-1.9-1.9
		c-0.7-0.9-0.3-1.6,0-2.6c3.2-1.9,8.3-3.3,10.6-6.2c2.7-3.5,4.1-14.3,2.6-20.9c-0.7-3.2,0.6-7.3-1-9.6c-0.3-0.2-0.2-0.1-0.7-0.2
		c-1.6,2.3-7.8,2.7-11,1.9c-0.7-1.1-1.2-1.4-1.2-3.4c0.5-0.6,1-1.1,1.4-1.7c2.1-0.4,4.2-0.8,6.2-1.2c2.1-0.9,4.1-3.4,5.3-5.3
		c2-3.2,2.2-10.5,1.2-15.1c0-0.8,0-1.6,0-2.4c-0.5-2.3-0.7-5.1-1.2-7.4c-0.3-1.6,0.8-2.3,0.5-3.8c-0.5-2.6-0.5-5.8-1.4-8.2
		c-1.2-3.1-3.2-4.4-5.3-6.5c-9.7-0.7-12.7,5.2-12.7,15.1c0,2.9-0.1,5.9,0.5,8.4c0.1,3.8,0.2,7.5,0.2,11.3c1,4.8,0.7,11.1,0.7,16.3
		c0,2.3-0.2,5.1,0.2,7c0.6,2.7-0.3,6.2,0.2,8.6c0,3,0,5.9,0,8.9c0.9,4.1,0.4,9.2,0.5,13.9c0.1,6.1,0.2,13,0.2,19.4
		c0,5.8,0,11.7,0,17.5c-0.9,4.2-0.2,10-0.2,14.6c0,1.4,0,2.9,0,4.3c-0.6,2.8-1.2,11.2-0.7,13.7c0.2,0,0.3,0,0.5,0
		c6.7,0.1,13.4,0.2,20.2,0.2c3.2,0,6.6-0.4,7.4,1.9c0.4,0.5,0.4,0.9,0.5,1.7c-0.7,0.8-0.8,1.5-1.9,1.9c-0.8,0.6-4,1.7-5.8,1
		c-3-1.3-9.1-0.5-13-0.5c-17.3,0-34.1-0.2-51.1-0.2c-5.1,0-11.5-0.7-16.1,0.2c-2.1,0.4-4.3-0.4-4.8-1.7c-2-2.3,1.2-4.2,2.9-4.6
		c8.8-0.1,17.6-0.2,26.4-0.2c0.4-0.8,0.5-1.7,0.5-3.1c-0.8-1.4-0.2-8.6-0.2-10.8c0-8,0-17,0-25.7c0-26.2,0.3-52.9,0.2-79
		c0-14,0.4-31-5.3-39.4c-0.8-1.2-2.3-1.9-3.4-2.9c-8.2-0.3-8.3,3.9-9.8,10.8c-0.1,2.6-0.2,5.3-0.2,7.9c-0.4,1.9,0.2,5.9,0.2,8.9
		c0,8.7,1.2,20.3,6.2,23.8c1.8,1.3,4.3,1,6.7,1.4c0.5,0.6,1,1.1,1.4,1.7c0,6.4-9.2,3.8-12,1.9c-1.1-0.7-1.3-1.8-2.9-2.2
		c-0.1,11.8,0,27.2,5,34.1c1.1,1.5,3.2,2.6,5.3,3.1c2.4,0.6,4-0.4,4.8,1.7c1.8,1.9-1,3.5-1.9,4.3c-4,0-7.1-0.4-9.6-1.9
		c-0.6-0.4-2-2.2-2.6-1.7c-0.8,1.2-0.2,8-0.2,10.1c0,8.5-0.2,19.9,3.4,25c0.6,0.5,1.3,1,1.9,1.4c2,0,4,0.5,5.5,1
		c0.5,1.1,0.9,1.4,1,3.1c-0.8,0.7-1.6,1.4-2.4,2.2c-11.4,0-13.2-6.1-15.4-15.1c-0.6-2.5,0-5.4-0.7-7.7c-0.2,0-0.3,0-0.5,0
		c-1.8,2.3-9.2,4.9-13,4.1c-0.4-0.7-1.6-1.6-1.2-3.1c0.8-2.5,4.2-2.5,6.5-3.6c2.6-1.2,5.6-2.9,6.7-5.5c2.7-6.2,0.7-20.9,0.7-29
		c-1.8,0.3-2.5,1.5-3.8,2.2c-2.6,1.2-6.1,1.6-9.4,1.4c-0.4-0.4-0.8-0.8-1.2-1.2c-0.8-0.9-0.4-2.4,0-3.4c4-2.5,8.7-1.8,11.5-5.8
		c4-5.6,2.9-17.6,2.9-26.9c0-3,0.6-7.5-0.2-10.1c-3.4,0.8-6.4,2.7-10.6,1.7c-0.4-0.5-0.8-1-1.2-1.4c0-5.1,4.6-3.6,7.9-5.3
		c1.1-0.5,2.3-1.9,2.9-2.9c1.1-1.8,1.4-5.2,1.4-7.9c0-1.4,0-2.7,0-4.1c1.1-5.2,1.2-10,3.6-13.7c1.7-2.5,4.8-4.3,7.9-5.3
		c1.1-0.4,3.3,0.1,4.3-0.5c0.2-0.2,0.1-0.1,0.2-0.5c-1.5-1.5-3-3-4.6-4.6c-3.1-2.3-7.1-4.3-11.3-5.5c-4.1-1.2-10.3-0.5-13.7,0.7
		c-8.5,3.2-17.3,15.3-17.5,26.6c8.3,4.6,11.1,9.8,13.4,20.4c0.7,3.4,0,8-0.7,10.6c-0.2,1-1,2.5-0.5,3.4c0.9,2.6,5,5.2,7.7,6
		c1.3,0.4,2.5-0.1,3.6,0.5c0.5,0.6,1,1.1,1.4,1.7c0,1.3-0.1,2.1-0.5,2.9c-5.7,3-7.2-0.8-11.8-1.4c0.1,2.5,0.2,5.7,0.7,8.2
		c0,2.6,0,5.3,0,7.9c0.3,1.6,0.5,4.9,0,7c-0.5,2.3-1.5,4.7-1.7,7c2.3,1.5,4.3,3.5,7.4,4.3c1.9,0.5,4.2-1,5.8,0
		c0.8,0.2,1.1,0.6,1.4,1.2c1.5,1.8-0.4,3.4-1.7,4.1c-4.9,2.5-8.2-0.6-12.2-1.2c-0.2,0.5-0.2,0.9-0.2,1.7c0.9,1.5,0.1,6.2,0.5,8.4
		c0.7,4.7,0.6,10.2,0.5,15.1c0,1.9-1.6,4.9-0.7,6.5c0.9,2.6,4.7,5.4,7.2,6.5c2.5,1,5.5-0.2,6.5,2.4c0.6,0.8,0.3,1.3,0.2,2.4
		c-0.7,0.4-1.6,1.1-2.2,1.7c-5.2,0.1-8.2-1.1-11.3-3.1c-1.4-0.9-2.3-2.8-4.3-3.1c-2.5,3.9-7.6,7.2-13.9,7.2
		c-0.8-0.7-1.5-0.8-1.9-1.9c-0.3-0.4-0.4-0.8-0.5-1.4c0.4-0.6,0.8-1.3,1.2-1.9c1.1-0.8,2.4-0.7,3.8-1.2c2.4-0.8,4.9-2.6,6.2-4.6
		c5-7.5,2.4-23.1,1.9-33.6c-1.8,0.2-2.8,1.6-4.3,2.2c-2.5,1-6.2,0.3-8.4-0.2c-0.7-1-1.2-1.4-1.2-3.1c0.7-0.7,1.1-1.8,2.2-2.2
		c1.4,0,2.9,0,4.3,0c1.6-0.4,3.7-1.9,4.6-3.1c6.1-8.1,3.6-20,3.6-32.6c-0.4-0.1-0.4-0.2-1-0.2c-2.5,2.6-7.4,3.6-11.5,3.1
		c-0.7-1.1-1.4-1.4-1.4-3.4c0.1,0,0.2,0,0.2,0c1-2.9,5.5-2.3,7.9-3.8c3.8-2.3,4.9-6.8,6-11.8c2-8.9-2.1-16.2-6-20.2
		c-1.3-1.3-4.1-4.7-7-2.6c-3.8,1.1-4,5.4-5,9.4c-1.3,4.9-1.7,12.5-1.2,18c0.3,3.2-0.7,7,0,10.1c0.4,2,0,5.3-0.2,7
		c-0.3,2.1,1.1,4.9,1.9,6.2c3,4.7,8.2,4.9,12,8.4c0,2.7-0.9,2.6-2.2,3.8c-3.8,0.1-6.5-1.2-8.9-2.6c-0.7-0.5-0.8-1-1.9-1.2
		c0.1,0.8,0.4,1,0.5,1.4c0.6,2-0.7,4-0.7,6c-0.1,5.2-0.1,12.8,1,17.5c0,1.8,0,3.7,0,5.5c0.7,2.3,4,4.5,6.2,5.3c3.4,1.2,6,0,6,4.6
		c-0.4,0.3-0.6,0.9-1,1.2c-3.3,2.3-7.9-0.9-10.8-1.4c-0.1,0.1-0.2,0.2-0.2,0.2c0.1,8.5-2.9,15.2-8.2,18.5
		c-2.4,1.5-11.3,6.2-11.5-0.2c0.4-0.5,0.7-1.5,1.2-1.9c0.9-0.7,2-0.7,3.1-1.2c2.3-1,5-2.5,6.2-4.6c4.7-7.4,1.7-22.6,1.7-32.9
		c-0.4-0.1-0.4-0.2-1-0.2c-1.1,1.1-6.9,3.9-8.6,2.6c-0.8-0.2-1.2-0.4-1.4-1.2c-0.6-0.8-0.6-2.3,0-3.1c1-1.5,3.5-1.5,5.3-2.4
		c1-0.5,2.7-2.2,3.4-3.1c3.2-4.6,1.7-14,1.7-21.4c-0.1-2.8-0.2-5.6-0.2-8.4c-0.4-0.6-0.1-0.4-1-0.5c-1.8,1.8-5.7,2.5-8.6,1.7
		c-0.7-1.1-1.2-1.4-1.2-3.4c0.2-0.2,0.1-0.1,0.2-0.5c3.2-2.1,8.3-2.8,9.8-6.5c1.4-3.3-0.2-7.9,0.7-12c1.3-6.1,0.5-12.5,2.9-17.3
		c1.2-2.4,3.4-4.8,5.5-6.2c1.2-0.8,3.2-0.8,4.1-1.9c0.8-1.2,0.5-2.8,1-4.3c0.9-2.6,1.8-5.3,2.6-7.9c3.8-8.9,10.6-15.9,19.9-19.2
		c3.9-1.3,8.4-1,13-1c1.6-2.3,4.6-3.9,7-5.5c5.2-3.6,10.7-6.5,17.8-8.4c10.5-2.8,24.5,0,31.2,4.1c3.7,2.2,7.8,5.5,10.3,8.9
		c1.1,1.4,2.5,5.1,4.6,5.3c3.3-4.1,17.4-5.4,24.2-3.6c10.5,2.8,18.6,5.6,23,14.4c1.8,3.5,1.8,7.2,2.9,11.5c0.6,2.4,1.1,5.6,1.4,8.2
		c6.1,1.6,10.7,6.8,12.5,12.7c0.3,2.7,0.6,5.4,1,8.2c0,1.5,0,3,0,4.6c0,4.4-0.2,10.4,1.7,13.2c1.6,2.4,6.1,2,8.9,2.6
		c0.4,0.5,0.8,1,1.2,1.4c0.1,6.4-7.5,3.4-11.5,3.1c0,0.2,0,0.3,0,0.5c-0.6,1-0.1,3-0.5,4.3c-0.4,1.4-1.3,3.3-1.7,4.6
		c-0.5,1.7,0,4.9,0.2,6.2c0,1.3,0,2.6,0,3.8c1,4.5,1.1,9.6,4.3,11.8c2.5,1.7,7.7,0.2,8.9,3.4c0.6,0.9,0,1.9-0.2,2.6
		c-3.9,2.4-7.4,0.4-11.3-0.2c-0.4,1.1-0.3,3.1-0.2,4.6c-1.4,2-0.8,7.4-0.2,9.8c0,1.8,0,3.7,0,5.5c1.4,6.6,0.4,12.9,5.3,16.1
		c2.2,1.4,6.8-0.1,8.2,2.2c1.3,2.1-0.9,3.5-1.7,4.3c-11.3,0.8-15.1-4.5-17.5-13.2c-0.9-3.4-0.2-8.2-1.2-10.8
		c-3.3,1.7-6.9,4-11.8,2.9c-0.4-0.5-1-1.2-1.4-1.7c0-0.5,0-1,0-1.4c0.7-0.8,0.8-1.5,1.9-1.9c0.9-0.7,1.8-0.4,3.1-0.7
		c1.9-0.5,4-1.7,5-3.1c3.7-4.9,4.5-13,2.6-20.6c-0.2-1,0.1-2.5,0.2-3.1c-0.2-2.2-0.5-4.5-0.7-6.7c-0.4,0.2-0.2,0-0.5,0.2
		c-4,1.3-4.1,2.6-9.4,1.4c-0.5-0.6-1-1.1-1.4-1.7c0.1-5.6,3-2.5,6-4.1c1.6-0.8,3.4-3.2,4.3-4.8c2.9-4.9,3.7-14.1,2.2-21.4
		c-0.5-2.6,0.7-3.7,0.7-6.2c-0.1-9.7-0.8-19-7.2-22.3c-3.1-1.6-5.6,1.1-7,2.2c-4.6,3.5-6.8,9.6-5,17.8c0.1,2,0.2,4,0.2,6
		c1,2.9,4.7,5.8,7.4,7c2.1,0.9,4.7,0.5,5.5,2.6c0.5,0.5,0.5,1.1,0.5,2.2c-0.5,0.5-1,1-1.4,1.4C371.1,390.4,364.8,385.3,362.2,384.7
		L362.2,384.7z M284.4,299c-1.4,0.8-6.7,0.8-8.6,1.4c-4.6,1.4-8.6,3.8-12.2,6.2c-1.4,0.9-3.5,1.7-4.1,3.4c0.1,0,0.2,0,0.2,0
		c2.3,1.7,5.6,2.4,7.9,4.1c5.8,4,11,10.7,13.7,17.8c1.3,3.4,2.3,6.8,2.9,10.8c0.1,1-0.5,2.5-0.2,3.8c0.4,1.7,0.6,4,1,5.8
		c0,1.3,0,2.6,0,3.8c0.8,3.8,0.5,9.1,0.5,13.7c0,6.1,0.2,12.9,0.2,19.4c-0.1,11.4-0.2,22.7-0.2,34.1c0,5.7,0.9,13.6-0.2,18.7
		c0,1.5,0,3,0,4.6c0,5.2,0.8,11.8-0.2,16.6c0.2,9.5,0.3,19,0.5,28.6c0.2,0.1,0.5,0.2,0.7,0.2c1.3,0.8,4.4,0,6.2,0.2
		c3.9,0.6,9.1,0.3,13.4,0.2c0.1-0.1,0.2-0.2,0.2-0.2c2.3-35.5,0.7-73.8,0-109.7c-0.4-10.1-0.8-20.2-1.2-30.2
		c-0.1-3.8-0.2-7.7-0.2-11.5c0.7-2.6,2-4.9,2.9-7.2c1.3-3.5,1.9-6.6,3.6-9.6c1.1-2.1,4.9-6,5.3-7.9c-1.5-1.1-3.1-4.6-4.3-6.2
		C306.8,302.8,296.8,299.1,284.4,299L284.4,299z"/>
</g>
</svg>
