<svg height='100px' width='100px'  fill="#ff2d21" xmlns="http://www.w3.org/2000/svg" viewBox="0 0 64 64" x="0px" y="0px"><g><path d="M59,26h2a1,1,0,0,0,0-2,6.2,6.2,0,0,1-4.414-1.828L53,18.586V16h4a1,1,0,0,0,0-2,6.2,6.2,0,0,1-4.414-1.828L45,4.586V2H43V4H21V2H19V4.586l-7.586,7.586A6.2,6.2,0,0,1,7,14a1,1,0,0,0,0,2h4v2.586L7.414,22.172A6.2,6.2,0,0,1,3,24a1,1,0,0,0,0,2H5V36H3a1,1,0,0,0-1,1V49a1,1,0,0,0,1,1H21.586L11.293,60.293A1,1,0,0,0,12,62H52a1,1,0,0,0,.707-1.707L42.414,50H61a1,1,0,0,0,1-1V37a1,1,0,0,0-1-1H59V26Zm-2,0v2.586l-.293-.293a1,1,0,0,0-1.414,0L55,28.586V26Zm0,5.414V36H55V31.414l1-1ZM12.828,13.586,20.414,6H43.586l7.586,7.586c.143.143.292.282.445.414H12.383Q12.613,13.8,12.828,13.586ZM51,16v2H35V16ZM33,16v2H31V16Zm-4,0v2H13V16ZM8.828,23.586,12.414,20H51.586l3.586,3.586c.143.143.292.282.445.414H8.383Q8.613,23.8,8.828,23.586Zm43.879,4.707a1,1,0,0,0-1.414,0L51,28.586V26h2v2.586ZM53,31.414V36H51V31.414l1-1ZM35.279,38l.667,2H33V38ZM35,29.586l-1.293-1.293A1,1,0,0,0,33,28H31a1,1,0,0,0-.707.293L29,29.586V26h6ZM36.613,42l.666,2H33V42ZM38,30.414l1,1V36H37V31.414Zm-1-1.828V26h2v2.586l-.293-.293a1,1,0,0,0-1.414,0ZM37.946,46l.667,2H33V46Zm.108-6-.666-2h5.891l.667,2ZM42,30.414l1,1V36H41V31.414Zm-1-1.828V26h2v2.586l-.293-.293a1,1,0,0,0-1.414,0ZM44.612,42l.667,2H39.388l-.667-2ZM45,36V31.414L46.414,30h1.172L49,31.414V36Zm0-7.414V26h4v2.586l-.293-.293A1,1,0,0,0,48,28H46a1,1,0,0,0-.707.293ZM49.465,38,50.8,40H46.054l-.667-2ZM15,36V31.414L16.414,30h1.172L19,31.414V36Zm3.613,2-.667,2H13.2l1.333-2ZM15,28.586V26h4v2.586l-.293-.293A1,1,0,0,0,18,28H16a1,1,0,0,0-.707.293ZM19.388,42h5.891l-.667,2H18.721Zm.666-2,.667-2h5.891l-.666,2ZM22,30.414l1,1V36H21V31.414Zm-1-1.828V26h2v2.586l-.293-.293a1,1,0,0,0-1.414,0ZM25,36V31.414l1-1,1,1V36Zm1.707-7.707a1,1,0,0,0-1.414,0L25,28.586V26h2v2.586Zm-14,0a1,1,0,0,0-1.414,0L11,28.586V26h2v2.586ZM13,31.414V36H11V31.414l1-1ZM7,26H9v2.586l-.293-.293a1,1,0,0,0-1.414,0L7,28.586Zm0,5.414,1-1,1,1V36H7ZM4,38h8.132L10.8,40H4Zm0,4H9.465L8.132,44H4Zm1.465,6H4V46H6.8Zm9.814,0H7.869L9.2,46h6.744Zm1.334-4H10.535l1.334-2h5.41Zm.775,4,.666-2h5.892l-.667,2ZM31,60H14.414l10-10H31Zm0-12H25.387l.667-2H31Zm0-4H26.721l.666-2H31Zm0-4H28.054l.667-2H31Zm0-4H29V32.414L31.414,30h1.172L35,32.414V36H31ZM49.586,60H33V50h6.586ZM40.721,48l-.667-2h5.892l.666,2Zm6.666-4-.666-2h5.41l1.334,2Zm1.334,4-.667-2H54.8l1.333,2ZM60,48H58.535L57.2,46H60Zm0-4H55.868l-1.333-2H60Zm0-6v2H53.2l-1.334-2H60Z"></path></g></svg>