<?xml version="1.0" encoding="utf-8"?>
<!-- Generator: Adobe Illustrator 24.1.1, SVG Export Plug-In . SVG Version: 6.00 Build 0)  -->
<svg version="1.1" id="Layer_1" xmlns="http://www.w3.org/2000/svg" xmlns:xlink="http://www.w3.org/1999/xlink" x="0px" y="0px"
	 viewBox="0 0 100 100" style="enable-background:new 0 0 100 100;" xml:space="preserve">
<style type="text/css">
	.st0{fill:#F12D38;}
</style>
<g>
	<path class="st0" d="M92.2,40.6h3.1c0.9,0,1.6-0.7,1.6-1.6s-0.7-1.6-1.6-1.6c-2.6,0-5.1-1-6.9-2.9L82.8,29v-4h6.3
		c0.9,0,1.6-0.7,1.6-1.6s-0.7-1.6-1.6-1.6c-2.6,0-5.1-1-6.9-2.9L70.3,7.2v-4h-3.1v3.1H32.8V3.1h-3.1v4L17.8,19
		c-1.8,1.8-4.3,2.9-6.9,2.9c-0.9,0-1.6,0.7-1.6,1.6s0.7,1.6,1.6,1.6h6.3v4l-5.6,5.6c-1.8,1.8-4.3,2.9-6.9,2.9
		c-0.9,0-1.6,0.7-1.6,1.6s0.7,1.6,1.6,1.6h3.1v15.6H4.7c-0.9,0-1.6,0.7-1.6,1.6v18.8c0,0.9,0.7,1.6,1.6,1.6h29L17.6,94.2
		c-0.6,0.6-0.6,1.6,0,2.2c0.3,0.3,0.7,0.5,1.1,0.5h62.5c0.9,0,1.6-0.7,1.6-1.6c0-0.4-0.2-0.8-0.5-1.1L66.3,78.1h29
		c0.9,0,1.6-0.7,1.6-1.6V57.8c0-0.9-0.7-1.6-1.6-1.6h-3.1V40.6z M89.1,40.6v4l-0.5-0.5c-0.6-0.6-1.6-0.6-2.2,0l-0.5,0.5v-4H89.1z
		 M89.1,49.1v7.2h-3.1v-7.2l1.6-1.6L89.1,49.1z M20,21.2L31.9,9.4h36.2L80,21.2c0.2,0.2,0.5,0.4,0.7,0.6H19.3
		C19.6,21.7,19.8,21.5,20,21.2z M79.7,25v3.1h-25V25H79.7z M51.6,25v3.1h-3.1V25H51.6z M45.3,25v3.1h-25V25H45.3z M13.8,36.9
		l5.6-5.6h61.2l5.6,5.6c0.2,0.2,0.5,0.4,0.7,0.6H13.1C13.3,37.3,13.6,37.1,13.8,36.9z M82.4,44.2c-0.6-0.6-1.6-0.6-2.2,0l-0.5,0.5
		v-4h3.1v4L82.4,44.2z M82.8,49.1v7.2h-3.1v-7.2l1.6-1.6L82.8,49.1z M55.1,59.4l1,3.1h-4.6v-3.1H55.1z M54.7,46.2l-2-2
		c-0.3-0.3-0.7-0.5-1.1-0.5h-3.1c-0.4,0-0.8,0.2-1.1,0.5l-2,2v-5.6h9.4V46.2z M57.2,65.6l1,3.1h-6.7v-3.1H57.2z M59.4,47.5l1.6,1.6
		v7.2h-3.1v-7.2L59.4,47.5z M57.8,44.7v-4h3.1v4l-0.5-0.5c-0.6-0.6-1.6-0.6-2.2,0L57.8,44.7z M59.3,71.9l1,3.1h-8.8v-3.1H59.3z
		 M59.5,62.5l-1-3.1h9.2l1,3.1H59.5z M65.6,47.5l1.6,1.6v7.2h-3.1v-7.2L65.6,47.5z M64.1,44.7v-4h3.1v4l-0.5-0.5
		c-0.6-0.6-1.6-0.6-2.2,0L64.1,44.7z M69.7,65.6l1,3.1h-9.2l-1-3.1H69.7z M70.3,56.3v-7.2l2.2-2.2h1.8l2.2,2.2v7.2H70.3z M70.3,44.7
		v-4h6.3v4l-0.5-0.5c-0.3-0.3-0.7-0.5-1.1-0.5h-3.1c-0.4,0-0.8,0.2-1.1,0.5L70.3,44.7z M77.3,59.4l2.1,3.1H72l-1-3.1H77.3z
		 M23.4,56.3v-7.2l2.2-2.2h1.8l2.2,2.2v7.2H23.4z M29.1,59.4l-1,3.1h-7.4l2.1-3.1H29.1z M23.4,44.7v-4h6.3v4l-0.5-0.5
		c-0.3-0.3-0.7-0.5-1.1-0.5H25c-0.4,0-0.8,0.2-1.1,0.5L23.4,44.7z M30.3,65.6h9.2l-1,3.1h-9.2L30.3,65.6z M31.3,62.5l1-3.1h9.2
		l-1,3.1H31.3z M34.4,47.5l1.6,1.6v7.2h-3.1v-7.2L34.4,47.5z M32.8,44.7v-4h3.1v4l-0.5-0.5c-0.6-0.6-1.6-0.6-2.2,0L32.8,44.7z
		 M39.1,56.3v-7.2l1.6-1.6l1.6,1.6v7.2H39.1z M41.7,44.2c-0.6-0.6-1.6-0.6-2.2,0l-0.5,0.5v-4h3.1v4L41.7,44.2z M19.9,44.2
		c-0.6-0.6-1.6-0.6-2.2,0l-0.5,0.5v-4h3.1v4L19.9,44.2z M20.3,49.1v7.2h-3.1v-7.2l1.6-1.6L20.3,49.1z M10.9,40.6h3.1v4l-0.5-0.5
		c-0.6-0.6-1.6-0.6-2.2,0l-0.5,0.5V40.6z M10.9,49.1l1.6-1.6l1.6,1.6v7.2h-3.1V49.1z M6.3,59.4H19l-2.1,3.1H6.3V59.4z M6.3,65.6h8.5
		l-2.1,3.1H6.3V65.6z M8.5,75H6.3v-3.1h4.4L8.5,75z M23.9,75H12.3l2.1-3.1h10.5L23.9,75z M26,68.8h-9.5l2.1-3.1H27L26,68.8z
		 M27.2,75l1-3.1h9.2l-1,3.1H27.2z M48.4,93.8H22.5l15.6-15.6h10.3V93.8z M48.4,75h-8.8l1-3.1h7.7V75z M48.4,68.8h-6.7l1-3.1h5.6
		V68.8z M48.4,62.5h-4.6l1-3.1h3.6V62.5z M48.4,56.3h-3.1v-5.6l3.8-3.8h1.8l3.8,3.8v5.6H48.4z M77.5,93.8H51.6V78.1h10.3L77.5,93.8z
		 M63.6,75l-1-3.1h9.2l1,3.1H63.6z M74,68.8l-1-3.1h8.5l2.1,3.1H74z M76.1,75l-1-3.1h10.5l2.1,3.1H76.1z M93.8,75h-2.3l-2.1-3.1h4.4
		V75z M93.8,68.8h-6.5l-2.1-3.1h8.5V68.8z M93.8,59.4v3.1H83.1L81,59.4H93.8z"/>
</g>
</svg>
