<?xml version="1.0" encoding="utf-8"?>
<!-- Generator: Adobe Illustrator 24.1.2, SVG Export Plug-In . SVG Version: 6.00 Build 0)  -->
<svg version="1.1" id="Layer_1" xmlns="http://www.w3.org/2000/svg" xmlns:xlink="http://www.w3.org/1999/xlink" x="0px" y="0px"
	 viewBox="0 0 612 792" style="enable-background:new 0 0 612 792;" xml:space="preserve">
<style type="text/css">
	.st0{fill-rule:evenodd;clip-rule:evenodd;fill:#5C5B58;}
</style>
<path id="SVGID_1_" class="st0" d="M378.5,308.4c0.7,0.3,0.4,0,0.7,0.7c0.6,0.9,0.5,3,0.5,4.3c-3.7,2.3-6.4,6.1-9.8,8.6
	c-9.6,7.2-17.9,15.6-27.6,22.8c-1,1-1.9,1.9-2.9,2.9c-9.5,6.9-17.8,14.8-27.1,21.8c-4,3-7.1,7.3-11,10.3
	c-12.8,9.6-25.2,20.3-36.2,31.7c0,1.6,0.2,2.7,0.5,3.8c1.5,1,3.6,3.1,6.5,1.9c2.8-1.2,4.4-4,6.7-5.8c5.8-4.4,11-9.6,16.8-13.9
	c3.9-2.9,7.4-6.5,11.3-9.4c17.8-13.3,33.3-29,51.4-42.2c5.5-4,10.3-8.9,15.8-13c2-1.5,3.6-4.3,6.2-5c0,1.4,0,2.7,0,4.1
	c-3,1-5.1,4.4-7.4,6.2c-7.1,5.3-13.2,11.9-20.2,17c-1.8,1.3-9,6.2-9.4,8.2c0.1,0.1,0.2,0.2,0.2,0.2c5.2,0.1,7.3,3.8,11.8,4.1
	c1.6-2.4,4.2-4.1,6.5-5.8c3.3-2.5,6-6.1,9.4-8.6c2.8-2.1,5.9-4.1,8.4-6.5c0.4,0.2,0.2,0,0.5,0.2c0.4,0.6,0.3,2.1,0.2,3.1
	c-2.1,1.4-3.8,3.6-5.8,5c-4.3,3.2-7.9,6.6-11.8,10.1c-1.5,1.3-4.8,2.9-5,5.3c3,1.1,3.8,5.6,7,6.2c0.9-1.3,2.3-2.2,3.6-3.1
	c2.6-2,5-4.4,7.7-6.5c1.3-0.9,2-2.5,3.8-2.9c0.3,0.9,0.5,1.7,0.5,3.1c-4,2.6-7.1,6.5-10.8,9.4c-1.3,1-3.2,1.7-3.4,3.8
	c3.2,4.1,3.3,12.6,0.5,17c-3.8,6.1-14.7,10.5-20.9,14.6c-5.3,3.5-9.7,8.3-14.9,12c-9.4,6.7-20.5,11.1-32.4,15.4
	c-2.6,0.9-4.8,0.7-7.7,1.4c-5,1.3-17.2,2.8-23.5,1.4c-3.9-0.9-7.6-0.8-11.5-1.7c-5.7,0-11.4,0-17,0c-3.3-0.8-7.5-0.5-10.8-1.4
	c-7.7-2.2-13.4-7.2-16.3-14.2c-3.2-7.7-1.3-18.6,2.6-24c1.6-2.1,6.8-5,7.2-7.7c-2-3-0.2-12.6,0.7-15.1c4.3-11.4,13-17.9,28.1-18.5
	c1.5-2.7,2.2-6.4,3.8-9.1c4.5-7.3,17.5-17.3,30.7-12.5c3.7,1.4,7.8,3.1,10.8,5.3c1.7,1.3,2.3,3.5,5,3.8c3.5-4.6,15.9-6.7,22.8-3.8
	c1.7,0.7,3.9,1.6,5.5,2.6c1.3,0.8,1.6,1.9,3.6,2.2c1.1-1.6,3.2-2.7,4.8-3.8c2.6-1.9,4.8-4.3,7.4-6.2c1.3-1.4,2.6-2.7,3.8-4.1
	c3.2-2.5,5.9-5.5,9.1-7.9c4-3,7.3-6.6,11.3-9.6c0.7-0.8,1.4-1.6,2.2-2.4C373.6,312.7,376.3,310.7,378.5,308.4L378.5,308.4z
	 M273.8,343.7c-1.5,0.6-3,1.1-4.6,1.7c-3.3,1.7-6.8,4.2-8.9,7.2s-4,12.1-7,13.2c-1.6,1.1-4.7,0-7,0.5s-5.1,1-7.2,1.9
	c-5.5,2.4-8.2,6.4-10.8,11.8c-0.8,1.7-2.3,4.7-1.7,7.7c0.7,3.1,2,8.4,1.4,11.5c-1.9,1.2-8.5,4.9-9.6,6.5c-5.1,7.3-2.2,20.8,3.6,25
	c10.4,7.5,33.7,2.5,48.5,5.8c3.5,0.1,7,0.2,10.6,0.2c1,0.2,3.5,0.4,5,0c4.2-1,9-1.7,13.2-3.1c8.3-2.7,17.3-7.1,24.2-11.5
	c6.2-3.9,11.1-9.3,17-13.4c4.7-3.3,9.9-6.2,14.6-9.4c1.9-1.3,4.3-2.2,5.5-4.1c2.5-3.7,0.6-9-1-12c-4.2-7.8-12.1-14.2-24-14.2
	c-1.7,2.4-5,4.2-7.4,6c-0.5,0.6-1,1.1-1.4,1.7c-1.3,1-3.1,1.9-3.4,3.8c2.9,1.9,10,9.5,10.3,13.7c-1.2,0.8-1.9,1.5-3.8,1.7
	c-3.8-3.8-7.5-7.7-11.3-11.5c-0.4,0-0.8,0-1.2,0c-2.7,2.9-6.1,5-9.4,7.4c-2,1.5-3.5,3.8-5.5,5.3c-4.6,3.4-8.8,6.9-13.4,10.3
	c-4.9,3.6-8.9,8.8-13.9,12.2c-4.1,2.9-10.8,1.1-13.2-2.4c-3.4-5.1,0.5-10.6,3.6-13c8.9-6.7,16.7-14.2,25.7-20.9
	c3.4-2.5,6.1-6.2,9.8-8.4c-0.2-0.2-0.1-0.1-0.5-0.2c-1.5-1.3-4.7-1.1-7.4-1.2c-4.1-0.1-9.3,0-12.7,1c-2.3,0.7-4.2,0.6-6.2,1.4
	c-13,5.7-21.1,18.4-27.4,31c-1.6,3.2-2.9,6.7-4.1,10.1c-1.3,3.5-0.2,6-5,6c-0.5-1-1.1-2.1-1.4-3.4c-0.6-2.4,0.9-5,1.4-6.5
	c2-5.1,4-10,6.7-14.4c1.3-2.2,2-4.4,3.4-6.5c6.9-10.4,14.8-17.5,27.1-22.6c4.3-1.8,9.1-2.4,15.4-2.4c1.4,0,2.9,0,4.3,0
	c1.5,0.4,3.4,0.2,5.3,0.7c2.4,0.6,4.3,1.6,7.4,1.7c1.1-1.7,3.2-2.9,4.8-4.1c3-2.2,5.4-5.4,8.4-7.7c1.7-1.3,5.2-2.7,5.5-5.3
	c-3.2-1.5-8.5-5.5-14.2-4.1c-3.8,1-6.3,3.5-9.4,5c-0.8,0.4-3.4,1.1-4.1,0.7c-3.5-0.9-4.7-3.7-7.2-5.5
	C286.9,345.4,281.9,343.8,273.8,343.7L273.8,343.7z"/>
</svg>
