<?xml version="1.0" encoding="utf-8"?>
<!-- Generator: Adobe Illustrator 24.1.2, SVG Export Plug-In . SVG Version: 6.00 Build 0)  -->
<svg version="1.1" id="Layer_1" xmlns="http://www.w3.org/2000/svg" xmlns:xlink="http://www.w3.org/1999/xlink" x="0px" y="0px"
	 viewBox="0 0 100 100" style="enable-background:new 0 0 100 100;" xml:space="preserve">
<style type="text/css">
	.st0{fill:#FFA914;}
</style>
<path class="st0" d="M18.3,55.1l-2.2,11.8c0,0.9,0,1.8,0.9,2.2c0.9,0.4,1.8,0.4,2.2,0l10.5-5.7l10.5,5.7c0.4,0,0.9,0.4,0.9,0.4
	c0.4,0,0.9,0,1.3-0.4c0.9-0.4,0.9-1.3,0.9-2.2l-2.2-11.8l8.8-8.3c0.4-0.4,0.9-1.3,0.4-2.2s-0.9-1.3-1.8-1.3l-11.8-1.8l-5.3-10.9
	c-0.9-1.3-3.1-1.3-3.9,0l-5.3,10.9l-11.8,1.8c-0.9,0-1.3,0.9-1.8,1.3c-0.4,0.9,0,1.8,0.4,2.2L18.3,55.1z"/>
<path class="st0" d="M57.7,14.6l-1.7,4.6c-0.1,0.9-0.3,1.8,0.5,2.3c0.8,0.5,1.7,0.7,2.2,0.4l4.7-1.5l4,2.9c0.4,0.1,0.8,0.5,0.8,0.5
	c0.4,0.1,0.9,0.1,1.3-0.2c1-0.3,1.1-1.1,1.2-2l-0.1-4.9l4-2.9c0.5-0.3,1.1-1.1,0.7-2.1c-0.3-1-0.7-1.4-1.6-1.6l-4.6-1.7l-1.5-4.7
	C67.2,2.4,65,2,64,3.2l-2.9,4l-4.5,0.2c-0.9-0.1-1.4,0.7-2,1c-0.5,0.8-0.3,1.8,0,2.2L57.7,14.6z"/>
<path class="st0" d="M69.5,38.1c0.1,1,0.8,1.6,1.4,1.8l4.7,1.5l1.9,4.4c0.4,0.8,0.8,1.6,1.8,1.5c0.5,0.2,1-0.1,1.3-0.2
	s0.8-0.4,0.6-0.8l2.9-4l4.9-0.1c1-0.1,1.8-0.5,2-1c0.6-0.8,0.2-1.6-0.2-2.4L87.7,35l1.5-4.7c0.2-0.5,0.2-1.6-0.7-2.1
	c-0.8-0.6-1.4-0.7-2.2-0.3l-4.7,1.4l-4-2.9c-0.8-0.6-1.8-0.6-2.2-0.3c-0.4,0.2-1.4,1.2-1,2l0.1,4.9l-3.8,3
	C70.1,36.3,69.5,37,69.5,38.1z"/>
<path class="st0" d="M88,61.2l-4.7-1.6l-1.6-4.7c-0.3-0.9-1.1-1.5-1.6-1.5c-0.4-0.1-1.8,0.1-2,1l-2.6,4.1l-4.9,0.2
	c-0.9-0.1-1.4,0.7-2,1c-0.5,0.8-0.3,1.8,0.1,2.2l3,4l-1.6,4.6c-0.1,0.9-0.3,1.8,0.6,2.3c0.3,0.5,0.8,0.5,1.2,0.6
	c0.4,0.1,0.9,0.1,0.9-0.3l4.7-1.6l4,2.8c0.8,0.5,1.7,0.6,2.2,0.3c0.9-0.3,1.1-1.2,1.2-2.1l-0.2-4.9l4-3c0.5-0.3,1.1-1.2,0.7-2.1
	C89.6,61.8,88.8,61.3,88,61.2z"/>
<path class="st0" d="M57.6,86.4l-3.5,3.4c-0.5,0.7-1,1.5-0.5,2.3c0.5,0.8,1.2,1.4,1.8,1.3l4.9,0.7l2.3,4.3c0.3,0.2,0.5,0.8,0.5,0.8
	c0.3,0.2,0.7,0.5,1.3,0.4c1,0.2,1.5-0.5,2-1.3l2-4.4l4.9-0.9c0.6-0.1,1.5-0.5,1.6-1.6c0.2-1,0-1.6-0.7-2.1L70.7,86l0.7-4.9
	c0-1.6-1.8-2.8-3.2-2.2l-4.3,2.3l-4.4-2c-0.7-0.5-1.6,0-2.2,0c-0.8,0.5-1,1.5-0.9,2L57.6,86.4z"/>
</svg>
