<?xml version="1.0" encoding="utf-8"?>
<!-- Generator: Adobe Illustrator 24.1.1, SVG Export Plug-In . SVG Version: 6.00 Build 0)  -->
<svg version="1.1"
	 id="图层_1" xmlns:cc="http://creativecommons.org/ns#" xmlns:dc="http://purl.org/dc/elements/1.1/" xmlns:inkscape="http://www.inkscape.org/namespaces/inkscape" xmlns:rdf="http://www.w3.org/1999/02/22-rdf-syntax-ns#" xmlns:sodipodi="http://sodipodi.sourceforge.net/DTD/sodipodi-0.dtd" xmlns:svg="http://www.w3.org/2000/svg"
	 xmlns="http://www.w3.org/2000/svg" xmlns:xlink="http://www.w3.org/1999/xlink" x="0px" y="0px" viewBox="0 0 119.2 119.2"
	 style="enable-background:new 0 0 119.2 119.2;" xml:space="preserve">
<style type="text/css">
	.st0{fill:#FFFFFF;}
</style>
<sodipodi:namedview  bordercolor="#666666" borderopacity="1" fit-margin-bottom="0" fit-margin-left="0" fit-margin-right="0" fit-margin-top="0" gridtolerance="10" guidetolerance="10" id="namedview61" inkscape:current-layer="_x23_14027cff_2_" inkscape:cx="-31.219214" inkscape:cy="74.472046" inkscape:pageopacity="0" inkscape:pageshadow="2" inkscape:window-height="1018" inkscape:window-maximized="1" inkscape:window-width="1920" inkscape:window-x="-8" inkscape:window-y="-8" inkscape:zoom="3.7322732" objecttolerance="10" pagecolor="#ffffff" showgrid="false">
	</sodipodi:namedview>
<g id="_x23_ffffffff_1_" transform="translate(-1.7045485,-1.1002486)">
</g>
<g id="_x23_14027cff_2_" transform="translate(-1.7045485,-1.1002486)">
	<path id="path5" inkscape:connector-curvature="0" class="st0" d="M44.3,14.4C58,9.2,74,10.6,86.6,18.1c11.6,7,20.8,19.4,22.9,30.9
		c-5.1,0-6.3,0.2-11.5,0.2c-3.3-10.6-15.3-22.6-25.1-25c-12.8-2.7-23.2-0.8-32.1,5.5c-6.6,4.5-12.7,12.4-15,20.1
		c-3.4,9.9-0.7,23.9,5.1,32.6c4.5,6.5,12.3,12.6,19.9,15c7.4,2.3,19.4,0.1,26.7-2.5c10.2-3.7,17.8-13.1,21.1-23.5l-14.3,0.2
		c-0.7,4.8-1.4,6.4-4.3,11.8l-39.1-0.1V37.7l0,0h39c4.6,5.9,5.4,15.2,5.5,22.9c0,0,15.6,0.1,25.3,0c-0.1,14.9-6.4,29.5-18.2,38.6
		c-8.6,6.8-19.4,10.7-30.4,10.7c-15.4,0.4-30.6-7-39.8-19.3c-5.9-7.5-9-16.8-10.3-26.2l0,0c-0.3-5.7,0.1-8.6,0.2-9
		c1.1-6.5,2.8-13.1,6.2-18.8C24,26.5,33.4,18.4,44.3,14.4 M51.8,48.1v25.7l18.9,0.1c4.3-4.9,4.1-8.1-0.2-12.6
		c4.3-4.5,4.5-9.3,0.1-13.1L51.8,48.1"/>
</g>
</svg>
