<?xml version="1.0" encoding="utf-8"?>
<!-- Generator: Adobe Illustrator 24.1.1, SVG Export Plug-In . SVG Version: 6.00 Build 0)  -->
<svg version="1.1" id="Layer_1" xmlns="http://www.w3.org/2000/svg" xmlns:xlink="http://www.w3.org/1999/xlink" x="0px" y="0px"
	 viewBox="0 0 737.3 696" style="enable-background:new 0 0 737.3 696;" xml:space="preserve">
<style type="text/css">
	.st0{fill:#F12D38;}
</style>
<path class="st0" d="M499.2,1.5h117.2c24.7,0,44.9,21.4,44.9,45.6v11.7c0,24.2-20.1,43.1-44.9,43.1H514.2
	c-153.2,0-303.6,86.7-298.3,249.4c3.9,153.1,150.4,242.4,298.3,242.4h102.2c24.7,0,44.9,19.6,44.9,43.6v11.1
	c0,23.5-24,44.9-47.5,46.3H504.3c-160.1,1.9-332.2-76.9-399.3-226c-53.3-118-23.3-256.7,80.9-352.6C273.1,36.7,383.9,1.5,499.2,1.5z
	 M518.1,138.3h98.3c24.7,0,44.9,20.8,44.9,46.3V197c0,25.4-20.1,46.3-44.9,46.3c-34.6,0-68.5,0.6-102.9,0
	c-33.9,2.5-66.4,7.8-92.5,30.6c-43.6,36.5-47.5,99.7-6.5,139.4c25.4,24,65.8,37.8,99.7,37.8h102.2c24.7,0,44.9,21.5,44.9,47.5V511
	c0,26.1-20.1,46.9-44.9,46.9H514.2c-73.6,0-157.6-26.7-207.2-82.8c-64.4-72.9-76.8-181.7,15.7-271
	C396.3,132.4,518.1,138.3,518.1,138.3"/>
</svg>
