<?xml version="1.0" encoding="utf-8"?>
<!-- Generator: Adobe Illustrator 24.1.1, SVG Export Plug-In . SVG Version: 6.00 Build 0)  -->
<svg version="1.1" id="Layer_1" xmlns="http://www.w3.org/2000/svg" xmlns:xlink="http://www.w3.org/1999/xlink" x="0px" y="0px"
	 viewBox="0 0 100 100" style="enable-background:new 0 0 100 100;" xml:space="preserve">
<style type="text/css">
	.st0{fill:#59C394;}
</style>
<g>
	<g>
		<path class="st0" d="M53.9,99.6c0,0-0.1,0-0.1,0c-0.8-0.1-1.3-0.8-1.3-1.5c0.3-3.2-0.5-7.8-1.5-13.2c-2.6-14-6.2-33.7,8-48.8
			c0.7-4.5,0.5-9.9-0.7-14.9c0.7,10-3.3,16.5-7.5,23.2c-1.3,2-2.6,4.1-3.7,6.3c-0.2,0.4-0.7,0.7-1.2,0.7c-0.5,0-1-0.2-1.2-0.6
			c-3.5-5-2.1-11.9-0.5-19.2c0-0.1,0-0.2,0.1-0.2c-0.8,0.9-1.7,1.6-2.7,2c-0.6,0.2-1.3,0-1.7-0.6c-0.5-0.9-1.4-1.8-2.3-2.8
			c1,2.3,1.9,4.9,2.7,7.9c0,0.1,0,0.2,0,0.3l4,59.9c0.1,0.8-0.5,1.4-1.3,1.5c-0.8,0-1.4-0.5-1.5-1.3l-4-59.7
			c-1.8-6.8-4.1-11.4-6.8-13.8c-1.3-0.8-2.4-1.4-3.3-1.7c-2.6-0.5-5.8,0.7-9.5,3.6c-0.6,0.5-1.5,0.4-2-0.2c-0.5-0.6-0.4-1.5,0.2-2
			c4.4-3.5,8.4-4.8,11.9-4.1c0,0,0.1,0,0.1,0c0.3,0.1,0.6,0.1,0.9,0.2c1.2,0.4,2.3,1.1,3.4,2c3.2,2,6.9,4.9,9,7.6
			c1.8-1.5,3.5-5.4,4.4-8.7c0.2-2.8,0-5.6-0.8-8.1c-0.3-0.7,0.1-1.5,0.9-1.8c0.7-0.2,1.5,0.1,1.8,0.9c2.1,6.2,0.7,13.1-0.7,19.7
			c-1.2,5.5-2.3,10.8-1,14.8c0.8-1.4,1.7-2.8,2.5-4.1C53.8,34,58.6,26.4,53,10.2c-0.2-0.6,0-1.3,0.6-1.7c0.6-0.3,1.3-0.2,1.8,0.3
			c5.4,6.2,7.1,16.2,6.6,24.2c2.8-2.4,6-4.6,9.9-6.6c0.7-0.4,1.5-0.1,1.9,0.6c0.4,0.7,0.1,1.5-0.6,1.9c-5,2.6-8.9,5.5-12,8.7
			c0,0-0.1,0.1-0.1,0.1c-13.5,14-10.1,32.5-7.5,46.6c1,5.6,1.9,10.4,1.6,14C55.2,99.1,54.6,99.6,53.9,99.6z"/>
		<path class="st0" d="M67.3,82c-0.1,0-0.1,0-0.2,0c-0.8-0.1-1.3-0.8-1.2-1.6c3.2-23.7,0.6-36.9-8-40.3c-0.7-0.3-1.1-1.1-0.8-1.8
			c0.3-0.7,1.1-1.1,1.8-0.8c10,3.9,13.2,18.1,9.8,43.3C68.6,81.4,68,82,67.3,82z"/>
		<path class="st0" d="M82.9,76.1C82.9,76.1,82.9,76.1,82.9,76.1c-0.8,0-1.4-0.7-1.4-1.4c0.1-3.3,0.2-6.8,0.3-10.2
			C82.5,49.6,83.1,34.3,78,30c-1.3-1.1-2.9-1.4-5.1-0.9c-0.8,0.2-1.5-0.3-1.7-1.1c-0.2-0.8,0.3-1.5,1.1-1.7c3-0.6,5.5-0.1,7.5,1.5
			c6.2,5.2,5.5,20.5,4.9,36.8c-0.1,3.4-0.3,6.9-0.3,10.2C84.3,75.5,83.7,76.1,82.9,76.1z"/>
		<path class="st0" d="M98.4,64.6C98.4,64.6,98.4,64.6,98.4,64.6c-0.8,0-1.4-0.7-1.4-1.4l0-0.7c0.3-12,0.6-24.4-4.8-28.5
			c-2.4-1.8-5.9-2-10.6-0.5c-0.7,0.2-1.5-0.2-1.8-0.9c-0.2-0.7,0.2-1.5,0.9-1.8c5.7-1.8,10-1.4,13.1,0.9c6.6,5,6.2,17.5,5.9,30.8
			l0,0.7C99.8,64,99.2,64.6,98.4,64.6z"/>
		<path class="st0" d="M73.6,25C73.5,25,73.5,25,73.6,25c-0.9-0.1-1.5-0.7-1.4-1.5c0.5-6.8-1.4-15.7-6.6-19.1
			c-3-1.9-7.1-2.1-9.2-0.4c-1.7,1.4-1.3,3.6-0.6,5.2c0.3,0.7-0.1,1.5-0.8,1.8c-0.7,0.3-1.5-0.1-1.8-0.8c-1.4-3.5-0.8-6.5,1.5-8.5
			c3.1-2.5,8.4-2.4,12.5,0.2c6.2,4,8.4,13.8,7.9,21.6C74.9,24.4,74.3,25,73.6,25z"/>
		<path class="st0" d="M26.1,75.2c-0.7,0-1.4-0.6-1.4-1.3c-0.2-3.1-0.5-6.3-0.8-9.4c-1.5-15.3-3.1-31.2,8.8-39.6
			c0.6-0.5,1.5-0.3,2,0.3c0.4,0.6,0.3,1.5-0.3,2c-10.6,7.5-9.2,21.9-7.6,37c0.3,3.1,0.6,6.4,0.8,9.5C27.6,74.5,27,75.1,26.1,75.2
			C26.2,75.2,26.1,75.2,26.1,75.2z"/>
		<path class="st0" d="M14.9,78.8c-0.7,0-1.4-0.6-1.4-1.3c-0.2-5.1-1.2-10.7-2.1-16.1C9,47.2,6.6,32.5,16,24.4
			c0.6-0.5,1.5-0.4,2,0.2c0.5,0.6,0.4,1.5-0.2,2c-8.2,7-5.9,20.9-3.6,34.3c0.9,5.5,1.9,11.2,2.1,16.4C16.4,78.1,15.8,78.8,14.9,78.8
			C15,78.8,15,78.8,14.9,78.8z"/>
		<path class="st0" d="M2.9,70.7c-0.7,0-1.3-0.5-1.4-1.3l0-0.1c-1.7-16.7-3.2-32.5,3.4-39.6c2.4-2.6,5.8-3.8,10.1-3.6
			c0.8,0,1.4,0.7,1.4,1.5c0,0.8-0.7,1.3-1.5,1.4c-3.5-0.2-6.1,0.8-8,2.8c-5.8,6.1-4.2,22-2.7,37.4l0,0.1c0.1,0.8-0.5,1.5-1.3,1.5
			C3,70.7,2.9,70.7,2.9,70.7z"/>
		<path class="st0" d="M26.8,17c0,0-0.1,0-0.1,0c-0.8-0.1-1.4-0.7-1.3-1.5C26,7.7,29.5,2.7,34.9,2.1c5.4-0.5,10.7,3.8,12.6,10.4
			c0.2,0.7-0.2,1.5-1,1.7c-0.7,0.2-1.5-0.2-1.7-1c-1.8-6-6.2-8.7-9.6-8.4c-3.9,0.4-6.6,4.5-7,10.8C28.1,16.5,27.5,17,26.8,17z"/>
	</g>
	<path class="st0" d="M59.5,100H37.6c-0.8,0-1.4-0.6-1.4-1.4s0.6-1.4,1.4-1.4h21.9c0.8,0,1.4,0.6,1.4,1.4S60.3,100,59.5,100z"/>
</g>
</svg>
