<?xml version="1.0" encoding="utf-8"?>
<!-- Generator: Adobe Illustrator 24.1.2, SVG Export Plug-In . SVG Version: 6.00 Build 0)  -->
<svg version="1.1" id="Layer_1" xmlns="http://www.w3.org/2000/svg" xmlns:xlink="http://www.w3.org/1999/xlink" x="0px" y="0px"
	 viewBox="0 0 720 648" style="enable-background:new 0 0 720 648;" xml:space="preserve">
<style type="text/css">
	.st0{fill:none;}
	.st1{fill:#F12D38;}
</style>
<g>
	<path class="st0" d="M314.5,534.4c3.2,5.4-2.9,11.8,0.5,17.8c9.9,3.8,28.4-20.4,29.6-29c-0.2,0-0.4,0-0.7,0
		C338.8,526.3,318.8,531.4,314.5,534.4z"/>
	<path class="st0" d="M392.2,533.7c-6.6-2.2-22.4-8.3-29.1-10.5c1.2,7.6,21.9,30,29.9,28c0.5-0.6,1-1.3,1.4-1.9
		C394.4,543.6,391.6,540.1,392.2,533.7z"/>
	<path class="st0" d="M183.8,188.1c-6.6-11-17.9-18.3-25.2-28.7c-4.4-6.3-4.8-17.4-10.8-22.1c-16.8,5.5-17.6-5-24.5-12.3
		c-1,14.1-13.4,21.5-10,38.8c2.9,14.9,22.4,29.4,11.3,44.3c18.4,2.1,11.8,16.2,15.2,31.3c0.6,0.3,1.3,0.8,1.9,1.1
		c7.1,1.9,11.8-5.5,13.9-10c-5.3-5.2-9.4-15.3,1.6-18.3c11-2.9,18.9,8.9,17.1,19.1c-6.1,32.8-55.1,44.9-53.1-5
		c-12-0.8-18.7-10-15.2-22.9c-0.3,0-0.5,0-0.8,0c-5.3-2.4-14.7-2.3-12.8,6.1c2.1,9.5,11.5,14.1,15.8,21.3c3.7,6,2.7,17.1,6.9,22.9
		c9.5,12.8,38.9,13.2,55.9,6.1C195.4,249.6,198.3,212,183.8,188.1z"/>
	<path class="st0" d="M212.8,329c-3.6,1.5-7,1.3-9.8,3.2c-5.8,3.6-17.5,15.7-11.4,24.7c9.9-0.1,29.6-2,33.6,4.1
		c2.1,3.2,1.7,10.5,2.5,14.6c0.8,0.4,1.5,0.8,2.2,1.3c4.1-0.7,14.3-12.2,15.2-16.1c1.1-4.2-0.8-9.9-2.2-13.4
		C238.5,336.8,227.9,328.9,212.8,329z"/>
	<path class="st0" d="M450.8,196.8c3.2-8.4,6.3-21.5,9.4-30.4c0-0.1,2-9.2,2-9.2c-36.4-0.1-76.8-0.2-113.2-0.2c-13,0-25.9,0-38.9,0
		c-5.3,0.1-10.6,0.2-15.8,0.2c-5,0-15.9,0-20.9,0c-10.4,0-20.9,0.1-30.5,0.7c5.7,16.5,17.4,46,23,62.4c14.7,0.2,29.3,0.1,43.9,0
		c-0.1-8.2-1.6-36.4,1.7-41.2c2.9-4.2,12.6-4.5,20.2-3.4c14.2,2.1,29.2,0.2,43.7,0.2c6.3,0,14.9-1.4,19,1.4
		c5.6,3.8,0.4,34.8,2.4,42.8c10.3,0.1,20.6,0.2,31,0.2c3.5,0.5,11.4,1.1,14.4-0.2C445.1,212.3,448,204.6,450.8,196.8z"/>
	<path class="st0" d="M487.4,336.9c-2.5,1.3-4.9,2.5-7.4,3.6c-8,5.4-12.1,13.4-12.6,23.3c-0.1,2.3-0.4,6.1,1.3,8.9
		c3.1,4.8,11.4,8.2,16.2,10.7c1.9-0.5,2.6-0.9,3.5-1.8c-0.2-5.4-2.6-12.9,0.5-16.4c5.9-6.6,22.9-4.5,30.3-10.3
		C520.1,344.3,505.1,332.1,487.4,336.9z"/>
	<path class="st0" d="M597.7,191c0,0.3,0,0.4,0,0.7c-2.3,6.2,2.8,13.5,1.5,20.9c-3.5,18.5-6.4,33.1-25.4,36.3
		c-5.8,1-12.1-1-15.7-3.5c-16.6-11-20.2-49.4,5.5-52.3c8.9-1,12.6,11.5,8,17.7c-2.2,2.9-6.8,3.1-8.4,6.7c-3.6,8.1,7.8,10.8,12.9,8.7
		c2-3.9,5.7-13.5,4.9-19.2c-0.6-4.1-2-7.4-2-12.5c0.6-5.5,1.2-10.9,1.7-16.4c-1.6-4.8-3.2-9.6-4.9-14.2c-1.7-10.9,8.3-22.7,3.2-28.5
		c-2.3,1.7-4.7,3.5-7,5.2c-3.8,6.8-7.7,13.7-11.5,20.6c-5.3,6.2-14.1,8.4-23.4,15.7c-8.9,7-25.6,32.4-20.2,50.6
		c2.6,8.7,14.1,11.8,19.2,18.5c4.4,5.8,6.2,13.8,12.5,17.7c23,14.2,53.1-0.4,58.3-23c3.6-15.4-2.8-35.2,2-49.6c0-0.1,0-0.3,0-0.3
		C604.5,192,601.9,193,597.7,191z"/>
	<path class="st0" d="M324.8,316.9c19.5-0.8,38.3,0.3,58.2,0.3c-0.2-21.8-0.3-47.6-0.5-69.5c-0.3-12.2-0.6-41.2-1-53.4
		c-13.8,0-27.5,0-41.3,0c-3.8,0-12.8-1.3-15.1,0.7c-0.2,10.1-0.5,37.1-0.7,47.1c0,15.8,0.3,30.8,0.2,46.4
		C324.6,296,323,309.8,324.8,316.9z M363.8,301.6c-5.3,1.4-15.7,1.8-19.7-0.7c-1.8-4.4-3.3-16-0.7-20.3c3.8,0,7.5-0.3,11.2-0.5
		c2.7,0.1,5.5,0.3,8.2,0.3C367.1,283.6,366.7,296.9,363.8,301.6z M363.8,266.6c-5.3,1.4-15.7,1.8-19.7-0.7c-1.8-4.4-3.3-16-0.7-20.3
		c3.8,0,7.5-0.3,11.2-0.5c2.7,0.1,5.5,0.3,8.2,0.3C367.1,248.6,366.7,261.9,363.8,266.6z M343.2,208.6c3.8,0,7.5-0.3,11.2-0.5
		c2.7,0.1,5.5,0.3,8.2,0.3c4.2,3.3,3.8,16.7,1,21.3c-5.3,1.4-15.7,1.8-19.7-0.7C342.1,224.5,340.6,212.9,343.2,208.6z"/>
	<path class="st1" d="M625.5,203.9c1.6-10.5,12.5-18.7,5.2-30.7c-6.7-10.9-23-6.7-32.1-1c-1.3-3.8-5.2-9.4-4.2-14.2
		c1.5-4.4,3.1-8.6,4.5-12.9c1.7-8.4-4.5-28.6-8.7-31.7c-2-1.3-4.9-1.3-7.7-2c-10.2,4.5-16,7.7-21.9,15.8c-4.1,5.7-9,15-14.2,19.5
		c-6.4,4.1-12.8,8-19.2,11.9c-15.4,11.9-36.6,47.5-27.2,77c4.9,15.3,15.3,14.8,22.7,24.7c2.3,4.4,4.7,8.6,7,12.9
		c5.5,7.7,16.3,13.4,26.5,16.4c9.7,2.9,20.9,0.4,28.9-2c22.2-7,34.9-19.5,40.1-43.3C627.9,231.6,623.3,217.7,625.5,203.9z
		 M608.9,191.3c-4.8,14.4,1.6,34.2-2,49.6c-5.2,22.5-35.3,37.2-58.3,23c-6.3-3.9-8.1-11.9-12.5-17.7c-5.1-6.7-16.6-9.7-19.2-18.5
		c-5.4-18.2,11.3-43.6,20.2-50.6c9.3-7.3,18.1-9.5,23.4-15.7c3.8-7,7.7-13.8,11.5-20.6c2.3-1.7,4.7-3.5,7-5.2
		c5.1,5.8-4.9,17.6-3.2,28.5c1.7,4.7,3.3,9.4,4.9,14.2c-0.6,5.5-1.2,10.9-1.7,16.4c0,5.1,1.5,8.4,2,12.5c0.7,5.7-2.9,15.3-4.9,19.2
		c-5.1,2-16.6-0.6-12.9-8.7c1.6-3.6,6.2-3.8,8.4-6.7c4.7-6.2,0.9-18.7-8-17.7c-25.7,2.9-22.1,41.3-5.5,52.3
		c3.6,2.5,9.9,4.5,15.7,3.5c19-3.2,21.9-17.9,25.4-36.3c1.3-7.4-3.8-14.7-1.5-20.9c0-0.3,0-0.4,0-0.7c4.2,2,6.8,1,11.2,0
		C608.9,191,608.9,191.1,608.9,191.3z"/>
	<path class="st1" d="M203.1,185.8c-6.5-14.9-18.7-23.1-27.9-34.9c-11.3-14.4-5.8-34.2-33.8-31.3c-5-10.8-6.1-27-22.1-26.8
		c-8.1,4.2-11.8,7.1-13.4,18.1c-0.3,4.5-0.5,9.2-0.8,13.9c-6.1,20.7-16.8,33.4-4.2,58.5c0,0,0,0.2,0,0.3
		c-20.7-0.3-33.3,15-24.9,35.2c3.7,9,11.3,13.9,16.3,21.3c4.4,6.5,2.9,17.8,8.6,25.2c14.2,18.7,52.7,22.6,78.7,11.3
		C210.2,263.2,218.5,221.7,203.1,185.8z M115.1,253.7c-4.2-5.8-3.2-17-6.9-22.9c-4.4-7.3-13.7-11.8-15.8-21.3
		c-1.9-8.4,7.4-8.6,12.8-6.1c0.3,0,0.5,0,0.8,0c-3.6,12.9,3.2,22.1,15.2,22.9c-1.9,49.9,47,37.8,53.1,5c1.8-10.2-6.1-22-17.1-19.1
		c-11,2.9-6.9,13.1-1.6,18.3c-2.1,4.5-6.8,12-13.9,10c-0.6-0.3-1.3-0.8-1.9-1.1c-3.4-15.2,3.2-29.2-15.2-31.3
		c11.1-14.9-8.4-29.4-11.3-44.3c-3.4-17.3,9-24.7,10-38.8c6.9,7.3,7.8,17.8,24.5,12.3c6,4.7,6.5,15.8,10.8,22.1
		c7.3,10.5,18.6,17.8,25.2,28.7c14.5,23.9,11.6,61.5-12.8,71.7C154,266.9,124.6,266.4,115.1,253.7z"/>
	<path class="st1" d="M362.9,280.3c-2.7,0-5.5-0.1-8.2-0.3c-3.7,0.3-7.4,0.5-11.2,0.5c-2.6,4.4-1.1,16,0.7,20.3
		c4,2.5,14.3,2,19.7,0.7C366.7,296.9,367.1,283.6,362.9,280.3z"/>
	<path class="st1" d="M362.9,245.3c-2.7,0-5.5-0.1-8.2-0.3c-3.7,0.3-7.4,0.5-11.2,0.5c-2.6,4.4-1.1,16,0.7,20.3
		c4,2.5,14.3,2,19.7,0.7C366.7,261.9,367.1,248.6,362.9,245.3z"/>
	<path class="st1" d="M363.6,229.6c2.9-4.6,3.3-18-1-21.3c-2.7,0-5.5-0.1-8.2-0.3c-3.7,0.3-7.4,0.5-11.2,0.5
		c-2.6,4.4-1.1,16,0.7,20.3C347.9,231.4,358.2,231,363.6,229.6z"/>
	<path class="st1" d="M526.5,338.6c-4.8-6.4-13.2-11.8-21.6-14.4c-3.2-0.4-6.3-0.9-9.4-1.4c-3-1.1-6.1-4.2-9.4-5.5
		c-9-3.5-28.4-3.5-36.8-1.3c8.2-6.2,22.4-12,20-27.8c-0.9-5.5-1.4-7.4-3.3-11.3c-1.7-3.5-3.9-7.5-8-9.2c-4.6-2-6.2,2.3-8.8,1
		c-0.2,0-0.3,0-0.5,0c0-1.2,0.1-2.5,0.2-3.8c4.6-4.7,7.7-8,9.1-16.3c0.8-4.4,0.5-9.2,1.3-12.7c5.2-14.4,11.4-45.9,16.6-60.4
		c2-5,11.8-26.3,7.6-31.4c-3.7-4.5-20.7-3.2-30-3c-12.5-0.8-22.2,0.6-29.3,0.3c-5-10.4-11.1-14-18.7-18.7c-5-3-8.9-2.4-14.8-4.2
		c-2.4-0.8-10.5-1.2-12.2-2.6c2.5-3.9,4.5-7.9,5.5-13.4c3-17-14-37.3-30.7-34.6c-16.1,2.6-25.2,9.7-29.3,24.2
		c-1,3.5-1.8,9.1-0.7,13.4c1,4.2,3.3,7.1,4.8,10.6c0.2,0.2,0.3,0.3,0.5,0.5c-5.4,1.8-9.1,0.1-14.5,1.9c-10.1,1.2-23.9,9.2-30.9,21.4
		c-11,0-56.8-3.3-61.4,3c-4.4,5.9,11.9,47.6,13.9,53.4c3.2,9.8,6.3,19.5,9.4,29.3c1.2,3.2,2.5,6.4,3.8,9.6c-0.4,1.4-0.8,2.7-1.2,4.1
		c-0.8,4.3-0.4,9.6,0.7,13.2c1.7,5.6,6.9,9,7.7,13.7c-23.3,3.6-26.4,34.4-5,42.5c0,0.2,0.1,0.3,0.2,0.5c-8.8-0.9-25,2.2-31.5,5.9
		c-2,1.4-7.9,2.7-9.8,4.1c-2.4,0.4-4.9,0.7-7.4,1c-8.9,2.8-17.6,8.4-22.3,15.4c-7.8,11.6-7.3,29.4,5.8,34.8
		c4.6,1.8,22.8-1.1,28.8-1.1c0.8,3.5-1.5,8.8,0.2,12c0.7,1.3,2.2,0.9,2.9,1.9c0.4,1.8,0.9,3.7,1.4,5.5c1.4,2.8,2.9,5.5,4.3,8.2
		c4.9,7.4,20.7,18.4,35,16.1c4.6-0.8,8.3-2.4,12-3.6c3.2,2.8,3.3,13,2.4,19.2c-0.2,5-0.3,9.9-0.5,14.9c-1.5,9.4-3.4,39,1.2,45.1
		c1.7,2.3,5.4,3.2,9.1,3.4c1.6,9.8,3.2,19.5,4.8,29.3c0.7,3.8,0.3,8.5,2.6,10.8c3.4,3.4,3,5.6,9.7,5.6c1.1,3.4-2.1,6.9-1.4,11.5
		c0.7,4.5,2.7,7.9,5,10.8c2.4,3,5.7,4.5,10.1,5.5c14.8,3.5,35.8-14.7,39.7-24.4c0.2,0,0.3-0.1,0.5-0.2c4.7,7,19.3,16.7,27.2,20.4
		c3.1,1.5,8.3,1.7,12.2,1c15.9-3.1,16.1-12.1,15.1-28.1c0,0,4,1,7.3-1.2c5.8-3.9,5.1-19.9,6.7-28.8c0.8-4.6,1.7-9.3,2.6-13.9
		c3.4-1.1,6.5-1,8.2-3.6c2.5-3.9,2.9-15.4,1.9-22.1c-0.2-6.6-0.3-13.3-0.5-19.9c-1.4-9.6-0.4-21.5,0-30.7c4.8,1.6,9.1,3.6,15.6,4.1
		c19,1.5,45.9-12.7,48.3-28c0.8-0.2,1.6-0.5,2.4-0.7c1.8-3.1,0.8-8.2,0.7-13c0,0,36-6.6,29.1-29.2
		C529.4,344.4,527.9,341.5,526.5,338.6z M245.3,360.8c-0.9,4-11.1,15.5-15.2,16.1c-0.8-0.5-1.5-0.9-2.2-1.3
		c-0.8-4.1-0.4-11.4-2.5-14.6c-4-6.1-23.7-4.2-33.6-4.1c-6.1-9,5.6-21.2,11.4-24.7c2.8-1.9,6.2-1.7,9.8-3.2
		c15.1-0.1,25.7,7.8,30.2,18.4C244.5,350.8,246.3,356.5,245.3,360.8z M292.2,347.7c18.2-0.9,20.8,20.3,8.1,25
		C282.5,379.4,273.6,357.8,292.2,347.7z M303.7,407.3c-17.8,6.6-26.7-15-8.1-25C313.8,381.6,316.4,402.6,303.7,407.3z M314.5,411.1
		c18.2-0.9,20.8,20.3,8.1,25C304.9,442.7,296,421.1,314.5,411.1z M315,552.2c-3.4-6,2.7-12.4-0.5-17.8c4.3-3,24.3-8.1,29.4-11.2
		c0.3,0,0.5,0,0.7,0C343.4,531.8,324.9,556,315,552.2z M354.4,454.4c-17.8,6.6-26.7-15-8.1-25C364.5,428.7,367.1,449.7,354.4,454.4z
		 M393,551.2c-8,2-28.7-20.4-29.9-28c6.7,2.2,22.5,8.3,29.1,10.5c-0.6,6.4,2.2,9.9,2.2,15.6C394,549.9,393.5,550.6,393,551.2z
		 M379.4,411c18.2-0.9,20.8,20.1,8.1,25C369.7,442.6,360.9,421,379.4,411z M406.9,407.3c-17.8,6.6-26.7-15-8.1-25
		C416.9,381.6,419.5,402.6,406.9,407.3z M410.3,372.7c-14.2,5.3-23.5-10.2-16.3-20.1c1.9-2.5,5.3-3.4,8.1-4.9
		C420.3,346.8,423,368,410.3,372.7z M410,331.2c-8.3,5.9-19.8,8.2-30,12.2c-5.6,2.1-26.8,10.5-33.4,9.1c-5.2-1.8-10.3-3.5-15.4-5.3
		c-12.5-5.4-35.7-17.1-43-27.1c-3-4.1-5.2-12.3-7.2-17.4c-1-2.5-10.6-0.5-17.6-1.8c-6.6-1.2-9-5.6-11.9-9.6
		c-6-8.4,0.3-13.2,6.5-14.7c6.2-1.5,18.8,10.2,18.5,8.8c-2.1-9.8-5.6-25.7-8-32.3c8.7-2.7,15-5.1,19.9-11.5v2
		c1.2,1.8,0.6,4.8,2.5,6.2c5.1,4.7,16.5,0,19-5.4c0.2-0.2,0.5,1.7,0.7,1.5c0,1.8,0,14.7,0,16.5c-3.1,0.9-20.7,8.1-21.8,10
		c-0.6,3.3,3.4,10.7,4.6,13.9c4.1,1.1,13.6-5.3,17.2-6.8c0,0,0.1,0,0.2,0c-0.1,10.4-2.8,45.2,2.4,49.1c3.5,2.7,12.7,1,18.2,1
		c15.1,0,32.6-1.9,46.3,0.2c6,0.9,15.8,0.3,18.2-2.9c2.7-3.7,1.5-38.1,1.4-46.5c3.5,0.7,12.6,7.9,15.9,6.1
		c2.7-1.3,6.1-10.5,6.5-13.9c-1.7-2-18.4-8.7-21.9-9.2c-0.2-1.6-0.3-17.2-0.5-18.8c6.1,2.3,18.9,7.8,18.7-5.3c0,0,0.1,1,0.2,1
		c6,4.7,10.3,9,19.9,10.3c0,9-2,23.5-4.3,34.4c-0.3,1.3,10.3-8.3,17-6.9c4.2,0.9,8.7,4.9,7.8,11.3c-0.1,1-0.8,8.3-13.7,12.1
		c-6.7,2-16.3,1.8-16.5,2.7C421.9,318.4,417.2,326,410,331.2z M324.4,242.1c0.2-10,0.5-37,0.7-47.1c2.3-2,11.3-0.7,15.1-0.7
		c13.8,0,27.5,0,41.3,0c0.4,12.2,0.7,41.2,1,53.4c0.2,21.9,0.3,47.7,0.5,69.5c-19.9,0-38.7-1.1-58.2-0.3c-1.8-7.1-0.2-20.9-0.2-28.4
		C324.7,272.9,324.4,257.9,324.4,242.1z M427.8,220.3c-10.4,0-20.7-0.1-31-0.2c-2-8,3.2-39-2.4-42.8c-4.1-2.8-12.7-1.4-19-1.4
		c-14.5,0-29.5,1.9-43.7-0.2c-7.6-1.1-17.3-0.8-20.2,3.4c-3.3,4.8-1.8,33-1.7,41.2c-14.6,0.1-29.2,0.2-43.9,0
		c-5.6-16.4-17.3-45.9-23-62.4c9.6-0.6,20.1-0.7,30.5-0.7c5,0,15.9,0,20.9,0c5.2,0,10.5-0.1,15.8-0.2c13,0,25.9,0,38.9,0
		c36.4,0,76.8,0.1,113.2,0.2c0,0-2,9.1-2,9.2c-3.1,8.9-6.2,22-9.4,30.4c-2.8,7.8-5.7,15.5-8.6,23.3
		C439.2,221.4,431.3,220.8,427.8,220.3z M519.2,354.9c-7.4,5.8-24.4,3.8-30.3,10.3c-3.1,3.5-0.7,10.9-0.5,16.4
		c-0.9,0.9-1.6,1.3-3.5,1.8c-4.8-2.5-13.1-5.8-16.2-10.7c-1.7-2.8-1.4-6.6-1.3-8.9c0.5-10,4.6-17.9,12.6-23.3
		c2.5-1.1,4.9-2.4,7.4-3.6C505.1,332.1,520.1,344.3,519.2,354.9z"/>
</g>
</svg>
