<?xml version="1.0" encoding="utf-8"?>
<!-- Generator: Adobe Illustrator 24.1.1, SVG Export Plug-In . SVG Version: 6.00 Build 0)  -->
<svg version="1.1" id="Layer_1" xmlns="http://www.w3.org/2000/svg" xmlns:xlink="http://www.w3.org/1999/xlink" x="0px" y="0px"
	 viewBox="0 0 100 100" style="enable-background:new 0 0 100 100;" xml:space="preserve">
<style type="text/css">
	.st0{fill:#5C5B58;}
</style>
<path class="st0" d="M67.3,62l24.9-45.4l-10.2-5.5l-4.2,8l-7-3.8L52.3,51.1c-3.3-1.2-6.9-2-10.6-2c-15,0-28.1,11.8-30.6,22.4
	c-0.3,1.3-1.9,6.3-2.5,8.1l-0.8,2.4l2.5,0.4c0.1,0,10.8,1.5,24.8,1.9l8.7,4.8l2.6-4.7c15-0.3,26.6-1.9,26.8-1.9l2.4-0.3l-3.6-11.5
	C71.1,67.6,69.5,64.7,67.3,62z M83.8,16.8l2.8,1.5L64.4,58.7c-0.5-0.5-1.1-1-1.7-1.5L83.8,16.8z M15.2,72.4
	c1.8-8,12.8-19.2,26.5-19.2c3.1,0,6,0.6,8.7,1.5L37.1,80.1c-10.7-0.2-19.7-1.1-23.8-1.6C14,76.4,14.9,73.5,15.2,72.4z M42.1,83.3
	l-1.5-0.8l32.1-61.6l2.8,1.5L42.1,83.3z M48.6,80l10.9-19.9c4.3,3.6,7.3,7.9,8.4,11.6l2.1,6.8C66.2,78.9,58.3,79.7,48.6,80z"/>
<rect x="39.7" y="57.5" class="st0" width="4.2" height="6.2"/>
<rect x="56.7" y="67.3" transform="matrix(0.4463 -0.8949 0.8949 0.4463 -28.9793 92.0168)" class="st0" width="6.2" height="4.2"/>
<rect x="30" y="60.2" transform="matrix(0.9735 -0.2285 0.2285 0.9735 -13.6277 9.0085)" class="st0" width="4.2" height="6.2"/>
<rect x="22" y="66.3" transform="matrix(0.8949 -0.4462 0.4462 0.8949 -28.4462 18.0508)" class="st0" width="4.2" height="6.2"/>
</svg>
