<?xml version="1.0" encoding="utf-8"?>
<!-- Generator: Adobe Illustrator 24.1.2, SVG Export Plug-In . SVG Version: 6.00 Build 0)  -->
<svg version="1.1" id="Layer_1" xmlns="http://www.w3.org/2000/svg" xmlns:xlink="http://www.w3.org/1999/xlink" x="0px" y="0px"
	 viewBox="0 0 612 792" style="enable-background:new 0 0 612 792;" xml:space="preserve">
<g>
	<g>
		<defs>
			<path id="SVGID_1_" d="M370.6,421c1.3,0,2.6-0.1,3.4,0.5c1.1,0.3,1.2,1,1.9,1.7c0.2,2.5,1,8.3-1,9.4c-1.7,1.5-6.5,1-9.6,1
				c-8.4,0-16.8,0-25.2,0c-2,0-4,0-6,0c-0.8-0.2-2.1-1.1-2.9-1c-0.5,0.1-1.7,0.8-2.4,1c-9.4,0.1-18.7,0.2-28.1,0.2
				c-3.8,0-7.7,0-11.5,0c-0.9-0.2-2.9-1.3-3.6-1.2c-0.2,0.2-0.5,0.5-0.7,0.7c-0.6,0.2-1.7,0.4-2.2,0.5c-9,0-17.9,0-26.9,0
				c-4.2,0-9.9,0.5-13-0.7c-1.3-2.8-0.8-6.9-0.5-10.3c0.7-0.5,1.4-1,2.2-1.4c1.2-0.4,2.3,0.5,2.9-0.5c-1.7-1.9-0.5-8,0-10.1
				c6.5-1.6,16.4-0.1,23-1.4c0-0.5,0-1,0-1.4c-0.2-0.2-0.1-0.1-0.2-0.5c-4.9-3-15.5-6.9-10.1-14.9c0.6-0.9,1.3-2,2.2-2.6
				c2.4-1.7,6-2.7,9.1-3.6c1.5-0.4,3.6,0,4.3-1.2c-1.7-0.4-2.8-1.6-4.1-2.4c-2.8-1.9-7.5-3.6-6-8.9c0.3-1,0.2-1.7,0.7-2.4
				c4-5.6,12.9-8.1,20.6-9.8c0-0.1,0-0.2,0-0.2c-4.1-2-4.1-4.3-10.3-4.3c-0.9-0.6-2.4-0.3-3.6-0.7c-1.6-0.5-3.3-1.7-4.6-2.6
				c-7-5.2-9.2-20.6-2.2-27.6c2.2-2.2,5.4-4.1,8.9-5c8.4-2.1,13.8,4.1,16.6,8.6c1.1,1.7,2.7,3.7,2.9,6.2c4.1-0.5,9.2-5.6,9.4-10.1
				c-4.6-3.1-0.4-14.3,6-12.5c2.9,0.8,7.1,4.1,5.8,8.9c-0.5,1.9-1.7,2.9-1.9,5.3c2.2,2.2,3,5.8,5.5,7.7c2.2,1.6,5.5,1.5,8.2,2.6
				c5.6,2.3,15.5,8.4,10.8,17c-0.6,1-1.7,1.9-2.6,2.6c-1.7,1.4-3.7,2.6-5.8,3.6c0,0.2,0,0.3,0,0.5c0.2,0,0.3,0,0.5,0
				c1.7,1.1,4.2,1,6.2,1.7c5,1.6,11.2,3.7,13.7,7.9c1.1,1.9,1.7,4.8,0.2,7c-0.8,1.2-2,2-3.1,2.9c-1.6,1.3-3.3,2.7-5.3,3.6
				c0.2,0.2,0.1,0.1,0.5,0.2c1.4,1.3,3.8,1.2,5.8,1.9c5,1.9,14.7,6.6,9.6,13.7c-1.4,2-4.5,3.7-6.7,4.8c-1.7,0.9-3.9,0.8-4.6,2.6
				c-0.1,0.2-0.2,0.1,0,0.2c0.2,0.7,0.1,0.7,0.7,1c1.6,1,4.9,0.3,7.2,0.5c4.5,0.4,10.9-0.1,15.1,0.7c0.4,0.5,0.8,1,1.2,1.4
				C371.1,414.9,370.9,418.1,370.6,421L370.6,421z M307.9,318.5c-0.2,0.2-0.7,0.3-1,0.5c-1.1,2.1-0.7,4.4,2.2,4.6
				c0.3-0.3,0.7-0.4,1.2-0.5c0.7-1,1-1.5,1-3.4C310.2,319,309.8,318.5,307.9,318.5L307.9,318.5z M313,335c-0.2-1.9-2.9-6.2-4.6-6.5
				c-1.2,2.5-3.5,4.1-4.3,6.7c0.8,0,1.6,0,2.4,0C307.7,334.5,311.3,335,313,335L313,335z M302.9,339.1c-1.4,0.9-3.7,0.2-5.5,0.7
				c-5.5,1.4-15.2,4.5-15.4,10.8c1.4,1.5,1.6,3.9,4.1,4.3c4.9-7.3,25.7-9.6,36-5.3c1.6,0.7,3.6,1.6,5,2.6c1.6,1.2,2.3,2.9,5,3.1
				c1.5-2.3,3.4-2.7,3.4-6.7c-1.9-1.4-2.9-3.7-5-5C323.7,339.5,313.8,339.2,302.9,339.1L302.9,339.1z M303.1,352.6
				c-0.9,0.6-2.1,0.1-3.4,0.5c-2.7,0.7-9.8,3.3-10.3,5.8c0.9,0.3,1.6,1.1,2.2,1.7c2.5,0,5.4,0,7.7-0.5c3-0.6,6.9,0.3,9.6-0.2
				c1.4,0,2.7,0,4.1,0c4.3,0.2,8.6,0.3,13,0.5c0.3-1.1,1.1-1.4,1.4-2.4c-2.8-1.4-5.2-3.3-8.4-4.3
				C314.6,352.1,308.7,352.6,303.1,352.6L303.1,352.6z M237.4,353.3c6.2,0,12.5,0,18.7,0c3.4,0,7.3-0.2,9.4,1.2
				c3.3,2.2,4,9.9,0.5,12.5c-2,1.5-5.8,1.3-9.4,1.2c-0.6,3-1.6,6.2-4.1,7.4c-1.9,1-5.7,0.5-8.4,0.5c-6.6,0-20,1.2-24-1.4
				c-3.7-2.5-2.9-10.2,0.5-12.5c1.9-1.3,5.7-1,8.9-1c0-0.2,0-0.3,0-0.5c0.7-1.2,0.5-3,1.2-4.1c0.9-1.4,3.1-2.6,4.8-3.1
				C236.2,353.3,236.9,353.6,237.4,353.3L237.4,353.3z M304.1,364.1c-3.7,0.3-7.4,0.6-11,1c-8.8,2.1-17.2,3-22.8,8.4
				c0,1.2,0,2.4,0.5,3.1c0.5,0.8,4.8,4.4,6,4.1c0.9-0.2,1.9-1.5,2.6-1.9c2.6-1.6,6.1-2.7,8.9-3.8c1.5-0.6,3.1-0.3,4.8-0.7
				c4.9-1.2,16.9-2.6,23-1.2c1.8,0,3.7,0,5.5,0c4.5,1.1,9.2,2.1,13,4.1c2.1,1.1,3.9,3.5,6.7,3.8c2.1-2.6,6.4-2.5,6.5-7.2
				c-2-1.3-3.5-3.3-5.8-4.3C331.9,364.9,318.4,364.1,304.1,364.1L304.1,364.1z M305.8,377.5c-2.2,1.3-5.8,0.1-8.6,0.7
				c-3.7,0.9-8.2,1.2-11.5,2.4c-1.7,0.6-4.4,0.9-4.8,2.9c0.5,0.3,0.4,0.3,1.2,0.5c2.1-1.8,6.1-0.9,9.4-1.7c2.1-0.5,5.3-0.5,7.7-1
				c2.1,0,4.2,0,6.2,0c4.5-1,10.9-0.7,15.1,0.2c1,0,1.9,0,2.9,0c3.1,0.7,10.5,2.8,13.2,2.4c0.1-0.4,0.2-0.6,0.2-1.2
				C327.9,378.8,318.9,377.6,305.8,377.5L305.8,377.5z M297.4,386.6c-1.7,1-6.4,0.2-8.6,0.7c-8.9,2.2-20,2-25.7,7.4
				c0,0.6,0,1.3,0,1.9c2.1,2.1,4.3,5.1,8.2,5.3c2.9-3.7,8.4-3.9,13.7-5.3c13.2-3.5,35.3-3.7,48.5,0.2c2.3,0.7,4.9,1.2,7.2,2.2
				c2.1,0.9,3.8,2.8,6.5,3.1c2.4-2.2,7.5-2.1,7.7-6.5c-1.2-0.4-2.1-1.4-3.1-1.9c-2.2-1.2-5-2.1-7.4-2.9
				C331,386.6,314.6,386.7,297.4,386.6L297.4,386.6z M285.6,422.2c0.2,1.7,0.5,3.9,0.5,6.2c0.1,0,0.2,0,0.2,0c0-0.2,0-0.3,0-0.5
				c1.3-1,1.5-2.4,2.4-3.8c1.6-2.7,3.2-5.7,5.3-7.9c1.6,0,3.2,0,4.8,0c-0.1-8,0.9-12.8,6.5-15.1c1.5-0.6,4-1.4,6.2-0.7
				c1.1,0.6,2.2,1.1,3.4,1.7c3.7,2.6,4.2,8,4.3,14.2c1.4,0,2.9,0,4.3,0c1.4,2.9,3.6,5.5,5.3,8.2c0.9,1.4,1,2.9,2.4,3.8
				c0-0.5,0-1,0-1.4c-0.9-1.2,0.1-3.9,0.5-4.8c-1.9,0-3.8-0.5-4.3-1.9c-2-2.1-0.6-7.7,0-10.1c4.2-1.1,9.8-0.5,15.1-0.5
				c0-0.2,0-0.3,0-0.5c0.7-1,0.1-3.3-0.2-4.1c-13.2-6.2-36.5-7.9-53.3-3.6c-5.8,1.5-15,0.2-14.9,7.4c2,1.3,5.1,1,8.4,1
				c1.6-1.1,5.9,0,7,0.5c1.5,2.5,2.3,11.4-1.7,11.8C287.3,422.2,286.4,422.2,285.6,422.2L285.6,422.2z M303.4,416.2
				c3.7,0,7.4,0,11,0c0.2-5.1,0-10.7-4.8-10.8c-1.3-0.9-3.1,0.4-3.8,1C303.2,408.1,303.2,411.7,303.4,416.2L303.4,416.2z
				 M285.8,414.7c-8.6-0.4-17.5-0.2-26.2-0.2c-2.5,0-8.3-0.8-9.1,1c-0.2,0.3-0.2,0.4-0.2,1c2.8,1.6,7,0.5,10.8,0.5
				c8.2,0,16.3,0,24.5,0c0-0.2,0-0.3,0-0.5C285.9,416,285.8,415.4,285.8,414.7L285.8,414.7z M363.1,414.2c-1.2,0.7-7,0.2-8.9,0.2
				c-7.6,0-15.2,0-22.8,0c0,0.2,0,0.3,0,0.5c-0.2,0.3-0.2,0.6-0.2,1.2c1.3,0.7,4,0.5,6,0.5c1-0.6,6.4-0.3,8.2-0.2
				c6.8,0.2,13.9,0.4,20.9,0.5c0.3-0.6,0.5-1,0.5-2.2c-0.2,0-0.3,0-0.5,0C365.6,414.3,363.8,414.5,363.1,414.2L363.1,414.2z
				 M291.6,428.4c10.7,1.2,22.5,0.2,33.8,0.2c-0.1-1-3.8-7.4-4.3-7.7c-2.2,0-4.3,0-6.5,0c-1.3-0.9-11.9-0.4-14.4,0c-1.7,0-3.4,0-5,0
				C294.6,421.3,291.7,427.2,291.6,428.4L291.6,428.4z M363.8,425.8c-1.4,0.9-5.7,0.2-7.7,0.2c-6.7,0-13.4,0-20.2,0
				c-0.4,0.7-0.7,0.9-0.7,2.2c0.2,0.1,0.5,0.2,0.7,0.2c2.4,1.7,6.8-0.6,9.8,0c2.4,0.5,6,0.2,8.9,0.2c5.6,0,10.7,0,16.1,0
				c0.1-0.2,0.2-0.5,0.2-0.7c0.2-0.3,0.2-0.6,0.2-1.2C369.5,425.7,366.7,425.7,363.8,425.8L363.8,425.8z M275.3,426
				c-1.4,0.9-5.7,0.2-7.7,0.2c-6.7,0-13.4,0-20.2,0c-0.5,0.7-0.7,0.8-0.7,2.2c1.2,0.6,3.4,0.5,5.3,0.5c1.8,0.7,6.3,0,9.1,0
				c6.8,0,13.6,0,20.4,0c0.1-0.2,0.2-0.5,0.2-0.7C283.2,425.8,277.4,425.9,275.3,426L275.3,426z"/>
		</defs>
		<use xlink:href="#SVGID_1_"  style="overflow:visible;fill-rule:evenodd;clip-rule:evenodd;fill:#43A2D3;"/>
		<clipPath id="SVGID_2_">
			<use xlink:href="#SVGID_1_"  style="overflow:visible;"/>
		</clipPath>
	</g>
</g>
</svg>
