<?xml version="1.0" encoding="utf-8"?>
<!-- Generator: Adobe Illustrator 24.1.2, SVG Export Plug-In . SVG Version: 6.00 Build 0)  -->
<svg version="1.1" id="Layer_1" xmlns="http://www.w3.org/2000/svg" xmlns:xlink="http://www.w3.org/1999/xlink" x="0px" y="0px"
	 viewBox="0 0 612 792" style="enable-background:new 0 0 612 792;" xml:space="preserve">
<style type="text/css">
	.st0{fill-rule:evenodd;clip-rule:evenodd;fill:#F12D38;}
</style>
<path class="st0" d="M472.3,319.8c0.5-2,1.1-11.9,0.5-14c-0.4-1.7,0.1-4.6-0.8-5.8c-1-0.2-4.4,0.8-5.9,1.2c-4,1.1-13.6,9.3-13.9,13
	c0.1-1.3-1.5-4.7-3.4-6.7c-2.9-2.9-7.8-7-14-6.9c-1,0.9-0.7,1.9-1.1,4.2c-0.3,1.9-0.5,6.1-0.5,8.6c0,8.1,2,16.6,6.7,19.9
	c0,0-0.1,0.1-0.2,0.2c-1.5,0.9-3.9,0.7-5.5,1.4c-2.9,1.2-6.1,3.8-7.9,6.2c-2.8,3.8-4.6,8.5-6,13.7c-1,3.9-1.6,15.5-1.7,26.4
	c0,2.6,0,5.1,0,7.7c0,11.4,2.9,29.1-7.9,30.5c-4.4,0.6-7.4-3.8-8.2-7.2c0-1.4,0-2.9,0-4.3c-0.5-2.4,0.4-5.9-0.2-8.6
	c-1-4.7-0.2-10-1.4-14.4c-5-19-14-27.3-33.8-31.7c-5.2-1.2-14.1,1.8-17.3,3.1c-10.6,4.4-18.3,10.6-22.6,21.1
	c-1.2,3-1.6,6.7-2.4,10.1c-2.7,11.4,3.4,29.6-7.7,32.4c-3.5,0.9-6-1.2-7-3.1c-3-5.7-0.8-15.4-2.4-22.8c0-1.4,0-2.9,0-4.3
	c-0.9-4.3-1-8.9-2.6-12.7c-4.3-10.3-12.2-17.4-22.6-21.6c-5.9-2.4-15.8-1.6-21.4,0.2c-14,4.5-24.7,12.5-28.1,27.6
	c-1.5,7-0.2,17.1-0.2,24.5c0,5.5,0.1,9.9-3.4,11.8c-4.3,2.3-10.1,0.1-11.3-3.6c-0.8-2.4,0.1-5.2-0.5-7.9c-0.6-2.9,0.5-6.9-0.2-10.1
	c-0.3-1.6,0.2-4.3-0.2-6.2c-0.3-1.4,0.2-3.8-0.2-5.5c-0.4-1.8-0.2-4.5-0.2-6.7c0-6.2,0.5-11.4,0.5-17.3c4.8-4.5,8.5-9.6,10.8-16.6
	c0.7-2.1,0.5-3.8,1-6.2c0.5-2.2,0.5-9.3-0.5-10.8c0.7-1.1,5-3.6,6.3-4.5c4.7-4.6,7.5-7.4,11.1-13c0.7-1.1,2.2-5.6,1.9-6.3
	c-1.6-4.2-9.5-0.8-15.2-0.8c-4.1,0-8.7-0.1-10.8,1.9c-0.2,0.2-0.5,0.3-0.5,0c2.2-4.4,6.7-10.7,5.3-17.5c-0.7-3.2-0.1-6.1-2.9-7.2
	c-1.6-0.6-5.2,0.6-5,2.7c0.1,1.1,0.3,2.2,0.5,2.9c0.5,2.2,0.1,6.5-0.7,7.7c-0.9,0.3-2.7-1.4-4.3-0.2c-3.3,1.2-1.8,5.1-2.6,8.9
	c-0.7,3.2-1.4,13.1-3.4,14.4c-2.8,1.9-11.9,0.8-16.3,0.7c-0.8,0-1.6-0.1-2.4-0.2c-6.3-0.4-8.3,1.4-11.5,3.4c-1.8,1.1-3,3-4.6,4.1
	c0,0-10.1,1.1-10.2,1.2c-1.6-1-3.6-8.3-3.6-10.8c0.1-0.5,0-0.4,0.2-0.7c1.3-3.4,8.7-2.6,12.7-3.6c6.2-1.7,10.4-5.1,11-12.5
	c9.3,0.2,14.3,0.3,19.1-4.7c1-1.1,3.1-3.8,1.9-5.8c-0.8-1.3-2.2-2.6-4.3-1.9c-2.5,0.9-3.2,3.9-6.2,4.6c-1.2,0-2.3,0-3.4,0
	c-4.3,0-8.5-0.7-11.3,1.2c-1.2,0.8-2.4,2.7-2.9,4.1c-0.6,1.7-0.9,4.9-1.2,5.3c-0.1,0.2-0.4,0.2-0.5,0c-0.2-3-1.6-11.1,0-13.2
	c0.3-0.7,0.6-0.8,1-1.4c3.6-0.7,7.3,1,11,1.4c3.4,0.4,6.6-1.6,8.6-2.9c1.2-0.7,2.4-1.2,2.9-2.6c0.6-0.8,0.6-2.4,0-3.1
	c-0.3-1-0.9-1.5-1.9-1.7c-2.4-1.8-5.3,2-7.4,2.6c-5.3,1.5-8.5-2.7-13.7-1.4c-5,1.2-6.9,4.2-8.2,9.1c-0.3,1-0.8,2.8-0.5,4.1
	c0.6,2.9,0.8,6.1,0.7,9.1c-3.3,3-5.5,1.3-9.4,2.9c-3.4,1.4-4.5,3.7-5.5,7.7c-0.4,1.6-0.1,8.3,0.8,11.6c1,2.7,2.9,3.6,2.4,5.5
	c-0.7,3-3.3,5.9-4.7,9.4c-1.7,3.8-1.5,9.8,1.7,12.2c2.4,1.8,7.1,1.4,11.3,1.4c7.7,0,16.8-1,21.8,2.2c0.1,1.2,0.2,1.2-0.2,2.2
	c-3.2,1.3-6.9-0.3-11,0.7c-6,1.4-17.2,2.8-19.2,7.4c-0.3,1.1-0.3,2.8,0.2,3.4c1.1,1.7,1.6,0.8,3.1,1.7c0.4,0.2,0.3,0.8,0.5,1.2
	c1,1.6,2.5,1.9,4.6,1.7c0.9-0.4,1.1-0.4,1.7-1.2c0.8-1.3,0-3.8,0.7-4.3c1.2-0.5,4.7-1.2,7.7-1c1.2,0,2.5,0,3.8,0c3,0,5.3,0,8.6,0
	c-0.4,26.4-4.5,63,12,74.2c-0.1,2-0.2,8.8-1,10.1c-1.6,0.2-3.3,0.6-5,0.7c-9.5,0.7-10.6,4.5-9.8,12c0.1,1.3,0.8,2.2,2.4,2.4
	c0.8,0.1,3.9-0.8,4.3-1.4c0.6-0.9,0.6-2.2,1.2-3.1c1.4-2.1,3.9-2.6,7.2-2.9c0.9-0.1,2.6-0.5,3.4,0c4.1-0.1,3.6,1.3,5,3.8
	c0.3,0.6,1,1.1,1.4,1.7c1,0.3,1.7,0.5,3.1,0.5c0.9-0.8,1.8-1,2.2-2.2c1-1.4,0.4-2.8,0.1-4.1c-0.6-3,0.3-6.4-7.8-6.9
	c0,0,0-1.1,0.2-1.4c0-1.2,0-2.5,0-3.8c3.4,0.9,6.1,3.2,9.4,4.3c5.1,1.7,12.4,1,18.2,0.7c0,1.4,1.2,4.1-0.2,4.1
	c-10-0.3-12.3-0.3-14,5.4c-0.4,1.6-2.3,4.6-0.4,6.6c0.4,1.1,1.1,1.1,1.9,1.7c4.5-0.1,3.6-2.2,5.3-4.9c2.6-4.1,7.8-2.1,11.3-1.9
	c5,0.4,3.3,3.8,4.1,4.9c0.9,1.2,2.5,2,4.6,1.4c1.4-0.4,2.1-1.3,2.2-2.4c1-7.6-0.3-9.1-6.7-9.8c-1.5-0.2-0.4-4.3,0.2-5.3
	c0.1-3,2.5-3.3,4.3-4.6c3.6-2.6,7.7-6,10.3-9.6c3.2-4.4,5.7-9.8,7.4-15.6c0.4-3.2,0.9-6.3,1.4-9.4c1.2-5.8-1-12.6,0.2-18.2
	c0-1,0.1-2.1,0.2-3.1c1.2-3.1,5.7-6,9.6-3.6c3,1.9,2.9,6.4,2.9,11.3c0,4.8-0.8,10.7,0.2,15.4c0,2,0.1,3.9,0.2,5.8
	c0.4,2.2,0.9,4.5,1.4,6.7c4.8,11.4,13.9,19.8,26.2,23.8c5.5,1.8,14.7,2.5,20.9,0.5c15.1-4.9,24.3-15.4,28.6-31
	c1.5-5.1,0.3-14.1,1.5-19.6c0.3-1.7,0.9-4.9,0.9-6.3c0.8-3.9,1.4-7.2,4.8-8.4c2.9-2,7.1,0.8,8.2,2.4c0.4,1.4,0.9,2.9,1.4,4.3
	c1.8,7.2-1.5,17.2,0.2,24.7c0.7,3.1,0.8,6.2,1.9,8.9c4.1,10.1,11.4,17.3,21.1,21.8c-0.1,1.5,0.3,6.2-0.2,7c0,0.2,0,0.3,0,0.5
	c-6.9,0.2-15.7,0.6-14.9,8.4c0,2,0.6,2.6,1.4,3.8c0.6,0.1,1.3,0.3,1.7,0.7c4.1-0.2,3-3.8,5.4-5.3c0.8-0.4,11-2.6,13.9,0.1
	c2.2,2.1,1,4.6,6,4.6c0.3-0.4,1.1-0.6,1.4-1c0.5-0.5,0.6-1.4,1-1.9c-0.1-4.5-4.5-8.1-8.2-8.9c0-1.8,0-3.7,0-5.5
	c9.3,1.1,22.3,0.8,27.6-4.1c0,0,0.1,0,0.2,0c0.1,1.2-0.3,5.9-0.1,5.9c-11.5-0.2-11.5-0.2-14,4.7c-0.5,1-2.2,3.3-1.2,4.8
	c0.1,2.7,2.5,3.2,5,2.9c1.5-1.5,2.3-3.1,3.4-5c3-1.2,8.2-0.7,11.8-0.5c0.8,0.6,1.5,1.1,2.2,1.7c1.7,1.9,2.2,3.1,5.5,2.9
	c0.6-0.4,1.1-0.8,1.7-1.2c0.2-0.9,1-1.8,0.7-3.1c-0.9-7.6-4.5-6.1-7.4-7.4c-0.1-1,0.2-8.2,0.2-10.8c0.8-0.6,1.5-1.1,2.2-1.7
	c1.4-1.4,3-3.4,4.1-5c2.1-3.1,2.8-7.2,3.8-11.5c0.7-3,0.2-5.7,0.5-8.9c0.4-4,0.2-8.1,0.2-11.8c0-7.6,0-15.2,0-22.8
	c0-3.8,0-7.7,0-11.5c0-1.4,0.2-14.9,0.2-19.9c0,0,0.1,0,0.2,0c4.4,8.3,8.3,13.1,20.9,15.4c1-1,0.9-13.1,0.4-16
	c-1.6-10.2-4.6-11.2-6-13.9C468.3,330.4,470.9,324.9,472.3,319.8z M187.5,335.8c-1.4-3.5,1-7.6,4.7-9.3c0,0,3.4-1.8,5.6,0
	c3.4,1.9,2.6,4.6,3.1,5.6c0.2,0.4,10.3-4.1,13-4c2.5,0.1,3.2,4.2,2.4,4.9c-0.7,0.6-19,6.2-20.3,6.4
	C193.2,340.5,190.3,340.1,187.5,335.8z M206.2,375.2c1.3,0.5,1.4,14.4-0.1,15.2c-1.4,0.8-11.3-3.7-11.4-7.3
	C194.7,378.9,204.9,374.7,206.2,375.2z M195.2,407.3c-0.3-4.2,9.8-8.9,11.1-8.5c1.2,0.5,2,14.3,0.7,15.2
	C205.6,415,195.3,411,195.2,407.3z M209,436.3c-3.6-2.1-2.2-13.1-1.1-13.9c1-0.8,13.1,6.1,13.1,7.6C221.1,431.6,212.2,438,209,436.3
	z M245.4,426.8c-2,3.6-13.1,2.3-13.9,1.3c-0.8-1.1,6-13.2,7.5-13.2C240.7,414.9,247.1,423.7,245.4,426.8z M239.5,406.8
	c-1.3-0.6-1.4-15.9,0.2-16.8c1.5-0.9,12.5,4.1,12.5,8.1C252.2,402.7,240.8,407.3,239.5,406.8z M257.7,380.8
	c-3.4,3.1-14.5-2.1-15-3.5c-0.5-1.3,10.8-11.7,12.5-11.2S260.6,378.1,257.7,380.8z M272.5,376.1c-4.5-0.6-7.6-12.5-6.9-13.7
	c1.4-2.4,15.3-0.8,16.6,2.4C282.9,366.4,276.4,376.7,272.5,376.1z M283.9,385c-1.8-4.2,6.9-12.9,8.3-12.9c1.5,0,7.5,14.1,6.4,15.5
	C297.5,389,285.4,388.7,283.9,385z M286.2,407.6c-0.3-4.6,10.8-9.8,12.2-9.4c1.4,0.5,2.3,15.8,0.8,16.8S286.4,411.6,286.2,407.6z
	 M302.5,438.5c-4-2.3-2.4-14.4-1.2-15.3c1.2-0.9,14.5,6.7,14.5,8.4C315.8,433.4,306,440.4,302.5,438.5z M338.8,426.9
	c-1.6,4.3-13.8,4.7-14.9,3.8c-1.1-0.9,4.1-15.3,5.9-15.7C331.5,414.7,340.2,423.2,338.8,426.9z M329.5,406.9
	c-1.3-0.5-1.3-15.9,0.2-16.8c1.5-0.9,12.5,4.1,12.5,8.1C342.2,402.8,330.8,407.4,329.5,406.9z M350.4,380.1
	c-3.4,3.1-14.5-2.1-15-3.5c-0.5-1.3,10.8-11.7,12.5-11.2S353.3,377.4,350.4,380.1z M365.2,375.4c-4.5-0.6-7.6-12.5-6.9-13.7
	c1.4-2.4,15.3-0.7,16.6,2.4C375.6,365.7,369.1,376,365.2,375.4z M375.6,385.3c-1.8-4.2,6.9-12.9,8.3-12.9c2.2,0,9.4,11.5,6.4,15.5
	C389.2,389.3,377.1,389,375.6,385.3z M381.2,405.6c-0.3-4.6,10.8-9.8,12.2-9.4c1.4,0.5,2.3,15.8,0.8,16.8S381.4,409.6,381.2,405.6z
	 M395.5,436.5c-4-2.3-2.4-14.4-1.2-15.3c1.2-0.9,14.4,4,14.5,8.4C408.8,431.4,399,438.4,395.5,436.5z M426.2,360.7
	c1.6-0.8,12.2,5,11.9,9c-0.3,4.6-12,8.4-13.3,7.7C423.5,376.8,424.6,361.5,426.2,360.7z M434.8,424.9c-1.6,4.3-13.8,4.7-14.9,3.8
	c-1.1-0.9,4.1-15.3,5.9-15.7C427.5,412.7,436.2,421.2,434.8,424.9z M425.5,404.9c-1.3-0.5-1.3-15.9,0.2-16.8
	c1.5-0.9,12.5,4.1,12.5,8.1C438.2,400.8,426.8,405.4,425.5,404.9z M438,351.7c-1.7,2.9-10.5,1.5-11.2,0.7
	c-0.6-0.8,5.1-10.4,6.4-10.4S439.5,349.2,438,351.7z"/>
</svg>
