<?xml version="1.0" encoding="utf-8"?>
<!-- Generator: Adobe Illustrator 24.1.2, SVG Export Plug-In . SVG Version: 6.00 Build 0)  -->
<svg version="1.1" id="Layer_1" xmlns="http://www.w3.org/2000/svg" xmlns:xlink="http://www.w3.org/1999/xlink" x="0px" y="0px"
	 viewBox="0 0 612 792" style="enable-background:new 0 0 612 792;" xml:space="preserve">
<style type="text/css">
	.st0{fill-rule:evenodd;clip-rule:evenodd;fill:#F12D38;}
</style>
<g>
	<path id="SVGID_1_" class="st0" d="M311.3,243.8c3.7,0,7.8,2.3,6.5,7c-0.7,2.4-3,3.3-4.3,5c-1.2,1.6-1.9,4.1-2.4,6.2
		c-0.6,2.6,1.5,4.8,2.4,6.2c2,3.2,3.4,7.1,4.3,11.3c1.5,6.7-2.5,13.1-4.8,16.3c-1.1,1.5-2.9,3.8-6.2,2.9c-2.1-0.6-5-3.2-4.1-6.7
		c1-3.6,5.2-6.1,3.8-11.8c-1.2-4.8-4.5-8-6-12.5c-2.7-8.5,2.9-19.1,7.7-22.6C309.1,244.6,310.3,244.5,311.3,243.8L311.3,243.8z
		 M366,243.8c3.4,0.4,7.4,3.2,5.5,7.7c-0.6,1.4-1.9,2-2.6,3.1c-1.1,1.5-3.4,6.4-2.6,9.4c0.8,3.3,3.2,5.8,4.8,8.4
		c1.1,1.8,1.7,4.5,2.2,6.7c0,1.8,0,3.5,0,5.3c-1,4.3-5.7,15.1-11.8,13c-1.9-0.7-2.4-2.3-3.6-3.6c0-1.4-0.2-3,0.2-4.1
		c1.1-2.7,5.1-5.1,3.8-9.8c-1.2-4.3-4.8-7.4-6.2-11.8c-2.5-7.5,1.9-19.1,6-22.3C363,244.7,364.6,244.7,366,243.8L366,243.8z
		 M255.6,245c3.3-0.1,5.7,0.5,6.5,2.9c1.1,1.5,0.7,4.4-0.2,5.8c-0.6,0.6-1.3,1.1-1.9,1.7c-1.1,1.5-3.5,5.1-2.6,8.2
		c0.7,2.4,2.6,4.3,3.8,6.2c2.9,4.6,6.1,12.7,3.6,20.2c-0.6,2-1.8,3.7-2.9,5.3c-1.3,1.9-3.4,5.9-7.2,5c-2.8-0.6-6.3-3.5-4.6-7.7
		c1.4-3.3,5.6-5.7,4.1-11.3c-1.4-5.1-5.3-8.5-7.2-13.2c-2.9-7,1-15.5,4.1-19.7C252.2,246.8,254.1,246.3,255.6,245L255.6,245z
		 M405.6,424.6c-0.2,5-2.7,12.1-4.3,16.1c-2.3,5.5-3.7,10.8-6.7,15.6c-5.4,8.6-14.2,18.9-22.6,24.5c-4.3,2.9-9.3,5.8-14.2,7.9
		c-1.6,0.7-5,1.1-5.8,2.6c0.9,1.2,0.9,3,1.4,4.6c3.1,9.6,1.7,15.8-3.1,22.3c-1.5,2-5.5,4.7-10,4.3c-4.8-0.2-6.4-1.3-7.6-3.5
		c-2.2-3.7-0.7-8.7,5.4-8.7c2.7,0,4.6,3.9,4.9,2c0.6-2.5,0.7-6.7-0.3-12.9c-1.4-10.3-7.3-16.2-8.5-18.6c-3.7-5.6-11.1-4.8-11.1-4.8
		c-2.6-0.1,3.5,7.6,4.5,13.9c0.5,3.1-0.3,3.4-1.3,7.6c-1.3,3.9-5.1,5.9-6.7,2.1c-1.3-3.1-1.6-5-3.8-8.7c-9.2-15.7,1.3-19.3,0-22.2
		c-8-0.9-16.8,14.1-16.8,14.3c-0.6,2.2-0.9,3.1-1.5,6.5c-0.8,5.1-1.1,9.7,0.5,14.7c0.7,2.3,2.4,3.1,3.8,4.6c0.7,0.8,2.3,1.3,2.2,0.2
		c0.2-2.9,1.2-3.9,3.6-4.8c1.3-0.6,1.6-0.6,3.6-0.2c3.7,1,6.5,5.6,4.6,10.6c-1.5,3.8-5,6-9.4,7c-4.3,1-8.8-1-11-2.4
		c-7.9-4.9-10.1-9.8-9.8-22.1c-7-0.6-13.9-2.4-19.7-4.3c-4.1-1.4-7.6-2.2-11.3-3.8c-16.8-7.3-29.4-20.1-38.6-35
		c-3.5-5.7-5.5-13.1-7.7-19.9c-0.8-2.4-0.9-7.1-2.2-8.9c-1.3-0.8-8.7-0.3-10.8-0.2c-0.9-0.6-2.1-0.5-3.1-1c-1.5-0.8-3.2-2.7-3.8-4.3
		c-1-3.6-1.4-6.3-1-11c-0.4-5.6-0.2-7.5-0.2-11c0-9.7-2.4-21.3,1.8-26.9c2.4-3.2,11.9-1.2,17.4-1.2c4.9-10.9,10-19.6,17.8-27.4
		c2.2-2.2,4.7-4.6,7.2-6.5c0.6-0.5,3.1-2,3.6-2.4c-0.4-1.1-0.8-1.5-0.9-3.4c-0.6-3.1-0.4-9.8,0.2-12c0.7-2.6,0.8-5,1.9-7.2
		c1.9-3.7,7.9-7.9,14.2-6.2c5.1,1.3,7.8,5.4,10.6,9.1c1,1.4,2.3,4.2,4.3,4.6c1.5-1.1,3.8-1,5.8-1.7c5.4-1.8,11.7-2.4,17.8-3.8
		c1,0,1.9,0,2.9,0c1.6-0.4,3.5-0.7,5.3-0.7c1.4,0,2.9,0,4.3,0c2.4-0.5,7-0.5,9.4,0c2.6,0.1,5.3,0.2,7.9,0.2c4.1,0.9,9.2,1,13.2,2.2
		c1.3,0.2,2.6,0.3,3.8,0.5c4.5,1.3,9,2.6,13.4,3.8c15.4,6.3,28.5,13.4,39.4,24.2c4.9,4.9,9,10.7,12.7,16.8c1.4,2.3,2.6,5.2,3.6,7.7
		c0.3,0.6,0.2,2.1,0.7,2.4c4.4,0,8.8,0,13.2,0c0.6,0.2,1.3,0.5,1.9,0.7c1.4,0.9,3.2,3.4,3.8,5c1.2,2.9,0.7,8.3,0.7,12.5
		c0,4.6,0,9.3,0,13.9c0,2.4,0.2,5.4-0.2,7.4c0,1.6,0,3.2,0,4.8c-0.2,3-0.8,6-2.2,7.9C420,425.4,412.4,424.6,405.6,424.6L405.6,424.6
		z M247,313.7c-1,0.2-1.5,0.4-1.9,1c-4.1,5.6-1.5,9.6-1.5,17.7c-1,4.6-2.3,11.9-1.2,16.4c1.7,1.1,3.9,1.6,6.2,2.2c1.1,0,0-0.6,0-1
		c-0.6-1.6-0.6-2.8-1-4.3c-0.7-2.8-1-11.9,0-15.3c0.5-1.5,0.7-3.3,1.9-4.2c1.3-0.5,2.4,0.3,3.5,1.5c2.8,2.7,8.5,11.4,9.4,11
		c0.8-0.1,0.5-3.7,0-5.3c-0.5-2.2-1.2-3.9-2.2-5.5c-1.7-2.8-4.1-4.9-6-7.4c-1.7-2.3-3.1-4.5-5-6.5
		C248.6,313.8,247.8,313.8,247,313.7L247,313.7z M270.5,327.4 M304.6,344.2c-1.4,0-3-0.2-3.1,0.2c-0.6,2.2-2.2,4-3.1,6
		c-1.1,2.5-1.7,5.2-2.4,8.2c-0.7,3.2,0.1,7.7,0.7,10.1c1.4,5.9,3.3,10.8,6.1,15.2c1.4,2.2,2,4.1,4,5.6c2.4,1.8,4.5,4.1,7,6
		c1.4,1.4,2.7,2.9,4.1,4.3c7.8,7.8,14.7,16.8,18.5,28.6c1.1,3.4,2.2,11.3,1.2,15.6c-0.6,2.6-1.4,5.1-1.9,7.4c0.3,0,0.6,0,1,0
		c1.8-1.2,4.6-1.1,6.7-1.9c4.4-1.6,8.7-3.2,13-5c13.9-6.1,31.4-20.5,37.4-34.3c1.3-3.1,2.8-6.5,3.6-9.8c0.5-2-1.8-6.5-2.4-7.9
		c-2.2-5.1-4.4-9.3-7.4-13.4c-1-1.4-2.6-2.5-3.6-3.8c-4.2-5.6-10-9.5-15.8-13.4C351.8,351,331.3,344.3,304.6,344.2L304.6,344.2z
		 M252.7,362.2c-2.3,0-5.8-2-7-1.4c-2.9,0.9-5.2,3.6-7.4,5.3c-8.1,6-13.5,12.9-18.7,21.8c-1,1.7-5,9.7-4.6,12.2
		c1.5,7.7,5.8,14.7,9.8,20.2c10.3,13.9,26.7,23.6,44.9,29.5c5.8,1.9,12,2.6,18.2,4.1c7.7,1.8,17.3,0.9,25.9,1c0-0.2,0-0.3,0-0.5
		c1.8-2.5,1.7-4,2.5-7.6c1.7-8.2,5.2-18.5,3.2-28.5c-1.3-9.4-9.3-15.3-15.8-21.7c-3.9-3.4-7-4.1-10.4-8.6c-1.6-2.2-6.9-8.9-8.3-11.2
		c-4.7-7.6-4.6-18-4.7-30.4c-0.1,0-5.5,1.7-5.5,1.7c-1.2,1.1-4,1.5-5.5,2.2c0.5,1.7,1.5,3.6,2.4,5c0.8,1.2,2.2,1.7,2.6,3.4
		c1,3.6-1.9,5.5-3.4,7c-4.5,4.4-11.6,9.1-20.2,7.2c-1-0.4-1.9-1-2.2-2.6c-0.2-2.5-0.1-4.8,1.7-6c0.8-0.5,2.1-0.4,2.6-1.2
		C252.8,362.6,252.8,362.7,252.7,362.2L252.7,362.2z M357.3,374.3c1.2-0.1,2.3-0.5,3.3-0.6c3.2-0.7,6.8,0.6,8.7,1.3
		c5.9,2.5,9.2,6.7,11.6,12.9c0.9,2.6,2.7,6.9,1.8,10.9c-0.2,1.4-0.5,2.8-0.6,4.3c-0.2,0.6-0.7,1.7-0.9,2.2c-0.2,0.9,2.3-0.5,3.9,0.8
		c0.7,0.6,0.3,3.5-0.4,4.8c-1.4,2.8-8.5,3.5-11.7,4.6c-2.4,0.7-5.3,1.6-8,2.2c-10.3,2.4-22-1.8-27.6-5.7c-0.8-0.6-1.1-1.8-1.8-2.4
		c-1.1-2.9-0.9-5.3,2.8-5.1c2.4,0.2,3,0.9,4.3,1.3c0-0.1-0.3-1.7-0.3-1.7c-1-1.5-0.5-4.2-1.1-6c-7.2-0.1-13.2-1.8-17.6-4.9
		c-1.4-1-6.1-4.5-4.2-7.2c0.8-2.5,3.3-2.4,5.7-0.8c0.8,0.6-0.2-1.7-0.3-2.8c-2.1-3.2,0.7-13.6,1.8-15.5c4.7-9.2,12-10.9,20.2-7.3
		C352.5,361.8,356.5,367.1,357.3,374.3L357.3,374.3z M252.5,340.3c-0.1,3.9,8.3,17.4,9.6,19.9c0.2,0,0.3,0,0.5,0
		c0.3-0.5,1.8-1.4,2-2c-2-2.1-4.9-12.3-6.5-15.9c0,0-1.4-3.6-3.9-5.5C252.3,335.4,252.5,340.3,252.5,340.3z M342.8,388.5
		c0.4-2.8,2.3-5.5,3.8-7.3c0.7-0.6,1.5-1.3,2.2-2c0-1.1,0-2.2,0-3.3c0-2.2-0.6-3.5-1.6-4.9c-2.4-3.6-9.8-4.9-12.7-0.9
		c-2.8,3.8-1.7,11.3,0,15.4c0.4,0.9,0.1,1.9,0.9,2.4C337,388.8,340.8,388.5,342.8,388.5L342.8,388.5z M353.3,408.5
		c2.9,0.8,6.8,0.7,9.8,0c2.6-0.6,5.2-0.8,8-2c1.4-1.7,2.2-4.6,2.9-7.6c0.5-2.2-0.3-4.8-0.6-6.2c-1.4-4.6-5.1-11.6-12.4-9.8
		c-6.3,1.5-13,8-10.6,17.1C351,403.1,351.2,404.7,353.3,408.5L353.3,408.5z M204,379.9c-1.8,0-5.4,0-7.2,0c-0.7,2-0.2,5.6-0.1,8.1
		c-0.4,4.3-0.2,6.1-0.2,8c-0.1,5.7,0,11.4,0,17c1.8,0.6,6,0,8.5,0c0.1-0.2,0-7.2-0.5-9.6C203.5,393,203.8,387.1,204,379.9L204,379.9
		z M408.2,380.2c0.8,6.4,0.7,12.9-0.2,22.8c-0.7,5.8-0.7,5.8-0.7,10.1c0.4,1.2,5.6,0.8,6.8,0c0.7-10.2,1-21.9,0.7-32.9
		C412.6,380.2,410.4,380.2,408.2,380.2L408.2,380.2z M265.9,387.4c12.6-0.2,19.5,5,24.2,12.7c2.3,3.7,4.3,9.8,2.4,15.6
		c-3.4,10.5-12.1,14.6-23.3,17.5c-5.2,1.3-11.8,0-16.7-1.8c-8.3-3.6-13.7-13.1-13.1-22.9c0.9-7.8,6.7-11.7,11.5-15.1
		c2.6-1.8,5.9-3.5,9.1-4.6C262,388.2,263.3,387.7,265.9,387.4L265.9,387.4z M262,399.1c-1.4,3.8,0,8.2-0.8,8.1
		c-5.8-0.9-9.2-0.3-10.7,4.4c0.3,3.5,1.2,5.7,5.4,4.8c2.6-0.5,3.7-1.5,6.2-1.8c2.9,0.7,0.8,4.4,3.9,9c0.1,0-0.3,3,4.5,1.6
		c3.5-1,3-4.1,3-4.1c0.8-0.7-2.7-6.8-1.8-7.3c2-1.2,8.3,2.4,9.2,0.1c3.6-1.4,2.3-6.8-0.6-8c-1.1-0.5-8.8,1.6-9.8,1
		c-1.1-0.7,1.3-7.9,0.6-9C269.4,394.9,264.4,395.3,262,399.1z M405.4,496.1c1.9-0.3,2.7-1.4,3.6-2.6c5.2-7.2,2.9-17.3-0.2-24.7
		c-0.7-1.6-1.1-3.8-2.4-4.8c0-0.1,0-0.2,0-0.2c-0.1,0.1-0.2,0.2-0.2,0.2c-1.4,1.8-1.9,4.3-2.9,6.5c-1.4,3.2-3.2,6.6-5,9.6
		c-5.6,9.1-13.3,17.1-21.8,23.3c-2.9,2.1-7.4,5.7-11,6.7c-4.1,1.1-6.4-2.4-7-5c0.2-1,0.3-1.9,0.5-2.9c0.6-0.5,0.8-1.4,1.4-1.9
		c1.5-1.2,3.4-1.8,5-2.9c3.2-2.1,6.3-4.6,9.4-7c0.6-0.7,1.3-1.4,1.9-2.2c1.9-1.4,4.1-3.2,5.5-5c4.9-6.5,9.5-13.9,13-21.8
		c1.9-4.2,3.4-10.3,7-13c1.1-0.8,2.8-2.1,5.3-1.4c4,1.1,5.4,6,7.4,9.1c3.7,5.6,6.3,12.1,8.2,19.7c2.8,11.2-2.1,23.8-7.9,28.1
		c-7,5.2-16.6,5.3-20.2-3.4c-2.3-5.6,0.2-10.9,6.2-10.8C403.4,491.4,405.4,491.7,405.4,496.1L405.4,496.1z M207.5,452.1
		c6.4,1.9,6.6,5.2,9.3,9.4c1.5,2.5,3.3,5,5,7.4c8.6,12.2,21.2,25.9,35.5,32.2c6.2,2.7,12.2,5.9,19,7.7c10.6,1.8,7,12.8,2.6,11.8
		c-2.2-0.4-4.5-0.8-6.7-1.2c-4.8-1.6-9.4-3.5-13.9-5.5c-15.9-7-28.4-16.2-38.2-29.3c-3.1-4.1-5.6-6.7-8.4-11.1
		c-0.6-1.6-1.4-1.2-1.4-1.2c-0.9,0.3-0.9,2.9-1.4,4.3c-2.2,6.2-2.8,22.4,4.8,22.8c1-1.9,0.1-2.3,1.3-4.2c2.5-4,9.4-0.4,10.8,3.4
		c3,8.3-6,14.3-15,12.1c-8-2-12-8.9-14.2-16.8c-0.5-1.8-0.8-2.8-1.3-5.3c0-3.2,0.3-5.1,0.8-7.2c1.1-5,2.5-9.4,3.8-13.7
		c1.2-3.8-0.2-9.7,1.7-12.7c1.3-1.7,2.2-3.1,4.6-3.1L207.5,452.1z"/>
</g>
</svg>
