<?xml version="1.0" encoding="utf-8"?>
<!-- Generator: Adobe Illustrator 24.1.1, SVG Export Plug-In . SVG Version: 6.00 Build 0)  -->
<svg version="1.1" id="Layer_1" xmlns="http://www.w3.org/2000/svg" xmlns:xlink="http://www.w3.org/1999/xlink" x="0px" y="0px"
	 viewBox="0 0 100 100" style="enable-background:new 0 0 100 100;" xml:space="preserve">
<style type="text/css">
	.st0{fill:#FFA914;}
</style>
<path class="st0" d="M18.3,55.1l-2.2,11.8c0,0.9,0,1.8,0.9,2.2c0.9,0.4,1.8,0.4,2.2,0l10.5-5.7l10.5,5.7c0.4,0,0.9,0.4,0.9,0.4
	c0.4,0,0.9,0,1.3-0.4c0.9-0.4,0.9-1.3,0.9-2.2l-2.2-11.8l8.8-8.3c0.4-0.4,0.9-1.3,0.4-2.2s-0.9-1.3-1.8-1.3l-11.8-1.8l-5.3-10.9
	c-0.9-1.3-3.1-1.3-3.9,0l-5.3,10.9l-11.8,1.8c-0.9,0-1.3,0.9-1.8,1.3c-0.4,0.9,0,1.8,0.4,2.2L18.3,55.1z"/>
<path class="st0" d="M58.1,15.7l-0.9,4.8c0,0.9,0,1.8,0.9,2.2c0.9,0.4,1.8,0.4,2.2,0l4.4-2.2l4.4,2.2c0.4,0,0.9,0.4,0.9,0.4
	c0.4,0,0.9,0,1.3-0.4c0.9-0.4,0.9-1.3,0.9-2.2l-0.9-4.8l3.5-3.5c0.4-0.4,0.9-1.3,0.4-2.2c-0.4-0.9-0.9-1.3-1.8-1.3l-4.8-0.9
	l-2.2-4.4c-0.9-1.3-3.1-1.3-3.9,0l-2.2,4.4l-4.4,0.9c-0.9,0-1.3,0.9-1.8,1.3c-0.4,0.9,0,1.8,0.4,2.2L58.1,15.7z"/>
<path class="st0" d="M69.5,32.8c-0.4,0.9,0,1.8,0.4,2.2l3.5,3.5L73,43.3c0,0.9,0,1.8,0.9,2.2c0.4,0.4,0.9,0.4,1.3,0.4s0.9,0,0.9-0.4
	l4.4-2.2l4.4,2.2c0.9,0.4,1.8,0.4,2.2,0c0.9-0.4,0.9-1.3,0.9-2.2l-1-4.8l3.5-3.5c0.4-0.4,0.9-1.3,0.4-2.2c-0.4-0.9-0.9-1.3-1.8-1.3
	l-4.8-0.9l-2.2-4.4c-0.4-0.9-1.3-1.3-1.8-1.3s-1.8,0.4-1.8,1.3l-2.2,4.4l-4.8,0.9C70.8,31.5,70,31.9,69.5,32.8z"/>
<path class="st0" d="M87.5,59.9L82.6,59l-2.2-4.4c-0.4-0.9-1.3-1.3-1.8-1.3c-0.4,0-1.8,0.4-1.8,1.3l-2,4.4L70,59.9
	c-0.9,0-1.3,0.9-1.8,1.3c-0.4,0.9,0,1.8,0.4,2.2l3.5,3.5l-0.9,4.8c0,0.9,0,1.8,0.9,2.2c0.4,0.4,0.9,0.4,1.3,0.4s0.9,0,0.9-0.4
	l4.4-2.2l4.4,2.2c0.9,0.4,1.8,0.4,2.2,0c0.9-0.4,0.9-1.3,0.9-2.2l-0.9-4.8l3.5-3.5c0.4-0.4,0.9-1.3,0.4-2.2
	C89.2,60.3,88.3,59.9,87.5,59.9z"/>
<path class="st0" d="M58.1,90.6l-0.9,4.8c0,0.9,0,1.8,0.9,2.2c0.9,0.4,1.8,0.4,2.2,0l4.4-2.2l4.4,2.2c0.4,0,0.9,0.4,0.9,0.4
	c0.4,0,0.9,0,1.3-0.4c0.9-0.4,0.9-1.3,0.9-2.2l-0.9-4.8l3.5-3.5c0.4-0.4,0.9-1.3,0.4-2.2c-0.4-0.9-0.9-1.3-1.8-1.3l-4.8-0.9
	l-2.2-4.4c-0.9-1.3-3.1-1.3-3.9,0l-2.2,4.4l-4.8,0.9c-0.9,0-1.3,0.9-1.8,1.3c-0.4,0.9,0,1.8,0.4,2.2L58.1,90.6z"/>
</svg>
