<?xml version="1.0" encoding="utf-8"?>
<!-- Generator: Adobe Illustrator 24.1.1, SVG Export Plug-In . SVG Version: 6.00 Build 0)  -->
<svg version="1.1" id="Layer_1" xmlns="http://www.w3.org/2000/svg" xmlns:xlink="http://www.w3.org/1999/xlink" x="0px" y="0px"
	 viewBox="0 0 200 200" style="enable-background:new 0 0 200 200;" xml:space="preserve">
<style type="text/css">
	.st0{fill:#454342;}
</style>
<g>
	<g>
		<path class="st0" d="M184.4,134.4v-18.8h-6.9c0.3-2.2,0.6-4.1,0.6-6.3c0-12.8-7.8-25.3-20.3-32.5c-0.9-0.6-2.2-1.3-2.5-1.6
			c0,0,0-0.3,0-0.9c0.3-0.9,0.6-1.9,0.6-2.5c0-2.2-0.9-4.1-2.8-5.3c-1.9-1.2-3.8-1.6-6.3-0.9l-3.1-1.9c-1.9-0.9-4.1-0.9-5.9,0
			l-3.8,1.6c-2.5-0.9-5.3,0-7.2,1.9c-1.6,1.9-2.2,4.7-0.9,6.9c0,0.3,0,0.6,0.3,0.9c-0.3,0.3-1.6,0.9-2.5,1.9
			c-0.9,0.6-2.2,1.3-3.1,1.9c-0.9-0.6-1.9-1.3-3.1-1.9c-0.9-0.6-2.2-1.3-2.5-1.6c0,0,0-0.3,0-0.9c0.3-0.9,0.6-1.9,0.6-2.5
			c0-2.2-0.9-4.1-2.8-5.3c-1.9-1.2-3.8-1.6-6.3-0.9l-3.4-1.9c-1.9-0.9-4.1-0.9-5.9,0l-3.8,1.6c-2.5-0.9-5.3,0-7.2,1.9
			c-1.6,1.9-2.2,4.7-0.9,6.9c0,0.3,0,0.6,0.3,0.9c-0.3,0.3-1.6,0.9-2.5,1.9c-0.9,0.6-2.2,1.3-3.1,1.9c-0.9-0.6-1.9-1.3-3.1-1.9
			c-0.9-0.6-2.2-1.3-2.5-1.6c0,0,0-0.3,0-0.9c0.3-0.9,0.6-1.9,0.6-2.5c0-2.2-0.9-4.1-2.8-5.3c-1.9-1.2-3.8-1.6-6.3-0.9l-3.4-1.9
			c-1.9-0.9-4.1-0.9-5.9,0l-3.8,1.6c-2.5-0.9-5.3,0-7.2,1.9c-1.6,1.9-2.2,4.7-0.9,6.9c0,0.3,0,0.6,0.3,0.9c-0.3,0.3-1.6,0.9-2.8,1.9
			c-12.5,7.2-20.3,19.7-20.3,32.5c0,2.2,0.3,4.1,0.6,6.3h-6.9v18.8H9.4v56.3h181.3v-56.3H184.4z M126.6,82.5L126.6,82.5
			c3.1-1.9,5.9-3.4,5.9-7.2c0-0.9-0.3-1.9-0.3-2.8l-0.6-0.6v-0.3c0.3-0.3,0.3,0,0.3,0c1.6,0.6,3.8,0.6,5-0.3l3.4-1.6h0.3l0,0
			l3.4,1.6c1.6,0.9,3.4,0.9,5.3,0.3c0,0,0.3,0.3,0,0.6l-0.3,0.6c-1.6,5.9,1.9,8.1,5.3,10c10.6,5.9,17.2,16.6,17.2,26.9
			c0,2.2-0.3,4.1-0.6,6.3h-34.4v-0.3c0-0.6,0.3-1.3,0.3-1.9c0-0.3,0-0.6,0-0.9c0-0.9,0-1.9,0-2.8c0-1.3,0-2.5-0.3-3.8
			c0-0.3,0-0.9-0.3-1.3c0-0.9-0.3-1.6-0.6-2.5c0-0.6-0.3-0.9-0.3-1.6c-0.3-0.6-0.3-1.6-0.6-2.2s-0.3-0.9-0.6-1.6s-0.6-1.3-0.9-2.2
			c-0.3-0.6-0.6-0.9-0.9-1.6c-0.3-0.6-0.6-1.3-1.3-1.9c-0.3-0.6-0.6-0.9-0.9-1.6c-0.3-0.6-0.9-1.2-1.3-1.9c-0.3-0.6-0.6-0.9-1.3-1.6
			c-0.6-0.6-1.3-1.3-1.9-1.9c-0.3-0.3-0.6-0.6-1.3-1.3l0,0C125.6,82.8,125.9,82.5,126.6,82.5z M85.9,82.5L85.9,82.5
			c3.1-1.9,5.9-3.4,5.9-7.2c0-0.9-0.3-1.9-0.3-2.8l-0.6-0.6v-0.3c0.3-0.3,0.3,0,0.3,0c1.6,0.6,3.8,0.6,5-0.3l3.4-1.6h0.3l0,0
			l3.4,1.6c1.6,0.9,3.4,0.9,5.3,0.3c0,0,0.3,0.3,0,0.6l-0.3,0.6c-1.6,5.9,1.9,8.1,5.3,10c1.6,0.9,2.8,1.9,4.1,2.8
			c8.1,6.3,12.8,15.3,12.8,24.1c0,1.3,0,2.5-0.3,3.8c0,0.3,0,0.6-0.3,1.3c0,0.3-0.3,0.9-0.3,1.3H96.3v-0.3c0-0.6,0.3-1.3,0.3-1.9
			c0-0.3,0-0.6,0-0.9c0-0.9,0-1.9,0-2.8c0-1.3,0-2.5-0.3-3.8c0-0.3,0-0.9-0.3-1.3c0-0.9-0.3-1.6-0.6-2.5c0-0.6-0.3-0.9-0.3-1.6
			c-0.3-0.6-0.3-1.6-0.6-2.2c-0.3-0.6-0.3-0.9-0.6-1.6c-0.3-0.6-0.6-1.2-0.9-2.2c-0.3-0.6-0.6-0.9-0.9-1.6c-0.3-0.6-0.6-1.3-1.3-1.9
			c-0.3-0.6-0.6-0.9-0.9-1.6c-0.3-0.6-0.9-1.3-1.3-1.9s-0.6-0.9-1.3-1.6c-0.6-0.6-1.3-1.3-1.9-1.9c-0.3-0.3-0.6-0.6-1.3-1.3l0,0
			C85,82.8,85.3,82.5,85.9,82.5z M28.1,109.4c0-10.6,6.6-20.9,17.2-26.9l0.3-0.3c2.8-1.6,5.6-3.1,5.6-7.2c0-0.9-0.3-1.9-0.3-2.8
			l-0.6-0.3v-0.3c0.3-0.3,0.3,0,0.3,0c1.6,0.6,3.8,0.6,5-0.3l3.4-1.6h0.3l0,0l3.4,1.6c1.6,0.9,3.4,0.9,5.3,0.3c0,0,0.3,0.3,0,0.6
			l-0.3,0.6c-1.6,5.9,1.9,8.1,5.3,10c1.6,0.9,2.8,1.9,4.1,2.8c8.1,6.3,12.8,15.3,12.8,24.1c0,1.3,0,2.5-0.3,3.8c0,0.3,0,0.6-0.3,1.3
			c0,0.3-0.3,0.9-0.3,1.3H28.8C28.4,113.4,28.1,111.6,28.1,109.4z M21.9,121.9h2.5h63.4h6.6h34.1h6.6h40.6h2.5v12.5H21.9V121.9z
			 M184.4,184.4H15.6V175h31.3c1.9,0,3.1-1.3,3.1-3.1s-1.3-3.1-3.1-3.1H15.6v-12.5h25c1.9,0,3.1-1.3,3.1-3.1s-1.3-3.1-3.1-3.1h-25
			v-9.4h168.8V184.4z"/>
		<path class="st0" d="M50.9,79.1l-3.1,3.1c-1.2,1.3-1.2,3.1,0,4.4c0.6,0.6,1.6,0.9,2.2,0.9s1.6-0.3,2.2-0.9l3.1-3.1
			c0.6-0.6,0.9-1.6,0.9-2.2c0-0.6-0.3-1.6-0.9-2.2C54.1,77.8,52.2,77.8,50.9,79.1z"/>
		<path class="st0" d="M59.4,78.1c-1.9,0-3.1,1.3-3.1,3.1v6.3c0,1.9,1.3,3.1,3.1,3.1s3.1-1.3,3.1-3.1v-6.3
			C62.5,79.4,61.3,78.1,59.4,78.1z"/>
		<path class="st0" d="M67.8,79.1c-1.3-1.3-3.1-1.3-4.4,0c-0.6,0.6-0.9,1.3-0.9,2.2s0.3,1.6,0.9,2.2l3.1,3.1
			c0.6,0.6,1.6,0.9,2.2,0.9s1.6-0.3,2.2-0.9c1.3-1.3,1.3-3.1,0-4.4L67.8,79.1z"/>
		<path class="st0" d="M90.6,87.5c0.9,0,1.6-0.3,2.2-0.9l3.1-3.1c0.6-0.6,0.9-1.6,0.9-2.2s-0.3-1.6-0.9-2.2c-1.3-1.3-3.1-1.3-4.4,0
			l-3.1,3.1c-1.2,1.3-1.2,3.1,0,4.4C89.1,87.2,89.7,87.5,90.6,87.5z"/>
		<path class="st0" d="M100,90.6c1.9,0,3.1-1.3,3.1-3.1v-6.3c0-1.9-1.3-3.1-3.1-3.1s-3.1,1.3-3.1,3.1v6.3
			C96.9,89.4,98.1,90.6,100,90.6z"/>
		<path class="st0" d="M107.2,86.6c0.6,0.6,1.6,0.9,2.2,0.9s1.6-0.3,2.2-0.9c1.3-1.3,1.3-3.1,0-4.4l-3.1-3.1c-1.3-1.2-3.1-1.2-4.4,0
			c-0.6,0.6-0.9,1.3-0.9,2.2s0.3,1.6,0.9,2.2L107.2,86.6z"/>
		<path class="st0" d="M131.3,87.5c0.9,0,1.6-0.3,2.2-0.9l3.1-3.1c0.6-0.6,0.9-1.6,0.9-2.2s-0.3-1.6-0.9-2.2c-1.3-1.3-3.1-1.3-4.4,0
			l-3.1,3.1c-1.3,1.3-1.3,3.1,0,4.4C129.7,87.2,130.3,87.5,131.3,87.5z"/>
		<path class="st0" d="M140.6,90.6c1.9,0,3.1-1.3,3.1-3.1v-6.3c0-1.9-1.3-3.1-3.1-3.1s-3.1,1.3-3.1,3.1v6.3
			C137.5,89.4,138.8,90.6,140.6,90.6z"/>
		<path class="st0" d="M147.8,86.6c0.6,0.6,1.6,0.9,2.2,0.9s1.6-0.3,2.2-0.9c1.3-1.3,1.3-3.1,0-4.4l-3.1-3.1c-1.3-1.2-3.1-1.2-4.4,0
			c-0.6,0.6-0.9,1.3-0.9,2.2s0.3,1.6,0.9,2.2L147.8,86.6z"/>
		<path class="st0" d="M97.8,41.6c-1.3,1.3-1.3,3.1,0,4.4c0.6,0.6,1.3,0.9,2.2,0.9s1.6-0.3,2.2-0.9c5.3-5.6,5.3-14.4,0-20
			c-3.1-3.1-3.1-8.1,0-11.3c1.3-1.3,1.3-3.1,0-4.4c-1.3-1.3-3.1-1.3-4.4,0c-5.3,5.6-5.3,14.4,0,20C100.6,33.4,100.6,38.4,97.8,41.6z
			"/>
		<path class="st0" d="M141.6,41.6c-1.3,1.3-1.3,3.1,0,4.4c0.6,0.6,1.3,0.9,2.2,0.9s1.6-0.3,2.2-0.9c5.3-5.6,5.3-14.4,0-20
			c-3.1-3.1-3.1-8.1,0-11.3c1.3-1.3,1.3-3.1,0-4.4s-3.1-1.3-4.4,0c-5.3,5.6-5.3,14.4,0,20C144.4,33.4,144.4,38.4,141.6,41.6z"/>
		<path class="st0" d="M54.1,41.6c-1.2,1.3-1.2,3.1,0,4.4c0.6,0.6,1.3,0.9,2.2,0.9c0.9,0,1.6-0.3,2.2-0.9c5.3-5.6,5.3-14.4,0-20
			c-3.1-3.1-3.1-8.1,0-11.3c1.2-1.3,1.2-3.1,0-4.4c-1.3-1.3-3.1-1.3-4.4,0c-5.3,5.6-5.3,14.4,0,20C56.9,33.4,56.9,38.4,54.1,41.6z"
			/>
	</g>
</g>
</svg>
