<?xml version="1.0" encoding="utf-8"?>
<!-- Generator: Adobe Illustrator 24.1.1, SVG Export Plug-In . SVG Version: 6.00 Build 0)  -->
<svg version="1.1" id="Layer_1" xmlns="http://www.w3.org/2000/svg" xmlns:xlink="http://www.w3.org/1999/xlink" x="0px" y="0px"
	 viewBox="0 0 100 100" style="enable-background:new 0 0 100 100;" xml:space="preserve">
<style type="text/css">
	.st0{fill:#5C5B58;}
</style>
<path class="st0" d="M41.8,46.8h-3.9c-0.9-0.1-1.6,0.6-1.7,1.4c-0.1,0.9,0.6,1.6,1.4,1.7c0.1,0,0.2,0,0.3,0h3.9
	c0.9-0.1,1.5-0.8,1.4-1.7C43.2,47.5,42.6,46.9,41.8,46.8z"/>
<path class="st0" d="M63.5,48.4c0-0.9-0.7-1.6-1.5-1.6h-3.9c-0.9,0.1-1.5,0.8-1.4,1.7c0.1,0.8,0.7,1.4,1.4,1.4H62
	C62.9,50,63.5,49.2,63.5,48.4z"/>
<path class="st0" d="M44.1,61.9c0.6,0.6,1.6,0.6,2.2,0c0,0,0,0,0,0c0.3-0.3,0.7-0.3,0.9,0c0,0,0,0,0,0c1.5,1.5,3.9,1.5,5.4,0
	c0,0,0,0,0,0c0.3-0.3,0.7-0.3,0.9,0c0.7,0.6,1.7,0.5,2.2-0.1c0.5-0.6,0.5-1.5,0-2.1c-1.5-1.5-3.9-1.5-5.4,0c-0.3,0.3-0.7,0.3-0.9,0
	c0,0,0,0,0,0c-1.5-1.5-3.9-1.5-5.4,0C43.5,60.2,43.4,61.2,44.1,61.9C44.1,61.9,44.1,61.9,44.1,61.9z"/>
<path class="st0" d="M39.2,62.4c-0.8-0.3-1.7,0.2-2,1c0,0,0,0,0,0L35,70.2c-0.3,0.8,0.2,1.7,1,2s1.7-0.2,2-1l2.3-6.7
	C40.5,63.6,40.1,62.7,39.2,62.4C39.2,62.4,39.2,62.4,39.2,62.4z"/>
<path class="st0" d="M62.6,63.4c-0.3-0.8-1.2-1.3-2-1s-1.3,1.2-1,2l0,0l2.3,6.7c0.3,0.8,1.2,1.3,2,1c0.8-0.3,1.3-1.2,1-2L62.6,63.4z
	"/>
<path class="st0" d="M56.5,41.9h0.1l3.4-0.3c0.9-0.1,1.4-0.9,1.3-1.8c-0.1-0.8-0.8-1.3-1.5-1.3l-3.4,0.3c-0.9,0.1-1.5,0.9-1.3,1.8
	C55.1,41.3,55.7,41.8,56.5,41.9z"/>
<path class="st0" d="M39.8,41.6l3.4,0.3h0.1c0.9,0,1.6-0.8,1.5-1.6c0-0.8-0.6-1.4-1.4-1.5l-3.4-0.3c-0.9,0-1.6,0.6-1.7,1.5
	C38.4,40.8,39,41.5,39.8,41.6z"/>
<path class="st0" d="M55.1,67.7H44.8c-0.9,0-1.6,0.7-1.6,1.6c0,0.9,0.7,1.6,1.6,1.6h10.3c0.9,0.1,1.6-0.6,1.7-1.4
	c0.1-0.9-0.6-1.6-1.4-1.7C55.3,67.7,55.2,67.7,55.1,67.7z"/>
<path class="st0" d="M53.2,74c-0.9,0-1.6,0.7-1.6,1.6c0,0,0,0,0,0c0,0,0,0.1-0.1,0.1c-0.9,0-1.6,0.7-1.6,1.6c0,0.9,0.7,1.6,1.6,1.6
	c1.8,0,3.2-1.4,3.2-3.2C54.8,74.7,54.1,74,53.2,74C53.2,74,53.2,74,53.2,74z"/>
<path class="st0" d="M77.1,45.5c2.4-4,4.4-8.3,6-12.7c0.9-2.8,0.4-5.8-1.3-8.1c-5.3-7.4-20.3-9-31.8-9s-26.5,1.6-31.8,9
	c-1.8,2.3-2.3,5.4-1.3,8.1c1.6,4.4,3.6,8.6,6,12.7c0.1,0.2,0.2,0.3,0.4,0.4l-0.5,4.5c-2.8,0.1-4.8,2.2-5.1,5.3l-0.6,7.7v0
	c-0.1,2.9,2.1,5.4,5,5.5c0,0,0,0,0,0c0.8,3.3,2.2,6.4,4.3,9c3.3,4.2,8.3,6.9,13.6,7.3c1.3,1.2,3,1.8,4.7,1.8h10.8
	c1.8,0,3.4-0.6,4.7-1.8c0.1,0,0.2,0,0.3,0c5.3-0.5,10.2-3.2,13.4-7.5c2-2.6,3.4-5.6,4.1-8.8c2.9-0.1,5.2-2.5,5.1-5.4
	c0,0,0-0.1,0-0.1v0l-0.6-7.8c-0.3-3.1-2.3-5.2-5.1-5.3l-0.5-4.5C76.9,45.8,77,45.6,77.1,45.5z M20.6,65.2c-0.4-0.4-0.6-1-0.6-1.5
	l0.6-7.7c0.1-1.3,0.7-2.1,1.6-2.4l-0.7,5.9c-0.3,2.1-0.4,4.1-0.2,6.2C21.1,65.6,20.8,65.4,20.6,65.2z M71.3,75.8
	c-2.4,3.1-5.9,5.3-9.8,6.1c0,0,0-0.1,0-0.1c-0.1-0.9-0.8-1.5-1.7-1.4c-0.8,0.1-1.4,0.7-1.4,1.4c0,1.2-1.5,2.2-3.1,2.2H44.6
	c-1.7,0-3.1-1-3.1-2.2c0.1-0.9-0.6-1.6-1.4-1.7c-0.9-0.1-1.6,0.6-1.7,1.4c0,0.1,0,0.2,0,0.3c0,0,0,0.1,0,0.1
	c-3.8-0.7-7.2-2.8-9.6-5.9c-3.5-4.6-5-10.4-4-16.1v0l2-17.7l0,0c1-11.5,11.2-20.4,23.2-20.4s22.2,9,23.2,20.4l0,0l2,17.7V60
	C76.1,65.5,74.7,71.3,71.3,75.8z M79.2,55.9l0.6,7.7c0,0.6-0.2,1.1-0.6,1.6c-0.2,0.2-0.5,0.4-0.8,0.5c0.2-2.1,0.1-4.2-0.2-6.2
	l-0.7-5.9C78.5,53.8,79.1,54.6,79.2,55.9z"/>
</svg>
