<?xml version="1.0" encoding="utf-8"?>
<!-- Generator: Adobe Illustrator 24.1.1, SVG Export Plug-In . SVG Version: 6.00 Build 0)  -->
<svg version="1.1" id="Layer_1" xmlns="http://www.w3.org/2000/svg" xmlns:xlink="http://www.w3.org/1999/xlink" x="0px" y="0px"
	 viewBox="0 0 100 100" style="enable-background:new 0 0 100 100;" xml:space="preserve">
<style type="text/css">
	.st0{fill-rule:evenodd;clip-rule:evenodd;fill:#43A2D3;}
</style>
<g>
	<path class="st0" d="M50.2,29.3c-7.6,5.2-17.2,11.9-29,29.5L1.3,77.3c-1.2,1.1-1.2,2.9-0.1,4.1c0.8,0.8,1.9,1.1,2.9,0.8
		c2.7-0.7,5.7-1.8,8.6-2.8c2.4-0.9,4.7-1.7,6.7-2.3c-1.7,6.3-6.6,12.7-9.9,18.5c-1.7,3,2.3,5.9,4.6,3.5l15.1-14.9
		c8.7-8.6,12.5-9.8,24.7-12.3l1.6,7.8h-1.9c-1.6,0-2.9,1.3-2.9,2.9s1.3,2.9,2.9,2.9h13.6c1.6,0,2.9-1.3,2.9-2.9s-1.3-2.9-2.9-2.9
		h-5.7l-1.9-9c13.6-3,25.7-7.7,29.3-31.8c1.1-7.2,2.2-14.8,3.1-22c2.3-2,5.1-2.6,7.4-3.1c0.4-0.1,0.5-0.6,0.2-0.9
		c-2.5-1.9-4.7-2.9-7.9-3.7c-0.4-1.4-1.1-2.6-1.9-3.7c-5.3-7.3-16.6-7.2-22.1-0.1c-3,3.8-3.4,8.9-5.8,13C59,23.3,55.1,26,50.2,29.3
		 M76.5,11.6c0,1.5,1.2,2.7,2.7,2.7s2.7-1.2,2.7-2.7s-1.2-2.7-2.7-2.7C77.7,9,76.5,10.1,76.5,11.6z M53.1,50.8
		c-4,2.5-8.8,2.7-13.3,2.9c-2.8,0.2-5.6,0.3-8.4,0.9c8.7-11.3,16.1-16.3,22.1-20.4c5.5-3.8,9.9-6.8,13.4-12.9
		c2.1-3.7,3.1-9.5,5.3-12.4c3.1-4,9.8-4.2,12.8,0c1,1.4,1.5,3.3,1.3,5.7c-0.8,7.4-2.2,16.4-3.4,24c-3.6,22.2-16,24.7-29,27.4
		c-8.1,1.6-18.6,4-24.9,10.1l-4.7,4.7c0.5-1.5,0.9-2.9,1.1-4.5c0.6-3.9,0-6-4.4-5.4c-2.2,0.3-4.8,1.2-5.9,1.5l10-9.3
		c4.8-3,10-3.3,15-3.6c5.9-0.3,11.5-0.7,16.7-4.2c6.2-4.6,8.7-11.8,9.5-20.4C60.8,44.1,58.8,47.4,53.1,50.8z"/>
</g>
</svg>
