<?xml version="1.0" encoding="utf-8"?>
<!-- Generator: Adobe Illustrator 24.1.1, SVG Export Plug-In . SVG Version: 6.00 Build 0)  -->
<svg version="1.1" id="Layer_1" xmlns="http://www.w3.org/2000/svg" xmlns:xlink="http://www.w3.org/1999/xlink" x="0px" y="0px"
	 viewBox="0 0 100 100" style="enable-background:new 0 0 100 100;" xml:space="preserve">
<style type="text/css">
	.st0{fill:#F12D38;}
</style>
<g>
	<path class="st0" d="M68.8,32.8V21.9h1.6c0.7,0,1.3-0.4,1.5-1.1l3.1-9.4c0-0.2,0.1-0.3,0.1-0.5V4.7c0-0.9-0.7-1.6-1.6-1.6H35.9
		c-0.9,0-1.6,0.7-1.6,1.6v6.3c0,0.2,0,0.3,0.1,0.5l3.1,9.4c0.2,0.6,0.8,1.1,1.5,1.1h1.6v10.9c0,2.9,1.2,5.8,3.3,7.8H20.3
		c-2.6,0-4.7,2.1-4.7,4.7s2.1,4.7,4.7,4.7H25v12.5h12.5v25h6.3v7.8c0,0.9,0.7,1.6,1.6,1.6h6.3c0.9,0,1.6-0.7,1.6-1.6v-7.8h3.1v7.8
		c0,0.9,0.7,1.6,1.6,1.6h6.3c0.9,0,1.6-0.7,1.6-1.6v-7.8h6.3V40.6h-6.4C67.6,38.6,68.8,35.8,68.8,32.8z M69.2,18.8h-8.2v-6.3h10.3
		L69.2,18.8z M51.6,12.5h6.3v18.8h-6.3V12.5z M37.5,6.3h34.4v3.1H37.5V6.3z M40.2,18.8l-2.1-6.3h10.3v6.3H40.2z M50,62.5h9.4v9.4H50
		V62.5z M53.1,59.4H50V43.8h3.1V59.4z M46.9,43.8v3.1h-4.7c-0.9,0-1.6-0.7-1.6-1.6s0.7-1.6,1.6-1.6H46.9z M20.3,46.9
		c-0.9,0-1.6-0.7-1.6-1.6s0.7-1.6,1.6-1.6H25v3.1H20.3z M28.1,59.4V43.8h3.1v15.6H28.1z M34.4,59.4V43.8h3.1v15.6H34.4z M50,93.8
		h-3.1v-6.3H50V93.8z M62.5,93.8h-3.1v-6.3h3.1V93.8z M68.8,84.4H40.6v-3.1h28.1V84.4z M68.8,78.1H40.6V49.7c0.5,0.2,1,0.3,1.6,0.3
		h4.7v25h15.6V62.4c2.4-0.3,4.6-1.5,6.3-3.2V78.1z M68.8,43.8v7.8c0,4.3-3.5,7.8-7.8,7.8h-4.7V43.8H68.8z M51.6,40.6
		c-4.3,0-7.8-3.5-7.8-7.8V21.9h4.7v10.9c0,0.9,0.7,1.6,1.6,1.6h9.4c0.9,0,1.6-0.7,1.6-1.6V21.9h4.7v10.9c0,4.3-3.5,7.8-7.8,7.8H51.6
		z"/>
	<rect x="81.3" y="67.2" class="st0" width="3.1" height="12.5"/>
	<rect x="75" y="73.4" class="st0" width="3.1" height="12.5"/>
	<rect x="25" y="65.6" class="st0" width="3.1" height="12.5"/>
	<rect x="31.3" y="71.9" class="st0" width="3.1" height="12.5"/>
</g>
</svg>
