<?xml version="1.0" encoding="utf-8"?>
<!-- Generator: Adobe Illustrator 24.1.2, SVG Export Plug-In . SVG Version: 6.00 Build 0)  -->
<svg version="1.1" id="Layer_1" xmlns="http://www.w3.org/2000/svg" xmlns:xlink="http://www.w3.org/1999/xlink" x="0px" y="0px"
	 viewBox="0 0 612 792" style="enable-background:new 0 0 612 792;" xml:space="preserve">
<style type="text/css">
	.st0{fill-rule:evenodd;clip-rule:evenodd;fill:#E0EEEC;}
	.st1{display:none;clip-path:url(#SVGID_3_);}
</style>
<image style="display:none;overflow:visible;enable-background:new    ;" width="2104" height="1500" xlink:href="../../../../../Dropbox/Grundlemere/Houhai Project/icon/732A7ACF.jpg"  transform="matrix(0.2397 0 0 0.2397 53.8381 216.2268)">
</image>
<g>
	<g>
		<path id="SVGID_1_" class="st0" d="M365,423.8c0-0.3,0-0.6,0-1c-0.1-0.1-0.2-0.2-0.2-0.2c-2.6-0.4-5.1-0.8-7.7-1.2
			c-1.8-0.4-5-0.1-6.5,0.2c-2.7,0.6-4.7,0.1-7.2,0.7c-4.3,1.1-8.7,2.8-12,5c-4.8,3.3-6.5,10.4-9.8,15.1c-2.5,3.5-6.5,5-10.6,7
			c-1.8,0.9-8.8-0.5-9.8-0.7c-9.7-1.8-18.2-3.7-26.4-6.7c-2.4-0.9-8.6-2-8.9-4.6c0.9-0.5,1.3-0.7,2.9-0.7c0.7,0.3,2.7-0.2,3.8-0.2
			c4-0.1,7.9,0,11.3-0.7c1.8-0.1,3.5-0.2,5.3-0.2c9.7-2.3,16.9-3,19.9-12.2c0.8-2.3,0.9-6.5,0.2-9.1c-0.7-2.5-0.4-4.7-1.7-6.5
			c-5.5-7.9-14.7-12.9-22.8-18.2c-14-9.3-29.7-17-44.2-25.9c-6.1-3.7-12-7.2-17.8-11c-2.9-1.9-6.4-2.4-6.5-7.2
			c0.5-0.3,0.6-0.5,1.2-0.7c1.2-1,3.4-0.3,4.6,0.2c3.7,1.6,7.7,3.6,11.3,5.5c6.9,3.7,14,7.6,21.4,10.8c3.6,1.6,7.1,2.5,10.8,4.1
			c3.9,1.6,9.7,4.8,13.9,5.5c0-0.1,0-0.2,0-0.2c-3.1-3.2-4.8-10.2-6.7-14.6c-2.8-6.7-5.6-13.9-7.9-21.1c-0.8-2.4-0.7-4.7-1.4-7.2
			c-1.2-4.3-3-10.8-2.2-15.8c0.9-0.5,1.1-0.9,2.6-1c0.2,0.2,0.1,0.1,0.5,0.2c2.7,5.8,3.6,13.1,6.2,19.2
			c5.4,12.7,12.2,24.6,19.2,35.8c5.2,8.2,10.5,16.5,18.2,22.1c8.7,6.3,26.5,11.4,37.4,3.4c1.5-1.1,3-2.3,3.8-4.1
			c1.8-3.8,1.4-10.2,0-13.9c-0.9-2.3-2.7-4.5-3.1-7.2c0.8-0.7,0.8-1.1,2.4-1.2c5.1,5.4,10,10.9,14.2,17.3c1.2,1.8,3.3,5.3,2.2,8.4
			c-1.5,4.2-6.2,7.6-9.6,10.1c-1.6,1.2-3.7,2.1-4.1,4.6c0.3,0.3,0.4,0.7,0.5,1.2c4.8,2.4,11.6,3.4,14.6,7.7c0.9,1.2,1.7,3.3,2.2,4.8
			c0,0.7,0,1.4,0,2.2c0.1,0,0.2,0,0.2,0c0.7,1.5,1.9,1.5,3.1,2.4c0.5,0.4,0.7,1.2,1.2,1.7c-0.6,0.8-0.8,1.8-1.9,2.2
			c-1.6,1.1-4.6,0.8-6.5,1.4c-6.9,2.3-14.6,3.1-24.2,3.1c-3.1,0-5.7,0.3-8.2-0.2c-0.7-1.1-1.6-3,0-4.1c2.3-1.4,8.4,0.2,11.5-0.5
			c2.8-0.6,5.9,0,8.9-0.7C356.5,425.6,361.4,424.3,365,423.8L365,423.8z M322.8,340.8c1,0,1.9,0.1,2.6,0.2c1.2,2.3,3.3,3.8,5,5.5
			c3.4,3.4,6.9,6.9,10.3,10.3c1.9,1.9,5.2,3.5,5.3,7c-0.9,0.6-1.1,1.1-2.6,1.2c-6.1-4.9-11.3-10.4-16.8-15.8c-1.8-1.8-5.3-3.7-5.5-7
			C321.7,341.7,322.2,341.3,322.8,340.8L322.8,340.8z M332.2,368.6c2.8,0.1,3.5,1.7,5,2.9c3.2,2.4,5.9,5.1,8.9,7.7
			c1.4,1.2,3,1.8,3.4,4.1c-0.4,0.4-0.5,0.9-1,1.2c-0.5,0.4-1.2,0.5-2.2,0.5c-2-1.9-4.3-3.6-6.5-5.3c-1.7-1.3-3.1-3.3-4.8-4.6
			c-1.7-1.3-4.3-2.3-4.6-5C331,369.6,331.6,369.1,332.2,368.6L332.2,368.6z M329.3,384.7c2.1,0.4,8.1,5.2,8.4,7.2
			c0.2,0.3-0.1,0.8-0.2,1.4c-0.5,0.4-1,0.8-1.4,1.2c-3.5-1.3-6.2-3.9-8.6-6.2c-0.1-0.6-0.2-1.1-0.2-1.7
			C328,385.6,328.3,385.5,329.3,384.7L329.3,384.7z M282.2,390.2c1.1,0,1.3,0.3,2.2,0.5c3,5.2,6.9,9.4,11,13.4
			c1.7,1.7,4.7,2.8,5,5.8c-0.6,0.6-1.2,1.1-1.9,1.7c-4.6-1-12.2-10.3-14.9-13.9c-1.3-1.7-3-2.9-3.1-5.8
			C281.1,391.4,281.7,390.8,282.2,390.2L282.2,390.2z M302.4,410.2c2.1,0.1,4.5,1.5,5,3.1c1,1.5-1.1,2.6-2.4,2.6
			c-1.9-1.4-4.3-1.2-4.3-4.6C301.3,411,301.8,410.6,302.4,410.2L302.4,410.2z M290.6,417.1c1.7,0.2,2.8,1.3,4.1,1.9
			c2.4,1.2,5.1,2.4,7.4,3.4c1.7,0.7,3.9,0.7,4.6,2.4c0.7,1-0.1,2.1-1,2.4c-1.6,1.3-4.2-0.6-5.5-1.2c-3.9-1.9-10.3-2.8-10.8-7.9
			C289.9,417.8,290.3,417.5,290.6,417.1L290.6,417.1z M260.2,418.1c3.5-0.1,5.2,1.6,7.7,2.6c3.4,1.5,6.5,2.6,9.8,4.1
			c2.1,0.9,4.2,2.4,6.2,3.4c2.7,1.2,6.8,1.3,6.7,5.3c-0.9,0.6-1,1-2.6,1c-1.5-1-3.4-1.2-5-1.9c-2.1-0.9-4.4-2.5-6.5-3.4
			c-3.9-1.7-7.8-2.8-11.3-4.8c-2.4-1.3-6.2-1.5-6.2-5c0.2-0.2,0.1-0.1,0.2-0.5C259.6,418.6,259.9,418.4,260.2,418.1L260.2,418.1z
			 M228.7,419.5c3,0,5.2,1.9,7.4,2.9c5.5,2.4,10.9,4.9,16.3,7.2c2.2,0.9,8.6,2.4,9.4,4.3c0.6,0.7,0.4,1.3,0,2.2
			c-0.9,0.4-1.3,0.7-2.6,0.7c-2.6-1.9-7.1-2.4-10.1-3.8c-4.5-2.2-9.2-4.5-13.7-6.5c-2.4-1.1-7-1.8-7.9-4.3c-0.2-0.3-0.2-0.8-0.2-1.4
			C227.8,420.3,228.2,419.9,228.7,419.5L228.7,419.5z"/>
	</g>
	<g>
		<defs>
			<path id="SVGID_2_" d="M365,423.8c0-0.3,0-0.6,0-1c-0.1-0.1-0.2-0.2-0.2-0.2c-2.6-0.4-5.1-0.8-7.7-1.2c-1.8-0.4-5-0.1-6.5,0.2
				c-2.7,0.6-4.7,0.1-7.2,0.7c-4.3,1.1-8.7,2.8-12,5c-4.8,3.3-6.5,10.4-9.8,15.1c-2.5,3.5-6.5,5-10.6,7c-1.8,0.9-8.8-0.5-9.8-0.7
				c-9.7-1.8-18.2-3.7-26.4-6.7c-2.4-0.9-8.6-2-8.9-4.6c0.9-0.5,1.3-0.7,2.9-0.7c0.7,0.3,2.7-0.2,3.8-0.2c4-0.1,7.9,0,11.3-0.7
				c1.8-0.1,3.5-0.2,5.3-0.2c9.7-2.3,16.9-3,19.9-12.2c0.8-2.3,0.9-6.5,0.2-9.1c-0.7-2.5-0.4-4.7-1.7-6.5
				c-5.5-7.9-14.7-12.9-22.8-18.2c-14-9.3-29.7-17-44.2-25.9c-6.1-3.7-12-7.2-17.8-11c-2.9-1.9-6.4-2.4-6.5-7.2
				c0.5-0.3,0.6-0.5,1.2-0.7c1.2-1,3.4-0.3,4.6,0.2c3.7,1.6,7.7,3.6,11.3,5.5c6.9,3.7,14,7.6,21.4,10.8c3.6,1.6,7.1,2.5,10.8,4.1
				c3.9,1.6,9.7,4.8,13.9,5.5c0-0.1,0-0.2,0-0.2c-3.1-3.2-4.8-10.2-6.7-14.6c-2.8-6.7-5.6-13.9-7.9-21.1c-0.8-2.4-0.7-4.7-1.4-7.2
				c-1.2-4.3-3-10.8-2.2-15.8c0.9-0.5,1.1-0.9,2.6-1c0.2,0.2,0.1,0.1,0.5,0.2c2.7,5.8,3.6,13.1,6.2,19.2
				c5.4,12.7,12.2,24.6,19.2,35.8c5.2,8.2,10.5,16.5,18.2,22.1c8.7,6.3,26.5,11.4,37.4,3.4c1.5-1.1,3-2.3,3.8-4.1
				c1.8-3.8,1.4-10.2,0-13.9c-0.9-2.3-2.7-4.5-3.1-7.2c0.8-0.7,0.8-1.1,2.4-1.2c5.1,5.4,10,10.9,14.2,17.3c1.2,1.8,3.3,5.3,2.2,8.4
				c-1.5,4.2-6.2,7.6-9.6,10.1c-1.6,1.2-3.7,2.1-4.1,4.6c0.3,0.3,0.4,0.7,0.5,1.2c4.8,2.4,11.6,3.4,14.6,7.7
				c0.9,1.2,1.7,3.3,2.2,4.8c0,0.7,0,1.4,0,2.2c0.1,0,0.2,0,0.2,0c0.7,1.5,1.9,1.5,3.1,2.4c0.5,0.4,0.7,1.2,1.2,1.7
				c-0.6,0.8-0.8,1.8-1.9,2.2c-1.6,1.1-4.6,0.8-6.5,1.4c-6.9,2.3-14.6,3.1-24.2,3.1c-3.1,0-5.7,0.3-8.2-0.2c-0.7-1.1-1.6-3,0-4.1
				c2.3-1.4,8.4,0.2,11.5-0.5c2.8-0.6,5.9,0,8.9-0.7C356.5,425.6,361.4,424.3,365,423.8L365,423.8z M322.8,340.8
				c1,0,1.9,0.1,2.6,0.2c1.2,2.3,3.3,3.8,5,5.5c3.4,3.4,6.9,6.9,10.3,10.3c1.9,1.9,5.2,3.5,5.3,7c-0.9,0.6-1.1,1.1-2.6,1.2
				c-6.1-4.9-11.3-10.4-16.8-15.8c-1.8-1.8-5.3-3.7-5.5-7C321.7,341.7,322.2,341.3,322.8,340.8L322.8,340.8z M332.2,368.6
				c2.8,0.1,3.5,1.7,5,2.9c3.2,2.4,5.9,5.1,8.9,7.7c1.4,1.2,3,1.8,3.4,4.1c-0.4,0.4-0.5,0.9-1,1.2c-0.5,0.4-1.2,0.5-2.2,0.5
				c-2-1.9-4.3-3.6-6.5-5.3c-1.7-1.3-3.1-3.3-4.8-4.6c-1.7-1.3-4.3-2.3-4.6-5C331,369.6,331.6,369.1,332.2,368.6L332.2,368.6z
				 M329.3,384.7c2.1,0.4,8.1,5.2,8.4,7.2c0.2,0.3-0.1,0.8-0.2,1.4c-0.5,0.4-1,0.8-1.4,1.2c-3.5-1.3-6.2-3.9-8.6-6.2
				c-0.1-0.6-0.2-1.1-0.2-1.7C328,385.6,328.3,385.5,329.3,384.7L329.3,384.7z M282.2,390.2c1.1,0,1.3,0.3,2.2,0.5
				c3,5.2,6.9,9.4,11,13.4c1.7,1.7,4.7,2.8,5,5.8c-0.6,0.6-1.2,1.1-1.9,1.7c-4.6-1-12.2-10.3-14.9-13.9c-1.3-1.7-3-2.9-3.1-5.8
				C281.1,391.4,281.7,390.8,282.2,390.2L282.2,390.2z M302.4,410.2c2.1,0.1,4.5,1.5,5,3.1c1,1.5-1.1,2.6-2.4,2.6
				c-1.9-1.4-4.3-1.2-4.3-4.6C301.3,411,301.8,410.6,302.4,410.2L302.4,410.2z M290.6,417.1c1.7,0.2,2.8,1.3,4.1,1.9
				c2.4,1.2,5.1,2.4,7.4,3.4c1.7,0.7,3.9,0.7,4.6,2.4c0.7,1-0.1,2.1-1,2.4c-1.6,1.3-4.2-0.6-5.5-1.2c-3.9-1.9-10.3-2.8-10.8-7.9
				C289.9,417.8,290.3,417.5,290.6,417.1L290.6,417.1z M260.2,418.1c3.5-0.1,5.2,1.6,7.7,2.6c3.4,1.5,6.5,2.6,9.8,4.1
				c2.1,0.9,4.2,2.4,6.2,3.4c2.7,1.2,6.8,1.3,6.7,5.3c-0.9,0.6-1,1-2.6,1c-1.5-1-3.4-1.2-5-1.9c-2.1-0.9-4.4-2.5-6.5-3.4
				c-3.9-1.7-7.8-2.8-11.3-4.8c-2.4-1.3-6.2-1.5-6.2-5c0.2-0.2,0.1-0.1,0.2-0.5C259.6,418.6,259.9,418.4,260.2,418.1L260.2,418.1z
				 M228.7,419.5c3,0,5.2,1.9,7.4,2.9c5.5,2.4,10.9,4.9,16.3,7.2c2.2,0.9,8.6,2.4,9.4,4.3c0.6,0.7,0.4,1.3,0,2.2
				c-0.9,0.4-1.3,0.7-2.6,0.7c-2.6-1.9-7.1-2.4-10.1-3.8c-4.5-2.2-9.2-4.5-13.7-6.5c-2.4-1.1-7-1.8-7.9-4.3
				c-0.2-0.3-0.2-0.8-0.2-1.4C227.8,420.3,228.2,419.9,228.7,419.5L228.7,419.5z"/>
		</defs>
		<use xlink:href="#SVGID_2_"  style="overflow:visible;fill:#E0EEEC;"/>
		<clipPath id="SVGID_3_">
			<use xlink:href="#SVGID_2_"  style="overflow:visible;"/>
		</clipPath>
		<g class="st1">
			
				<image style="display:inline;overflow:visible;enable-background:new    ;" width="2104" height="1500" xlink:href="../../../../../Dropbox/Grundlemere/Houhai Project/icon/732A7ACD.jpg"  transform="matrix(0.2397 0 0 0.2397 53.8381 216.2268)">
			</image>
		</g>
	</g>
</g>
</svg>
