<svg height='100px' width='100px'  fill="#ff2d21" xmlns="http://www.w3.org/2000/svg" viewBox="0 0 64 64" x="0px" y="0px"><title>ghost-chinese-dead-avatar-china</title><g><path d="M41.85,28.67A10.17,10.17,0,0,0,42,27V21H36v6a1,1,0,0,1-1,1H29a1,1,0,0,1-1-1V21H22v6a10.17,10.17,0,0,0,.15,1.67A2.49,2.49,0,0,1,24.5,27h1a2.5,2.5,0,0,1,0,5h-1a2.44,2.44,0,0,1-1.38-.42,10,10,0,0,0,17.76,0A2.44,2.44,0,0,1,39.5,32h-1a2.5,2.5,0,0,1,0-5h1A2.49,2.49,0,0,1,41.85,28.67ZM26,25a1,1,0,1,1,1-1A1,1,0,0,1,26,25Zm9,7a3,3,0,0,1-6,0V31a1,1,0,0,1,1-1h4a1,1,0,0,1,1,1Zm3-7a1,1,0,1,1,1-1A1,1,0,0,1,38,25Z"></path><path d="M38.5,29a.5.5,0,0,0,0,1h1a.5.5,0,0,0,0-1Z"></path><path d="M32,33a1,1,0,0,0,1-1H31A1,1,0,0,0,32,33Z"></path><circle cx="32" cy="5" r="1"></circle><path d="M46,26a1,1,0,0,0-1-1H44v2h1A1,1,0,0,0,46,26Z"></path><path d="M31.9,42h.2a5,5,0,0,1,2.28-3.24,11.92,11.92,0,0,1-4.76,0A5,5,0,0,1,31.9,42Z"></path><path d="M33,8H31a7,7,0,0,0-5.74,3H38.74A7,7,0,0,0,33,8Z"></path><path d="M28,19V16a1,1,0,0,1,1-1h6a1,1,0,0,1,1,1v3h6.22l1.5-6H20.28l1.5,6Z"></path><path d="M38,40H37a3,3,0,0,0-2.83,2H38Z"></path><path d="M19,27h1V25H19a1,1,0,0,0,0,2Z"></path><polygon points="34 17 30 17 30 20 30 26 34 26 34 20 34 17"></polygon><rect x="30" y="54" width="4" height="6"></rect><path d="M26,60h2V53a1,1,0,0,1,1-1h6a1,1,0,0,1,1,1v7h2V50H26Z"></path><path d="M43,44H21a7,7,0,0,0-7,7v9h4V54h2v6h4V49a1,1,0,0,1,1-1H39a1,1,0,0,1,1,1V60h4V54h2v6h4V51A7,7,0,0,0,43,44Z"></path><path d="M25.5,30a.5.5,0,0,0,0-1h-1a.5.5,0,0,0,0,1Z"></path><path d="M27,40H26v2h3.83A3,3,0,0,0,27,40Z"></path></g></svg>