<?xml version="1.0" encoding="utf-8"?>
<!-- Generator: Adobe Illustrator 24.1.1, SVG Export Plug-In . SVG Version: 6.00 Build 0)  -->
<svg version="1.1" id="Layer_1" xmlns="http://www.w3.org/2000/svg" xmlns:xlink="http://www.w3.org/1999/xlink" x="0px" y="0px"
	 viewBox="0 0 100 100" style="enable-background:new 0 0 100 100;" xml:space="preserve">
<style type="text/css">
	.st0{fill:#5C5B58;}
</style>
<g>
	<path class="st0" d="M50,39.2c-4.2,0-7.5,3.3-7.5,7.5s3.3,7.5,7.5,7.5s7.5-3.3,7.5-7.5S54.2,39.2,50,39.2z M50,50
		c-1.9,0-3.3-1.5-3.3-3.3s1.5-3.3,3.3-3.3c1.9,0,3.3,1.5,3.3,3.3S51.9,50,50,50z"/>
	<path class="st0" d="M80,36L78.3,9.6C77.9,4.2,73.3,0,68.1,0H31.9c-5.4,0-9.8,4.2-10.2,9.6L20,36c0,0.4,2.3,40.2,2.3,40.6v5.2
		c0,2.1,1.7,3.8,3.8,3.8h4.4c2.1,0,3.7-1.7,3.7-3.8v-3.3h2.7v6c0,1.2,0.8,2.1,2.1,2.1h3.5v8.5c0,2.7,2.1,4.8,4.8,4.8h5.6
		c2.7,0,4.8-2.1,4.8-4.8v-8.5H61c1.3,0,2.1-0.8,2.1-2.1v-6h2.7v3.3c0,2.1,1.7,3.8,3.8,3.8H74c2.1,0,3.8-1.7,3.8-3.8v-5.4
		C77.7,76.2,80,36.2,80,36z M25.4,15.6h49L75.6,34H24.2L25.4,15.6z M31.9,4.2h36.3c3.1,0,5.8,2.5,6,5.6l0.2,1.7H25.8L26,9.8
		C26,6.7,28.8,4.2,31.9,4.2z M30.2,81.5h-3.8v-2.9h3.8V81.5z M52.9,95.8h-5.6c-0.4,0-0.6-0.2-0.6-0.6V69.4c0-0.4,0.2-0.6,0.6-0.6
		h5.6c0.4,0,0.6,0.2,0.6,0.6v15.2l0,0l0,0v10.6C53.5,95.6,53.3,95.8,52.9,95.8z M59,82.5h-1.3V69.4c0-2.7-2.1-4.8-4.8-4.8h-5.6
		c-2.7,0-4.8,2.1-4.8,4.8v13.1H41V69.2c0-5,4-9,9-9c5,0,9,4,9,9V82.5z M50,56c-7.3,0-13.1,5.8-13.1,13.1v5.2c-4,0-6.7,0-10.6,0
		l-2.1-36h51.7l-2.1,36.3c-4,0-6.5,0-10.6,0v-5.2C63.1,61.9,57.3,56,50,56z M73.5,81.5h-3.8v-2.9h3.8V81.5z"/>
</g>
</svg>
