<?xml version="1.0" encoding="utf-8"?>
<!-- Generator: Adobe Illustrator 24.1.2, SVG Export Plug-In . SVG Version: 6.00 Build 0)  -->
<svg version="1.1" id="Layer_1" xmlns="http://www.w3.org/2000/svg" xmlns:xlink="http://www.w3.org/1999/xlink" x="0px" y="0px"
	 viewBox="0 0 720 648" style="enable-background:new 0 0 720 648;" xml:space="preserve">
<style type="text/css">
	.st0{fill-rule:evenodd;clip-rule:evenodd;fill:#5C5B58;}
</style>
<g>
	<path id="SVGID_1_" class="st0" d="M493.7,374.4c0.1,4.8,1.1,9.9-0.7,13c-0.8,0.2-1.6,0.5-2.4,0.7c-2.4,15.3-21.3,31.5-40.3,30
		c-6.5-0.5-10.8-2.5-15.6-4.1c-0.4,9.2-1.4,21.1,0,30.7c0.2,6.6,0.3,13.3,0.5,19.9c1,6.7,0.6,18.2-1.9,22.1
		c-1.7,2.6-4.8,2.5-8.2,3.6c-0.9,4.6-1.8,9.3-2.6,13.9c-1.6,8.9-0.9,24.9-6.7,28.8c-3.3,2.2-11.6,1.6-16.1,1
		c-0.1,0.1-0.2,0.2-0.2,0.2c1,16,0.8,25-15.1,28.1c-3.9,0.7-9.1,0.5-12.2-1c-7.9-3.7-13.5-13.4-18.2-20.4c-0.2,0.1-0.3,0.2-0.5,0.2
		c-3.9,9.7-15.9,24.9-30.7,21.4c-4.4-1-7.7-2.5-10.1-5.5c-2.3-2.9-4.3-6.3-5-10.8c-0.7-4.6,2.5-8.1,1.4-11.5
		c-6.7,0-15.3,0.8-18.7-2.6c-2.3-2.3-1.9-7-2.6-10.8c-1.6-9.8-3.2-19.5-4.8-29.3c-3.7-0.2-7.4-1.1-9.1-3.4
		c-4.6-6.1-2.7-35.7-1.2-45.1c0.2-5,0.3-9.9,0.5-14.9c0.9-6.2,0.8-16.4-2.4-19.2c-3.7,1.2-7.4,2.8-12,3.6
		c-14.3,2.3-30.1-8.7-35-16.1c-1.4-2.7-2.9-5.4-4.3-8.2c-0.5-1.8-1-3.7-1.4-5.5c-0.7-1-2.2-0.6-2.9-1.9c-1.7-3.2,0.6-8.5-0.2-12
		c-6,0-13.2-0.1-17.8-1.9c-13.1-5.4-13.6-23.2-5.8-34.8c4.7-7,13.4-12.6,22.3-15.4c2.5-0.3,5-0.6,7.4-1c1.9-1.4,3.8-2.7,5.8-4.1
		c6.5-3.7,15.7-3.8,24.5-2.9c-0.1-0.2-0.2-0.3-0.2-0.5c-21.4-8.1-18.3-38.9,5-42.5c-0.8-4.7-6-8.1-7.7-13.7
		c-1.1-3.6-1.5-8.9-0.7-13.2c0.4-1.4,0.8-2.7,1.2-4.1c-1.3-3.2-2.6-6.4-3.8-9.6c-3.1-9.8-6.2-19.5-9.4-29.3
		c-2-5.8-8.2-20.3-3.8-26.2c4.6-6.3,33.4-3.4,44.4-3.4c7-12.2,22.9-21.8,36.2-27.6c5.4-1.8,10.7-3.7,16.1-5.5
		c-0.2-0.2-0.3-0.3-0.5-0.5c-1.5-3.5-3.8-6.4-4.8-10.6c-1.1-4.3-0.3-9.9,0.7-13.4c4.1-14.5,13.2-21.6,29.3-24.2
		c16.7-2.7,33.7,17.6,30.7,34.6c-1,5.5-3,9.5-5.5,13.4c1.7,1.4,4.6,1.4,7,2.2c5.9,1.8,12.3,4.2,17.3,7.2
		c7.6,4.7,14.8,10.3,21.4,16.1c2.4,2.6,4.8,5.3,7.2,7.9c9.3-0.2,41.4-1.1,45.1,3.4c4.2,5.1-1.6,17.8-3.6,22.8
		c-5.2,14.5-10.4,29-15.6,43.4c-0.8,3.5,1.5,8.3,0.7,12.7c-1.4,8.3-4.5,11.6-9.1,16.3c-0.1,1.3-0.2,2.6-0.2,3.8c0.2,0,0.3,0,0.5,0
		c5.7,2.8,11,3.7,14.6,8.4c2.6,3.4,3.2,6.3,4.1,11.8c2.4,15.8-10.5,20.9-18.7,27.1c8.4-2.2,19.8-4.2,28.8-0.7
		c3.3,1.3,6.4,4.4,9.4,5.5c3.1,0.5,6.2,1,9.4,1.4c8.4,2.6,16.8,8,21.6,14.4c1.4,2.9,2.9,5.8,4.3,8.6
		C529.7,367.8,514.1,374.1,493.7,374.4L493.7,374.4z M352.3,103c-5.9,2.4-9.3,3.9-11.5,9.8c-3.4,9,2.7,17.8,9.8,18.7
		C372.4,134.3,374.7,102.8,352.3,103L352.3,103z M527,145.4c1.9,0.5,3.9,0.5,5.3,1.4c2.9,2.1,7.2,16,6,21.8c-1,3-2.1,5.9-3.1,8.9
		c-0.7,3.3,2,7.2,2.9,9.8c6.3-3.9,17.5-6.8,22.1,0.7c5,8.2-2.5,13.9-3.6,21.1c-1.5,9.5,1.7,19-0.2,27.8c-3.6,16.4-12.3,25-27.6,29.8
		c-5.5,1.7-13.2,3.4-19.9,1.4c-7-2.1-14.4-6-18.2-11.3c-1.6-3-3.2-5.9-4.8-8.9c-5.1-6.8-12.2-6.5-15.6-17
		c-6.5-20.3,8.1-44.8,18.7-53c4.4-2.7,8.8-5.4,13.2-8.2c3.6-3.1,4.9-9.5,7.7-13.4C513.9,150.7,520,148.5,527,145.4L527,145.4z
		 M348.5,146.2c-4.5,0.8-9,1.6-13.4,2.4c-10.1,2.6-30.9,11.3-35,18.7c34.8,2.4,74-0.2,109.2-0.2c-0.5-0.6-1-1.1-1.4-1.7
		c-4.2-2.8-8.5-5.6-12.7-8.4C382.2,149.5,368.6,147,348.5,146.2L348.5,146.2z M524.6,162c-1.6,1.2-3.2,2.4-4.8,3.6
		c-2.6,4.7-5.3,9.4-7.9,14.2c-4.1,4.8-11.1,6.9-16.1,10.8c-6.1,4.8-17.6,22.3-13.9,34.8c1.8,6,9.7,8.1,13.2,12.7
		c3,4,4.3,9.5,8.6,12.2c15.8,9.8,36.5-0.3,40.1-15.8c2.5-10.6-1.9-24.2,1.4-34.1c0-0.1,0-0.2,0-0.2c-3,0.7-4.8,1.4-7.7,0
		c0,0.2,0,0.3,0,0.5c-1.6,4.3,1.9,9.3,1,14.4c-2.4,12.7-4.4,22.8-17.5,25c-4,0.7-8.3-0.7-10.8-2.4c-11.4-7.6-13.9-34,3.8-36
		c6.1-0.7,8.7,7.9,5.5,12.2c-1.5,2-4.7,2.1-5.8,4.6c-2.5,5.6,5.4,7.4,8.9,6c1.4-2.7,3.9-9.3,3.4-13.2c-0.4-2.8-1.4-5.1-1.4-8.6
		c0.4-3.8,0.8-7.5,1.2-11.3c-1.1-3.3-2.2-6.6-3.4-9.8C521.2,174.1,528.1,166,524.6,162L524.6,162z M309.8,232.3
		c-0.1-8.2-1.6-27.4,1.7-32.2c2.9-4.2,12.6-4.5,20.2-3.4c14.2,2.1,29.2,0.2,43.7,0.2c6.3,0,14.9-1.4,19,1.4
		c5.6,3.8,0.4,25.8,2.4,33.8c10.3,0.1,20.6,0.2,31,0.2c3.5,0.5,11.4,1.1,14.4-0.2c2.9-7.8,5.8-15.5,8.6-23.3
		c3.2-8.4,4.3-17.5,7.4-26.4c0-0.1,0-0.2,0-0.2c-36.4-0.1-72.8-0.2-109.2-0.2c-13,0-25.9,0-38.9,0c-5.3,0.1-10.6,0.2-15.8,0.2
		c-5,0-9.9,0-14.9,0c-10.3,0-21.2,0.1-30.5,0.7c5.7,16.5,11.4,33,17,49.4C280.6,232.5,295.2,232.4,309.8,232.3L309.8,232.3z
		 M171.1,182.2c9.9-0.1,10.6,9.9,13.7,16.6c17.3-1.8,13.9,10.5,20.9,19.4c5.7,7.3,13.3,12.4,17.3,21.6c9.5,22.2,4.4,47.9-14.6,56.2
		c-16.1,7-39.9,4.6-48.7-7c-3.5-4.6-2.6-11.6-5.3-15.6c-3.1-4.6-7.8-7.6-10.1-13.2c-5.2-12.5,2.6-22,15.4-21.8c0-0.1,0-0.2,0-0.2
		c-7.8-15.5-1.2-23.4,2.6-36.2c0.2-2.9,0.3-5.8,0.5-8.6C163.8,186.6,166.1,184.8,171.1,182.2L171.1,182.2z M173.5,202.1
		c-0.6,8.7-8.3,13.3-6.2,24c1.8,9.2,13.9,18.2,7,27.4c11.4,1.3,7.3,10,9.4,19.4c0.4,0.2,0.8,0.5,1.2,0.7c4.4,1.2,7.3-3.4,8.6-6.2
		c-3.3-3.2-5.8-9.5,1-11.3c6.8-1.8,11.7,5.5,10.6,11.8c-3.8,20.3-34.1,27.8-32.9-3.1c-7.4-0.5-11.6-6.2-9.4-14.2c-0.2,0-0.3,0-0.5,0
		c-3.3-1.5-9.1-1.4-7.9,3.8c1.3,5.9,7.1,8.7,9.8,13.2c2.3,3.7,1.7,10.6,4.3,14.2c5.9,7.9,24.1,8.2,34.6,3.8
		c15.1-6.3,16.9-29.6,7.9-44.4c-4.1-6.8-11.1-11.3-15.6-17.8c-2.7-3.9-3-10.8-6.7-13.7C178.3,213.1,177.8,206.6,173.5,202.1
		L173.5,202.1z M383,313.2c-0.2-21.9-0.3-43.8-0.5-65.8c-0.3-12.2-0.6-24.3-1-36.5c-13.8,0-27.5,0-41.3,0c-3.8,0-12.8-1.3-15.1,0.7
		c-0.2,10.1-0.5,20.2-0.7,30.2c0,15.9,0.3,30.9,0.2,46.6c0,7.5-1.6,17.4,0.2,24.5C344.3,312.1,363.1,313.2,383,313.2L383,313.2z
		 M354.2,224.6c2,0.1,4,0.2,6,0.2c3.1,2.4,2.8,12.2,0.7,15.6c-3.9,1-11.5,1.3-14.4-0.5c-1.3-3.2-2.4-11.7-0.5-14.9
		C348.8,225,351.5,224.8,354.2,224.6L354.2,224.6z M397.4,247.7c1.1,2.9,4.6,5.1,8.2,4.1c0.5-1.2,1-2.4,1.4-3.6c0-0.1,0-0.2,0-0.2
		C403.8,247.8,400.6,247.8,397.4,247.7L397.4,247.7z M440.2,247.9c-4.3,0.1-8.6,0.2-13,0.2c1.4,6.1,11.3,10.3,17,5.5
		c1.5-1.2,2-3.8,2.6-5.8C444.6,247.9,442.4,247.9,440.2,247.9L440.2,247.9z M258.5,248.4c2.2,9.9,15.2,7.3,18.7,0.5
		c0-0.1,0-0.2,0-0.2C271,248.6,264.7,248.5,258.5,248.4L258.5,248.4z M298.6,248.9c0.1,0.5,0.2,1,0.2,1.4c0.4,0.4,0.8,0.8,1.2,1.2
		c2.9,0.1,4.6-0.8,5.8-2.4C303.4,249,301,249,298.6,248.9L298.6,248.9z M352.6,252.7c2.6,0.2,5.3,0.3,7.9,0.5
		c1.5,2.3,2.6,14.4-0.2,16.1c-2.6,1.6-11.6,1-13.7-0.2c-1.3-4.1-1.7-13,0.5-16.1C348.9,252.9,350.7,252.8,352.6,252.7L352.6,252.7z
		 M288.5,254.6c-4.9,6.4-11.2,8.8-19.9,11.5c4.8,13.3,8.5,26.6,13.4,39.1c2,5.1,3.2,10.8,6.2,14.9c7.3,10,30.5,21.7,43,27.1
		c5.1,1.8,10.2,3.5,15.4,5.3c6.6,1.4,27.8-7,33.4-9.1c10.2-4,21.7-6.3,30-12.2c15.4-11,26.2-38.2,26.2-64.6
		c-9.6-1.3-13.9-6.6-19.9-11.3c-0.1,0-0.2,0-0.2,0c0.2,13.1-12.6,7.6-18.7,5.3c0.2,1.6,0.3,3.2,0.5,4.8c3.5,0.5,18.2,4.2,19.9,6.2
		c-0.4,3.4-3.8,12.6-6.5,13.9c-3.3,1.8-10.4-2.4-13.9-3.1c0.1,8.4,1.3,37.8-1.4,41.5c-2.4,3.2-12.2,3.8-18.2,2.9
		c-13.7-2.1-31.2-0.2-46.3-0.2c-5.5,0-14.7,1.7-18.2-1c-5.2-3.9-2.5-35.7-2.4-46.1c-0.1,0-0.2,0-0.2,0c-3.6,1.5-9.1,4.9-13.2,3.8
		c-1.2-3.2-5.2-10.6-4.6-13.9c1.1-1.9,14.7-6.1,17.8-7c0-1.8,0-3.7,0-5.5c-0.2,0.2-0.5,0.3-0.7,0.5c-2.5,5.4-13.9,8.1-19,3.4
		C289.1,259.4,289.7,256.4,288.5,254.6L288.5,254.6z M258.2,278.4c-2.9,1.6-6.1,1.7-7.9,4.3c-6,8.8,10.8,19.2,17,20.4
		c-3-7.5-6.3-16.2-7.9-24.7C259,278.4,258.6,278.4,258.2,278.4L258.2,278.4z M446.9,281.5c-0.4,8.5-2.9,18.2-5.8,25.2
		c5.2-1.9,12.4-7.5,14.6-12.5C459,287.1,453.1,281.9,446.9,281.5L446.9,281.5z M346.8,282.7c4.8-0.1,11.4-0.6,14.4,1.2
		c1,3.9,1,12.2-0.7,15.1c-4.1,1-13.4,1.3-15.1-1.7C343.6,294.2,344.5,284.4,346.8,282.7L346.8,282.7z M266.9,316.1
		c2.8,2.1,5.6,4.2,8.4,6.2c-0.7-1.7-1.4-3.4-2.2-5C271,316.9,269,316.5,266.9,316.1L266.9,316.1z M440.2,319.9c-2,0.5-4,1-6,1.4
		c-1,1.8-2.1,3.5-3.1,5.3c3.3-2.2,6.6-4.5,9.8-6.7C440.6,319.9,440.4,319.9,440.2,319.9L440.2,319.9z M247.4,326.6
		c4.6,6.1,9.9,10.6,12,19.4c4.3,18.3-11.1,36.9-26.4,37c0.2,0.3,0.3,0.6,0.5,1c3.9,9.8,22.4,15.6,32.6,7.7
		c6.7-5.2,9.9-22.2,7.4-34.6C271,344.1,261.3,327.6,247.4,326.6L247.4,326.6z M220.6,331.2c-2.7,1.1-5.3,1-7.4,2.4
		c-4.4,2.7-13.2,11.9-8.6,18.7c7.5-0.1,22.4-1.5,25.4,3.1c1.6,2.4,1.3,7.9,1.9,11c0.6,0.3,1.1,0.6,1.7,1c3.1-0.5,10.8-9.2,11.5-12.2
		c0.8-3.2-0.6-7.5-1.7-10.1C240,337.1,232,331.1,220.6,331.2L220.6,331.2z M458.6,331.4c-2.5,0.9-5,1.8-7.4,2.6
		c-7.6,4.5-14.9,12.4-17.8,21.6c-3.7,12.1-2.5,34,5.5,40.3c12.3,9.6,29.5,2.4,35.5-7.7c0-0.1,0-0.2,0-0.2
		c-17.3-2-33.7-19.2-26.9-40.1c2.3-7.2,7.9-11.2,12-16.6C459.3,331.4,459,331.4,458.6,331.4L458.6,331.4z M291.8,365.5
		c8.3,0,16.9-3.5,24.2-5.5c2.5-0.7,7-0.7,8.6-2.4c-15-4.3-27-15.5-39.4-22.8C289.6,343.6,291.8,351.9,291.8,365.5L291.8,365.5z
		 M483.6,336.2c-2.2,0.5-4.3,1-6.5,1.4c-7.3,2.7-12.1,8.1-14.4,15.8c-0.5,1.8-1.5,4.7-0.7,7.2c1.5,4.4,7.3,8.6,10.6,11.5
		c1.6,0,2.2-0.2,3.1-0.7c0.9-4.3,0.5-10.6,3.6-12.7c5.9-4,18.8,0.9,25.7-2.2C508.5,346,495.3,336,483.6,336.2L483.6,336.2z
		 M420.2,338.4c-5.5,6.4-31.2,16.6-41.5,18.5c0,0.1,0,0.2,0,0.2c11.4,3,22.7,5.9,34.1,8.9c-0.1-8.1,1.6-15.1,4.1-20.9
		C418,342.9,419.1,340.6,420.2,338.4L420.2,338.4z M361.2,369.1c-0.8,2.7-1.1,19,0.2,20.9c-0.2-9.8,4-13.6,8.6-18.5
		c0-0.1,0-0.2,0-0.2C367.1,370.6,364.2,369.8,361.2,369.1L361.2,369.1z M344.6,369.8c-2.2,0.5-4.3,1-6.5,1.4c2.8,3.1,6,6,7,11
		c0.1,0,0.2,0,0.2,0C345.4,379.1,346.2,371.9,344.6,369.8L344.6,369.8z M304.3,379c-4.8,1-9.6,2.1-14.4,3.1
		c-1.4,4.3-2.6,8.6-4.8,12.2c-1.1,1.8-2.2,3.7-3.4,5.5c8.9,7.8,8.9,39.5,8.6,57.8c-0.1,5.8-1.7,13.7,0,18.5c14.6,0,28.6-0.7,43-0.7
		c0-0.2,0-0.5,0-0.7c-0.3-1.8-0.6-3.7-1-5.5c-11.3-0.9-24.6-10.7-22.1-25c0.9-2.6,1.8-5.3,2.6-7.9c-11.1-7-12.8-21.7-4.3-32.6
		c-5.6-8.7-5.6-13.3-3.1-24.7C305.1,379,304.7,379,304.3,379L304.3,379z M376.1,469.2c-0.2,2.2-0.5,4.3-0.7,6.5c0.5,0,1,0,1.4,0
		c1.8,0,3.5,0,5.3,0c8.3,0,16.6,0,25,0c3.8-0.1,7.7-0.2,11.5-0.2c-0.1-23.2-5.1-55.5,4.6-71.5c-2.3-4.4-5.5-8.3-7.2-13.4
		c-0.7-2.2-0.9-7.4-2.6-8.6c-3.7-1-7.4-1.9-11-2.9c0.7,4.5,2.6,10.1,1,15.6c-0.7,2.4-4.3,8.1-3.4,9.8c1.4,3.1,3.6,5.9,4.6,9.6
		c2.8,10.1-4.2,19.1-9.6,23C402.2,452.3,391.8,469.3,376.1,469.2L376.1,469.2z M324.2,382.1c-9.8,5.3-5.1,16.7,4.3,13.2
		C335.2,392.8,333.8,381.6,324.2,382.1L324.2,382.1z M382.3,382.1c-1.5,0.8-3.3,1.3-4.3,2.6c-3.8,5.2,1.1,13.4,8.6,10.6
		C393.3,392.8,391.9,381.6,382.3,382.1L382.3,382.1z M361.2,391.7c-0.9,3.2-0.7,19.5,0.5,22.3c0.5-4,2.1-7.3,4.6-9.4
		c-1.4-2.6-2.7-5.1-4.1-7.7C361.8,395.2,361.5,393.4,361.2,391.7L361.2,391.7z M345.1,394.3c-0.4,4.4-3,7-4.1,10.6
		c1.9,1.6,3.4,4.3,4.1,7c0.1,0,0.2,0,0.2,0C345.4,408.5,346.1,395.8,345.1,394.3L345.1,394.3z M324.2,410.6
		c-9.8,5.3-5.1,16.7,4.3,13.2C335.2,421.3,333.8,410.2,324.2,410.6L324.2,410.6z M382.3,410.6c-9.8,5.3-5.1,16.7,4.3,13.2
		C393.3,421.3,391.9,410.2,382.3,410.6L382.3,410.6z M361.7,423.1c0,2.4,0,4.8,0,7.2c0.3-0.2,0.6-0.3,1-0.5c0.5-0.2,1-0.5,1.4-0.7
		C363.3,427.1,362.5,425.1,361.7,423.1L361.7,423.1z M331.2,438.5c-9.8,5.3-5.1,16.7,4.3,13.2C342.2,449.2,340.8,438,331.2,438.5
		L331.2,438.5z M375.1,440.2c-9.8,5.3-5.1,16.7,4.3,13.2C386.1,450.8,384.7,439.7,375.1,440.2L375.1,440.2z M352.8,462.2
		c-9.8,5.3-5.1,16.7,4.3,13.2C363.8,472.9,362.4,461.8,352.8,462.2L352.8,462.2z M375.6,490.1c-4.8,0.1-9.6,0.2-14.4,0.2
		c-0.1,5.6-0.2,11.2-0.2,16.8c9.5,1.5,19.6,4.6,28.1,7.9c3,1.3,5.9,2.6,8.9,3.8c2.6-0.1,5.3-0.2,7.9-0.2c1-6.8,5.1-21.8,3.8-28.3
		C398.3,490.2,387,490.2,375.6,490.1L375.6,490.1z M339.6,490.3c-14,0.7-28,1.4-42,2.2c2.2,8.4,1.1,20.1,5,27.1
		c6.9,0.8,9.9-1.7,14.6-3.4c5.5-1.8,11-3.7,16.6-5.5c4.1-1.6,9.5-2.3,12.7-4.8c-0.2-5.2-0.5-10.4-0.7-15.6
		C343.8,490.3,341.7,490.3,339.6,490.3L339.6,490.3z M343.9,523.2c-5.1,3.1-16.1,3.2-20.4,6.2c3.2,5.4-2.9,11.8,0.5,17.8
		c9.9,3.8,19.4-15.4,20.6-24C344.4,523.2,344.2,523.2,343.9,523.2L343.9,523.2z M363.1,523.2c1.2,7.6,12.9,26,20.9,24
		c0.5-0.6,1-1.3,1.4-1.9c0-5.7-2.8-9.2-2.2-15.6C376.6,527.5,369.8,525.4,363.1,523.2L363.1,523.2z"/>
</g>
</svg>
