<?xml version="1.0" encoding="utf-8"?>
<!-- Generator: Adobe Illustrator 24.1.1, SVG Export Plug-In . SVG Version: 6.00 Build 0)  -->
<svg version="1.1" id="Layer_1" xmlns="http://www.w3.org/2000/svg" xmlns:xlink="http://www.w3.org/1999/xlink" x="0px" y="0px"
	 viewBox="0 0 100 100" style="enable-background:new 0 0 100 100;" xml:space="preserve">
<style type="text/css">
	.st0{fill:#F12D38;}
</style>
<g>
	<path class="st0" d="M65.4,44.8c0.1-0.9,0.2-1.7,0.2-2.6v-9.4h-9.4v9.4c0,0.9-0.7,1.6-1.6,1.6h-9.4c-0.9,0-1.6-0.7-1.6-1.6v-9.4
		h-9.4v9.4c0,0.9,0.1,1.7,0.2,2.6c0.5-1.6,2-2.6,3.7-2.6h1.6c2.2,0,3.9,1.7,3.9,3.9S42,50,39.8,50h-1.6c-0.8,0-1.5-0.2-2.2-0.7
		C40.1,57,49.5,60,57.2,56c2.9-1.5,5.2-3.8,6.7-6.7c-0.6,0.4-1.4,0.7-2.2,0.7h-1.6c-2.2,0-3.9-1.7-3.9-3.9s1.7-3.9,3.9-3.9h1.6
		C63.4,42.2,64.8,43.2,65.4,44.8z M40.6,39.1c-0.9,0-1.6-0.7-1.6-1.6s0.7-1.6,1.6-1.6s1.6,0.7,1.6,1.6S41.5,39.1,40.6,39.1z
		 M54.7,50c0,2.6-2.1,4.7-4.7,4.7c-2.6,0-4.7-2.1-4.7-4.7v-1.6c0-0.9,0.7-1.6,1.6-1.6h6.3c0.9,0,1.6,0.7,1.6,1.6V50z M59.4,39.1
		c-0.9,0-1.6-0.7-1.6-1.6s0.7-1.6,1.6-1.6s1.6,0.7,1.6,1.6S60.2,39.1,59.4,39.1z"/>
	<path class="st0" d="M60.2,45.3c-0.4,0-0.8,0.3-0.8,0.8s0.3,0.8,0.8,0.8h1.6c0.4,0,0.8-0.3,0.8-0.8s-0.3-0.8-0.8-0.8H60.2z"/>
	<path class="st0" d="M50,51.6c0.9,0,1.6-0.7,1.6-1.6h-3.1C48.4,50.9,49.1,51.6,50,51.6z"/>
	<circle class="st0" cx="50" cy="7.8" r="1.6"/>
	<path class="st0" d="M71.9,40.6c0-0.9-0.7-1.6-1.6-1.6h-1.6v3.1h1.6C71.2,42.2,71.9,41.5,71.9,40.6z"/>
	<path class="st0" d="M49.8,65.6h0.3c0.4-2.1,1.7-3.9,3.6-5.1c-2.5,0.5-5,0.5-7.4,0C48.1,61.7,49.4,63.5,49.8,65.6z"/>
	<path class="st0" d="M51.6,12.5h-3.1c-3.6,0-6.9,1.8-9,4.7h21.1C58.5,14.3,55.1,12.5,51.6,12.5z"/>
	<path class="st0" d="M43.8,29.7V25c0-0.9,0.7-1.6,1.6-1.6h9.4c0.9,0,1.6,0.7,1.6,1.6v4.7H66l2.3-9.4H31.7l2.3,9.4H43.8z"/>
	<path class="st0" d="M59.4,62.5h-1.6c-2,0-3.8,1.3-4.4,3.1h6V62.5z"/>
	<path class="st0" d="M29.7,42.2h1.6v-3.1h-1.6c-0.9,0-1.6,0.7-1.6,1.6S28.8,42.2,29.7,42.2z"/>
	<polygon class="st0" points="53.1,26.6 46.9,26.6 46.9,31.3 46.9,40.6 53.1,40.6 53.1,31.3 	"/>
	<rect x="46.9" y="84.4" class="st0" width="6.3" height="9.4"/>
	<path class="st0" d="M40.6,93.8h3.1V82.8c0-0.9,0.7-1.6,1.6-1.6h9.4c0.9,0,1.6,0.7,1.6,1.6v10.9h3.1V78.1H40.6V93.8z"/>
	<path class="st0" d="M67.2,68.8H32.8c-6,0-10.9,4.9-10.9,10.9v14.1h6.3v-9.4h3.1v9.4h6.3V76.6c0-0.9,0.7-1.6,1.6-1.6h21.9
		c0.9,0,1.6,0.7,1.6,1.6v17.2h6.3v-9.4h3.1v9.4h6.3V79.7C78.1,73.6,73.2,68.8,67.2,68.8z"/>
	<path class="st0" d="M39.8,46.9c0.4,0,0.8-0.3,0.8-0.8s-0.3-0.8-0.8-0.8h-1.6c-0.4,0-0.8,0.3-0.8,0.8s0.3,0.8,0.8,0.8H39.8z"/>
	<path class="st0" d="M42.2,62.5h-1.6v3.1h6C45.9,63.8,44.2,62.5,42.2,62.5z"/>
</g>
</svg>
