<?xml version="1.0" encoding="utf-8"?>
<!-- Generator: Adobe Illustrator 24.1.2, SVG Export Plug-In . SVG Version: 6.00 Build 0)  -->
<svg version="1.1" id="Layer_1" xmlns="http://www.w3.org/2000/svg" xmlns:xlink="http://www.w3.org/1999/xlink" x="0px" y="0px"
	 viewBox="0 0 612 792" style="enable-background:new 0 0 612 792;" xml:space="preserve">
<style type="text/css">
	.st0{fill-rule:evenodd;clip-rule:evenodd;fill:#5C5B58;}
</style>
<path id="SVGID_1_" class="st0" d="M241,279.8c0.8,0,1.7-0.1,2.2,0.2c1.4,0.4,1.8,1.3,2.6,2.2c0.4,5.2-5.4,6.4-3.8,13
	c1.1,4.6,4.8,6.6,6.5,10.6c3.8,9-0.5,16-5,20.6c-1-0.1-2.1-0.2-3.1-0.2c-0.5-0.8-1.3-1.7-1.9-2.4c-0.2-4.8,5.1-6.5,3.6-12.7
	c-1.2-4.7-4.8-6.9-6.5-11c-2.6-6.4,0-14.2,2.9-18C239,281.1,240.2,280.6,241,279.8L241,279.8z M295.4,279.8c1.7,0,2.2,0.4,3.4,0.7
	c0.8,1.3,1.4,1.8,1.4,4.1c-1.1,1.4-2.6,3.2-3.4,4.8c-2.9,5.9,1.7,9.7,3.8,12.7c2.6,3.7,4.7,11.1,2.4,16.8c-1.3,3.2-3.2,5.2-5.5,7.4
	c-3.6,0.1-5.1-1.3-5-4.8c1-1.2,2.3-3,2.9-4.3c4.7-10.8-10.3-14.8-6.2-28.6C290.5,284.4,292.6,282.5,295.4,279.8L295.4,279.8z
	 M349.7,279.8c0.8,0,1.7-0.1,2.2,0.2c1.5,0.4,1.7,1.4,2.6,2.4c0,5.1-4.5,5.9-4.1,11c0.5,5.2,3.7,6.9,5.8,10.3
	c1.2,1.9,1.3,3.9,1.9,6.5c0.3,1,0.6,3.6,0.2,5c-0.4,1.7-1.1,3.5-1.7,4.8c-0.8,1.8-3.8,8.1-7.2,6c-1.7-0.5-2.6-2.1-2.6-4.3
	c1.1-1.3,2.5-3.3,3.1-4.8c2.8-6.7-1.7-10.1-4.1-13.7c-2.2-3.3-4-10.1-2.2-15.1C345.1,284.4,347.1,282.3,349.7,279.8L349.7,279.8z
	 M400.3,413.2c1.8,3.6,1.2,14.8,1.2,20.1c2.3,0,4.6-0.2,6.4,0.2c3,0.5,3.7,0.4,4.1,3.2c0,5.6,0,11.3,0,16.9c0,8.2,0,17.5,0,26.1
	c0,3.8-0.4,6.2-0.4,11c-0.1,2.5-0.1,3.8,0,4.5c0.6,2.9,0.5,6.7-0.1,8.7c-1.4,2.8-2.7,4.3-7,4.2c-11.1,0.1-13.7,0-24.9,0
	c-4.2-0.1-19.3-0.2-23.5-0.2c-2.9,0-14.9,0.5-17.4,0c-10.6,0.1-20.7,0-31.3,0c-23.4,0.1-46.8,0-70.2,0c-11.7,0-21.6-0.3-33.8-0.4
	c-2.9-0.1-15.2,0-16.8-0.6c-1.5-0.6-2.1-1.5-2.2-5.1c-0.8-11.3-0.2-23.8-0.2-35.5c0-4.7-0.2-9.6,0-14.4c0-4.5,0-9,0-13.4
	c0.3-1.2,0.3-4.6,1.5-5c0.9-0.7,4.3-0.7,5.9-0.7c0-7.2-1.1-13.5,0.5-19.5c1-2.4,3.6-3.1,8-3c-0.3-3.2-1.4-6.1-0.5-10.2
	c1.9-8.7,4-15.5,8.4-21.6c0.8-1.1,2.1-2,2.9-3.1c1.5-2,3.3-4.3,5.3-5.8c2.7-2.1,5.5-4.1,8.4-6c1.2-0.8,3-1.2,3.6-2.6
	c-3.4-4.6,0.8-10.5,4.6-11.8c1.8-0.6,4,0.4,5.8,0c2.7-0.7,5.3-3.7,9.4-2.6c2.4,0.6,4.2,2.6,6.2,3.1c1.2,0.3,3.4-0.7,5-0.2
	c2.6,0.7,5.1,2.7,6,5c1,2.5-0.9,5.7-0.2,7.2c0.5,0.6,6,4.2,6.7,4.3c0.8,0.2,6.7-4.2,7-5c-3.3-4.4,0.9-10.1,3.8-11.5
	c1.9-0.9,4.5,0.2,6.5-0.2c3-0.7,6.1-4,10.6-2.4c1.7,0.6,3.4,2.5,5,2.9c0.9-0.1,1.8-0.2,2.6-0.2c3.3,0,5.8,1,7.2,2.9
	c0.8,1.1,2.2,3.7,1.7,5.8c-0.3,1.4-0.9,2.4-0.7,3.8c2.1,0.9,5.2,2.5,6.7,4.1c1.5-0.4,6.8-3.8,7-5.3c-2.3-3.1-0.3-8.5,1.9-10.1
	c1.6-1.2,3.6-1.8,6.5-1.7c0.7,0.1,1.4,0.2,2.2,0.2c2.6-0.7,5.2-3.7,9.4-2.6c2.3,0.6,3.8,2.6,5.8,3.1c1.2,0.3,3.4-0.7,5-0.2
	c3.1,0.9,7.5,4.2,6.2,9.4c-0.2,1-0.7,1.5-0.7,2.9c12.1,7.1,21,15.4,26.2,29.5c1.2,3.2,3,11.4,2.9,16.6c-0.1,2.2-0.1,2.2-0.2,3.6
	C394.2,411.6,398,412.7,400.3,413.2z M207.7,410.5c24.8-0.1,75.7-0.2,75.7-0.4c2.3-2.9,0.1-12-1-14.8c-3.4-9-7.3-15.7-14.4-20.9
	c-3.1-2.3-7.4-4-10.1-6.7c-1.1-1.1-1.7-3.1-2.2-4.8c-0.5-1.8,1.4-5.1,1-5.5c0-0.1,0-0.2,0-0.2c-3.4,0.7-6.1,0.1-8.6-1.2
	c-0.6-0.3-1.5-1.1-2.2-1.2c-1.3-0.2-4.6,2.2-5.8,2.6c-1.7,0.7-4,0-5.5-0.2c0,0.2,0,0.3,0,0.5c1,0.4,0.4,0.3,0.7,1.4
	c1.1,3.8-0.5,7.4-2.9,9.1c-3.3,2.4-7,4.1-10.3,6.5c-7.5,5.5-12.5,14-14.9,24.7c-0.8,4.3,0.5,8.7,0.6,12.7L207.7,410.5z M291.8,410.4
	c9.8,0.1,20-0.3,29.8-0.3c3.9,0,6.9,0.1,10.9,0.1c3.3-3.7,0.3-13.7-1.1-17.3c-2.5-6.5-6.1-13.2-11.2-17c-4.5-3.4-13.8-6.8-14.2-13.9
	c-0.1-1.7,1-3.3,1.2-4.8c-1.6,0.2-4,0.9-5.8,0.2c-1.9-0.7-3.5-2.3-5.8-2.6c-2,1-4,1.9-6,2.9c-1.4,0.4-4.5-0.6-4.6-0.5
	c-0.3,0.9,1.5,3.6,1,6c-1.2,4.8-5.8,6.4-9.6,8.6c0.1,0.1,0.2,0.2,0.2,0.2c1.7,1.8,3.4,3.5,5,5.3c6.9,9.9,10.8,17.9,10.1,34.4
	L291.8,410.4z M342,409.9c14.2,0,28.5,0.8,42.7,0.8c1.9-14.9-1.6-20.1-8.1-28.8c-1.2-1.6-2.5-3.6-4.1-4.8c-2.1-1.6-4.1-3.4-6.2-4.8
	c-3.5-2.3-7.7-3.4-9.1-7.7c-0.9-2.7,0.4-5.3,0.7-7.4c-1.3,0.2-3.1,1-4.8,0.5c-2.3-0.6-4.2-2.4-6.7-2.9c-0.9,0.8-4.7,2.6-6,2.9
	c-1.6,0.4-4.2-0.8-4.6-0.5c-0.1,0-0.2,0-0.2,0c4.3,8.5-3.2,12-8.6,14.6c0,0.2,0,0.3,0,0.5c3.1,2.1,4.9,5.2,7,8.4
	c5.2,8.2,9.4,17.5,7.8,31.4L342,409.9z M201.3,419.6c-1.9,1.4,0.2,8.2,0.2,13.4c19.6-0.2,32.6-0.3,53.2-0.3c9.4,0,26,0.1,31,0.1
	c4.6,0,37.4,0.3,42.7,0.1c6.5,0,12,0.2,18.4,0.2c14.9-0.2,19.8,0.2,46.4,0.4c0-4.7,0-8.5,0-13.3c-1.8-0.6-5-0.3-7.2-0.2
	c-0.8-0.5-2.9-0.2-4.1-0.2c-3.3,0-6.6,0-9.8,0c-12.4,0-24.8,0-37.2,0c-28.6,0-58.1-0.2-87.1-0.2
	C231.6,419.5,201.3,419.6,201.3,419.6z M193.7,442.8c0,3.8-0.1,8-0.1,11.8c3.5,0.1,5.2-0.1,8.3-0.1c7.4,0,14.7,0,22.1,0
	c4.5,0.3,5,6,2.2,8.8c-3.2,2.3-5.7,1.6-11,1.6c-7.6,0-14,0.1-21.6,0.1c-0.1,6.1-0.2,8.7-0.2,12.7c10.5,0,19.3,0,29.7,0
	c3.8,0,9.5-0.9,10.6,1.9c0.9,1.1,0.3,3.1,0,4.3c-2.2,3.4-3.7,3.5-12.8,3.4c-9.6-0.1-17.7,0.2-27.3,0.2c0,3.9-0.1,5.8-0.1,9.8
	c69.1,0,139.7-0.7,207.7,0c0-10.5-0.2-20.3-0.2-31.2c0-8,0.3-16,0-23.5c-70.6,0.1-139.8,0.1-209.3,0.1H193.7z M238.8,367.7
	c1.3-0.5,2.1,0.2,2.6,0.4c0.6,0.3,1.1,0.8,1.5,1.8c0.2-2.3,2.5-2.4,4.6-1.8c0.6,0.4,0.8,0.9,1.1,1.8c0.2-0.2,0.1-0.1,0.2-0.4
	c0.3-1.3,0.7-1.6,2-1.8c3.1-0.1,6.8,3.6,6.8,6.6c-0.3,1.4-0.8,1.6-1.7,2c-2.5,1.2-6.4-3.4-7.2-4.7c-0.1,0-0.2,0-0.2,0
	c0,2,0.2,5.6-0.1,6.6c-0.3,0.9-0.7,0.9-1.1,1.1c-0.7,0.1-1.4,0.2-2,0.2c-3.3-0.2-2.7-4.5-2.6-7.9c-0.1,0-0.2,0.2-0.2,0.2
	c-1.6,1.6-3.1,3.2-4.7,4.7c-2,0.9-4.8-1.5-3.8-3.8C234.6,371.9,235.1,371.3,238.8,367.7L238.8,367.7z M289.5,366.8
	c1.3-0.5,2.1,0.2,2.6,0.4c0.6,0.3,1.1,0.8,1.5,1.8c0.2-2.3,2.5-2.4,4.6-1.8c0.6,0.4,0.8,0.9,1.1,1.8c0.2-0.2,0.1-0.1,0.2-0.4
	c0.3-1.3,0.7-1.6,2-1.8c3.1-0.1,6.8,3.6,6.8,6.6c-0.3,1.4-0.8,1.6-1.7,2c-2.5,1.2-6.4-3.4-7.2-4.7c-0.1,0-0.2,0-0.2,0
	c0,2,0.2,5.6-0.1,6.6c-0.3,0.9-0.7,0.9-1.1,1.1c-0.7,0.1-1.4,0.2-2,0.2c-3.3-0.2-2.7-4.5-2.6-7.9c-0.1,0-0.2,0.2-0.2,0.2
	c-1.6,1.6-3.1,3.2-4.7,4.7c-2,0.9-4.8-1.5-3.8-3.8C285.2,371,285.8,370.4,289.5,366.8L289.5,366.8z M339.5,366.8
	c1.3-0.5,2.1,0.2,2.6,0.4c0.6,0.3,1.1,0.8,1.5,1.8c0.2-2.3,2.5-2.4,4.6-1.8c0.6,0.4,0.8,0.9,1.1,1.8c0.2-0.2,0.1-0.1,0.2-0.4
	c0.3-1.3,0.7-1.6,2-1.8c3.1-0.1,6.8,3.6,6.8,6.6c-0.3,1.4-0.8,1.6-1.7,2c-2.5,1.2-6.4-3.4-7.2-4.7c-0.1,0-0.2,0-0.2,0
	c0,2,0.2,5.6-0.1,6.6c-0.3,0.9-0.7,0.9-1.1,1.1c-0.7,0.1-1.4,0.2-2,0.2c-3.3-0.2-2.7-4.5-2.6-7.9c-0.1,0-0.2,0.2-0.2,0.2
	c-1.6,1.6-3.1,3.2-4.7,4.7c-2,0.9-4.8-1.5-3.8-3.8C335.2,371,335.8,370.4,339.5,366.8L339.5,366.8z"/>
</svg>
