<?xml version="1.0" encoding="utf-8"?>
<!-- Generator: Adobe Illustrator 24.1.1, SVG Export Plug-In . SVG Version: 6.00 Build 0)  -->
<svg version="1.1" id="Layer_1" xmlns="http://www.w3.org/2000/svg" xmlns:xlink="http://www.w3.org/1999/xlink" x="0px" y="0px"
	 viewBox="0 0 100 100" style="enable-background:new 0 0 100 100;" xml:space="preserve">
<style type="text/css">
	.st0{fill:#2FA3C9;}
</style>
<g>
	<g>
		<g>
			<path class="st0" d="M25.6,46.8H8.3c-2.5,0-4.6-2.1-4.6-4.6c0-2.5,2.1-4.6,4.6-4.6h3.6c0-0.1,0-0.1,0-0.2c0-2.5,2.1-4.6,4.6-4.6
				h17.3c2.5,0,4.6,2.1,4.6,4.6S36.3,42,33.8,42h-3.6c0,0.1,0,0.1,0,0.2C30.2,44.8,28.1,46.8,25.6,46.8z M8.3,40.6
				c-0.9,0-1.6,0.7-1.6,1.6s0.7,1.6,1.6,1.6h17.3c0.9,0,1.6-0.7,1.6-1.6c0-0.3-0.1-0.5-0.3-0.9c-0.3-0.5-0.3-1-0.1-1.5
				c0.3-0.5,0.8-0.8,1.3-0.8h5.7c0.9,0,1.6-0.7,1.6-1.6s-0.7-1.6-1.6-1.6H16.5c-0.9,0-1.6,0.7-1.6,1.6c0,0.3,0.1,0.5,0.3,0.9
				c0.3,0.5,0.3,1,0.1,1.5c-0.3,0.5-0.8,0.8-1.3,0.8L8.3,40.6L8.3,40.6z"/>
		</g>
	</g>
</g>
<g>
	<g>
		<g>
			<path class="st0" d="M36,32.5c-6.1,0-11-4.9-11-11c0-6,4.9-11,11-11c6,0,11,4.9,11,11c0,1-0.1,2-0.4,2.9c-0.2,0.8-1,1.3-1.8,1
				c-0.8-0.2-1.3-1-1-1.8c0.2-0.7,0.3-1.4,0.3-2.1c0-4.4-3.6-8-8-8c-4.4,0-8,3.6-8,8s3.6,8,8,8c0.6,0,1.1-0.1,1.7-0.2
				c0.8-0.2,1.6,0.3,1.8,1.1c0.2,0.8-0.3,1.6-1.1,1.8C37.6,32.5,36.8,32.5,36,32.5z"/>
		</g>
	</g>
</g>
<g>
	<g>
		<g>
			<path class="st0" d="M76.7,91.3H36.9c-0.8,0-1.5-0.7-1.5-1.5v-16c0-0.8,0.7-1.5,1.5-1.5h39.8c0.8,0,1.5,0.7,1.5,1.5v16
				C78.2,90.6,77.5,91.3,76.7,91.3z M38.4,88.3h36.9V75.3H38.4V88.3z"/>
		</g>
	</g>
</g>
<g>
	<g>
		<g>
			<path class="st0" d="M83.1,95.5H30.6c-0.8,0-1.5-0.7-1.5-1.5v-4.2c0-0.8,0.7-1.5,1.5-1.5h52.5c0.8,0,1.5,0.7,1.5,1.5V94
				C84.5,94.9,83.9,95.5,83.1,95.5z M32,92.5h49.5v-1.2H32V92.5z"/>
		</g>
	</g>
</g>
<g>
	<g>
		<g>
			<g>
				<path class="st0" d="M36.2,47.5c-0.8,0-1.5-0.6-1.5-1.4c0-0.8,0.6-1.5,1.4-1.5c4.4-0.2,7.8-7.1,8.7-9.8c0.2-0.6,0.8-1,1.4-1
					h16.2c0.8,0,1.5,0.7,1.5,1.5s-0.7,1.5-1.5,1.5H47.3C46.2,39.5,42.5,47.2,36.2,47.5C36.3,47.5,36.3,47.5,36.2,47.5z"/>
			</g>
		</g>
	</g>
	<g>
		<g>
			<g>
				<path class="st0" d="M77.6,47.5c-6.3,0-10.1-7.9-11.3-10.8H51.1c-0.8,0-1.5-0.7-1.5-1.5c0-0.8,0.7-1.5,1.5-1.5h16.2
					c0.6,0,1.2,0.4,1.4,1c0.9,2.8,4.5,10,9,9.8c0,0,0,0,0,0c0.8,0,1.5,0.6,1.5,1.5c0,0.8-0.6,1.5-1.5,1.5
					C77.7,47.5,77.7,47.5,77.6,47.5z"/>
			</g>
		</g>
	</g>
</g>
<g>
	<g>
		<g>
			<g>
				<path class="st0" d="M38.2,28.5c-0.8,0-1.5-0.7-1.5-1.5c0-0.8,0.7-1.5,1.5-1.5c6.3,0,14.7-9.2,17.4-12.7
					c0.5-0.7,1.4-0.8,2.1-0.3c0.7,0.5,0.8,1.4,0.3,2.1C57.6,15.2,47.2,28.4,38.2,28.5L38.2,28.5z"/>
			</g>
		</g>
	</g>
	<g>
		<g>
			<g>
				<path class="st0" d="M75,28.4C75,28.4,75,28.4,75,28.4C66.1,28,56,15.2,55.6,14.6c-0.5-0.7-0.4-1.6,0.3-2.1
					c0.6-0.5,1.6-0.4,2.1,0.3c2.7,3.4,10.9,12.4,17.1,12.7c0.8,0,1.5,0.7,1.4,1.6C76.5,27.8,75.8,28.4,75,28.4z"/>
			</g>
		</g>
	</g>
</g>
<g>
	<g>
		<g>
			<path class="st0" d="M67.8,36.6H46.3c-0.8,0-1.5-0.7-1.5-1.5v-4.1c0-0.8,0.7-1.5,1.5-1.5h21.5c0.8,0,1.5,0.7,1.5,1.5v4.1
				C69.2,36,68.6,36.6,67.8,36.6z M47.8,33.7h18.5v-1.1H47.8V33.7z"/>
		</g>
	</g>
</g>
<g>
	<g>
		<g>
			<path class="st0" d="M71.2,57H42.4c-0.8,0-1.5-0.7-1.5-1.5v-5.4c0-0.8,0.7-1.5,1.5-1.5h28.9c0.8,0,1.5,0.7,1.5,1.5v5.4
				C72.7,56.3,72.1,57,71.2,57z M43.9,54h25.9v-2.5H43.9V54z"/>
		</g>
	</g>
</g>
<g>
	<g>
		<g>
			<path class="st0" d="M56.8,16c-0.8,0-1.5-0.7-1.5-1.5V4.1c0-0.8,0.7-1.5,1.5-1.5c0.8,0,1.5,0.7,1.5,1.5v10.3
				C58.3,15.3,57.6,16,56.8,16z"/>
		</g>
	</g>
</g>
<g>
	<g>
		<g>
			<path class="st0" d="M62.1,91.3H51.5c-0.8,0-1.5-0.7-1.5-1.5v-4.7c0-3.7,3-6.8,6.8-6.8c3.7,0,6.8,3,6.8,6.8v4.7
				C63.6,90.6,62.9,91.3,62.1,91.3z M53,88.3h7.6v-3.2c0-2.1-1.7-3.8-3.8-3.8c-2.1,0-3.8,1.7-3.8,3.8C53,85.1,53,88.3,53,88.3z"/>
		</g>
	</g>
</g>
<g>
	<g>
		<g>
			<g>
				<path class="st0" d="M30,71.2c-0.8,0-1.5-0.6-1.5-1.4c0-0.8,0.6-1.5,1.4-1.6c6.1-0.3,10.5-9.6,11.7-13.1c0.2-0.6,0.8-1,1.4-1
					h21.2c0.8,0,1.5,0.7,1.5,1.5c0,0.8-0.7,1.5-1.5,1.5H44.1C42.8,60.4,38,70.8,30,71.2C30,71.2,30,71.2,30,71.2z"/>
			</g>
		</g>
	</g>
	<g>
		<g>
			<g>
				<path class="st0" d="M83.7,71.2C83.7,71.2,83.7,71.2,83.7,71.2C75.6,70.8,70.9,60.4,69.5,57H49.3c-0.8,0-1.5-0.7-1.5-1.5
					c0-0.8,0.7-1.5,1.5-1.5h21.2c0.6,0,1.2,0.4,1.4,1c0,0.1,4.5,12.9,11.8,13.1c0.8,0,1.5,0.7,1.4,1.5
					C85.2,70.5,84.5,71.2,83.7,71.2z"/>
			</g>
		</g>
	</g>
</g>
<g>
	<g>
		<g>
			<path class="st0" d="M74.3,32.5H38.9c-1.9,0-3.5-1.6-3.5-3.5s1.6-3.5,3.5-3.5h35.4c1.9,0,3.5,1.6,3.5,3.5S76.3,32.5,74.3,32.5z
				 M38.9,28.5c-0.3,0-0.6,0.2-0.6,0.6c0,0.3,0.3,0.6,0.6,0.6h35.4c0.3,0,0.6-0.2,0.6-0.6c0-0.3-0.3-0.6-0.6-0.6H38.9z"/>
		</g>
	</g>
</g>
<g>
	<g>
		<g>
			<path class="st0" d="M79.2,51.6H34.8c-2,0-3.5-1.6-3.5-3.5c0-2,1.6-3.5,3.5-3.5h44.4c2,0,3.5,1.6,3.5,3.5S81.1,51.6,79.2,51.6z
				 M34.8,47.5c-0.3,0-0.6,0.2-0.6,0.6c0,0.3,0.2,0.6,0.6,0.6h44.4c0.3,0,0.6-0.2,0.6-0.6c0-0.3-0.2-0.6-0.6-0.6H34.8z"/>
		</g>
	</g>
</g>
<g>
	<g>
		<g>
			<path class="st0" d="M85.2,75.3H28.9c-2,0-3.5-1.6-3.5-3.5c0-2,1.6-3.5,3.5-3.5h56.3c2,0,3.5,1.6,3.5,3.5
				C88.7,73.7,87.1,75.3,85.2,75.3z M28.9,71.2c-0.3,0-0.6,0.2-0.6,0.6c0,0.3,0.2,0.6,0.6,0.6h56.3c0.3,0,0.6-0.3,0.6-0.6
				c0-0.3-0.2-0.6-0.6-0.6H28.9z"/>
		</g>
	</g>
</g>
</svg>
