<?xml version="1.0" encoding="utf-8"?>
<!-- Generator: Adobe Illustrator 24.1.1, SVG Export Plug-In . SVG Version: 6.00 Build 0)  -->
<svg version="1.1" id="Layer_1" xmlns="http://www.w3.org/2000/svg" xmlns:xlink="http://www.w3.org/1999/xlink" x="0px" y="0px"
	 viewBox="0 0 232 100" style="enable-background:new 0 0 232 100;" xml:space="preserve">
<style type="text/css">
	.st0{fill:#F12D38;}
</style>
<g>
	<ellipse class="st0" cx="58.1" cy="22.7" rx="3" ry="2.3"/>
	<path class="st0" d="M200.6,4.5c-4.7,0-9.1,1.7-11.9,4.6c-2.8-2.9-7.2-4.6-11.9-4.6c-1.6,0-3,1-3,2.3v6.8c0,3.5,2.1,6.7,5.6,8.8
		c-10.7,3.7-17.5,11.8-17.5,20.7v25c0,2.5-2.7,4.5-5.9,4.5s-5.9-2-5.9-4.5V56.8c0-12.6-13.3-22.7-29.7-22.7S90.8,44.3,90.8,56.8
		v11.4c0,2.5-2.7,4.5-5.9,4.5c-3.3,0-5.9-2-5.9-4.5V38.6c0-0.2-0.1-0.4-0.1-0.5c5.7-3,9-7.9,9-13.1v-7c6.9-1.1,11.9-5.7,11.9-11.1
		c0-1.3-1.3-2.3-3-2.3h-8.9c-2,0-4.1,0.3-5.9,1V0h-5.9v6.8c0,3.8-4,6.8-8.9,6.8H55.1c-3.8,0-7.1,1.8-8.4,4.5h-9.4c-1.6,0-3-1-3-2.3
		v-2.3h-5.9v2.3c0,2,1.2,3.9,3.2,5.2c-2.1,1.7-3.2,3.9-3.2,6.2v2.3c0,1.3,1.3,2.3,3,2.3h20.8c1.6,0,3,1,3,2.3s-1.3,2.3-3,2.3h-6.3
		c-4.1,0-8.2,0.7-12,2.2L33,38.9c-1.5,0.6-2.1,1.9-1.3,3c0.7,1.1,2.5,1.6,4,1l0.9-0.4c2.9-1.1,6.1-1.7,9.3-1.7h9.2v27.3
		c0,6.1,3.2,11.9,8.9,16.2v6.5h-3c-4.9,0-8.9,3.1-8.9,6.8h5.9c0-1.3,1.3-2.3,3-2.3H67c1.6,0,3,1,3,2.3h5.9c0-2.9-2.4-5.4-5.9-6.4
		v-3.5c6.3,2.8,13.7,3.7,20.8,2.6v2.7h-3c-4.9,0-8.9,3.1-8.9,6.8h5.9c0-1.3,1.3-2.3,3-2.3h5.9c1.6,0,3,1,3,2.3h5.9
		c0-2.9-2.4-5.4-5.9-6.4V89c10.8-3.6,17.8-11.8,17.8-20.8V56.8c0-2.5,2.7-4.5,5.9-4.5c3.3,0,5.9,2,5.9,4.5v11.4
		c0,9,7,17.2,17.8,20.8v4.2h-3c-4.9,0-8.9,3.1-8.9,6.8h5.9c0-1.3,1.3-2.3,3-2.3h5.9c1.6,0,3,1,3,2.3h5.9c0-2.9-2.4-5.4-5.9-6.4v-3.1
		c7.1,1.1,14.5,0.2,20.8-2.6v3.1h-3c-4.9,0-8.9,3.1-8.9,6.8h5.9c0-1.3,1.3-2.3,3-2.3h5.9c1.6,0,3,1,3,2.3h5.9c0-2.9-2.4-5.4-5.9-6.4
		v-6.9c5.7-4.3,8.9-10.1,8.9-16.2V29.5c0,6.3,6.7,11.4,14.9,11.4c1.6,0,3-1,3-2.3v-6.8c0-3.6-2.3-7-6-9.1c3.8-2.1,6-5.5,6-9.1V6.8
		C203.6,5.6,202.3,4.5,200.6,4.5z M87.8,9.1h5.4c-1.3,2.7-4.6,4.5-8.4,4.5h-5.4C80.6,10.9,84,9.1,87.8,9.1z M52.1,27.3H34.3
		c0-2.5,2.7-4.5,5.9-4.5h8.9c1.6,0,3-1,3-2.3s1.3-2.3,3-2.3h26.7V25c0,6.3-6.7,11.4-14.9,11.4h-6.4c1.6-3.6-0.8-7.4-5.4-8.7
		C54.2,27.4,53.2,27.3,52.1,27.3z M179.9,29.5v9.1h-3v4.5h3v4.5h-5.9v4.5h5.9v4.5h-5.9v4.5h5.9v4.5h-5.9v4.5h5.7
		c-0.3,2.1-1.2,4.1-2.4,6l-5.3-1.4l-1.9,4.3l3.7,0.9c-2.4,2-5.4,3.6-8.7,4.7v-3.2h-5.9v4.4c-2.5,0.3-5.1,0.2-7.6-0.2l1.5-3.5
		l-5.6-1.4l-1.5,3.5c-2.8-1-5.3-2.5-7.4-4.2l4.9-3.7l-4.2-3.2l-4.1,3.2c-1.8-2.6-2.7-5.5-2.7-8.4h5.9v-4.5h-5.9v-4.5h5.9v-4.5h-6.4
		c-0.6-1.9-2-3.5-4-4.8l3.6-2.7l-4.2-3.2l-5.2,4c-1-0.2-2.1-0.2-3.2,0l-5.2-4l-4.2,3.2l3.6,2.7c-1.1,0.7-2.1,1.5-2.8,2.5h-7.6v4.5
		h5.9v4.5h-5.9v4.5h5.9v2.3c0,1.2-0.2,2.4-0.5,3.5l-4.5-1.2l-1.9,4.3l4.5,1.2c-1,1.6-2.4,3.2-4,4.5l-3.4-2.6l-4.2,3.2l3,2.3
		c-3,1.5-6.3,2.4-9.8,2.7v-4.4h-5.9v4.4c-2.4-0.2-4.7-0.7-6.9-1.5l3.4-3.9l-4.9-2.5l-3.5,4c-1.7-1.1-3.3-2.3-4.6-3.7l5.6-1.4
		L69,72.8l-6.5,1.7c-1-2-1.5-4.2-1.5-6.3H67v-4.5h-5.9v-4.5H67v-4.5h-5.9V50H67v-4.5h-5.9v-4.5h11.9v27.3c0,5,5.3,9.1,11.9,9.1
		s11.9-4.1,11.9-9.1V56.8c0-10,10.6-18.2,23.8-18.2s23.8,8.1,23.8,18.2v11.4c0,5,5.3,9.1,11.9,9.1s11.9-4.1,11.9-9.1v-25
		c0-6.6,4.7-12.7,12.3-15.9C180,28,179.9,28.8,179.9,29.5z M185.8,20.1c-3.6-1-5.9-3.5-5.9-6.4V9.5c3.6,1,5.9,3.5,5.9,6.4V20.1z
		 M197.7,31.8V36c-3.6-1-5.9-3.5-5.9-6.4v-4.2C195.3,26.4,197.7,28.9,197.7,31.8z M197.7,13.6c0,2.9-2.4,5.5-5.9,6.4v-4.2
		c0-2.9,2.4-5.5,5.9-6.4V13.6z"/>
</g>
</svg>
