<?xml version="1.0" encoding="utf-8"?>
<!-- Generator: Adobe Illustrator 24.1.2, SVG Export Plug-In . SVG Version: 6.00 Build 0)  -->
<svg version="1.1" id="Layer_1" xmlns="http://www.w3.org/2000/svg" xmlns:xlink="http://www.w3.org/1999/xlink" x="0px" y="0px"
	 viewBox="0 0 612 792" style="enable-background:new 0 0 612 792;" xml:space="preserve">
<g>
	<g>
		<defs>
			<path id="SVGID_1_" d="M299.3,290.6c41.3-0.9,69.2,20,84.7,44.9c2.9,4.6,5.1,9.5,7.4,14.9c1.6,3.7,4.4,7.5,4.6,12.5
				c-3.6,3.4-10.4,8-17.3,7.2c-1.1-1.7-2.7-3.2-3.8-5c-2.7-4.3-4.1-9.3-6.7-13.7c-2.8-4.6-5.5-9.4-8.6-13.7
				c-8.2-11-21.5-18.1-36-22.8c-9.6-3.1-28.2-3-37.7,0c-23.8,7.4-39.9,21.3-49.2,43.2c-1.8,4.3-3,9.2-4.3,14.2
				c-0.2,1.8-0.3,3.7-0.5,5.5c-0.5,2.4-0.8,6.3-0.2,8.9c0,1.5,0,3,0,4.6c1.6,6.8,2.1,13.2,4.6,19c8.5,20,22.9,33.2,43.2,41.5
				c10.8,4.4,27.7,7.2,41,3.1c7-2.1,13.7-4.2,19.7-7.4c4.1-2.2,7.9-5.4,11.5-8.2c0.6-0.7,1.3-1.4,1.9-2.2
				c8.1-6.1,13.3-14.3,17.5-24.2c1.4-3.3,2.8-7.1,3.8-10.8c0.4-1.5,0.8-4,0-5c-1-0.7-2.6-0.4-4.1-0.7c-3.2-0.8-12.7-0.7-14.2,1.4
				c-1.1,1.7-0.8,4.4-1.4,6.5c-2.4,7.3-4.3,14.8-7.9,20.6c-0.7,1-1,2.4-1.9,3.1c-3.3,2.7-7.9,2.8-13,3.8c-1.7,0-3.4,0-5,0
				c-4.5,1-10.7,0.2-15.6,0.2c-9.8,0-20.1,0.2-29.5,0.2c-6.4,0-18.4-0.4-20.9-4.1c-2.4-3.6,0.1-10.8-1-15.8
				c-0.9-4.3-0.6-16.8,0.2-20.9c0-2.6,0-5.3,0-7.9c0.4-2,0.2-6.6-0.2-8.9c0-4.3,0-8.6,0-13c0-5.9-1.5-18.4,1.9-20.9
				c1.7-1.2,6.3-1.3,8.9-0.7c4.2-0.1,8.3-0.2,12.5-0.2c13.2,0.4,28.4,0,42.5,0c4.2,0,8.5,0,12.7,0c1.8,0.1,3.7,0.2,5.5,0.2
				c7.9,2.8,9.4,17.2,11.5,26.2c0.6,2.6-0.1,7.8,1.2,9.6c1.2,0.7,7.2,0.2,9.1,0.2c8.1,0,16.2,0,24.2,0c0.8,0.5,5,0.5,6,0.7
				c0.4,0.5,0.8,1,1.2,1.4c0.2,2.9,0.2,7.5-0.5,10.6c-0.8,3.4,0,6.4-0.7,9.6c-1.4,5.9-2.5,12-4.6,17c-1.8,4.3-2.8,8.5-5,12.2
				c-9.1,14.9-17.2,24.9-31.7,34.6c-3.3,2.2-7.1,4.8-10.8,6.5c-2.9,1.3-5.6,2.1-8.6,3.4c-14.2,6-39.7,8.1-56.4,2.6
				c-9.7-3.1-18.4-6.6-26.2-11.5c-4.3-2.7-8-6.1-12-9.1c-4.6-3.5-8.6-8.7-12-13.4c-5.6-7.8-11-16.3-14.4-26.4
				c-1.6-4.7-2.3-9.7-3.6-14.6c-0.2-1.8-0.3-3.5-0.5-5.3c-1.1-4.9-1.4-15-0.2-20.2c1-4.4,1-9,2.4-13.2c1.3-4.1,2.4-8.6,4.1-12.5
				c7-16,17.6-30,31-39.6c9.2-6.6,19.5-11.2,31.4-15.1c4.5-1.4,9.4-1.5,14.2-2.6C295.3,290.7,297.9,291.5,299.3,290.6L299.3,290.6z
				 M289.2,356.4c-0.4,0.3-1.2,0.3-1.9,0.2c-0.4,0.5-0.8,1-1.2,1.4c-0.1,3-1,7.5-0.2,10.8c0.3,1.3,0.6,4.3,0.2,6
				c-0.3,7-0.6,14.1-1,21.1c0,3.2-0.5,12.2,1.2,13.2c1.6,1.4,5.1,0.2,7.7,0.7c2.6,0.6,5.8-0.1,8.6,0.5c1.2,0.3,3.3-0.1,4.8,0.2
				c3.4,0.7,14.8,1.3,17.5-0.2c0.6-0.6,1.3-1.3,1.9-1.9c2.7-3.9,4.2-11.5,1.9-17c-1.1-2.7-4.2-4.5-4.8-7.4c-0.5-2.5,2.2-4.2,3.1-5.5
				c1.6-2.4,2.2-5.3,2.9-8.6c0.7-3.5-1.4-6.7-2.6-8.4c-1.2-1.7-2.6-3.1-4.8-3.8c-3.8-1.4-8.9-0.7-13.7-1
				C302.8,356.3,295.7,356.4,289.2,356.4L289.2,356.4z M398.2,369.8c0.2,0.3,0.1,0.2,0.2,0.7c-0.1,0-0.2,0-0.2,0
				C398.2,370.3,398.2,370.1,398.2,369.8L398.2,369.8z"/>
		</defs>
		<use xlink:href="#SVGID_1_"  style="overflow:visible;fill-rule:evenodd;clip-rule:evenodd;fill:#E0EEEC;"/>
		<clipPath id="SVGID_2_">
			<use xlink:href="#SVGID_1_"  style="overflow:visible;"/>
		</clipPath>
	</g>
</g>
</svg>
