<?xml version="1.0" encoding="utf-8"?>
<!-- Generator: Adobe Illustrator 24.1.2, SVG Export Plug-In . SVG Version: 6.00 Build 0)  -->
<svg version="1.1" id="Layer_1" xmlns="http://www.w3.org/2000/svg" xmlns:xlink="http://www.w3.org/1999/xlink" x="0px" y="0px"
	 viewBox="0 0 100 100" style="enable-background:new 0 0 100 100;" xml:space="preserve">
<style type="text/css">
	.st0{fill:#404D86;}
</style>
<path class="st0" d="M98.1,64.6c0-7.6-4.1-16.2-10-20.9l-0.6-21.8c0-6-3.8-11.3-9.5-13.3c-0.4-2.3-2.3-3.9-4.6-3.9h-25
	c-2.3,0-4.2,1.7-4.6,3.9c-5.7,2-9.4,7.3-9.5,13.3l-0.1,22.4c-3.9,2.9-5.8,5.2-7.5,9.7c-4.6-3.6-9.4-6.1-15.1-7.5
	c-0.5-0.1-1.6,0.5-1.9,0.8l-6.3,6.4c-0.6,0.6-0.8,2.3,0.2,2.9c10.4,4.1,12.8,9.5,14.9,15.2c2.4,6.2,4.6,12.6,17,13.2
	c2.1,1.5,3.6,1.7,6,2.5l0.1,5.9c0,0.9,1.4,2.8,2.3,2.8h34.3c0.9,0,2.8-1,2.8-1.9l0.1-6C91.3,84.9,98.1,75.4,98.1,64.6z M48.4,7.8h25
	c0.9,0,1.6,0.7,1.6,1.6S74.3,11,73.4,11h-25c-0.9,0-1.6-0.7-1.6-1.6S47.6,7.8,48.4,7.8z M44.4,12.2c0.8,1.4,2.4,1.9,4,1.9h25
	c1.7,0,3.4-0.4,4.2-1.8c4.2,1.6,6.3,4.9,6.3,9.3l0.4,19.9c-2-1.1-4.3-1.8-6.5-2.4c-0.6-4-4.5-6.4-11.4-7.4c0-0.1,0-0.5,0-0.6
	c0-2.6-2.1-5.3-5.6-5.4c-3.6-0.1-5.7,2.8-5.7,5.4c0,0.1,0,0.4,0,0.6c-6.9,1-10.8,3.7-11.4,7.8c-2.2,0.6-3.8,1.1-5.8,2.3V19.6
	C37.9,19.6,39.2,13.9,44.4,12.2z M60.8,33.8c-1.3,0-2.3-1-2.3-2.3c0-1.3,1-2.3,2.3-2.3c1.3,0,2.3,1,2.3,2.3
	C63.1,32.7,62.1,33.8,60.8,33.8z M56,34.8c2.4,3.3,7.8,2.9,9.9,0c0,0,7.2,0.8,8.6,4.4c-0.9-0.1-1.8-0.1-2.7-0.2H50
	c-0.9,0-1.8,0.1-2.7,0.1C48.5,37.1,50.7,35.4,56,34.8z M21.6,70.8c-1.9-5.3-4.3-11.9-14.2-16.5l4-4.1c5.3,1.4,9.6,3.5,13.8,7
	c-2.2,8.1-0.1,17.1,5.6,23.3C24.2,79.3,23.4,75.6,21.6,70.8z M77.1,89.1v3.1H45.3v-3.1H77.1z M71.9,85.9H50
	c-12.1,0-21.9-9.8-21.9-21.9S37.9,42.2,50,42.2h21.9c12.1,0,21.9,9.8,21.9,21.9S84,85.9,71.9,85.9z"/>
<path class="st0" d="M80.4,47.1l-1.6,3.2c5.2,2.7,8.4,7.9,8.4,13.8c0,0,0.4,1.1,1.7,1.1c1.4,0,1.6-1.2,1.6-1.2
	C90.6,57,86.7,50.2,80.4,47.1z"/>
<path class="st0" d="M76.5,49.4l1.2-3.4c-1.8-0.5-3.9-0.7-5.9-0.8c0,0-1.2,0-1.3,1.5c-0.2,1.7,1.1,2,1.1,2S75,49,76.5,49.4z"/>
<path class="st0" d="M68.8,56.8c0.4-4.3-2.9-8.2-7.3-8.6c-4.3-0.4-8.2,2.9-8.6,7.3c0,0.4,0,0.8,0,1.2c-4.3-0.4-8.2,2.9-8.6,7.3
	c-0.4,4.3,2.9,8.2,7.3,8.6c0.4,0,0.8,0,1.2,0c-0.4,4.3,2.9,8.2,7.3,8.6s8.2-2.9,8.6-7.3c0-0.4,0-0.8,0-1.2c0.1,0,0.4,0,0.5,0
	c4.3,0,8.1-3.6,8.1-7.9s-3.6-8.1-7.9-8.1C69.2,56.7,69.1,56.7,68.8,56.8L68.8,56.8z M58.3,53.1c1.4-1.4,3.7-1.4,5.1,0
	c1.4,1.4,1.4,3.7,0,5.1l0,0l-2.5,2.5l-2.5-2.5C58.1,58,55.7,55.7,58.3,53.1L58.3,53.1z M49.5,67.3c-1.4-1.4-1.4-3.7,0-5.1
	c1.4-1.4,3.7-1.4,5.1,0l2.5,2.5l-2.5,2.5C53.2,68.7,50.9,68.7,49.5,67.3z M63.3,76.1c-1.3,1.3-3.6,1.3-4.9,0c-1.3-1.3-1.3-3.6,0-4.9
	l0,0l2.5-2.5l2.5,2.5C64.7,72.6,64.7,74.8,63.3,76.1L63.3,76.1z M72.2,67.3c-1.4,1.4-3.8,1.4-5.2,0l0,0l-2.6-2.6l2.6-2.6
	c1.4-1.4,3.8-1.4,5.2,0C73.8,63.6,73.8,65.9,72.2,67.3z"/>
</svg>
