<?xml version="1.0" encoding="utf-8"?>
<!-- Generator: Adobe Illustrator 24.1.2, SVG Export Plug-In . SVG Version: 6.00 Build 0)  -->
<svg version="1.1" id="Layer_1" xmlns="http://www.w3.org/2000/svg" xmlns:xlink="http://www.w3.org/1999/xlink" x="0px" y="0px"
	 viewBox="0 0 612 792" style="enable-background:new 0 0 612 792;" xml:space="preserve">
<style type="text/css">
	.st0{fill-rule:evenodd;clip-rule:evenodd;fill:#59C394;}
</style>
<g>
	<path id="SVGID_1_" class="st0" d="M362.2,384.9c0.2,6.4,0.5,12.8,0.7,19.2c0,3.1-0.9,8.2,0.2,10.6c1.1,2.3,3.3,3.6,5.6,4.7
		c1.8,0.9,3.8,2,4.5,3.9c1.4,2-1.1,3.3-1.9,4.1c-3.2,0.1-6.2-1-7.7-2.6c-0.4,0.2-0.1,9.1,0,11.2c0.1,4.4,0.2,8.8,0.2,13.2
		c-0.8,6.2,2.5,9,3.8,10.2c1.3,1.1,3.4,2.6,5.2,3c1.4,0.4,2.2,0.9,3.2,1.5c0.7,0.4,1.1,1.3,1.7,1.9c0,3.4-2.8,4.4-6.2,3.6
		c-4-1-6.9-2.6-9.4-5c-0.9-0.9-1.4-2.3-2.9-2.6c-2.1,4.2-5.9,6.4-11,7.7c-1.1,0.3-3.8,1-5,0.2c-1.8-0.4-2.5-1.4-2.4-3.8
		c0.4-0.5,0.8-1,1.2-1.4c1.6-1,4.4-1.7,6.4-2.4c1.8-0.6,3.8-1.3,4.8-2.7c1.1-1.5,2.1-2.3,2.7-7.4c0.4-3.2,0.8-6.2,0.8-9.4
		c0.3-7-0.5-11.4-0.6-18c-0.4-0.1-0.4-0.2-1-0.2c-1.6,2.3-6.3,4.9-10.2,5c-1.9,0-2.8-1.1-3.3-2.3c-0.7-0.9-0.3-1.6,0-2.6
		c2.5-1.5,5.2-3.6,7.7-5.1c6.1-3.8,6.5-7.9,6.5-17.7c-0.2-4.7-0.3-9.4-0.5-14.2c-0.5,0-1,0-1.4,0c-1.4,1.8-10.9,3.6-12,0.7
		c-0.8-1-0.4-2.9,0.5-3.6c3.2-2.5,8.2-2.2,10.9-6.3c1.4-2.1,2.3-7.8,1.6-11.3c-2-12.1,5.4-22,12.3-25.2c0.1-2.7-0.7-5.2-1.4-8
		c-0.6-2.2-0.4-4-1.2-6c-2.7-6.8-8.7-10.3-15.8-12.5c-10.9-3.3-23-0.1-28.1,6.7c-1.2,1.6-3.3,3.3-3.6,5.8c0.1,0.1,0.2,0.2,0.2,0.2
		c11.6-2.6,16.6,0.2,19.1,9c0.1,1,1.3,5.8,1.3,6.8c1.2,5,0.1,10.8,2.4,14.8c0.6,1,3.6,1.8,4.6,2.4c2.7,1.5,4,1.5,4,5.8
		c-0.5,0.5-1,1-1.4,1.4c-2.6,2-6.7-1.2-8.4-1.2c0,5.8,0,11.7,0,17.5c-0.7,1.1,0,8.8,0,10c0.3,5.4,1.3,8,5.5,8.4c2.2,1.2,4,0.5,5,3.4
		c0.4,0.5,0.4,0.9,0.5,1.7c-0.7,0.8-0.4,2.3-1.5,2.7c-2.7,2.1-8.1-1.5-10.2-1.8c0,1.9-0.4,3.5-0.7,5c0,1.8,0,3.5,0,5.3
		c0,6.4-0.1,12.3,1.7,16.8c0.5,1.4,3.2,2.7,4.4,3.5c2.7,1.7,4.2,1.3,4.2,5.8c-0.6,0.4-1.4,1.1-1.9,1.7c-2.3,0.2-5.5-0.4-7.8-2.8
		c1,0.3,0.6,7.1,0.1,9.2c-2.1,8.1-5.7,12.2-13.7,14.5c-2,0.6-4.3,0.8-6.5,0.2c-0.7-1-1.6-2-1.6-3.8c0.5-0.6,0.6-1.9,1.2-2.2
		c1.9-1.9,2.8-0.3,4.3-0.7c2.1-0.5,4.5-0.6,5.6-2.1c4-5.5,3.9-18.1,2.7-28.1c-0.1-4-0.3-4.1,0.4-7.2c-1.6,0.1-1.9,0.8-2.9,1.4
		c-2.2,1.3-4.7,2.3-7.9,2.4c-0.8-0.7-1.5-0.8-1.9-1.9c-0.7-0.9,0-2.9,0.3-3.9c3.2-1.9,8.5-4.5,10.8-7.4c2.7-3.5,1.9-10,2.1-18.4
		c-0.2-4.7,0.6-7.3-1-9.6c-0.3-0.2-0.2-0.1-0.7-0.2c-1.6,2.3-7.8,2.7-11,1.9c-0.7-1.1-1.2-0.7-1.2-2.7c-0.1-1.9,0.9-2.5,1.3-3.1
		c2.1-0.4,4.2-0.9,6.2-1.3c2.1-0.9,4.1-2.5,5.3-4.4c2-3.2,1.7-16.7,1.7-17.5c-0.5-2.3-0.5-5.1-1-7.4c-0.3-1.6-0.7-9.6-1.6-12
		c-1.2-3.1-3.1-4.2-5.7-5.3c-9.7-0.7-12.3,4-12.3,13.9c0,2.9,1.4,30.8,1.4,36c0,2.3,0.8,33.7,0.9,38.4c0.1,6.1,0.2,13,0.2,19.4
		c0,5.8-0.2,27.5-0.2,32.1c0,1.4-0.4,18-0.2,18c6.7,0.1,13.4,0.1,20.2,0.2c7.8,0.2,10.3,0.2,9.7,3.8c-1.3,4.6-6.3,3.7-10.5,3.6
		c-3.5,0.2-9.9,0.2-13.8,0.2c-17.3,0-32.5,0-49.5,0c-5.1,0-10.1,0-16.1,0c-2.1,0.4-5.2,0.1-5.5-2.8c0.1-4.5,2.8-5,7-5
		c8.8-0.1,14.4-0.2,23.2-0.2c0.4-0.8,0.3-11.7,0.3-13.9c0-8,0-17,0-25.7c0-26.2,0.3-52.9,0.2-79c0-14,0.4-31-5.3-39.4
		c-0.8-1.2-1.8-2.4-3.4-2.9c-8.2-0.3-8.3,3.9-9.8,10.8c-0.1,2.6-0.2,5.3-0.2,7.9c-0.4,1.9,0.2,5.9,0.2,8.9c0,8.7,1.2,20.3,6.2,23.8
		c1.8,1.3,4.3,1,6.7,1.4c1.2,0.3,1.4,1.5,1.3,3.1c-1.8,4.8-9,3.3-11.8,1.4c-1.1-0.7-1.4-2.1-3-2.5c-0.1,11.8,0,26.6,5,33.5
		c1.1,1.5,3.2,2.6,5.3,3.1c2.4,0.6,1.8-0.2,4.8,1.7c2.5,2.2,0.7,5.2-2,5.3c-4,0-7.1-0.4-9.6-1.9c-0.6-0.4-1.9-3.2-2.5-2.7
		c-0.8,1.2-0.2,8-0.2,10.1c0,8.5-0.1,19,3.5,24.1c0.6,0.5,4.2,2.8,7.2,2.5c1.5,0.9,1.9,2.3,1.9,3.9c-0.4,1.6-2.4,2.2-3.1,2.2
		c-11.4,0-13.2-6.1-15.4-15.1c-0.6-2.5,0-5.4-0.7-7.7c-0.2,0-0.3,1-0.5,1c-1.8,2.3-9.3,4.9-13.1,4.1c-1.2-0.4-2-2.5-1.1-4.1
		c0.8-2.5,4.2-2.5,6.5-3.6c2.6-1.2,5.6-2.9,6.7-5.5c2.7-6.2,0.7-20.9,0.7-29c-1.8,0.3-2.7,2.3-4,3c-2.6,1.2-5.9,0.8-9.2,0.6
		c-2.7-0.4-2-4-0.6-5.6c4-2.5,8.1-0.8,10.9-4.8c4-5.6,2.9-17.6,2.9-26.9c0-3,0.6-7.5-0.2-10.1c-3.4,0.8-6.1,3.6-10.3,2.6
		c-1.3-0.1-1.7-2-2.1-2.4c0-5.1,5-4.7,8.3-6.4c1.1-0.5,2.5-0.7,3.1-1.7c1.1-1.8,1.4-5.2,1.4-7.9c0-1.4,0-2.7,0-4.1
		c1.1-5.2,1.2-10,3.6-13.7c1.7-2.5,4.8-4.3,7.9-5.3c1.1-0.4,2.7-0.2,4.3-0.5c0.2-0.2-2.8-3.5-4.4-5.1c-3.1-2.3-7.1-4.3-11.3-5.5
		c-4.1-1.2-10.3-0.5-13.7,0.7c-8.5,3.2-17.3,15.3-17.5,26.6c8.3,4.6,11.1,9.8,13.4,20.4c0.7,3.4,0,8-0.7,10.6c-0.2,1-1,2.5-0.5,3.4
		c0.9,2.6,5.1,4.7,7.8,5.5c1.3,0.4,3.3-0.7,5.3,2.4c0.8,1.3,0.5,3.3-0.8,4.3c-6.1,2.7-7.3-1.8-11.9-2.4c0.1,2.5,0.7,13.5,0.7,16.1
		c0.3,1.6-0.7,11.5-0.9,13.8c2.3,1.5,3.5,3.7,6.6,4.5c5.8-0.8,6.9,0.6,7.2,1.2c1.5,1.8,0.2,4.5-1.1,5.2c-4.9,2.5-8.8-1.7-12.8-2.3
		c-0.2,0.5-0.1,7.9,0.3,10.1c0.7,4.7,0.6,10.2,0.5,15.1c0,1.9-1.6,4.9-0.7,6.5c0.9,2.6,4.7,5.4,7.2,6.5c2.5,1,5.5-0.2,6.5,2.4
		c0.6,0.8,0.3,1.3,0.2,2.4c-0.1,0.9-1.1,2.2-2.2,2.4c-5.2,0.1-8.6-0.4-11.7-2.4c-1.4-0.2-1.6-3.6-3.6-3.9c-2.5,3.9-7.3,7.5-13.6,7.5
		c-1.3-0.1-3.3-2.1-2.9-4.3c0-1.4,0.7-2.4,5-3.1c2.4-0.8,4.9-2.6,6.2-4.6c5-7.5,2.4-23.1,1.9-33.6c-1.8,0.2-2.3,2.4-3.8,3
		c-2.5,1-7.9,0.3-8.9-1c-0.7-1-1.2-1.4-1.2-3.1c0.3-1.5,1.1-1.8,2.2-2.2c1.4,0,2.9,0,4.3,0c1.6-0.4,3.7-1.9,4.6-3.1
		c6.1-8.1,3.6-20,3.6-32.6c-1.2-1.3-7.4,4.3-11.5,3.8c-1.3,0-3.9-1.3-2.4-4.3c0.1,0,5.5-3.7,7.9-5.2c3.8-2.3,5.1-5.4,6.2-10.4
		c2-8.9-2.1-16.2-6-20.2c-1.3-1.3-3.6-2.7-7.2-2.5c-4.6,2.9-4.3,5.3-4.8,9.3c-1.3,4.9-0.4,33.3-0.6,35c-0.3,2.1,0.3,5,1.1,6.3
		c3,4.7,8.2,4.9,12,8.4c0,2.7-0.7,3.1-2,4.3c-4.1,0.9-6.6-1-9-2.4c-0.7-0.5-0.9-1.6-2-1.8c0.1,0.8,0.2,5.6,0.2,7.6
		c-0.1,5.2-0.5,12.6,0.6,17.3c0,1.8,0,3.7,0,5.5c0.7,2.3,4,4.5,6.2,5.3c3.4,1.2,6,0,6,4.6c-0.4,0.3-0.6,0.9-1,1.2
		c-3.3,2.3-7.9-0.9-10.8-1.4c-0.1,0.1-0.2,0.2-0.2,0.2c0.1,8.5-2.1,16.2-7.4,19.5c-13.8,6.3-13.9-2.6-11.9-4c0.9-0.7,3-1.1,4.1-1.6
		c2.3-1,4.4-1.4,5.6-3.5c4.7-7.4,2-32.3,1.4-32.3c-1.1,1.1-7,4.2-8.7,2.9c-0.8-0.2-2-1-2.2-1.8c-0.6-0.8,0.1-2.7,0.7-3.5
		c1-1.5,3.5-1.5,5.3-2.4c1-0.5,2.7-2.2,3.4-3.1c3.2-4.6,1.7-14,1.7-21.4c-0.1-2.8-0.2-5.6-0.2-8.4c-0.4-0.6,0.3,0.3-0.6,0.2
		c-1.8,1.8-5.6,2.9-8.5,2.1c-1.8-0.3-2.7-2.5-1.5-5.1c3.2-2.1,8.3-2.8,9.8-6.5c1.4-3.3,0.5-6.9,0.7-12c0.3-7.5,0.5-12.5,2.9-17.3
		c1.2-2.4,3.4-4.8,5.5-6.2c1.2-0.8,2.6-1.4,3.5-2.5c0.8-1.2,0.5-3.1,1-4.6c0.9-2.6,1.7-4.7,2.5-7.3c3.8-8.9,10-16,19.3-19.3
		c3.9-1.3,10.1-1.3,14.7-1.3c1.6-2.3,4.1-3.3,6.5-4.9c5.2-3.6,10.7-6.5,17.8-8.4c10.5-2.8,24.5,0,31.2,4.1
		c3.7,2.2,12.6,8.4,15.3,12.3c3.3-4.1,17.2-4.6,24-2.8c11,3,18.4,6.6,22.8,15.4c1.8,3.5,2.9,6,4,10.3c0.6,2.4,0.7,5.4,1,8
		c6.1,1.6,9.1,7.7,10.9,13.6c0.3,2.7,1.2,4.6,1.6,7.4c0,1.5,0.4,3.7,0.4,5.3c0,0.7,0.1,8.1,1,12.7c1.6,2.4,6.9,2.4,9.7,3
		c0.4,0.5,0.6,1.7,1,2.1c0.1,6.4-7.5,3.4-11.5,3.1c0,0.2,0.5,4.2,0.1,5.5c-0.4,1.4-2.1,12.7-2.1,13.9c1,4.5,1.6,8.7,4.8,10.9
		c2.5,1.7,7.2,1.1,8.4,4.3c0.6,0.9-0.4,2.9-0.6,3.6c-3.9,2.4-7-0.6-10.9-1.2c-0.4,1.1,0.3,17.1,0.3,18.9c0.1,9.2,2.1,12.8,7,16
		c2.2,1.4,4.5,1,5.9,3.3c1.3,2.1-0.9,3.5-1.7,4.3c-11.3,0.8-15.1-4.5-17.5-13.2c-0.9-3.4-0.2-8.2-1.2-10.8c-3.3,1.7-6.9,4-11.8,2.9
		c-0.4-0.5-1-1.2-1.4-1.7c0-0.5,0-1,0-1.4c0.7-0.8,0.8-1.5,1.9-1.9c0.9-0.7,1.8-0.4,3.1-0.7c1.9-0.5,4-1.7,5-3.1
		c3.7-4.9,2.7-23.1,2.8-23.7c-0.2-2.2-0.5-4.5-0.7-6.7c-0.4,0.2-4.6,2.8-9.9,1.6c-0.5-0.6-1-1.9-1.4-2.5c0.1-5.6,2.7-3.6,5.7-5.2
		c1.6-0.8,3.6-1.3,4.5-2.9c2.9-4.9,4.5-15,3-22.3c-0.5-2.6-1.4-25.4-8-26.8c-3.1-1.6-4.9,0.3-6.3,1.4c-4.6,3.5-5.8,13.3-4.8,23.8
		c1,2.9,4.9,3,7.6,4.2c2.1,0.9,4.5,3.3,5.3,5.4c0.5,0.5,0.5,1.1,0.5,2.2c-0.5,0.5-1,1-1.4,1.4C371.1,390.6,364.8,385.5,362.2,384.9
		L362.2,384.9z M288,300.3c-3.9-0.7-9.5,0.2-11.4,0.8c-4.6,1.4-9.4,3.4-13,5.8c-1.4,0.9-2.3,1.2-3.8,2.8c0.1,0,5.5,3,7.8,4.7
		c5.8,4,11,10.7,13.7,17.8c5.3,9,5.9,33.9,5.9,38.5c0,6.1-0.1,42.4-0.1,53.8c0,5.7,1,66.2,1,68.2c1.3,0.8,13.6,0.2,17.9,0.1
		c0.1-0.1,0.2-0.2,0.2-0.2c-0.1-41.3-1.2-74.5-1.9-110.4c-0.4-10.1-1.2-25.3-1.6-35.3c-0.1-3.8,0.5-3.6,1.4-7c0.7-2.6,1.6-4.7,2.5-7
		c1.3-3.5,2.9-5.5,4.6-8.5c1.1-2.1,4.9-6,5.3-7.9c-1.5-3.1-3.1-4.6-4.3-6.2C306.8,303,288,300.3,288,300.3z"/>
</g>
</svg>
