<?xml version="1.0" encoding="utf-8"?>
<!-- Generator: Adobe Illustrator 24.1.2, SVG Export Plug-In . SVG Version: 6.00 Build 0)  -->
<svg version="1.1" id="Layer_1" xmlns="http://www.w3.org/2000/svg" xmlns:xlink="http://www.w3.org/1999/xlink" x="0px" y="0px"
	 viewBox="0 0 612 792" style="enable-background:new 0 0 612 792;" xml:space="preserve">
<style type="text/css">
	.st0{fill-rule:evenodd;clip-rule:evenodd;fill:#F12D38;}
</style>
<g>
	<g>
		<path id="SVGID_1_" class="st0" d="M302.9,258c1.1,0,2,0,2.6,0.5c4.9-0.5,2,24.7,1.9,27.4c-0.1,2.8,0.4,6.7-0.7,8.6
			c-0.5,0.8-1.7,1.3-2.4,1.9c-1.2,0.1-2,0.4-2.9-0.2c-1.5-0.4-1.7-1.4-2.6-2.4c-0.1-2.3-0.3-5.5,0.2-7.9c0.5-2.5-0.2-5.7,0.2-7.9
			c0.6-2.6,0.2-13.6,0.2-16.4c0.2-0.6,0.5-1.3,0.7-1.9C301,259.2,302.1,258.6,302.9,258L302.9,258z M255.1,278.6
			c3.9,0.5,4.9,3.3,7,5.5c4.4,4.6,9.1,9,13,14.2c2.5,3.3,4.8,3.1,3.4,8.6c-0.6,0.5-1.3,1-1.9,1.4c-4.4,0.3-5.5-2.1-7.7-4.6
			c-3.1-3.5-6.5-6.6-9.4-10.3c-2-2.6-5-4.5-7-7.2c-1.4-1.9-1.1-3.7-0.5-6C252.6,279.7,254.8,278.9,255.1,278.6L255.1,278.6z
			 M351.4,280.3c1.5,0,2,0.4,3.1,0.7c1,1.5,1.7,1.9,1.7,4.6c-5,6.2-10.7,11.4-16.3,17c-2.4,2.4-4.2,5.7-8.9,5.8
			c-0.9-0.8-2-1.5-2.9-2.2c-0.7-5.6,2.9-6.7,5.8-9.4c0.6-0.7,1.1-1.4,1.7-2.2c3.2-3.1,6.4-6.2,9.6-9.4c1.4-1.4,2.9-2.9,4.3-4.3
			C350.1,280.8,350.7,280.6,351.4,280.3L351.4,280.3z M348,341.8c-0.1-2.8,0.4-4.6,1-6.5c3.1-2.1,3.6-2,7.4-1
			c0.8,1.2,1.7,2.4,2.2,4.1c0.9,3.8-0.8,6.6,1.2,9.4c2.1,3,5.3,5.5,8.2,7.7c1.8,1.3,3.3,3.3,5,4.6c6,4.4,12.4,7.8,20.6,10.1
			c6.1,1.7,14.4,0.2,19.9,1.4c3.5,7.4-8.3,14.7-13.4,17c0,0.2,0,0.3,0,0.5c3.8,2.5,5.3,4.7,10.8,6c4.9,1.1,12.3-3.1,14.9,0
			c2.9,3.6-0.8,9.3-2.4,11.5c-4.3,6.2-10.8,11.4-17.8,14.9c-1.1,0.6-2.5,1.1-3.6,1.4c-1.3,0.4-2.8,0.1-3.8,0.7
			c-0.7,1.1,0.5,15.6,0.5,17.5c4.9,2.4,4.4,10.7,6.5,15.8c1.2,0.4,2.9,0.3,3.8,1c3.7,2.5,3.8,10.4,5.5,14.9c2.6,0.9,5.8,0.9,7.2,2.9
			c1.4,2,1.2,5,1.9,7.7c1.2,4.6,3.9,13.6,2.9,18.2c-2.6,1.7-7.9,1.2-12.2,1.2c-6.8,0-13.6,0-20.4,0c-3.8,0-8,0.3-11-0.5
			c-5.9-12.7-12.1-25.8-18.5-38.2c-1.7-3.3-3.2-6.5-4.8-9.6c-0.5-0.9-1-3.2-1.9-3.6c-5.1,0-10.2,0-15.4,0c0.2,2.1,1.2,3.6,1.7,5.5
			c1.3,0.5,2.8,0.8,3.8,1.7c1.7,1.5,3.5,11.2,4.6,14.2c7.1,2.9,6.7,12.8,8.6,20.6c0.9,3.6,0.8,8.3-2.2,9.4c-1.9,1.4-5.6,0.1-8.4,0.7
			c-2.5,0.5-6.2,0.2-9.1,0.2c-6.6,0-13.6,0-19.2-0.7c-0.6-0.8-1.7-1.4-2.2-2.4c-1.8-4.1-0.9-10-1.9-14.9c0-1,0-2.1,0-3.1
			c-0.7-3.3-0.2-7-1-10.6c-0.6-2.8-0.1-6.4-0.7-9.4c-0.3-3.8-0.6-7.5-1-11.3c-7.6,0-15.2,0-22.8,0c-0.3,3.8-0.6,7.7-1,11.5
			c-0.7,3-0.1,6.5-0.7,9.4c-1,4.6-0.2,9.3-1.2,13.7c0,1.4,0,2.7,0,4.1c-0.9,4.2-0.3,9.1-2.4,12c-1.6,2.1-6.7,1.9-10.3,1.9
			c-9.4,0-20.4,0.9-28.3-1c-0.6-0.8-1.6-1.4-1.9-2.4c-1.2-3.2,1.6-13.9,2.4-16.8c0.8-2.8,0.7-5.8,2.2-7.9c1-1.5,3.1-1.8,4.3-3.1
			c1.8-2.6,2.1-9.2,3.6-12.5c1-2.1,4.1-2.1,4.8-3.6c0.9-1.1,1.5-3.3,1.7-5c-5.1,0-10.2,0-15.4,0c-4,7.4-8,15.1-11.5,23
			c-1.7,3.9-4.3,7.8-6,11.8c-2.7,6.1-4.2,12.5-8.6,16.8c-8.6,0-18.1,0.2-27.6,0.2c-4.7,0-10.5,0.4-14.4-0.5c-0.4-0.6-1-1.2-1.2-1.9
			c-0.5-1.9,0.6-4.2,1-5.5c1.2-4.3,1.5-8.6,2.6-12.7c0.6-2.3,0.5-4.8,1.7-6.5c1.7-2.3,5.8-1.7,7.2-3.1c2.1-3.1,1.6-9.2,3.6-12.5
			c0.5-0.9,1.9-2.3,2.9-2.6c1.1-0.4,2.2,0,2.9-0.7c1.9-2.5,1.7-8.2,2.9-11.5c1.3-3.5,3.6-2.3,3.6-7.2c0.4-0.7,0.7-10.7,0.7-14.7
			c-8.8-3.9-18.3-7.2-23.8-14.4c-2.9-3.8-6-6.8-4.3-13.2c1.2-0.8,2.2-1.7,3.8-2.2c4,0.1,8,0.2,12,0.2c3.4-0.8,5.2-1.7,7.2-3.6
			c0.8-0.8,1.7-0.9,2.2-2.2c-1.8-0.8-3.1-2.1-4.6-3.1c-4.2-3-10.3-6.2-8.4-13.7c1.1-0.6,2.1-1.3,3.6-1.7c3-0.7,5.8,1.2,9.1,0.5
			c4.6-1,9.1-1,13.2-2.4c7.1-2.3,12.6-6.5,18-10.6c1-1,2.1-2.1,3.1-3.1c2.1-1.6,4.7-3.7,6.2-5.8c0.7-1,1.3-2,2.2-2.9
			c-0.1-3.7-0.3-8,1.2-10.1c0.7-0.6,1.4-1.1,2.2-1.7c2-0.2,3.2,0,4.8,0.5c1.4,2.2,2.5,3.7,2.6,7.4c4.1,0,8.7-0.2,13.2-0.2
			c-0.1-2-0.6-4.1-1-6c-0.9-4.3,0.5-9.5,1.4-12.5c3.4-10.5,9.2-18,19-22.1c2.1-0.6,4.2-1.1,6.2-1.7c4.8-1.1,10.6,0.2,13.9,1.4
			c10.5,3.9,16.5,10.7,20.2,21.4c1.8,5.2,2.5,14,0.5,19.7C335.2,341.4,346.1,341.8,348,341.8L348,341.8z M236.6,320.6
			c2,0.6,5.8,0.5,8.4,0.5c2.9-0.1,15.5,0.7,17.6,1.2c3.2,0.7,5.6-0.3,6.5,2.6c0.5,0.6,0.5,1.7,0.5,2.9c-0.8,0.9-0.9,2-2.2,2.4
			c-1.1,1-6.7,0.9-8.9,0.5c-7.6-1.6-16.6-0.2-24.5-2.2c-1-1.5-1.7-2-1.7-4.8c0.6-0.6,0.8-1.7,1.4-2.2
			C234.2,321.1,236.3,320.9,236.6,320.6L236.6,320.6z M369.4,320.6c2.9,0.1,7.1,3,4.8,6c-1.2,3.6-5.4,2.3-9.4,3.1
			c-3.2,0.7-6.7,0.2-10.1,1c-2.5,0.5-11.3,1.9-13.2,1.4c-0.9-0.2-1.7-0.7-2.6-1c-0.5-0.7-1-1.4-1.4-2.2c0.1-7.4,5-4.7,10.8-6
			C352.9,321.9,367.8,321.6,369.4,320.6L369.4,320.6z M282,350.6c-8.5,0-16.7,0.5-24.7,0.5c-6.3,9.3-19.5,19.5-30.5,24.2
			c-3.1,1.4-6.7,2.2-10.1,3.1c-2.1,0.6-5.2,0.2-6.7,1.4c0.2,0,0.3,0,0.5,0c1.9,1.7,8.1,1.7,11.8,1.7c8.5,0.1,17,0.2,25.4,0.2
			c25.6,0,51.2,0,76.8,0c8.6,0,15.3,0,23.8,0c3.2,0,47,0.8,48.3-1.4c-0.4,0-0.8,0-1.2,0c-2.7-0.7-5.4-1.4-8.2-2.2
			c-5.4-2.3-10.8-5.1-15.6-8.2c-3.5-2.2-6.4-5.3-9.6-7.7c-1.9-1.4-4.1-3.2-5.5-5c-0.9-1.2-4.5-6-5.5-6.5c-5.4,0-10.7,0-16.1,0
			c-0.7,0.8-9,0.2-11.3,0.2c-10.9,0.2-21.4-0.3-31.8-0.5C291.8,350.4,284,350.6,282,350.6z M388.3,390.5c-1.2,0.7-31,0.4-40.6,0.4
			c-8.8-0.1-17.6-0.2-26.4-0.2c-3.8,0-18.4,0.2-21.6,0.2c-5.1,0.1-29.6,0.2-36.8,0.2c-3.5,0-16.6,0.3-18.2,0
			c-2.2,0-26.6-0.6-28.4,0.2c-1.4,0.9-5.1,6.2-5,6.2c2.5,1.2,28.3,1.1,32.1,0.3c7.4,0.1,14.7,0.2,22.1,0.2c43.1,0,87,0,131,0
			c0-0.2,0-0.3,0-0.5C394,395.5,392.9,390.4,388.3,390.5L388.3,390.5z M197,406.6c0,0.3,0,0.6,0,1c4,2.3,7.9,5.3,12.7,6.7
			c4.2,1.2,10.4,0.5,15.4,0.5c10,0,20,0,30,0c32.1-1.1,65-1.2,97.9-1.2c10.4,0,21.2-0.2,31.2-0.2c5.4-0.1,10.9-0.2,16.3-0.2
			c4.4-1.2,7.4-4.3,11-6.2c0-0.1,0-0.2,0-0.2c-0.5,0-1,0-1.4,0c-1,0.6-3.1-0.1-4.6,0.2c-2.5,0.5-6.2,0.2-9.1,0.2
			c-12.2,0.1-64,0-66.2,0c-5.4,0-10.9,0-16.3,0c-2.7,0-34.3-0.2-41.8-0.2c-15.5,0-30.8,0.6-45.8-0.2
			C216.6,406,206.1,406.9,197,406.6L197,406.6z M341.5,441.6c0.9,0.1,14.6,0,15.2,0c0.3-3.3-0.2-8.1,0-10.8c-0.5-9-15.2-10.8-15.2-1
			C341.5,429.8,341.7,435.2,341.5,441.6z M266.4,441.9c-0.2-6.3-0.1-5.5-0.3-11.9c0.1-8.3-14.8-10-14.8,0c0,0.1,0.2,7.8,0.4,11.9
			C251.6,441.9,265.6,441.9,266.4,441.9z M292,442c1.4,0.5,21.9-0.2,23.9-0.4c0-6.2-0.1-3.1-0.1-9.6c0.1-13.1-24-14.2-24,0
			C291.8,432,292,435.4,292,442z"/>
	</g>
</g>
</svg>
