<?xml version="1.0" encoding="utf-8"?>
<!-- Generator: Adobe Illustrator 24.1.2, SVG Export Plug-In . SVG Version: 6.00 Build 0)  -->
<svg version="1.1" id="Layer_1" xmlns="http://www.w3.org/2000/svg" xmlns:xlink="http://www.w3.org/1999/xlink" x="0px" y="0px"
	 viewBox="0 0 612 792" style="enable-background:new 0 0 612 792;" xml:space="preserve">
<style type="text/css">
	.st0{fill-rule:evenodd;clip-rule:evenodd;fill:#E0EEEC;}
</style>
<path id="SVGID_1_" class="st0" d="M249.5,301.8c3.2,0.2,6.8,2.7,5,6.7c-1,2.4-3.4,3-3.6,6.5c2.5,3,4.7,6.2,5.8,10.6
	c1.2,5.3-2.5,13-5.3,14.2c-1.8,0.8-3.4,0.2-5-0.2c-0.5-0.8-1.3-1.1-1.7-2.2c-2.4-3.1,2.9-6.4,1.9-10.6c-0.7-3-3.6-4.7-4.8-7.4
	c-2.6-6.1,0.8-13.6,4.6-16.3C247.2,302.4,248.6,302.5,249.5,301.8L249.5,301.8z M334.7,302.1c3.7,0,5.7,2,5.5,6
	c-1.4,1.5-2.6,3.1-4.1,4.6c0,4.6,2.3,6,3.4,9.4c1.8,5.7-0.5,12.1-2.9,15.4c-0.6,0.8-1.7,1-2.4,1.7c-2.9,0.2-5.4-0.2-6.2-2.6
	c-2.4-3.2,3-6.7,1.9-11c-0.7-2.9-2.7-4.9-3.6-7.7c-2-6.3,1.7-12.1,5.3-14.4C332.5,302.7,333.8,302.7,334.7,302.1L334.7,302.1z
	 M290.8,302.6c4.3-0.1,4.6,1.1,6.5,3.1c0.2,3.9-1.5,5-3.8,7c0.1,4.6,2.9,6.3,4.3,9.6c2,4.7,0.3,11.1-1.9,14.4
	c-0.5,0.8-1.7,1.2-2.4,1.9c-4.8,0.4-4.6-0.6-7-3.1c0-3.8,2.8-6.3,1.9-9.4c-0.5-1.7-2-3.2-2.9-4.6c-2.4-3.8-3.2-10.5-0.5-14.4
	C286.5,305,288.9,304.3,290.8,302.6L290.8,302.6z M297.2,446.1c0.1,4.2-0.2,8.9-0.2,13.4c0,2.1,0,4.2,0,6.2
	c-0.6,1.9-2.7,3.3-4.8,3.8c-3.3,0.8-6.3-1.8-7-3.8c-0.6-1.7-0.2-4.2-0.2-6.2c0-4.3-0.3-9.3,0.2-13.2c-10.4-1.2-22.7-0.2-33.6-0.2
	c-4.5,0-9.3,0.6-13.2-0.2c-1.8-3.1-1-10-1-14.6c0.1-3.8,0.2-7.5,0.2-11.3c0-2.5-0.4-4.6,0-6.2c0.5-2.5-0.1-3.9,1.7-5
	c2.6-1.7,9.6-0.7,13.4-0.7c7,0,13.6,0,20.6,0c3.9,0,9.2,0.1,12-0.2c0-1,0-2.1,0-3.1c-0.5-2.2-0.3-5-0.2-6.7
	c-1.4-0.5-3.9-0.3-5.8-0.2c-2.6,0.3-4.3-0.4-6.2,0c-2,0.4-5,0.2-7.4,0.2c-6.3,0-18.1,1.1-21.6-1.7c-1.1-2.7-0.5-7.8-0.5-11.3
	c0-6.7-1.3-15.7,0-21.6c3.3-2.1,8.2-1.3,13-1.2c9.4,0,18.7,0,28.1,0c-0.1-4-0.2-13.2,1.4-15.6c0.9-1.3,2.3-1.7,4.1-2.2
	c1.1-0.3,2.7-0.2,3.8,0.2c2.8,1.2,3.1,3.6,3.1,7.7c0,1.1,0,2.2,0,3.4c-0.2,1.1-0.6,5.6-0.2,6.2c1.2,0.7,6.9,0.2,8.9,0.2
	c7.6-0.1,13.2-0.2,20.8-0.2c3.8,0,9.7-0.8,10.8,1.9c1.4,1.6,0.5,5.8,0.5,8.6c0,3.2,0.1,6.6-0.5,9.1c0,1.4,0,2.9,0,4.3
	c0,3.3,0,6.9-0.2,9.8c-3.4,2.5-8.3,2.2-14.2,2.2c-9.2,0-16.8-0.2-25.6-0.2c-0.4,1-0.3,2.9-0.2,4.3c-0.4,1.8,0.3,4.2,0.2,5.8
	c2.4,0.8,6.7,0.3,9.6,0.2c6.4,0.9,9.4,0.4,11.8,0c2.8,0,5.6,0,8.4,0c4.5,0,11.8-0.8,14.8,0.2c1.3,0.4,2,1.6,2.9,2.4
	c0,11.4-0.2,22.8-0.2,34.1c-0.5,0.4-1.2,1-1.7,1.4c-5.1,0.4-7.4,0-12.8,0C319.2,446.1,308.2,446.1,297.2,446.1L297.2,446.1z
	 M284.8,388c0-5.4,0-10.9,0-16.3c-6.2-0.1-12.5-0.2-18.7-0.2c-3.1-0.7-9.3-0.7-12,0.2c-0.4,5.1-0.1,10.8,0,16.1
	c0.2,0.1,0.5,0.2,0.7,0.2c1.8,1.1,6,0,8.2,0C270.2,388,277.5,388,284.8,388L284.8,388z M296.8,371.4c0,5.5,0,11.5,0.2,16.6
	c6.1,0,27.2,0.5,28.3-0.3c0.1,0,2.2,0,2.2,0c0.6-5.1,1-11.3,0-16.1c-0.6-0.2-1.7-0.3-2.6-0.2c-1.4-0.9-7.5-0.2-9.4-0.2
	C309.2,371.3,303,371.4,296.8,371.4L296.8,371.4z M285.2,437.9c0.1-4.9,0.2-9.8,0.2-14.6c-0.1-1.7-0.2-3.4-0.2-5
	c-1.6-1-7.7-0.5-10.3-0.5c-7.8,0-18.9-0.2-26.7,0c-0.1,0.2-0.2,0.5-0.2,0.7c-0.7,1-0.2,4-0.2,5.5c0,4.4-1.1,9.7,0.2,13.2
	c0.4,0.1,0.6,0.2,1.2,0.2c1.3,0.8,9.6,0.2,11.6,0.2C268.9,437.8,277.1,437.8,285.2,437.9L285.2,437.9z M297.5,417.8
	c0,6.7,0,13.4,0,20.2c10.6,0,26.7-0.2,37.4-0.5c0.2-0.2,0.3-0.5,0.5-0.7c1-1.4,0.5-3.6,0.5-5.5c-0.2-4.3-0.3-8.6-0.5-13
	c-0.2-0.1-0.5-0.2-0.7-0.2c-1.8-1.2-10.7-0.5-13.4-0.5C313.3,417.5,305.1,417.7,297.5,417.8L297.5,417.8z"/>
</svg>
