<?xml version="1.0" encoding="utf-8"?>
<!-- Generator: Adobe Illustrator 24.1.2, SVG Export Plug-In . SVG Version: 6.00 Build 0)  -->
<svg version="1.1" id="Layer_1" xmlns="http://www.w3.org/2000/svg" xmlns:xlink="http://www.w3.org/1999/xlink" x="0px" y="0px"
	 viewBox="0 0 612 792" style="enable-background:new 0 0 612 792;" xml:space="preserve">
<g>
	<g>
		<defs>
			<path id="SVGID_1_" d="M248.9,301.4c3.2,0.2,6.8,2.7,5,6.7c-1,2.4-3.4,3-3.6,6.5c2.5,3,4.7,6.2,5.8,10.6c1.2,5.3-2.5,13-5.3,14.2
				c-1.8,0.8-3.4,0.2-5-0.2c-0.5-0.8-1.3-1.1-1.7-2.2c-2.4-3.1,2.9-6.4,1.9-10.6c-0.7-3-3.6-4.7-4.8-7.4c-2.6-6.1,0.8-13.6,4.6-16.3
				C246.6,302,248,302.1,248.9,301.4L248.9,301.4z M334.1,301.7c3.7,0,5.7,2,5.5,6c-1.4,1.5-2.6,3.1-4.1,4.6c0,4.6,2.3,6,3.4,9.4
				c1.8,5.7-0.5,12.1-2.9,15.4c-0.6,0.8-1.7,1-2.4,1.7c-2.9,0.2-5.4-0.2-6.2-2.6c-2.4-3.2,3-6.7,1.9-11c-0.7-2.9-2.7-4.9-3.6-7.7
				c-2-6.3,1.7-12.1,5.3-14.4C331.9,302.3,333.2,302.3,334.1,301.7L334.1,301.7z M290.2,302.2c4.3-0.1,4.6,1.1,6.5,3.1
				c0.2,3.9-1.5,5-3.8,7c0.1,4.6,2.9,6.3,4.3,9.6c2,4.7,0.3,11.1-1.9,14.4c-0.5,0.8-1.7,1.2-2.4,1.9c-4.8,0.4-4.6-0.6-7-3.1
				c0-3.8,2.8-6.3,1.9-9.4c-0.5-1.7-2-3.2-2.9-4.6c-2.4-3.8-3.2-10.5-0.5-14.4C285.9,304.6,288.3,303.9,290.2,302.2L290.2,302.2z
				 M296.6,445.7c0.1,4.2-0.2,8.9-0.2,13.4c0,2.1,0,4.2,0,6.2c-0.6,1.9-2.7,3.3-4.8,3.8c-3.3,0.8-6.3-1.8-7-3.8
				c-0.6-1.7-0.2-4.2-0.2-6.2c0-4.3-0.3-9.3,0.2-13.2c-10.4-1.2-22.7-0.2-33.6-0.2c-4.5,0-9.3,0.6-13.2-0.2c-1.8-3.1-1-10-1-14.6
				c0.1-3.8,0.2-7.5,0.2-11.3c0-2.5-0.4-4.6,0-6.2c0.5-2.5-0.1-3.9,1.7-5c2.6-1.7,9.6-0.7,13.4-0.7c7,0,13.6,0,20.6,0
				c3.9,0,9.2,0.1,12-0.2c0-1,0-2.1,0-3.1c-0.8-1.2-0.3-5-0.2-6.7c-1.4-0.5-3.9-0.3-5.8-0.2c-1.7,1-4.3-0.4-6.2,0
				c-2,0.4-5,0.2-7.4,0.2c-6.3,0-18.1,1.1-21.6-1.7c-1.1-2.7-0.5-7.8-0.5-11.3c0-6.7-1.3-15.7,0-21.6c3.3-2.1,8.2-1.3,13-1.2
				c9.4,0,18.7,0,28.1,0c-0.1-4-0.2-13.2,1.4-15.6c0.9-1.3,2.3-1.7,4.1-2.2c1.1-0.3,2.7-0.2,3.8,0.2c2.8,1.2,3.1,3.6,3.1,7.7
				c0,1.1,0,2.2,0,3.4c-0.2,1.1-0.6,5.6-0.2,6.2c1.2,0.7,6.9,0.2,8.9,0.2c7.6-0.1,15.2-0.2,22.8-0.2c3.8,0,9.7-0.8,10.8,1.9
				c1.4,1.6,0.5,5.8,0.5,8.6c0,3.2,0.1,6.6-0.5,9.1c0,1.4,0,2.9,0,4.3c0,3.3,0,6.9-0.2,9.8c-3.4,2.5-8.3,2.2-14.2,2.2
				c-9.2,0-18.8-0.2-27.6-0.2c-0.4,1-0.3,2.9-0.2,4.3c0.7,1,0.3,4.2,0.2,5.8c2.4,0.8,6.7,0.3,9.6,0.2c1.3,0.8,10.2,0.3,11.8,0
				c2.8,0,5.6,0,8.4,0c4.5,0,14.8-0.8,17.8,0.2c1.3,0.4,2,1.6,2.9,2.4c0,11.4-0.2,22.8-0.2,34.1c-0.5,0.4-1.2,1-1.7,1.4
				c-5.1,0.4-10.4,0-15.8,0C318.6,445.7,307.6,445.7,296.6,445.7L296.6,445.7z M284.2,387.6c0-5.4,0-10.9,0-16.3
				c-6.2-0.1-12.5-0.2-18.7-0.2c-3.1-0.7-9.3-0.7-12,0.2c-0.4,5.1-0.1,10.8,0,16.1c0.2,0.1,0.5,0.2,0.7,0.2c1.8,1.1,6,0,8.2,0
				C269.6,387.6,276.9,387.6,284.2,387.6L284.2,387.6z M296.2,371c0,5.5,0,11.5,0.2,16.6c6.1,0,15.3-0.9,20.6,0.2
				c1.9,0.4,6.6,0.3,7.7-0.5c0.1,0,0.2,0,0.2,0c0.6-5.1,1-11.3,0-16.1c-0.6-0.2-1.7-0.3-2.6-0.2c-1.4-0.9-5.5-0.2-7.4-0.2
				C308.6,370.9,302.4,371,296.2,371L296.2,371z M284.6,437.5c0.1-4.9,0.2-9.8,0.2-14.6c-0.1-1.7-0.2-3.4-0.2-5
				c-1.6-1-7.7-0.5-10.3-0.5c-7.8,0-16.9-0.2-24.7,0c-0.1,0.2-0.2,0.5-0.2,0.7c-0.7,1-0.2,4-0.2,5.5c0,4.4-1.1,9.7,0.2,13.2
				c0.4,0.1,0.6,0.2,1.2,0.2c1.3,0.8,7.6,0.2,9.6,0.2C268.3,437.4,276.5,437.4,284.6,437.5L284.6,437.5z M296.9,417.4
				c0,6.7,0,13.4,0,20.2c10.6,0,22.7-0.2,33.4-0.5c0.2-0.2,0.3-0.5,0.5-0.7c1-1.4,0.5-3.6,0.5-5.5c-0.2-4.3-0.3-8.6-0.5-13
				c-0.2-0.1-0.5-0.2-0.7-0.2c-1.8-1.2-6.7-0.5-9.4-0.5C312.7,417.1,304.5,417.3,296.9,417.4L296.9,417.4z"/>
		</defs>
		<use xlink:href="#SVGID_1_"  style="overflow:visible;fill-rule:evenodd;clip-rule:evenodd;fill:#E0EEEC;"/>
		<clipPath id="SVGID_2_">
			<use xlink:href="#SVGID_1_"  style="overflow:visible;"/>
		</clipPath>
	</g>
</g>
</svg>
