<svg height='100px' width='100px'  fill="#ff2d21" xmlns="http://www.w3.org/2000/svg" viewBox="0 0 64 64" x="0px" y="0px"><g><path d="M44,21V14h1a1,1,0,0,0,.948-.684l2-6A1.776,1.776,0,0,0,48,7V3a1,1,0,0,0-1-1H23a1,1,0,0,0-1,1V7a1.776,1.776,0,0,0,.052.316l2,6A1,1,0,0,0,25,14h1v7a6.973,6.973,0,0,0,2.111,5H13a3,3,0,0,0,0,6h3v8h8V56h4v5a1,1,0,0,0,1,1h4a1,1,0,0,0,1-1V56h2v5a1,1,0,0,0,1,1h4a1,1,0,0,0,1-1V56h4V26H41.889A6.973,6.973,0,0,0,44,21Zm.279-9H39V8h6.613ZM33,8h4V20H33ZM24,4H46V6H24Zm1.721,8L24.387,8H31v4H25.721ZM32,40h6v6H32Zm2-2H32V28h2ZM30,28v2H27a1,1,0,0,1,0-2ZM13,30a1,1,0,0,1,0-2h3v2Zm5,8V28h2V38Zm4,0V28h2V38ZM32,60H30V56h2Zm8,0H38V56h2Zm4-6H26V52H44Zm0-4H26V31.816A2.966,2.966,0,0,0,27,32h3V48H40V39.92a6.978,6.978,0,0,0,4-2.031Zm0-22v5a5.006,5.006,0,0,1-5,5H36V28ZM33,26a5.006,5.006,0,0,1-5-5V14h3v7a1,1,0,0,0,1,1h6a1,1,0,0,0,1-1V14h3v7a5.006,5.006,0,0,1-5,5Z"></path><rect x="52" y="43" width="2" height="8"></rect><rect x="48" y="47" width="2" height="8"></rect><rect x="16" y="42" width="2" height="8"></rect><rect x="20" y="46" width="2" height="8"></rect></g></svg>