<?xml version="1.0" encoding="utf-8"?>
<!-- Generator: Adobe Illustrator 24.1.2, SVG Export Plug-In . SVG Version: 6.00 Build 0)  -->
<svg version="1.1" id="Layer_1" xmlns="http://www.w3.org/2000/svg" xmlns:xlink="http://www.w3.org/1999/xlink" x="0px" y="0px"
	 viewBox="0 0 612 792" style="enable-background:new 0 0 612 792;" xml:space="preserve">
<style type="text/css">
	.st0{fill-rule:evenodd;clip-rule:evenodd;fill:#43A2D3;}
</style>
<path id="SVGID_1_" class="st0" d="M370.8,421.2c1.3,0,2.6-0.1,3.4,0.5c1.1,0.3,1.2,1,1.9,1.7c0.2,2.5,1,8.3-1,9.4
	c-1.7,1.5-6.5,1-9.6,1c-8.4,0-16.8,0-25.2,0c-2,0-4,0-6,0c-0.8-0.2-2.1-1.1-2.9-1c-0.5,0.1-1.7,0.8-2.4,1
	c-9.4,0.1-18.7,0.2-28.1,0.2c-3.8,0-7.7,0-11.5,0c-0.9-0.2-2.9-1.3-3.6-1.2c-0.2,0.2-0.5,0.5-0.7,0.7c-0.6,0.2-1.7,0.4-2.2,0.5
	c-9,0-17.9,0-26.9,0c-4.2,0-9.9,0.5-13-0.7c-1.3-2.8-0.8-6.9-0.5-10.3c0.2-1.7,1.1-1.2,2.2-1.4c1.2-0.4,2.3,0.5,2.9-0.5
	c-1.7-1.9-0.5-8,0-10.1c6.5-1.6,16.4-0.1,23-1.4c0.7-0.7,0.6-1.3-0.2-1.9c-4.9-3-15.5-6.9-10.1-14.9c0.6-0.9,1.3-2,2.2-2.6
	c2.4-1.7,6-2.7,9.1-3.6c1.5-0.4,3.6,0,4.3-1.2c-1.7-0.4-2.8-1.6-4.1-2.4c-2.8-1.9-7.5-3.6-6-8.9c0.3-1,0.2-1.7,0.7-2.4
	c4-5.6,12.9-8.1,20.6-9.8c0-0.1,0-0.2,0-0.2c-4.1-2-4.3-2.8-9.3-5.4c-0.9-0.6-0.6-2.2-3-1.8c-4.1,0-7.6-2-8.9-2.9
	c-8.8-7.3-8.3-20.8-1.3-27.8c2.2-2.2,5.6-4,9.1-4.9c8.4-2.1,16.3,2.7,20,10.2c1.8,3.9,1,4.7,1.2,7.2c4.1-0.5,9.2-5.6,9.4-10.1
	c-4.6-3.1-0.4-14.3,6-12.5c4.5,0.4,7.3,4.7,6,9.5c-0.5,1.9-0.4,0.7-1.6,3c1.1,2.8,2.5,7.6,5,9.5c2.2,1.6,5.5,1.5,8.2,2.6
	c5.6,2.3,15.5,8.4,10.8,17c-0.6,1-1.7,1.9-2.6,2.6c-1.7,1.4-3.7,2.6-5.8,3.6c0,0.2,0,0.3,0,0.5c0.2,0,0.3,0,0.5,0
	c1.7,1.1,4.2,1,6.2,1.7c5,1.6,11.2,3.7,13.7,7.9c1.1,1.9,1.7,4.8,0.2,7c-0.8,1.2-2,2-3.1,2.9c-1.6,1.3-5.2,3.7-4.8,3.8
	c1.4,1.3,3.8,1.2,5.8,1.9c5,1.9,14.7,6.6,9.6,13.7c-1.4,2-4.5,3.7-6.7,4.8c-1.7,0.9-3.9,0.8-4.6,2.6c-0.1,0.2-0.2,0.1,0,0.2
	c0.2,0.7,0.1,0.7,0.7,1c1.6,1,4.9,0.3,7.2,0.5c4.5,0.4,11.5-0.3,15.7,0.5c0.4,0.5,0.2,1.2,0.6,1.6
	C371.3,415.1,371.1,418.3,370.8,421.2L370.8,421.2z M308.6,339.2c-2.8,0-9.5,0.9-11.3,1.4c-5.5,1.4-15.1,3.6-15.3,9.9
	c0.8,1.9,1.6,3.9,4.1,4.3c4.9-7.3,25.7-9.6,36-5.3c1.6,0.7,3.6,1.6,5,2.6c1.6,1.2,1.1,1.7,3.7,3c2.5-2.4,3.6-2.7,3.6-6.7
	c-1.4-2.8-3.1-3-5.2-4.3C322.4,340,308.6,339.2,308.6,339.2z M236.4,354.3c6.2,0,12.5,0,18.7,0c3.4,0,7.3-0.2,9.4,1.2
	c3.3,2.2,4,9.9,0.5,12.5c-2,1.5-5.8,1.3-9.4,1.2c-0.6,3-1.6,6.2-4.1,7.4c-1.9,1-5.7,0.5-8.4,0.5c-6.6,0-20,1.2-24-1.4
	c-3.7-2.5-2.9-10.2,0.5-12.5c1.9-1.3,5.7-1,8.9-1c0-0.2,0-0.3,0-0.5c0.7-1.2,0.5-3,1.2-4.1c0.9-1.4,3.1-2.6,4.8-3.1
	C235.2,354.3,235.9,354.6,236.4,354.3L236.4,354.3z M304.1,364.1c-3.7,0.3-7.4,0.6-11,1c-8.8,2.1-17.2,3-22.8,8.4
	c0,1.2,0,2.4,0.5,3.1c0.5,0.8,4.8,4.4,6,4.1c0.9-0.2,1.9-1.5,2.6-1.9c2.6-1.6,6.1-2.7,8.9-3.8c4.8-2.5,20.4-3.4,33.3-1.9
	c4.5,1.1,9.2,2.1,13,4.1c2.1,1.1,4.6,2.3,7.4,2.6c3.1-1.8,3.2-1.8,4.2-6c0-3.2-1.9-3.3-4.2-4.3C331.9,364.9,318.4,364.1,304.1,364.1
	L304.1,364.1z M297.4,386.6c-4.6,0.1-4.6,0.1-8.6,0.7c-9.6,1.3-24.5,3.4-25.7,7.4c0,0.6,0,1.3,0,1.9c2.1,2.1,4.3,5.1,8.2,5.3
	c2.9-3.7,8.3-4.5,13.6-5.9c13.7-2.9,35.4-3.1,48.6,0.8c2.3,0.7,4.9,1.2,7.2,2.2c2.1,0.9,3.8,2.8,6.5,3.1c3.1-1.7,6.7-1.7,6.9-6.1
	c0-1.3-3-3.2-4-3.7c-2.2-1.2-3.7-1.4-6.1-2.2C330.6,385.9,314.6,386.7,297.4,386.6L297.4,386.6z M300.4,416.2c5.3,0,10.5,0,15.7,0
	c0.3-7.3-1-15.9-6.4-15.8c-2.5-0.4-4.8,1-5.8,1.9C300.1,404.7,300.1,409.8,300.4,416.2L300.4,416.2z M289.4,430.5
	c11.6,1.3,25.2-0.1,37.4-0.1c-0.1-1.1-5-9.5-5.6-9.8c-2.4,0-25.6,0-27.3,0c-0.6,0.4-4,7.4-4.1,8.7L289.4,430.5z M307.3,382.8"/>
</svg>
