<?xml version="1.0" encoding="utf-8"?>
<!-- Generator: Adobe Illustrator 24.1.2, SVG Export Plug-In . SVG Version: 6.00 Build 0)  -->
<svg version="1.1" id="Layer_1" xmlns="http://www.w3.org/2000/svg" xmlns:xlink="http://www.w3.org/1999/xlink" x="0px" y="0px"
	 viewBox="0 0 612 792" style="enable-background:new 0 0 612 792;" xml:space="preserve">
<g>
	<g>
		<defs>
			<path id="SVGID_1_" d="M349.4,255.4c6,0.1,12,0.2,18,0.2c3.9,0,8.5-0.4,11.8,0.5c6.2,1.7,10.1,4.2,14.4,7.4
				c4.5,3.4,8,10.8,9.6,17.3c0.4,6.1,0.8,12.2,1.2,18.2c0.1,4.1,0.2,8.2,0.2,12.2c1,4.7-0.4,10.7,0.7,15.6c0.6,2.8,0.3,6.3,1,9.4
				c1.2,5.6,1.8,18.7,0.5,24.7c-0.5,2.4,0,5.2-0.5,7.4c0,1.7,0,3.4,0,5c-0.8,3.7-0.4,8.2-1.2,11.8c-0.1,2.5-0.2,5-0.2,7.4
				c-1.7,7.6-0.1,16.5-1.7,24c-0.2,4-0.3,8-0.5,12c-1.8,8.4-0.1,18.5-1.9,26.9c-0.6,2.8,0.1,5.7-0.5,8.2c0,1.8,0,3.5,0,5.3
				c0,6.8,0.9,15.4-1.9,19.4c-1.3,1.8-4,3.5-6.2,4.3c-5.1,1.8-19.3,1.1-22.8-1.2c-4.8-3.2-4.6-9.2-5-16.8c-4.2,0-8.8,0-13,0
				c0,11.5,1,16.2-4.3,23.3c-1.5,2-4.4,4.1-6.7,5.3c-0.9,0.5-3.4,0.8-3.8,1.7c0,1,0,1.9,0,2.9c-1.1,1.9,0.1,7-0.5,9.6
				c-1.3,5.6-2.7,10-6.7,12.7c-8.5,5.6-21.5,2-25-6.2c-2.1-4.9-1.3-11.7-1.2-18.2c-0.2,0-0.3,0-0.5,0c-2-1.3-5.2-1.5-7.2-2.9
				c-8.9-5.8-8.3-13.7-8.2-27.6c-0.2,0-0.3,0-0.5,0c-0.8-0.5-2.9-0.2-4.1-0.2c-3.3,0.1-6.6,0.2-9.8,0.2c0.1,9.1-0.9,14.4-7.2,17
				c-2.3,1-5.9,0.7-9.1,0.7c-7.7,0-14.2,0-17.3-4.6c-2.1-3.2-1.7-8.8-1.7-14.2c0-1.4,0-2.9,0-4.3c-0.5-2.3,0.3-5.8-0.2-8.4
				c-0.6-2.9,0.2-6.4-0.5-9.6c-1.7-7.7-0.2-16.9-1.9-24.7c-0.1-3-0.2-5.9-0.2-8.9c-1.4-6.3-0.1-13.6-1.4-19.9
				c-0.1-3.4-0.2-6.9-0.2-10.3c-1-4.8-0.4-10.3-1.4-15.1c0-1.8,0-3.7,0-5.5c-0.6-2.7,0.1-5.9-0.5-8.9c-0.4-1.9-0.2-4.9-0.2-7.2
				c0-6.7,0.2-13,1.4-18.5c0-1.2,0-2.4,0-3.6c0.3-1.2,0.4-3.3,0.7-4.6c0-2.1,0-4.2,0-6.2c0.6-3.9,0.1-8.5,1-12.2
				c0.1-3.7,0.2-7.4,0.2-11c0.4-4.9,0.8-9.8,1.2-14.6c1.4-6,5.5-14.2,9.6-17.3c4.3-3.3,8.7-5.6,14.9-7.2c2.5-0.6,5.8-0.2,8.6-0.2
				c5.6,0,11.2,0,16.8,0c0.1-0.1,0.2-0.2,0.2-0.2c0-5.7,1.2-13.3,4.6-15.8c6.4-4.8,20.6-3.4,31.7-3.4c7.7,0,19.5-0.6,24,2.6
				C349.7,241.8,349.5,248.6,349.4,255.4L349.4,255.4z M298.1,255.8c13.2,0,26.3-0.5,38.9-0.5c0-2,0-4,0-6
				c-7.9-0.6-16.5-0.7-25.2-0.7c-4.3,0-9.5-0.5-13,0.7C298.6,251.5,298.3,253.7,298.1,255.8L298.1,255.8z M248.2,286.1
				c6.3,0,12.9,0.5,19.7,0.5c5,0,10.5-0.5,14.9,0.5c11.4,0,22.7,0,34.1,0c24.9,0,48.7-0.2,73.4-0.2c0.2-0.5,0.2-1.3,0.2-2.2
				c-0.8-1.2-0.2-3.3-0.7-4.8c-1.7-5.1-5.3-9.2-10.1-11.3c-3.7-1.6-8.8-1.4-14.2-1.4c-7.7,0-15.4,0-23,0c-6.5,0-13,0-19.4,0
				c-6-0.7-14.3,0-22.6,0c-4.5,0-10.2-0.7-14.2,0.2c-7.1-0.1-14.2-0.2-21.4-0.2C254.7,269.4,248.6,274,248.2,286.1L248.2,286.1z
				 M247,297.1c0,7.1-0.1,16.2-1.4,22.6c-0.2,3.8-0.3,7.5-0.5,11.3c-0.5,2.4,0.1,5.4-0.5,8.2c-0.3,3.3-0.6,6.6-1,9.8
				c0.1,0.1,0.2,0.2,0.2,0.2c12.8,1.4,27.2,0.5,40.8,0.5c0.5-1.6,0.2-4.3,0.2-6.2c0-4.7,0-9.4,0-14.2c1.1-1.7-0.2-5.5,0.2-7.7
				c0.5-2.4,0.2-6,0.2-8.9c0-5.5,0.1-10.4,0-14.9c-0.2,0-0.3,0-0.5,0c-1.3-0.8-8.6-0.5-10.8-0.5C265.1,297.4,255.6,297.1,247,297.1
				L247,297.1z M351.8,297.6c0,16.9,0,35,0,51.8c3,1,9.4,0.2,13,0.2c9.4,0,18.9,0,28.3,0c0.3-0.2,0.6-0.2,1.2-0.2
				c-1.2-17.3-2.4-34.6-3.6-51.8c-0.2,0-0.3,0-0.5,0c-1.3-0.8-8.4-0.2-10.6-0.2C370.4,297.4,360.7,297.5,351.8,297.6L351.8,297.6z
				 M296.2,299c0,4.4,0.4,9.1-0.5,13c-0.6,2.6,0.2,5.9-0.2,8.2c0,3.4,0,6.9,0,10.3c0,7.2,0,12.1,0,19.2c15.4,0,30.7,0,46.1,0
				c0.1-0.1,0.2-0.2,0.2-0.2c1.1-16.2,0-34.1,0-50.4C326.7,299,312,299,296.2,299L296.2,299z M246.5,362.2c-0.1,5.4-0.1,11,1,15.8
				c0,1.5,0,3,0,4.6c0.9,3.9,0.8,8.2,1.7,12c0.1,2.2,0.2,4.3,0.2,6.5c0.7,7.8,1.4,15.5,2.2,23.3c0.1,2.4,0.2,4.8,0.2,7.2
				c1.5,6.8,0.4,14.6,2.4,20.9c1.3,4,3.2,6.5,5.8,9.1c4.8,0,10.4-0.1,15.1-0.5c4.9-0.4,9,0.5,12.5-1.2c0.7-6.3,0.6-13.6,1.9-19.4
				c0.6-2.6,0.2-5.5,0.7-7.9c0-1.4,0-2.7,0-4.1c0.5-2.4,0.5-5.6,1-7.9c0-1.3,0-2.6,0-3.8c0.5-2.2-0.3-5.4,0.2-7.9
				c0.9-4,1-8.8,0.2-12.2c-5.1-3.1-12.3-4.8-18-7.2c-1.6-0.7-3.4-0.8-4.8-1.7c-1.1-0.7-1.5-2.2-2.4-3.1c0-1.6,0.1-3.1,0.2-4.3
				c1.2-1,1.9-2.4,3.6-2.9c3.3-0.9,6.4,1.3,8.4,2.2c2.7,1.1,5.2,1.5,7.9,2.6c2.3,1,4.9,2.2,7.9,2.4c1.9-8.5,11.3-15.4,19.7-17.5
				c3.1-0.8,9.9-0.4,12.5,0.5c1.9,0.6,4.1,2,5.8,3.1c3,2.1,6,5.8,7.9,8.9c1.2,1.9,1.9,5,4.3,5.5c1.3,0.7,5.2-1.8,6.5-2.4
				c2.9-1,5.8-1.9,8.6-2.9c1.8-0.7,3.9-2.1,5.8-2.6c1.6-0.5,3,0.5,4.1,0.7c1.4,2.2,2.7,5,0.7,7.9c-1.4,2.1-5,2.6-7.7,3.6
				c-5.6,2.1-11.8,3.7-17.3,6c-2.3,4.6-1.5,13.6-0.2,19.2c0.9,4.2,0,8.1,1,12.2c0.9,4.1,0.5,9.3,1.4,13.7c0,1.2,0,2.4,0,3.6
				c0.5,5.1,1,10.2,1.4,15.4c3.2,1.8,9.7,2.1,14.4,2.2c2.6,0,5.8-0.2,7.9,0.2c3.5,0.8,6.6-0.6,7.9-2.2c1.7-2,2.9-5.1,3.6-7.9
				c1.1-4.3-0.5-10.1,0.5-14.4c0-1.3,0-2.6,0-3.8c1-4.5,0.4-10.1,1.4-14.6c0.1-2.3,0.2-4.6,0.2-7c1-4.5,0.2-9.7,1.2-14.4
				c0.9-4,0-8.7,1-13c1.5-7,1.3-14.7,2.2-22.1C342.4,362.4,294.2,362.2,246.5,362.2L246.5,362.2z M317.3,377.3c-1,0.6-2.5,0.5-3.6,1
				c-3.7,1.5-7.1,3.8-8.6,7.4c-3.3,7.9,0.7,16,5.5,19c1.2,0.7,2.3,0.8,3.8,1.2c1.6,0.5,4.7,1.3,7.2,0.7c6.2-1.5,13.4-8.2,11.5-16.8
				c-0.3-1.4,0-2.3-0.5-3.4C330.4,381.2,324.5,377.4,317.3,377.3L317.3,377.3z M301.7,412.1c-0.5,5.4-1,10.7-1.4,16.1
				c0,2.2,0,4.5,0,6.7c-1.2,5.3-0.3,11.6-1.4,16.8c0,1.2,0,2.4,0,3.6c-1.3,6.1-0.6,13.2-1.9,19.2c-0.1,2.3-0.2,4.6-0.2,7
				c0,7.2,0.5,11.9,6,13.4c0.6-5.4-1.4-12.4,0-18c1.4-5.4,4.9-9.2,9.1-11.8c2.1-1.3,6.6-1.9,9.8-1.2c3,0.7,5.3,0.7,7.4,2.2
				c7,4.6,7.3,15.3,7.2,27.1c0.1,0,0.2,0,0.2,0c1.4-1.5,3.1-2.7,3.8-4.8c0.8-2.6,0-6.6-0.5-8.9c-0.2-3.8-0.5-7.5-0.7-11.3
				c-1.7-18.6-3.4-37.3-5-55.9c-0.1,0-0.2,0-0.2,0c-3.9,5.1-16.4,6.7-24.5,4.1C306.4,415.4,304.2,413.4,301.7,412.1L301.7,412.1z
				 M250.1,473c-0.7,2-0.3,5.7-0.2,8.2c0.2,0,0.3,0,0.5,0c1.3,0.9,9.7,0.1,10.6,0c0-1.7,0-3.4,0-5c-0.4-0.6-0.3-1.9-0.2-2.9
				c-0.5-0.2-1.1-0.2-1.9-0.2C257.4,473.9,251.8,473.1,250.1,473L250.1,473z M377.5,481.2c3.3,0,6.6,0,9.8,0c0-2.6,0-5.1,0-7.7
				c-3.3,0-6.6,0-9.8,0c-0.2,0.4,0,0.2-0.2,0.5C377.7,476,377.5,478.8,377.5,481.2L377.5,481.2z M318.7,474.5
				c-1.1,0.3-2.2,0.6-3.4,1c-4,6.2-2.4,21.9-2.4,31.9c0,3.9-0.6,8.9,0.7,11.8c0.7,1.5,2.6,2.7,4.3,3.1c3.3,0.9,6.2-1.3,7-3.1
				c1.2-2.9,0.5-8.5,0.5-12.2c-0.2-5.2-0.3-10.4-0.5-15.6c0-4.9,0.3-10.8-0.7-14.6C322.5,475.6,321.6,474.5,318.7,474.5L318.7,474.5
				z"/>
		</defs>
		<use xlink:href="#SVGID_1_"  style="overflow:visible;fill-rule:evenodd;clip-rule:evenodd;fill:#5C5B58;"/>
		<clipPath id="SVGID_2_">
			<use xlink:href="#SVGID_1_"  style="overflow:visible;"/>
		</clipPath>
	</g>
</g>
</svg>
