<?xml version="1.0" encoding="utf-8"?>
<!-- Generator: Adobe Illustrator 24.1.1, SVG Export Plug-In . SVG Version: 6.00 Build 0)  -->
<svg version="1.1" id="Layer_1" xmlns="http://www.w3.org/2000/svg" xmlns:xlink="http://www.w3.org/1999/xlink" x="0px" y="0px"
	 viewBox="0 0 100 100" style="enable-background:new 0 0 100 100;" xml:space="preserve">
<style type="text/css">
	.st0{fill:#F12D38;}
</style>
<rect x="23" y="62.2" class="st0" width="5" height="5"/>
<rect x="32.6" y="55.7" class="st0" width="5" height="5"/>
<rect x="33.7" y="65.5" class="st0" width="5" height="5"/>
<path class="st0" d="M17.3,58.2c4.3,0,7.1-1.5,7.5-4l0,0c4.6,0,7.5-1.8,7.5-4.6c0-4.1-3.3-7.5-7.5-7.5c-2.8,0-5.4,1.6-6.7,4.1
	c-4.1-0.5-7.8,2.5-8.3,6.6c0,0.3-0.1,0.6,0,0.9C9.8,56.4,12.7,58.2,17.3,58.2z M24.8,47.1c1.1,0,2.1,0.7,2.4,1.8
	c-1.3,0.3-2.6,0.4-4,0.2c-0.2-0.2-0.4-0.5-0.6-0.7C23.1,47.6,23.9,47.1,24.8,47.1z M17.3,51.1c0.1,0,0.2,0,0.4,0
	c1,0.1,1.8,0.8,2,1.8c-0.1,0-0.2,0.1-0.3,0.1c-1.5,0.3-3,0.3-4.5-0.1C15.2,51.8,16.2,51.1,17.3,51.1z"/>
<path class="st0" d="M50.6,75.7c4.3,0,7.1-1.5,7.5-4.1l0,0c4.6,0,7.5-1.8,7.5-4.6c0-4.1-3.3-7.5-7.5-7.5c-2.8,0-5.4,1.6-6.7,4.1
	c-4.1-0.5-7.8,2.5-8.3,6.6c0,0.3-0.1,0.6,0,0.9C43.1,74,46,75.7,50.6,75.7z M58.1,64.6c1.1,0,2.1,0.7,2.4,1.8
	c-1.3,0.3-2.6,0.4-4,0.2c-0.2-0.2-0.4-0.5-0.6-0.7C56.4,65.1,57.2,64.6,58.1,64.6z M50.6,68.7c0.1,0,0.2,0,0.3,0
	c1,0.1,1.8,0.8,2,1.8c-0.1,0-0.2,0.1-0.3,0.1c-1.5,0.3-3,0.3-4.5-0.1C48.5,69.4,49.5,68.7,50.6,68.7z"/>
<path class="st0" d="M62.5,13.3V7.9c0-2.8-2.2-5-5-5h-15c-2.8,0-5,2.2-5,5v5.4c-4.3,0.8-8.5,2-12.5,3.6c-0.5,0.2-0.9,0.4-1.3,0.6
	c-1.3,0.5-2.5,1.1-3.7,1.8c-0.4,0.2-0.7,0.4-1,0.6C7.4,26.2,0,36.1,0,47.2c0,2.1,0.6,11,1,13.2C3.8,78,14.4,97.2,50,97.2
	S96.2,78,99,60.4c0.3-2.2,1-11,1-13.2C100,30.9,84.1,17.2,62.5,13.3z M42.5,7.9h15v4.7c-5-0.5-10-0.5-15,0V7.9z M50,17.2
	c12.3,0,23.9,3.3,32.5,9.4c5.6,3.9,9.4,8.6,11.3,13.7c-8.5-10.8-25-18.1-43.8-18.1c-6.3,0-12.6,0.8-18.6,2.5
	c-1.3-1.1-2.5-2.3-3.8-3.5C34.7,18.5,42.3,17.2,50,17.2z M25,30.1v-4.3c0.3,0.3,0.6,0.5,0.9,0.8c1.4,1.3,2.9,2.6,4.4,3.7
	c7.1,6,15.2,10.8,23.8,14.3c5.1,1.9,10,4.2,14.7,6.8c0.3,0.2,0.7,0.4,1.1,0.6c6.1,3.4,11.5,8,15.8,13.4c-0.7,0.6-1.5,1.2-2.2,1.8
	c-6.9-6.2-16-11.4-27.6-15.8C45.6,47.3,36.1,41,26.5,31.7c-0.5-0.5-1-0.9-1.4-1.4L25,30.1z M53.5,36.4c1.8-0.8,3.8-1.2,5.8-1.1
	c2,0,4,0.3,5.8,1.1c-1.8,0.8-3.8,1.2-5.8,1.1C57.3,37.6,55.3,37.2,53.5,36.4L53.5,36.4z M72.2,47.6c3.7-1.5,7.9-1.5,11.6,0
	C80.1,49.1,75.9,49.1,72.2,47.6L72.2,47.6z M17.5,26.6c0.8-0.6,1.6-1.1,2.5-1.6v4.3C14.7,32,10,35.8,6.2,40.4
	C8.1,35.2,11.9,30.5,17.5,26.6z M17.5,36.6c1.3-0.9,2.7-1.8,4.2-2.6c10.5,10.4,21.1,17.6,32.4,22.1c10.5,4,18.8,8.6,25,13.9
	C71,74.7,60.8,77.2,50,77.2c-11.6,0-22.5-2.9-31-8.3c-0.5-0.3-1-0.7-1.5-1c-2.8-1.9-5.3-4.2-7.4-6.8s-3.6-5.6-4.5-8.8
	C7.1,46.4,11.2,41,17.5,36.6z M42.5,81.8c5,0.5,10,0.5,15,0v3.6h-15V81.8z M87.7,76.7C80.7,87,68,92.2,50,92.2S19.3,87,12.3,76.7
	c-2.3-3.5-4.1-7.3-5.1-11.4c6.7,7.8,17.5,13.5,30.4,15.9v4.3c0,2.8,2.2,5,5,5h15c2.8,0,5-2.2,5-5v-4.3c12.8-2.3,23.7-8.1,30.4-15.9
	C91.8,69.3,90.1,73.2,87.7,76.7z M89.9,61c-0.2,0.3-0.4,0.5-0.6,0.8c-2.5-3.1-5.2-5.8-8.3-8.3c5.1-0.7,8.8-3.1,8.8-6
	c0-3.4-5.2-6.1-11.7-6.1c-4.7,0-8.7,1.4-10.6,3.5c-1.8-0.9-3.6-1.8-5.5-2.6c5.2-0.6,9.1-3.1,9.1-6c0-3.4-5.2-6.1-11.7-6.1
	c-6.3,0-11.4,2.6-11.7,5.8c-4-2.2-7.8-4.6-11.4-7.4c4.5-1,9.1-1.5,13.8-1.4c12.3,0,23.9,3.3,32.5,9.4C88.9,41,93,46.4,94.5,52.3
	C93.5,55.4,92,58.4,89.9,61z"/>
</svg>
