<?xml version="1.0" encoding="utf-8"?>
<!-- Generator: Adobe Illustrator 24.1.2, SVG Export Plug-In . SVG Version: 6.00 Build 0)  -->
<svg version="1.1" id="Layer_1" xmlns="http://www.w3.org/2000/svg" xmlns:xlink="http://www.w3.org/1999/xlink" x="0px" y="0px"
	 viewBox="0 0 612 792" style="enable-background:new 0 0 612 792;" xml:space="preserve">
<style type="text/css">
	.st0{fill-rule:evenodd;clip-rule:evenodd;fill:#F12D38;}
	.st1{fill-rule:evenodd;clip-rule:evenodd;fill:#FFFFFF;}
</style>
<path id="SVGID_1_" class="st0" d="M183.6,299.2c-0.6,7.4-4.8,10.8-11,12.5c-4,1-11.4,0.2-12.7,3.6c-0.2,0.3-0.1,0.2-0.2,0.7
	c0,2.5,2,9.8,3.6,10.8c0.1-0.1,10.2-1.2,10.2-1.2c1.6-1.1,2.8-3,4.6-4.1c3.2-2,5.2-3.8,11.5-3.4c0.8,0.1,1.6,0.2,2.4,0.2
	c4.4,0.1,13.5,1.2,16.3-0.7c2-1.3,2.7-11.2,3.4-14.4c0.8-3.8-0.7-7.7,2.6-8.9c1.6-1.2,3.4,0.5,4.3,0.2c0.8-1.2,1.2-5.5,0.7-7.7
	c-0.2-0.7-0.4-1.8-0.5-2.9c-0.2-2.1,3.4-3.3,5-2.7c2.8,1.1,2.2,4,2.9,7.2c1.4,6.8-3.1,13.1-5.3,17.5c0,0.3,0.3,0.2,0.5,0
	c2.1-2,6.7-1.9,10.8-1.9c5.7,0,13.6-3.4,15.2,0.8c0.3,0.7-1.2,5.2-1.9,6.3c-3.6,5.6-6.4,8.4-11.1,13c-1.3,0.9-5.6,3.4-6.3,4.5
	c1,1.5,1,8.6,0.5,10.8c-0.5,2.4-0.3,4.1-1,6.2c-2.3,7-6,12.1-10.8,16.6c0,5.9-0.5,11.1-0.5,17.3c0,2.2-0.2,4.9,0.2,6.7
	c0.4,1.7-0.1,4.1,0.2,5.5c0.4,1.9-0.1,4.6,0.2,6.2c0.7,3.2-0.4,7.2,0.2,10.1c0.6,2.7-0.3,5.5,0.5,7.9c1.2,3.7,7,5.9,11.3,3.6
	c3.5-1.9,3.4-6.3,3.4-11.8c0-7.4-1.3-17.5,0.2-24.5c3.4-15.1,14.1-23.1,28.1-27.6c5.6-1.8,15.5-2.6,21.4-0.2
	c10.4,4.2,18.3,11.3,22.6,21.6c1.6,3.8,1.7,8.4,2.6,12.7c0,1.4,0,2.9,0,4.3c1.6,7.4-0.6,17.1,2.4,22.8c1,1.9,3.5,4,7,3.1
	c11.1-2.8,5-21,7.7-32.4c0.8-3.4,1.2-7.1,2.4-10.1c4.3-10.5,12-16.7,22.6-21.1c3.2-1.3,12.1-4.3,17.3-3.1
	c19.8,4.4,28.8,12.7,33.8,31.7c1.2,4.4,0.4,9.7,1.4,14.4c0.6,2.7-0.3,6.2,0.2,8.6c0,1.4,0,2.9,0,4.3c0.8,3.4,3.8,7.8,8.2,7.2
	c10.8-1.4,7.9-19.1,7.9-30.5c0-2.6,0-5.1,0-7.7c0.1-10.9,0.7-22.5,1.7-26.4c1.4-5.2,3.2-9.9,6-13.7c1.8-2.4,5-5,7.9-6.2
	c1.6-0.7,4-0.5,5.5-1.4c0.1-0.1,0.2-0.2,0.2-0.2c-4.7-3.3-6.7-11.8-6.7-19.9c0-2.5,0.2-6.7,0.5-8.6c0.4-2.3,0.1-3.3,1.1-4.2
	c6.2-0.1,11.1,4,14,6.9c1.9,2,3.5,5.4,3.4,6.7c0.3-3.7,9.9-11.9,13.9-13c1.5-0.4,4.9-1.4,5.9-1.2c0.9,1.2,0.4,4.1,0.8,5.8
	c0.6,2.1,0,12-0.5,14c-1.4,5.1-4,10.6-7.9,13.2c1.4,2.7,4.4,3.7,6,13.9c0.5,2.9,0.6,15-0.4,16c-12.6-2.3-16.5-7.1-20.9-15.4
	c-0.1,0-0.2,0-0.2,0c0,5-0.2,18.5-0.2,19.9c0,3.8,0,7.7,0,11.5c0,7.6,0,15.2,0,22.8c0,3.7,0.2,7.8-0.2,11.8
	c-0.3,3.2,0.2,5.9-0.5,8.9c-1,4.3-1.7,8.4-3.8,11.5c-1.1,1.6-2.7,3.6-4.1,5c-0.7,0.6-1.4,1.1-2.2,1.7c0,2.6-0.3,9.8-0.2,10.8
	c2.9,1.3,6.5-0.2,7.4,7.4c0.3,1.3-0.5,2.2-0.7,3.1c-0.6,0.4-1.1,0.8-1.7,1.2c-3.3,0.2-3.8-1-5.5-2.9c-0.7-0.6-1.4-1.1-2.2-1.7
	c-3.6-0.2-8.8-0.7-11.8,0.5c-1.1,1.9-1.9,3.5-3.4,5c-2.5,0.3-4.9-0.2-5-2.9c-1-1.5,0.7-3.8,1.2-4.8c2.5-4.9,2.5-4.9,14-4.7
	c-0.2,0,0.2-4.7,0.1-5.9c-0.1,0-0.2,0-0.2,0c-5.3,4.9-18.3,5.2-27.6,4.1c0,1.8,0,3.7,0,5.5c3.7,0.8,8.1,4.4,8.2,8.9
	c-0.4,0.5-0.5,1.4-1,1.9c-0.3,0.4-1.1,0.6-1.4,1c-5,0-3.8-2.5-6-4.6c-2.9-2.7-13.1-0.5-13.9-0.1c-2.4,1.5-1.3,5.1-5.4,5.3
	c-0.4-0.4-1.1-0.6-1.7-0.7c-0.8-1.2-1.4-1.8-1.4-3.8c-0.8-7.8,8-8.2,14.9-8.4c0-0.2,0-0.3,0-0.5c0.5-0.8,0.1-5.5,0.2-7
	c-9.7-4.5-17-11.7-21.1-21.8c-1.1-2.7-1.2-5.8-1.9-8.9c-1.7-7.5,1.6-17.5-0.2-24.7c-0.5-1.4-1-2.9-1.4-4.3c-1.1-1.6-5.3-4.4-8.2-2.4
	c-3.4,1.2-4,4.5-4.8,8.4c0,1.4-0.6,4.6-0.9,6.3c-1.2,5.5,0,14.5-1.5,19.6c-4.3,15.6-13.5,26.1-28.6,31c-6.2,2-15.4,1.3-20.9-0.5
	c-12.3-4-21.4-12.4-26.2-23.8c-0.5-2.2-1-4.5-1.4-6.7c-0.1-1.9-0.2-3.8-0.2-5.8c-1-4.7-0.2-10.6-0.2-15.4c0-4.9,0.1-9.4-2.9-11.3
	c-3.9-2.4-8.4,0.5-9.6,3.6c-0.1,1-0.2,2.1-0.2,3.1c-1.2,5.6,1,12.4-0.2,18.2c-0.5,3.1-1,6.2-1.4,9.4c-1.7,5.8-4.2,11.2-7.4,15.6
	c-2.6,3.6-6.7,7-10.3,9.6c-1.8,1.3-4.2,1.6-4.3,4.6c-0.6,1-1.7,5.1-0.2,5.3c6.4,0.7,7.7,2.2,6.7,9.8c-0.1,1.1-0.8,2-2.2,2.4
	c-2.1,0.6-3.7-0.2-4.6-1.4c-0.8-1.1,0.9-4.5-4.1-4.9c-3.5-0.2-8.7-2.2-11.3,1.9c-1.7,2.7-0.8,4.8-5.3,4.9c-0.8-0.6-1.5-0.6-1.9-1.7
	c-1.9-2,0-5,0.4-6.6c1.7-5.7,4-5.7,14-5.4c1.4,0,0.2-2.7,0.2-4.1c-5.8,0.3-13.1,1-18.2-0.7c-3.3-1.1-6-3.4-9.4-4.3
	c0,1.3,0,2.6,0,3.8c-0.2,0.3-0.2,1.4-0.2,1.4c8.1,0.5,7.2,3.9,7.8,6.9c0.3,1.3,0.9,2.7-0.1,4.1c-0.4,1.2-1.3,1.4-2.2,2.2
	c-1.4,0-2.1-0.2-3.1-0.5c-0.4-0.6-1.1-1.1-1.4-1.7c-1.4-2.5-0.9-3.9-5-3.8c-0.8-0.5-2.5-0.1-3.4,0c-3.3,0.3-5.8,0.8-7.2,2.9
	c-0.6,0.9-0.6,2.2-1.2,3.1c-0.4,0.6-3.5,1.5-4.3,1.4c-1.6-0.2-2.3-1.1-2.4-2.4c-0.8-7.5,0.3-11.3,9.8-12c1.7-0.1,3.4-0.5,5-0.7
	c0.8-1.3,0.9-8.1,1-10.1c-16.5-11.2-12.4-47.8-12-74.2c-3.3,0-5.6,0-8.6,0c-1.3,0-2.6,0-3.8,0c-3-0.2-6.5,0.5-7.7,1
	c-0.7,0.5,0.1,3-0.7,4.3c-0.6,0.8-0.8,0.8-1.7,1.2c-2.1,0.2-3.6-0.1-4.6-1.7c-0.2-0.4-0.1-1-0.5-1.2c-1.5-0.9-2,0-3.1-1.7
	c-0.5-0.6-0.5-2.3-0.2-3.4c2-4.6,13.2-6,19.2-7.4c4.1-1,7.8,0.6,11-0.7c0.4-1,0.3-1,0.2-2.2c-5-3.2-14.1-2.2-21.8-2.2
	c-4.2,0-8.9,0.4-11.3-1.4c-3.2-2.4-3.4-8.4-1.7-12.2c1.4-3.5,4-6.4,4.7-9.4c0.5-1.9-1.4-2.8-2.4-5.5c-0.9-3.3-1.2-10-0.8-11.6
	c1-4,2.1-6.3,5.5-7.7c3.9-1.6,6.1,0.1,9.4-2.9c0.1-3-0.1-6.2-0.7-9.1c-0.3-1.3,0.2-3.1,0.5-4.1c1.3-4.9,3.2-7.9,8.2-9.1
	c5.2-1.3,8.4,2.9,13.7,1.4c2.1-0.6,5-4.4,7.4-2.6c1,0.2,1.6,0.7,1.9,1.7c0.6,0.7,0.6,2.3,0,3.1c-0.5,1.4-1.7,1.9-2.9,2.6
	c-2,1.3-5.2,3.3-8.6,2.9c-3.7-0.4-7.4-2.1-11-1.4c-0.4,0.6-0.7,0.7-1,1.4c-1.6,2.1-0.2,10.2,0,13.2c0.1,0.2,0.4,0.2,0.5,0
	c0.3-0.4,0.6-3.6,1.2-5.3c0.5-1.4,1.7-3.3,2.9-4.1c2.8-1.9,7-1.2,11.3-1.2c1.1,0,2.2,0,3.4,0c3-0.7,3.7-3.7,6.2-4.6
	c2.1-0.7,3.5,0.6,4.3,1.9c1.2,2-0.9,4.7-1.9,5.8C197.9,299.5,192.9,299.4,183.6,299.2z M465.6,311 M192.2,326.5
	c-3.7,1.7-6.1,5.8-4.7,9.3c2.8,4.3,5.7,4.7,8.5,3.6c1.3-0.2,19.6-5.8,20.3-6.4c0.8-0.7,0.1-4.8-2.4-4.9c-2.7-0.1-12.8,4.4-13,4
	c-0.5-1,0.3-3.7-3.1-5.6C195.6,324.7,192.2,326.5,192.2,326.5z"/>
<path class="st1" d="M207.3,388.8c-1.5,0.9-12.5-4.1-12.6-8.1c0-4.6,11.3-9.2,12.7-8.7C208.8,372.5,208.9,387.9,207.3,388.8z"/>
<path class="st0" d="M197.3,432.3"/>
<path class="st1" d="M223.8,432.5c0,1.8-9.8,8.8-13.3,6.9c-4-2.3-2.4-14.4-1.2-15.3C210.4,423.2,223.7,430.8,223.8,432.5z"/>
<path class="st1" d="M208.2,414.9c-1.5,1-12.8-3.4-13-7.4c-0.3-4.6,10.8-9.8,12.2-9.4C208.7,398.6,209.6,413.9,208.2,414.9z"/>
<path class="st1" d="M240.3,414.7c1.8,0,8.9,9.7,7,13.2c-2.2,4-14.4,2.5-15.3,1.4C231.1,428.1,238.6,414.7,240.3,414.7z"/>
<path class="st1" d="M239.7,390c1.5-0.9,12.5,4.1,12.5,8.1c0,4.6-11.4,9.2-12.7,8.7C238.2,406.2,238.1,390.9,239.7,390z"/>
<path class="st1" d="M315.8,431.6c0,1.8-9.8,8.8-13.3,6.9c-4-2.3-2.4-14.4-1.2-15.3S315.8,429.9,315.8,431.6z"/>
<path class="st1" d="M299.2,415c-1.5,1-12.8-3.4-13-7.4c-0.3-4.6,10.8-9.8,12.2-9.4C299.8,398.7,300.7,414,299.2,415z"/>
<path class="st1" d="M329.8,415c1.7-0.3,10.4,8.2,9,11.9c-1.6,4.3-13.8,4.7-14.9,3.8C322.8,429.8,328,415.4,329.8,415z"/>
<path class="st1" d="M329.7,390.1c1.5-0.9,12.5,4.1,12.5,8.1c0,4.6-11.4,9.2-12.7,8.7S328.2,391,329.7,390.1z"/>
<path class="st1" d="M408.8,429.6c0,1.8-9.8,8.8-13.3,6.9c-4-2.3-2.4-14.4-1.2-15.3C395.5,420.3,408.7,425.2,408.8,429.6z"/>
<path class="st1" d="M394.2,413c-1.5,1-12.8-3.4-13-7.4c-0.3-4.6,10.8-9.8,12.2-9.4C394.8,396.7,395.7,412,394.2,413z"/>
<path class="st1" d="M425.8,413c1.7-0.3,10.4,8.2,9,11.9c-1.6,4.3-13.8,4.7-14.9,3.8C418.8,427.8,424,413.4,425.8,413z"/>
<path class="st1" d="M425.7,388.1c1.5-0.9,12.5,4.1,12.5,8.1c0,4.6-11.4,9.2-12.7,8.7S424.2,389,425.7,388.1z"/>
<path class="st1" d="M426.2,360.7c1.6-0.8,12.2,5,11.9,9c-0.3,4.6-12,8.4-13.3,7.7C423.5,376.8,424.6,361.5,426.2,360.7z"/>
<path class="st1" d="M255.2,366.1c1.7,0.5,5.4,12,2.5,14.7c-3.4,3.1-14.5-2.1-15-3.5C242.2,376,253.5,365.6,255.2,366.1z"/>
<path class="st1" d="M282.2,364.8c0.7,1.6-5.8,11.9-9.7,11.3c-4.5-0.6-7.6-12.5-6.9-13.7C267,360,280.9,361.6,282.2,364.8z"/>
<path class="st1" d="M298.6,387.6c-1.1,1.4-13.2,1.1-14.7-2.6c-1.8-4.2,6.9-12.9,8.3-12.9C293.7,372.1,299.7,386.2,298.6,387.6z"/>
<path class="st1" d="M347.9,365.4c1.7,0.5,5.4,12,2.5,14.7c-3.4,3.1-14.5-2.1-15-3.5C334.9,375.3,346.2,364.9,347.9,365.4z"/>
<path class="st1" d="M374.9,364.1c0.7,1.6-5.8,11.9-9.7,11.3c-4.5-0.6-7.6-12.5-6.9-13.7C359.7,359.3,373.6,361,374.9,364.1z"/>
<path class="st1" d="M390.3,387.9c-1.1,1.4-13.2,1.1-14.7-2.6c-1.8-4.2,6.9-12.9,8.3-12.9C386.1,372.4,393.3,383.9,390.3,387.9z"/>
<path class="st1" d="M433.2,342c1.3,0,6.3,7.2,4.8,9.7c-1.7,2.9-10.5,1.5-11.2,0.7C426.2,351.6,431.9,342,433.2,342z"/>
</svg>
