<?xml version="1.0" encoding="utf-8"?>
<!-- Generator: Adobe Illustrator 24.1.2, SVG Export Plug-In . SVG Version: 6.00 Build 0)  -->
<svg version="1.1" id="Layer_1" xmlns="http://www.w3.org/2000/svg" xmlns:xlink="http://www.w3.org/1999/xlink" x="0px" y="0px"
	 viewBox="0 0 100 100" style="enable-background:new 0 0 100 100;" xml:space="preserve">
<style type="text/css">
	.st0{fill:none;}
</style>
<g>
	<path class="st0" d="M50,77.9l-22.8-3.5c-0.5-0.1-1-0.4-1.3-0.8c-0.3-0.4-0.4-1-0.3-1.5l7.1-30.1l-9.6-2.7l-12,44.4L50,81.9h0V77.9
		z"/>
	<path class="st0" d="M20.1,36.4C20.1,36.4,20.1,36.4,20.1,36.4c0-0.1,0.1-0.2,0.1-0.3c0.1-0.1,0.1-0.2,0.2-0.4l0,0c0,0,0,0,0,0
		l5.3-7l1.4-16.9L18,20.9l-7,49.2L20.1,36.4C20.1,36.4,20.1,36.4,20.1,36.4z"/>
	<polygon class="st0" points="50.4,40.4 39.4,38.9 36.7,41.6 29.8,71 51.8,74.3 58.9,72.9 	"/>
	<path class="st0" d="M31.1,9.2l-1.5,18.5l28.2,3.5c0.7,0.1,1.4,0.6,1.6,1.3l16.5,56.9L90.5,91L67.3,17.8L31.1,9.2z"/>
	<path class="st0" d="M28.4,31.4L25,35.8l9.4,2.7l3-3c0.4-0.4,1-0.6,1.6-0.5l13.1,1.9c0.7,0.1,1.4,0.7,1.5,1.4l9.4,35.6
		c0.1,0.5,0.1,1-0.2,1.5c-0.3,0.4-0.7,0.7-1.2,0.8l-7.9,1.6v4.6l17.8,5.9L56,34.8L28.4,31.4z"/>
	<path d="M94.9,92.6L70.5,15.7c-0.2-0.6-0.7-1.1-1.4-1.3L29.8,5.1c0,0-0.1,0-0.1,0c-0.1,0-0.1,0-0.2-0.1c-0.2,0-0.4,0-0.6,0.1
		c0,0,0,0-0.1,0c-0.3,0.1-0.6,0.2-0.8,0.4c0,0,0,0,0,0L14.9,18.7c-0.3,0.3-0.5,0.7-0.5,1.1L5,85.4c-0.1,0.5,0.1,1.1,0.4,1.5
		c0.4,0.4,0.9,0.6,1.4,0.6h1.9c0,0,0,0,0.1,0c0,0,0,0,0,0l42.8-1.9L73.8,93c0.1,0,0.2,0,0.3,0c0,0,0.1,0,0.1,0L92.9,95
		c0.1,0,0.1,0,0.2,0c0.6,0,1.1-0.3,1.5-0.7C95,93.8,95.1,93.2,94.9,92.6z M18,20.9l9.1-9.1l-1.4,16.9l-5.3,7c0,0,0,0,0,0l0,0
		c-0.1,0.1-0.1,0.2-0.2,0.4c0,0.1-0.1,0.2-0.1,0.3c0,0,0,0,0,0c0,0,0,0,0,0L11,70.1L18,20.9z M11.2,83.6l12-44.4l9.6,2.7l-7.1,30.1
		c-0.1,0.5,0,1,0.3,1.5c0.3,0.4,0.7,0.7,1.3,0.8L50,77.9v4.1h0L11.2,83.6z M29.8,71l6.9-29.4l2.7-2.7l11,1.6l8.5,32.5l-7.1,1.4
		L29.8,71z M53.8,82.4v-4.6l7.9-1.6c0.5-0.1,0.9-0.4,1.2-0.8c0.3-0.4,0.4-1,0.2-1.5l-9.4-35.6c-0.2-0.7-0.8-1.3-1.5-1.4L39,35
		c-0.6-0.1-1.2,0.1-1.6,0.5l-3,3L25,35.8l3.3-4.5L56,34.8l15.5,53.5L53.8,82.4z M75.8,89.5L59.3,32.6c-0.2-0.7-0.8-1.2-1.6-1.3
		l-28.2-3.5l1.5-18.5l36.2,8.6L90.5,91L75.8,89.5z"/>
</g>
</svg>
