<?xml version="1.0" encoding="utf-8"?>
<!-- Generator: Adobe Illustrator 24.1.1, SVG Export Plug-In . SVG Version: 6.00 Build 0)  -->
<svg version="1.1" id="Layer_1" xmlns="http://www.w3.org/2000/svg" xmlns:xlink="http://www.w3.org/1999/xlink" x="0px" y="0px"
	 viewBox="0 0 100 100" style="enable-background:new 0 0 100 100;" xml:space="preserve">
<style type="text/css">
	.st0{fill:#404D86;}
</style>
<g>
	<path class="st0" d="M96.9,64.1c0-7.6-3.5-14.8-9.4-19.5V21.9c0-6-3.8-11.3-9.5-13.3c-0.4-2.3-2.3-3.9-4.6-3.9h-25
		c-2.3,0-4.2,1.7-4.6,3.9c-5.7,2-9.4,7.3-9.5,13.3v22.7c-3.3,2.6-5.8,6-7.5,9.9c-4.6-3.6-10-6.2-15.7-7.6c-0.5-0.1-1.1,0.1-1.4,0.4
		l-6.3,6.4c-0.6,0.6-0.6,1.6,0,2.2c0.1,0.1,0.3,0.3,0.5,0.3c10.4,4.1,12.5,9.9,14.6,15.6C20.9,78,23,83.7,35.4,84.3
		c2.1,1.5,4.4,2.7,6.8,3.5v6c0,0.9,0.7,1.6,1.6,1.6h34.4c0.9,0,1.6-0.7,1.6-1.6v-6C89.9,84.4,96.9,74.9,96.9,64.1z M48.4,7.8h25
		c0.9,0,1.6,0.7,1.6,1.6s-0.7,1.6-1.6,1.6h-25c-0.9,0-1.6-0.7-1.6-1.6S47.6,7.8,48.4,7.8z M37.5,21.9c0-4.5,2.7-8.5,6.9-10.1
		c0.8,1.4,2.4,2.3,4,2.3h25c1.7,0,3.2-0.9,4-2.3c4.2,1.6,6.9,5.7,6.9,10.1v20.6c-2-1.1-4.1-2-6.3-2.6c-0.6-4-5.6-7.3-12.5-8.3
		c0-0.1,0-0.2,0-0.3c0-2.6-2.1-4.7-4.7-4.7c-2.6,0-4.7,2.1-4.7,4.7c0,0.1,0,0.2,0,0.4c-6.9,1-11.9,4.2-12.5,8.3
		c-2.2,0.6-4.3,1.4-6.3,2.6V21.9z M60.9,32.8c-0.9,0-1.6-0.7-1.6-1.6c0-0.9,0.7-1.6,1.6-1.6s1.6,0.7,1.6,1.6
		C62.5,32.1,61.8,32.8,60.9,32.8z M57.6,34.6c1.8,1.8,4.8,1.8,6.6,0c0,0,0,0,0,0c5.3,0.6,9.1,2.6,10.3,4.6c-0.9-0.1-1.8-0.1-2.7-0.2
		H50c-0.9,0-1.8,0.1-2.7,0.1C48.5,37.1,52.3,35.2,57.6,34.6z M21.6,70.8c-1.9-5.3-4.3-11.9-14.2-16.5l4-4.1c5.3,1.4,10.2,4,14.4,7.5
		c-2.2,8.1-0.1,16.8,5.6,23C24.8,79.4,23.4,75.6,21.6,70.8z M76.6,89.1v3.1H45.3v-3.1H76.6z M71.9,85.9H50
		c-12.1,0-21.9-9.8-21.9-21.9S37.9,42.2,50,42.2h21.9c12.1,0,21.9,9.8,21.9,21.9S84,85.9,71.9,85.9z"/>
	<path class="st0" d="M80.4,47.4L79,50.1c5.2,2.7,8.5,8,8.5,13.9h3.1C90.6,57,86.7,50.5,80.4,47.4z"/>
	<path class="st0" d="M71.9,48.4c1.4,0,2.9,0.2,4.3,0.6l0.9-3c-1.7-0.5-3.4-0.7-5.1-0.7V48.4z"/>
	<path class="st0" d="M68.7,57.9c0.3-3.4-2.3-6.4-5.7-6.7s-6.4,2.3-6.7,5.7c0,0.3,0,0.6,0,0.9c-3.4-0.3-6.4,2.3-6.7,5.7
		c-0.3,3.4,2.3,6.4,5.7,6.7c0.3,0,0.6,0,0.9,0c-0.3,3.4,2.3,6.4,5.7,6.7s6.4-2.3,6.7-5.7c0-0.3,0-0.6,0-0.9c0.1,0,0.3,0,0.4,0
		c3.4,0,6.3-2.8,6.3-6.2c0-3.4-2.8-6.3-6.2-6.3C69,57.8,68.9,57.8,68.7,57.9L68.7,57.9z M60.3,55.2c1.2-1.2,3.2-1.2,4.4,0
		c1.2,1.2,1.2,3.2,0,4.4l0,0l-2.2,2.2l-2.2-2.2C59.1,58.4,59.1,56.4,60.3,55.2C60.3,55.2,60.3,55.2,60.3,55.2z M53.7,66.3
		c-1.2-1.2-1.2-3.2,0-4.4s3.2-1.2,4.4,0l2.2,2.2l-2.2,2.2C56.9,67.5,54.9,67.5,53.7,66.3z M64.7,72.9c-1.2,1.2-3.2,1.2-4.4,0
		c-1.2-1.2-1.2-3.2,0-4.4l0,0l2.2-2.2l2.2,2.2C65.9,69.7,65.9,71.7,64.7,72.9C64.7,72.9,64.7,72.9,64.7,72.9z M71.3,66.3
		c-1.2,1.2-3.2,1.2-4.4,0c0,0,0,0,0,0l-2.2-2.2l2.2-2.2c1.2-1.2,3.2-1.2,4.4,0C72.6,63.1,72.6,65.1,71.3,66.3z"/>
</g>
</svg>
