<?xml version="1.0" encoding="utf-8"?>
<!-- Generator: Adobe Illustrator 24.1.2, SVG Export Plug-In . SVG Version: 6.00 Build 0)  -->
<svg version="1.1" id="Layer_1" xmlns="http://www.w3.org/2000/svg" xmlns:xlink="http://www.w3.org/1999/xlink" x="0px" y="0px"
	 viewBox="0 0 612 792" style="enable-background:new 0 0 612 792;" xml:space="preserve">
<g>
	<defs>
		<path id="SVGID_1_" d="M302.9,258c1.1,0,2,0,2.6,0.5c2.7,0.8,3.5,6.5,2.6,10.6c-0.4,1.9,0.2,4.8-0.2,7c-0.6,2.6-0.4,7.1-0.5,9.8
			c-0.1,2.8,0.4,6.7-0.7,8.6c-0.5,0.8-1.7,1.3-2.4,1.9c-1.2,0.1-2,0.4-2.9-0.2c-1.5-0.4-1.7-1.4-2.6-2.4c-0.1-2.3-0.3-5.5,0.2-7.9
			c0.5-2.5-0.2-5.7,0.2-7.9c0.6-2.6-0.2-5.9,0.2-8.2c0-2.7,0-5.4,0-8.2c0.2-0.6,0.5-1.3,0.7-1.9C301,259.2,302.1,258.6,302.9,258
			L302.9,258z M255.1,278.6c3.9,0.5,4.9,3.3,7,5.5c4.4,4.6,9.1,9,13,14.2c2.5,3.3,4.8,3.1,3.4,8.6c-0.6,0.5-1.3,1-1.9,1.4
			c-4.4,0.3-5.5-2.1-7.7-4.6c-3.1-3.5-6.5-6.6-9.4-10.3c-2-2.6-5-4.5-7-7.2c-1.4-1.9-1.1-3.7-0.5-6c0.6-0.5,1.3-1,1.9-1.4
			C254.5,278.9,254.8,278.9,255.1,278.6L255.1,278.6z M351.4,280.3c1.5,0,2,0.4,3.1,0.7c1,1.5,1.7,1.9,1.7,4.6
			c-5,6.2-10.7,11.4-16.3,17c-2.4,2.4-4.2,5.7-8.9,5.8c-0.9-0.8-2-1.5-2.9-2.2c-0.7-5.6,2.9-6.7,5.8-9.4c0.6-0.7,1.1-1.4,1.7-2.2
			c3.2-3.1,6.4-6.2,9.6-9.4c1.4-1.4,2.9-2.9,4.3-4.3C350.1,280.8,350.7,280.6,351.4,280.3L351.4,280.3z M348,341.8
			c-0.1-2.8,0.4-4.6,1-6.5c3.1-2.1,3.6-2,7.4-1c0.8,1.2,1.7,2.4,2.2,4.1c0.9,3.8-0.8,6.6,1.2,9.4c2.1,3,5.3,5.5,8.2,7.7
			c1.8,1.3,3.3,3.3,5,4.6c6,4.4,12.4,7.8,20.6,10.1c6.1,1.7,14.4,0.2,19.9,1.4c3.5,7.4-8.3,14.7-13.4,17c0,0.2,0,0.3,0,0.5
			c3.8,2.5,5.3,4.7,10.8,6c4.9,1.1,12.3-3.1,14.9,0c2.9,3.6-0.8,9.3-2.4,11.5c-4.3,6.2-10.8,11.4-17.8,14.9
			c-1.1,0.6-2.5,1.1-3.6,1.4c-1.3,0.4-2.8,0.1-3.8,0.7c-0.7,1.1-0.3,6.6-0.2,8.4c0.7,1.2,0.7,7.2,0.7,9.1c4.9,2.4,4.4,10.7,6.5,15.8
			c1.2,0.4,2.9,0.3,3.8,1c3.7,2.5,3.8,10.4,5.5,14.9c2.6,0.9,5.8,0.9,7.2,2.9c1.4,2,1.2,5,1.9,7.7c1.2,4.6,3.9,13.6,2.9,18.2
			c-2.6,1.7-7.9,1.2-12.2,1.2c-6.8,0-13.6,0-20.4,0c-3.8,0-8,0.3-11-0.5c-5.9-12.7-12.1-25.8-18.5-38.2c-1.7-3.3-3.2-6.5-4.8-9.6
			c-0.5-0.9-1-3.2-1.9-3.6c-5.1,0-10.2,0-15.4,0c0.2,2.1,1.2,3.6,1.7,5.5c1.3,0.5,2.8,0.8,3.8,1.7c1.7,1.5,3.5,11.2,4.6,14.2
			c7.1,2.9,6.7,12.8,8.6,20.6c0.9,3.6,0.8,8.3-2.2,9.4c-1.9,1.4-5.6,0.1-8.4,0.7c-2.5,0.5-6.2,0.2-9.1,0.2c-6.6,0-13.6,0-19.2-0.7
			c-0.6-0.8-1.7-1.4-2.2-2.4c-1.8-4.1-0.9-10-1.9-14.9c0-1,0-2.1,0-3.1c-0.7-3.3-0.2-7-1-10.6c-0.6-2.8-0.1-6.4-0.7-9.4
			c-0.3-3.8-0.6-7.5-1-11.3c-7.6,0-15.2,0-22.8,0c-0.3,3.8-0.6,7.7-1,11.5c-0.7,3-0.1,6.5-0.7,9.4c-1,4.6-0.2,9.3-1.2,13.7
			c0,1.4,0,2.7,0,4.1c-0.9,4.2-0.3,9.1-2.4,12c-1.6,2.1-6.7,1.9-10.3,1.9c-9.4,0-20.4,0.9-28.3-1c-0.6-0.8-1.6-1.4-1.9-2.4
			c-1.2-3.2,1.6-13.9,2.4-16.8c0.8-2.8,0.7-5.8,2.2-7.9c1-1.5,3.1-1.8,4.3-3.1c1.8-2.6,2.1-9.2,3.6-12.5c1-2.1,4.1-2.1,4.8-3.6
			c0.9-1.1,1.5-3.3,1.7-5c-5.1,0-10.2,0-15.4,0c-4,7.4-8,15.1-11.5,23c-1.7,3.9-4.3,7.8-6,11.8c-2.7,6.1-4.2,12.5-8.6,16.8
			c-8.6,0-18.1,0.2-27.6,0.2c-4.7,0-10.5,0.4-14.4-0.5c-0.4-0.6-1-1.2-1.2-1.9c-0.5-1.9,0.6-4.2,1-5.5c1.2-4.3,1.5-8.6,2.6-12.7
			c0.6-2.3,0.5-4.8,1.7-6.5c1.7-2.3,5.8-1.7,7.2-3.1c2.1-3.1,1.6-9.2,3.6-12.5c0.5-0.9,1.9-2.3,2.9-2.6c1.1-0.4,2.2,0,2.9-0.7
			c1.9-2.5,1.7-8.2,2.9-11.5c1.3-3.5,3.6-2.3,3.6-7.2c0.4-0.7,0-1.9,0.2-2.9c0.7-3.3,0.5-7.8,0.5-11.8c-8.8-3.9-18.3-7.2-23.8-14.4
			c-2.9-3.8-6-6.8-4.3-13.2c1.2-0.8,2.2-1.7,3.8-2.2c4,0.1,8,0.2,12,0.2c3.4-0.8,5.2-1.7,7.2-3.6c0.8-0.8,1.7-0.9,2.2-2.2
			c-1.8-0.8-3.1-2.1-4.6-3.1c-4.2-3-10.3-6.2-8.4-13.7c1.1-0.6,2.1-1.3,3.6-1.7c3-0.7,5.8,1.2,9.1,0.5c4.6-1,9.1-1,13.2-2.4
			c7.1-2.3,12.6-6.5,18-10.6c1-1,2.1-2.1,3.1-3.1c2.1-1.6,4.7-3.7,6.2-5.8c0.7-1,1.3-2,2.2-2.9c-0.1-3.7-0.3-8,1.2-10.1
			c0.7-0.6,1.4-1.1,2.2-1.7c2-0.2,3.2,0,4.8,0.5c1.4,2.2,2.5,3.7,2.6,7.4c4.1,0,8.7-0.2,13.2-0.2c-0.1-2-0.6-4.1-1-6
			c-0.9-4.3,0.5-9.5,1.4-12.5c3.4-10.5,9.2-18,19-22.1c2.1-0.6,4.2-1.1,6.2-1.7c4.8-1.1,10.6,0.2,13.9,1.4
			c10.5,3.9,16.5,10.7,20.2,21.4c1.8,5.2,2.5,14,0.5,19.7c1.4,0,2.7,0,4.1,0C339.4,342.7,346.1,341.8,348,341.8L348,341.8z
			 M236.6,320.6c2,0.6,5.8,0.5,8.4,0.5c2.9-0.1,6.6,0.2,9.4,0.7c2.3,0.5,6.1,0,8.2,0.5c3.2,0.7,5.6-0.3,6.5,2.6
			c0.5,0.6,0.5,1.7,0.5,2.9c-0.8,0.9-0.9,2-2.2,2.4c-1.1,1-6.7,0.9-8.9,0.5c-7.6-1.6-16.6-0.2-24.5-2.2c-1-1.5-1.7-2-1.7-4.8
			c0.6-0.6,0.8-1.7,1.4-2.2c0.5-0.4,1-0.3,1.4-0.7C235.9,320.9,236.3,320.9,236.6,320.6L236.6,320.6z M369.4,320.6
			c2.9,0.1,7.1,3,4.8,6c-1.2,3.6-5.4,2.3-9.4,3.1c-3.2,0.7-6.7,0.2-10.1,1c-2.5,0.5-11.3,1.9-13.2,1.4c-0.9-0.2-1.7-0.7-2.6-1
			c-0.5-0.7-1-1.4-1.4-2.2c0.1-7.4,5-4.7,10.8-6c4.6-1,8.8-0.6,13.7-1.7C364,320.9,367.8,321.6,369.4,320.6L369.4,320.6z
			 M291.8,350.4c-1.3,0.8-7.8,0.2-9.8,0.2c-8.5,0-16.7,0.5-24.7,0.5c-6.3,9.3-19.5,19.5-30.5,24.2c-3.1,1.4-6.7,2.2-10.1,3.1
			c-2.1,0.6-5.2,0.2-6.7,1.4c0.2,0,0.3,0,0.5,0c1.9,1.7,8.1,1.7,11.8,1.7c8.5,0.1,17,0.2,25.4,0.2c25.6,0,51.2,0,76.8,0
			c8.6,0,15.3,0,23.8,0c3.2,0,7.4,1,10.1,0.5c1.9,0.1,3.8,0.2,5.8,0.2c6.8-1.4,15.8,0.8,22.6-0.7c3-0.7,8.5,0.8,9.8-1.4
			c-0.4,0-0.8,0-1.2,0c-2.7-0.7-5.4-1.4-8.2-2.2c-5.4-2.3-10.8-5.1-15.6-8.2c-3.5-2.2-6.4-5.3-9.6-7.7c-1.9-1.4-4.1-3.2-5.5-5
			c-0.9-1.2-4.5-6-5.5-6.5c-5.4,0-10.7,0-16.1,0c-0.7,0.8-9,0.2-11.3,0.2C312.7,351.1,302.2,350.6,291.8,350.4L291.8,350.4z
			 M388.3,390.5c-1.2,0.7-10.3,0.4-12,0.2c-9.5,0.1-19,0.2-28.6,0.2c-8.8-0.1-17.6-0.2-26.4-0.2c-3.8,0-7.7,0-11.5,0
			c-2.8,0.6-6.9,0.2-10.1,0.2c-5.1,0.1-10.2,0.2-15.4,0.2c-7.1,0-14.2,0-21.4,0c-3.5,0-8-0.4-11,0.2c-2,0.4-5.6,0.1-7.2-0.2
			c-2.2,0-4.3,0-6.5,0c-4.1,0-9.7-0.7-13,0c-2.8,0.6-7.1-0.6-8.9,0.2c-1.4,0.9-5.1,6.2-5,6.2c2.5,1.2,8.7-0.3,12.5,0.5
			c1.9,0.4,4.3,0,6.2,0c4.3-0.1,9.6,0.6,13.4-0.2c7.4,0.1,14.7,0.2,22.1,0.2c43.1,0,87,0,131,0c0-0.2,0-0.3,0-0.5
			C394,395.5,392.9,390.4,388.3,390.5L388.3,390.5z M197,406.6c0,0.3,0,0.6,0,1c4,2.3,7.9,5.3,12.7,6.7c4.2,1.2,10.4,0.5,15.4,0.5
			c10,0,20,0,30,0c32.1-1.1,65-1.2,97.9-1.2c10.4,0,21.2-0.2,31.2-0.2c5.4-0.1,10.9-0.2,16.3-0.2c4.4-1.2,7.4-4.3,11-6.2
			c0-0.1,0-0.2,0-0.2c-0.5,0-1,0-1.4,0c-1,0.6-3.1-0.1-4.6,0.2c-2.5,0.5-6.2,0.2-9.1,0.2c-12.2,0.1-24.5,0.2-36.7,0.2
			c-2.8,0.6-7.7,0.4-10.6,0c-3.9-0.6-8.7,0.5-12.2-0.2c-2.2,0-4.5,0-6.7,0c-5.4,0-10.9,0-16.3,0c-2.7,0-6.1,0.3-8.4-0.2
			c-3.6,0-7.2,0-10.8,0c-7.9,0-15.1,0-22.6,0c-15.5,0-30.8,0.6-45.8-0.2C216.6,406,206.1,406.9,197,406.6L197,406.6z M275.8,422.4
			c0,6.7,0,13.7,0,20.4c2.8-0.1,5.6-0.2,8.4-0.2c-0.2-6.6-0.3-13.3-0.5-19.9C281,422.6,278.4,422.5,275.8,422.4L275.8,422.4z
			 M342,422.6c-0.2,6.3-0.3,12.6-0.5,19c0.9,0.1,1.8,0.2,2.6,0.2c-0.1-4-0.3-11.4,3.1-12c1.1-0.8,3.4,0,4.3,0.2
			c1.8,2.9,2.4,6.7,2.4,11.5c0.6,0,1.3,0,1.9,0c0.3-3.3,0-7.7,0.7-11c0.5-2.5-0.5-5.8,0.2-7.9c-2.4,0-4.8,0-7.2,0
			C348.3,421.7,343.6,422.4,342,422.6L342,422.6z M252,441.8c0.6,0,1.3,0,1.9,0c-0.1-3.9,0.1-10.5,2.9-11.5c1-0.8,3.2-0.4,4.6-0.2
			c2.3,3.1,2.4,6.8,2.4,12c0.9-0.1,1.8-0.2,2.6-0.2c-0.2-6.3-0.3-12.6-0.5-19c-4.7-0.5-9.8,0-14.9,0c0,0.1,0,0.2,0,0.2
			c0.7,1.2,0.2,4.5,0.2,6.2C251.5,433.5,251.8,437.7,252,441.8L252,441.8z M291.8,422.6c0,6.3,0.2,12.8,0.2,19.4
			c1.4,0.5,3.8,0.3,5.5,0.2c-0.2-5.6,0-12.6,2.9-15.4c1-1,3.7-2.3,5.5-1c5,1.4,3.2,10.6,3.8,16.3c2.1-0.2,4.2-0.3,6.2-0.5
			c0-6.2-0.2-12.7-0.2-19.2C307.9,422.6,299.7,422.7,291.8,422.6L291.8,422.6z M324.5,422.9c-0.1,6.4-0.2,12.8-0.2,19.2
			c2.5,0,5,0,7.4,0c-0.2-6.4-0.3-12.8-0.5-19.2C329,422.9,326.7,422.9,324.5,422.9L324.5,422.9z M365.8,422.9
			c0,6.2,0.2,12.9,0.2,18.7c2.1,0,4.2,0,6.2,0c0.4-1.1,0.3-3.1,0.2-4.6c0.5-0.8,0.2-3.1,0.2-4.3c0.1-3.1,0.2-6.2,0.2-9.4
			c-1.2-0.4-3.2-0.3-4.8-0.2C367.7,422.8,366.6,422.9,365.8,422.9L365.8,422.9z M381.8,422.9c-0.7,6.1,0,13,0,19.2
			c2.6,0,5.5,0,7.7-0.2c0-6.3,0-12.6,0-19C387,422.9,384.4,422.9,381.8,422.9L381.8,422.9z M218.4,423.1c0,6.3,0,12.6,0,19
			c2.2,0.3,5.1,0.2,7.7,0.2c0-6.2,0.7-13.1,0-19.2C223.5,423.1,221,423.1,218.4,423.1L218.4,423.1z M241.9,441.8
			c0-5.9,0.2-12.5,0.2-18.7c-2.3,0.1-4.6,0.2-7,0.2c-0.4,1.2-0.3,3.2-0.2,4.8c0.5,0.8,0.2,3.1,0.2,4.3c0.1,3,0.2,6.1,0.2,9.1
			C237,442.1,239.9,441.9,241.9,441.8L241.9,441.8z M325.4,451c0.1,2.5,0.2,5,0.2,7.4c3-0.2,6.1-0.3,9.1-0.5c0-0.1,0-0.2,0-0.2
			c-0.6-1-1.3-5.6-1.4-7C330.7,450.8,328.1,450.9,325.4,451L325.4,451z M395.8,457.4c-0.4-2.2-0.8-4.5-1.2-6.7c-5.8,0-11.7,0-17.5,0
			c-2.6,0-6.3-0.5-8.4,0.2c0.4,1.8,2.4,6.1,4.1,6.7c1.2,0.8,4.7,0.2,6.5,0.2C384.9,457.9,390.4,457.6,395.8,457.4L395.8,457.4z
			 M213.4,451c-0.4,2.2-0.8,4.5-1.2,6.7c7,0.2,16.6,1.6,23.5,0.2c1.2-2.1,2.9-4.2,3.6-6.7c-0.1-0.1-0.2-0.2-0.2-0.2
			C230.5,451,221.9,451,213.4,451L213.4,451z M274.6,451c-0.5,2.4-1,4.8-1.4,7.2c3,0.2,6.1,0.3,9.1,0.5c0.1-2.5,0.2-5,0.2-7.4
			C279.8,451.1,277.2,451,274.6,451L274.6,451z M326.9,467c0,2.2,0,4.5,0,6.7c5.3-0.3,10.6-0.6,15.8-1c0-0.1,0-0.2,0-0.2
			c-1.4-2-0.3-5.5-3.8-5.5C338.3,466.7,328.9,467,326.9,467L326.9,467z M281,474c0-2.2,0-4.5,0-6.7c-4.8,0-9.5-0.1-13.7,0
			c-0.9,1.7-1.4,3.8-2.2,5.8C270.5,473.4,275.8,473.7,281,474L281,474z M375.4,467.3c0.2,1.2,3.1,6.6,3.8,7c3.9,0,7.8,0,11.8,0
			c2.5-1.5,12.3,1.1,13.7-1.2c-1-1.4-0.4-4.4-1.4-5.8c-1-0.6-3.8-0.3-5.3-0.2c-1.2,0.7-4.6,0.2-6.2,0.2
			C386.2,467.3,380.8,467.3,375.4,467.3L375.4,467.3z M232.6,467.5c-9.4,0-18.8-0.2-27.8-0.2c-0.1,0.1-0.2,0.2-0.2,0.2
			c-0.2,2.2-0.8,4.3-1.2,6.2c7.9,0.9,16.8,0.7,25.4,0.7C230,472.4,232.1,470.3,232.6,467.5L232.6,467.5z M328.3,483.1
			c0,3.4,0.4,6.7,1,9.6c2.9,0,5.8,0,8.6,0c1.4,0.9,10.1,0.3,12.5,0.2c-0.6-3.4-1.1-6.9-1.7-10.3C341.9,482.8,335.1,483,328.3,483.1
			L328.3,483.1z M259.2,482.9c-0.6,3.4-1.1,6.9-1.7,10.3c7-0.1,14.1-0.2,21.1-0.2c0-0.2,0-0.3,0-0.5c0.8-1.3,1-7,1-9.1
			C272.8,483.2,266,483,259.2,482.9L259.2,482.9z M416.2,493.9c-0.1-1.4-1.6-9.8-2.2-10.6c-1.1-0.7-6.6-0.3-8.4-0.2
			c-1.5-1-5.1,0-7.2,0c-5.3,0-10-0.3-15.8-0.2c0,0.2,0,0.3,0,0.5c1.5,1.2,4.1,6.3,5.3,8.2c0.4,0.7,0.6,2.2,1.2,2.6
			c1.6,0,3.2,0,4.8,0c1.2-0.7,4.6-0.2,6.2-0.2C405.4,493.9,410.8,493.9,416.2,493.9L416.2,493.9z M191.8,494.2
			c9.1,0,18.3,0.2,27.1,0.2c1.3-4.2,5.1-7.2,6.5-11.3c-4.2,0-8.5,0-12.7,0c-1.1,0.7-4.2,0.3-5.8,0.2c-4-0.1-8.4,0-13,0
			c-0.1,0.1-0.2,0.2-0.2,0.2C193.6,487.4,192.1,490.5,191.8,494.2L191.8,494.2z"/>
	</defs>
	<use xlink:href="#SVGID_1_"  style="overflow:visible;fill-rule:evenodd;clip-rule:evenodd;fill:#F12D38;"/>
	<clipPath id="SVGID_2_">
		<use xlink:href="#SVGID_1_"  style="overflow:visible;"/>
	</clipPath>
</g>
</svg>
