<?xml version="1.0" encoding="utf-8"?>
<!-- Generator: Adobe Illustrator 24.1.2, SVG Export Plug-In . SVG Version: 6.00 Build 0)  -->
<svg version="1.1" id="Layer_1" xmlns="http://www.w3.org/2000/svg" xmlns:xlink="http://www.w3.org/1999/xlink" x="0px" y="0px"
	 viewBox="0 0 612 792" style="enable-background:new 0 0 612 792;" xml:space="preserve">
<g>
	<g>
		<defs>
			<path id="SVGID_1_" d="M311.3,243.8c3.7,0,7.8,2.3,6.5,7c-0.7,2.4-3,3.3-4.3,5c-1.2,1.6-1.9,4.1-2.4,6.2
				c-0.6,2.6,1.5,4.8,2.4,6.2c2,3.2,3.4,7.1,4.3,11.3c1.5,6.7-2.5,13.1-4.8,16.3c-1.1,1.5-2.9,3.8-6.2,2.9c-2.1-0.6-5-3.2-4.1-6.7
				c1-3.6,5.2-6.1,3.8-11.8c-1.2-4.8-4.5-8-6-12.5c-2.7-8.5,2.9-19.1,7.7-22.6C309.1,244.6,310.3,244.5,311.3,243.8L311.3,243.8z
				 M366,243.8c3.4,0.4,7.4,3.2,5.5,7.7c-0.6,1.4-1.9,2-2.6,3.1c-1.1,1.5-3.4,6.4-2.6,9.4c0.8,3.3,3.2,5.8,4.8,8.4
				c1.1,1.8,1.7,4.5,2.2,6.7c0,1.8,0,3.5,0,5.3c-1,4.3-5.7,15.1-11.8,13c-1.9-0.7-2.4-2.3-3.6-3.6c0-1.4-0.2-3,0.2-4.1
				c1.1-2.7,5.1-5.1,3.8-9.8c-1.2-4.3-4.8-7.4-6.2-11.8c-2.5-7.5,1.9-19.1,6-22.3C363,244.7,364.6,244.7,366,243.8L366,243.8z
				 M255.6,245c3.3-0.1,5.7,0.5,6.5,2.9c1.1,1.5,0.7,4.4-0.2,5.8c-0.6,0.6-1.3,1.1-1.9,1.7c-1.1,1.5-3.5,5.1-2.6,8.2
				c0.7,2.4,2.6,4.3,3.8,6.2c2.9,4.6,6.1,12.7,3.6,20.2c-0.6,2-1.8,3.7-2.9,5.3c-1.3,1.9-3.4,5.9-7.2,5c-2.8-0.6-6.3-3.5-4.6-7.7
				c1.4-3.3,5.6-5.7,4.1-11.3c-1.4-5.1-5.3-8.5-7.2-13.2c-2.9-7,1-15.5,4.1-19.7C252.2,246.8,254.1,246.3,255.6,245L255.6,245z
				 M405.6,424.6c-0.2,5-2.7,12.1-4.3,16.1c-2.3,5.5-3.7,10.8-6.7,15.6c-5.4,8.6-14.2,18.9-22.6,24.5c-4.3,2.9-9.3,5.8-14.2,7.9
				c-1.6,0.7-5,1.1-5.8,2.6c0.9,1.2,0.9,3,1.4,4.6c3.1,9.6,1.7,15.8-3.1,22.3c-1.5,2-4.6,5.6-8.9,3.8c-1.9-0.8-2.3-2.5-3.6-3.8
				c-0.2-7.2,3.6-6.1,4.8-11c0.6-2.5-0.5-5.5-1-7.2c-1-3.2-1.6-6-2.9-8.9c-0.7-1.7-2.1-3.2-2.6-5c-0.1,0.1-0.2,0.2-0.2,0.2
				c-1.8,2.3-3.3,9.7-4.1,13.2c-1.1,4.8,1.1,5.8-1.7,9.4c-0.7,0.9-1.6,1.8-2.9,2.2c-7.1,2-8.2-6-9.8-9.8c-2.3-5.5-9.2-15.1-14.6-17
				c0,0.2,0,0.3,0,0.5c-1,1.4-1,3.6-1.7,5.3c-1.3,3.3-4.5,8.9-2.9,13.9c0.7,2.3,2.4,3.1,3.8,4.6c0.7,0.1,1.4,0.2,2.2,0.2
				c0.2-2.9,2-3.4,3.6-4.8c1.2-0.1,2.4-0.2,3.6-0.2c3.7,1,6.5,5.6,4.6,10.6c-1.5,3.8-5,6-9.4,7c-4.3,1-8.8-1-11-2.4
				c-7.9-4.9-10.1-9.8-9.8-22.1c-7-0.6-13.9-2.4-19.7-4.3c-4.1-1.4-7.6-2.2-11.3-3.8c-16.8-7.3-29.4-20.1-38.6-35
				c-3.5-5.7-5.5-13.1-7.7-19.9c-0.8-2.4-0.9-7.1-2.2-8.9c-1.3-0.8-8.7-0.3-10.8-0.2c-0.9-0.6-2.1-0.5-3.1-1
				c-1.5-0.8-3.2-2.7-3.8-4.3c-1.3-3.1-0.1-7.1-1-11c-0.7-3.1-0.2-7.5-0.2-11c0-9.7-1.1-20.3,3.1-25.9c2.4-3.2,10.6-2.2,16.1-2.2
				c4.9-10.9,10-19.6,17.8-27.4c2.2-2.2,4.7-4.6,7.2-6.5c0.6-0.5,3.3-1.9,3.6-2.4c0-1.1,0-2.2,0-3.4c-1.1-1.7-1.3-9.8-0.7-12
				c0.7-2.6,0.8-5,1.9-7.2c1.9-3.7,7.9-7.9,14.2-6.2c5.1,1.3,7.8,5.4,10.6,9.1c1,1.4,2.3,4.2,4.3,4.6c1.5-1.1,3.8-1,5.8-1.7
				c5.4-1.8,11.7-2.4,17.8-3.8c1,0,1.9,0,2.9,0c1.6-0.4,3.5-0.7,5.3-0.7c1.4,0,2.9,0,4.3,0c2.4-0.5,7-0.5,9.4,0
				c2.6,0.1,5.3,0.2,7.9,0.2c4.1,0.9,9.2,1,13.2,2.2c1.3,0.2,2.6,0.3,3.8,0.5c4.5,1.3,9,2.6,13.4,3.8c15.4,6.3,28.5,13.4,39.4,24.2
				c4.9,4.9,9,10.7,12.7,16.8c1.4,2.3,2.6,5.2,3.6,7.7c0.3,0.6,0.2,2.1,0.7,2.4c4.4,0,8.8,0,13.2,0c0.6,0.2,1.3,0.5,1.9,0.7
				c1.4,0.9,3.2,3.4,3.8,5c1.2,2.9,0.7,8.3,0.7,12.5c0,4.6,0,9.3,0,13.9c0,2.4,0.2,5.4-0.2,7.4c0,1.6,0,3.2,0,4.8
				c-0.2,3-0.8,6-2.2,7.9C420,425.4,412.4,424.6,405.6,424.6L405.6,424.6z M247,313.7c-0.6,0.4-1.5,0.4-1.9,1
				c-4.1,5.6,0.9,11.9-0.5,18.5c-1,4.6-3.3,11.1-2.2,15.6c1.7,1.1,3.9,1.6,6.2,2.2c0-0.3,0-0.6,0-1c-0.8-1.1-0.6-2.8-1-4.3
				c-0.7-2.8-2.1-12.3-0.5-15.4c0.6-1.1,1.8-1.6,2.6-2.4c1.2-0.1,2.2-0.4,3.1,0.2c3.3,1.1,6.7,8.5,9.6,10.6c0-1.8,0-3.5,0-5.3
				c-1.1-1.7-1.2-3.9-2.2-5.5c-1.7-2.8-4.1-4.9-6-7.4c-1.7-2.3-3.1-4.5-5-6.5C248.6,313.8,247.8,313.8,247,313.7L247,313.7z
				 M303.1,333.4c9.1-0.8,19.7,0.2,27.4,2.2c5.8,1.5,11,2,16.3,3.8c12.5,4.2,23.5,10.2,33.1,17.3c3.4,2.5,7.1,5.8,9.6,9.1
				c0.9,0.8,1.8,1.6,2.6,2.4c1.1,1.5,2.1,3.5,3.6,4.6c0-0.2,0-0.3,0-0.5c-1.1-2.6-2.2-5.1-3.4-7.7c-2.5-4.1-5.4-7.8-8.2-11.5
				c-1-0.9-1.9-1.8-2.9-2.6c-4-4-8.1-7.3-13-10.6c-17-11.3-37.3-17.5-65.8-17.8c-0.1,0.4-0.2,0.6-0.2,1.2
				C302.8,323.9,303.1,332,303.1,333.4L303.1,333.4z M271.9,337.7c1.4-0.1,4-0.7,5-1.4c1-1.1,1-3.1,1.7-4.6c1-2.4,3.1-4.8,3.6-7.4
				c-0.1,0-0.2,0-0.2,0c-1.6,1.1-4,0.9-6,1.4c-1.8,0.6-3.7,1.1-5.5,1.7c0,0.1,0,0.2,0,0.2C272.1,329.7,271.9,334.2,271.9,337.7
				L271.9,337.7z M293,325.7c-4.5,7.8-8.6,13.1-8.6,25.7c0,2.3,0,4.6,0,7c0.8,3.6,1.6,7.1,2.4,10.3c0.1,0,0.2,0,0.2,0
				c0-0.5,0-1,0-1.4c-1.1-1.7-0.5-8.7,0-10.6c1-4,1.2-6.9,2.6-10.1c1.4-3.3,5.2-6.5,4.1-11.3C293.1,332.2,294.5,328,293,325.7
				L293,325.7z M304.6,344.2c-0.6,0.4-2.1,0.3-3.1,0.2c-0.6,2.2-2.2,4-3.1,6c-1.1,2.5-1.7,5.2-2.4,8.2c-0.7,3.2,0.1,7.7,0.7,10.1
				c1.4,5.9,1.8,11.4,4.6,15.8c1.4,2.2,3.5,3.5,5.5,5c2.4,1.8,4.5,4.1,7,6c1.4,1.4,2.7,2.9,4.1,4.3c7.8,7.8,14.7,16.8,18.5,28.6
				c1.1,3.4,2.2,11.3,1.2,15.6c-0.6,2.6-1.4,5.1-1.9,7.4c0.3,0,0.6,0,1,0c1.8-1.2,4.6-1.1,6.7-1.9c4.4-1.6,8.7-3.2,13-5
				c13.9-6.1,31.4-20.5,37.4-34.3c1.3-3.1,2.8-6.5,3.6-9.8c0.5-2-1.8-6.5-2.4-7.9c-2.2-5.1-4.4-9.3-7.4-13.4c-1-1.4-2.6-2.5-3.6-3.8
				c-4.2-5.6-10-9.5-15.8-13.4C351.8,351,331.3,344.3,304.6,344.2L304.6,344.2z M252.7,362.2c-2.3,0-5.8-2-7-1.4
				c-2.9,0.9-5.2,3.6-7.4,5.3c-8.1,6-13.5,12.9-18.7,21.8c-1,1.7-5,9.7-4.6,12.2c1.5,7.7,5.8,14.7,9.8,20.2
				c10.3,13.9,26.7,23.6,44.9,29.5c5.8,1.9,12,2.6,18.2,4.1c7.7,1.8,17.3,0.9,25.9,1c0-0.2,0-0.3,0-0.5c1.8-2.5,0.9-7.4,1.7-11
				c1.7-8.2-2-20.7-4.3-26.2c-3.3-7.7-7.5-14.6-12.2-20.9c-3.4-4.4-9.8-7.3-13.2-11.8c-1.6-2.2-3.6-4.2-5-6.5
				c-4.7-7.6-5.7-17.6-5.8-30c-0.1,0-0.2,0-0.2,0c-1.2,1.1-4,1.5-5.5,2.2c0.5,1.7,1.5,3.6,2.4,5c0.8,1.2,2.2,1.7,2.6,3.4
				c1,3.6-1.9,5.5-3.4,7c-4.5,4.4-11.6,9.1-20.2,7.2c-0.6-0.8-1.4-1.9-2.2-2.6c-0.2-2.5-0.1-4.8,1.7-6c0.8-0.5,2.1-0.4,2.6-1.2
				C252.8,362.6,252.8,362.7,252.7,362.2L252.7,362.2z M232.6,348.5c-1.6,1.6-3.2,3.2-4.8,4.8c-4.2,5.6-9.4,11.7-11.3,19.4
				c0.1,0,0.2,0,0.2,0c0-0.1,0-0.2,0-0.2c1.3-1.3,2.2-2.8,3.4-4.3c2.7-2.7,5.4-5.4,8.2-8.2c1.6-1.2,5.9-3.9,6.7-5.5
				C233.3,353.1,233.8,350.3,232.6,348.5L232.6,348.5z M348.2,366.7c1.3-0.1,2.5-0.5,3.6-0.7c3.5-0.8,7.3,0.6,9.4,1.4
				c6.4,2.7,10,7.2,12.5,13.9c1,2.8,2.9,7.5,1.9,11.8c-0.2,1.5-0.5,3-0.7,4.6c-0.2,0.7-0.8,1.8-1,2.4c-0.3,1.6,2.6,3.5,1,6.7
				c-1.5,3-6.4,3.2-9.8,4.3c-2.6,0.8-5.7,1.7-8.6,2.4c-11.1,2.6-23.8-1.9-29.8-6.2c-0.9-0.6-1.2-1.9-1.9-2.6
				c-0.4-4.6,0.7-4.5,3.1-6.7c2.2,0,2.9,0.5,4.3,1c0-0.1,0-0.2,0-0.2c-1.1-1.6-0.5-4.5-1.2-6.5c-7.8-0.1-14.3-2-19-5.3
				c-1.5-1.1-4.9-4.1-2.9-7c0.9-3,3.9-1.9,4.1-4.6c-2.3-3.5,0.8-14.7,1.9-16.8c3.5-6.8,11.9-12.2,21.8-7.9
				C343,353.2,347.4,358.9,348.2,366.7L348.2,366.7z M258.7,351.1c0.3,3.2,2.1,6.6,3.4,9.1c0.2,0,0.3,0,0.5,0
				c0.3-0.5,0.5-0.6,0.7-1.2C261.3,356.9,260.8,353.2,258.7,351.1L258.7,351.1z M332.6,382.1c0.4-3,2.5-5.9,4.1-7.9
				c0.8-0.7,1.6-1.4,2.4-2.2c0-1.2,0-2.4,0-3.6c-0.9-1.5-0.7-3.8-1.7-5.3c-2.6-3.9-10.6-5.3-13.7-1c-3,4.1-1.8,12.2,0,16.6
				c0.4,1,0.1,2.1,1,2.6C326.3,382.4,330.4,382.1,332.6,382.1L332.6,382.1z M343.9,403.7c3.2,0.1,7.4,0.8,10.6,0
				c2.9-0.7,5.8-1.7,8.6-2.2c0.8-2.6,2.4-5,3.1-8.2c0.5-2.4-0.3-5.2-0.7-6.7c-1.5-5-5.5-12.5-13.4-10.6c-6.8,1.6-14.1,8.7-11.5,18.5
				C341.4,397.9,343.4,400.3,343.9,403.7L343.9,403.7z M204,379.9c-1.8,0-3.7,0-5.5,0c-0.7,2-0.3,5.7-0.2,8.2
				c-0.9,1.4-0.2,5.5-0.2,7.4c-0.1,5.7-0.2,11.4-0.2,17c1.8,0.6,4.5,0.5,7,0.5c0.1-0.2,0.2-0.5,0.2-0.7c-1.1-1.7-0.2-6.5-0.7-8.9
				C202.8,396.7,203.8,387.1,204,379.9L204,379.9z M408.2,380.2c0.8,6.4,1.1,16.4-0.2,22.8c-0.7,3.4-0.1,6.9-0.7,10.1
				c0.3,0,0.6,0,1,0c1.3,0.8,4.3,0.1,5.8,0c0.7-10.2,1-21.9,0.7-32.9C412.6,380.2,410.4,380.2,408.2,380.2L408.2,380.2z
				 M265.9,387.4c12.6-0.2,19.5,5,24.2,12.7c2.3,3.7,4.3,9.8,2.4,15.6c-3.4,10.5-12.1,14.6-23.3,17.5c-5.2,1.3-12.9,1.3-17.8-0.5
				c-8.5-3.1-16.1-12-12-24.2c2-6.2,6.7-11.7,11.5-15.1c2.6-1.8,5.9-3.5,9.1-4.6C262,388.2,264.4,388.4,265.9,387.4L265.9,387.4z
				 M267.8,397.4c-1.9,0.6-3.8,1.1-5.8,1.7c-5,2.2-9.8,7-11.5,12.5c-1.1,3.6,0.1,8.7,2.4,10.3c1.7,1.2,3.6,1.1,6,1.7
				c2.9,0.7,8.3,0.4,10.1-1c-3.8-0.7-4.4-2.3-7-3.4c-0.8,0-1.6,0-2.4,0c-2.9-0.8-4.9-2.5-4.8-6.2c0.5-0.6,0.5-1.5,1-2.2
				c0.9-0.9,1.8-1.8,2.6-2.6c-1.4-4.2,3.3-8,7.7-6.2c1.6,0.7,2.2,2.4,3.6,3.1c0.6-0.8,1.2-0.7,2.4-1c3.9-1,6.8,1.8,6.7,5.8
				c-0.6,0.7-0.7,1.7-1.2,2.4c-1,1.4-2.7,1.3-2.9,3.6c1.4,2.1-1,4.1-1.4,5.3c0.1,0,0.2,0,0.2,0c0.8-0.7,1.7-0.9,2.6-1.4
				c2-1.2,3.9-3.5,4.8-5.8C284.6,405.2,275.1,397.5,267.8,397.4L267.8,397.4z M322.8,421.7c0.5,2,1,4,1.4,6c0.5,2.1,0.3,4.3,0.7,6.2
				c0,1.5,0,3,0,4.6c0.2,4.9-0.8,10.3-1,14.9c0.1,0,0.2,0,0.2,0c0-0.2,0-0.3,0-0.5c0.9-1,1.1-2.3,1.7-3.6c3.5-8.2,2.7-15.3-0.7-23
				C324.5,424.6,324,422.8,322.8,421.7L322.8,421.7z M393.8,428.9c-3.1,4.6-7.8,8.7-12.2,12c-3.6,2.7-7.3,5.9-11.3,8.4
				c-5.8,3.6-12.6,6.4-19.2,9.1c-9,3.7-19.2,5-29.5,7.4c-4.5,1.1-10.7,0.2-15.6,0.2c-15,0-27.2-1.8-38.4-5.5
				c-13.1-4.4-24.7-10.1-34.8-17.5c-3.8-2.8-7.5-6.4-10.8-9.8c-1.2-1.2-2-2.9-3.4-3.8c0,0.1,0,0.2,0,0.2c1.4,1.9,2.1,5.8,3.1,8.2
				c2.2,5.2,5,10.4,7.9,15.1c11.3,18,32.4,30.8,59.5,32.9c1.8-4.2,1.9-13.2,5.3-15.6c2.6-1.9,6.7-1.5,9.6-0.2
				c5.1,2.2,16.1,10.8,18.5,15.6c0.2,0,0.3,0,0.5,0c0.3-2.2,1.5-4.3,2.2-6.2c1.1-3.3,0.6-7.3,2.4-9.8c1.7-2.4,6.3-3.9,9.6-1.9
				c4.5,2.7,7.7,8.6,10.3,13.2c18.7-7.2,31.2-17.8,40.1-34.8c2-3.9,3.4-7.8,5-12.2C393,432.6,394.3,429.9,393.8,428.9L393.8,428.9z
				 M405.4,496.1c1.9-0.3,2.7-1.4,3.6-2.6c5.2-7.2,2.9-17.3-0.2-24.7c-0.7-1.6-1.1-3.8-2.4-4.8c0-0.1,0-0.2,0-0.2
				c-0.1,0.1-0.2,0.2-0.2,0.2c-1.4,1.8-1.9,4.3-2.9,6.5c-1.4,3.2-3.2,6.6-5,9.6c-5.6,9.1-13.3,17.1-21.8,23.3
				c-2.9,2.1-7.4,5.7-11,6.7c-4.1,1.1-6.4-2.4-7-5c0.2-1,0.3-1.9,0.5-2.9c0.6-0.5,0.8-1.4,1.4-1.9c1.5-1.2,3.4-1.8,5-2.9
				c3.2-2.1,6.3-4.6,9.4-7c0.6-0.7,1.3-1.4,1.9-2.2c1.9-1.4,4.1-3.2,5.5-5c4.9-6.5,9.5-13.9,13-21.8c1.9-4.2,3.4-10.3,7-13
				c1.1-0.8,2.8-2.1,5.3-1.4c4,1.1,5.4,6,7.4,9.1c3.7,5.6,6.3,12.1,8.2,19.7c2.8,11.2-2.1,23.8-7.9,28.1c-7,5.2-16.6,5.3-20.2-3.4
				c-2.3-5.6,0.2-10.9,6.2-10.8C403.4,491.4,405.4,491.7,405.4,496.1L405.4,496.1z M206.2,451.9c6.7,0.1,7.9,5.4,10.6,9.6
				c1.5,2.5,3.3,5,5,7.4c8.6,12.2,21.2,25.9,35.5,32.2c6.2,2.7,12.2,5.9,19,7.7c3.8,1,8.4,0.1,9.1,4.1c2.7,3.8-2.1,8.7-6.5,7.7
				c-2.2-0.4-4.5-0.8-6.7-1.2c-4.8-1.6-9.4-3.5-13.9-5.5c-15.9-7-28.4-16.2-38.2-29.3c-3.1-4.1-7.2-7.8-9.6-12.5
				c-0.1,0.1-0.2,0.2-0.2,0.2c-0.9,1.1-0.9,2.9-1.4,4.3c-2.2,6.2-2.8,22.4,4.8,22.8c1-1.9,0.2-4.8,1.4-6.7c2.5-4,8.7-2.4,10.1,1.4
				c3,8.3-5.4,18.8-14.4,16.6c-8-2-12-8.9-14.2-16.8c-0.5-1.8-0.1-3.3-0.5-5.3c-0.4-1.9-0.5-5.1,0-7.2c1.1-5,2.5-9.4,3.8-13.7
				c1.2-3.8-0.2-9.7,1.7-12.7C202.7,453.2,204.4,453.1,206.2,451.9L206.2,451.9z"/>
		</defs>
		<use xlink:href="#SVGID_1_"  style="overflow:visible;fill-rule:evenodd;clip-rule:evenodd;fill:#F12D38;"/>
		<clipPath id="SVGID_2_">
			<use xlink:href="#SVGID_1_"  style="overflow:visible;"/>
		</clipPath>
	</g>
</g>
</svg>
