<?xml version="1.0" encoding="utf-8"?>
<!-- Generator: Adobe Illustrator 24.1.2, SVG Export Plug-In . SVG Version: 6.00 Build 0)  -->
<svg version="1.1" id="Layer_1" xmlns="http://www.w3.org/2000/svg" xmlns:xlink="http://www.w3.org/1999/xlink" x="0px" y="0px"
	 viewBox="0 0 612 792" style="enable-background:new 0 0 612 792;" xml:space="preserve">
<g>
	<g>
		<defs>
			<path id="SVGID_1_" d="M181.7,300.7c-0.6,7.4-4.8,10.8-11,12.5c-4,1-11.4,0.2-12.7,3.6c-0.2,0.3-0.1,0.2-0.2,0.7
				c0.1,0.1,0.2,0.2,0.2,0.2c7.3-1.2,11.4,4.5,13.4,9.6c0.1-0.1,0.2-0.2,0.2-0.2c1.6-1.1,2.8-3,4.6-4.1c3.2-2,7-2.5,11.5-3.4
				c0.8,0.1,1.6,0.2,2.4,0.2c4.4,0.1,13.5,1.2,16.3-0.7c2-1.3,2.7-11.2,3.4-14.4c0.8-3.8-0.7-7.7,2.6-8.9c1.6-1.2,3.4,0.5,4.3,0.2
				c0.8-1.2,1.2-5.5,0.7-7.7c-0.2-0.7-0.8-1.8-0.5-2.9c0.1-0.5,0.6-1,0.7-1.7c1.1-0.7,2.8-2,4.3-1c2.9,0.9,2.2,4,2.9,7.2
				c1.4,6.8-3.1,13.1-5.3,17.5c0.2,0,0.3,0,0.5,0c2.1-2,6.7-1.9,10.8-1.9c5.7,0,10.4-0.8,12,3.4c0.3,0.7,0.8,2.1,0.5,3.4
				c-1.4,5.9-5.7,11.1-10.1,14.2c-1.3,0.9-5.8,2.5-6.5,3.6c1,1.5,1,8.6,0.5,10.8c-0.5,2.4-0.3,4.1-1,6.2c-2.3,7-6,12.1-10.8,16.6
				c0,5.9-0.5,11.1-0.5,17.3c0,2.2-0.2,4.9,0.2,6.7c0.4,1.7-0.1,4.1,0.2,5.5c0.4,1.9-0.1,4.6,0.2,6.2c0.7,3.2-0.4,7.2,0.2,10.1
				c0.6,2.7-0.3,5.5,0.5,7.9c1.2,3.7,7,5.9,11.3,3.6c3.5-1.9,3.4-6.3,3.4-11.8c0-7.4-1.3-17.5,0.2-24.5
				c3.4-15.1,14.1-23.1,28.1-27.6c5.6-1.8,15.5-2.6,21.4-0.2c10.4,4.2,18.3,11.3,22.6,21.6c1.6,3.8,1.7,8.4,2.6,12.7
				c0,1.4,0,2.9,0,4.3c1.6,7.4-0.6,17.1,2.4,22.8c1,1.9,3.5,4,7,3.1c11.1-2.8,5-21,7.7-32.4c0.8-3.4,1.2-7.1,2.4-10.1
				c4.3-10.5,12-16.7,22.6-21.1c3.2-1.3,12.1-4.3,17.3-3.1c19.8,4.4,28.8,12.7,33.8,31.7c1.2,4.4,0.4,9.7,1.4,14.4
				c0.6,2.7-0.3,6.2,0.2,8.6c0,1.4,0,2.9,0,4.3c0.8,3.4,3.8,7.8,8.2,7.2c10.8-1.4,7.9-19.1,7.9-30.5c0-2.6,0-5.1,0-7.7
				c0.9-4.2-0.5-9.7,0.5-13.9c0.9-4,0.2-8.6,1.2-12.5c1.4-5.2,3.2-9.9,6-13.7c1.8-2.4,5-5,7.9-6.2c1.6-0.7,4-0.5,5.5-1.4
				c0.1-0.1,0.2-0.2,0.2-0.2c-4.7-3.3-6.7-11.8-6.7-19.9c0-2.5-0.6-7,0.5-8.6c0.5-1.6,1.6-1.7,2.6-2.6c6.2-0.1,9,2.7,12.5,5.3
				c1.2,0.9,1.7,2.6,3.1,3.1c1.2-3.5,10.2-8.3,14.2-9.4c1.5-0.4,3.1,0.3,4.1,0.5c0.9,1.2,2.2,2.4,2.6,4.1c0.6,2.1,0.4,6.1,0,8.2
				c-0.5,2.1,0,3.8-0.5,5.8c-1.4,5.1-4,10.6-7.9,13.2c1.4,2.7,3.8,4.9,5,7.9c1.5,3.6,1.8,7.2,2.9,11.3c0.7,2.9,1.2,7.7,0,10.6
				c-0.6,1.4-1.9,1.9-2.9,2.9c-9.8,0.4-18.5-9.6-20.4-18.2c-0.1,0-0.2,0-0.2,0c0,5,0,10.1,0,15.1c-0.6,0.9-0.2,3.4-0.2,4.8
				c0,3.8,0,7.7,0,11.5c0,7.6,0,15.2,0,22.8c0,3.7,0.5,8.5-0.2,11.8c-0.7,3.1,0.2,5.9-0.5,8.9c-1,4.3-1.7,8.4-3.8,11.5
				c-1.1,1.6-2.7,3.6-4.1,5c-0.7,0.6-1.4,1.1-2.2,1.7c0,2.6,0,5.3,0,7.9c-0.4,0.6-0.3,1.9-0.2,2.9c2.9,1.3,6.6,4.1,7.4,7.4
				c0.3,1.3-0.5,2.2-0.7,3.1c-0.6,0.4-1.1,0.8-1.7,1.2c-3.3,0.2-3.8-1-5.5-2.9c-0.7-0.6-1.4-1.1-2.2-1.7c-3.6-0.2-8.8-0.7-11.8,0.5
				c-1.1,1.9-1.9,3.5-3.4,5c-2.5,0.3-4.9-0.2-5-2.9c-1-1.5,0.7-3.8,1.2-4.8c2.5-4.9,6.5-5.9,13.9-5.8c0-0.2,0-0.3,0-0.5
				c0.5-0.8,0.3-3.1,0.2-4.3c-0.1,0-0.2,0-0.2,0c-5.3,4.9-18.3,5.2-27.6,4.1c0,1.8,0,3.7,0,5.5c3.7,0.8,8.1,4.4,8.2,8.9
				c-0.4,0.5-0.5,1.4-1,1.9c-0.3,0.4-1.1,0.6-1.4,1c-5,0-3.9-2.1-6.5-3.8c-1.6-1.1-6.5-1.6-9.4-1c-0.9,0.2-2.6,0.3-3.4,0.7
				c-2.4,1.5-1.9,4.4-6,4.6c-0.4-0.4-1.1-0.6-1.7-0.7c-0.8-1.2-1.4-1.8-1.4-3.8c0.6-0.8,0.7-1.9,1.2-2.6c2.8-4.1,6.8-5.6,13.7-5.8
				c0-0.2,0-0.3,0-0.5c0.5-0.8,0.1-5.5,0.2-7c-9.7-4.5-17-11.7-21.1-21.8c-1.1-2.7-1.2-5.8-1.9-8.9c-1.7-7.5,1.6-17.5-0.2-24.7
				c-0.5-1.4-1-2.9-1.4-4.3c-1.1-1.6-5.3-4.4-8.2-2.4c-3.4,1.2-4,4.5-4.8,8.4c0,1.4,0,2.9,0,4.3c-0.3,1.3,0.1,3.6-0.2,5.3
				c-1.2,5.5-0.7,11.2-2.2,16.3c-4.3,15.6-13.5,26.1-28.6,31c-6.2,2-15.4,1.3-20.9-0.5c-12.3-4-21.4-12.4-26.2-23.8
				c-0.5-2.2-1-4.5-1.4-6.7c-0.1-1.9-0.2-3.8-0.2-5.8c-1-4.7-0.2-10.6-0.2-15.4c0-4.9,0.1-9.4-2.9-11.3c-3.9-2.4-8.4,0.5-9.6,3.6
				c-0.1,1-0.2,2.1-0.2,3.1c-1.2,5.6,1,12.4-0.2,18.2c-0.5,3.1-1,6.2-1.4,9.4c-1.7,5.8-4.2,11.2-7.4,15.6c-2.6,3.6-6.7,7-10.3,9.6
				c-1.8,1.3-4.2,1.6-4.3,4.6c-0.6,1-0.3,3.8-0.2,5.3c4.2,1.6,6.8,4,6.7,9.8c-0.7,0.8-1.4,1.6-2.2,2.4c-2.2,0-3.7-0.2-4.6-1.4
				c-0.8-1.1-0.4-2.8-1.7-3.4c-0.9-0.6-2.1-0.2-3.4-0.5c-3.4-0.8-7.4-0.5-9.6,1.2c-2.4,1.8-1.5,4.5-6,4.6c-0.8-0.6-1.5-0.6-1.9-1.7
				c-1.9-2,0.3-4.6,1.2-6c2.6-3.9,6.6-6.1,13.2-6c0.1-1.4,0.2-2.7,0.2-4.1c-5.8,0.3-13.1,1-18.2-0.7c-3.3-1.1-6-3.4-9.4-4.3
				c0,1.3,0,2.6,0,3.8c-0.2,0.3-0.2,0.8-0.2,1.4c3.9,0.4,5.9,3.6,7.2,6.7c0.5,1.2,1.5,2.9,0.5,4.3c-0.4,1.2-1.3,1.4-2.2,2.2
				c-1.4,0-2.1-0.2-3.1-0.5c-0.4-0.6-1.1-1.1-1.4-1.7c-1.4-2.5-0.9-3.9-5-3.8c-0.8-0.5-2.5-0.1-3.4,0c-3.3,0.3-5.8,0.8-7.2,2.9
				c-0.6,0.9-0.6,2.2-1.2,3.1c-0.4,0.6-1.4,0.9-1.9,1.4c-0.8,0-1.6,0-2.4,0c-0.8-0.8-1.6-1.6-2.4-2.4c0-6.7,4.8-10.5,9.8-12
				c1.7-0.2,3.4-0.5,5-0.7c0.8-1.3,0.9-8.1,1-10.1c-16.5-11.2-12.4-47.8-12-74.2c-3.3,0-5.6,0-8.6,0c-1.3,0-2.6,0-3.8,0
				c-2.4,0.5-5.2,0.9-7.7,1c0,2-0.4,3-0.7,4.3c-0.6,0.4-1.1,0.8-1.7,1.2c-2.1,0.2-3.6-0.1-4.6-1.7c-0.2-0.4-0.1-1-0.5-1.2
				c-1.5-0.9-2,0-3.1-1.7c-0.5-0.6-0.8-2.6-0.2-3.4c1.7-5.1,13.2-6,19.2-7.4c4.1-1,7.8,0.6,11-0.7c0.4-1,0.3-1,0.2-2.2
				c-5-3.2-14.1-2.2-21.8-2.2c-4.2,0-8.9,0.4-11.3-1.4c-3.2-2.4-1-8.2-1.7-12.2c-5.1-2.6-8.3-11.3-4.1-17c1-1.4,5.4-2.8,5.8-3.6
				c-1-1.3-0.6-4.2-0.2-5.8c1-4,2.1-6.3,5.5-7.7c3.9-1.6,6.1,0.1,9.4-2.9c0.1-3-0.1-6.2-0.7-9.1c-0.3-1.3,0.2-3.1,0.5-4.1
				c1.3-4.9,3.2-7.9,8.2-9.1c5.2-1.3,8.4,2.9,13.7,1.4c2.1-0.6,5-4.4,7.4-2.6c1,0.2,1.6,0.7,1.9,1.7c0.6,0.7,0.6,2.3,0,3.1
				c-0.5,1.4-1.7,1.9-2.9,2.6c-2,1.3-5.2,3.3-8.6,2.9c-3.7-0.4-7.4-2.1-11-1.4c-0.4,0.6-0.7,0.7-1,1.4c-1.6,2.1,0.3,10.3,0,13.2
				c0.2,0,0.3,0,0.5,0c0-0.2,0-0.3,0-0.5c1.1-1,0.6-3.1,1.2-4.8c0.5-1.4,1.7-3.3,2.9-4.1c2.8-1.9,7-1.2,11.3-1.2c1.1,0,2.2,0,3.4,0
				c3-0.7,3.7-3.7,6.2-4.6c2.1-0.7,3.9,0.7,4.3,1.9c1.6,2.1-0.9,4.7-1.9,5.8C196,301,191,300.9,181.7,300.7L181.7,300.7z
				 M463.7,312.5c-4.7,0.6-6.7,4.4-9.4,7c1.2,3.6-0.3,8.8-0.7,12c0.2,0,0.3,0,0.5,0c1-1,2.5-1.5,3.6-2.4
				C461.9,325.9,463.7,319.9,463.7,312.5L463.7,312.5z M439.2,313c-0.1,6.8,0.6,11.8,3.4,15.6c0.8,1.1,2.1,2,2.9,3.1
				c0.1,0,0.2,0,0.2,0c0-0.2,0-0.3,0-0.5c0.6-0.9,1.7-9.3,1.2-10.3C445.8,318.5,441.5,314.1,439.2,313L439.2,313z M226.3,313.2
				c-0.7,0.5-1.8,0.3-2.6,0.7c-2.2,1-7.1,5-7.9,7.2c0.6,0,1.3,0,1.9,0c1.5-0.9,4.4-0.1,6.2-0.5c4.4-1,10.2-2.9,11-7.4
				c-0.2,0-0.3,0-0.5,0C233.5,313.9,228.2,313.2,226.3,313.2L226.3,313.2z M160.3,325.4c0.4,0.8,0.8,1.6,1.2,2.4
				c0.3,1-0.2,1.7,0,2.2c0.7-0.5,2-0.4,2.6-1C162.8,327.6,162.8,325.8,160.3,325.4L160.3,325.4z M151,328.3
				c-0.3,0.7-0.6,1.2-0.7,2.2c1.1,1.8,0.9,3.1,2.9,4.1c0-0.3,0-0.6,0-1c-0.5-0.9-1.2-4.3-1.4-5.3C151.4,328.3,151.2,328.3,151,328.3
				L151,328.3z M218.6,328.3c-1.4,0.8-4.2-0.1-6,0.2c-5.7,1.2-13.1-0.6-18.2,1.2c1.8,1.8,4.8,4.1,3.4,8.4c0.2,0,0.5,0,0.7,0
				c0.8-0.6,1.8-0.7,2.6-1.2c2.1-1.3,3-2.8,6.5-2.9c0.8,0.6,1.5,0.6,1.9,1.7c0.6,0.6,0.7,1.4,0.7,2.6c-5,6.1-11.5,8.6-22.1,8.4
				c0,0.1,0,0.2,0,0.2c2.6,1.6,6,8.3,4.3,13.2c0.6,0,1.1,0,1.7,0c1.3,0.8,8.9-1.2,10.3-1.7c10.9-3.6,12.7-6,15.4-17.8
				c0.5-2.4,0.3-10.6-0.7-12.2C218.9,328.4,219.1,328.5,218.6,328.3L218.6,328.3z M187.7,335.5c-0.6,0.9-1.3,1-1.4,2.4
				c1,0.5,1.5,0.7,3.1,0.7c0.5-0.8,1-1.2,1.2-2.4c-0.2-0.1-0.5-0.2-0.7-0.2C189.3,335.6,188.7,335.5,187.7,335.5L187.7,335.5z
				 M157.4,344.9c6.3-0.1,12.6-0.2,19-0.2c2,0,5.9,1,7.2,0.2c-2.3-0.7-4.1-3-4.8-5.3c-0.4-1.4,0.4-2.7-0.5-3.4
				c-2.5,1.6-7.9,0.4-11,1.2c-5.7,1.4-6.2,2-9.6,5.5C157.6,343.6,157.5,344.2,157.4,344.9L157.4,344.9z M455.8,338.9
				c-0.6,0.4-1.6,0.5-2.2,1c-0.3,0.4-0.2,1-0.2,1.7c0.7,1.2,0.5,3.1,1,4.6c1.6,5,4.1,10.6,9.4,12c-0.5-5.9-2.4-11.9-5-15.8
				C457.8,341.1,457.2,339.4,455.8,338.9L455.8,338.9z M207.1,367.9c-4.8,0.2-10.2-0.1-14.9-0.2c0,2.6,0,5.1,0,7.7
				c3.2,0,6.2,0.1,8.4,0.7c1.2,1.7,2.5,5.2-0.5,6.2c-1.7,1.3-5.4,0.5-7.9,0.5c0,2.7,0,5.4,0,8.2c5.5-0.1,6.4-0.5,9.1,2.4
				c-0.1,1-0.2,2.1-0.2,3.1c-3.1,2.1-3.7,2-8.9,1.9c0.1,2.8,0.2,5.6,0.2,8.4c3-0.1,5.5,0.4,7.7,1c0.6,0.8,2,2.7,1,4.3
				c-0.4,1.2-1.2,1.4-1.9,2.2c-2.2,0.1-4.2,0-6.5,0c-0.1,4.5,0.8,7.8,1.7,11c0.2,0,0.3,0,0.5,0c2-1.7,8.4-3.6,9.6-0.2
				c0.8,1,0.3,2.5,0,3.6c-2.5,1.6-4.2,2.4-7.2,3.6c1.4,2.9,3.9,4.3,6,6.5c0.4-0.2,0.2,0,0.5-0.2c2.2-2.2,2.5-5.9,7-6
				c0.3,0.3,0.7,0.4,1.2,0.5c0.5,0.7,1.1,1.6,1.7,2.2c0,3.9-2.3,4.4-3.1,7.2c0.2,0,0.3,0,0.5,0c2.1,1.6,5.5,1.5,8.2,2.4
				c0-2.7,0.5-6.6,2.2-7.7c2-1.3,4.7-0.1,5.3,1.7c1,1.3,0.2,4.3,0,6c3.3,0.1,12-2.8,12.7-4.8c-1.5-0.9-5-4.2-3.4-7.2
				c0.4-0.7,1.4-1.1,1.9-1.7c4.1-0.1,6.1,2.5,7.4,5c2-1,5.6-6,6-8.6c-2.2,0-6.1-1.4-6.7-3.1c-1-1.1-0.6-2.5-0.2-3.8
				c0.7-0.4,0.8-0.9,1.7-1.2c2.1-1.7,6.2,1.1,7.9,1.7c0.2-3.6,1.2-6.8,1.2-10.8c-3.1,0-6.7,0.1-9.1-0.5c-1-1.4-1.7-1.7-1.7-4.3
				c0.5-0.5,0.8-1.5,1.4-1.9c1.9-1.2,6.8-0.8,9.4-0.5c0-2.6,0-5.3,0-7.9c-2,0-7-0.2-8.4-1c-0.7-0.4-1.1-1.6-1.7-2.2
				c0-1.4,0.2-2.1,0.5-3.1c3.8-2.6,6.2-1.4,11.3-1c0.3-2.3,2-3.7,3.1-5.3c-2-1.3-3.6-3.8-3.6-7.2c0.7-0.8,0.8-1.5,1.9-1.9
				c0.6-0.5,1.3-0.5,2.4-0.5c0.7,0.4,1.4,0.8,2.2,1.2c1,1.2,2.5,4.8,4.1,5c0.9-0.6,2.8-0.5,4.1-0.5c1.4-2.4,3.1-5.3,7-5.3
				c0.3,0.3,0.7,0.4,1.2,0.5c0.5,0.6,1,1.1,1.4,1.7c0.3,2.8-0.5,4.7-2.4,6c0.1,0.1,0.2,0.2,0.2,0.2c1.6,2.6,3.7,4.6,4.1,8.6
				c5.5-0.1,6.1-0.4,8.9,2.4c0.1,1.2,0.4,2-0.2,2.9c-0.4,1.1-1.2,1.4-1.9,2.2c-1.8,0.1-4.1,0.2-6.2,0.2c0,2.4,0,4.8,0,7.2
				c5.5-0.2,10-0.6,9.8,5c-0.8,0.8-1,1.7-2.2,2.2c-1.3,1-5.3,0.5-7.4,0.5c-0.1,4.6,1.2,14.6,4.1,15.6c1.6-2.8,4.1-5.3,8.2-4.3
				c0.6,0.9,1.3,1.2,1.4,2.6c1.2,2-3.8,6.9-5,7.7c0.1,0.1,0.2,0.2,0.2,0.2c1.4,2.1,6.7,6.3,9.4,7c0.2-1.7,1-3.8,2.4-4.3
				c2.2-2.2,5.3,0.6,5.8,2.6c0.3,1.6-0.8,3.1-1,4.6c0.1,0.1,0.2,0.2,0.2,0.2c2.9,0.1,5.2,0.2,8.2,0.2c0.1-0.1,0.2-0.2,0.2-0.2
				c-0.1-3.7,0.2-7.3,2.9-8.4c0.6-0.2,2-0.4,2.6,0c2.4,0.7,2.5,3.2,2.4,6.5c3-0.4,10-5.8,10.8-8.2c-2.1-0.6-3.2-2.5-4.6-3.8
				c-0.1-1.2-0.4-2,0.2-2.9c0.4-1.1,1.2-1.4,1.9-2.2c4.2-0.1,4.2,1.8,7.2,2.9c0-0.1,0-0.2,0-0.2c2.6-2.6,3.1-6.4,4.6-10.3
				c-1.1,0-2.2,0-3.4,0c-0.8-0.5-2.2,0-3.4-0.2c-1-0.2-2.1-0.7-3.1-1c-0.8-1.3-1.4-1.8-1.4-4.1c0.7-0.9,0.7-1.7,1.9-2.2
				c1.7-1.5,7-0.3,10.1-0.2c0.1-2.6,0.2-5.1,0.2-7.7c-3.4-0.3-6.8-1.4-9.8-2.2c-0.6-0.9-2.8-2.8-1.4-4.8c0.4-1.1,1.2-1.4,1.9-2.2
				c3.5-0.3,6,1.1,9.6,1.2c0-2.5,0.2-5.6,1-7.7c0.5-1.4,1.6-2.2,1.9-3.8c-1.6-1-5.4-5.2-3.4-7.9c0.3-0.9,1-1.6,1.9-1.9
				c3.1-2.5,7.6,3.7,8.6,5.3c1.7-0.6,7.4-0.3,8.2-0.7c2.9-2.4,2.2-5.5,7.9-4.1c0.5,0.7,1.1,1,1.4,1.9c1.5,1.8-0.4,5.1-1.4,6
				c0.4,1.3,1.5,1.9,2.2,2.9c0.6,1.4,1.1,2.7,1.7,4.1c2.8,0,5.8,0.4,7.9,1c0.9,1.4,1.5,1.8,1.4,4.3c-0.8,0.8-1,1.7-2.2,2.2
				c-1.3,1-4.3,0.3-6,0.2c-0.1,3-0.2,6.1-0.2,9.1c3.1,0,5.2-0.1,7.4,0.5c0.8,1.3,1.4,1.8,1.4,4.1c-0.3,0.3-0.4,0.7-0.5,1.2
				c-2.6,1.7-4,1.9-8.4,1.9c0,5.4,1.3,10,3.1,13.7c0.1-0.1,0.2-0.2,0.2-0.2c1.4-1.4,4-6.1,7-4.1c1.7,0.5,2.4,1.9,2.4,4.1
				c-0.5,0.7-0.7,1.7-1.2,2.4c-1.1,1.6-2.9,2.7-3.6,4.8c3.4,2.2,5.5,6,10.1,7.2c0.4-1.9,2-5.4,4.1-5.8c0.7-0.5,1.9-0.5,2.6,0
				c1.2,0.4,1.4,1.2,2.2,1.9c0.2,3-1,4.1-1.7,6.5c0.2,0,0.3,0,0.5,0c1.4,0.9,7.2,0,9.1,0c0.4-1.2,0.3-3.4,0.2-5
				c0.9-1.3,0.8-2.6,2.4-3.1c1-0.8,2.5-0.3,3.6,0c0.5,0.8,1.4,1.4,1.7,2.4c0.3,1.2-0.3,2.7,0.2,3.6c2.9-2.5,9.6-3.6,11-7.7
				c-2.4-1.1-4.1-2.2-5.8-3.8c-0.1-1.3-0.1-1.8,0-3.1c1.4-1.1,1.6-2.2,4.3-2.2c1.9,1.3,4.7,2.1,6.7,3.1c0-0.2,0-0.3,0-0.5
				c1.6-2,2-6.6,2.2-9.8c-4,0.1-8.8,0.5-9.8-2.4c-0.8-1-0.3-2.5,0-3.6c3-2,5.6-2.1,10.1-1.2c0-3.1,0-6.2,0-9.4c-2.7,0-5-0.1-7.4-0.2
				c-1.1-1.4-2.2-1.6-2.2-4.3c0.4-0.5,0.5-1.4,1-1.9c1.6-1.9,5.5-1.3,8.6-1.2c0.1-2.5,0.2-5.4,0.2-8.2c-3,0-6.4,0-8.6-0.5
				c-0.4-0.7-0.9-0.9-1.2-1.7c-0.8-1-0.3-2.5,0-3.6c3.2-2.1,4.2-2,9.6-1.9c0-2.3,0-4.6,0-7c-2.2,0-4.2-0.1-5.8-0.5
				c-0.4-0.7-1.1-1.6-1.7-2.2c-0.1-4.8,2.9-5.2,7.7-5c0.1-6.7,0.2-13.4,0.2-20.2c-9.3,0.4-12.1,9.1-13.9,17
				c-0.2,2.9-0.3,5.8-0.5,8.6c-0.7,3.3,0.3,7.5-0.5,11.3c-0.6,2.6-0.2,6.4-0.2,9.4c0,10.3,1.4,22.4-1.9,30.2
				c-2,4.7-6.4,7.8-11.8,9.1c-3.4,0.8-7-0.7-8.9-1.7c-5.3-2.7-7.4-6-8.9-12.5c-0.2-5.9-0.3-11.8-0.5-17.8c-0.8-3.7-0.6-7.9-1.7-11.3
				c-3.2-9.8-8.3-16.3-17.5-20.2c-3.1-1.3-8.1-3.8-13.2-2.6c-15.4,3.5-25.1,9.4-29,24.2c-2.5,9.3,0.5,22.6-2.4,31.4
				c-1.6,4.8-5.1,8.6-9.8,10.3c-3.3,1.2-7.8,0.7-10.6-0.5c-4-1.7-6.8-3.5-8.4-7.4c-2.1-5-1.6-13.9-1-19.9c0.1-0.8-0.3-3.3-0.5-4.1
				c-0.9-3.9-0.2-7.3-1.2-10.8c-3.3-12-10.6-18.1-22.8-21.1c-3.1-0.8-8.4-0.5-11.3,0.2c-8.9,2.3-18,8-21.4,15.8
				c-1.3,3-1.4,6.9-2.2,10.3c-0.1,4.2-0.2,8.5-0.2,12.7c-0.7,3.1,0.2,7.1-0.5,10.3c-1.6,6.9-3.5,11.9-9.4,14.4
				c-6.1,2.6-15.3,1-18.5-3.4c-4-5.5-3.8-14.6-3.8-24.2C207.4,390.1,206.6,378.9,207.1,367.9L207.1,367.9z"/>
		</defs>
		<use xlink:href="#SVGID_1_"  style="overflow:visible;fill-rule:evenodd;clip-rule:evenodd;fill:#FFA914;"/>
		<clipPath id="SVGID_2_">
			<use xlink:href="#SVGID_1_"  style="overflow:visible;"/>
		</clipPath>
	</g>
</g>
</svg>
