<?xml version="1.0" encoding="utf-8"?>
<!-- Generator: Adobe Illustrator 24.1.1, SVG Export Plug-In . SVG Version: 6.00 Build 0)  -->
<svg version="1.1" id="Layer_1" xmlns="http://www.w3.org/2000/svg" xmlns:xlink="http://www.w3.org/1999/xlink" x="0px" y="0px"
	 viewBox="0 0 100 100" style="enable-background:new 0 0 100 100;" xml:space="preserve">
<style type="text/css">
	.st0{fill:#5C5B58;}
</style>
<g>
	<path class="st0" d="M64.1,16v-5.1h3.1V7.8H51.6V3.1h-3.1v4.7H32.8v3.1h3.1V16C29.5,17.5,25,23.1,25,29.7V61
		c0,6.6,4.5,12.2,10.9,13.7v5.1h-3.1v3.1h3.1V97H39V82.8h3.1v14.1h3.1V82.8h3.1v14.1h3.1V82.8h3.1v14.1h3.1V82.8h3.1v14.1h3.1V82.8
		h3.1v-3.1h-3.1v-5C70.5,73.2,75,67.5,75,60.9V29.7C75,23.1,70.5,17.5,64.1,16z M39.1,10.9H61v4.7H39.1V10.9z M39.1,18.8H61
		c4.2,0,8.1,2.4,9.9,6.3H29.2C31,21.2,34.8,18.8,39.1,18.8z M71.9,29.7v4.7H28.1v-4.7c0-0.5,0-1,0.1-1.6h43.5
		C71.8,28.6,71.9,29.2,71.9,29.7z M71.8,62.5H28.3c-0.1-0.5-0.1-1-0.1-1.6v-4.7H72v4.7C71.9,61.5,71.8,62,71.8,62.5z M28.1,53.1
		v-6.3h43.8v6.3H28.1z M28.1,43.8v-6.3h43.8v6.3H28.1z M60.9,79.7H39.1V75H61L60.9,79.7L60.9,79.7z M60.9,71.9H39.1
		c-4.2,0-8.1-2.4-9.9-6.3h41.6C69,69.4,65.2,71.9,60.9,71.9z"/>
	<polygon class="st0" points="17.2,73.4 14.1,73.4 14.1,76.6 10.9,76.6 10.9,79.7 14.1,79.7 14.1,82.8 17.2,82.8 17.2,79.7 
		20.3,79.7 20.3,76.6 17.2,76.6 	"/>
	<polygon class="st0" points="85.9,28.1 89.1,28.1 89.1,25 92.2,25 92.2,21.9 89.1,21.9 89.1,18.8 85.9,18.8 85.9,21.9 82.8,21.9 
		82.8,25 85.9,25 	"/>
	<path class="st0" d="M20.3,18.8C17,19,14.2,16.4,14,13.1c0-0.2,0-0.4,0-0.6c0-0.9-0.7-1.6-1.6-1.6c-0.9,0-1.6,0.7-1.6,1.6
		c0.2,3.3-2.4,6.1-5.7,6.3c-0.2,0-0.4,0-0.6,0c-0.9,0-1.6,0.7-1.6,1.6S3.6,22,4.5,22c3.3-0.2,6.1,2.4,6.3,5.7c0,0.2,0,0.4,0,0.6
		c0,0.9,0.7,1.6,1.6,1.6c0.9,0,1.6-0.7,1.6-1.6c-0.2-3.3,2.4-6.1,5.7-6.3c0.2,0,0.4,0,0.6,0c0.9,0,1.6-0.7,1.6-1.6
		S21.2,18.8,20.3,18.8z M12.5,22.7c-0.6-1-1.5-1.8-2.4-2.4c1-0.6,1.8-1.5,2.4-2.4c0.6,1,1.5,1.8,2.4,2.4
		C14,20.9,13.1,21.8,12.5,22.7z"/>
	<path class="st0" d="M95.3,75c-3.3,0.2-6.1-2.4-6.3-5.7c0-0.2,0-0.4,0-0.6c0-0.9-0.7-1.6-1.6-1.6s-1.6,0.7-1.6,1.6
		c0.2,3.3-2.4,6.1-5.7,6.3c-0.2,0-0.4,0-0.6,0c-0.9,0-1.6,0.7-1.6,1.6s0.7,1.6,1.6,1.6c3.3-0.2,6.1,2.4,6.3,5.7c0,0.2,0,0.4,0,0.6
		c0,0.9,0.7,1.6,1.6,1.6s1.6-0.7,1.6-1.6c-0.2-3.3,2.4-6.1,5.7-6.3c0.2,0,0.4,0,0.6,0c0.9,0,1.6-0.7,1.6-1.6S96.2,75,95.3,75z
		 M87.5,79c-0.6-1-1.5-1.8-2.4-2.4c1-0.6,1.8-1.5,2.4-2.4c0.6,1,1.5,1.8,2.4,2.4C89,77.2,88.1,78,87.5,79z"/>
</g>
</svg>
