<?xml version="1.0" encoding="utf-8"?>
<!-- Generator: Adobe Illustrator 24.1.2, SVG Export Plug-In . SVG Version: 6.00 Build 0)  -->
<svg version="1.1" id="Layer_1" xmlns="http://www.w3.org/2000/svg" xmlns:xlink="http://www.w3.org/1999/xlink" x="0px" y="0px"
	 viewBox="0 0 612 792" style="enable-background:new 0 0 612 792;" xml:space="preserve">
<g>
	<g>
		<defs>
			<path id="SVGID_1_" d="M241,279.8c0.8,0,1.7-0.1,2.2,0.2c1.4,0.4,1.8,1.3,2.6,2.2c0.4,5.2-5.4,6.4-3.8,13
				c1.1,4.6,4.8,6.6,6.5,10.6c3.8,9-0.5,16-5,20.6c-1-0.1-2.1-0.2-3.1-0.2c-0.5-0.8-1.3-1.7-1.9-2.4c-0.2-4.8,5.1-6.5,3.6-12.7
				c-1.2-4.7-4.8-6.9-6.5-11c-2.6-6.4,0-14.2,2.9-18C239,281.1,240.2,280.6,241,279.8L241,279.8z M295.4,279.8
				c1.7,0,2.2,0.4,3.4,0.7c0.8,1.3,1.4,1.8,1.4,4.1c-1.1,1.4-2.6,3.2-3.4,4.8c-2.9,5.9,1.7,9.7,3.8,12.7c2.6,3.7,4.7,11.1,2.4,16.8
				c-1.3,3.2-3.2,5.2-5.5,7.4c-3.6,0.1-5.1-1.3-5-4.8c1-1.2,2.3-3,2.9-4.3c4.7-10.8-10.3-14.8-6.2-28.6
				C290.5,284.4,292.6,282.5,295.4,279.8L295.4,279.8z M349.7,279.8c0.8,0,1.7-0.1,2.2,0.2c1.5,0.4,1.7,1.4,2.6,2.4
				c0,5.1-4.5,5.9-4.1,11c0.5,5.2,3.7,6.9,5.8,10.3c1.2,1.9,1.3,3.9,1.9,6.5c0.3,1,0.6,3.6,0.2,5c-0.4,1.7-1.1,3.5-1.7,4.8
				c-0.8,1.8-3.8,8.1-7.2,6c-1.7-0.5-2.6-2.1-2.6-4.3c1.1-1.3,2.5-3.3,3.1-4.8c2.8-6.7-1.7-10.1-4.1-13.7c-2.2-3.3-4-10.1-2.2-15.1
				C345.1,284.4,347.1,282.3,349.7,279.8L349.7,279.8z M392.6,411.8c2.2,0.4,5.4,0.9,7.7,1.4c1.8,3.6,1.2,16.3,1.2,21.6
				c2.3,0,4.1,0.3,5.8,0.7c0.5,0.8,1.4,1.4,1.7,2.4c0,5.6,0,11.2,0,16.8c0,8.2,0.2,17.1,0.2,25.7c0,3.8,0.5,8.6-0.2,12
				c-0.2,1.1,0.1,2.7,0.2,3.4c0.6,2.9,0.1,5.9-0.5,7.9c-3.5,2.2-9.7,1.2-15.1,1.2c-11.1,0.1-22.2,0.2-33.4,0.2
				c-4.2-0.1-8.5-0.2-12.7-0.2c-2.9,0-6.6,0.3-9.1-0.2c-10.6,0.1-21.1,0.2-31.7,0.2c-23.4,0.1-46.7,0.2-70.1,0.2
				c-11.7,0-22.9,0.8-34.1-0.2c-2.9-0.1-5.8-0.2-8.6-0.2c-1.6,0.3-5.1,0.6-6.7,0c-1.5-0.6-1.9-1.9-2.9-2.9
				c-0.8-11.3-0.2-23.8-0.2-35.5c0-4.7,0.9-10,0-14.4c0-4.5,0-9,0-13.4c0.3-1.2,1.2-2.5,2.4-2.9c0.9-0.7,3.4-0.5,5-0.5
				c0-7.2-1.1-15.8,0.5-21.8c2.8-1.9,3.8-1.5,8.2-1.4c-0.3-3.2-1.6-7.7-0.7-11.8c1.9-8.7,4-15.5,8.4-21.6c0.8-1.1,2.1-2,2.9-3.1
				c1.5-2,3.3-4.3,5.3-5.8c2.7-2.1,5.5-4.1,8.4-6c1.2-0.8,3-1.2,3.6-2.6c-3.4-4.6,0.8-10.5,4.6-11.8c1.8-0.6,4,0.4,5.8,0
				c2.7-0.7,5.3-3.7,9.4-2.6c2.4,0.6,4.2,2.6,6.2,3.1c1.2,0.3,3.4-0.7,5-0.2c2.6,0.7,5.1,2.7,6,5c1,2.5-0.9,5.7-0.2,7.2
				c0.5,0.6,6,4.2,6.7,4.3c0.8,0.2,6.7-4.2,7-5c-3.3-4.4,0.9-10.1,3.8-11.5c1.9-0.9,4.5,0.2,6.5-0.2c3-0.7,6.1-4,10.6-2.4
				c1.7,0.6,3.4,2.5,5,2.9c0.9-0.1,1.8-0.2,2.6-0.2c3.3,0,5.8,1,7.2,2.9c0.8,1.1,2.2,3.7,1.7,5.8c-0.3,1.4-0.9,2.4-0.7,3.8
				c2.1,0.9,5.2,2.5,6.7,4.1c1.5-0.4,6.8-3.8,7-5.3c-2.3-3.1-0.3-8.5,1.9-10.1c1.6-1.2,3.6-1.8,6.5-1.7c0.7,0.1,1.4,0.2,2.2,0.2
				c2.6-0.7,5.2-3.7,9.4-2.6c2.3,0.6,3.8,2.6,5.8,3.1c1.2,0.3,3.4-0.7,5-0.2c3.1,0.9,7.5,4.2,6.2,9.4c-0.2,1-0.7,1.5-0.7,2.9
				c12.1,7.1,21,15.4,26.2,29.5c1.2,3.2,3.3,11.4,2.2,16.6C393.1,409,392.7,410.4,392.6,411.8L392.6,411.8z M207.8,412.1
				c24.8-0.1,50-0.5,75.1-0.5c0-0.2,0-0.3,0-0.5c2.3-2.9,0.6-13-0.5-15.8c-3.4-9-7.3-15.7-14.4-20.9c-3.1-2.3-7.4-4-10.1-6.7
				c-1.1-1.1-1.7-3.1-2.2-4.8c-0.5-1.8,1.4-5.1,1-5.5c0-0.1,0-0.2,0-0.2c-3.4,0.7-6.1,0.1-8.6-1.2c-0.6-0.3-1.5-1.1-2.2-1.2
				c-1.3-0.2-4.6,2.2-5.8,2.6c-1.7,0.7-4,0-5.5-0.2c0,0.2,0,0.3,0,0.5c1,0.4,0.4,0.3,0.7,1.4c1.1,3.8-0.5,7.4-2.9,9.1
				c-3.3,2.4-7,4.1-10.3,6.5c-7.5,5.5-12.5,14-14.9,24.7C206.4,403.7,207.7,408.1,207.8,412.1L207.8,412.1z M291.8,411.6
				c9.8,0.1,19.7,0.2,29.5,0.2c3.9,0,7.8,0,11.8,0c3.3-3.7,0.4-15.4-1-19c-2.5-6.5-6.7-13.2-11.8-17c-4.5-3.4-13.8-6.8-14.2-13.9
				c-0.1-1.7,1-3.3,1.2-4.8c-1.6,0.2-4,0.9-5.8,0.2c-1.9-0.7-3.5-2.3-5.8-2.6c-2,1-4,1.9-6,2.9c-1.4,0.4-4.5-0.6-4.6-0.5
				c-0.3,0.9,1.5,3.6,1,6c-1.2,4.8-5.8,6.4-9.6,8.6c0.1,0.1,0.2,0.2,0.2,0.2c1.7,1.8,3.4,3.5,5,5.3
				C288.6,387.1,292.5,395.1,291.8,411.6L291.8,411.6z M341.8,412.1c14.2,0,28.5,0,42.7,0c1.9-14.9-1.4-21.5-7.9-30.2
				c-1.2-1.6-2.5-3.6-4.1-4.8c-2.1-1.6-4.1-3.4-6.2-4.8c-3.5-2.3-7.7-3.4-9.1-7.7c-0.9-2.7,0.4-5.3,0.7-7.4c-1.3,0.2-3.1,1-4.8,0.5
				c-2.3-0.6-4.2-2.4-6.7-2.9c-0.9,0.8-4.7,2.6-6,2.9c-1.6,0.4-4.2-0.8-4.6-0.5c-0.1,0-0.2,0-0.2,0c4.3,8.5-3.2,12-8.6,14.6
				c0,0.2,0,0.3,0,0.5c3.1,2.1,4.9,5.2,7,8.4C339.2,388.9,343.4,398.2,341.8,412.1L341.8,412.1z M237.1,365.3c0.8,0,1.7-0.1,2.2,0.2
				c1.5,0.4,2.1,1.4,2.6,2.6c1.6-1.8,1.6-2.9,5.3-2.9c0.6,0.4,1.3,0.8,1.9,1.2c0.4,0.5,0.4,1.2,0.7,1.7c0-0.1,0-0.2,0-0.2
				c1.5-1.6,1.7-2.7,5-2.6c2.6,2.5,6.5,4,6.5,9.1c-0.8,0.6-1.9,1.6-2.6,2.4c-3.4,0.1-7.9-4.2-8.6-6.5c-0.1,0-0.2,0-0.2,0
				c0,2.5,0,5,0,7.4c-0.3,0.3-0.4,0.9-0.5,1.4c-0.6,0.4-1.4,0.9-1.9,1.4c-1.4,0-2.5-0.1-3.6-0.2c-0.5-0.5-1-1-1.4-1.4
				c-1-1.8-0.3-6.5-0.2-8.9c-0.1,0-0.2,0-0.2,0c0,0.1,0,0.2,0,0.2c-0.4,0.5-0.5,1.2-1,1.7c-1.7,1.8-3.8,3.1-5.5,4.8
				c-2.8,0.1-6.1-1.4-5-4.8C231.4,369.1,235,367.2,237.1,365.3L237.1,365.3z M287.5,365.3c4.3-0.1,3.8,2.3,5,2.6
				c0.7-0.9,0.7-1.7,1.9-2.2c1.1-0.9,3.1-0.3,4.3,0c0.5,0.8,1,1.4,1.4,2.4c1-1.1,1.3-2.4,2.9-2.9c3.4-0.9,8.9,5.5,8.9,8.4
				c-0.4,0.5-0.5,1.4-1,1.9c-0.3,0.4-0.9,0.5-1.2,1c-1,0.1-2.6,0.5-3.6,0c-1.6-0.8-5-4.6-5.8-6.2c-0.1,0-0.2,0-0.2,0
				c0,2.6,0,5.1,0,7.7c-0.3,0.3-0.4,0.7-0.5,1.2c-0.6,0.4-1.4,0.9-1.9,1.4c-2.5,0.1-4.2-0.1-4.8-1.9c-1.1-1.5-0.5-6.3-0.5-8.6
				c-0.1,0-0.2,0-0.2,0c0,0.1,0,0.2,0,0.2c-0.3,0.4-0.4,1-0.7,1.4c-1.4,2-3.8,3.3-5.5,5c-0.9,0-2.1,0.1-2.6-0.2
				c-1.7-0.5-2.6-2.1-2.6-4.3c0.5-0.6,0.7-1.5,1.2-2.2C283.4,368.1,285.8,367,287.5,365.3L287.5,365.3z M337.9,365.3
				c1.5,0,2.3,0.2,3.4,0.5c0.4,0.7,1.2,2,1.9,2.4c0.3-3,3.3-3.1,6-2.4c0.5,0.8,1.1,1.2,1.4,2.4c0.2-0.2,0.1-0.1,0.2-0.5
				c0.8-0.8,1.8-1.6,2.6-2.4c4-0.1,8.9,4.7,8.9,8.6c-0.7,0.9-1.1,2.1-2.2,2.6c-3.3,1.6-8.4-4.4-9.4-6.2c-0.1,0-0.2,0-0.2,0
				c0,2.6,0,5.3,0,7.9c-0.2,0.3-0.1,0.2-0.2,0.7c-0.5,0.5-1,1-1.4,1.4c-0.9,0.1-1.8,0.2-2.6,0.2c-4.3-0.2-3.5-5.9-3.4-10.3
				c-0.1,0-0.2,0-0.2,0c0,0.1,0,0.2,0,0.2c-2.1,2.1-4.1,4.2-6.2,6.2c-3.8,0.1-5.2-1.3-5-5C333.6,369.5,335.7,367.4,337.9,365.3
				L337.9,365.3z M199,419.5c0.1,5.2,0.2,10.4,0.2,15.6c19.6-0.2,39.2,0,59.8,0c9.4,0,18.7,0,28.1,0c3.7-0.5,8.4-0.2,12.5-0.2
				c5-0.1,10.1-0.2,15.1-0.2c4.6,0,10.6-0.8,14.6,0.2c6.5,0,13,0,19.4,0c14.9-0.2,29.8-0.3,44.6-0.5c0-4.7,0-9.4,0-14.2
				c-1.8-0.6-5-0.3-7.2-0.2c-0.8-0.5-2.9-0.2-4.1-0.2c-3.3,0-6.6,0-9.8,0c-12.4,0-24.8,0-37.2,0c-28.6,0-58.1-0.2-87.1-0.2
				C231.6,419.5,214.6,420.2,199,419.5L199,419.5z M191.8,442.8c0,3.8,0,7.7,0,11.5c2.6,0.8,7,0.2,10.1,0.2c7.4,0,14.7,0,22.1,0
				c0.4,0.4,0.8,0.6,1.4,0.7c0.9,1.8,1.3,3,0.7,5.3c-3.2,2.3-6.2,1.7-11.5,1.7c-7.6,0-15.2,0-22.8,0c0,5.2,0,10.4,0,15.6
				c10.5,0,21,0,31.4,0c3.8,0,9.5-0.9,10.6,1.9c0.9,1.1,0.3,3.1,0,4.3c-3.1,2-8.1,1.4-13.2,1.4c-9.6,0-19.2,0-28.8,0
				c0,3.9,0,7.8,0,11.8c69.1,0,141.5-0.5,209.5,0.2c0-10.5-0.2-20.3-0.2-31.2c0-8,0.3-16,0-23.5
				C330.5,442.8,261.3,442.8,191.8,442.8L191.8,442.8z"/>
		</defs>
		<use xlink:href="#SVGID_1_"  style="overflow:visible;fill-rule:evenodd;clip-rule:evenodd;fill:#E0EEEC;"/>
		<clipPath id="SVGID_2_">
			<use xlink:href="#SVGID_1_"  style="overflow:visible;"/>
		</clipPath>
	</g>
</g>
</svg>
