<?xml version="1.0" encoding="utf-8"?>
<!-- Generator: Adobe Illustrator 24.2.1, SVG Export Plug-In . SVG Version: 6.00 Build 0)  -->
<svg version="1.1" id="Layer_1" xmlns="http://www.w3.org/2000/svg" xmlns:xlink="http://www.w3.org/1999/xlink" x="0px" y="0px"
	 viewBox="0 0 500 500" style="enable-background:new 0 0 500 500;" xml:space="preserve">
<style type="text/css">
	.st0{display:none;}
	.st1{fill:#F3F3F3;}
</style>
<rect class="st0" width="500" height="500"/>
<path class="st1" d="M334.9,35.9c2.4,1.6,3.4,4.6,5.4,6.5c0.5,0.5,1.2,0.8,1.9,0.8c4.9,0.5,4.8,5.6,6.9,8.1c0.9,1.1,2.4,1.4,3.7,1
	c15.9-5.7-6.7-23.6-16.4-22.4C333.3,30.2,332.4,34.3,334.9,35.9z"/>
<path class="st1" d="M60.6,283.4c10.5,5.9,22.9,4.2,16.1-9.3c-0.6-1.2-1.9-1.8-3.1-1.6c-6.1,0.9-11.2,2.2-14,6.6
	C58.6,280.6,59.1,282.6,60.6,283.4z"/>
<path class="st1" d="M159.9,127.4c8.1-4.6,4-12.5-7.1-12C141.8,118.1,149,127.9,159.9,127.4z"/>
<path class="st1" d="M134.9,66.2c1.9-8.6-9.9-8-15.4-5.1C119.3,70.3,130.8,71.2,134.9,66.2z"/>
<path class="st1" d="M147.9,85.7c-5.4-2.5-16.6,0-11.4,6.8C141.2,100.9,157.3,91.1,147.9,85.7z"/>
<path class="st1" d="M56.8,226.5c11.1,1.1,19.2-13.1,10.7-16.3C60.1,210.4,51.3,221.9,56.8,226.5z"/>
<path class="st1" d="M285.9,84.5c-0.1-5.9-7.5-6.6-13.3-5.1c-2.7,0.7-4.2,3.8-2.7,6.3c2.8,4.8,10.1,5.2,14.3,2.2
	C285.2,87.1,285.9,85.8,285.9,84.5z"/>
<path class="st1" d="M289,62.7c2.3,1.4,4.3,1.5,6.9,0.3C312.1,48.8,264.2,49.3,289,62.7z"/>
<path class="st1" d="M355,155.4c-3.1,9.9,9.3,15.5,20.1,7.5C380.8,155.5,359.9,151.3,355,155.4z"/>
<path class="st1" d="M424.2,225.1c8-7-11.3-12-16.3-8.6C401.6,224.1,415.2,232.4,424.2,225.1z"/>
<path class="st1" d="M432.5,275.5c-10.5,3-17.8-4.3-28.7-5.9c-6.7,0-9.9,1.7-19.7-2.6c-8.1-3.6-15.8,6.7-27.3,4.9
	c-16.7-2.5-27,5.8-32,7.9c-11.9,5-15.3-11.7-30.6-5.8c-1,0.4-9.1,17.4-16.2,15.3c-3.6-1.1-49,46.5-51.7,33.1
	c-2.9-13.9,46.1-57.7,52.3-52.6c5.7,4.7,20.4-24.3,25.2-23.4c6.7,0.9,9.3-10.8,17.8-8.7c4.2,1,10.7-5.2,15.4-1.7
	c4.9,3.6,15.9-1.3,16.2-7.3c0.4-4.8,27.1-12.2,32.8-9.1c21.6-3-7-19.4-17.4-15.2c-8.4,0.3-16.6,2.5-22.3-0.5c-1.5-2-3.9-3.1-7.4-2.3
	c-5.5-0.1-18,6.3-22,3c-4.6-3.7-9.5,2.3-14.9,0.7c-6.2,0.5-15.9,6-19.2,11.5c-11.4,19.1-22.9,9.5-18.5-3.6
	c2.6-8,12.6-12.5,26.3-23.8c8.1-6.7-11.8-4.4-6.3-12c15.6-21.6,50.2-1.1,55-27.6c0.5-2.8-12-7.8-15.8-10.3
	c-21.4-13.4-27.5,11.2-39.1,4.8c-6.3-15.5-17.4,6-22.6,4.3c-15.2-5-12.8,11.3-28.6,21c-19.3,11.8-17.5-28.2-7.3-23.4
	c5.9,2.8,7.1,5.5,13.6-0.8c2.4-6.1-15.7-6-8.6-19.8c4.3-6.7,5.2,3.3,13.2,1.9c2.8-2.6,2.8-9.1,5.2-12.1c6-7.5,39.9,16.4,32.7-1
	c-6.4-15.3-38.9-9.3-35.1-18.8c13.7-34.2,34.4-80.8,64.3-53.7c7.5,14,12-11.2,4.4-18.9c-14.1-4.1-34.5,13-41.6,1
	c-9.2-6.5-11.3,35.3-23,29.1c-6.4,1.1-12.9,36.7-17.9,37.7c-26.6,5.3-7.4,9.8-14.8,23.5c-3.6,6.5-2.8,16.2-7.2,13.4
	c-9.5-6-6.3,23-13.4,18.2c-16-6.5,5.7-61-7.6-55.7c-8.6,7.2-23.8-49.2-42.4-52.6c-1.9-0.9-8.1-4.6-7.9-6.6c0.5-5-9.9-9.8-11.3-3.9
	c-7.1,2.3-37.3-5.7-46.9,14.4c-1.2,2.5,2.5,10.2,4.9,8.5c69.3-50.2,103,94.8,90.6,92.6c-29.3-5.2-39.5,0.4-51.7,6.1
	c-2.9,8.5-11.2,8.8-15.8,12.3c-5.4,2.3,2.6,6.1-0.3,9.7c-5.5,7-10,7.8-17.8,11.1c-10.6,2.2-18.9,28.6-1.1,18.9
	c9.3-4.1,20.4-6,24.4-13.5c3.2-5.9,15.6,0.6,21-7.5c9.4-10.6,33.5,4.7,40.8,2.3c10-3.2,33.7,24.6,38.1,22
	c5.8-3.3,27.3,30.1,16.4,32.8c-7.1,1.7-24.2-27.9-32-24c-5.6,2.8-21.7-15.9-23.5-16c-21.2-2.1-20.8,15-25.2,15.4
	c-32.8,2.5-51.7,16.6-55.1,29.1c-1.1,3.8-13.3,6.4-14.2,13.6c-1,5.4,25.8,16.5,21.7,7.4c-6.5-7.8,49.2-27.3,51.7-15.4
	c1.4,6.4,26-0.3,32.4,5.5c41.3,37.5,27.4,50.4-5.7,18.4c-8.2-8-30.7,12.1-36,10.5c-11.5-3.6-25.6,19-34.2,17.7
	c-8.8-1.3-13.8,17.6-20.4,22.6c-11.2,8.5-8.1,15.1-16.9,19.5c-9.2,4.6-30.3,22.8-21.6,29.2c17.5,12.8,10.7,0.1,19-5.9
	c17.5-2.5,28.8-18.3,37.2-16.7c7.9,1.4,32.9-4.6,47-12.5c10.4-5.8,33.1,14,42.7,10.1c8-3.3,78.2,42.1,55.1,43.4
	c-2.4,0.1-55.3-33.9-65.4-27.8c-6.5,3.9-26.7-12.3-29.6-5.8c-2.6,5.9,0.1,3.5,3,13.4c3,10.1-18.3-3.1-24.2,6.8
	c-9,15-15.4,6.2-19,11.2c-8.2,11.3-17.4,8-28.5,12.3c-15.4,0.8-34.5,50.6-10.6,36.2c7.6-6.9,15.2-20.7,23.1-13.2
	c2.1,1.9,13.7,7.8,21.7-1.5c17.8-20.7,21.8,11.8,42.6-9.1c3.1-3.1,8.4-0.4,14,1.7c7.9,2.9-5,17.2,2.5,25.2c6,10.1,20.2-9.5,30.5,7.3
	c2.3,3.8,116.5,3.5,102.2-12.8c-2.5-2.9-6.4-8.3-8.3-10.6c-11.9-14.8,2.6-17.9,19.2-4.9c10.8,8.5,2.9,17.5,25.5,2
	c29-21.5,85.2,48.4,56.6-15.1c0.1-3.5-14.7-11-14.7-14.2c0.1-8.4-16.5-7.5-20-6.1c-44.1,17.9-26.5-3.4-32.2-5
	c-54.1-15.7-78.2-48.8-28.1-25.2c8.8,4.1,34.9,18.1,39.2,13.3c6.7-7.6,32.4-1.4,37.6-5.7c11.2-9.3-66.4-60.5-22-45
	c11,3.9,17.1-20.5,24.2-20.5c13.7,1.2,13.9-6,23.2-3.7C442.7,299.5,482.5,284.3,432.5,275.5z"/>
</svg>
