<?xml version="1.0" encoding="utf-8"?>
<!-- Generator: Adobe Illustrator 24.2.0, SVG Export Plug-In . SVG Version: 6.00 Build 0)  -->
<svg version="1.1" id="Layer_1" xmlns="http://www.w3.org/2000/svg" xmlns:xlink="http://www.w3.org/1999/xlink" x="0px" y="0px"
	 viewBox="0 0 500 500" style="enable-background:new 0 0 500 500;" xml:space="preserve">
<style type="text/css">
	.st0{fill:#F3F3F3;}
</style>
<path class="st0" d="M452,287c-6-1-15.4-2.4-22-3c-11-1-40.6-5.1-48-5.7c-12.1-1-24.1-2.5-36.1-4c-15-1.9-30-4.1-45-6.1
	c-7.1-1-14.2-2.1-21.4-2.7c-13.2-1-26.5-1.7-39.7-2.6c-8.3-0.6-16.6-1.5-24.9-2.1c-6.7-0.5-16.4-1-26.1-1.5
	c-4.4-8.6-7-22.1-10.3-27.9c-7-12.4-26.3-30-39.4-35.4c-9.4-3.9-18.9-5.3-28.9-2.7c-3.2,0.8-6.6,0.8-10.2,1.3
	c-3.5-7.7-8.8-13.1-15.8-16.5c-1.9-0.9-4.7-1.9-6.4-1.1c-10,4.4-20.4,8.1-25,19.9c-2.2,5.6-7.1,10.2-10.8,15.2c-1.4,1.4,5,6.8,5,6.8
	s-0.7-6,1-6c1-1,1.5-1.8,2-2c3-1.2,2.8-2.9,6.2-3.1c5.2-0.4,10.3-1.6,16.4-2.6c-0.4,4.7-0.9,8.3-1,11.9
	c-0.1,13.5,5.7,20.4,18.7,23.1c7.6,1.6,8.1,1.8,15.6,9.4c-7.6,4.7-16.1,1.4-23.3,3.2c-7.9,2-15.2,2.3-22.8,1.2
	c-3.1,4.2,0.1,4.8,2.3,8.2c3.7,5.7,9.4,2.9,13.7,1.7c2.4-0.6,34-4.7,36-3c7,1.5,12,0,15.1,3.3c3.9-2.3,5.9-0.3,7.9,1.8c4-2,7-3,11,0
	c5.6,0.5,2-2.3,6.3-1.9c6.6,0.7,11.2,1.2,12.2,1.2c0,0,0.3,0,0.7,0c2.4,6.9,7.1,16.6,8.8,19.2c-0.9-7.6,14.9,1.9,12.7-0.5
	c-6.6-7.1,16.9,4,15.4,1.9c-6-9,14.5-5.1,17.3-4.8c-1.3-1.2-15.3-6.2-13.9-6.8c-1.4-1.4,13.6-0.4,18.1-1.2
	c-4.2-1.3-23.6-5.7-27.3-6.5c0,0-0.1,0-0.1,0c7.6,0.4,15.3,0.8,22.9,1.4c26.5,2,52.9,4.2,79.3,7c16.2,1.7,32.2,4.6,48.4,7
	c16.5,2.4,24.3,2.9,43.3,5.9c5,1,59,10,63,10S458,288,452,287z"/>
<g>
	<g>
		<path class="st0" d="M71.6,218.8c6,7.9,15.6,10.6,24.3,14.5c1.7,0.8,3.3-1.8,1.5-2.6c-8-3.6-17.7-6.1-23.2-13.4
			C73.1,215.8,70.5,217.2,71.6,218.8L71.6,218.8z"/>
	</g>
</g>
<g>
	<g>
		<path class="st0" d="M78.7,221.9c1.1,1.5,2.4,2.6,4,3.6c1.7,1.2,3.5,2.3,5.3,3.5c3.6,2.3,7.1,4.7,10.7,7c1.6,1.1,3.1-1.5,1.5-2.6
			c-3.3-2.2-6.7-4.4-10-6.6c-1.6-1.1-3.3-2.2-4.9-3.2c-1.4-0.9-2.9-1.8-3.9-3.2c-0.5-0.7-1.3-1-2.1-0.5
			C78.6,220.2,78.2,221.2,78.7,221.9L78.7,221.9z"/>
	</g>
</g>
</svg>
