<?xml version="1.0" encoding="utf-8"?>
<!-- Generator: Adobe Illustrator 24.2.1, SVG Export Plug-In . SVG Version: 6.00 Build 0)  -->
<svg version="1.1" id="Layer_1" xmlns="http://www.w3.org/2000/svg" xmlns:xlink="http://www.w3.org/1999/xlink" x="0px" y="0px"
	 viewBox="0 0 710 500" style="enable-background:new 0 0 710 500;" xml:space="preserve">
<style type="text/css">
	.st0{fill:#F3F3F3;}
</style>
<path class="st0" d="M665.3,336c-12.3-2-46.9-7.8-63.7-10.5c-16.2-2.5-79.8-13.9-125.7-18.3c-72-7-154.6-12.1-166.6-12.8
	c-0.3-3.4,26.8-4.2,26.3-5.3c-6.6-16-13.1-31.4-19.3-42.4c-14.3-25.3-53.8-61.2-80.6-72.4c-19.2-8-38.6-10.9-59.1-5.5
	c-5.6,1.2-3.8,1.4-8.8,3c-0.8,0.3,11.2,26.3,7.9,26.6c-7.2-15.8-37.9-53.7-52.2-60.7c-3.9-1.9-9.6-3.8-13-2.3
	C90,144.3,68.8,151.8,59.4,176c-4.5,11.5-14.6,20.8-22.1,31.1c-2.9,2.9,10.2,14,10.2,14s-1.5-12.3,2-12.3c2-2,3.1-3.7,4.1-4.1
	c6.1-2.5,5.8-5.8,12.8-6.4c8.1-0.7,25.5,3,33.1,0.4c0.5-0.2,10.1-7.4,10.9-7.7c0.6-0.2-17.9,0.5-17.5,0.1c11.9-10.1,7.3-17-8.1-17.4
	c3.3,0.2,8.6-10.8,10.1-10.9c1.8-0.1,45.2-4.9,29.6,16.4C140,190,98,198,97.8,218.2c-0.2,27.5,11.6,40.8,38.3,46.2
	c14.6,3,16.3-0.4,29.2,12.6c0.8,0.9,26.6,4.9,26.7,8.7c-1.1,0.2-25.1-1.4-25.6-1.1c-15.2,8.3-31.8,2-46,5.6
	c-16.1,4.1-31.1,4.6-46.6,2.5c-6.4,8.7,0.1,9.9,4.7,16.8c7.6,11.6,19.1,5.9,28.1,3.4c4.8-1.3,69.6-9.6,73.6-6.1
	c14.3,3.1,24.5,0,30.9,6.6c7.9-4.6,12-0.5,16.1,3.6c8.2-4.1,14.3-6.1,22.5,0c11.4,1,4-4.7,12.8-3.8c13.5,1.4,22.9,2.4,24.9,2.5
	c0,0,0.6,0,1.4,0.1c5,14,10.5,38.9,14,44.3c-1.9-15.5,28.4,7.9,23.9,3.1c-13.5-14.6,30.5,5.2,27.5,0.8c-12.3-18.4,29.7-2.4,35.3-1.8
	c-2.6-2.5-25.2-18.7-22.4-19.9c-2.9-2.9,20.8,3.1,30,1.6c-6.9-2.2-38.9-15.8-50.3-19.9c-5,1-24.3-5.7-23.6-6.4s32.4,1.2,34.1,1.3
	c7.5,0.4,53.3,1.6,105.1,6.4c44,4.1,114.5,16.4,147.6,22.1c54.1,4,49,11,57.2,11C675.5,358.5,677.6,338.1,665.3,336z"/>
</svg>
