<?xml version="1.0" encoding="utf-8"?>
<!-- Generator: Adobe Illustrator 24.2.0, SVG Export Plug-In . SVG Version: 6.00 Build 0)  -->
<svg version="1.1" id="Layer_1" xmlns="http://www.w3.org/2000/svg" xmlns:xlink="http://www.w3.org/1999/xlink" x="0px" y="0px"
	 viewBox="0 0 500 500" style="enable-background:new 0 0 500 500;" xml:space="preserve">
<style type="text/css">
	.st0{fill:#F3F3F3;}
</style>
<path class="st0" d="M454.3,311c-12.3-2-46.7-9.3-63.7-10.5c-13.8-1-33.6-6.1-53.3-7.1c-9.1-17.5-14.4-35-21-46.8
	c-14.3-25.3-53.8-61.2-80.6-72.4c-19.2-8-38.6-10.9-59.1-5.5c-6.5,1.7-13.5,1.7-20.9,2.6c-7.2-15.8-17.9-26.7-32.2-33.7
	c-3.9-1.9-9.6-3.8-13-2.3C90,144.3,68.8,151.8,59.4,176c-4.5,11.5-14.6,20.8-22.1,31.1c-2.9,2.9,10.2,14,10.2,14s-1.5-12.3,2-12.3
	c2-2,3.1-3.7,4.1-4.1c6.1-2.5,5.8-5.8,12.8-6.4c10.6-0.9,21.1-3.3,33.5-5.4c-0.8,9.7-1.9,17-1.9,24.4c-0.1,27.5,11.6,41.8,38.3,47.2
	c15.6,3.2,16.5,3.7,31.9,19.3c-15.6,9.6-32.9,2.8-47.6,6.5c-16.1,4.1-31.1,4.6-46.6,2.5c-6.4,8.7,0.1,9.9,4.7,16.8
	c7.6,11.6,19.1,5.9,28.1,3.4c4.8-1.3,69.6-9.6,73.6-6.1c14.3,3.1,24.5,0,30.9,6.6c7.9-4.6,12-0.5,16.1,3.6c8.2-4.1,14.3-6.1,22.5,0
	c11.4,1,4-4.7,12.8-3.8c13.5,1.4,22.9,2.4,24.9,2.5c0,0,0.6,0,1.4,0.1c5,14,14.5,33.9,18,39.3c-1.9-15.5,30.4,3.9,25.9-0.9
	c-13.5-14.6,34.5,8.2,31.5,3.8c-12.3-18.4,29.7-10.4,35.3-9.8c-2.6-2.5-31.2-12.7-28.4-13.9c-2.9-2.9,27.8-0.9,37-2.4
	c-8.5-2.7-48.3-11.7-55.7-13.2c-0.1,0-0.1,0-0.2-0.1c15.6,0.8,31.2,1.7,46.8,2.8c54.1,4,49,12,57.2,12S466.6,313.1,454.3,311z"/>
</svg>
