<?xml version="1.0" encoding="utf-8"?>
<!-- Generator: Adobe Illustrator 24.2.1, SVG Export Plug-In . SVG Version: 6.00 Build 0)  -->
<svg version="1.1" id="Layer_1" xmlns="http://www.w3.org/2000/svg" xmlns:xlink="http://www.w3.org/1999/xlink" x="0px" y="0px"
	 viewBox="0 0 500 500" style="enable-background:new 0 0 500 500;" xml:space="preserve">
<style type="text/css">
	.st0{fill:#F3F3F3;}
</style>
<path class="st0" d="M454.3,311c-12.3-2-46.7-9.3-63.7-10.5c-13.8-1-61.6-5.1-81.3-6.1c-0.3-3.4,26.8-4.2,26.3-5.3
	c-6.6-16-13.1-31.4-19.3-42.4c-14.3-25.3-53.8-61.2-80.6-72.4c-19.2-8-38.6-10.9-59.1-5.5c-5.6,1.2-3.8,1.4-8.8,3
	c-0.8,0.3,11.2,26.3,7.9,26.6c-7.2-15.8-37.9-53.7-52.2-60.7c-3.9-1.9-9.6-3.8-13-2.3C90,144.3,68.8,151.8,59.4,176
	c-4.5,11.5-14.6,20.8-22.1,31.1c-2.9,2.9,10.2,14,10.2,14s-1.5-12.3,2-12.3c2-2,3.1-3.7,4.1-4.1c6.1-2.5,5.8-5.8,12.8-6.4
	c8.1-0.7,29.5,0,37.1-2.6c0.6-0.2,2.3-2.4,2.9-2.7c0.6-0.2-13.9,0.5-13.5,0.1c5.4-4.6,0.5-19.1-8.1-19.4c3.3,0.2,6.3-1.8,2.8-4.3
	c1.4-1.4,5.7-0.5,7.2-0.5c1.8-0.1,30.2-3.9,18.6,10.4C129,184,98,197,97.8,217.2c-0.2,27.5,11.6,41.8,38.3,47.2
	c14.6,3,16.3-0.4,29.2,12.6c0.8,0.9,26.6,4.9,26.7,8.7c-1.1,0.2-25.1-1.4-25.6-1.1c-15.2,8.3-31.8,2-46,5.6
	c-16.1,4.1-31.1,4.6-46.6,2.5c-6.4,8.7,0.1,9.9,4.7,16.8c7.6,11.6,19.1,5.9,28.1,3.4c4.8-1.3,69.6-9.6,73.6-6.1
	c14.3,3.1,24.5,0,30.9,6.6c7.9-4.6,12-0.5,16.1,3.6c8.2-4.1,14.3-6.1,22.5,0c11.4,1,4-4.7,12.8-3.8c13.5,1.4,22.9,2.4,24.9,2.5
	c0,0,0.6,0,1.4,0.1c5,14,10.5,38.9,14,44.3c-1.9-15.5,28.4,7.9,23.9,3.1c-13.5-14.6,30.5,5.2,27.5,0.8c-12.3-18.4,29.7-2.4,35.3-1.8
	c-2.6-2.5-25.2-18.7-22.4-19.9c-2.9-2.9,20.8,3.1,30,1.6c-6.9-2.2-38.9-15.8-50.3-19.9c-5,1-24.3-5.7-23.6-6.4s32.4,1.2,34.1,1.3
	c13.9,0.7,27.8,1.5,41.7,2.6c54.1,4,49,12,57.2,12S466.6,313.1,454.3,311z"/>
</svg>
