<?xml version="1.0" encoding="utf-8"?>
<!-- Generator: Adobe Illustrator 24.2.1, SVG Export Plug-In . SVG Version: 6.00 Build 0)  -->
<svg version="1.1" id="Layer_1" xmlns="http://www.w3.org/2000/svg" xmlns:xlink="http://www.w3.org/1999/xlink" x="0px" y="0px"
	 viewBox="0 0 710 500" style="enable-background:new 0 0 710 500;" xml:space="preserve">
<style type="text/css">
	.st0{fill:#F3F3F3;}
</style>
<path class="st0" d="M665.3,336c-12.3-2-44.3-5-63.7-10.5c-26.6-2.5-34.6-3.4-61.3-8.5c-0.9-0.2-2.3,8-6.8,7.5
	c-0.6-0.1-2.5-8.5-3.7-8.3c-25.8-0.1-48.4-7-72.8-10.3c-0.4,0-4,10.1-10.1,10.9c-1,0.1-0.9-11.7-3.8-12.2c-25.4-0.4-56-6.4-78.7-9
	c-0.6-0.1-1.4,16.5-9.8,15.8c-0.6-1.3-1.6-16.3-6-16.3c-27.7-1-34.9-1.3-40.4-1.6c-0.2-1.3,0.5-6.4,1.8-7.3c5.9-4,24,0.9,22.5-3
	c-5.9-16.3-10.1-25.4-16.3-36.4c-14.3-25.3-53.8-61.2-80.6-72.4c-19.2-8-38.6-10.9-59.1-5.5c-5.6,1.2-0.8,0.4-5.8,2
	c-0.6,0.2,9.9,17.9,11.2,24.7c0.3,1.7-5.1,4.5-6.4,2.8c-7.2-15.8-32.9-59.7-47.2-66.7c-3.9-1.9-14.6-2.8-18-1.3
	C90,139.3,67.8,148.8,58.4,173c-4.5,11.5-16.6,25.8-24.1,36.1c-2.3,2.3,5.4,9.7,8.7,12.7c0.6,0.6,1.6,0.2,1.8-0.6
	c0.6-3.7,2.1-11.3,4.8-11.3c2-2,3.1-3.7,4.1-4.1c6.1-2.5,5.8-5.8,12.8-6.4c8.1-0.7,24.5,2,32.1-0.6c0.5-0.2,9.6-3.7,6.9-7.7
	c-1.2-1.8-14.3,2-13.3-3c11.9-10.1,8.1-15.8-7.3-16.2C79,171,88,158,94.8,156.9c9.2-1.9,46.2,2.1,32.6,20.4
	C139,189,98,198,97.8,218.2c-0.2,27.5,11.6,40.8,38.3,46.2c14.6,3,16.3-4.4,29.2,8.6c0.7,0.7,16.9,0.4,23.8,3.3
	c1.8,0.8,4.9,8.6,4.9,9.4c-1.1,0.2-27.1-1.4-27.6-1.1c-16.3,5.9-21.6,4.5-35.1,5.4c-0.4,0,1.6,10.9-5.3,15.1
	c-2.1-2.2-4.1-10.2-9.6-14.9c-16.1,4.1-29.1,4.6-44.6,2.5c-2,0.2,0,5.2,2.8,5.7C86,299,90,315,85.7,314.7C79,311,79,319,86.6,320
	c10.4-2,24.4-9,38.3-8.6c23.1-4.4,52.7-6.8,55.5-4.5c14.3,3.1,24.5,0,30.9,6.6c7.9-4.6,12-0.5,16.1,3.6c8.2-4.1,14.3-6.1,22.5,0
	c11.4,1,4-4.7,12.8-3.8c13.5,1.4,22.9,2.4,24.9,2.5c0,0,0.6,0,1.4,0.1c5,14-2,43.1,14,44.3c11.1-10.2,23.8,9.6,23.9,3.1
	c0.2-11.3,24.6,5.2,27.5,0.8c10.7-16,26.7,2,35.3-1.8c-0.7-4.3-0.7-13.3,7.6-18.3C390,340,358.3,331.1,347,327
	c-3.7,3.1-14-0.2-19.7-3.2c-3.6-2-4.2-5.9-3.9-6.1c0.6-0.6,15.6-0.6,32.1,1.3C382,317,419,321,447,326.5c26,0.5,57,5.5,86.7,12
	c28.3,1.6,53.6,5.1,68.5,9c54.1,4,57,11,65.2,11C675.5,358.5,677.6,338.1,665.3,336z"/>
</svg>
