<?xml version="1.0" encoding="utf-8"?>
<!-- Generator: Adobe Illustrator 24.2.1, SVG Export Plug-In . SVG Version: 6.00 Build 0)  -->
<svg version="1.1" id="Layer_1" xmlns="http://www.w3.org/2000/svg" xmlns:xlink="http://www.w3.org/1999/xlink" x="0px" y="0px"
	 viewBox="0 0 500 500" style="enable-background:new 0 0 500 500;" xml:space="preserve">
<style type="text/css">
	.st0{fill:#F7F2EA;}
	.st1{display:none;fill:#F7F2EA;}
	.st2{fill:#F7F2EA;stroke:#000000;stroke-width:0;stroke-linecap:round;stroke-linejoin:round;}
</style>
<polygon class="st0" points="260.2,324.3 260.2,324.3 260.2,324.3 "/>
<path class="st0" d="M279.8,453.8L279.8,453.8C279.8,453.8,279.8,453.8,279.8,453.8z"/>
<path class="st0" d="M195.2,333.3l53,3.5c1.4,0,2.8,0,4.2-0.3c1.8-0.4,5.1-0.1,9,0.1c3.9,0.2,28.8-29.2,28.8-29.2
	c1.9-1.3,21.7-25.5,22.6-27.1c12.9-21,5.5-12.1,15.4-34.1c6.2-13.9,9.6-54.8,15-54.8c8-1.5,6.7,24.5,6.1,31.1
	c-2.9,33.6-12.1,57.8-42.1,83.2c0,0-24.2,21.1-26.7,24.8c-2.5,3.8,14.3-3.2,14.3-3.2c2.5-2,34.7-22,37.3-24
	c9.6-7.5,19.6-14.8,28-23.7c20.8-22.2,29.6-49.7,23.3-79.3c-8.1-38.3-51.4-66.6-72.7-69.6c-0.3,0-12.9,0.2-7.8,3.9
	c6.3,3.3,15.3,7.3,19.3,9.1c4.1,1.9,10.9,6.9,13.2,10.3c2.2,3.2,9,13.6,2.9,15.6c0,3.4-37.1-29.2-55.1-30.2
	c-4.7-0.7-6.3-3.3-3.3-5.9c-0.4-1.9,6.7-0.7,7-4c0.8-6-60,3.8-57.9-1.6c0.1-2.9,7.8-6.1,7-9.7c-1.2-1.6-3.1-3.3-2.5-4.5
	c0-0.6,5.4-3.6,0.5-4.9c-0.6-0.2,1.3-3,1.7-3.3c16.9,1,48.1,3.1,50.8,0c0-0.7-0.9-6.5-0.9-7.2c-1.8-1.7-4.7-0.8-6.1-0.8
	c-18.9-0.3-32.9-0.9-51.8-0.5c-5,0.1-4.5-1.5-4.7-5.3c-0.8-13.4-2-19.9-2.7-33.3c-0.6-12.6-1.6-39-4.2-40.4c-1.3,0-7.7,0-10.8,2.5
	c-5.1,4.8,3,46.2,4.9,70.8c0.6,7,0.7,7.5-7.7,7.7c-3.9,0.1-4.8,1.8-8.7,2.6c-4.7,1-7.6,3.3-8.1,8.6c-0.6,5.8-2.1,18.5-2.8,24.3
	c-0.7,5.6-1.4,10.5-9.1,7.3c-0.8-0.3-2.2,0.4-3.3,0.8c-8.7,3.4-17.4,7.1-26.2,10.3c-29.9,11-54.2,26.9-64.5,59.9
	c-7.4,23.5-5.5,44.3,9,63.8c17.4,23.4,42.8,35.4,68.7,46.4c0.5,0.2,12.3,5,14,5c0,0,0-0.1,0-0.1c2.1,1.4,5.3,1.6,7.9,2.4
	L195.2,333.3z M257.8,324.3C257.8,324.3,257.8,324.3,257.8,324.3C257.8,324.3,257.8,324.3,257.8,324.3L257.8,324.3z M297.7,155.8
	c2.3,0.8,2.7,3.9-0.3,3.9c-6.9,1.1-9.6-0.3-16.6-2.4c2.3,5.9,2.4,19.9-2.2,19.9c-2-1.5-8.4-15.5-14.7-22.2c-4.6-4.8-9.7-11-1.3-10.4
	C267.3,142.3,285.9,149.9,297.7,155.8z M250.6,315.5c3.6-4.1,26.9-55.1,28.2-80.4c0.6-12.6-2.4-57.8,10-38.8
	c6.6,40.2,2.1,77.5-20.7,110.9c-0.3,0.5-10.6,12.2-10.8,12.9C257.3,320.1,249.9,322.4,250.6,315.5z M219.7,184.2
	c-1.7,13.3-0.5,48.4,1.3,61.3c3,21,10.2,50,12.7,59.7c2.5,9.7-7.6,8.4-7.6,8.4C220.5,311.9,183.8,167.8,219.7,184.2z M127.7,280.8
	c-7.3-9.8-12.4-29-13.2-30.1c0.9,0.3,1.9-18.3,20,13.4c7.3,12.7,30.4,35.6,36.7,37.3c8.3,2.3-1.5,11.1-1.5,11.1
	C175.9,316.4,139.6,296.7,127.7,280.8z M156.1,212.2c9.8-3.3,10,19.9,19.5,47.1c7,19.9,20.4,37.9,31.5,50.2c0,5.1-12.5-2.5-12.5-2.5
	C168.4,280.8,152.4,249.2,156.1,212.2z"/>
<path class="st0" d="M282.3,76.1c-1.1-22.6-3.1-53.4-3.3-56.7s-10-2.1-10-2.1c-7.2,0.6-1.8,71.1,1.1,70.8
	C278.4,89.9,282.5,80,282.3,76.1z"/>
<path class="st0" d="M416.8,200.9c0,1.6-14.8-20.9-24.8-26.9c-6.6-4-8.2-3.3-10.2-1.8c-1.4,1.1,9.2,25.1,9.8,27.3
	c6.4,22.6,2.5,43.9-8.3,64.1c-11.3,21.1-29.2,36.5-49.6,48.2c-2.5,1.5-21.3,13.3-23.4,15.5c-0.7,1.1-0.3,1.6,0.6,1.6
	c6.2-1.8,23.4-9.2,34.4-13.9c3.1-1.3,5.7-2.4,7.4-3.1c1.2-0.5,14,1.2-12.3,11.5c-10.9,4.3-6.4,7.6,10.3,3.7
	c26.3-6,46.3-24.8,47.4-26.1c7.3-8.4,4.8-9.5-4.1-4.2c-5.9,3.5-15,4.7-5.5-4.6c11.7-11.3,23.4-22.1,29.8-37.7
	C425.8,236.6,425.1,218.5,416.8,200.9z"/>
<path class="st1" d="M372,311.5c-9.1,4.4-39,15.1-38.7,15.7c27.5,5.6,67.3-19.5,71.9-38.3c-1.9,1-7.2,7-9,8
	C388.1,301.2,380.2,307.5,372,311.5z"/>
<path class="st0" d="M320.5,354.7c-1.2-0.4-2.3-0.4-3.2-0.1c-18.7,1.2-75.5,1.5-101-1c-4.6,1.3-9.5,2.2-13.8,0.9
	c-2.3,0.1-2.1-1.2-2.3-3.9c-1.2-1.3-2.5-3.1-3.9-3.3c-1.1-0.2-3.3,1.6-3.6,2.8c-10.1,23.9-3.7,49.8-3.6,75
	c0.8,14.8-3.9,29.8,2.7,43.7c11,1.9,6.3-12.3,11.1-13.7c3.2-0.9,5.4-18.5,10.1-19.3c0.3-0.1,11.3,2.8,12.3,5.8
	c2.8,8.6,4.6,5.7,6.2,6.4c0.7,0,5.6,1.1,6.7,1.7c2.4,1.3,4.1,4.1,5,5c3.2,3.2,2.5-0.1,6.5,2.2c3.9,2.3,3.1,0.7,4.8,1.6
	c1.6,0.9,3.6,1.3,5.2,2.2c1.9,1,1.7,0.7,3.9,0.4c1.4-0.2,4.6-0.9,5.7,0c1,0.8,0.8,1.8,2.2,3.3c0.8,0.9,7.8,2,8.6,1.7
	c1.2-0.5,1.5-0.1,2.8-0.5c2.8-0.8,4.6,2.1,7.5,1.9c0.9-0.1,2.6-0.9,3.4-1.1c1.6-0.3,4.1-0.9,5.6-1.5c2.6-0.9,7.7-2.7,10.3-3.6
	c3.4-1.2,12.7,4.3,17.8,1.3C327.1,457.5,320.5,359.4,320.5,354.7z M279.8,453.8C279.8,453.8,279.8,453.8,279.8,453.8L279.8,453.8z
	 M288.7,463.3C288.7,463.3,288.7,463.4,288.7,463.3C288.7,463.4,288.7,463.3,288.7,463.3z"/>
<path class="st2" d="M288.7,463.4C288.7,463.4,288.7,463.3,288.7,463.4"/>
<path class="st0" d="M197.1,466.3C197.1,466.3,197.1,466.3,197.1,466.3C197,466.3,197,466.3,197.1,466.3c-0.1,0.1-0.1,0.1-0.1,0.1
	C197,466.4,197,466.4,197.1,466.3C197.1,466.3,197.1,466.3,197.1,466.3L197.1,466.3C197.1,466.3,197.1,466.3,197.1,466.3
	C197.1,466.3,197.1,466.3,197.1,466.3z"/>
</svg>
