<?xml version="1.0" encoding="utf-8"?>
<!-- Generator: Adobe Illustrator 24.2.0, SVG Export Plug-In . SVG Version: 6.00 Build 0)  -->
<svg version="1.1" id="Layer_1" xmlns="http://www.w3.org/2000/svg" xmlns:xlink="http://www.w3.org/1999/xlink" x="0px" y="0px"
	 viewBox="0 0 500 500" style="enable-background:new 0 0 500 500;" xml:space="preserve">
<style type="text/css">
	.st0{fill:#F7F2EA;}
	.st1{fill:#F7F2EA;stroke:#000000;stroke-width:0;stroke-linecap:round;stroke-linejoin:round;}
</style>
<g>
	<polygon class="st0" points="260.2,324 260.2,324 260.2,324 	"/>
	<path class="st0" d="M279.8,453.6L279.8,453.6C279.8,453.6,279.8,453.6,279.8,453.6z"/>
	<path class="st0" d="M195.2,333l53,3.5c1.4,0,2.8,0,4.2-0.3c1.8-0.4,3.5-1.3,5.3-1.3c1.2,0,2.5,0.9,3.8,1.4l33.8-29.2
		c1.9-1.3,21.7-25.5,22.6-27.1c12.9-21,5.5-12.1,15.4-34.1c6.2-13.9,4.6-54.8,10-54.8c4.9-1.2,4.7,24.5,4.1,31.1
		c-2.9,33.6-12.1,57.8-42.1,83.2l-27.7,24.8l17.3-3.2c2.5-2,34.7-22,37.3-24c9.6-7.5,19.6-14.8,28-23.7
		c20.8-22.2,29.6-49.7,23.3-79.3c-8.1-38.3-55.1-64.9-73.7-62.6c-0.3,0-0.8,0.3-1.8,0.9c6.3,3.3,9.3,3.3,13.3,5.1
		c4.1,1.9,8.9,5.9,11.2,9.3c2.2,3.2,8,10.6,1.9,12.6c-14.3-18-28.6-23.6-49.1-29.2c2-0.1-1.3-1.8,0.7-1.9c0-0.7,0-3.3,0-4
		c-19.3-4.2-39-1.6-56.9-2.6c2.2-2.7,4.6-3.7,7-6.7c-0.8-0.2-1.6-0.4-2.5-0.5c0-1.2-0.5-2.9,0.1-3.4c5.8-4.8,5.1-6.1-0.6-6.6
		c-0.7-0.1,0.7,0.2,0,0c0.3-0.8,2.5-0.5,2.7-1.3c17.9,0,30.9,0,48.8,0c0-0.7-0.9-3.5-0.9-4.2c-1.4-0.3-2.7-0.8-4.1-0.8
		c-18.9-0.3-35.9-0.9-54.8-0.5c-5,0.1-4.5-1.5-4.7-5.3c-0.8-13.4-2-26.9-2.7-40.3c-0.6-12.6-0.9-27.8-1.2-40.4c-1.3,0-4.7,0-7.8,2.5
		c1.6,24.6,3,49.2,4.9,73.8c0.6,7,0.7,11.5-7.7,11.7c-3.9,0.1-7.8,1.8-11.7,2.6c-4.7,1-7.6,3.3-8.1,8.6c-0.6,5.8-2.1,11.5-2.8,17.3
		c-0.7,5.6-1.4,10.5-9.1,7.3c-0.8-0.3-2.2,0.4-3.3,0.8c-8.7,3.4-17.4,7.1-26.2,10.3c-29.9,11-54.2,26.9-64.5,59.9
		c-7.4,23.5-5.5,44.3,9,63.8c17.4,23.4,42.8,35.4,68.7,46.4c0.5,0.2,12.3,5,14,5c0,0,0-0.1,0-0.1c2.1,1.4,5.3,1.6,7.9,2.4
		 M257.8,324C257.8,324,257.8,324,257.8,324C257.8,324,257.8,324,257.8,324L257.8,324z M297.7,149.5c-0.1,1-0.2,1.9-0.3,2.9
		c-7.1-0.8-9.4-1.6-16.6-2.4c2.3,5.9,6.4,19.9,1.8,19.9c-3.7-5.3-7.4-15.5-13.7-22.2c-7.3-7.7-15.9-12.6-13.3-12.4
		C260.3,133.1,283.7,144.8,297.7,149.5z M258.6,309.3c7.4-12.2,20.9-49.1,22.2-74.4c0.6-12.6-1.9-60.9,8-38.8
		c6.6,40.2,1.1,77.5-21.7,110.9c-0.3,0.5-3.6,6.2-3.8,6.9L258.6,309.3z M218.7,204c1,13,1.3,26.2,3.2,39.1c3,21,8.4,53.2,10.8,62.9
		c2.5,9.7-2.6,8.4-2.6,8.4C224.5,312.7,197,194.1,218.7,204z M129.7,279.6c-7.3-9.8-9.4-24-10.2-25.1c0.9,0.3-3.1-17.3,15,14.4
		c7.3,12.7,28.2,32.7,34.7,33.3c0.9,0.1,1.7,3.8,1.6,4.6l0.8,4.5C170.4,310.5,141.6,295.5,129.7,279.6z M156.1,211.9
		c9.8-3.3,5,19.9,14.5,47.1c7,19.9,20.4,37.9,31.5,50.2c0,5.1-7.5-2.5-7.5-2.5C168.4,280.6,152.4,248.9,156.1,211.9z"/>
	<path class="st0" d="M279.3,87.8c-1.1-22.6-3.1-64.4-3.3-67.7s-7-2.1-7-2.1c1.7,26.6,2.4,55.2,4.1,81.8
		C281.4,101.7,279.5,91.8,279.3,87.8z"/>
	<path class="st0" d="M414.8,198.6c0,1.6-11.8-14.9-21.8-20.9c-6.6-4-8.2-3.3-10.2-1.8c-1.4,1.1,6.2,19.1,6.8,21.3
		c6.4,22.6,2.5,43.9-8.3,64.1c-11.3,21.1-29.2,36.5-49.6,48.2c-2.5,1.5-15.3,10.3-17.4,12.5c0.5,0.5,1.1,1.1,1.6,1.6
		c8-2.3,27.1-11,34.8-13.9c7.7-3,15.2-6.7,22.4-10.8c19.2-11,34.7-25.8,43.2-46.5C423.8,234.4,423.1,216.3,414.8,198.6z"/>
	<path class="st0" d="M369,307.3c-9.1,4.4-34,14.1-33.7,14.7c27.5,5.6,62.3-18.5,66.9-37.3c-1.9,1-7.2,7-9,8
		C385.1,297,377.2,303.3,369,307.3z"/>
	<path class="st0" d="M320.5,354.5c-1.2-0.4-2.3-0.4-3.2-0.1c-18.7,1.2-75.5,1.5-101-1c-4.6,1.3-9.5,2.2-13.8,0.9
		c-2.3,0.1-2.1-1.2-2.3-3.9c-1.2-1.3-2.5-3.1-3.9-3.3c-1.1-0.2-3.3,1.6-3.6,2.8c-10.1,23.9-3.7,49.8-3.6,75
		c0.8,14.8-1.5,30,5.1,43.9c5-2.8,2.9-9,3.7-13.9c2.3,2.5,4.4,4.9,6.7,7.3c-0.5-4.6-0.9-8.5-1.3-12.5c1.9,1.5,3.4,2.6,4.8,3.6
		c4.8-5.7,2.4-2,2.8-8.9c0.3,0,1.9,1.8,2.3,1.8c0.8,9.1,0.4,5.3,1.2,14.4c0.7,0,1.3-0.1,2-0.1c-0.4-7.4,0.2-12.8,2.1-20.5
		c0.8,5.9,1.4,17.5,2,22.2c4.1-0.5,3.3,0.5,10.8-1c0.1,1.2,0.1,2.3,0.2,3.5c0.9-0.2,1.7-0.3,2.6-0.5c-0.1-1.2-0.2-2.5-0.2-3.7
		c1.1-0.3,2.2-0.7,3.3-1.2c0.4,2.7,0.7,4.7,1,6c4.4,0.9,0.2-7.1,4.5-8.8c0.6,4.5,1.1,8,1.5,9.7c4.1,0.2,2.1,0.4,3.3-6.1l7.2,1.2
		l5.9,6.4l2.7-5l8.2,1.3l0.3,4.7h3.3l3.8-3.5l11.5,1.9l3.4-1.1c1.6-0.2,4.1-0.9,5.6-1.5l10.3-3.6l13.5-4.7c0-0.3-0.1-0.7-0.1-1
		c1.1,1.8,2.3,3.7,4.4,7C327.1,457.2,320.5,359.2,320.5,354.5z M279.8,453.6C279.8,453.6,279.8,453.6,279.8,453.6L279.8,453.6z
		 M288.7,463.1C288.7,463.1,288.7,463.1,288.7,463.1C288.7,463.1,288.7,463.1,288.7,463.1z"/>
	<path class="st1" d="M288.7,463.2C288.7,463.1,288.7,463.1,288.7,463.2"/>
	<path class="st0" d="M197.1,466C197.1,466,197.1,466.1,197.1,466C197,466.1,197,466.1,197.1,466c-0.1,0.1-0.1,0.1-0.1,0.1
		C197,466.1,197,466.1,197.1,466C197.1,466.1,197.1,466.1,197.1,466L197.1,466C197.1,466,197.1,466,197.1,466
		C197.1,466,197.1,466,197.1,466z"/>
</g>
</svg>
