<?xml version="1.0" encoding="utf-8"?>
<!-- Generator: Adobe Illustrator 24.2.0, SVG Export Plug-In . SVG Version: 6.00 Build 0)  -->
<svg version="1.1" id="Layer_1" xmlns="http://www.w3.org/2000/svg" xmlns:xlink="http://www.w3.org/1999/xlink" x="0px" y="0px"
	 viewBox="0 0 2053.3 1080" style="enable-background:new 0 0 2053.3 1080;" xml:space="preserve">
<style type="text/css">
	.st0{fill:#F7F2EA;}
</style>
<path class="st0" d="M315.9,501.9c6.7-6.2,12-12.9,16.7-20.2c2.4-3.8,4.9-7.5,7.5-11.2c1.6-2.2,3.3-4.4,5-6.4
	c1.1-1.3,2.3-2.7,4.1-3.2c2,0.5,3.3,2,4.5,3.4c1.9,2.2,3.6,4.5,5.3,6.8c2.5,3.3,4.9,6.7,7.4,10c2.8,3.5,5.9,6.7,9.4,9.5
	c1.3,1,2.4,2.1,3.5,3.2c9.2,9,23.1,6.8,29.1-4.6c1.7-3.2,2.6-6.5,2.8-10.1c0.1-1.3,0-2.6,0.1-3.8c0.1-3.5,1.5-5.4,5-5.8
	c2.5-0.3,5.1-0.1,7.6,0.3c4.1,0.7,7.9,2.5,11.5,4.6c2.2,1.3,4.4,2.6,6.6,3.9c4.3,2.6,8.9,4.3,13.9,5.1c0.6,0.1,1.3,0.2,1.9,0.3
	c4.2,0.9,7.4,3.1,9,7.1c1.3,3.1,2.2,6.3,3.1,9.6c1.4,5.1,2.3,10.3,3.8,15.3c1.2,3.8,2.7,7.5,4.6,11c4.8,9,12.2,15.1,21.8,18.5
	c18.2,6.4,36.5,13,54.7,19.4c1.7,0.6,3.1,1.5,4.3,2.9c7,8.3,14.4,16.2,20.4,25.4c5,7.6,10.5,14.9,16.6,21.7c2.7,2.9,5.7,5.6,8.7,8.3
	c1.8,1.6,4,2.7,6.4,3c3.7,0.5,6.9-0.5,8.7-3.8c1.8-3.3,4.6-4.8,7.9-5.6c3.9-1,7.8-1.7,11.8-2.2c8.6-1.1,17.2-1.1,25.9-0.8
	c1.1,0,2.2,0.1,3.4,0c2.7-0.3,4.8-2.1,5.3-4.8c0.5-2.5-0.8-5.2-3.2-6.4c-1-0.5-2.1-0.8-3.2-1.1c-14.7-3.8-29.4-7.7-44.4-10.3
	c-2.5-0.4-5-0.9-7.3-1.3c-0.7-2.1-0.2-3.8,0-5.5c0.2-1.6,0.5-3.1,0.8-4.7c0.6-3.9,1.4-7.7,3.9-11.1c2.8-3.8,3.7-8.5,4.6-13
	c1.7-8,2.2-16.2,2.8-24.3c0.1-1.9,0.2-3.8,0.3-5.8c0.3-3.7,0.7-7.3,1.9-10.8c1.8-5.7,2.5-11.6,2.6-17.5c0.1-5,0-9.9,0.1-14.9
	c0.1-2.7,0.5-5.4,1-8.1c0.3-1.4,0.9-2.7,1.6-4c1.4-2.6,3.5-4,6.5-4.2c7.2-0.5,14.4-0.4,21.5,0.8c2.5,0.4,4.5,1.6,5.6,4
	c1.6,3.3,3.5,6.5,4.9,9.9c3.6,8.9,7,17.9,10.5,26.8c1.6,4,3.1,8.1,4.9,12c1.2,2.8,2.6,5.5,4.2,8.1c2.6,4.1,5.7,7.6,10,10.1
	c5.3,3,10,7,14.4,11.1c6.2,5.8,12.3,11.7,18.4,17.6c1,1,2,2.1,3.2,2.9c2.3,1.6,5,1.4,7.1-0.4c1.9-1.6,2.7-4.2,1.8-6.5
	c-0.4-1.2-1.1-2.3-1.7-3.4c-3.2-6.2-6.5-12.5-9.7-18.7c-0.7-1.4-1.3-2.9-2-4.5c0.5-0.7,0.9-1.4,1.4-2c4.5-4.7,7.9-10.1,10.4-16
	c2.2-5.2,4.2-10.4,5.8-15.7c4.3-13.9,11.2-26.4,20.2-37.9c5-6.4,10.1-12.8,15-19.3c6.8-8.9,13-18.2,18.1-28.3c0.9-1.8,2.3-3.5,3.6-5
	c0.9-1,2.2-1.3,3.5-0.7c1.1,0.6,2.3,1.1,3.3,1.9c1.3,1,2.4,2.1,3.5,3.3c10.4,11.9,20.7,24,29.9,36.9c7.8,11,14.7,22.4,20.3,34.7
	c2.5,5.6,5.6,10.8,9.3,15.6c1,1.3,1.8,2.7,2.6,4c6.5,11,13.4,21.8,21.3,31.9c3.9,5,8.1,9.9,12.5,14.5c2.6,2.7,5.8,5.1,8.9,7.2
	c4,2.8,8.5,3.8,13.2,2.4c1.8-0.5,3.2-0.1,4.4,1.1c1.6,1.6,3.3,3.1,4.4,5c2.4,3.8,4.6,7.7,6.6,11.7c3.5,7,6,14.4,8.5,21.9
	c0.3,0.8,0.5,1.5,0.7,2.3c0.7,2.4,2.3,3.8,4.7,4.3c4,1,8.1,1.9,12.1,3c10.7,2.7,21.3,5.7,31.6,9.6c3.6,1.4,7,3.1,10.5,4.7
	c1.8,0.8,3.2,2,3.9,4c1,2.9,3.3,4.6,6,5.8c3.2,1.5,6.6,2.4,10.1,2.7c7,0.7,14,1.3,21,1.6c5.1,0.2,10.2-0.1,15.3-0.2
	c1.1,0,2.2-0.1,3.3-0.3c2.1-0.4,3.4-1.7,3.8-3.8c0.4-2-0.2-3.9-1.9-5c-1.2-0.8-2.5-1.3-3.8-2c-13.3-6.4-26.6-12.6-39.7-19.2
	c-5.9-2.9-11.4-6.4-17.1-9.7c-2.6-1.5-4.3-3.5-5.4-6.4c-1.5-3.9-3.4-7.6-5.6-11.1c-6.6-10.7-13.5-21.3-20.3-32
	c-1.4-2.3-3.3-3.6-6-4.2c-7.9-1.7-15.2-4.8-22-9.2c-5.1-3.4-9.6-7.5-12.9-12.7c-3.3-5.2-5.4-10.8-5.7-17.4c1.1-0.1,2.1-0.1,3-0.1
	c2.1,0,4.2,0.2,6.2,0.2c4.6,0,8.5-1.8,11.3-5.4c1.9-2.3,3.5-5,4.8-7.7c3-6.1,4.9-12.5,6.7-19c3.2-11.6,6.3-23.1,9.4-34.7
	c1.2-4.3,2.5-8.6,4.6-12.6c2.2-4.1,3.3-8.7,4.2-13.2c1.6-7.7,3.3-15.3,4.6-23c1.2-6.9,5-11.6,11.1-14.7c9.4-4.8,19.2-7.8,30-6.7
	c2.5,0.3,5.1,0.4,7.6,0.7c8.8,1,15.2,5.6,19.1,13.4c1.7,3.4,3.1,7,4.3,10.7c2.3,7.1,4.4,14.4,6.6,21.5c1.1,3.5,2.3,7,4.1,10.2
	c0.8,1.5,1.2,3.3,1.4,5c0.8,8.1,1.5,16.2,1.5,24.4c0,4.7-0.7,9.2-2.6,13.6c-3.5,8.1-7,16.1-10.5,24.2c-0.7,1.6-1.4,3.2-2,4.9
	c-0.7,2.1-0.4,4.1,0.5,6.1c2.1,4.7,7.8,6,11.6,2.6c1.2-1,2.1-2.4,3.1-3.6c4.5-5.6,8.9-11.3,13.5-16.9c3-3.6,6.4-6.7,10.5-9
	c2.4-1.4,4.6-3.5,6.5-5.7c2.4-2.7,4.6-5.8,6.7-8.7c2.9-4,5.7-8.1,8.7-12.1c3.2-4.4,7.2-8,11.3-11.6c3.7-3.2,7.8-6.1,11.1-9.7
	c2-2.2,3.9-4.7,5.7-7.1c5.5-7.5,10.8-15.1,16.2-22.6c0.7-1,1.5-2.1,2.5-2.9c1.9-1.8,4.2-2.3,6.7-1.5c1.7,0.6,3,1.6,3.4,3.6
	c3.4,15.6,9.4,30.2,16.1,44.6c0.8,1.7,1,3.2,0,5c-2.3,4-4.5,8.1-6.7,12.2c-0.8,1.4-1.9,2.5-3.3,3.3c-2,1.3-4.1,2.6-5.7,4.3
	c-4.4,4.5-8.5,9.1-12.8,13.7c-0.5,0.6-1,1.2-1.4,1.9c-1.2,2.2-1.1,4.3,0.3,6.3c1.3,1.8,3.1,2.8,5.4,2.6c0.9-0.1,1.9-0.4,2.8-0.6
	c4.8-1.3,9.2-3.7,13.3-6.5c5.2-3.5,9.7-7.8,14-12.4c6.7-7.3,12.5-15.4,17.8-23.8c1.3-2,2.7-3.9,4.4-5.6c4.1-4,6.8-8.9,8-14.5
	c0.5-2.2,1.2-4.3,2.2-6.3c0.6-1.1,1.1-2.3,1.7-3.4c2.5-4.7,3.9-9.7,4.1-15.1c0.2-5.3,2.5-9.9,5.6-14.1c2.9-4,9.3-3.1,11.4,1.4
	c1.4,2.9,2.6,5.8,4.1,8.7c2.7,5.4,6.6,9.8,11.8,13c5.7,3.4,10.2,8.2,14,13.7c0.4,0.5,0.7,1.1,1.1,1.6c8.2,12,8.2,12,17.8,21.6
	c-0.4,0.6-0.7,1.3-1.2,1.9c-4.4,6.1-9,12-13.2,18.3c-2.2,3.3-3.9,7-5.3,10.7c-3.4,9.3-6.4,18.7-9.6,28.1c-1.4,4.2-2.8,8.5-4.2,12.8
	c-1.7,5-3.7,9.8-6.4,14.4c-4.9,8.5-7.9,17.8-10.5,27.2c-3.7,13.8-6.2,27.8-7.9,41.9c-0.8,6.7-1.4,13.4-2.1,20
	c-0.2,1.6-0.5,3.1-0.7,5c-1.4,0.4-2.7,0.8-4.1,1.1c-5.3,1.2-9.9,3.7-13.5,7.8c-1.7,2-3.7,3.5-5.9,4.9c-7.6,4.8-15.3,9.3-23.3,13.4
	c-4.4,2.3-9,4-14,4.9c-17.7,3.5-35.4,7-53.2,10.5c-15.2,3-30.4,6-45.4,10.3c-6.5,1.9-12.7,4.2-18.8,7.2c-6.4,3.3-12.9,6.4-19.5,9.3
	c-5.7,2.5-11.6,4.7-17.3,7c-1.3,0.5-2.6,1-3.8,1.6c3.7,11.3,2.9,8.3,3,18.4c1.6,0.6,3.4,1.3,5.2,1.9c8.8,3.3,17.8,6.3,26.5,9.9
	c6.2,2.5,12.2,5.6,18.1,8.8c3.8,2.1,7.3,4.7,10.7,7.3c8,6,11.1,14.3,10.6,24c-0.6,13.6-5.6,25.5-14.1,36c-2.2,2.7-4.9,5.1-8,6.9
	c-5.6,3.3-11.4,3.8-17.5,1.4c-3.7-1.5-7.1-3.6-10.3-6.1c-1.2-1-2.5-2-3.9-3.2c-1,0.9-1.9,1.7-2.9,2.5c-2.6,2.1-5,4.5-7.8,6.3
	c-4.2,2.9-9,4-14.1,3.6c-4.8-0.4-9.1-2-12.4-5.5c-1.9-1.9-3.7-4-5.3-6.2c-2.6-3.6-5.1-7.4-7.6-11.1c-0.7-1-1.5-2-2.4-3.2
	c-1.8,1.1-3.4,2-5,3c-3.1,2-6,4.2-9.1,6.2c-2.2,1.4-4.4,2.7-6.7,3.7c-4.8,2.1-9.6,2-14.3-0.7c-2.6-1.5-5.3-2.9-8.1-4.2
	c-1.9-0.9-3.9-1.5-5.9-2c-1-0.3-2.2,0-3.3,0c-1.6,2.2-2,4.7-2.2,7.3c-0.5,5.4-2.4,10.2-5.5,14.8c-1,0.1-2.1,0.3-3.2,0.3
	c-1.9,0.1-3.8,0.1-5.8,0.2c-4.6,0.2-8.3,2.1-11.1,5.8c-1.4,1.9-2.7,3.9-4,6c-1.6,2.6-2.9,5.4-4.4,8c-1.8,3-3.6,6.1-5.7,8.9
	c-7.9,10.8-18.8,16-32.1,16.5c-1.1,0-2.2,0-3.4,0c-58.6,0-117.1,0.1-175.7-0.1c-9.6,0-19.2-0.7-28.8-1.2c-6.7-0.3-13.4-0.9-20.1-1.4
	c-17.2-1.2-34.5-2.5-51.7-3.7c-16.8-1.1-33.5-2-50.3-3.1c-11.5-0.8-23-1.7-34.4-2.6c-9.2-0.7-18.5-1.5-27.7-2.2
	c-10.4-0.8-20.7-1.7-31.1-2.6c-9.4-0.8-18.8-1.5-28.2-2.3c-10.2-0.8-20.4-1.7-30.6-2.5c-9.2-0.8-18.5-1.5-27.7-2.2
	c-11-0.9-22-1.8-33-2.6c-8.9-0.7-17.9-1.4-26.8-2c-13.6-0.9-27.1-1.9-40.7-2.4c-18.9-0.6-37.6-2.6-56.3-5.3
	c-20.3-2.9-40.5-5.8-60.8-8.6c-5.4-0.7-10.7-1.7-16.2-1.2c-4.7,0.4-8.4-2-10.8-5.9c-1.4-2.3-2.5-4.8-3.3-7.4
	c-2.6-8.9-5.2-17.8-7.5-26.8c-8-32.5-14.8-65.1-21-98c-2.8-14.9-5.2-29.9-6.7-45.1c-1-10-1.6-20.1-2.3-30.1
	c-1.6-25.4-1.4-50.9-0.7-76.3c0.4-17.4,1.5-34.8,2.5-52.2c0.6-10.5,1.4-21.1,2.3-31.6c1-11.5,2.1-22.9,3.4-34.4
	c1.3-11.4,2.6-22.9,4.2-34.3c2.2-15.7,4.5-31.3,8.5-46.7c0.3-1.2,0.7-2.5,1-3.7c0.5-1.9,1.5-3.5,3-4.8c1.9-1.7,3.8-3.5,5.8-5
	c17.2-13.2,36.3-22.7,57.4-28c3.9-1,7.8-1.7,11.8-2c2.8-0.2,5.8,0.2,8.5,0.8c15.5,3.2,30,9.1,43.2,17.8c4.7,3.1,9,6.6,12.9,10.7
	c3.3,3.4,5.7,7.2,7,11.8c2.2,7.7,4.4,15.4,6.7,23c1.2,4,2.5,7.9,3.9,11.8c1.9,5.5,2.9,11.1,3.8,16.8c2,12.1,3.8,24.3,5.9,36.5
	c2.3,13.2,4.9,26.4,9.4,39.1c1.2,3.5,2.6,6.9,4.1,10.2c7.2,16.4,13.2,33.3,17.7,50.6c0.8,3.2,1.5,6.5,2,9.9
	c0.6,3.8,0.9,7.6,0.3,11.5c-0.3,2-0.1,3.8,0.9,5.6c5.1,9.3,10.9,18.1,18.6,25.5c4.2,4,8.8,7.5,14,10c3.2,1.6,6.5,2.6,10,3.2
	c1.1,0.2,2.2,0.3,3.3,0.2c3.7-0.3,5.7-3.3,4.7-6.7c-0.2-0.6-0.4-1.2-0.7-1.8c-5.2-12.4-10.4-24.8-15.7-37.1
	c-5.9-13.5-13.3-26.2-21.2-38.7C318.5,506,317.3,504.1,315.9,501.9z M140.4,805.4c3.3,0.4,6.5,0.8,9.7,1.3
	c20.4,2.9,40.8,5.9,61.3,8.7c18.2,2.6,36.5,4.6,54.9,5.2c13.9,0.5,27.8,1.5,41.7,2.4c8.8,0.6,17.5,1.3,26.3,2c11,0.9,22,1.7,33,2.6
	c9.2,0.7,18.5,1.5,27.7,2.2c10.5,0.9,21,1.7,31.6,2.6c9.1,0.7,18.2,1.5,27.3,2.2c10.5,0.9,21,1.7,31.6,2.6
	c9.1,0.7,18.2,1.5,27.3,2.2c11.3,0.9,22.6,1.9,34,2.6c16.4,1.1,32.9,1.9,49.3,3c18.4,1.2,36.7,2.6,55,3.9c6.5,0.5,13.1,1.1,19.6,1.4
	c8.5,0.5,16.9,1,25.4,1.1c58.7,0.1,117.4,0,176.1,0c1.6,0,3.2,0.1,4.8-0.1c4.9-0.4,9-2.3,11.8-6.4c1.4-1.9,2.7-4,3.9-6
	c1.6-2.8,3-5.6,4.7-8.4c1.9-3.1,3.8-6.3,6.1-9.2c4.8-6.3,10.9-10.7,18.5-13.1c0.9-0.3,1.8-0.7,2.8-1c0.7-2.3,1.4-4.6,2.2-6.8
	c5.2-13.7,17.1-18.5,29-16.6c5.3,0.8,10.2,2.6,15,4.8c1.4,0.7,2.9,1.3,4.5,2.1c1.5-1,3-2,4.4-3c3.4-2.2,6.6-4.5,10.1-6.4
	c2.9-1.6,6-3,9.2-3.9c9.5-2.7,17.1,0.9,21.4,7.7c0.8,1.2,1.6,2.4,2.4,3.6c2.5,3.7,5,7.5,7.5,11.2c0.7,1,1.6,1.9,2.6,3.1
	c2-2,3.8-3.8,5.6-5.6c2.5-2.5,5-5,8.1-6.7c7.1-4,14.9-3.1,20.7,2.6c1.4,1.3,2.6,2.8,3.9,4.2c1.3,1.4,2.6,2.8,4.6,3.5
	c0.5-0.5,1.1-0.8,1.4-1.3c3.7-5,5.9-10.5,7.2-16.6c0.9-4.5-0.2-7.6-4.2-10.1c-5.2-3.2-10.4-6.3-16-8.6c-9.2-3.7-18.5-7.2-27.8-10.6
	c-5.7-2.1-11.5-3.9-17.2-6c-2.5-0.9-5.1-2.1-7.2-3.7c-6.2-4.6-6.7-13-1.4-18.5c0.9-0.9,1.8-1.7,2.7-2.6c-0.9-2.4-2.5-4-4.1-5.5
	c-5.8-5.5-12.5-9.5-19.9-12.2c-2.2-0.8-4.3-1-6.6-0.5c-6.9,1.5-14,1.6-21,1.2c-9.3-0.6-18.5-1-27.8-1.6c-0.6,0-1.2-0.3-1.6-0.4
	c-0.3-0.5-0.5-0.7-0.6-1c-0.4-1.2-0.8-2.4-1.3-3.6c-0.4-1.2-0.8-2.4-1.3-3.6c-3.8-7.7-8.4-8.9-14.1-8c-3.8,0.6-7.6,1-11.4,1.3
	c-6.6,0.5-13.1,0.6-19.6-0.6c-8-1.4-15-4.6-20-11.2c-0.3-0.4-0.7-0.6-1.2-1c-1.4,0.5-3,0.9-4.5,1.5c-6.1,2.4-12.2,4.9-18.2,7.3
	c-4.7,1.9-9.4,3.9-14.2,5.8c-3.4,1.4-7,2.2-10.7,2.4c-1.4,0.1-2.5-0.2-3.5-1.1c-1.5-1.5-3.1-2.8-4.6-4.3c-1.3-1.3-2.7-1.6-4.4-1.2
	c-2.2,0.5-4.4,1-6.6,1.4c-7.5,1.6-15,3.1-22.5,4.6c-1.1,0.2-2.2,0.3-3.3,0.4c-7.7,0.4-13.7-2.6-18.1-8.8c-1.2-1.7-2.3-3.4-3.3-4.9
	c-3.3-0.4-6.1-0.8-9-1.2c-11.9-1.8-23.6-4.4-35-8c-1.9-0.6-3.7-0.7-5.6-0.2c-4.8,1.3-9.7,2.3-14.4,3.6
	c-18.6,5.3-37.1,10.8-55.7,16.2c-2.4,0.7-4.9,1.3-7.4,2c-2.9-2.3-5.1-5-7.5-7.6c-3.9-4.4-8-8.8-12.7-12.4c-2.4-1.8-5-3.4-7.6-5
	c-0.9-0.5-2.1-0.5-3.3-0.7c-0.7,1.5-1.3,2.8-1.9,4.1c-2.3,5.2-6.4,7.8-12.1,7.7c-1,0-1.9,0-2.9-0.1c-7.2-0.5-14.4-0.9-21.5-1.5
	c-10.4-0.7-20.7-1.5-31.1-2.3c-1.3-0.1-2.5,0-4,0c-1,2-1.9,4-3,6c-1.8,3.2-3.4,6.5-5.5,9.5c-4.4,6.4-10.9,9.2-18.5,9.6
	c-0.9,0-2.1-0.2-2.6-0.8c-2.4-2.5-5.5-3.8-8.6-5.2c-19.9-8.7-39.8-17.5-59.8-26.1c-18.4-7.9-36.9-15.5-55.7-22.2
	c-7.7-2.8-5.4-2.5-12.8,0c-6.8,2.3-13.6,4.7-20.5,7.1c-6.2-3.4-12.3-6.9-18.5-10.2c-2.1-1.2-4-2.6-5.7-4.3c-6.9-7.2-14-14-21.9-20
	c-3.8-2.9-7.9-5.4-12-8c-0.9-0.6-2-0.7-3.2-1c-1.2,1.5-2.3,2.9-3.4,4.2c-1.9,2.2-3.7,4.5-5.8,6.4c-7.7,7-16.9,7.7-25.4,1.5
	c-6.8-4.9-14.6-6.3-22.6-6.9c-1.7-0.1-3,0.5-4.2,1.8c-2.4,2.6-4.9,5-7.4,7.5c-8.4,8.5-16.9,17.1-26.1,24.7
	c-4.9,4.1-10.1,7.8-15.4,11.5c-3.7,2.6-7.8,4.4-12.2,5.5c-5.9,1.4-11.4,0.9-16.5-2.6c-0.6-0.4-1.3-0.8-1.9-1.1
	c-5.7,1.1-13,3.6-17.4,5.9C110.5,678.8,134.1,789.6,140.4,805.4z"/>
<path class="st0" d="M1539.9,614.8c-0.5,0.2-0.9,0.5-1.3,0.6c-7.9,1.7-15.3,4.7-22.6,7.9c-9.1,3.9-18.2,8-27.3,11.8
	c-4.4,1.9-9,3.4-13.5,5c-2,0.7-3.9,0.8-6-0.2c-3.3-1.6-6.9-1-10.4-0.2c-3.4,0.8-6.8,1.9-10.1,3.1c-11.2,4-21.9,9-32.5,14.2
	c-10.9,5.4-21.7,11-32.5,16.6c-1.1,0.6-2.3,1.2-3.3,1.9c-2.2,1.6-3,4.3-2.2,6.8c0.8,2.4,3.2,4.1,5.9,4c0.8,0,1.6-0.2,2.4-0.3
	c13-2.5,26.2-4.5,39.3-6c7.8-0.9,15.6-1.6,23.5-1.3c2.2,0.1,4.5,0.4,6.7,0.7c1,0.2,2.2,0.7,3,1.3c3,2.6,6.6,3.2,10.3,3.4
	c3.2,0.1,6.4,0,9.6-0.3c15.7-1.3,31-4.3,46.4-7.4c23-4.7,45.9-10,68.7-15.8c3-0.8,5.9-1.4,7.7-4.3c0.5-0.8,1.9-1.1,2.9-1.6
	c3.2-1.4,6.6-2.5,9.7-4c13.8-6.6,25.6-15.8,33.8-28.9c4.8-7.6,9.7-15.1,14.3-22.8c8-13.5,15.7-27.1,23.5-40.7
	c1.2-2.1,2.4-4.2,3.8-6.1c12-17,24.6-33.5,38.5-49.1c11.8-13.3,24.5-25.7,38.4-36.9c4.6-3.8,9.8-6.6,15.1-9c5.3,3.3,12,10.2,14.7,15
	c1.9,3.4,2.7,7.1,2.9,11c0,0.8,0,1.6,0,2.4c-0.4,10.5,3.8,18.9,11.7,25.6c4.2,3.5,8.8,6.5,13.7,8.8c8.1,3.9,16.3,7.5,24.4,11.3
	c1.1,0.5,2.2,1.1,3.5,1.7c-0.7,1.4-1.2,2.5-1.9,3.6c-4.8,8.1-9.5,16.3-14.6,24.2c-6.4,9.8-11.1,20.2-13.7,31.5
	c-3.6,15.8-8.5,31.1-13.5,46.5c-1.6,4.9-3.4,9.6-5.2,14.4c-1.8,4.6-3.3,9.3-4.1,14.3c-0.3,1.9-0.9,3.7-1.4,5.6
	c-1.3,4.4-4.4,7-8.8,7.9c-2.5,0.5-5,0.8-7.6,1.1c-7.8,0.8-15.4,2.7-22.6,5.9c-2.9,1.3-5.7,3-8.3,4.7c-3,2-5.5,4.5-7.1,7.7
	c-1.6,3-3.9,5.1-6.8,6.6c-3.6,1.8-7.2,3.5-10.9,4.9c-9.5,3.5-19.3,5.7-29.2,7.7c-11.4,2.3-22.9,4.5-34.3,6.8
	c-4.5,0.9-9.1,2-13.3,4.1c-1.7,0.8-3.4,0.9-5.1,0.8c-7-0.1-14.1-0.2-21.1-0.4c-27.5-0.6-55-1.3-82.5-1.9
	c-34.9-0.7-69.7-1.2-104.6-1.9c-26.9-0.5-53.7-1.1-80.6-1.9c-22.1-0.7-44.1-1.7-66.2-2.9c-21.7-1.1-43.4-2.5-65.1-3.8
	c-9.4-0.6-18.8-1.2-28.3-1.7c-3.7-0.2-7.4,0.1-11,0.4c-9.4,0.8-18.8,1.7-28.2,2.6c-8.8,0.8-17.5,1.7-26.3,2.4
	c-9.4,0.7-18.8,1.2-28.2,1.9c-3,0.2-5.7-0.3-8.1-2.1c-2.6-1.9-3.9-4-4.9-8c1.4-1.5,3.5-2.1,5.4-2.7c6.9-2,13.8-4.3,20.8-5.8
	c15.8-3.4,31.6-6.5,47.5-9.7c17.7-3.5,35.5-6.7,52.9-11.5c5.8-1.6,11.6-3.6,17.3-5.8c5.4-2.1,10.3-5.1,13.9-9.9
	c0.9-1.2,2.4-2.1,3.8-2.9c7-3.9,14.2-7.4,22.2-8.6c1.1-0.2,2.1-0.6,3.3-1c1.5-5.8,1.9-11.7,2.3-17.5c1.3-17.9,3.3-35.7,6.8-53.3
	c1.7-8.3,3.7-16.5,6.6-24.5c1.7-4.7,3.8-9.1,6.2-13.5c1.8-3.2,3.4-6.6,4.6-10c3.6-10.3,6.9-20.6,10.4-30.9
	c1.8-5.3,3.7-10.6,5.6-15.8c0.7-1.8,1.5-3.6,2.6-5.1c3-4.4,6.2-8.5,9.1-12.9c4.1-6.3,9.9-9.8,17.3-10.9c8.5-1.3,17.1-2.6,25.6-4
	c10.6-1.6,21.2-3.2,31.7-5c3-0.5,5.9-1.4,8.8-2.4c9.9-3.2,19.8-6.5,30-8.5c8.2-1.6,16.4-2.7,24.8-1.7c8.5,0.9,16.2,3.7,23,8.8
	c10,7.5,19.1,16,26.7,26.1c6.5,8.7,11.2,18.2,13.3,29c1.6,7.8,3.3,15.7,4.4,23.6c0.7,4.7,0.7,9.6,0.8,14.3c0,4.3-0.4,8.6-0.6,12.9
	c-0.5,12.3-0.1,24.6,1.3,36.9c0.8,7.1,1.8,14.3,2.7,21.4C1539.9,613.8,1539.9,614.3,1539.9,614.8z"/>
<path class="st0" d="M1894.7,792.8c-0.6-0.5-0.9-0.9-1.3-1.1c-9.7-4.2-19.4-8.3-29.9-10c-6.1-1-12.4-1.8-18.6-2.1
	c-10.9-0.5-21.7-0.3-32.6,0.5c-7.7,0.5-15.3,0.8-23,1.1c-15,0.6-29.7-1.4-44.2-5.1c-21.6-5.4-43.1-10.9-64.6-16.3
	c-6-1.5-12.1-3-18.2-4.5c-1.4-0.3-2.7-0.8-4.1-1.1c0.3-1.8,1.8-2,2.9-2.3c4.3-1.1,8.7-2.2,13.1-3.1c12.8-2.6,25.7-5,38.5-7.8
	c8.6-1.8,17-4.4,25.2-7.6c5.1-2,9.9-4.4,14.4-7.5c4.3-2.9,8-6.4,10.6-10.9c1.3-2.2,3.1-3.6,5.4-4.5c4.9-2.1,10-3.4,15.2-4
	c4-0.5,8-0.9,11.8-1.9c12.4-3.1,20.9-10.8,25.1-22.8c1.2-3.5,1.9-7.1,2.8-10.7c0.6-2.2,0.9-4.4,1.8-6.4c5.5-13.3,9.5-27.2,13.7-40.9
	c2.5-8.1,4.5-16.3,6.6-24.5c2.2-8.8,5.6-16.9,10.6-24.5c10.3-15.7,19.3-32.1,28.1-48.6c1.7-3.1,3.3-6.2,5-9.3
	c2.8-5,4.1-10.4,4.3-16.1c0.1-2.2,0.1-4.5,0-6.7c-0.7-21.1,4.9-40.5,15.6-58.5c2.8-4.7,5.7-9.3,9.1-13.5c6.8-8.4,9.5-18,9.7-28.5
	c0-2.7-0.2-5.4-0.2-8.2c-0.1-4.5-0.3-9-0.3-13.4c0-6.7,2.3-12.5,6.6-17.6c3.9-4.6,8.5-8.2,13.8-11c0.6-0.3,1.2-0.5,1.8-0.7
	c0.3-0.1,0.6,0.1,1.2,0.2c0.4,2,0.9,4.2,1.2,6.4c2.6,19,5.4,38,7.5,57.1c1.9,16.4,3.1,32.8,4.3,49.2c2.1,28.1,3,56.2,2.4,84.4
	c-0.4,20.5-0.9,40.9-1.9,61.4c-0.9,19.6-2.1,39.3-3.8,58.9c-1.9,21.5-4.1,43-6.7,64.4c-3.7,30.5-8.6,60.8-15.1,90.8
	c-1.2,5.6-2.6,11.2-3.8,16.8c-0.5,2.3-1.5,4-3.7,5.1c-10.5,5.4-20.9,11.2-31.4,16.6c-7.8,4-16,7.4-24.8,8.7c-7.1,1-14.3,1.8-21.5,2
	c-34.4,1.2-68.7,3-103.1,3.6c-21.8,0.4-43.5-0.1-65.2-1.6c-3.5-0.2-7-0.5-10.5-1c-3-0.5-6-1.1-8.8-2.3c-6.5-2.6-13-5.4-19.3-8.5
	c-15.9-7.9-31.7-16-47.5-24.1c-3.3-1.7-6.6-3.3-9.8-5c-0.7-0.3-1.3-0.8-1.8-1.2c0.2-1.2,1-1,1.5-1.1c9.1-1.7,18.2-4,27.4-5
	c17.6-2,35.3-4.1,53-4.6c16.3-0.5,32.6,0.6,48.8,2.7c18.4,2.3,36.7,5.6,55,8.6c16.4,2.7,32.8,5.3,49.4,6.8c7.5,0.7,15,0.9,22.5,1.3
	c4.6,0.3,8.9-0.7,13-2.8c13.4-6.8,24.7-15.9,32-29.4C1891.6,798.4,1893.1,795.6,1894.7,792.8z"/>
<path class="st0" d="M1159,382.2c-0.2-0.5-0.5-1-0.6-1.6c-7.5-52.3,24.5-99.4,71.4-113.1c43.1-12.6,88.8,4.9,112.9,43.6
	c12.3,19.7,17.1,41.3,15,64.2c-1.9,20.6-9.5,39-22.6,55.1c-1,1.2-2.1,2.4-3.3,3.7c-1.1-0.6-2-1.1-2.9-1.8c-3.1-2.4-5.5-5.4-7.7-8.5
	c-2.5-3.5-4.9-7.1-7.4-10.7c-4.9-7-10.9-13-18.2-17.5c-2.6-1.6-4.4-3.7-5.6-6.4c-1.7-4-3.3-8-5.1-11.9c-0.5-1.1-1.1-2.5-2.1-3.1
	c-6.6-4.4-13.5-8-21.5-8.8c-9-0.9-16.7,1.8-23.2,8.1c-3.4,3.3-5.9,7.2-8,11.3c-2.5,4.9-4.3,10-5.8,15.2c-1.3,4.3-2.4,8.6-3.7,12.9
	c-0.4,1.2-0.9,2.3-1.5,4c-0.7-1.1-1.2-1.7-1.5-2.4c-3-8-5.6-16-6.7-24.5c-0.2-1.3-0.4-2.5-1.3-3.5c-5-6.2-11-11.2-18.9-13.2
	c-10.3-2.7-19.6-0.5-27.9,6.2c-1.1,0.9-2.2,1.8-3.3,2.7C1159.6,382.3,1159.4,382.2,1159,382.2z"/>
<path class="st0" d="M1388.4,778.9c-1.8,1.7-3.7,2-5.5,2.6c-8.6,2.8-17.4,4.3-26.2,5.6c-18.8,2.8-37.8,4.2-56.8,5.1
	c-24,1.2-48,1.1-72,0.5c-18.4-0.5-36.7-1.7-55-3.8c-11.1-1.3-22.2-2.8-33.1-5.6c-3.9-1-7.7-1.9-11.3-3.9c0.1-1.4,1.2-1.4,1.9-1.7
	c5.7-2.2,11.6-3.6,17.6-4.7c12.7-2.4,25.6-3.9,38.5-5.1c32.9-3,65.8-3.3,98.8-2.6c19.4,0.4,38.7,1.7,57.9,3.9
	c11.3,1.3,22.5,2.9,33.6,5.6C1380.5,775.8,1384.4,776.7,1388.4,778.9z"/>
<path class="st0" d="M1375.2,816.4c-4.6,1.9-8.8,2.6-13.1,3.4c-10.1,1.9-20.2,3.1-30.4,4.1c-27.6,2.6-55.2,3.5-82.9,3.2
	c-17.1-0.2-34.2-0.8-51.3-1.7c-16.4-0.9-32.8-2.5-49.1-5.5c-4.2-0.8-8.4-1.7-13-3.3c1-0.6,1.6-1.2,2.3-1.3
	c8.5-2.4,17.2-3.8,25.9-4.9c35.8-4.5,71.8-5.2,107.8-4.8c20.2,0.2,40.3,1.2,60.4,3.1c12.6,1.2,25.1,2.7,37.4,5.6
	C1371,814.6,1372.9,814.8,1375.2,816.4z"/>
<path class="st0" d="M1345.6,851.1c-2.7,1.8-5.7,2.4-8.6,3.2c-8.6,2.4-17.5,3.7-26.4,4.7c-19.1,2.2-38.2,3-57.4,2.8
	c-18.2-0.2-36.4-1.2-54.5-3.8c-7.3-1-14.5-2.3-21.5-4.6c-1.8-0.6-3.6-1.3-5.9-2.2c1.2-0.8,1.9-1.4,2.6-1.7
	c5.8-2.3,11.9-3.6,18.1-4.6c12.8-2.2,25.6-3.4,38.6-4.1c11.7-0.7,23.3-0.8,35-0.7c18.1,0.2,36.1,1.3,54,3.9c7.3,1,14.5,2.4,21.5,4.7
	C1342.6,849.2,1344.4,849.5,1345.6,851.1z"/>
<path class="st0" d="M1206.4,881.8c1.7-1.6,3.4-1.9,5.1-2.4c6.1-1.9,12.4-3,18.8-3.8c15.9-1.9,31.9-2.2,47.9-0.9
	c8.5,0.7,16.9,1.7,25.1,3.9c2.5,0.7,5.3,1,7.5,3.2c-2.9,1.9-6,2.5-9.1,3.3c-8.9,2.2-17.9,3.2-27,3.8c-10.5,0.6-21.1,0.6-31.7,0
	c-9.1-0.5-18.2-1.5-27-3.7C1212.8,884.3,1209.6,883.7,1206.4,881.8z"/>
</svg>
