<?xml version="1.0" encoding="utf-8"?>
<!-- Generator: Adobe Illustrator 24.2.1, SVG Export Plug-In . SVG Version: 6.00 Build 0)  -->
<svg version="1.1" id="Layer_1" xmlns="http://www.w3.org/2000/svg" xmlns:xlink="http://www.w3.org/1999/xlink" x="0px" y="0px"
	 viewBox="0 0 500 500" style="enable-background:new 0 0 500 500;" xml:space="preserve">
<style type="text/css">
	.st0{fill:#F7F2EA;}
	.st1{fill:none;stroke:#F7F2EA;stroke-width:10;stroke-linecap:round;stroke-miterlimit:10;}
	.st2{display:none;fill:#F7F2EA;}
</style>
<path class="st0" d="M89.5,359c0.4,1.2,5.4,0.3,10.2-1.7c5-2.1,12.3-2.6,18.9-2.7c12-0.1,23.4-6.6,23.9-6.6c4.2,0,8.3,0,12.5,0.1
	c6.9,0.1,13.7,0.2,20.6,0.3c1,0,2-2.3,2.9-2.4c0-0.4,0.1-0.4,0.1-0.5c0-0.2,0-0.5-0.1-0.7c-1.5-3.2-0.4-5.6,1.9-7.9
	c3-3,6.5-4.8,10.6-5.7c7.6-1.6,23-1.7,26.2-5.9c1-0.2-10.2-22.6-22.1-19.7c-2.8-0.4-46.9,8.2-48.5,6.5c-6.5-7,35.9-13,34.2-15.3
	c-3.4-4.6-5.9-6.2-9.1-11c-4.3-6.5-1.4-1.3-6.8-6.9c-6.7-6.8-13.9-13-22-18c-4.3-2.6-4.3-2.6-9-0.2c-5.2,2.2-7.9,9-8.2,9.7
	c-1.1,2.4-8,4.8-7.7,7.3c0.7,6.8-13.7,13.5-12.9,20.3c1,9.5-12.9,19.1-11.8,28.6C93.8,332.8,88.6,352.2,89.5,359z"/>
<path class="st1" d="M469.6,442.6c-4.8,0.7-9.6,1.8-14.5,1.5c-2.1-0.2-4.3-0.3-6.4-0.5c-3.5-0.2-7-0.4-10.5-0.6
	c-5.7-0.3-26.5-0.4-32.2-1c-2.6-0.3-16.1,0.8-18.5-0.2c-3.2-1.4-8.1-2-8.7-5.5c-0.8-4.7-2.2-6.2-4.3-10.4c-2.1-4.1-3.7-7.5-3.8-12
	c-0.1-4.3-4.3-6.6-4.5-10.9c-0.1-2.7,2.7-5,1.1-7.2c-1.7-2.3-1.7-4.2-1.3-7.4c1.2-4.1,9.6-7.2,11.5-9c1.9-3.1,5.6-38.9,7.7-43.6
	c1.2-4.1,19.7-91.7,6.8-95.3c-9.4-8.1-31.3,125.6-41.1,124.6c-7.5-2.2-15.3-12.2-16.1-14.5c-2-5.3-1.9-15.6-3.8-21
	c-1.7-4.7-1.2-9.5-0.4-14.2c0.1-0.6-1.2-18.4-2.9-18.3c-0.2-0.8-0.3-1.3-0.4-1.9c-0.5-6-3-11.2-6.7-15.9c-1.2-1.4-2.1-2.9-2.7-4.7
	c-1.1-3.2-3.1-6-5.5-8.4c-4.4-4.3-8.9-8.5-13.4-12.7c-3.5-3.2-7.3-6.3-10.8-9.5c-1.7-1.5-3.2-3.1-4.6-4.8c-1.2-1.5-2.4-3.3-3.1-5.1
	c-1.6-3.9-3.9-7.2-7.2-9.7c-3.8-2.9-7.8-5.6-11.6-8.5c-0.8-0.6-1.4-1.6-1.7-2.5c-0.6-2.1-1-4.4-1.5-6.5c-0.6-2.3-1.1-4.7-2-6.9
	c-1.2-3.2-3.3-5.7-7.1-6c-0.8-0.1-1.2-0.5-1.6-1.2c-3-7.1-7.8-13-12.7-18.8c-3.1-3.6-6.3-7-9.2-10.7c-2.3-2.9-4.5-7-6.4-10.3
	c-3.1-5.3-4.1-11-3.1-17.1c0.1-1,35.7-96.9,14.4-87.4c-16.1,7.1-33.5,80.6-41.2,80.6c-7.8,7.1-12,8-19,9.4
	c-8.7,1.9-24.1,2.2-29.7-0.3c-3,0.5-7.4-5-19.4-7.8c-8.1-0.7-7.6-14.1-11.6-15.6c-0.5-0.2-25.3-13.1-28.3-12.6
	c-3.2,0.6-9.2-14.3-11.4-15.5c-6-3.1-16.4-32.8-38.6-36.2"/>
<path class="st0" d="M204,162c2.9,0,4.8,4.6,6.4,6.7c3.5,4.5,7.2,8.8,10.8,13.2c2.5,3,5.2,5.9,7.5,9.1c2,2.8,3.9,5.7,5.3,8.8
	c1.9,4.2,5.6,6.2,9.3,8.3c2.5,2.4,1.1,5.1,1.7,7.7c1,4.7,4.5,5.5,4.5,10.5c-3.8,7.2-9.2,13-16.3,17.2c-9.4,5.6-19.5,7.4-30.2,5.5
	c-22-3.9-37.4-23.6-36.2-45.7C168,180.9,183.8,163.8,204,162z"/>
<path class="st0" d="M315.9,333.2c1.1,4.8-0.1,3.9,1.6,9.1c2,2.7,0.8,14.9-0.7,15.1c-3.5,1.7-22.7-0.9-42-1.4
	c-8.4-0.2-19.8-5.7-28.2-6.1c-1.9-0.1-13.8-0.2-15.7-0.4c-7.6-1-27.4,0.6-35.7-0.3c-3.3,0.3-1-8.2,4.4-9.4c5.7-1.3,24.4-2.6,30-3.9
	c2.7-0.6,4.9-2.1,7.2-3.7c2.3-1.6,41.5-5.2,40.9-11.2c-0.5-4.5-33.6-1.8-33.3-5.5c0.5-5.8,2.3-5.6,3.9-11.2c0.2-0.7,5-12.7,6.8-18.2
	c1-3.1,2.8-5.7,4.7-8.3c1.3-1.7,3.3-2.1,5.3-2.4c2.7-0.4,5.4-0.7,8-1.3c4.9-1,9.8-2.2,14.7-3.3c2-0.4,4.1-0.8,6.1-1.1
	c1.3-0.2,2.5,0.2,3.4,1.3c1.4,1.7,5.6,7.1,6,8.3c0.6,2.2,1.7,4.1,3.2,5.8c3.3,3.7,5.3,7.9,5.5,13c0,1.2,0.4,2.4,1,3.4
	c0.9,1.6,1.6,9.6,1.8,11.9C315,314.2,315.1,333.3,315.9,333.2z"/>
<path class="st2" d="M353.4,430.4c1.4,2.2,1.3,4.4,1,6.6c-0.4,2.8,0,5.4,0.8,8c1.8,6.4,4.6,12.4,8,18.2c1.1,1.8,2.6,2.9,4.5,3.7
	c3.6,1.6,7.5,2.5,11.4,2.6c10.3,0.4,19.9,3.6,29.6,6.6c7.3,2.3,14.6,4.6,22.2,5.7c3.9,0.6,7.9,0.8,11.9,1.3c3.2,0.4,6.3,0.9,9.5,1.4
	c0.9,0.2,1.7,0.7,2.6,1.1c-0.4,1.6-1.6,2-2.6,2.5c-5.6,2.9-11.6,3.2-17.8,2.4c-6-0.8-11.6-2.8-17.3-4.8c-10.2-3.6-20.3-7.2-30.9-9.5
	c-5.1-1.1-10.3-2.1-15.6-2.7c-9.2-1-15-6.2-17.8-14.6c-2.7-8.3-2.9-17-0.7-25.5C352.5,432.4,353,431.4,353.4,430.4z"/>
<path class="st0" d="M254.5,368c-0.7,0.7-1.3,1.5-2.1,1.9c-3.4,2.1-6.9,4-10.9,4.7c-1.6,0.3-3.2,0.8-4.8,1.4
	c-6.7,2.3-13.6,2.5-20.6,1.4c-3.2-0.5-6.3-0.9-9.5-1.2c-4.5-0.4-8.9,0.5-13.3,1.1c-2,0.3-4.1,0.2-6.2,0.5c-1.3,0.1-2.7,0.3-3.9,0.8
	c-2.5,1.1-5.1,1.2-7.7,1.4c-0.4,0-0.9-0.1-1.5-0.2c0.9-3.6,3.3-5.7,6.4-7c1.2-0.5,2.6-0.8,3.8-1.5c4.9-2.6,10.2-3.3,15.5-3.3
	c6.2,0,12.5,0.2,18.7,0.6c4.9,0.3,9.6-0.1,14.2-1.2c4.5-1.1,9-1.4,13.6-1.3C248.1,366.1,252.8,367.1,254.5,368z"/>
<path class="st0" d="M250.5,382.2c-1.1,2.6-2.3,4.2-4.4,4.9c-6.6,2.1-13.4,3.7-20.2,4.9c-5.8,1-11.5,0.4-17.1-0.7
	c-4.1-0.8-8.1-0.7-12,0.9c-0.2,0.1-0.4,0.2-0.7,0.2c-4.5,0.1-8.9,1.8-13.5,1c-1.7-0.3-3.5-0.3-5.4-0.5c0.8-2.2,1.8-3.8,4-4.5
	c8.4-2.7,16.7-5.5,25.7-5.1c2.9,0.1,5.9,0.4,8.8,1c3.1,0.6,6,0.4,9-0.2c4.5-1,9.1-1.9,13.8-1.3c0.5,0.1,1,0,1.4-0.1
	C243.2,382.6,246.6,382.4,250.5,382.2z"/>
<path class="st0" d="M470.6,463.2c-1.1-1.5-2.8-3-4.6-3.5c-5.8-1.6-16.9,1.6-22.9,1.9c-1,0.1-6.9-2.3-7.9-2.1
	c-10.9-2.5-18.6-3.8-29-2.8c-2.2-0.7-12.3,0.4-14.4,1.2c-0.9,0.3-4,1.7-4.1,2.8c-0.1,1.2,0.6,3.7,1.5,4.1c2.4,1,4.9,1.3,7.4,1.7
	c6.7,0,25-1.4,30.3-0.6c1.8,0.3,3.3,1.2,5.3,1.9c4,0.6,6.7,3.1,10.7,2.6c2.5-0.3,6.1-0.4,8.6-0.5c2.9-0.2,13.1-2.8,16-3.1
	C468.7,466.8,470.1,464.7,470.6,463.2z"/>
<path class="st0" d="M187.5,407.4c1.4-2.5,3.2-3.9,5.8-4.6c2.1-0.6,4.2-1.4,6.2-2.4c3.8-1.9,7.7-2.5,11.8-1.3c3.7,1,7.4,0.9,11.1,0
	c3.6-0.8,7.1-1.6,10.9-1.1c1.7,0.2,3.5-0.2,5.3-0.2c0.8,0,1.5,0.1,2.5,0.1c-0.4,1.9-1.2,3-2.6,3.7c-7.6,3.8-15.7,5.8-24.2,5.7
	c-1.2,0-2.4-0.2-3.5-0.5c-3.9-1.1-7.7-1-11.5,0.3c-1.5,0.5-3,1-4.5,1.5C192.2,409.3,189.9,409.1,187.5,407.4z"/>
<path class="st0" d="M352.3,436c0-1.5-0.2-3.9-0.1-6.3c0.1-2-0.3-8.6,5.3-8.1c1.6,0.2,2.3,5.3,2.7,6.6c0.7,2,1.4,4.1,1.6,6.2
	c0.2,2.1,0.8,4,1.8,5.9c1.7,3.2,4.2,5.8,7,8.1c1.5,1.3,3.1,2.5,4.6,3.8c1.8,1.5,2.9,3.4,3.1,5.8c0.2,2.9-3.6,4.6-6.2,3.5
	c-0.9-0.4-1.7-1-2.3-1.6c-4.7-4.4-9.9-9-13.7-14.1C354.1,443.1,353.4,439.9,352.3,436z"/>
<path class="st0" d="M230.5,415.6c-0.9,0.6-1.5,1.1-2.1,1.5c-0.5,0.3-1.2,0.5-1.8,0.8c-6.7,2.7-6.9,3.4-14.8,1.2
	c-2.2-0.6-4.4-0.4-6.6,0.1c-2.4,0.6-4.7,0.3-6.9-1.3c0.4-1.2,1.2-1.8,2.2-2.3c4.5-2.2,9.1-2.1,13.8-1.2c1.3,0.2,2.5,0.6,3.8,0.6
	c2,0.1,4,0.1,5.9-0.2C226.3,414.4,228.2,414.4,230.5,415.6z"/>
<path class="st0" d="M416.1,479.5c-1.1,0-7.5-2.7-8.6-2.6c-11.3-2.3-20.2-3-31.5-4.5c-4.5-1-9.5-7.3-16.9-8.8
	c-1,0.3-4.2,0.5-4.3,1.6c-0.1,1.2,0.8,3.4,1.4,4.2c3,3.4,6.9,6.7,9.7,7.3c7.7,2.5,26.7,5.5,32.6,5.2c2,0.4,3.7,0.4,5.9,1.2
	c4.3,0.8,7.3,3.6,11.6,3.3C418.7,486.4,422.5,479.5,416.1,479.5z"/>
</svg>
