<?xml version="1.0" encoding="utf-8"?>
<!-- Generator: Adobe Illustrator 24.2.0, SVG Export Plug-In . SVG Version: 6.00 Build 0)  -->
<svg version="1.1" id="Layer_1" xmlns="http://www.w3.org/2000/svg" xmlns:xlink="http://www.w3.org/1999/xlink" x="0px" y="0px"
	 viewBox="0 0 500 500" style="enable-background:new 0 0 500 500;" xml:space="preserve">
<style type="text/css">
	.st0{fill:#F7F2EA;}
</style>
<path class="st0" d="M447,35.1c-4.3-1.7-8.6-3.3-13.2-3.9c-6.8-0.9-13.6-0.6-20.4-0.2c-7.2,0.4-14.4,0.9-21.5-0.5
	c-5.8-1.1-11.7-1.8-17.6-2.1c-11.3-0.5-22.7-0.9-34-1c-22.1-0.2-44.3,0-66.4-0.2c-15.9-0.1-31.8-0.7-47.7-1
	c-8.6-0.2-17.3-0.5-25.9-0.7c-9.7-0.3-19.3-0.9-29-1c-5.9,0-11.9,0.3-17.7,1.2c-10.4,1.6-20.8,1.9-31.3,1.4
	c-8.8-0.4-17.6-0.6-26.4-0.7c-6.6,0-13,1-19.4,2.7c-1.6,0.4-3.3,0.7-4.9,0.7c-9,0-18.1,0-27.1-0.1c-0.8,0-1.7,0-3,0
	c0.9,2.4,1.6,4.4,2.3,6.4c2.3,6.1,4.8,12.2,6.8,18.4c1.2,3.6,3,6.6,6,8.7c3.1,2.1,6.3,4.1,9.7,5.7c7.1,3.5,14.7,5.7,22.4,7.7
	c4.2,1.1,8.6,2,12.7,3.5c8.7,3.2,15.9,8.7,22.3,15.4c5.5,5.8,10.4,12.2,14.6,19c6.7,10.5,15,19.5,23.8,28.1
	c6.9,6.7,14.9,11.8,23.6,15.7c4.4,2,9.1,3,14,2.7c1.8-0.1,3.7-0.1,5.5,0c7.4,0.4,13.8,3,18.9,8.6c2.3,2.5,4.7,5,7,7.5
	c11.7,12.6,22.2,26.2,32.7,39.9c3.1,4.1,6.6,7.8,10.5,11.1c3.3,2.8,6.6,5.5,10,8.2c3.9,3,8,5.9,12.5,8c18.9,9,36.7,19.9,53.4,32.4
	c1.7,1.3,3.6,2.4,5.6,3.2c7.6,3.3,12.3,9,13.6,17.2c0.7,4.6,1,9.4,1.4,14.1c0.6,7,3.5,12.5,9.7,16.1c4,2.3,7,5.6,9.4,9.4
	c3.1,4.9,5.3,10.2,6.8,15.8c3.2,12,4.5,24.2,4.6,36.5c0.2,18.5,0,37.1,0,55.6c0,1,0,2.1,0,3.1c0.4,4.8,2.7,8.1,7.3,9.7
	c0.9,0.3,1.8,0.6,2.7,0.9c6.2,1.9,12.6,3,19,3.7c3.4,0.4,6.9,0.5,10.3,0.5c3.3,0,3.8-0.4,4.4-3.5c0.8-4.5,1.6-9,2-13.5
	c0.6-7.2,0.7-14.5,1.1-21.8c0.4-6.5,0.8-12.9,1.4-19.4c0.3-3.9,1.2-7.8,1.3-11.7c0.3-8.4,0.2-16.8,0.3-25.2
	c0.1-6.8-0.2-13.6,0.2-20.4c0.7-12.4,0.7-24.8,0.5-37.2c-0.1-9.7,0-19.3,0.2-29c0.1-7.4,0.5-14.7,0.7-22.1
	c0.7-27.6-0.5-55.2-1.1-82.7c-0.1-2.6-0.1-5.1-0.5-7.7c-1-7.5-1.3-15.1-1.4-22.7c-0.1-7.6-0.1-15.2-0.5-22.8
	c-0.9-16-1.3-31.9-1.4-47.9c0-10-0.3-20-0.5-30C447.4,42.1,447.2,38.7,447,35.1z M379.8,341.7c-1.3-2.1-3-3.6-5-4.8
	c-7.8-4.6-12.6-11.5-14.2-20.4c-0.7-3.7-0.8-7.5-1.2-11.2c-0.1-0.6-0.2-1.3-0.3-1.9c-0.2,0-0.3,0-0.5-0.1c-1.1,1.7-2.3,3.4-3.4,5.2
	c-3.3,5.5-6.5,11-9.7,16.5c-1.9,3.2-4.6,5.7-8,7.4c-3.9,2.1-7.9,4.1-12.4,4.8c-2.4,0.4-4.7,1.1-7,1.6c-6.2,1.3-12.5,2.9-18.9,3.3
	c-1.3,0.1-2.8,0.1-4-0.5c-1.8-0.9-3.5-1-5.3-0.9c-2,0.1-4,0.3-6,0.6c-2.9,0.4-5.8,0.9-8.8,1.4c-1,0.2-1.8,0.1-2.2-0.9
	c-0.4-1.1,0.1-1.8,1.1-2.3c1.3-0.7,2.7-1.5,4-2.1c4.8-2.2,9.5-4.5,14.3-6.6c1.6-0.7,3.3-1.1,5.1-0.6c0.7,0.2,1.6-0.1,2.3-0.3
	c5.4-2.2,10.7-4.4,16.2-6.7c0-0.6,0-1.3-0.1-2c-0.8-4.8-1.1-9.5-0.8-14.3c0.3-4.6-0.3-9.1-1.3-13.5c-0.6-2.7-1.6-5.3-3.3-7.4
	c-1.9-2.3-4-4.5-6.3-6.6c-3.3-3.1-7.4-4-11.8-3.2c-2.7,0.5-5.4,1.3-8.1,2c-2.3,0.6-4.6,1.2-7,1.7c-4,0.7-8,1.3-12.1,1.9
	c-1.9,0.3-3.6,0.8-4.8,2.4c-1.7,2.4-3.5,4.7-4.4,7.6c-1.8,5.5-3.3,11-6,16.1c-0.5,1-0.8,2.1-1.1,3.2c-1.7,6-2.4,12.2-2.9,18.4
	c-0.1,1.7-0.4,3.5-0.6,5.2c-1,0.3-1.8,0.4-2.5,0.7c-1.8,0.8-3.8,1.4-5.3,2.7c-1.9,1.7-3.9,2.8-6.2,3.5c-2.3,0.7-4.6,1.4-6.9,1.9
	c-7.7,1.6-15.3,3.2-23,4.8c-2.2,0.5-4.2,1.2-6.4,1.9c0.9,2.6,1.4,3.1,3.7,2.9c5.2-0.3,10.4-0.8,15.5-1.2c4.2-0.3,8.4-0.9,12.7-0.5
	c6.5,0.5,12.9,0.9,19.4,1.2c10.6,0.5,21.2,0.9,31.9,1.2c21.6,0.5,43.2,0.9,64.7,1.3c0.7,0,1.5,0,2.1-0.1c4.2-0.9,8.4-1.9,12.6-2.9
	c3.5-0.8,7.1-1.4,10.3-3.2c0.9-0.5,1.9-1.2,2.5-2.1c1.1-1.5,2.4-2.6,4-3.3C376.3,342.9,377.9,342.4,379.8,341.7z M181.2,169.1
	c-10.7,11.4-15.7,30.7-9.1,48.1c7.4,19.8,22,31,43.1,32.5c18.2,1.3,32.6-6.4,43.5-21c-0.3-0.5-0.5-0.7-0.7-1
	c-4.6-5.9-9.2-11.7-13.7-17.6c-8.8-11.2-18.1-22-27.9-32.3c-3.5-3.7-7.6-5.4-12.6-5.5c-1.7,0-3.4,0.1-5,0c-2.2-0.1-4.3,0-6.4-0.4
	C188.7,171.1,185.1,170.1,181.2,169.1z M222.7,332.6c0-0.1,0-0.3,0-0.4c-1.1-0.2-2.1-0.4-3.2-0.7c-1.5-0.4-3-0.6-4.4-1.2
	c-1.6-0.6-3.1-1.5-4.8-2.1c-6.2-2.2-11.4-5.6-15.3-11c-2.8-3.9-5.7-7.7-8.5-11.6c-2.2-3-4.2-6.3-6.6-9.2
	c-6.6-7.9-13.6-15.3-21.7-21.6c-3.3-2.6-6.6-5.1-10.2-7.1c-4.2-2.3-3.4-2.5-7.6,0.9c-2,1.7-3.1,3.8-3,6.5c0,0.9,0,1.8-0.4,2.6
	c-1.1,2.3-0.9,4.7-0.6,7c0.7,7.1,1.4,14.2,2.2,21.2c0.9,8.1,1.8,16.2,2.7,24.3c0.7,6.1,1.4,12.2,2.2,18.3c0.2,1.5,0.4,3,0.7,4.6
	c1.2,0,2.2,0,3.2,0c2.6-0.1,5.3-0.3,7.9-0.2c4.5,0.1,8.9,0.6,13.4,0.7c4.1,0.1,8.3,0,12.4-0.1c1.1,0,2.1-0.3,3.2-0.4
	c-0.1-0.7-0.1-1.1-0.3-1.5c-1.6-3.3-0.4-5.6,2.1-7.9c2-1.9,4-3.7,6.7-4.5c2.5-0.8,5.1-1.5,7.6-2.1c6.2-1.3,12.5-2.6,18.8-3.9
	C220.5,333.2,221.6,332.9,222.7,332.6z M233.1,390.5c-1-0.6-1.7-1.1-2.5-1.5c-4.3-2.3-9-3.7-13.8-4.6c-13.4-2.6-26.9-3.2-40.5-1.4
	c-4.7,0.6-9.3,1.5-13.7,3.4c-1.1,0.5-2.2,1.1-3.6,1.9c1.3,0.8,2.2,1.6,3.2,2c3.4,1.3,6.8,2.8,10.3,3.7c11.9,3,24,3.6,36.2,2.7
	c5.2-0.4,10.3-1.3,15.4-2.3C227.2,393.7,230.2,392.7,233.1,390.5z M165.4,410.1c1.7,1.3,3.5,1.9,5.3,2.5c6.5,2.2,13.1,3.5,19.9,4.2
	c11.7,1.3,23.4,1.6,35.2,0.5c5.5-0.5,11-1.2,16.2-2.9c1.5-0.5,2.9-1.1,4.8-1.9c-1.2-0.6-1.9-1.1-2.6-1.3c-3.7-1.2-7.4-2.6-11.2-3.5
	c-11.8-2.6-23.9-3.3-35.9-3.1c-8.1,0.1-16.1,0.8-24,2.6C170.5,408,167.9,408.7,165.4,410.1z M259.4,435.6c0-0.2,0-0.4,0-0.5
	c-1.2-0.5-2.3-1-3.5-1.3c-10.2-3.2-20.8-4.4-31.4-4.7c-7.6-0.2-15.2,0-22.8,0.5c-4.6,0.3-9.1,1.5-13.7,2.3c-1,0.2-2,0.7-3,1
	c0.7,0.8,1.4,1.2,2.1,1.4c3.5,1,6.9,2.1,10.4,2.8c13.4,2.6,27,3.1,40.6,2.3c5.6-0.3,11.1-1.4,16.6-2.3
	C256.3,436.8,257.8,436.1,259.4,435.6z M277,455.7c-0.4-0.3-0.6-0.4-0.8-0.5c-0.8-0.3-1.7-0.6-2.5-0.8c-7.1-2-14.4-3-21.7-3.6
	c-13.6-1.1-27.2-0.8-40.6,2.1c-0.6,0.1-1.3,0.4-2.1,0.7C221.3,460,264.5,461.2,277,455.7z"/>
<path class="st0" d="M447,35.1c0.2,3.6,0.4,7.1,0.5,10.5c0.2,10,0.5,20,0.5,30c0,16,0.5,32,1.4,47.9c0.4,7.6,0.5,15.2,0.5,22.8
	c0.1,7.6,0.4,15.2,1.4,22.7c0.3,2.5,0.4,5.1,0.5,7.7c0.5,27.6,1.8,55.1,1.1,82.7c-0.2,7.4-0.6,14.7-0.7,22.1
	c-0.2,9.7-0.2,19.3-0.2,29c0.1,12.4,0.2,24.8-0.5,37.2c-0.4,6.8-0.1,13.6-0.2,20.4c-0.1,8.4,0,16.8-0.3,25.2
	c-0.1,3.9-1,7.8-1.3,11.7c-0.5,6.4-1,12.9-1.4,19.4c-0.4,7.3-0.6,14.5-1.1,21.8c-0.4,4.5-1.2,9-2,13.5c-0.6,3.1-1.1,3.5-4.4,3.5
	c-3.4,0-6.9-0.2-10.3-0.5c-6.4-0.7-12.8-1.9-19-3.7c-0.9-0.3-1.8-0.6-2.7-0.9c-4.6-1.6-6.9-5-7.3-9.7c-0.1-1,0-2.1,0-3.1
	c0-18.5,0.3-37.1,0-55.6c-0.1-12.3-1.4-24.6-4.6-36.5c-1.5-5.6-3.7-10.9-6.8-15.8c-2.4-3.8-5.5-7.1-9.4-9.4
	c-6.2-3.6-9.1-9.2-9.7-16.1c-0.4-4.7-0.7-9.4-1.4-14.1c-1.3-8.2-6-13.9-13.6-17.2c-2-0.9-3.9-1.9-5.6-3.2
	c-16.7-12.6-34.5-23.4-53.4-32.4c-4.5-2.1-8.6-5-12.5-8c-3.4-2.6-6.7-5.4-10-8.2c-3.9-3.3-7.4-7-10.5-11.1
	c-10.5-13.6-21-27.2-32.7-39.9c-2.3-2.5-4.7-5-7-7.5c-5.1-5.5-11.5-8.2-18.9-8.6c-1.8-0.1-3.7-0.1-5.5,0c-4.9,0.3-9.5-0.7-14-2.7
	c-8.8-3.9-16.7-9-23.6-15.7c-8.9-8.6-17.2-17.6-23.8-28.1c-4.3-6.8-9.1-13.1-14.6-19c-6.3-6.7-13.5-12.3-22.3-15.4
	c-4.1-1.5-8.4-2.4-12.7-3.5c-7.6-2-15.2-4.3-22.4-7.7c-3.4-1.6-6.6-3.6-9.7-5.7c-3-2.1-4.9-5-6-8.7c-2-6.2-4.5-12.3-6.8-18.4
	c-0.7-2-1.4-4-2.3-6.4c1.3,0,2.1,0,3,0c9,0,18.1,0.1,27.1,0.1c1.7,0,3.4-0.2,4.9-0.7c6.4-1.7,12.8-2.7,19.4-2.7
	c8.8,0,17.6,0.3,26.4,0.7c10.5,0.4,20.9,0.2,31.3-1.4c5.8-0.9,11.8-1.2,17.7-1.2c9.7,0.1,19.3,0.6,29,1c8.6,0.3,17.3,0.5,25.9,0.7
	c15.9,0.4,31.8,0.9,47.7,1c22.1,0.2,44.3,0,66.4,0.2c11.3,0.1,22.7,0.5,34,1c5.9,0.2,11.8,0.9,17.6,2.1c7.1,1.4,14.3,0.8,21.5,0.5
	c6.8-0.3,13.6-0.7,20.4,0.2C438.5,31.8,442.8,33.4,447,35.1z"/>
<path class="st0" d="M379.8,341.7c-1.8,0.7-3.5,1.1-5,1.8c-1.6,0.7-3,1.8-4,3.3c-0.6,0.9-1.6,1.6-2.5,2.1c-3.2,1.7-6.8,2.4-10.3,3.2
	c-4.2,1-8.4,1.9-12.6,2.9c-0.7,0.2-1.4,0.2-2.1,0.1c-21.6-0.4-43.2-0.8-64.7-1.3c-10.6-0.3-21.3-0.7-31.9-1.2
	c-6.5-0.3-12.9-0.7-19.4-1.2c-4.3-0.3-8.5,0.2-12.7,0.5c-5.2,0.4-10.4,0.9-15.5,1.2c-2.3,0.2-2.8-0.3-3.7-2.9
	c2.1-0.6,4.2-1.4,6.4-1.9c7.6-1.7,15.3-3.2,23-4.8c2.3-0.5,4.6-1.2,6.9-1.9c2.3-0.7,4.3-1.8,6.2-3.5c1.4-1.3,3.5-1.9,5.3-2.7
	c0.7-0.3,1.5-0.4,2.5-0.7c0.2-1.7,0.4-3.4,0.6-5.2c0.5-6.2,1.2-12.4,2.9-18.4c0.3-1.1,0.6-2.2,1.1-3.2c2.8-5.1,4.2-10.7,6-16.1
	c1-2.9,2.7-5.2,4.4-7.6c1.2-1.6,2.9-2.1,4.8-2.4c4-0.6,8.1-1.2,12.1-1.9c2.3-0.4,4.7-1.1,7-1.7c2.7-0.7,5.4-1.5,8.1-2
	c4.4-0.8,8.5,0,11.8,3.2c2.2,2.1,4.3,4.3,6.3,6.6c1.8,2.1,2.7,4.7,3.3,7.4c1,4.5,1.6,8.9,1.3,13.5c-0.3,4.8,0,9.6,0.8,14.3
	c0.1,0.7,0.1,1.4,0.1,2c-5.5,2.3-10.9,4.5-16.2,6.7c-0.7,0.3-1.6,0.5-2.3,0.3c-1.8-0.5-3.5-0.1-5.1,0.6c-4.8,2.1-9.6,4.4-14.3,6.6
	c-1.4,0.6-2.7,1.4-4,2.1c-1,0.5-1.5,1.2-1.1,2.3c0.4,1,1.3,1.1,2.2,0.9c2.9-0.5,5.8-1,8.8-1.4c2-0.3,4-0.5,6-0.6
	c1.8-0.1,3.6,0.1,5.3,0.9c1.1,0.6,2.6,0.5,4,0.5c6.4-0.3,12.6-1.9,18.9-3.3c2.3-0.5,4.6-1.2,7-1.6c4.5-0.7,8.4-2.7,12.4-4.8
	c3.3-1.7,6-4.2,8-7.4c3.3-5.5,6.5-11,9.7-16.5c1.1-1.8,2.2-3.5,3.4-5.2c0.2,0,0.3,0,0.5,0.1c0.1,0.6,0.2,1.3,0.3,1.9
	c0.4,3.7,0.5,7.5,1.2,11.2c1.7,8.9,6.4,15.7,14.2,20.4C376.7,338.2,378.5,339.6,379.8,341.7z"/>
<path class="st0" d="M181.2,169.1c3.9,1,7.5,2.1,11.2,2.8c2.1,0.4,4.3,0.3,6.4,0.4c1.7,0.1,3.4-0.1,5,0c5,0.1,9.1,1.8,12.6,5.5
	c9.8,10.4,19.1,21.1,27.9,32.3c4.6,5.9,9.1,11.7,13.7,17.6c0.2,0.2,0.3,0.5,0.7,1c-10.9,14.6-25.3,22.3-43.5,21
	c-21-1.6-35.6-12.8-43.1-32.5C165.6,199.8,170.6,180.4,181.2,169.1z"/>
<path class="st0" d="M222.7,332.6c-1.1,0.3-2.3,0.6-3.4,0.8c-6.3,1.3-12.5,2.5-18.8,3.9c-2.6,0.6-5.1,1.3-7.6,2.1
	c-2.7,0.8-4.7,2.6-6.7,4.5c-2.5,2.3-3.7,4.6-2.1,7.9c0.2,0.3,0.1,0.8,0.3,1.5c-1.1,0.1-2.2,0.4-3.2,0.4c-4.1,0.1-8.3,0.2-12.4,0.1
	c-4.5-0.1-8.9-0.5-13.4-0.7c-2.6-0.1-5.3,0.1-7.9,0.2c-1,0-2,0-3.2,0c-0.2-1.7-0.5-3.1-0.7-4.6c-0.7-6.1-1.5-12.2-2.2-18.3
	c-0.9-8.1-1.8-16.2-2.7-24.3c-0.8-7.1-1.5-14.1-2.2-21.2c-0.2-2.4-0.5-4.7,0.6-7c0.4-0.8,0.4-1.7,0.4-2.6c-0.2-2.7,1-4.8,3-6.5
	c4.2-3.5,3.5-3.3,7.6-0.9c3.6,2,6.9,4.6,10.2,7.1c8.1,6.4,15.2,13.7,21.7,21.6c2.4,2.9,4.4,6.1,6.6,9.2c2.8,3.9,5.7,7.7,8.5,11.6
	c3.9,5.4,9.1,8.8,15.3,11c1.6,0.6,3.1,1.5,4.8,2.1c1.4,0.5,2.9,0.8,4.4,1.2c1,0.3,2.1,0.4,3.2,0.7
	C222.7,332.3,222.7,332.5,222.7,332.6z"/>
<path class="st0" d="M233.1,390.5c-3,2.2-5.9,3.3-9,3.8c-5.1,1-10.2,1.9-15.4,2.3c-12.2,0.8-24.3,0.2-36.2-2.7
	c-3.5-0.9-6.9-2.4-10.3-3.7c-1-0.4-1.9-1.2-3.2-2c1.4-0.7,2.5-1.4,3.6-1.9c4.4-1.9,9-2.8,13.7-3.4c13.6-1.8,27.1-1.3,40.5,1.4
	c4.8,0.9,9.5,2.3,13.8,4.6C231.4,389.4,232.1,389.8,233.1,390.5z"/>
<path class="st0" d="M165.4,410.1c2.5-1.4,5.1-2.1,7.6-2.7c7.9-1.8,15.9-2.5,24-2.6c12.1-0.2,24.1,0.5,35.9,3.1
	c3.8,0.8,7.5,2.3,11.2,3.5c0.7,0.2,1.4,0.7,2.6,1.3c-2,0.8-3.4,1.4-4.8,1.9c-5.3,1.7-10.7,2.4-16.2,2.9c-11.7,1.1-23.5,0.7-35.2-0.5
	c-6.8-0.7-13.4-2.1-19.9-4.2C168.9,412.1,167.1,411.4,165.4,410.1z"/>
<path class="st0" d="M259.4,435.6c-1.6,0.5-3.1,1.1-4.7,1.4c-5.5,0.9-11,1.9-16.6,2.3c-13.6,0.8-27.2,0.3-40.6-2.3
	c-3.5-0.7-6.9-1.8-10.4-2.8c-0.7-0.2-1.4-0.6-2.1-1.4c1-0.3,2-0.8,3-1c4.5-0.8,9.1-2,13.7-2.3c7.6-0.5,15.2-0.8,22.8-0.5
	c10.6,0.3,21.2,1.5,31.4,4.7c1.2,0.4,2.3,0.9,3.5,1.3C259.4,435.3,259.4,435.5,259.4,435.6z"/>
<path class="st0" d="M277,455.7c-12.6,5.5-55.7,4.3-67.7-2.1c0.8-0.3,1.4-0.6,2.1-0.7c13.4-2.9,26.9-3.2,40.6-2.1
	c7.3,0.6,14.6,1.5,21.7,3.6c0.8,0.2,1.7,0.5,2.5,0.8C276.4,455.3,276.6,455.5,277,455.7z"/>
</svg>
