<?xml version="1.0" encoding="utf-8"?>
<!-- Generator: Adobe Illustrator 24.2.1, SVG Export Plug-In . SVG Version: 6.00 Build 0)  -->
<svg version="1.1" id="Layer_1" xmlns="http://www.w3.org/2000/svg" xmlns:xlink="http://www.w3.org/1999/xlink" x="0px" y="0px"
	 viewBox="0 0 500 500" style="enable-background:new 0 0 500 500;" xml:space="preserve">
<style type="text/css">
	.st0{fill:#F7F2EA;}
</style>
<path class="st0" d="M426.3,20.2c-0.4,0-0.7-0.1-1,0c-3.9,1-7.9,0.9-11.9,0.9c-15.9-0.1-31.8-1.9-47.6-3.1
	c-4.1-0.3-8.3-0.6-12.4-0.5c-4.9,0.1-9.7,0.7-14.6,1c-5.8,0.4-11.6,0.5-17.5-0.2c-6.3-0.8-12.5-1.5-18.8-1.9c-8-0.6-16-1.1-24-1.2
	c-16.4-0.2-32.8-0.3-49.2,0c-11.7,0.2-23.3,1-35,1.7c-7.5,0.4-15,1.1-22.5,1.7c-6.7,0.5-13.4,1.2-20.1,1.6
	c-10.2,0.6-20.3-0.6-30.4-1.2c-6.7-0.4-13.4-0.4-20.1,0.6c-3.6,0.5-7.1,1.2-10.7,1.5c-6.3,0.6-12.6,1-18.9,1.4
	c-9.5,0.6-18.3,3.6-26.4,8.5c-1.3,0.8-2.4,1.8-3.5,2.7c1.6,5.7,3.2,11.3,4.7,16.8c0.3,1,0.8,1.9,1.1,2.9c0.8,1.9,1.6,3.8,2.2,5.8
	c0.5,1.4,0.6,2.8,1,4.2c1.3,4.4,3.2,5.8,7.8,5.7c0.8,0,1.5,0.1,2.1,0.8c2.5,3.1,5.8,4.2,9.6,3.7c5.5-0.7,11.1-1.5,16.6-2.3
	c6.5-0.9,12.9-0.5,18.9,2.6c2.2,1.2,4.7,1.9,7.2,2.6c3,0.9,6.1,1.4,9.2,0.8c3-0.5,5.1-2.1,6.2-5c0.3-0.9,0.6-1.8,1-2.7
	c0.9-1.9,1.9-3.9,2.9-5.8c0.7-1.1,1.5-2.5,3.1-2.2c1.5,0.3,1.8,1.7,2.1,2.9c0.4,1.9,0.7,3.8,1,5.7c0.2,2.1,0.3,4.3,0.5,6.5
	c0.6,0.2,1.1,0.3,1.6,0.5c4,1.4,8.1,2.6,11.9,4.4c2.6,1.2,4.9,2.1,7.9,1.6c3.4-0.6,5.6,1.1,6.7,4.5c0.3,0.9,0.5,1.9,0.6,2.8
	c0.7,6.5,4,11.9,7.8,17c0.8,1,1.7,2,2.7,2.7c4.9,3.8,7.6,3.2,11.1,0.6c0.9-0.7,1.9-1.3,2.8-1.8c0.6-0.4,1.3-0.6,2-0.8
	c0.9-0.3,1.9-0.2,2.4,0.6c0.8,1.2,1.9,1.4,3.1,1.5c1,0.1,1.9,0.2,2.8,0.5c2.4,0.7,4.8,1.3,7,2.4c2.9,1.4,4.9,3.7,5.2,7.2
	c0.3,4.4,0.8,8.8,1.2,13.1c0.1,1.1,0.4,2.2,0.2,3.3c-1,6.1,0,11.8,3.1,17.1c1.9,3.2,4,6.3,6.4,9.3c2.9,3.7,6.1,7.2,9.2,10.7
	c5,5.8,9.7,11.7,12.7,18.8c0.3,0.7,0.7,1.2,1.6,1.2c3.8,0.3,5.9,2.7,7.1,6c0.8,2.2,1.4,4.6,2,6.9c0.6,2.2,0.9,4.4,1.5,6.5
	c0.3,0.9,0.9,1.9,1.7,2.5c3.8,2.9,7.8,5.6,11.6,8.5c3.3,2.5,5.6,5.8,7.2,9.7c0.7,1.8,1.9,3.5,3.1,5.1c1.4,1.7,3,3.4,4.6,4.8
	c3.6,3.2,7.3,6.2,10.8,9.5c4.5,4.1,9,8.3,13.4,12.7c2.4,2.4,4.3,5.2,5.5,8.4c0.6,1.8,1.6,3.3,2.7,4.7c3.7,4.7,6.2,9.9,6.7,15.9
	c0,0.5,0.2,1.1,0.4,1.9c1.7-0.1,3.4-0.1,5-0.4c7.4-1.2,14.8-2.6,22.2-3.8c2.5-0.4,5-1,7.8-0.5c-0.2,1-0.2,1.9-0.6,2.6
	c-1,1.6-2.1,3.3-3.5,4.5c-2.7,2.1-5.6,4-8.6,5.6c-4.4,2.3-9,4.2-13.4,6.3c-1.5,0.7-3,1.4-4.5,2.3c-0.6,0.4-1.4,1.1-1.5,1.7
	c-0.8,4.8-1.2,9.5,0.4,14.2c1.9,5.3,3.8,10.7,5.8,16c0.9,2.2,2,4.3,3.1,6.5c0.5,0.9,1.2,1.4,2.3,1.5c1.5,0.3,3,0.7,4.4,1.2
	c4.2,1.4,7.5,4.2,10.5,7.4c2.4,2.6,4.7,5.3,7.3,7.6c2.7,2.5,4.9,5.3,6.3,8.6c0.9,2,1.5,4,2.5,6c1.3,2.6,2.6,5.2,4.3,7.4
	c1.7,2.2,2.8,4.5,2.9,7.2c0.2,4.3,0.4,8.6,0.5,12.9c0.1,4.5,0.7,8.9,2.8,13c2.2,4.2,3.5,8.8,4.3,13.4c0.6,3.5,2.5,6.1,5.7,7.5
	c2.4,1,5,1.9,7.5,2.2c5.7,0.6,11.5,0.7,17.2,1c3.5,0.2,7,0.4,10.5,0.6c2.1,0.1,4.3,0.3,6.4,0.5c4.9,0.4,9.7-0.8,14.5-1.5
	c1.5-0.2,2.1-1,2.5-2.4c2.6-10.4,4.3-21,5.1-31.7c1.1-14.5,0.8-29.1,0.3-43.6c-0.1-4.5-0.2-8.9-0.1-13.4c0.1-5,0.6-10.1,0.6-15.1
	c-0.1-10.9-1.7-21.7-2.8-32.5c-0.9-8.7-1.7-17.4-2-26c-0.5-12.6-0.3-25.3-0.6-37.9c-0.3-12.1-0.6-24.3-1.2-36.4
	c-0.6-12.7-1.4-25.4-2.2-38.1c-0.5-7.5-0.9-15-1.5-22.5c-0.9-10.5-1.7-21-2.8-31.5c-0.7-7.3-1.4-14.6-2.7-21.9
	c-2-11.8-3.4-23.7-4.1-35.7c-0.4-7.5-1.2-15-2.7-22.4c-1.2-5.9-2.8-11.5-7.5-15.6C427.1,21.4,426.8,20.8,426.3,20.2z M209,159
	c-20.3,1.8-38.1,18.9-39.3,41.2c-1.2,22.1,14.2,41.8,36.2,45.7c10.7,1.9,20.8,0,30.2-5.5c7.1-4.2,12.5-10,16.3-17.2
	c-2.8-4.1-3.5-5.9-4.5-10.5c-0.5-2.6-1.1-5.1-1.7-7.7c-4.9-1-7.5-4.1-9.3-8.3c-1.4-3.1-3.3-6-5.3-8.8c-2.3-3.2-5-6-7.5-9.1
	c-3.6-4.4-7.3-8.7-10.8-13.2C211.8,163.6,210.5,161.3,209,159z M319.9,333.2c-0.9,0.2-1.7,0.3-2.4,0.4c-3.5,0.7-7,1.5-10.6,2
	c-3.3,0.5-6.6,1-9.9-0.5c-1.2-0.5-2.7-0.5-4-0.4c-2.9,0.2-5.9,0.6-8.8,1c-2,0.3-3.9,0.6-5.9,0.9c-1,0.1-1.8-0.1-2.1-1.1
	c-0.3-0.9,0.2-1.5,0.9-2c0.4-0.3,0.8-0.5,1.3-0.7c5.8-2.8,11.7-5.6,17.6-8.2c1.3-0.6,2.9-0.5,4.4-0.6c0.9-0.1,2,0,2.8-0.3
	c4.8-1.9,9.6-4,14.4-5.9c0.9-0.4,1.4-0.9,1.4-1.9c0-0.8,0-1.6,0-2.4c-0.2-2.3-0.5-4.6-0.6-6.9c-0.1-1.8-0.3-3.4-1.2-5
	c-0.6-1-0.9-2.3-1-3.4c-0.2-5.1-2.2-9.3-5.5-13c-1.5-1.7-2.6-3.6-3.2-5.8c-0.3-1.2-1-2.4-1.8-3.4c-1.3-1.7-2.8-3.2-4.2-4.9
	c-0.9-1.1-2.1-1.5-3.4-1.3c-2,0.3-4.1,0.7-6.1,1.1c-4.9,1.1-9.8,2.3-14.7,3.3c-2.7,0.6-5.4,0.8-8,1.3c-2,0.3-4,0.7-5.3,2.4
	c-2,2.5-3.8,5.2-4.7,8.3c-1.7,5.5-3.4,11-6.1,16.1c-0.3,0.6-0.5,1.4-0.7,2c-1.6,5.6-2.4,11.4-2.9,17.2c-0.2,2.3-0.5,4.6-0.7,6.5
	c-2.9,1.5-5.6,2.6-7.9,4.2c-2.3,1.6-4.5,3-7.2,3.7c-5.7,1.4-11.4,2.6-17,3.9c-5.4,1.3-10.9,2.5-16.3,3.8c-0.6,0.1-1.1,0.5-1.6,0.7
	c1.1,2.7,1.2,2.8,3.8,2.7c3.3-0.2,6.5-0.5,9.8-0.7c7.6-0.6,15.1-1.6,22.7-0.7c1.9,0.2,3.8,0.3,5.7,0.4c8.4,0.4,16.8,0.9,25.2,1.1
	c19.3,0.5,38.7,1,58,1.4c0.5,0,0.9-0.1,1.7-0.1C323.8,343.1,322.4,338,319.9,333.2z M144.4,346.9c1.6,0,2.8,0,4.1,0
	c4.2,0,8.3,0,12.5,0.1c6.9,0.1,13.7,0.2,20.6,0.3c1,0,2-0.3,2.9-0.4c0-0.4,0.1-0.4,0.1-0.5c0-0.2,0-0.5-0.1-0.7
	c-1.5-3.2-0.4-5.6,1.9-7.9c3-3,6.5-4.8,10.6-5.7c7.6-1.6,15.1-3.2,22.7-4.9c1-0.2,1.9-0.5,3-0.8c-0.3-0.4-0.4-0.5-0.5-0.6
	c-4.6-0.7-8.9-2.6-13.1-4.4c-5.3-2.2-9.9-5.2-13.3-9.9c-3.4-4.6-6.9-9.2-10.1-14c-4.3-6.5-9.4-12.3-14.8-17.9
	c-6.7-6.8-13.9-13-22-18c-4.3-2.6-4.3-2.5-8,0.8c-2,1.7-3,3.9-3,6.5c0,0.7,0.1,1.5-0.2,2.1c-1.1,2.4-1,4.8-0.7,7.3
	c0.7,6.8,1.3,13.5,2.1,20.3c1,9.5,2.1,19.1,3.2,28.6C142.8,333.7,143.6,340.2,144.4,346.9z M353.4,430.4c-0.4,1-0.9,1.9-1.1,3
	c-2.2,8.6-2,17.2,0.7,25.5c2.8,8.4,8.6,13.5,17.8,14.6c5.2,0.6,10.4,1.6,15.6,2.7c10.5,2.3,20.7,6,30.9,9.5c5.6,2,11.3,4,17.3,4.8
	c6.1,0.8,12.1,0.5,17.8-2.4c1-0.5,2.2-0.9,2.6-2.5c-0.9-0.4-1.7-0.9-2.6-1.1c-3.1-0.6-6.3-1-9.5-1.4c-4-0.5-8-0.7-11.9-1.3
	c-7.6-1.1-14.9-3.4-22.2-5.7c-9.7-3.1-19.3-6.3-29.6-6.6c-3.9-0.1-7.7-1-11.4-2.6c-1.9-0.8-3.5-1.9-4.5-3.7
	c-3.3-5.8-6.1-11.8-8-18.2c-0.8-2.6-1.2-5.3-0.8-8C354.7,434.9,354.8,432.6,353.4,430.4z M254.5,368c-1.6-0.8-6.4-1.8-8.3-1.9
	c-4.6-0.1-9.1,0.2-13.6,1.3c-4.7,1.2-9.4,1.6-14.2,1.2c-6.2-0.4-12.5-0.5-18.7-0.6c-5.4,0-10.7,0.7-15.5,3.3
	c-1.2,0.6-2.6,0.9-3.8,1.5c-3.1,1.4-5.5,3.4-6.4,7c0.6,0.1,1,0.2,1.5,0.2c2.6-0.2,5.2-0.4,7.7-1.4c1.2-0.5,2.6-0.6,3.9-0.8
	c2.1-0.2,4.1-0.2,6.2-0.5c4.4-0.6,8.8-1.5,13.3-1.1c3.2,0.3,6.4,0.7,9.5,1.2c7,1.1,13.8,1,20.6-1.4c1.6-0.5,3.2-1.1,4.8-1.4
	c4-0.7,7.5-2.6,10.9-4.7C253.2,369.4,253.7,368.7,254.5,368z M250.5,382.2c-3.9,0.2-7.3,0.4-10.7,0.6c-0.5,0-1,0.1-1.4,0.1
	c-4.7-0.6-9.2,0.4-13.8,1.3c-3,0.6-6,0.9-9,0.2c-2.9-0.6-5.9-0.8-8.8-1c-9-0.4-17.3,2.3-25.7,5.1c-2.2,0.7-3.2,2.3-4,4.5
	c1.9,0.2,3.7,0.2,5.4,0.5c4.6,0.8,9-0.9,13.5-1c0.2,0,0.5-0.1,0.7-0.2c3.9-1.6,7.9-1.7,12-0.9c5.7,1.1,11.4,1.7,17.1,0.7
	c6.8-1.2,13.6-2.8,20.2-4.9C248.2,386.5,249.3,384.8,250.5,382.2z M445.3,476.3c0-1.6-1.1-2.1-2-2.5c-2.6-1.3-5.4-2.4-8.1-3.6
	c-2.3-1-4.7-2-6.9-3.2c-3.6-1.8-7.2-3.5-11.1-4.3c-1.8-0.4-3.6-0.6-5.4-1c-5.3-1.1-10.6-2.3-15.9-3.2c-2.6-0.4-5.2,0-7.8,0.1
	c-1,0-2,0.3-2.3,1.4c-0.3,1.1,0.5,1.8,1.3,2.4c1.7,1.4,3.5,2.3,5.9,2.3c9.6,0.2,18.9,1.9,27.4,6.6c0.9,0.5,1.9,0.9,2.8,1.3
	c5.5,2.3,11.1,3.9,17.1,4.4C441.9,477.3,443.7,477.4,445.3,476.3z M187.5,407.4c2.3,1.7,4.7,1.9,7.2,1.2c1.5-0.5,3-1,4.5-1.5
	c3.8-1.3,7.6-1.4,11.5-0.3c1.1,0.3,2.3,0.5,3.5,0.5c8.5,0.1,16.6-1.8,24.2-5.7c1.5-0.7,2.3-1.9,2.6-3.7c-1,0-1.8-0.1-2.5-0.1
	c-1.8,0.1-3.5,0.5-5.3,0.2c-3.8-0.5-7.3,0.3-10.9,1.1c-3.7,0.8-7.5,1-11.1,0c-4.2-1.1-8-0.6-11.8,1.3c-2,1-4.1,1.7-6.2,2.4
	C190.8,403.5,188.9,404.9,187.5,407.4z M360.8,432.7c0.3,4.1,0.3,7.3,1.6,10.3c2.7,5.8,5.8,11.4,9.5,16.6c0.5,0.8,1.2,1.5,2,2.1
	c2.3,1.7,4.4,0.7,4.8-2.1c0.3-2.3-0.4-4.4-1.8-6.3c-1.2-1.6-2.6-3.1-3.8-4.6c-2.2-2.9-4.1-5.9-5.1-9.4c-0.6-2-0.9-4-0.6-6.1
	c0.2-2.1,0-4.3-0.3-6.4c-0.2-1.3-0.7-2.7-2.3-3c-1.1-0.2-2.3,0.9-2.8,2.8C361.3,428.8,361,431.2,360.8,432.7z M230.5,415.6
	c-2.3-1.2-4.3-1.1-6.3-0.9c-2,0.2-4,0.3-5.9,0.2c-1.3,0-2.5-0.4-3.8-0.6c-4.7-0.9-9.4-1-13.8,1.2c-1,0.5-1.9,1.1-2.2,2.3
	c2.1,1.6,4.4,1.9,6.9,1.3c2.2-0.5,4.4-0.7,6.6-0.1c7.9,2.2,8.1,1.5,14.8-1.2c0.6-0.2,1.2-0.4,1.8-0.8
	C229.1,416.7,229.7,416.2,230.5,415.6z"/>
<path class="st0" d="M426.3,20.2c0.5,0.6,0.8,1.2,1.4,1.6c4.8,4.1,6.3,9.8,7.5,15.6c1.6,7.4,2.3,14.9,2.7,22.4
	c0.7,12,2,23.9,4.1,35.7c1.2,7.2,2,14.6,2.7,21.9c1,10.5,1.9,21,2.8,31.5c0.6,7.5,1.1,15,1.5,22.5c0.8,12.7,1.6,25.4,2.2,38.1
	c0.6,12.1,0.9,24.3,1.2,36.4c0.3,12.6,0.2,25.3,0.6,37.9c0.3,8.7,1.1,17.4,2,26c1.1,10.8,2.7,21.6,2.8,32.5c0.1,5-0.5,10.1-0.6,15.1
	c-0.1,4.5-0.1,8.9,0.1,13.4c0.5,14.6,0.8,29.1-0.3,43.6c-0.8,10.7-2.5,21.3-5.1,31.7c-0.4,1.4-1,2.2-2.5,2.4
	c-4.8,0.7-9.6,1.8-14.5,1.5c-2.1-0.2-4.3-0.3-6.4-0.5c-3.5-0.2-7-0.4-10.5-0.6c-5.7-0.3-11.5-0.4-17.2-1c-2.6-0.3-5.1-1.2-7.5-2.2
	c-3.2-1.4-5.1-4-5.7-7.5c-0.8-4.7-2.2-9.2-4.3-13.4c-2.1-4.1-2.7-8.5-2.8-13c-0.1-4.3-0.3-8.6-0.5-12.9c-0.1-2.7-1.3-5-2.9-7.2
	c-1.7-2.3-3-4.9-4.3-7.4c-1-1.9-1.7-4-2.5-6c-1.5-3.3-3.6-6.1-6.3-8.6c-2.6-2.4-4.9-5-7.3-7.6c-3-3.2-6.3-6-10.5-7.4
	c-1.4-0.5-2.9-0.9-4.4-1.2c-1.1-0.2-1.8-0.6-2.3-1.5c-1.1-2.1-2.3-4.2-3.1-6.5c-2-5.3-3.9-10.6-5.8-16c-1.7-4.7-1.2-9.5-0.4-14.2
	c0.1-0.6,0.9-1.3,1.5-1.7c1.4-0.9,2.9-1.6,4.5-2.3c4.5-2.1,9.1-4,13.4-6.3c3-1.6,5.9-3.5,8.6-5.6c1.5-1.1,2.5-2.9,3.5-4.5
	c0.4-0.7,0.4-1.6,0.6-2.6c-2.8-0.5-5.3,0.1-7.8,0.5c-7.4,1.2-14.8,2.6-22.2,3.8c-1.6,0.3-3.3,0.3-5,0.4c-0.2-0.8-0.3-1.3-0.4-1.9
	c-0.5-6-3-11.2-6.7-15.9c-1.2-1.4-2.1-2.9-2.7-4.7c-1.1-3.2-3.1-6-5.5-8.4c-4.4-4.3-8.9-8.5-13.4-12.7c-3.5-3.2-7.3-6.3-10.8-9.5
	c-1.7-1.5-3.2-3.1-4.6-4.8c-1.2-1.5-2.4-3.3-3.1-5.1c-1.6-3.9-3.9-7.2-7.2-9.7c-3.8-2.9-7.8-5.6-11.6-8.5c-0.8-0.6-1.4-1.6-1.7-2.5
	c-0.6-2.1-1-4.4-1.5-6.5c-0.6-2.3-1.1-4.7-2-6.9c-1.2-3.2-3.3-5.7-7.1-6c-0.8-0.1-1.2-0.5-1.6-1.2c-3-7.1-7.8-13-12.7-18.8
	c-3.1-3.6-6.3-7-9.2-10.7c-2.3-2.9-4.5-6-6.4-9.3c-3.1-5.3-4.1-11-3.1-17.1c0.2-1.1-0.1-2.2-0.2-3.3c-0.4-4.4-0.9-8.7-1.2-13.1
	c-0.3-3.5-2.2-5.8-5.2-7.2c-2.2-1.1-4.6-1.6-7-2.4c-0.9-0.3-1.9-0.4-2.8-0.5c-1.2-0.1-2.3-0.3-3.1-1.5c-0.5-0.8-1.4-1-2.4-0.6
	c-0.7,0.2-1.4,0.5-2,0.8c-1,0.6-1.9,1.1-2.8,1.8c-3.5,2.6-6.1,3.1-11.1-0.6c-1-0.8-1.9-1.7-2.7-2.7c-3.8-5.1-7-10.5-7.8-17
	c-0.1-0.9-0.4-1.9-0.6-2.8c-1-3.3-3.2-5.1-6.7-4.5c-3,0.5-5.3-0.4-7.9-1.6c-3.8-1.7-7.9-2.9-11.9-4.4c-0.5-0.2-1-0.3-1.6-0.5
	c-0.2-2.2-0.2-4.4-0.5-6.5c-0.2-1.9-0.5-3.8-1-5.7c-0.3-1.2-0.6-2.7-2.1-2.9c-1.6-0.3-2.4,1.1-3.1,2.2c-1.1,1.9-2,3.8-2.9,5.8
	c-0.4,0.9-0.7,1.8-1,2.7c-1.1,2.9-3.2,4.4-6.2,5c-3.2,0.6-6.2,0-9.2-0.8c-2.4-0.7-4.9-1.5-7.2-2.6c-6-3.1-12.4-3.5-18.9-2.6
	c-5.5,0.7-11.1,1.6-16.6,2.3c-3.8,0.5-7.1-0.6-9.6-3.7c-0.6-0.7-1.2-0.8-2.1-0.8c-4.6,0.1-6.5-1.4-7.8-5.7c-0.4-1.4-0.6-2.8-1-4.2
	c-0.7-2-1.5-3.9-2.2-5.8c-0.4-1-0.8-1.9-1.1-2.9c-1.6-5.5-3.1-11-4.7-16.8c1.1-0.9,2.3-1.9,3.5-2.7c8.1-4.9,16.9-7.9,26.4-8.5
	c6.3-0.4,12.6-0.8,18.9-1.4c3.6-0.3,7.1-1,10.7-1.5c6.7-1,13.4-1,20.1-0.6c10.1,0.6,20.2,1.8,30.4,1.2c6.7-0.4,13.4-1.1,20.1-1.6
	c7.5-0.6,15-1.3,22.5-1.7c11.7-0.7,23.3-1.5,35-1.7c16.4-0.3,32.8-0.2,49.2,0c8,0.1,16,0.6,24,1.2c6.3,0.4,12.6,1.1,18.8,1.9
	c5.8,0.8,11.6,0.6,17.5,0.2c4.9-0.3,9.7-0.9,14.6-1c4.1-0.1,8.3,0.2,12.4,0.5c15.9,1.2,31.7,3,47.6,3.1c4,0,8,0.1,11.9-0.9
	C425.6,20.2,425.9,20.2,426.3,20.2z"/>
<path class="st0" d="M209,159c1.5,2.3,2.8,4.6,4.4,6.7c3.5,4.5,7.2,8.8,10.8,13.2c2.5,3,5.2,5.9,7.5,9.1c2,2.8,3.9,5.7,5.3,8.8
	c1.9,4.2,4.5,7.3,9.3,8.3c0.6,2.6,1.1,5.1,1.7,7.7c1,4.7,1.7,6.4,4.5,10.5c-3.8,7.2-9.2,13-16.3,17.2c-9.4,5.6-19.5,7.4-30.2,5.5
	c-22-3.9-37.4-23.6-36.2-45.7C171,177.9,188.8,160.8,209,159z"/>
<path class="st0" d="M319.9,333.2c2.5,4.8,3.9,9.9,5.6,15.1c-0.8,0-1.2,0.1-1.7,0.1c-19.3-0.5-38.7-0.9-58-1.4
	c-8.4-0.2-16.8-0.7-25.2-1.1c-1.9-0.1-3.8-0.2-5.7-0.4c-7.6-1-15.2,0.1-22.7,0.7c-3.3,0.3-6.5,0.5-9.8,0.7c-2.5,0.1-2.6,0-3.8-2.7
	c0.5-0.2,1.1-0.6,1.6-0.7c5.4-1.3,10.9-2.5,16.3-3.8c5.7-1.3,11.4-2.6,17-3.9c2.7-0.6,4.9-2.1,7.2-3.7c2.3-1.6,5-2.7,7.9-4.2
	c0.2-1.9,0.5-4.2,0.7-6.5c0.5-5.8,1.3-11.6,2.9-17.2c0.2-0.7,0.3-1.4,0.7-2c2.7-5.1,4.3-10.6,6.1-16.1c1-3.1,2.8-5.7,4.7-8.3
	c1.3-1.7,3.3-2.1,5.3-2.4c2.7-0.4,5.4-0.7,8-1.3c4.9-1,9.8-2.2,14.7-3.3c2-0.4,4.1-0.8,6.1-1.1c1.3-0.2,2.5,0.2,3.4,1.3
	c1.4,1.7,2.9,3.2,4.2,4.9c0.8,1,1.4,2.2,1.8,3.4c0.6,2.2,1.7,4.1,3.2,5.8c3.3,3.7,5.3,7.9,5.5,13c0,1.2,0.4,2.4,1,3.4
	c0.9,1.6,1.1,3.3,1.2,5c0.1,2.3,0.4,4.6,0.6,6.9c0.1,0.8,0,1.6,0,2.4c0,1-0.5,1.6-1.4,1.9c-4.8,1.9-9.6,4-14.4,5.9
	c-0.8,0.3-1.9,0.2-2.8,0.3c-1.5,0.2-3.1,0.1-4.4,0.6c-5.9,2.6-11.7,5.5-17.6,8.2c-0.4,0.2-0.9,0.4-1.3,0.7c-0.7,0.5-1.2,1.1-0.9,2
	c0.3,1,1.2,1.3,2.1,1.1c2-0.3,3.9-0.7,5.9-0.9c2.9-0.4,5.9-0.8,8.8-1c1.3-0.1,2.8-0.1,4,0.4c3.3,1.5,6.6,1,9.9,0.5
	c3.6-0.5,7.1-1.3,10.6-2C318.3,333.5,319.1,333.3,319.9,333.2z"/>
<path class="st0" d="M144.4,346.9c-0.8-6.8-1.6-13.2-2.4-19.6c-1.1-9.5-2.2-19-3.2-28.6c-0.7-6.8-1.4-13.5-2.1-20.3
	c-0.2-2.5-0.3-4.9,0.7-7.3c0.3-0.6,0.2-1.4,0.2-2.1c-0.1-2.7,1-4.8,3-6.5c3.7-3.3,3.8-3.4,8-0.8c8.2,5,15.4,11.2,22,18
	c5.4,5.5,10.5,11.4,14.8,17.9c3.2,4.8,6.7,9.4,10.1,14c3.4,4.6,8,7.7,13.3,9.9c4.3,1.8,8.5,3.7,13.1,4.4c0.1,0,0.2,0.2,0.5,0.6
	c-1.1,0.3-2.1,0.6-3,0.8c-7.6,1.6-15.1,3.2-22.7,4.9c-4.1,0.9-7.6,2.7-10.6,5.7c-2.3,2.3-3.4,4.8-1.9,7.9c0.1,0.2,0.1,0.5,0.1,0.7
	c0,0.1,0,0.2-0.1,0.5c-0.9,0.1-1.9,0.5-2.9,0.4c-6.9-0.1-13.7-0.2-20.6-0.3c-4.2-0.1-8.3-0.1-12.5-0.1
	C147.2,346.9,146,346.9,144.4,346.9z"/>
<path class="st0" d="M353.4,430.4c1.4,2.2,1.3,4.4,1,6.6c-0.4,2.8,0,5.4,0.8,8c1.8,6.4,4.6,12.4,8,18.2c1.1,1.8,2.6,2.9,4.5,3.7
	c3.6,1.6,7.5,2.5,11.4,2.6c10.3,0.4,19.9,3.6,29.6,6.6c7.3,2.3,14.6,4.6,22.2,5.7c3.9,0.6,7.9,0.8,11.9,1.3c3.2,0.4,6.3,0.9,9.5,1.4
	c0.9,0.2,1.7,0.7,2.6,1.1c-0.4,1.6-1.6,2-2.6,2.5c-5.6,2.9-11.6,3.2-17.8,2.4c-6-0.8-11.6-2.8-17.3-4.8c-10.2-3.6-20.3-7.2-30.9-9.5
	c-5.1-1.1-10.3-2.1-15.6-2.7c-9.2-1-15-6.2-17.8-14.6c-2.7-8.3-2.9-17-0.7-25.5C352.5,432.4,353,431.4,353.4,430.4z"/>
<path class="st0" d="M254.5,368c-0.7,0.7-1.3,1.5-2.1,1.9c-3.4,2.1-6.9,4-10.9,4.7c-1.6,0.3-3.2,0.8-4.8,1.4
	c-6.7,2.3-13.6,2.5-20.6,1.4c-3.2-0.5-6.3-0.9-9.5-1.2c-4.5-0.4-8.9,0.5-13.3,1.1c-2,0.3-4.1,0.2-6.2,0.5c-1.3,0.1-2.7,0.3-3.9,0.8
	c-2.5,1.1-5.1,1.2-7.7,1.4c-0.4,0-0.9-0.1-1.5-0.2c0.9-3.6,3.3-5.7,6.4-7c1.2-0.5,2.6-0.8,3.8-1.5c4.9-2.6,10.2-3.3,15.5-3.3
	c6.2,0,12.5,0.2,18.7,0.6c4.9,0.3,9.6-0.1,14.2-1.2c4.5-1.1,9-1.4,13.6-1.3C248.1,366.1,252.8,367.1,254.5,368z"/>
<path class="st0" d="M250.5,382.2c-1.1,2.6-2.3,4.2-4.4,4.9c-6.6,2.1-13.4,3.7-20.2,4.9c-5.8,1-11.5,0.4-17.1-0.7
	c-4.1-0.8-8.1-0.7-12,0.9c-0.2,0.1-0.4,0.2-0.7,0.2c-4.5,0.1-8.9,1.8-13.5,1c-1.7-0.3-3.5-0.3-5.4-0.5c0.8-2.2,1.8-3.8,4-4.5
	c8.4-2.7,16.7-5.5,25.7-5.1c2.9,0.1,5.9,0.4,8.8,1c3.1,0.6,6,0.4,9-0.2c4.5-1,9.1-1.9,13.8-1.3c0.5,0.1,1,0,1.4-0.1
	C243.2,382.6,246.6,382.4,250.5,382.2z"/>
<path class="st0" d="M445.3,476.3c-1.6,1.1-3.4,0.9-5.2,0.8c-5.9-0.5-11.6-2.1-17.1-4.4c-1-0.4-1.9-0.8-2.8-1.3
	c-8.5-4.7-17.8-6.5-27.4-6.6c-2.3,0-4.2-0.9-5.9-2.3c-0.7-0.6-1.5-1.3-1.3-2.4c0.3-1.1,1.3-1.4,2.3-1.4c2.6-0.1,5.3-0.5,7.8-0.1
	c5.4,0.8,10.6,2.1,15.9,3.2c1.8,0.4,3.6,0.6,5.4,1c3.9,0.8,7.6,2.5,11.1,4.3c2.3,1.2,4.6,2.1,6.9,3.2c2.7,1.2,5.4,2.3,8.1,3.6
	C444.2,474.3,445.3,474.8,445.3,476.3z"/>
<path class="st0" d="M187.5,407.4c1.4-2.5,3.2-3.9,5.8-4.6c2.1-0.6,4.2-1.4,6.2-2.4c3.8-1.9,7.7-2.5,11.8-1.3c3.7,1,7.4,0.9,11.1,0
	c3.6-0.8,7.1-1.6,10.9-1.1c1.7,0.2,3.5-0.2,5.3-0.2c0.8,0,1.5,0.1,2.5,0.1c-0.4,1.9-1.2,3-2.6,3.7c-7.6,3.8-15.7,5.8-24.2,5.7
	c-1.2,0-2.4-0.2-3.5-0.5c-3.9-1.1-7.7-1-11.5,0.3c-1.5,0.5-3,1-4.5,1.5C192.2,409.3,189.9,409.1,187.5,407.4z"/>
<path class="st0" d="M360.8,432.7c0.3-1.5,0.6-3.9,1.2-6.2c0.5-2,1.7-3,2.8-2.8c1.6,0.3,2.1,1.7,2.3,3c0.3,2.1,0.5,4.3,0.3,6.4
	c-0.2,2.1,0,4.1,0.6,6.1c1.1,3.5,2.9,6.5,5.1,9.4c1.2,1.6,2.5,3.1,3.8,4.6c1.4,1.8,2.2,3.9,1.8,6.3c-0.4,2.8-2.5,3.8-4.8,2.1
	c-0.8-0.5-1.4-1.3-2-2.1c-3.7-5.2-6.8-10.8-9.5-16.6C361,440,361.1,436.8,360.8,432.7z"/>
<path class="st0" d="M230.5,415.6c-0.9,0.6-1.5,1.1-2.1,1.5c-0.5,0.3-1.2,0.5-1.8,0.8c-6.7,2.7-6.9,3.4-14.8,1.2
	c-2.2-0.6-4.4-0.4-6.6,0.1c-2.4,0.6-4.7,0.3-6.9-1.3c0.4-1.2,1.2-1.8,2.2-2.3c4.5-2.2,9.1-2.1,13.8-1.2c1.3,0.2,2.5,0.6,3.8,0.6
	c2,0.1,4,0.1,5.9-0.2C226.3,414.4,228.2,414.4,230.5,415.6z"/>
</svg>
