<?xml version="1.0" encoding="utf-8"?>
<!-- Generator: Adobe Illustrator 24.2.1, SVG Export Plug-In . SVG Version: 6.00 Build 0)  -->
<svg version="1.1" id="Layer_1" xmlns="http://www.w3.org/2000/svg" xmlns:xlink="http://www.w3.org/1999/xlink" x="0px" y="0px"
	 viewBox="0 0 500 500" style="enable-background:new 0 0 500 500;" xml:space="preserve">
<style type="text/css">
	.st0{fill:none;stroke:#F7F2EA;stroke-width:10;stroke-linecap:round;stroke-linejoin:round;stroke-miterlimit:10;}
	.st1{fill:#F7F2EA;}
</style>
<path class="st0" d="M455.2,332.8c-0.8,0-1.6,0-2.4,0c-17.4-0.3-34.7,0-52,1c-12.1,0.7-75.2,1.5-87.3,3c-7.4,0.9-14.8,1.2-22.2,1.6
	c-25.9,1.1-51.8,1-77.7-0.1c-16.5-0.7-33.1-1.7-49.6-2.9c-17.1-1.2-34.1-3.1-51-5.7c-12.4-1.9-24.8-4-36.8-7.6c-3-0.9-6-2.2-9-3.4
	c-1.2-0.5-3.3-0.5-3.6-2.1c-0.4-2.1,0.4-3.3,1.7-4.6c3.7-3.6,3.3-13.2,13.2-16.8c3.3-1.2,5.1-3.4,8.5-3.3
	c10.6,0.3,21.4,4.2,31.9,0.2c5.7-2.2,35.7-6.2,38.4-10.6c3.4-5.5,27.4-8.5,33.5-8.9c3.7-0.2,33.9-21,38.5-23.1
	c1.6-0.7,99,9.9,151.7,23.1c0.4-12.7-143.4-20.2-158.1-26.5c-1.8-0.8-5-5.6-2.9-9.5c2.1-4.2,30.4-22.2,32.1-22.4
	c9.3-5.1,3-10.2,8.9-15.5c5.1-3.7,13.1-5.9,16.1-12.5c3.6-7.9,30-21.6,34.5-29.7c8.3-5.2,3.5-23.3,9.9-28.8
	c16.5,0.9,45.8,11.1,46,12.4c4-7.1-44.7-10.8-45.1-13.1c-0.7-4-1.2-7.7,1-11.4c2.8-4.6,4.4-8.6,8.3-12.3
	c12.5-1.4,14.6-7.3,21.5-11.7C360,87.3,363.9,81,370,75.8c4.1-3.5,17.8-17.3,18.8-21.5c2.5-10.2,9.1-16,19.1-18.3
	c1.1-0.2,33.2-0.4,34.4-0.7"/>
<path class="st1" d="M318,89c-0.7,1.5-0.5,0.9-1.1,1.5c-5.7,5.5-11.6,11.5-15.4,18.5c-4.8,8.8-7.3,18.2-6.8,28.3
	c0.1,1.7-0.4,2.8-1.7,3.9c-15.4,13.7-30.8,27.2-47.4,39.3c-8,5.9-14.1,10.4-18.5,19.3c-0.3,0.6-2.4,6.1-6.5,3.4
	c-0.7-0.3-1.5-0.5-2.2-0.9c-22.8-10.8-32.5-26.4-38.5-50.9c-8.2-33.3,6-67.8,35.1-85.6c33.3-20.3,77.7-13.5,101.9,20.3
	C317.2,86.5,318,87.5,318,89z"/>
<g>
	<path class="st1" d="M164.2,368.7c4.9-2.9,17.3,7.4,23.6,6.5c20.7,5.1,25.9-1.4,39.2-6.8c15.5-3.7,24.5-7.2,38.4-0.8
		c2.7,0.7,5.3,1.8,7.9,2.8c0.8,0.3,1.5,1.1,2.7,2.5c0.9,2.1-2.6,4.4-3.7,4.9c-5.4,2.2-6.2,0-11.9-0.7c-18.5-1.5-21.7,6.5-41.9,8.8
		c-18.8,3.9-27.4,1.8-43.8-2.7C171.2,382.1,160.8,373.7,164.2,368.7z"/>
	<path class="st1" d="M297.2,401.3c-1.8,3.5-4.3,4.5-6.2,5.1c-6.9,2-12.8,0.2-21.2-1.2c-17-2.1-26.8,6.4-41.1,8.4
		c-17.3,5-29.3,2.8-43.3-2.8c-3.7-0.8-16.3-8.2-11.3-13.7c2.3-1.3,12-1.7,21.8,2.7c17,3.8,39.8-2.2,54.3-6.8
		c15.5-3.8,25.7-0.1,38.2,3.2C290.5,396.7,297.2,398,297.2,401.3z"/>
	<path class="st1" d="M204.5,432.6c1.6-2.5,3.9-4.2,5.9-4.6c9.7-3.1,15.7,1.3,23.7,0.7c16.8-0.7,25.2-3.4,39.3-7.5
		c14.3-3.9,26-3.8,38.2,0.8c1.9,0.5,5.4,3.6,5.9,6c-1.4,3.5-7,2.1-10.4,2.7c-12.3,4.8-20.5,1-32.2,5.3c-17.4,6.4-29.5,7.2-42.4,3.6
		c-10.5-2.8-12.4-2.5-20.5-3.2c-1.3-0.3-4.3,0.3-5.4-0.1C205.1,435.9,204,432.8,204.5,432.6z"/>
	<path class="st1" d="M240.4,458.5c1.3-2.1,3.2-3.4,4.8-3.7c7.9-2.5,12.7,1.1,19.2,0.6c13.6-0.6,20.4-2.8,31.9-6.1
		c11.6-3.2,21.1-3.1,31,0.6c1.5,0.4,4.3,2.9,4.8,4.9c-1.2,2.8-5.7,1.7-8.4,2.2c-9.9,3.9-16.6,0.8-26.1,4.3
		c-14.1,5.2-24,5.9-34.4,2.9c-8.6-2.3-10-2-16.6-2.6c-1.1-0.2-3.5,0.2-4.4-0.1C240.9,461.2,240,458.6,240.4,458.5z"/>
</g>
</svg>
