<?xml version="1.0" encoding="utf-8"?>
<!-- Generator: Adobe Illustrator 24.2.1, SVG Export Plug-In . SVG Version: 6.00 Build 0)  -->
<svg version="1.1" id="Layer_1" xmlns="http://www.w3.org/2000/svg" xmlns:xlink="http://www.w3.org/1999/xlink" x="0px" y="0px"
	 viewBox="0 0 500 500" style="enable-background:new 0 0 500 500;" xml:space="preserve">
<style type="text/css">
	.st0{fill:#F7F2EA;}
</style>
<path class="st0" d="M404.2,332.8c-0.8,0-1.6,0-2.4,0c-17.4-0.3-34.7,0-52,1c-12.1,0.7-24.2,1.5-36.3,3c-7.4,0.9-14.8,1.2-22.2,1.6
	c-25.9,1.1-51.8,1-77.7-0.1c-16.5-0.7-33.1-1.7-49.6-2.9c-17.1-1.2-34.1-3.1-51-5.7c-12.4-1.9-24.8-4-36.8-7.6c-3-0.9-6-2.2-9-3.4
	c-1.2-0.5-2.2-1.3-3.6-2.1c1.3-1.7,2.4-3.3,3.7-4.6c3.7-3.6,0.8-12.2,11.2-10.8c2.4-2.6,5.1-3.4,8.5-3.3c10.6,0.2,21.4,4.2,31.9,0.2
	c5.7-2.2,18.5-5.5,21.4,0.7c5.3,11.2,9.3,9.9,9.4-3.1c5.5-1,10.9-2.4,16-4.8c11.9,2.4,8.9-5,11.6-9.4c3.4-5.5,7.4-10.5,13.5-10.9
	c3.7-0.2,9.4,6.1,11.5,2.1c5.5-0.8,12-1.1,15-5.2c1.1-1.4,48.7,11,46.7-5.9c0.4-1.1-49.8-6-49-7c10.9-13.5,25.3-24.9,33.1-40.4
	c11.4,0.2,7.8-15.8,12.9-15.5c5.1-3.7,13.1-5.9,16.1-12.5c3.6-7.9,31.6-19.2,34.5-29.7c4.4-3.9,7.6-8,7.9-13.8
	c0.1-1.5,21.1-1,21-2.6c-0.2-2.5-17.7-7.8-18.1-10.1c-0.7-4-1.2-7.7,1-11.4c2.8-4.6,4.4-11.6,8.3-15.3c12.5-1.4,14.6-7.3,21.5-11.7
	C360,87.3,363.9,81,370,75.8c4.1-3.5,10.8-5.4,13.7-9.9c2.3-3.6,4.1-7.4,5.1-11.6c2.5-10.2,9.1-16,19.1-18.3
	c1.1-0.2,2.2-0.4,3.4-0.7c0.3,0.8,0.7,1.5,0.9,2.3c6.7,20,11.9,40.3,15.6,61c3.2,18.1,5.3,36.2,5.3,54.6c0,12-0.5,24-0.9,36
	c-0.3,7.7-0.8,15.3-1.5,23c-1.1,11.5-2.4,22.9-3.8,34.3c-1.8,14-4.4,27.9-7.8,41.7c-3.5,14.3-7.7,28.4-13.8,41.8
	C405.1,331,404.7,331.8,404.2,332.8z"/>
<path class="st0" d="M318,89c-0.7,0.5-1.5,0.9-2.1,1.5c-5.7,5.5-10.6,11.5-14.4,18.5c-4.8,8.8-7.3,18.2-6.8,28.3
	c0.1,1.7-0.4,2.8-1.7,3.9c-15.4,13.7-30.8,27.2-47.4,39.3c-8,5.9-14.1,13.4-18.5,22.3c-0.3,0.6-0.6,1.3-1,1.9
	c-0.1,0.1-0.2,0.2-0.5,0.5c-0.7-0.3-1.5-0.5-2.2-0.9c-22.8-10.8-37.5-28.4-43.5-52.9c-8.2-33.3,6-67.8,35.1-85.6
	c33.3-20.3,77.7-12.5,101.9,21.3c0.3,0.4,0.6,0.9,0.9,1.4C317.8,88.6,317.9,88.8,318,89z"/>
<path class="st0" d="M151.8,371.1c4.9-2.9,17.3,7.4,23.6,6.5c20.7,5.1,25.9-1.4,39.2-6.8c15.5-3.7,24.5-6.2,38.4,0.2
	c2.7,0.7,5.3,1.8,7.9,2.8c0.8,0.3,1.5,0.8,2.7,1.5c-1.5,0.8-2.6,1.4-3.7,1.9c-5.4,2.2-6.1,1.4-11.9,2.3c-18.5-1.5-21.7,6.5-41.9,8.8
	c-18.8,3.9-27.4-0.2-43.8-4.7C158.8,382.5,153.3,375.1,151.8,371.1z"/>
<path class="st0" d="M284.8,403.7c-2.4,0.8-4.3,2.5-6.2,3.1c-6.9,2-12.8,2.2-21.2,0.8c-17-2.1-26.8,6.4-41.1,8.4
	c-17.3,5-29.3,0.8-43.3-4.8c-3.7-0.8-10.8-6.5-11.3-11.7c2.3-1.3,12-1.7,21.8,2.7c17,3.8,39.8-2.2,54.3-6.8
	c15.5-3.8,25.7-0.1,38.2,3.2C278.1,399.1,283.6,403.1,284.8,403.7z"/>
<path class="st0" d="M192.1,435c2-0.5,3.9-1.2,5.9-1.6c9.7-3.1,15.7-1.7,23.7-2.3c16.8-0.7,25.2-3.4,39.3-7.5
	c14.3-3.9,26,0.2,38.2,4.8c1.9,0.5,3.8,0.8,5.9,2c-3.6,1.4-7,1.1-10.4,1.7c-12.3,4.8-20.5,2-32.2,6.3c-17.4,6.4-29.5,7.2-42.4,3.6
	c-10.5-2.8-16.5-3-24.5-5.2c-1.1-0.3-2.3-0.7-3.4-1.1C192.1,435.4,192.1,435.2,192.1,435z"/>
<path class="st0" d="M229.5,462.5c0.9-0.3,1.7-0.6,2.6-0.8c6.4-1,11.1-4.3,19.2-2.9c16.9,2.3,18-6.8,36-3.1
	c12.7,3.2,17.8-3.2,40.3,6.4c1.4,0.3,2.9,0.7,4.3,1.1c0,0.2,0,0.4,0,0.6c-1.4,0.4-2.8,0.8-4.2,1.1c-7.6,1.6-10.3,3.5-23,3
	c-11.4-4.3-27.4,5.1-42.2,0.7c-12.5-3.5-15.9-1.5-30.8-5c-0.7-0.2-1.5-0.4-2.2-0.7C229.5,462.8,229.5,462.6,229.5,462.5z"/>
</svg>
