<?xml version="1.0" encoding="utf-8"?>
<!-- Generator: Adobe Illustrator 24.2.0, SVG Export Plug-In . SVG Version: 6.00 Build 0)  -->
<svg version="1.1" id="Layer_1" xmlns="http://www.w3.org/2000/svg" xmlns:xlink="http://www.w3.org/1999/xlink" x="0px" y="0px"
	 viewBox="0 0 500 500" style="enable-background:new 0 0 500 500;" xml:space="preserve">
<style type="text/css">
	.st0{fill:#F7F2EA;}
</style>
<g>
	<path class="st0" d="M404.2,332.8c-0.8,0-1.6,0-2.4,0c-17.4-0.3-34.7,0-52,1c-12.1,0.7-24.2,1.5-36.3,3c-7.4,0.9-14.8,1.2-22.2,1.6
		c-25.9,1.1-51.8,1-77.7-0.1c-16.5-0.7-33.1-1.7-49.6-2.9c-17.1-1.2-34.1-3.1-51-5.7c-12.4-1.9-24.8-4-36.8-7.6c-3-0.9-6-2.2-9-3.4
		c-1.2-0.5-2.2-1.3-3.6-2.1c1.3-1.7,2.4-3.3,3.7-4.6c3.7-3.6,7.7-7,11.2-10.8c2.4-2.6,5.1-3.4,8.5-3.3c10.6,0.2,21.3,0.2,31.9,0.2
		c10.3,0,20.6-0.6,30.8-2.4c5.5-1,10.9-2.4,16-4.8c4.6-2.2,8.9-5,11.6-9.4c3.4-5.5,8.4-7.5,14.5-7.9c3.5-0.2,7-0.4,10.5-0.9
		c7.4-1.1,12.9-4.9,15.7-12.1c0.4-1.1,1.2-2,2-3c10.9-13.5,20.3-27.9,28.1-43.4c3.1-6.2,7.3-11.4,12.9-15.5
		c17.8-13,34.3-27.6,50.6-42.2c4.4-3.9,6.6-9,6.9-14.8c0.1-1.5,0.1-3,0-4.6c-0.5-6.7,1.4-12.8,4.9-18.5c2.8-4.6,6.4-8.6,10.3-12.3
		c6-5.6,12.6-10.3,19.5-14.7c6.8-4.3,13.7-8.6,19.8-13.8c4.1-3.5,7.8-7.4,10.7-11.9c2.3-3.6,4.1-7.4,5.1-11.6
		c2.5-10.2,9.1-16,19.1-18.3c1.1-0.2,2.2-0.4,3.4-0.7c0.3,0.8,0.7,1.5,0.9,2.3c6.7,20,11.9,40.3,15.6,61c3.2,18.1,5.3,36.2,5.3,54.6
		c0,12-0.5,24-0.9,36c-0.3,7.7-0.8,15.3-1.5,23c-1.1,11.5-2.4,22.9-3.8,34.3c-1.8,14-4.4,27.9-7.8,41.7
		c-3.5,14.3-7.7,28.4-13.8,41.8C405.1,331,404.7,331.8,404.2,332.8z"/>
	<path class="st0" d="M318,89c-0.7,0.5-1.5,0.9-2.1,1.5c-5.7,5.5-10.6,11.5-14.4,18.5c-4.8,8.8-7.3,18.2-6.8,28.3
		c0.1,1.7-0.4,2.8-1.7,3.9c-15.4,13.7-30.8,27.2-47.4,39.3c-8,5.9-14.1,13.4-18.5,22.3c-0.3,0.6-0.6,1.3-1,1.9
		c-0.1,0.1-0.2,0.2-0.5,0.5c-0.7-0.3-1.5-0.5-2.2-0.9c-22.8-10.8-37.5-28.4-43.5-52.9c-8.2-33.3,6-67.8,35.1-85.6
		c33.3-20.3,77.7-12.5,101.9,21.3c0.3,0.4,0.6,0.9,0.9,1.4C317.8,88.6,317.9,88.8,318,89z"/>
	<path class="st0" d="M151.8,381.1c2-0.9,3.5-1.7,5-2.2c6-2.2,12.3-3.4,18.6-4.3c13-1.9,26.1-2.3,39.2-1.8
		c12.9,0.5,25.8,1.7,38.4,5.2c2.7,0.7,5.3,1.8,7.9,2.8c0.8,0.3,1.5,0.8,2.7,1.5c-1.5,0.8-2.6,1.4-3.7,1.9
		c-5.4,2.2-11.1,3.4-16.9,4.3c-16.9,2.7-33.9,3-50.9,1.8c-10-0.7-20-2-29.8-4.7C158.8,384.5,155.4,383.4,151.8,381.1z"/>
	<path class="st0" d="M284.8,411.7c-2.4,0.8-4.3,1.5-6.2,2.1c-6.9,2-14,3-21.2,3.8c-14,1.6-28.1,1.8-42.1,1.4
		c-14.2-0.4-28.4-1.6-42.3-4.8c-3.7-0.8-7.4-1.8-11.3-3.7c1.1-0.5,1.9-0.8,2.7-1.1c6.2-2.2,12.7-3.3,19.1-4.2
		c18-2.4,36.2-2.8,54.3-1.8c12.9,0.7,25.7,1.9,38.2,5.2c2.1,0.5,4.1,1.3,6.2,1.9C282.9,410.7,283.6,411.1,284.8,411.7z"/>
	<path class="st0" d="M192.1,438c2-0.5,3.9-1.2,5.9-1.6c7.8-1.8,15.7-2.7,23.7-3.3c13.1-1,26.2-1.2,39.3-0.5
		c12.9,0.7,25.7,1.8,38.2,4.8c1.9,0.5,3.8,0.8,5.9,2c-3.6,1.4-7,2.1-10.4,2.7c-12.3,2.3-24.7,3-37.2,3.3s-24.9-0.2-37.4-1.4
		c-8.3-0.8-16.5-2-24.5-4.2c-1.1-0.3-2.3-0.7-3.4-1.1C192.1,438.4,192.1,438.2,192.1,438z"/>
	<path class="st0" d="M229.5,465.5c0.9-0.3,1.7-0.6,2.6-0.8c6.4-1,12.8-2.2,19.2-2.9c12.4-1.3,24.9-1.4,37.3-1
		c13.1,0.4,26.2,1.4,39,4.3c1.4,0.3,2.9,0.7,4.3,1.1c0,0.2,0,0.4,0,0.6c-1.4,0.4-2.8,0.8-4.2,1.1c-7.6,1.6-15.3,2.4-23,3
		c-11.6,0.8-23.3,0.9-35,0.4c-12.8-0.5-25.5-1.6-38-4.7c-0.7-0.2-1.5-0.4-2.2-0.7C229.5,465.8,229.5,465.6,229.5,465.5z"/>
</g>
</svg>
