<?xml version="1.0" encoding="utf-8"?>
<!-- Generator: Adobe Illustrator 24.2.1, SVG Export Plug-In . SVG Version: 6.00 Build 0)  -->
<svg version="1.1" id="Layer_1" xmlns="http://www.w3.org/2000/svg" xmlns:xlink="http://www.w3.org/1999/xlink" x="0px" y="0px"
	 viewBox="0 0 500 500" style="enable-background:new 0 0 500 500;" xml:space="preserve">
<style type="text/css">
	.st0{fill:#F3F3F3;}
</style>
<path class="st0" d="M58.5,259.4c-0.4,1.8-1.3,3.5-2.6,5c-2.3,2.8-4.5,5.6-6.6,8.4c-1.9,2.6-2.5,5.6-2.1,8.7c0.3,2.1,1,2.5,2.9,1.6
	c1-0.5,2-1.3,2.8-2.1c1-1,1.8-2.2,2.8-3.1c1.2-1.1,2.6-2.2,4-2.9c2.1-0.9,3.7-2.2,4.9-4.1c0.7-1,1.4-2.1,1.8-3.3
	c1.4-3.9,4.6-6,7.8-8.2c0.8-0.5,1.5-1.3,2.2-2.1c0.9-0.9,1.7-2,2.8-2.8c3.8-3,7.6-5.9,11.4-8.9c5.1-4.1,10.4-8.1,15.3-12.5
	c4.9-4.3,9.6-8.8,13.9-13.6c2-2.2,4.1-3.9,6.6-5.6c3.1-2.1,5.9-4.7,8.9-7.1c2-1.6,3.9-3.3,6-4.8c2-1.5,4.3-2.4,7-2.2
	c1.2,0.1,2.2-0.4,3.2-1.1c3.8-2.6,7-5.7,9.8-9.4c3.1-4.1,6.5-8.1,10.2-11.8c2.4-2.4,5.1-4.3,8.3-5.5c1.9-0.7,1.9-0.8,1.8-2.7
	c-0.2-1.8,0.5-3.3,1.8-4.5c1.7-1.6,3.5-3.1,5.3-4.6c2.7-2.2,4.5-5,4.6-8.6c0-1.2,0.7-1.9,1.6-2.4c1.3-0.7,2.5-1.4,3.8-2.1
	c2.7-1.4,5.1-3.1,6.2-6.2c0.3-0.9,0.9-1.2,1.8-1.3c1.6-0.1,3.2-0.2,4.8-0.4c3.1-0.4,4.6-1.9,4.6-5.1c0-1.8,0.8-2.6,2.3-3.2
	c6.5-2.4,13-2.3,19.5-0.2c8.2,2.6,15.5,6.9,22,12.4c5.7,4.9,11.2,10.1,15.6,16.3c1.1,1.5,2.3,2.4,4.1,3.1c3.4,1.4,6.7,3.3,9.8,5.3
	c2.9,1.9,5.4,4.2,8.2,6.3c2.1,1.6,3.4,3.8,3.7,6.5c0.2,1.5,0.9,2.7,2,3.7c2.6,2.6,5.1,5.4,7.6,8.2c1.7,1.8,3.3,3.7,5,5.6
	c1.6,1.8,3.6,2.9,6,3.4c1.7,0.4,1.9,0.6,2.1,2.3c0.3,3.8,2.2,6.6,5.3,8.7c2,1.3,4.1,2.5,6.3,3.5c2,1,3.1,2.2,3,4.6
	c-0.1,2,0.8,3.7,2,5.2c1.5,2.1,3.4,3.6,5.5,5c1,0.6,2,1.2,3,1.9c1.7,1.1,2.6,2.5,2.4,4.6c-0.1,1.1,0,2.3,0,3.7
	c1.4-0.1,2.7-0.1,3.9-0.3c2.8-0.4,5.1,0.4,7.1,2.5c2.3,2.4,4.7,4.6,7,7c0.6,0.7,1.1,1.5,1.5,2.4c0.7,1.3,1.3,2.6,2.1,3.9
	c1.6,2.4,3.8,4.1,6.7,4.9c4.9,1.2,9.9,1.9,15,1.6c1.5-0.1,3-0.4,4.3-1.3c0.7-0.5,1.7-0.8,2.7-0.8c1.4-0.1,2.8,0,4.1,0.3
	c4.1,0.9,8.2,2,12.3,3c0.8,0.2,1.6,0.4,2.4,0.3c2.3-0.3,4.2,0.6,5.9,1.9c2.2,1.7,4.2,3.6,6.3,5.5c2.9,2.7,5.7,5.6,8.7,8.4
	c1.2,1.2,2.3,2.4,2.8,4.1c0.4,1.2,1,2.4,1.6,3.6c0.3,0.6,0.7,1.4,1.1,1.5c1.8,0.5,1.8,2.1,2.3,3.4c1.7,3.7,3.3,7.5,5.1,11.1
	c1.5,2.9,2.5,5.7,2.3,9c-0.1,1.5,0.3,3.1,0.8,4.5c2.1,6.5,4.3,13,6.5,19.5c1.7,5,3.3,10,3.9,15.2c0.2,2,0.4,4.1,0.3,6.1
	c-0.2,4.4,0.6,8.6,1.4,12.8c1,5.2,2.4,10.3,4.6,15.3c0.9,2,1,4.4,1.4,6.6c0.5,2.1,0.9,4.1,1.5,6.1c0.9,3,2.1,5.9,3,8.9
	c0.3,1,0.4,2.2,0.4,3.2c0,1.9-0.4,2.3-2.3,2.6c-0.9,0.1-1.7,0.2-2.6,0.2c-6.5,0.1-13,0.2-19.5,0.3c-0.4,0-0.8-0.1-1.1,0
	c-4.3,1.3-8.4,0-12.5-0.6c-0.6-0.1-1.3-0.2-2-0.2c-39.5,0-79.1-0.1-118.6,0.1c-40.2,0.2-80.4,0.6-120.6,0.9
	c-25.6,0.2-51.2,0.2-76.7,0.2c-14.3-0.1-28.6-0.4-43-0.9c-9.9-0.3-19.7-1.1-29.5-1.7c-1.3-0.1-2.6-0.3-3.9-0.5
	c-0.9-0.1-1.5-0.6-1.8-1.6c-0.6-1.9-1.4-3.7-2.1-5.5c-0.8-2.3-1.6-4.7-2.4-7c-0.5-1.5-1-3-1.5-4.6c-0.5-1.4-1.2-2.9-1.5-4.3
	c-0.4-2.4-1.6-4.3-3.2-6.1c-2.6-3-5.3-6.1-7.9-9.1c-1.3-1.5-2.5-3-3.8-4.6c-2.2-2.6-3.2-5.5-3.7-8.9c-0.9-6.6-2.4-13.1-3.6-19.6
	c-1.3-6.7-2.6-13.3-3.9-20c-0.6-2.8-0.1-5.5,0.3-8.3c0.6-3.7,1.2-7.5,1.5-11.3c0.5-6.4,0.7-12.8,1.1-19.2c0.2-3.5,0.5-7,0.7-10.5
	c0.1-1.3,0.6-2.2,1.7-2.9c0.8-0.5,1.6-1,2.5-1.4c0.6-0.4,1.5-0.6,1.9-1.1c1.4-1.8,3.6-2.4,5.4-3.6c3.3-2.1,6.6-4.3,9.9-6.5
	c1.4-0.9,2.7-1.9,4-3c1.8-1.5,3.6-1.5,5.5-0.3c2.7,1.6,5.4,3.2,8.1,4.8C56.1,257.7,57.3,258.5,58.5,259.4z M24,308.2
	c-0.3,2.2-0.6,4.1-0.8,6.1c-0.3,4,0.4,7.8,1.3,11.7c1.3,5.5,2.4,11.1,4.2,16.6c0.6,1.7,0.9,3.5,1.1,5.3c0.5,3.2,0.9,6.4,1.2,9.6
	c0.1,1.2,0.5,2.1,1.3,2.9c2.4,2.4,4.7,4.8,7.2,7.1c4,3.8,6.9,8.3,8.7,13.5c1.9,5.7,3.9,11.3,5.6,17.1c0.8,2.6,1.9,3.8,4.8,4.1
	c12.2,1.2,24.5,2.1,36.7,2.4c11.6,0.3,23.2,0.4,34.9,0.5c13.7,0.2,27.3,0.4,41,0.4c11,0,21.9-0.7,32.9-0.7c20,0,40.1,0.2,60.1,0.3
	c14.9,0,29.8,0,44.7-0.1c1.5,0,2.9-0.2,4.3-0.4c1.2-0.3,2.3-0.8,2.8-2.2c1.1-3.1,2.2-6.2,2.4-9.5c0.2-3.4,0.4-6.9,0.3-10.3
	c-0.2-5.9-0.6-11.8-0.9-17.7c-2.5-0.7-4.8-1.2-7.3-0.6c-1.8,0.5-3.7,1-5.4,1.6c-1.7,0.6-3.4,3.9-5.2,3.4c-1.1-0.3-2,0-2.9,0.6
	c-1.6,1.1-3.2,0.1-4.7,1.2c-2.9,2-5.9,1.8-9.2,0.1c-1.9-0.9-3.8-0.7-5.7,0.1c-1.5,0.6-3.1,1.2-4.8,1.6c-1.7,0.4-3.2,1.1-4.5,2.2
	c-1.2,1-5.4,0.5-6.4,0.8c-2-0.1-5-2.2-5.2-3.5c-0.4,0-2.8-0.1-3.2-0.1c-5.1,0.3-10.1-0.4-15.1-1c-3.3-0.4-6-1.7-7.8-4.6
	c-1.4-2.3-3.6-3.3-6.2-2.9c-2,0.3-4,0.7-5.9,1.4c-4.3,1.5-8.5,1.5-12.5-0.8c-0.1-0.1-0.3,0,0,0c-1.7,0.8-11,1.6-12.5,2
	c-7.9,1.9-13.9-12.8-14.2-13.2c-1.7-1.9,0.6-3.8-1.2-5.7c-1-1.1-1-3.3-2.2-4.3c-1.5-1.3-13.3-2.5-16.1-1.9c-3.9,0.8-7,2.1-8.8,2
	c-0.9-0.1-11.6-2.5-11.8-4.8c-0.1-1.4-4.6-6.6-5.2-8.5c-1-2.9-2.4-3.6-3.1-6.5c-0.5-1.9-7.9-1.5-7.5-3.3c0.5-2.3-5.5-6-5.8-6.4
	c-0.7-0.9-3.5-3.4-3.3-4.4c0.9-3.6-7.1-4.4-7.2-4.4c-3.5,0.4-6.6-0.5-9.8-1.8c-1.5-0.6-6.9-0.7-7.4,0.9c-0.5,1.9-9.5,9-13.4,9.9
	c-1.3,0.3-6.8-0.7-7.3-2.2c-1-2.6-3-3.5-5.5-3.5c-1.4,0-8.6,2.3-10.5,3.7c-1.5,1.2-3,2.3-4.6,3.3c-1.2,0.8-2.5,0.7-3.7-0.2
	c-0.6-0.5-3.1-3.2-3.9-3.9c-1.2-1.2-2.4-1.6-4.2-1.1c-1.3,0.4-6.8-0.4-8.1-0.7C27.3,308.7,25.8,308.5,24,308.2z M342.3,290.3
	c-1.7,1.3-2.8,2.8-3.2,4.7c-0.9,4.2-1.8,8.4-2.8,12.6c-1.2,5-2.1,10.2-3.7,15.1c-1.4,4.5-2.3,8.9-2.1,13.5c0.4,9.1-1,18-3.7,26.8
	c-0.8,2.5-1.3,5-0.9,7.6c0.8,6.4,0.9,12.8,0.8,19.3c0,4.3-0.8,8.4-2.2,12.4c-0.3,0.8-0.5,1.6-0.9,2.8c1.2,0,2.1,0,3.1,0
	c37,0,74,0,111,0c1.2,0,2.5,0,3.7,0.1c7.5,0.2,14.9,0.3,22.4,0.5c1.3,0,2.6-0.1,3.9-0.3c1.4-0.2,1.6-0.5,1.3-1.9
	c-0.4-1.6-1-3.1-1.4-4.6c-0.2-1-0.5-2.2-0.3-3.2c0.4-2,0.1-3.8-0.9-5.5c-0.8-1.3-1.6-2.5-2.3-3.7c-0.9-1.7-1.4-3.4-0.6-5.2
	c0.7-1.7,0.5-3.4-0.2-5.1c-0.5-1.3-1.2-2.5-1.6-3.8c-0.4-1.4-0.7-3-0.9-4.5c-0.3-2.2-0.4-4.4-0.6-6.5c-0.1-1.4-0.6-2.7-0.6-4.1
	c0.1-4-1.2-7.6-2.5-11.2c-0.9-2.3-1.5-4.7-2.3-7.1c-0.7-2.1-1-4.3-2-6.2c-1.4-2.7-1.6-5.9-3.5-8.4c-0.2-0.2-0.2-0.6-0.2-0.8
	c-0.4-1.5-0.7-3-1.2-4.4c-0.7-2-1.1-3.9-0.3-6c0.5-1.3,0.3-2.6-0.4-3.8c-0.7-1.3-1.4-2.6-2.1-3.9c-1.3-2.4-1.5-2.5-4.2-1.6
	c-1.1,4-2.3,7.9-3.4,12c-0.2,0.8-0.2,1.7-0.1,2.6c0.5,4.7-1.7,8.3-6.2,9.9c-0.7,0.2-1.4,0.5-2.1,0.6c-1.1,0.3-1.6,1-1.6,2
	c0,0.7,0,1.3,0.1,2c0.3,2.6,0.5,5.2,0.9,7.8c0.2,1.7,0.3,3.6,1.1,5.1c1.9,3.7,1.4,7.2,0.2,10.8c-0.4,1.1-1,1.8-2,2.1
	c-2.5,0.7-4.9,1.3-7.4,1.8c-1.3,0.3-2.4-0.1-3.5-0.9c-2.8-2.1-5.6-4-8.3-6.1c-1.9-1.4-3.2-3.1-3.9-5.4c-0.7-2.5-1.3-4.9-2.2-7.4
	c-0.6-1.8-1.4-3.7-2.4-5.4c-2.2-4-4.6-7.8-6.8-11.7c-0.9-1.6-1.6-3.3-2.5-4.9c-0.3-0.5-0.9-1.1-1.4-1.1c-0.8,0-0.7,0.9-0.8,1.5
	c-0.3,1.6-0.2,3.5-0.9,4.9c-2.1,4.2-4.4,8.2-6.8,12.2c-1,1.7-2.7,2.8-4.8,3.2c-2.3,0.4-4.3,1.4-6.1,2.8c-1.7,1.3-3.4,2.6-5.1,3.9
	c-0.4,0.3-0.9,0.6-1.5,1c-2.6-3.6-5.6-6.8-6.1-11.4c-0.1-0.9-0.4-1.9-0.8-2.7c-1-2.6-1.3-5.2-1.3-7.9c0-1.1-0.2-2.3-0.6-3.4
	c-3.8-9.7-7.6-19.4-11.4-29.2C343,291.9,342.7,291.2,342.3,290.3z M180.3,316.8c0.3,0.1,1.6-1.8,1.8-1.8c1-1.5,4.8-9.1,5.9-10.5
	c3.7-4.7,2.3-9.2,3.5-14.9c0.8-3.5,1.8-7,2.6-10.6c0.4-1.8,1.5-2.8,3.2-3.2c0.5-0.1,1.1-0.2,1.6-0.3c5-0.8,10-0.4,14.9,0.1
	c8,0.8,15.9,2.1,23.6,4.4c1,0.3,1.9,0.7,2.8,1.1c-1.4,0.4-5.7,1.4-7,1.5c-4.4,0.2-5.9,0.4-10.3,0.6c-1.7,0.1-3.4-0.8-5-0.9
	c-1.1,0-5.9,0-6.7,1.7c0.4,1,0.5,3,2.4,4.4c-1.1,1-1.1,0.7-1.9,1.5c-1,1.1-2.2,1.4-3.6,1c-2.2-1.1-1.8-2.3-4.3-2.9
	c-0.9-0.2-3.3,0.6-3.1,2.4c-0.4,2.4,2.8,6.5,2.2,7.1c-6,5.9-11,12.6-14.3,20.6c-4,9.7-3.7,19.3,1.2,28.6c0.1,0.2,0.4,0.5,0.4,0.7
	c-0.4,2.3,2.7,3.6,2.8,5.5c1.8,0.6,2.1,0.1,3.3-1.1c1-1,2-1.9,3-2.7c3.9-2.9,8-2,10.4,2.2c1.1,1.8,1.4,2,3.5,1.4
	c2.1-0.6,4.1-1.3,6.1-1.9c5.8-1.8,11.5-1.1,17,1.3c2.9,1.3,5.3,3.3,7,6.1c0.3,0.5,0.6,0.9,0.7,1.1c7,1.2,5.7,1.5,12.5,1.2
	c3.5-0.1,6.8,0.6,8.8,3.4c2.7-0.9,13.1-4.6,15.5-5.3c2.6-0.7,5.2,1.6,7.8,0.8c3.3-1.1,6.7-1.4,10-0.3c1.9,0.6,3.2,0.2,4.5-1.2
	c-0.7-5-1.3-10-2-14.9c-1.7-12.3-5.2-23.9-11-34.8c-3-5.7-6.8-10.9-11.6-15.2c-9.7-8.7-21.3-14.2-33-19.3c-0.6-0.2-1.2-0.4-1.8-0.6
	c-3.6-1.2-7.1-2.4-10.7-3.5c-3.7-1.1-7.3-2.3-11.1-2.9c-3.7-0.6-7.6-0.5-11.4-0.6c-4.2-0.1-8.4,0.1-12.6,0.1c-3.6,0-6.2,1.7-8.2,4.7
	c-3.7,5.6-5.9,11.7-6.6,18.5c-0.4,4-0.9,7.9-1.3,11.9C181.7,304.3,180.5,314.1,180.3,316.8z"/>
<path class="st0" d="M362.2,115.3C361.9,95,374.1,74.4,395.1,66c21.8-8.8,46.7-1.6,60.8,17.6c17,23,12.7,55.7-9.6,73.5
	c-27.3,21.8-67.7,10.6-80.5-22.2C363.3,128.5,362,122,362.2,115.3z"/>
</svg>
