<?xml version="1.0" encoding="utf-8"?>
<!-- Generator: Adobe Illustrator 24.2.0, SVG Export Plug-In . SVG Version: 6.00 Build 0)  -->
<svg version="1.1" id="Layer_1" xmlns="http://www.w3.org/2000/svg" xmlns:xlink="http://www.w3.org/1999/xlink" x="0px" y="0px"
	 viewBox="0 0 500 500" style="enable-background:new 0 0 500 500;" xml:space="preserve">
<style type="text/css">
	.st0{fill:#F3F3F3;}
</style>
<g>
	<path class="st0" d="M283.2,396c58-69.6,145.2-115.6,203.5-185.6c-16.8-8.5-14.8,13.3-36.2-9.6c12.1,3.5,17.9-17.1,33.8-16.2
		c3-23.4,1.8-45.5-0.8-69.5c-6.9-3.8-20.6,39.9-20.5,51.4c0.1,11.5-55.8,39.7-57.2,42.2l-94.9,5c-12.1,4.6-18.1-35.7-33-56.3
		c-3.8,5.2-20.3-6.2-18.8,0.6c0.2,0.8,0.5,1.6,0.9,2.3c13.3,21.6,21.7,47,12.8,55.4c-7.3,6.9-23.9,2.7-41.9-5
		c-13.2,31.6-15.8,8.8-24.6,12c-10.5-3.1-31.3-9.5-35.3,6.3c-29.8-25-25.4,7.7-46.4-5c-13.1,0-1.4-5.7-2.9-8
		c-10.3-21.1-50.5-90-28.1-85.8c22.6,25.9,26.3,47.7,46.1,77.5c38.6,7.5-31-75.6-38-93.4c-9.8,9.9-49.5-21-67.1-27.3
		c9.5,20.3,85.3,133.6,61,129.9c-25-15.6-55-84.2-83.9-123c0.7,37,44.4,95.1,57.8,122.5C70.7,249,14.8,160.8,9,154.6
		c-8.2,25.8,30.5,50.7,9.4,61.7c-9.1-4.5-3.3-6-11.4,4.1L6,394.4c60.2,0,120.4,0,180.6,0c2.3,9.9,13.6,22.4,25.2,31.8
		c-22.9,3.6-55.6-30.2-56.4-11.8c-61.2,0.2-89.9-0.1-149.5-0.8c-1,0-0.4,56.7,0,67.5h301c-1.9-2.8-30.6-56.1-36.2-64.4
		c28.2,6.3,137.2,45.2,159.5,50.2C418.9,431.9,303.2,405.1,283.2,396z M159.3,339.9c35.8,0.9,25.1,29.2,1.1,29.7
		c-19.9-1.2-70.1-0.9-102.5-0.5c-34.7,0.5-34.1-29.6-14.5-29.6c-7.3-9.1-7.3-9.1-16.8-20.6c53.6-3.6,97-0.9,152.7-0.5L159.3,339.9z"
		/>
	<path class="st0" d="M281,211.3"/>
	<path class="st0" d="M221.6,124.6C214.4,142.4,64.4,81.4,6,55.6c-1-5.8,16.7-6.8,28.3-2.4L221.6,124.6z"/>
	<path class="st0" d="M212.4,206.8c-15.5-22.8-23-42.8-42-70.8c17.5,6.2,56.5,14.2,64.1,16.9c12.6,20.6,12.8,30.9,23.2,47.8
		c-20.4,6.1-28.8-28.1-38.4-36.2c-3.5-4.1-13.5-2.4-10.4,10.6C213.3,187.5,226.2,200.6,212.4,206.8z"/>
	<path class="st0" d="M350.5,180c-2.4-3.2,0.7-0.3-9-13.3c21.6,4.1,95.9,15.7,50.3,20.7c2.8,15.7-61.3,5-67.8,9.5
		c-7.2-12.3-18.9-16.6-11.9-31.5C323.1,170.1,342.1,191.1,350.5,180z"/>
	<path class="st0" d="M151.1,131.2c16.3,28.3,18.6,37.9,37.2,70.1c-0.9,1.1-12.6,0.9-13.6,2C168.7,186.9,118.8,136,151.1,131.2z"/>
	<path class="st0" d="M238.9,120c12-33.7,38.3-62.3,35.9-101.6c8.9,1.3,25.1,14.9,22.7,23.8C283.1,62.2,257.3,121.4,238.9,120z"/>
	<path class="st0" d="M445.6,152.7c-10.9-7.2-187.9-31.7-192.9-18.4C250.3,145.5,443.7,169.6,445.6,152.7z"/>
	<path class="st0" d="M488.1,370.8c-15.4,24.6,0,102.5-44.5,92.3C465.8,457.9,453.6,345.8,488.1,370.8z"/>
</g>
</svg>
