<?xml version="1.0" encoding="utf-8"?>
<!-- Generator: Adobe Illustrator 24.2.1, SVG Export Plug-In . SVG Version: 6.00 Build 0)  -->
<svg version="1.1" id="Layer_1" xmlns="http://www.w3.org/2000/svg" xmlns:xlink="http://www.w3.org/1999/xlink" x="0px" y="0px"
	 viewBox="0 0 531.6 511.3" style="enable-background:new 0 0 531.6 511.3;" xml:space="preserve">
<style type="text/css">
	.st0{fill:#F3F3F3;}
</style>
<path class="st0" d="M521.9,395.1c-1.9,1.9-2.9,4.3-3.8,6.8c-2.2,5.9-3.4,12-4.3,18.2c-1.8,12.3-3.5,24.7-5.3,37
	c-1.2,8.3-2.7,16.6-5.7,24.5c-0.8,2.2-1.8,4.3-2.9,6.3c-0.7,1.3-1.6,2.6-2.7,3.7c-3,3.2-6.5,4.1-10.7,2.5c-3.4-1.3-8-4.6-10.6-7.8
	c3.7-2.5,5.3-6.4,6.7-10.4c2.3-6.8,3.6-13.7,4.7-20.8c2-13.4,3.8-26.7,5.8-40.1c1-6.8,2.4-13.5,4.7-20c0.8-2.2,1.7-4.3,2.8-6.3
	c0.7-1.3,1.6-2.4,2.6-3.4c2.3-2.4,5.1-2.9,8.1-1.6c2.5,1,4.5,2.7,6.4,4.5c1.4,1.4,2.8,2.8,4.1,4.2
	C521.9,393.2,521.9,394.2,521.9,395.1z"/>
<path class="st0" d="M28.3,494.1c-11.4-0.1-7.1-17.2-0.4-18.4c1.3,0,23.3,0,24.3,0c55.3,0.4,89.5,0.9,144.8,1.1
	c26.3,0.1,52.6-0.4,78.9-0.6c4.9,0,9.8-0.3,14.6-0.4c3.2-0.1,4.7-1.5,4.7-4.8c0-2-0.3-4.2-1-6.1c-1.9-4.9-3.7-9.9-6.1-14.6
	c-4.2-8.1-8.9-16.1-13.4-24.1c-2.1-3.8-4.2-7.5-6.4-11.2c-1.3-2.2-1.2-4.2,0.3-6.2c1.6-2.1,3.1-4.3,4.9-6.2
	c6.5-7.3,13.8-13.8,21-20.3c20.4-18.1,41.6-35.3,62.6-52.6c21.2-17.4,42.3-34.9,63.4-52.4c6.3-5.2,12.1-10.9,18.1-16.5
	c1.7-1.6,3.2-3.6,4.7-5.4c0.6-0.8-3.1-2.8-5-3c-4.8-0.5-9.7-1.2-14.5-1.8c-5.1-0.6-10.2-0.1-15.3,0.8c-2.2,0.4-4.2,1.3-5.6,3
	c-2,2.4-4.6,3.3-7.6,3.5c-1.8,0.1-3.7,0.1-5.5-0.1c-6-0.7-12-0.2-18,0.2c-1,0.1-2,0.6-2.9,1c-2.2,1.1-4.3,2.4-6.6,3.5
	c-4.7,2.2-9.4,2.7-14.4,1.1c-2.3-0.7-4.7-1.1-7-1.7c-3-0.8-6.1-1.5-9-2.6c-8.1-3.1-15.8-2.3-23.3,1.8c-2.4,1.3-5,2.6-7.6,3.6
	c-3.5,1.3-7.2,1.3-10.8,0.2c-6.1-1.9-12.3-3.4-18.7-4.3c-8.7-1.2-17.4-1.1-25.8,1.7c-1.4,0.5-2.8,0.9-4,1.6c-2.9,1.8-6.2,2.6-9.5,3
	c-3.9,0.5-7.8,1.2-11.7,1.3c-2.8,0.1-5.7-0.5-8.5-1c-3.4-0.6-6.6-1.8-10-2.3c-3-0.4-6.1-0.5-9.1-0.2c-1.9,0.2-3.8,1.2-5.6,2
	c-3.4,1.6-6.8,3.1-10.6,3.8c-4.9,0.9-9.7,0.8-14.3-1.3c-3.1-1.4-6.3-2.7-9.4-4.1c-3.3-1.6-6.6-1.6-10-0.2c-2.7,1.1-5.5,2.2-8.2,3.3
	c-3.6,1.5-7.3,2.9-11.2,3.2c-1.7,0.2-3.5,0.1-5.3,0c-1.9-0.1-3.6-0.9-5-2.1c-1.8-1.6-3.9-2.4-6.2-2.9c-5-0.9-10-1.7-15-0.9
	c-2.8,0.4-5.6,1.3-8.3,2.1c-3,1-6,2.2-9,3.3c-6.7,2.6-13.6,3.4-20.7,2.2c-8.2-1.4-16.4-2.6-24.9-3.9c-11-8-10.5-62.2,0.2-55.1
	c0.5,0.5,0.9,0.9,1.1,1.3c1.5,2.7,3,5.5,4.5,8.2c1.8,3.2,3.4,6.5,5.3,9.7c1,1.6,2.3,3.1,3.7,4.4c2.3,2.1,5,2.3,7.8,0.9
	c0.9-0.4,1.7-0.9,2.4-1.5c3.4-2.6,6-5.9,8.5-9.5c-1.7-3.1-3.4-6.2-5.2-9.2c-6.3-10.5-12.9-20.8-19.1-31.3c-3.6-6.2-6.9-12.6-10-19.1
	c-1.6-3.4-2.6-7.2-3.5-10.9c-0.4-1.8-0.2-3.8,0.1-5.7c0.4-2.5,2-4.3,4.3-5c2-0.6,4.2-0.7,6.3-1.1c1.1-0.2,1.6,0.6,2.1,1.4
	c3.2,4.7,6.6,9.2,9.5,14.1c6.2,10.4,12.1,21,18.2,31.6c3.6,6.3,7.2,12.6,11,18.8c3.5,5.7,7.6,11.1,12.4,15.8
	c3.2,3.2,6.7,5.9,10.6,8.2c2.5,1.5,5.2,1.9,8.1,1.4c3-0.5,4.8-2.3,4.8-5.4c0-2.3-0.3-4.6-0.8-6.9c-1.3-5.4-3.5-10.5-6.2-15.3
	c-5.3-9.6-10.6-19.2-16.2-28.5c-8.3-13.9-17-27.6-25.4-41.5c-4.4-7.3-8.6-14.8-12-22.7c-1.5-3.4-2.8-6.8-3.3-10.5c0-0.1,0-0.2,0-0.2
	c-0.3-2.5-0.4-5,2-6.5c2.4-1.5,5-1.3,7.5,0c7.1,3.6,14.2,7.3,21.5,10.6c11.3,5,23.1,8.2,35.1,11.2c4.9,1.2,9.7,2.7,14.5,4.2
	c2.4,0.7,3.9,2.1,5.2,4.5c2.6,4.8,5.8,9.4,8.9,14c7.8,11.4,15.7,22.8,23.5,34.2c4.4,6.6,8.5,13.4,11.9,20.5
	c1.9,3.9,3.5,7.9,4.3,12.2c1.2,6.8-1.7,10.3-8.6,10.2c-0.5,0-1,0-1.4-0.1c-2,0-3.3-0.8-4.4-2.6c-8.6-13.6-17.3-27.1-26-40.6
	c-7.3-11.2-15.3-21.9-24-32c-1.1-1.3-2.3-2-4-2.2c-2.2-0.2-4.4-0.4-6.7,0.1c-3.1,0.8-5,2.9-5.1,6.1c0,2.3,0.1,4.7,0.8,6.8
	c1.5,4.5,3.2,8.9,5.3,13.1c4.8,9.9,10.8,19.1,16.7,28.3c5.1,8,10.3,16,15.4,24c1,1.6,1.9,3.3,2.8,5c0.6,1,0.7,2.1,0.3,3.2
	c-0.4,1.1-0.6,2.2-0.8,3.2c-0.7,3-0.1,5.9,1.3,8.6c0.3,0.5,0.6,1,1.1,1.3c2.3,1.4,4.8,2.6,7.5,3.1c2.7,0.5,5.2-0.1,7.5-1.8
	c1.1-0.9,2.3-1.8,3.4-2.7c3.7-3.1,7.8-3.9,12.3-2.5c2.2,0.7,4.3,1.6,6.4,2.6c1,0.5,1.8,0.6,2.8-0.1c10.4-6.9,22-9.6,34.4-8.9
	c1.2,0.1,2.4,0.3,3.6,0.4c4.6,0.6,9.2,1,13.7,1.8c4.8,0.9,9.5,2.3,14.2,3.2c5,1,10.1,1.4,15.3,0.6c8.1-1.3,13.8-5.9,17.7-13
	c0.3-0.6,0.6-1.1,0.9-1.7c0.3-0.6,0.6-1.1,0.9-1.8c0.9,0.3,1.7,0.6,2.5,0.9c10.8,4.1,22,6.1,33.5,6c3.8,0,7.5-0.4,11.1-1.5
	c1.3-0.4,2.5-1,3.7-1.6c2.8-1.6,5.8-1.8,8.8-0.7c2.2,0.8,4.4,1.9,6.6,2.8c2.5,1,5,2,7.6,2.7c2.8,0.8,5.6,0.5,8.2-0.9
	c2.4-1.2,4.8-2.6,7.2-3.9c0.8-0.5,1.7-0.9,2.5-1.4c3.7-2.4,7.7-2.4,11.8-1.5c4.7,1,9.4,2.1,14,3.3c1.7,0.4,3.1,0.5,4.6-0.2
	c5.2-2.4,10.6-4.6,15.7-7.1c15.9-7.9,31.5-16.4,46.1-26.5c3.7-2.5,7.1-5.5,10.5-8.3c1.2-1,2.2-2.3,3.1-3.6c0.6-0.8,1-1.9,1.1-2.9
	c0.5-7.6,2.2-15,3.9-22.4c2.9-12.4,6.2-24.6,11-36.5c1-2.6,2.4-5,3.6-7.6c0.2-0.4,0.4-0.7,0.7-1c2.1-2.8,3-2.8,4.6,0.2
	c2.9,5.5,4.3,11.3,5,17.4c1.2,10.3,0.4,20.6-1.2,30.8c-1.7,11-3.8,22-5.7,33.1c-0.2,1.2-0.4,2.5-0.6,3.8c-1.6,0.2-3,0.2-4.4,0.5
	c-2.8,0.6-5.3,1.8-7.6,3.5c-2.2,1.7-4.3,3.6-6.4,5.4c-1.6,1.4-3.1,2.8-4.7,4.1c-3,2.4-6.3,3.9-10.4,2.9c-1,3.2-1.6,6.4-0.1,9.5
	c0.8,1.7,2.4,2.5,4.2,2.8c2.8,0.3,5.6-0.1,8.3-0.8c5-1.2,9.9-2.6,14.9-3.8c1.7-0.4,3.5-0.3,5.2-0.3c1.4,0,2.6,0.6,3.5,2
	c-0.6,0.7-1.2,1.5-1.8,2.2c-15.8,18.8-33.6,35.6-52.4,51.2c-17.2,14.2-35.1,27.5-52.9,41c-20.3,15.3-40.3,31-59.4,47.8
	c-12,10.7-23.7,21.7-34.9,33.3c-2.4,2.4-2.5,4,0.1,6.2c2.2,1.8,4.6,3.4,7.1,4.8c7,3.8,14.5,6.8,22,9.5c18.3,6.6,36.7,13.1,55,19.7
	c14.1,5.1,28.2,10.3,41.8,16.8c5.1,2.5,10.1,5.1,14.7,8.5c2.3,1.7,4.5,3.6,6.1,6.1c1.7,2.8,1.5,5.4-0.4,7.8c-0.9,1.1-1.8,1.4-3.1,1
	c-3.6-1.2-7.2-2.2-10.7-3.6c-17.2-6.8-34.5-13.6-51.7-20.4c-17.7-7-35.5-14-53.8-19.7c-7.7-2.4-15.5-4.6-23.5-5.8
	c-3.3-0.5-6.7-1-10-0.4c-2.1,0.4-2.6,0.9-2.1,2.9c0.4,1.6,0.9,3.3,1.7,4.7c2.1,3.9,4.3,7.8,6.7,11.6c5.5,8.8,11.2,17.5,16.7,26.3
	c2.2,3.5,4,7.3,5.8,11c0.7,1.5,1.1,3.3,1.3,5.1c0.2,1.9-0.4,2.7-2.3,2.9c-4.4,0.7-8.8,1.4-13.3,1.8c-33.5,3.2-67.1,2.5-100.6,2.3
	c-30-0.2-60,0.2-89.9-0.5c-19.1-0.4-38.2-0.2-57.3-0.9c-11.4-0.4-22.6,0.1-34-0.4C31.8,494.4,30.2,494.2,28.3,494.1z"/>
<path class="st0" d="M32.9,349.7c1.5-3.7-16.9-18.4-11.7-20.3s39.6-2.1,57.3-1.9c18.8,0.2,37.6,0.5,56.4,0.8
	c12,0.2,33.4,0.3,38.9,0.6c5.5,0.3-9.5,17.2-7.9,21.1c1.6,3.9,12.2,2.3,10.8,13.1c-1.3,7.6-6,12.3-12.9,15.1c-2.9,1.2-6,1.7-9.1,1.6
	c-34-1.3-67.9,0-101.9,0.5c-5.3,0.1-10.6-0.1-15.7-1.6c-4.1-1.2-8-2.9-11-6.1c-3.5-3.8-4.9-8.2-3.6-13.3
	C23.7,354.9,31.4,353.4,32.9,349.7z"/>
<path class="st0" d="M30.6,53.8c0.1-2.2,1.3-3.5,2.6-4.7c3.2-2.9,7.1-4.6,11.2-5.7c5.8-1.6,11.4-1.2,17.1,1.1
	c60.6,25.1,121.3,50.2,181.9,75.3c1.2,0.5,2.6,0.7,3.2,2.2c1.4,3.7,0,6.3-3.9,7.1c-3.8,0.8-7.7,0.4-11.4-0.2
	c-12.8-1.9-25.1-5.6-37.3-9.6c-24.9-8-49.2-17.5-73.4-27.2C91,80.2,61.7,67.6,32.6,54.8C31.9,54.5,31.3,54.1,30.6,53.8z"/>
<path class="st0" d="M206,405.5c4.3,2.4,15.5,23.5,25.9,31.8c-0.7,2.2-1.1,2.8-3,2.6c-1.5-0.1-3-0.4-4.4-0.9
	c-3.2-1.3-6.3-2.7-9.3-4.3c-6.9-3.6-13.8-7.5-20.8-10.9c-3.2-1.6-6.7-2.5-10.1-3.7c-0.4-0.2-0.9-0.2-1.4-0.3c-4.7-0.5-7,1.3-7.4,5.7
	c0,0.2-0.1,3.5-0.2,4c-1.5,0.3-3.1-0.2-4.7-0.1c-9.3,0.5-18.7-0.7-28-0.6c-34.5,0.5-18.9,0.1-53.3-0.7c-2.8-0.1-39.6-0.1-42.4-0.2
	c-0.8,0-17.6-0.1-18.5-0.1c-10-0.4-11.2-22.1,0-22.1C88,405.8,201.7,403.1,206,405.5z"/>
<path class="st0" d="M277,130.1c1.1-2.1,2.7-2.6,4.2-2.9c3.7-0.6,7.4-1.3,11.2-1.3c9.4,0,18.9,0.1,28.3,0.6
	c9.2,0.5,18.3,1.3,27.5,2.2c9.5,0.9,18.9,1.9,28.4,3.1c9.3,1.1,18.5,2.3,27.8,3.6c19.4,2.8,38.7,5.6,57.8,10
	c2.1,0.5,4.1,1.2,6.2,1.8c1.7,0.5,2.9,1.7,3.9,3c1.3,1.8,1,3.3-1,4.3c-1.2,0.6-2.5,1.2-3.8,1.4c-4.2,0.6-8.4,1.2-12.6,1.3
	c-11,0.4-22.1-0.2-33.1-1.1c-9.3-0.8-18.6-1.6-27.9-2.6c-9.3-1-18.6-2.2-27.8-3.5c-11.9-1.7-23.9-3.6-35.7-5.6
	c-14.6-2.5-29.1-5.2-43.2-9.5c-2.4-0.7-4.8-1.7-7.2-2.7C278.9,131.7,278,130.9,277,130.1z"/>
<path class="st0" d="M257.9,208.5c-7.3-11.6-14.7-22.9-21.7-34.4c-2.3-3.7-3.8-7.9-5.5-11.9c-0.6-1.4-0.8-2.9-0.9-4.4
	c-0.3-4.1,2.2-6.1,6.2-5.2c5.1,1.1,10.1,2.3,15.2,3.3c11,2.2,22,4.1,32.9,6.4c5.8,1.2,11.5,2.8,17.2,4.2c3.5,0.9,6.3,2.9,8.7,5.6
	c6.3,7.5,12,15.4,16.6,24c1.1,2,2,4.2,2.8,6.4c0.3,0.9,0.3,2,0.4,3.1c-6.2,1.4-11.9,1.2-17.5-1.6c-3.7-1.9-6.9-4.4-9.5-7.6
	c-3.2-3.9-6.1-8-9.3-11.9c-2.2-2.7-4.4-5.3-6.8-7.7c-3.7-3.6-8.3-4.3-13.2-3.1c-5.6,1.4-7.8,5.8-5.6,11.2c1.1,2.6,2.3,5.1,3.1,7.8
	c1.7,5.4,0.3,9-4.5,12C264,206.4,261.2,207.6,257.9,208.5z"/>
<path class="st0" d="M309.5,7.8c1.3,0.4,2.5,0.6,3.6,1.1c6.6,2.9,12.1,7.2,16.2,13.1c1.2,1.8,2,4,2.7,6.1c0.5,1.5,0.2,2.9-0.7,4.3
	c-4.3,7.1-8.7,14.2-12.9,21.3c-6.4,11.1-12.5,22.5-19.8,33.1c-3.2,4.7-6.8,9.3-10.5,13.7c-2,2.4-4.6,4.5-7.2,6.3
	c-1.7,1.2-3.9,1.9-5.9,2.4c-1.9,0.5-3.2-0.4-3.4-2.4c-0.2-1.5,0-3.1,0.4-4.5c1-3,2.2-6,3.6-8.8c3.6-6.9,7.4-13.8,11.2-20.6
	c6-10.9,11.9-21.9,16.3-33.6c2.7-7.3,4.9-14.7,5.8-22.4C309.4,13.9,309.4,11,309.5,7.8z"/>
<path class="st0" d="M422.4,192.6c0,4.6-3,6.6-6.7,8.1c-5.1,2-10.4,2.6-15.8,2c-4.2-0.5-8.3-1.4-12.5-2.1
	c-7.7-1.3-15.3-0.7-22.8,1.1c-2,0.5-4.1,0.6-6.2,0.8c-1.1,0.1-1.9-0.4-2.6-1.4c-3.6-4.8-7.3-9.5-10.9-14.3c-1.8-2.4-3.7-4.8-5.3-7.4
	c-0.8-1.2-1.5-2.7-1.9-4.1c-0.7-2.2,0.2-3.6,2.5-4c2.1-0.3,4.3-0.3,6.3,0.8c3.7,2.1,7.4,4,11.2,5.9c3.1,1.6,6.3,3.1,9.6,4.4
	c1.8,0.7,3.8,1.2,5.8,1.5c4.2,0.6,6.8-1.5,7-5.8c0.1-0.9,0.1-1.8,0-2.6c-0.1-1.2,0.5-1.9,1.6-1.9c2.2-0.1,4.5-0.4,6.7-0.2
	c5.2,0.6,10.3,1.3,15.4,2.2c7.7,1.4,15.3,3.4,22.6,6.2c1.9,0.7,3.7,1.6,5.4,2.5c0.8,0.4,1.7,1,2.4,1.6c1.7,1.5,1.6,3-0.5,3.9
	c-2.2,0.9-4.5,1.4-6.9,2C425.4,192.3,423.9,192.4,422.4,192.6z"/>
<path class="st0" d="M226.8,208.6c-2.2-0.6-4.5-1.1-6.7-1.7c-6.4-1.7-11.7-5.1-15.9-10.4c-5.7-7.1-11.2-14.1-15.8-22
	c-2.8-4.8-5.3-9.8-6.5-15.4c-0.3-1.5-0.5-3-0.5-4.5c0-6.4,4.8-11.2,11.2-11.1c0.5,0,1.1,0.5,1.6,0.8c0.1,0.1,0.2,0.3,0.3,0.4
	c9.8,15.4,19.7,30.8,29.4,46.3c2.1,3.4,3.8,7,5.7,10.5c0.5,1,0.9,2.1,1.2,3.1c0.6,2.3-0.3,3.5-2.7,3.7c-0.4,0-0.8,0-1.2,0
	C226.8,208.4,226.8,208.5,226.8,208.6z"/>
</svg>
