<?xml version="1.0" encoding="utf-8"?>
<!-- Generator: Adobe Illustrator 24.2.0, SVG Export Plug-In . SVG Version: 6.00 Build 0)  -->
<svg version="1.1" id="Layer_1" xmlns="http://www.w3.org/2000/svg" xmlns:xlink="http://www.w3.org/1999/xlink" x="0px" y="0px"
	 viewBox="0 0 500 500" style="enable-background:new 0 0 500 500;" xml:space="preserve">
<style type="text/css">
	.st0{fill:#F3F3F3;}
</style>
<path class="st0" d="M483.4,337.2c-1-7.8-3.2-15.5-8-21.9c-3.2-2.5-6.1-5.4-9-8.3c-3.6-2.4-7.5-4.4-11.6-6.1c-0.6,0-1.3-0.1-1.9-0.1
	c-7.5-0.6-14.8-2.6-22.1-4.3c-4.4-1.1-8.6-2.9-12.8-4.5c-1-0.4-2-0.9-3.1-1.3c-1.9,0-3.7-0.1-5.5-0.1c-2.5,0-4.4-4-5.4-5.5
	c-0.5,0.1-2.4,1.1-3,1c-4,1.6-7.2,5-7.6,4.6c-5.7-5.3-16.8-16.6-16.6-17.1c-5.8-3.9-11.6-7.8-17-12.3c-1.6-1.3-2.2-2.9-2.1-4.4
	c-0.9-0.4-1.8-1.2-2.8-1.7c1.1-0.9,2-2.1,3.3-2.5c6.6-2.2,13.2-4.4,20-6c0.3-0.1,0.7,0.1,1.1,0.4c5.7-2.6,11.8-3.5,18.1-3.5
	c0-0.3,0.1-0.5,0.3-0.7c8.1-9.1-0.6-9.1-6.4-9.8c-12.9-1.6-26.6-0.4-38.5-4.3c-19.2-6.3-37.4,0.1-56-0.2c-2.1,0-4.7,1.3-6.3,2.8
	c-3.9,3.5-8,3.4-10.4-0.5c-1.3-2.2-0.8-6.7,0.8-8.9c3.3-4.3,9.9-7,11.6-11.5c4-10.5,11.4-8.8,19.8-7.4c11.6,2,23.5,5.8,34.9,4.8
	c21-1.8,39.5,3.3,57.7,11.9c4.6,2.2,6.6,0.3,5.8-4.7c-2.2-12.9-17.8-25.3-32.2-26.1c-7-0.4-14.8-0.6-20.5-3.6
	c-11.4-5.9-22.3-11.6-35.9-11.7c-4.8,0-9.5-2.5-14.3-3.8c4.7-0.4,9.4-0.4,14-1.4c4.8-1.1,9.4-3.1,14.1-4.7c-3.8-2.1-7.8-4-11.3-6.5
	c-1.8-1.2-2.9-3.5-4.3-5.2c2-0.5,4.1-1.7,5.9-1.4c9.6,1.8,19.7,2.6,28.6,6.2c13.7,5.5,26,14.2,39.8,19.2
	c10.5,3.8,18.8,9.7,27.2,16.1c1.3,1,2.9,1.7,4.4,2.6c-0.2-1.8,3.6-14.3,4.9-15.7c5.1-5.4-6.2-14.1-6.8-15.4
	c-3.3-7.9-8.8-12.9-17.9-16c-7.1-2.4-14.6-7.7-18.4-13.7c-4.8-7.5-5.3-17.9-19.1-11.5c-0.9,0.4-2.9-0.8-4.1-1.6
	c-10.5-6.8-25.6-5.7-33.8-17.1c-1.6-2.2-6.8-3.3-10.1-2.8c-8.6,1.1-15.2-1.5-21.5-6.5c-1.8-1.4-4.5-2.8-6.8-2.7
	c-8,0.2-16.2,2.4-23.9,1.4c-8.1-1-13.3,0.7-19.5,5.6c-11.1,8.8-24.3,10.9-38.8,6.7c-4.4-1.3-11.1-1.2-14.6,1.1
	c-6.9,4.4-13.7,3.8-20.9,3.2c-13.6-1.1-21.1,8.2-29.7,15.3c-2.5,2.1-4.1,5.9,3.1,8.1c10.2,3.2,18.8,4.2,27.7-2.3
	c4-3,10.3-7.9,13-6.8c9.2,3.9,18.2,2.4,27.4,2.8c0.7,0,17,1.6,17.5,1.5c8.3-0.4,16.7-0.4,25-0.4c0.9,0,1.8,0.7,2.7,1
	c-1.2,0.7-2.3,1.7-3.5,2.1c-7,2.3-14.1,4.4-21.1,6.5c-4.6,1.4-4.7,4.3-1,5.9c6.3,2.6,40.3,10.2,26.3,15.3c0,8.7-29.4,0.2-34.6-2.9
	c-5.6-3.3-11.4-6.1-16.9-9.4c-10.5-6.3-21-9-33.8-5.5c-8.2,2.3-17.1,6-26.2,0.4c-1.9-1.2-6.5,0.9-9.7,1.9
	c-10.7,3.6-21.3,7.4-32,11.1c-12,4.2-24.7,7.3-36,12.9c-14.8,7.4-28.6,16.6-42.4,25.4c-3.2,2-5.7,5.7-7.2,9.2
	c-2.9,6.7-0.6,9.4,7.7,9.6c9.3,0.3,17.9,0.7,26.3-5.8c7.1-5.5,17.2-7.9,26.3-10.8c5-1.6,9.6,1.6,6.2,6c-5.4,7-1.2,6,3.8,5.5
	c7.5-0.7,16.2-5.6,22.1,1.1c9.4,10.6,21.6,10.4,34.1,10.3c16.3-0.2,14.6,2.8,20.1,13.9c2.2,4.5,0.6,6.7-4.1,6.7
	c-0.7,1.1-1.8,2-3.4,2.6c-8.9,3.1-12.7,15.9-15.2,23.4c1.6,1.2,6.9,3.1,6.8,3.4c-1.8,3.3-6.8,13.9-9,17c-1.6,6.5-4.2,4.7-5.7,11.2
	c-3.7,15.9-7.4,32-14.1,47.1c-2.3,5.2-0.2,17.6,0.7,17.7c-0.9,2.6-5.4,5.4-6,8c-0.4,1.8-1.7,2.1-1.1,3.8
	c42.4,5.2,85.4,5.2,128.8,2.1c64.8-4.6,160.9-8.8,236.3-35.6C483.7,338.6,483.5,338,483.4,337.2z M331,122.6
	c3.7,1.7,6.7,6.8,10,10.4c-3.4,0.8-6.9,1.6-12.4,2.9c-6.8-4.6-14.9-9.9-22.8-15.8c-0.8-0.6-0.5-4.1-0.8-6.2
	C313.7,116.8,322.5,118.8,331,122.6z M134.9,194.9c-6.1-0.6-12-2.1-15.1-2.6c-5.1,0.7-7.2,1.3-9.2,1c-0.6-0.1-3.6-10.3-3.2-10.6
	c2.8-2,7.6-3.3,10.9-4.3c5.3-1.6,12.9-4.9,18.4-5.2c2.7-0.1,7.9,2.5,7.8,3.8C144.2,181.4,143,195.8,134.9,194.9z M206,170
	c3.7,1.9,20.2,9,24,11c-1.7,1.5-21,15-20.3,8.3c0.4-4.2-13.3,1.1-16.7-1.3C194.1,187.3,204,171.3,206,170z M169.2,192.1
	c-4.9,2.3-9.9-6.5-10.2-16.9c2.4-2.3,6-8.5,10.8-9.4c3.5-0.7,8.6,5.5,13,8.6C177.6,178.7,176,194,169.2,192.1z M274.1,206.8
	c-5.9,3.9-12.5,6.9-18.5,10.8c-2.4,1.5-5.2,4.5-5.2,6.8c0,7.5-4,15.1-10.8,15.2c-10.2,0.2-20.5-1-30.7-1.9c-1.6-0.2-4.6-2.7-4.3-3.3
	c4.1-11.1-6.7-11.1-12.5-14.9c-2.1-1.3-4.7-2.4-6-4.2c-2.7-3.9-5.3-7.7,3.6-8.2c8.7-0.5,17.4-2.8,26-4.3c0.3,0.8,9.2,0.5,12.5-1.7
	c12.6-8.5,35.1-8.9,46.2-0.1C275.5,202,275.2,206.1,274.1,206.8z M317.8,258.8c-2-0.1-4-0.7-5.8-1.5c-4.2-2-8.3-4.2-12.5-6.3
	c1.1-0.7,7.8-7.2,8.6-7c6.1,1.8,15.9,1.2,24,4C328.8,250.1,318.6,258.9,317.8,258.8z"/>
</svg>
